<svg width="40" height="40" viewBox="0 0 40 40" fill="none" xmlns="http://www.w3.org/2000/svg">
<path d="M16.3055 32.8889C16.4074 32.6816 16.4746 32.4596 16.5048 32.2313L17.0616 23.9515L17.3381 19.7898C17.3409 19.3619 17.4081 18.9367 17.5373 18.5279C17.8712 17.7349 18.6743 17.2309 19.5481 17.266L32.8627 18.1369C33.4392 18.1464 33.996 17.9308 34.4105 17.5374C34.7559 17.2097 34.9789 16.7809 35.0491 16.3197L35.0727 16.0396C34.5217 8.4102 28.9183 2.04669 21.3047 0.404011C13.6911 -1.23867 5.88373 2.2314 2.12142 8.93021C1.03677 10.8764 0.359301 13.0155 0.128764 15.222C0.0324572 15.8752 -0.00994903 16.535 0.00195845 17.1949C-0.0099319 25.3745 5.81494 32.4461 13.9687 34.1509C14.95 34.3037 15.9121 33.7842 16.3055 32.8889Z" fill="#3F408C"/>
<path d="M21.7402 39.9984C30.8599 39.7663 38.5248 33.2084 40.0001 24.3754L39.986 24.3102L39.9458 24.2155L39.9514 23.9553C39.9305 23.6106 39.7974 23.2789 39.5681 23.011C39.3292 22.732 39.0028 22.5419 38.6433 22.4682L38.4241 22.4381L23.0625 21.4428C22.5516 21.3924 22.0428 21.5572 21.6628 21.8961C21.3462 22.1785 21.1437 22.5598 21.0865 22.9706L20.0555 38.3099C20.0375 38.3617 20.0375 38.418 20.0555 38.4698C20.0695 38.8927 20.2557 39.2923 20.5722 39.5795C20.8888 39.8668 21.3094 40.0176 21.7402 39.9984Z" fill="#2DDD9D"/>
</svg>
