<svg width="48" height="48" viewBox="0 0 48 48" fill="none" xmlns="http://www.w3.org/2000/svg">
<path d="M32.68 3.99957H15.34C8.56 3.99957 4 8.75957 4 15.8396V32.1796C4 39.2396 8.56 43.9996 15.34 43.9996H32.68C39.46 43.9996 44 39.2396 44 32.1796V15.8396C44 8.75957 39.46 3.99957 32.68 3.99957Z" fill="#2DDD9D"/>
<path d="M25.7546 17.4736V22.3122C27.0287 22.6825 28.3668 23.1498 29.4017 23.9585C30.5017 24.8181 31.25 26.0561 31.25 27.924C31.25 29.3053 30.8409 30.6638 29.9081 31.7146C29.0094 32.727 27.6449 33.4307 25.7545 33.6083V35.0747C25.7545 35.7082 25.2668 36.2451 24.6357 36.2488C23.9968 36.2786 23.4766 35.7593 23.4482 35.1176L23.4477 35.1065H23.4478L23.4471 35.0952C23.4468 35.0899 23.4465 35.0828 23.4465 35.0747V33.6463C21.4788 33.5212 19.609 32.6948 18.1435 31.3018L18.1381 31.2967L18.1331 31.2912C17.885 31.0257 17.7489 30.6707 17.7501 30.3035C17.7501 30.3028 17.7501 30.3021 17.7501 30.3014L18.0001 30.3025C17.9915 29.6026 18.5009 29.0178 19.1624 28.9694L25.7546 17.4736ZM25.7546 17.4736C26.6835 17.6861 27.5584 18.1128 28.3177 18.7257L28.3175 18.726L28.3281 18.7336C28.5427 18.889 28.7962 18.9743 29.0595 18.978L29.0595 18.9781H29.0631C29.888 18.9781 30.5386 18.2811 30.547 17.4429L30.547 17.4415C30.5487 17.0736 30.4126 16.7177 30.1641 16.4517L30.1569 16.4439L30.149 16.4369C28.9092 15.3159 27.3667 14.6321 25.7402 14.4818V12.9258C25.7402 12.2948 25.2564 11.7596 24.629 11.7517C24.6093 11.75 24.5932 11.7501 24.5865 11.7501C24.5864 11.7501 24.5864 11.7501 24.5863 11.7501C23.946 11.7415 23.4412 12.278 23.4323 12.9223L23.4322 12.9223V12.9258V14.4242C20.2264 14.7561 18.0085 16.9121 18.0085 19.8037C18.0085 21.6059 18.7412 22.7771 19.8255 23.5852C20.8428 24.3433 22.1637 24.7768 23.4322 25.143V30.7205L25.7546 17.4736ZM25.7546 30.7525V25.8702C26.4197 26.0871 26.9834 26.3365 27.3946 26.6726C27.8562 27.0501 28.1307 27.5402 28.1243 28.255V28.2573C28.1243 28.7803 27.9548 29.3485 27.5473 29.8164C27.1807 30.2372 26.608 30.5922 25.7546 30.7525ZM23.4466 17.3415V21.6741C22.8039 21.4649 22.2623 21.25 21.8647 20.9627C21.42 20.6413 21.163 20.2353 21.163 19.6219C21.163 18.9875 21.4098 18.4483 21.8445 18.0486C22.2312 17.693 22.7761 17.44 23.4466 17.3415Z" fill="#3F408C" stroke="#3F408C" stroke-width="0.5"/>
</svg>
