<svg width="108" height="109" viewBox="0 0 108 109" fill="none" xmlns="http://www.w3.org/2000/svg">
<g filter="url(#filter0_b)">
<path d="M90.6177 49.8089C90.6177 72.8999 71.8999 91.6177 48.8089 91.6177C25.7178 91.6177 7 72.8999 7 49.8089C7 26.722 25.7178 8 48.8089 8C71.8999 8 90.6177 26.722 90.6177 49.8089Z" fill="url(#paint0_linear)"/>
</g>
<g filter="url(#filter1_f)">
<path d="M48.9173 22.5964C34.0708 22.5964 22.0215 34.6484 22.0215 49.4922C22.0215 64.3414 34.0708 76.388 48.9173 76.388C63.7906 76.388 75.813 64.3414 75.813 49.4922C75.813 34.6484 63.7906 22.5964 48.9173 22.5964Z" fill="url(#paint1_linear)"/>
</g>
<g filter="url(#filter2_b)">
<path d="M107 66.1911C107 89.2821 88.2817 108 65.1907 108C42.0997 108 23.3818 89.2821 23.3818 66.1911C23.3818 43.1042 42.0997 24.3822 65.1907 24.3822C88.2817 24.3822 107 43.1042 107 66.1911Z" fill="#2DDD9D" fill-opacity="0.35"/>
<path d="M65.1907 108.5C88.5579 108.5 107.5 89.5583 107.5 66.1911C107.5 42.8281 88.5579 23.8822 65.1907 23.8822C41.8235 23.8822 22.8818 42.8281 22.8818 66.1911C22.8818 89.5583 41.8235 108.5 65.1907 108.5Z" stroke="url(#paint2_linear)" stroke-linecap="round" stroke-linejoin="round"/>
</g>
<g filter="url(#filter3_bd)">
<path fill-rule="evenodd" clip-rule="evenodd" d="M49.2325 63.1395H54.3408C54.5744 59.0813 55.3461 55.3433 56.5379 52.3298C54.619 53.5056 52.9742 55.0787 51.7141 56.9432C50.454 58.8078 49.6079 60.9206 49.2325 63.1395ZM64.7646 44.7645C59.1951 44.7645 53.8537 46.977 49.9154 50.9153C45.9771 54.8535 43.7646 60.195 43.7646 65.7645C43.7646 71.3341 45.9771 76.6755 49.9154 80.6138C53.8537 84.552 59.1951 86.7645 64.7646 86.7645C70.3342 86.7645 75.6756 84.552 79.6139 80.6138C83.5522 76.6755 85.7646 71.3341 85.7646 65.7645C85.7646 60.195 83.5522 54.8535 79.6139 50.9153C75.6756 46.977 70.3342 44.7645 64.7646 44.7645ZM64.7646 50.0145C64.5651 50.0145 64.1556 50.0985 63.544 50.7023C62.9193 51.3165 62.2394 52.3377 61.6094 53.805C60.5883 56.1859 59.8428 59.4278 59.5986 63.1395H69.9306C69.6865 59.4278 68.941 56.1859 67.9199 53.805C67.2899 52.335 66.6074 51.3165 65.9853 50.7023C65.3736 50.0985 64.9641 50.0145 64.7646 50.0145ZM75.1885 63.1395C74.9549 59.0813 74.1831 55.3433 72.9914 52.3298C74.9103 53.5056 76.5551 55.0787 77.8152 56.9432C79.0753 58.8078 79.9214 60.9206 80.2968 63.1395H75.1885ZM69.9306 68.3895H59.5986C59.8428 72.1013 60.5883 75.3432 61.6094 77.724C62.2394 79.194 62.9219 80.2125 63.544 80.8268C64.1556 81.4305 64.5651 81.5145 64.7646 81.5145C64.9641 81.5145 65.3736 81.4305 65.9853 80.8268C66.61 80.2125 67.2925 79.1914 67.9199 77.724C68.941 75.3432 69.6865 72.1013 69.9306 68.3895ZM72.9914 79.1993C74.1831 76.1884 74.9549 72.4478 75.1885 68.3895H80.2968C79.9214 70.6084 79.0753 72.7213 77.8152 74.5858C76.5551 76.4504 74.9103 78.0235 72.9914 79.1993ZM56.5379 79.1993C55.3461 76.1858 54.5744 72.4478 54.3434 68.3895H49.2325C49.6079 70.6084 50.454 72.7213 51.7141 74.5858C52.9742 76.4504 54.619 78.0235 56.5379 79.1993Z" fill="url(#paint3_linear)"/>
</g>
<defs>
<filter id="filter0_b" x="-6" y="-5" width="109.618" height="109.618" filterUnits="userSpaceOnUse" color-interpolation-filters="sRGB">
<feFlood flood-opacity="0" result="BackgroundImageFix"/>
<feGaussianBlur in="BackgroundImage" stdDeviation="6.5"/>
<feComposite in2="SourceAlpha" operator="in" result="effect1_backgroundBlur"/>
<feBlend mode="normal" in="SourceGraphic" in2="effect1_backgroundBlur" result="shape"/>
</filter>
<filter id="filter1_f" x="0.0214844" y="0.596436" width="97.7915" height="97.7915" filterUnits="userSpaceOnUse" color-interpolation-filters="sRGB">
<feFlood flood-opacity="0" result="BackgroundImageFix"/>
<feBlend mode="normal" in="SourceGraphic" in2="BackgroundImageFix" result="shape"/>
<feGaussianBlur stdDeviation="11" result="effect1_foregroundBlur"/>
</filter>
<filter id="filter2_b" x="7.38184" y="8.3822" width="115.618" height="115.618" filterUnits="userSpaceOnUse" color-interpolation-filters="sRGB">
<feFlood flood-opacity="0" result="BackgroundImageFix"/>
<feGaussianBlur in="BackgroundImage" stdDeviation="7.5"/>
<feComposite in2="SourceAlpha" operator="in" result="effect1_backgroundBlur"/>
<feBlend mode="normal" in="SourceGraphic" in2="effect1_backgroundBlur" result="shape"/>
</filter>
<filter id="filter3_bd" x="24.7646" y="25.7645" width="80" height="80" filterUnits="userSpaceOnUse" color-interpolation-filters="sRGB">
<feFlood flood-opacity="0" result="BackgroundImageFix"/>
<feGaussianBlur in="BackgroundImage" stdDeviation="7.5"/>
<feComposite in2="SourceAlpha" operator="in" result="effect1_backgroundBlur"/>
<feColorMatrix in="SourceAlpha" type="matrix" values="0 0 0 0 0 0 0 0 0 0 0 0 0 0 0 0 0 0 127 0"/>
<feOffset dx="5" dy="5"/>
<feGaussianBlur stdDeviation="5"/>
<feColorMatrix type="matrix" values="0 0 0 0 0.0409028 0 0 0 0 0.516667 0 0 0 0 0.342404 0 0 0 0.3 0"/>
<feBlend mode="normal" in2="effect1_backgroundBlur" result="effect2_dropShadow"/>
<feBlend mode="normal" in="SourceGraphic" in2="effect2_dropShadow" result="shape"/>
</filter>
<linearGradient id="paint0_linear" x1="48.8089" y1="8" x2="48.8089" y2="91.6177" gradientUnits="userSpaceOnUse">
<stop stop-color="#2DDD9D"/>
<stop offset="1" stop-color="#2DDD9D" stop-opacity="0"/>
</linearGradient>
<linearGradient id="paint1_linear" x1="48.9172" y1="22.5964" x2="48.9172" y2="76.388" gradientUnits="userSpaceOnUse">
<stop stop-color="#2DDD9D"/>
<stop offset="1" stop-color="#2DDD9D" stop-opacity="0"/>
</linearGradient>
<linearGradient id="paint2_linear" x1="36.6924" y1="34.1238" x2="90.0316" y2="100.186" gradientUnits="userSpaceOnUse">
<stop stop-color="white" stop-opacity="0.25"/>
<stop offset="1" stop-color="white" stop-opacity="0"/>
</linearGradient>
<linearGradient id="paint3_linear" x1="50.5896" y1="51.5895" x2="79.2647" y2="97.2645" gradientUnits="userSpaceOnUse">
<stop stop-color="white"/>
<stop offset="1" stop-color="white" stop-opacity="0"/>
</linearGradient>
</defs>
</svg>
