<svg width="15" height="14" viewBox="0 0 15 14" fill="none" xmlns="http://www.w3.org/2000/svg">
<path fill-rule="evenodd" clip-rule="evenodd" d="M0.594631 0.205025C0.87244 -0.0683417 1.32286 -0.0683417 1.60066 0.205025L3.76394 2.33372C4.90758 1.72086 6.1921 1.39834 7.50048 1.4C11.0054 1.40021 13.9699 3.66715 14.9673 6.79013C15.011 6.92703 15.0109 7.07384 14.967 7.21068C14.5043 8.65341 13.623 9.92422 12.4407 10.8718L14.4054 12.805C14.6832 13.0784 14.6832 13.5216 14.4054 13.795C14.1276 14.0683 13.6771 14.0683 13.3993 13.795L10.8469 11.2834C10.8467 11.2831 10.8465 11.2829 10.8462 11.2827L8.52525 8.99881C8.51868 8.99281 8.5122 8.98666 8.50581 8.98037L5.48745 6.01027C5.48106 6.00399 5.47482 5.99761 5.46872 5.99114L0.594631 1.19497C0.316823 0.921608 0.316823 0.478392 0.594631 0.205025ZM8.50581 8.98037C8.50569 8.98026 8.50592 8.98049 8.50581 8.98037V8.98037ZM9.95124 8.4221C10.2071 7.99491 10.3453 7.50464 10.3453 7.00035C10.3453 6.2577 10.0455 5.54546 9.51184 5.02033C8.97817 4.49519 8.25436 4.20017 7.49964 4.20017C6.98716 4.20017 6.48892 4.33621 6.0548 4.58795L4.82319 3.37604C5.6589 2.99679 6.57164 2.79876 7.49904 2.8L7.5 2.8C10.2867 2.8 12.659 4.55222 13.5386 6.99961C13.128 8.139 12.3945 9.13639 11.4283 9.87551L9.95124 8.4221ZM8.87421 7.36229C8.90605 7.24523 8.92257 7.12363 8.92257 7.00035C8.92257 6.629 8.77266 6.27286 8.50581 6.01027C8.23896 5.74769 7.87703 5.60017 7.49964 5.60017C7.37436 5.60017 7.25078 5.61643 7.13182 5.64776L8.87421 7.36229ZM1.77445 4.18135C1.97961 4.16747 2.18082 4.24162 2.32624 4.3847L9.33681 11.2825C9.52329 11.466 9.59132 11.7359 9.51359 11.9838C9.43585 12.2318 9.22511 12.4171 8.966 12.4653C8.48251 12.5553 7.99151 12.6004 7.49946 12.6C7.49928 12.6 7.49964 12.6 7.49946 12.6C3.99453 12.5998 1.03013 10.3328 0.0327249 7.20987C-0.0109153 7.07323 -0.0109081 6.9267 0.0327453 6.79007C0.30143 5.94907 0.715275 5.15989 1.25614 4.4571C1.38029 4.29578 1.5693 4.19523 1.77445 4.18135ZM1.93563 5.98017L7.23543 11.1947C4.56378 11.0878 2.31281 9.36977 1.46122 7.00001C1.58826 6.64645 1.74709 6.30517 1.93563 5.98017Z" fill="#969696"/>
</svg>
