<svg width="40" height="40" viewBox="0 0 40 40" fill="none" xmlns="http://www.w3.org/2000/svg">
<path d="M40 28.168V11.832C40 4.754 35.448 0 28.67 0H11.33C4.552 0 0 4.754 0 11.832V28.168C0 35.244 4.554 40 11.332 40H28.67C35.448 40 40 35.244 40 28.168Z" fill="#2DDD9D"/>
<path d="M28.5584 18.289L21.0624 10.759C20.4984 10.193 19.5004 10.193 18.9344 10.759L11.4384 18.289C10.8544 18.877 10.8564 19.827 11.4444 20.411C12.0324 20.995 12.9804 20.995 13.5664 20.407L18.5004 15.453V28.163C18.5004 28.993 19.1724 29.663 20.0004 29.663C20.8284 29.663 21.5004 28.993 21.5004 28.163V15.453L26.4324 20.407C26.7264 20.701 27.1104 20.847 27.4964 20.847C27.8784 20.847 28.2624 20.701 28.5544 20.411C29.1404 19.827 29.1424 18.877 28.5584 18.289Z" fill="#3F408C"/>
</svg>
