<svg width="101" height="100" viewBox="0 0 101 100" fill="none" xmlns="http://www.w3.org/2000/svg">
<path d="M50.1058 64.7468C49.7967 64.9339 49.4467 65.0469 49.0848 65.0652L37.4217 65.6554C34.1114 65.8214 31.2638 65.4829 28.7131 64.6246C23.132 62.7492 18.4484 58.8408 15.5285 53.6136L5.91164 36.4127C4.80135 34.4277 5.05025 31.8925 6.52418 30.1026L19.7291 14.1152C20.5085 13.1572 21.5991 12.4905 22.7909 12.2388L42.5551 8.0056C44.7658 7.52866 46.9983 8.54545 48.1047 10.5294L57.7285 27.743C60.6468 32.9611 61.6114 39.147 60.4473 45.1615C59.9128 47.9206 58.799 50.6866 57.0458 53.6183L50.8675 63.9696C50.6767 64.2925 50.4136 64.5572 50.1058 64.7468Z" fill="url(#paint0_linear)"/>
<g filter="url(#filter0_f)">
<path d="M44.9479 54.4983C44.7382 54.6252 44.5044 54.7083 44.2661 54.7336L36.5861 55.5511C34.4064 55.7822 32.5485 55.6856 30.9039 55.2585C27.3056 54.3255 24.3689 52.1098 22.6372 49.0159L16.9333 38.8356C16.2748 37.6608 16.5283 36.0953 17.5598 34.9394L26.7995 24.6129C27.3454 23.9945 28.0852 23.5428 28.8769 23.3418L42.0061 19.9725C43.4748 19.5935 44.9047 20.1304 45.5607 21.3047L51.2688 31.4926C52.9997 34.5808 53.4133 38.3393 52.435 42.0757C51.986 43.7897 51.1562 45.5306 49.9008 47.3982L45.4756 53.9917C45.3389 54.1973 45.1567 54.37 44.9479 54.4983Z" fill="#0DB97A"/>
</g>
<g filter="url(#filter1_b)">
<mask id="path-3-outside-1" maskUnits="userSpaceOnUse" x="22.7718" y="9.04227" width="78.6187" height="92.3684" fill="black">
<rect fill="white" x="22.7718" y="9.04227" width="78.6187" height="92.3684"/>
<path d="M56.6809 94.6518C56.2086 94.5731 55.7522 94.3821 55.3584 94.0825L42.6691 84.4305C39.0687 81.6895 36.3533 78.8342 34.3611 75.703C30.0001 68.8544 28.1919 60.6946 29.2775 52.7236L32.8412 26.487C33.2519 23.4588 35.5233 21.058 38.4872 20.5052L65.0026 15.6025C66.5789 15.2982 68.2504 15.5689 69.699 16.3574L93.7662 29.3726C96.4608 30.8248 97.9939 33.8399 97.5799 36.8635L94.0135 63.1195C92.9333 71.0795 89.0385 78.3206 83.049 83.5116C80.3009 85.8925 76.9403 87.7709 72.7783 89.258L58.0953 94.5188C57.6393 94.6847 57.1538 94.7267 56.6809 94.6518Z"/>
</mask>
<path d="M56.6809 94.6518C56.2086 94.5731 55.7522 94.3821 55.3584 94.0825L42.6691 84.4305C39.0687 81.6895 36.3533 78.8342 34.3611 75.703C30.0001 68.8544 28.1919 60.6946 29.2775 52.7236L32.8412 26.487C33.2519 23.4588 35.5233 21.058 38.4872 20.5052L65.0026 15.6025C66.5789 15.2982 68.2504 15.5689 69.699 16.3574L93.7662 29.3726C96.4608 30.8248 97.9939 33.8399 97.5799 36.8635L94.0135 63.1195C92.9333 71.0795 89.0385 78.3206 83.049 83.5116C80.3009 85.8925 76.9403 87.7709 72.7783 89.258L58.0953 94.5188C57.6393 94.6847 57.1538 94.7267 56.6809 94.6518Z" fill="#2DDD9D" fill-opacity="0.5"/>
<path d="M56.5402 95.6419C57.085 95.7327 57.5896 95.363 57.6674 94.8162C57.7451 94.2694 57.3664 93.7525 56.8216 93.6617L56.5402 95.6419ZM55.3584 94.0825L55.9473 93.2866L55.9473 93.2866L55.3584 94.0825ZM42.6691 84.4305L42.0799 85.2262L42.0802 85.2264L42.6691 84.4305ZM34.3611 75.703L35.1965 75.1752L35.1963 75.1749L34.3611 75.703ZM29.2775 52.7236L30.2648 52.8823L30.2649 52.8819L29.2775 52.7236ZM32.8412 26.487L33.8285 26.6453L33.8286 26.6451L32.8412 26.487ZM38.4872 20.5052L38.2857 19.5179L38.2842 19.5181L38.4872 20.5052ZM65.0026 15.6025L65.2041 16.5899L65.2116 16.5884L65.0026 15.6025ZM69.699 16.3574L69.2408 17.2379L69.2433 17.2393L69.699 16.3574ZM93.7662 29.3726L93.3105 30.2545L93.3118 30.2552L93.7662 29.3726ZM97.5799 36.8635L96.5927 36.7041L96.5926 36.7052L97.5799 36.8635ZM94.0135 63.1195L93.0261 62.9612L93.0261 62.9614L94.0135 63.1195ZM83.049 83.5116L83.7086 84.2788L83.7087 84.2787L83.049 83.5116ZM72.7783 89.258L72.4262 88.3112L72.4254 88.3115L72.7783 89.258ZM58.0953 94.5188L57.7424 93.5723L57.738 93.5739L58.0953 94.5188ZM56.8135 93.6604C56.2681 93.5741 55.7666 93.948 55.6933 94.4955C55.62 95.0431 56.0028 95.5569 56.5482 95.6432L56.8135 93.6604ZM56.8216 93.6617C56.5045 93.6089 56.2034 93.4815 55.9473 93.2866L54.7695 94.8784C55.301 95.2827 55.9127 95.5374 56.5402 95.6419L56.8216 93.6617ZM55.9473 93.2866L43.2579 83.6346L42.0802 85.2264L54.7696 94.8784L55.9473 93.2866ZM43.2583 83.6349C39.7346 80.9522 37.1105 78.1836 35.1965 75.1752L33.5257 76.2307C35.5961 79.4848 38.4028 82.4267 42.0799 85.2262L43.2583 83.6349ZM35.1963 75.1749C30.9659 68.5314 29.2115 60.6154 30.2648 52.8823L28.2903 52.565C27.1722 60.7737 29.0343 69.1773 33.5259 76.231L35.1963 75.1749ZM30.2649 52.8819L33.8285 26.6453L31.8539 26.3287L28.2902 52.5654L30.2649 52.8819ZM33.8286 26.6451C34.1825 24.0353 36.1409 21.9677 38.6901 21.4922L38.2842 19.5181C34.9056 20.1483 32.3213 22.8824 31.8539 26.3289L33.8286 26.6451ZM38.6886 21.4925L65.2041 16.5898L64.8011 14.6152L38.2857 19.5179L38.6886 21.4925ZM65.2116 16.5884C66.5578 16.3286 67.9938 16.5591 69.2408 17.2379L70.1571 15.4769C68.5071 14.5787 66.6001 14.2679 64.7936 14.6166L65.2116 16.5884ZM69.2433 17.2393L93.3105 30.2545L94.2218 28.4907L70.1546 15.4756L69.2433 17.2393ZM93.3118 30.2552C95.6268 31.5028 96.9495 34.0983 96.5927 36.7041L98.5671 37.0228C99.0383 33.5814 97.2949 30.1468 94.2205 28.49L93.3118 30.2552ZM96.5926 36.7052L93.0261 62.9612L95.0008 63.2778L98.5672 37.0218L96.5926 36.7052ZM93.0261 62.9614C91.9782 70.6838 88.1995 77.7087 82.3892 82.7445L83.7087 84.2787C89.8775 78.9324 93.8884 71.4751 95.0008 63.2777L93.0261 62.9614ZM82.3893 82.7444C79.749 85.0319 76.4991 86.8559 72.4262 88.3112L73.1303 90.2048C77.3814 88.6858 80.8528 86.7531 83.7086 84.2788L82.3893 82.7444ZM72.4254 88.3115L57.7424 93.5723L58.4482 95.4653L73.1312 90.2045L72.4254 88.3115ZM57.738 93.5739C57.4415 93.6818 57.1247 93.7096 56.8135 93.6604L56.5482 95.6432C57.1829 95.7437 57.8372 95.6876 58.4526 95.4637L57.738 93.5739Z" fill="url(#paint1_linear)" mask="url(#path-3-outside-1)"/>
</g>
<g filter="url(#filter2_bd)">
<path d="M58.0763 63.7918C57.3402 63.6732 56.6436 63.2764 56.1567 62.618L49.8945 54.1412C48.9285 52.8257 49.1773 50.9929 50.4537 50.043C51.7306 49.0892 53.5521 49.3808 54.5225 50.6931L59.0288 56.7896L73.7039 45.8457C74.9847 44.8925 76.8061 45.1841 77.7727 46.4957C78.7426 47.8119 78.4932 49.6485 77.2174 50.5946L60.2255 63.2681C59.5849 63.7466 58.8125 63.9105 58.0763 63.7918Z" fill="url(#paint2_linear)"/>
<path d="M50.5141 50.1242L50.5142 50.1241C51.7472 49.2031 53.5059 49.4846 54.443 50.7518L58.9493 56.8484L59.0097 56.9301L59.0892 56.8708L73.7643 45.9269C75.0013 45.0063 76.76 45.2881 77.6932 46.5544C78.6302 47.826 78.3889 49.5999 77.1571 50.5133L77.1569 50.5134L60.1651 63.187L60.165 63.187C59.5463 63.6491 58.8007 63.8073 58.0899 63.6927C57.3787 63.5781 56.7063 63.195 56.2362 62.5593C56.2362 62.5593 56.2362 62.5592 56.2362 62.5592L49.9742 54.0827C49.9741 54.0826 49.9741 54.0826 49.974 54.0825C49.0409 52.8116 49.2816 51.0414 50.5141 50.1242Z" stroke="url(#paint3_linear)" stroke-opacity="0.5" stroke-width="0.2"/>
</g>
<defs>
<filter id="filter0_f" x="0.570312" y="3.85229" width="68.3838" height="67.8209" filterUnits="userSpaceOnUse" color-interpolation-filters="sRGB">
<feFlood flood-opacity="0" result="BackgroundImageFix"/>
<feBlend mode="normal" in="SourceGraphic" in2="BackgroundImageFix" result="shape"/>
<feGaussianBlur stdDeviation="8" result="effect1_foregroundBlur"/>
</filter>
<filter id="filter1_b" x="3.97363" y="-9.52307" width="118.67" height="129.214" filterUnits="userSpaceOnUse" color-interpolation-filters="sRGB">
<feFlood flood-opacity="0" result="BackgroundImageFix"/>
<feGaussianBlur in="BackgroundImage" stdDeviation="12"/>
<feComposite in2="SourceAlpha" operator="in" result="effect1_backgroundBlur"/>
<feBlend mode="normal" in="SourceGraphic" in2="effect1_backgroundBlur" result="shape"/>
</filter>
<filter id="filter2_bd" x="34.3057" y="30.2849" width="59.058" height="48.544" filterUnits="userSpaceOnUse" color-interpolation-filters="sRGB">
<feFlood flood-opacity="0" result="BackgroundImageFix"/>
<feGaussianBlur in="BackgroundImage" stdDeviation="7.5"/>
<feComposite in2="SourceAlpha" operator="in" result="effect1_backgroundBlur"/>
<feColorMatrix in="SourceAlpha" type="matrix" values="0 0 0 0 0 0 0 0 0 0 0 0 0 0 0 0 0 0 127 0"/>
<feOffset dx="5" dy="5"/>
<feGaussianBlur stdDeviation="5"/>
<feColorMatrix type="matrix" values="0 0 0 0 0.368627 0 0 0 0 0.792157 0 0 0 0 0.752941 0 0 0 0.5 0"/>
<feBlend mode="normal" in2="effect1_backgroundBlur" result="effect2_dropShadow"/>
<feBlend mode="normal" in="SourceGraphic" in2="effect2_dropShadow" result="shape"/>
</filter>
<linearGradient id="paint0_linear" x1="21.2227" y1="12.8411" x2="51.9528" y2="63.6293" gradientUnits="userSpaceOnUse">
<stop stop-color="#2DDD9D"/>
<stop offset="1" stop-color="#2DDD9D" stop-opacity="0"/>
</linearGradient>
<linearGradient id="paint1_linear" x1="44.1703" y1="21.1202" x2="88.0149" y2="82.2882" gradientUnits="userSpaceOnUse">
<stop stop-color="white" stop-opacity="0.25"/>
<stop offset="1" stop-color="white" stop-opacity="0"/>
</linearGradient>
<linearGradient id="paint2_linear" x1="76.2328" y1="49.2543" x2="44.9386" y2="46.1857" gradientUnits="userSpaceOnUse">
<stop stop-color="white"/>
<stop offset="1" stop-color="white" stop-opacity="0.2"/>
</linearGradient>
<linearGradient id="paint3_linear" x1="52.8727" y1="48.6823" x2="76.6048" y2="52.2354" gradientUnits="userSpaceOnUse">
<stop stop-color="white"/>
<stop offset="1" stop-color="white" stop-opacity="0"/>
</linearGradient>
</defs>
</svg>
