<svg width="38" height="40" viewBox="0 0 38 40" fill="none" xmlns="http://www.w3.org/2000/svg">
<path d="M37.4603 24.7402C37.0719 24.1402 36.5201 23.5402 35.8047 23.1602C35.2324 22.8802 34.8645 22.4202 34.5375 21.8802C33.4951 20.1602 34.1082 17.9002 35.8456 16.8802C37.8895 15.7402 38.5435 13.2002 37.3581 11.2202L35.9886 8.86018C34.8236 6.88018 32.2687 6.18018 30.2452 7.34018C28.4466 8.30018 26.137 7.66018 25.0946 5.96018C24.7676 5.40018 24.5836 4.80018 24.6245 4.20018C24.6858 3.42018 24.4405 2.68018 24.0726 2.08018C23.3164 0.840183 21.9469 0.000183105 20.4345 0.000183105H17.5525C16.0605 0.0401831 14.6911 0.840183 13.9348 2.08018C13.5465 2.68018 13.3216 3.42018 13.3625 4.20018C13.4034 4.80018 13.2194 5.40018 12.8924 5.96018C11.85 7.66018 9.54039 8.30018 7.76218 7.34018C5.71827 6.18018 3.18381 6.88018 1.99834 8.86018L0.628918 11.2202C-0.536114 13.2002 0.117939 15.7402 2.14141 16.8802C3.87874 17.9002 4.49192 20.1602 3.46996 21.8802C3.12249 22.4202 2.75459 22.8802 2.18229 23.1602C1.48736 23.5402 0.874188 24.1402 0.547161 24.7402C-0.209087 25.9802 -0.168209 27.5402 0.58804 28.8402L1.99834 31.2402C2.75459 32.5202 4.16489 33.3202 5.63651 33.3202C6.33144 33.3202 7.14901 33.1202 7.80306 32.7202C8.31404 32.3802 8.92721 32.2602 9.6017 32.2602C11.6252 32.2602 13.3216 33.9202 13.3625 35.9002C13.3625 38.2002 15.2429 40.0002 17.6138 40.0002H20.3936C22.7441 40.0002 24.6245 38.2002 24.6245 35.9002C24.6858 33.9202 26.3822 32.2602 28.4057 32.2602C29.0598 32.2602 29.6729 32.3802 30.2044 32.7202C30.8584 33.1202 31.6555 33.3202 32.3709 33.3202C33.8221 33.3202 35.2324 32.5202 35.9886 31.2402L37.4194 28.8402C38.1552 27.5002 38.2165 25.9802 37.4603 24.7402Z" fill="#3F408C"/>
<path d="M19.0244 25.6602C15.8155 25.6602 13.2197 23.1602 13.2197 20.0202C13.2197 16.8802 15.8155 14.3602 19.0244 14.3602C22.2334 14.3602 24.7678 16.8802 24.7678 20.0202C24.7678 23.1602 22.2334 25.6602 19.0244 25.6602Z" fill="#2DDD9D"/>
</svg>
