<svg width="120" height="22" viewBox="0 0 120 22" fill="none" xmlns="http://www.w3.org/2000/svg">
<path d="M11.5241 10.9693C11.5241 13.7174 9.28625 15.5121 6.51341 15.5121H-0.00195312V0H6.06737C8.77034 0 10.9645 1.75093 10.9645 4.43203C10.9777 5.0064 10.8633 5.57656 10.6295 6.10134C10.3956 6.62613 10.0482 7.09247 9.61229 7.4667C10.2095 7.83231 10.7003 8.34816 11.0358 8.96277C11.3712 9.57738 11.5396 10.2692 11.5241 10.9693ZM3.5493 3.32402V6.07216H6.07514C6.25622 6.07824 6.43659 6.04669 6.60485 5.97949C6.77312 5.9123 6.92562 5.81093 7.0527 5.68179C7.17979 5.55265 7.27869 5.39855 7.34318 5.22923C7.40766 5.05991 7.43631 4.87905 7.42732 4.69809C7.43817 4.51668 7.41081 4.33502 7.34699 4.16486C7.28317 3.9947 7.18433 3.83984 7.05686 3.71031C6.92939 3.58078 6.77612 3.47946 6.60701 3.41292C6.4379 3.34637 6.2567 3.31609 6.07514 3.32402H3.5493ZM7.98062 10.7032C7.99208 10.5073 7.9623 10.3112 7.89318 10.1276C7.82406 9.94398 7.71715 9.7769 7.57938 9.6372C7.44161 9.4975 7.27604 9.38828 7.09339 9.31661C6.91074 9.24495 6.71506 9.21243 6.51905 9.22116H3.5493V12.1909H6.51905C6.71534 12.1993 6.9112 12.1663 7.09393 12.0941C7.27665 12.022 7.44215 11.9122 7.5797 11.7719C7.71725 11.6316 7.82378 11.464 7.89236 11.2799C7.96094 11.0958 7.99005 10.8993 7.9778 10.7032H7.98062Z" fill="white"/>
<path d="M13.5588 7.29102H18.7884C19.2114 7.29102 19.617 7.45906 19.9162 7.75817C20.2153 8.05728 20.3833 8.46297 20.3833 8.88598C20.3833 9.30899 20.2153 9.71468 19.9162 10.0138C19.617 10.3129 19.2114 10.4809 18.7884 10.4809H13.5588C13.1358 10.4809 12.7301 10.3129 12.431 10.0138C12.1319 9.71468 11.9639 9.30899 11.9639 8.88598C11.9639 8.46297 12.1319 8.05728 12.431 7.75817C12.7301 7.45906 13.1358 7.29102 13.5588 7.29102Z" fill="white"/>
<path d="M31.4628 13.8056C31.4628 14.2582 31.283 14.6923 30.963 15.0123C30.643 15.3323 30.2089 15.5121 29.7563 15.5121H21.7109V0H29.6441C29.8682 -1.91773e-08 30.0901 0.0441439 30.2971 0.129911C30.5041 0.215678 30.6921 0.341387 30.8505 0.499856C31.0089 0.658326 31.1346 0.846452 31.2203 1.05349C31.3059 1.26052 31.35 1.48241 31.3499 1.70647C31.35 1.9305 31.3059 2.15235 31.2203 2.35935C31.1346 2.56634 31.0089 2.75442 30.8505 2.91284C30.6921 3.07125 30.504 3.19689 30.297 3.28258C30.09 3.36827 29.8682 3.41233 29.6441 3.41224H25.2566V5.98394H29.1127C29.5593 5.98394 29.9876 6.16135 30.3034 6.47714C30.6192 6.79293 30.7966 7.22124 30.7966 7.66783C30.7966 8.11443 30.6192 8.54273 30.3034 8.85852C29.9876 9.17431 29.5593 9.35172 29.1127 9.35172H25.2566V12.0999H29.7549C29.9791 12.0997 30.2011 12.1437 30.4083 12.2293C30.6154 12.3149 30.8037 12.4405 30.9623 12.5989C31.1209 12.7573 31.2467 12.9454 31.3326 13.1525C31.4185 13.3595 31.4627 13.5815 31.4628 13.8056Z" fill="white"/>
<path d="M44.4855 9.97204C44.4704 9.19774 44.6122 8.4284 44.9022 7.71033C45.1923 6.99226 45.6247 6.3403 46.1733 5.79371C46.7219 5.24712 47.3755 4.81719 48.0947 4.52981C48.8138 4.24242 49.5837 4.10353 50.3579 4.12148C51.3696 4.10783 52.3668 4.36335 53.2472 4.86187C54.1277 5.36039 54.8598 6.08398 55.3686 6.95854L52.4652 8.64313C52.264 8.25176 51.9543 7.92659 51.5733 7.70646C51.1922 7.48632 50.7558 7.38054 50.3163 7.40174C49.9792 7.39216 49.6437 7.45261 49.3312 7.57928C49.0187 7.70594 48.7358 7.89605 48.5005 8.13761C48.2651 8.37917 48.0825 8.66692 47.964 8.98267C47.8456 9.29842 47.7939 9.6353 47.8123 9.97204C47.7939 10.3088 47.8456 10.6457 47.964 10.9614C48.0825 11.2772 48.2651 11.5649 48.5005 11.8065C48.7358 12.048 49.0187 12.2381 49.3312 12.3648C49.6437 12.4915 49.9792 12.5519 50.3163 12.5423C50.7562 12.5664 51.1937 12.4619 51.5752 12.2416C51.9568 12.0212 52.2661 11.6947 52.4652 11.3016L55.3686 12.963C54.8669 13.8453 54.1369 14.5764 53.2552 15.0794C52.3736 15.5825 51.3728 15.8389 50.3579 15.8219C49.5837 15.8398 48.8139 15.701 48.0948 15.4136C47.3757 15.1263 46.7222 14.6964 46.1736 14.1499C45.6249 13.6034 45.1926 12.9515 44.9024 12.2335C44.6123 11.5155 44.4705 10.7463 44.4855 9.97204Z" fill="white"/>
<path d="M66.0011 8.7095V15.5121H62.6764V9.19928C62.7044 8.9353 62.6744 8.6684 62.5888 8.41714C62.5032 8.16588 62.3638 7.93629 62.1805 7.74434C61.9971 7.55238 61.7741 7.40267 61.5271 7.30561C61.28 7.20854 61.0147 7.16646 60.7497 7.18228C59.5302 7.18228 58.6883 7.88802 58.6883 9.46534V15.5149H55.3643V0H58.6883V5.4737C59.0721 5.01383 59.5595 4.65152 60.1104 4.41647C60.6614 4.18142 61.2602 4.08033 61.8578 4.1215C64.0949 4.1215 66.0011 5.71788 66.0011 8.7095Z" fill="white"/>
<path d="M78.3186 4.43214V15.5122H74.9953V14.4705C74.5794 14.9267 74.0673 15.2846 73.4961 15.5185C72.9249 15.7523 72.3088 15.8563 71.6924 15.8227C68.7905 15.8227 66.3994 13.2743 66.3994 9.97218C66.3994 6.67004 68.7926 4.12162 71.6924 4.12162C72.3088 4.08811 72.9249 4.19205 73.4961 4.42591C74.0673 4.65977 74.5794 5.01771 74.9953 5.47381V4.43214H78.3186ZM74.9953 9.97218C75.02 9.61651 74.9693 9.25964 74.8464 8.92495C74.7236 8.59026 74.5314 8.28531 74.2824 8.0301C74.0335 7.77489 73.7334 7.57517 73.4019 7.44404C73.0703 7.31291 72.7148 7.25333 72.3587 7.26921C72.0024 7.25324 71.6468 7.31275 71.3151 7.44382C70.9835 7.5749 70.6833 7.77459 70.4342 8.0298C70.1851 8.28501 69.9928 8.58998 69.8698 8.92472C69.7468 9.25946 69.696 9.61642 69.7206 9.97218C69.696 10.3279 69.7468 10.6849 69.8698 11.0196C69.9928 11.3544 70.1851 11.6593 70.4342 11.9146C70.6833 12.1698 70.9835 12.3695 71.3151 12.5005C71.6468 12.6316 72.0024 12.6911 72.3587 12.6752C72.7148 12.691 73.0703 12.6314 73.4019 12.5003C73.7334 12.3692 74.0335 12.1695 74.2824 11.9143C74.5314 11.659 74.7236 11.3541 74.8464 11.0194C74.9693 10.6847 75.02 10.3278 74.9953 9.97218Z" fill="white"/>
<path d="M90.0604 8.71034V15.5129H86.7364V9.1966C86.7642 8.93252 86.7342 8.66554 86.6485 8.41423C86.5627 8.16292 86.4232 7.93331 86.2397 7.74135C86.0562 7.5494 85.8331 7.39972 85.5859 7.30271C85.3387 7.20569 85.0734 7.16369 84.8083 7.1796C83.5888 7.1796 82.7469 7.88534 82.7469 9.46266V15.5122H79.4229V4.43217H82.7469V5.47383C83.1308 5.01423 83.6183 4.65218 84.1692 4.41738C84.7201 4.18258 85.3189 4.08171 85.9163 4.12305C88.1542 4.12305 90.0604 5.71802 90.0604 8.71034Z" fill="white"/>
<path d="M102.38 4.4319V14.9573C102.38 18.6807 99.4763 20.2538 96.5292 20.2538C94.2249 20.2538 92.2947 19.39 91.2771 17.572L94.1141 15.9319C94.3428 16.3943 94.7073 16.7759 95.1589 17.0254C95.6104 17.2749 96.1275 17.3804 96.6407 17.3278C98.1933 17.3278 99.1439 16.5303 99.1439 14.9566V13.9389C98.755 14.4149 98.26 14.7931 97.6986 15.0432C97.1371 15.2934 96.5249 15.4085 95.9109 15.3793C95.1814 15.3747 94.46 15.2248 93.7891 14.9381C93.1182 14.6514 92.5112 14.2338 92.0036 13.7097C91.496 13.1857 91.098 12.5656 90.833 11.8859C90.5679 11.2062 90.441 10.4804 90.4598 9.75104C90.4411 9.02171 90.5681 8.29599 90.8332 7.6163C91.0983 6.93661 91.4963 6.31661 92.0038 5.79255C92.5114 5.26849 93.1184 4.85089 93.7892 4.56419C94.4601 4.27748 95.1814 4.12742 95.9109 4.12278C96.5253 4.09339 97.1381 4.20837 97.7 4.45851C98.2619 4.70866 98.7574 5.087 99.1467 5.56319V4.43401L102.38 4.4319ZM99.1439 9.75104C99.1535 9.40125 99.0898 9.05332 98.957 8.72961C98.8241 8.40589 98.625 8.11355 98.3725 7.87136C98.1199 7.62917 97.8195 7.44249 97.4905 7.32331C97.1615 7.20413 96.8112 7.15509 96.4621 7.17933C96.1131 7.1552 95.7628 7.20431 95.4339 7.32353C95.1049 7.44275 94.8045 7.62944 94.552 7.87161C94.2995 8.11378 94.1004 8.40608 93.9675 8.72974C93.8346 9.0534 93.7708 9.40128 93.7803 9.75104C93.7709 10.1007 93.8347 10.4484 93.9677 10.7719C94.1006 11.0954 94.2998 11.3876 94.5523 11.6296C94.8049 11.8715 95.1052 12.058 95.4341 12.177C95.763 12.2961 96.1132 12.345 96.4621 12.3206C96.8111 12.3451 97.1614 12.2962 97.4904 12.1772C97.8194 12.0582 98.1198 11.8717 98.3724 11.6296C98.625 11.3875 98.8241 11.0952 98.957 10.7716C99.0899 10.4479 99.1535 10.1001 99.1439 9.75033V9.75104Z" fill="white"/>
<path d="M109.113 12.853C109.506 12.8647 109.898 12.796 110.264 12.6513C110.63 12.5065 110.962 12.2887 111.241 12.011L113.9 13.5397C113.347 14.2909 112.616 14.8929 111.773 15.2913C110.93 15.6897 110.001 15.8721 109.069 15.822C105.28 15.822 102.929 13.2736 102.929 9.97145C102.906 9.19304 103.042 8.41805 103.33 7.69462C103.619 6.97119 104.053 6.31476 104.605 5.7661C105.158 5.21745 105.818 4.78828 106.543 4.50526C107.269 4.22224 108.045 4.09141 108.823 4.12089C109.583 4.1155 110.335 4.26484 111.035 4.55981C111.735 4.85479 112.368 5.28921 112.895 5.83661C113.421 6.38401 113.831 7.03293 114.099 7.7438C114.366 8.45468 114.487 9.21262 114.452 9.97145C114.454 10.4181 114.409 10.8637 114.319 11.3011H106.457C106.876 12.4507 107.894 12.853 109.113 12.853ZM111.152 8.81969C111.028 8.29859 110.725 7.83762 110.296 7.5175C109.866 7.19739 109.338 7.03853 108.803 7.06876C108.258 7.02335 107.714 7.17505 107.271 7.49631C106.827 7.81757 106.514 8.28711 106.388 8.81969H111.152Z" fill="white"/>
<path d="M35.0677 9.93817L38.2831 12.8317L35.9181 14.9595C35.4944 15.3406 34.9367 15.5379 34.3676 15.5078C33.7985 15.4778 33.2647 15.2229 32.8835 14.7993C32.5027 14.3756 32.3054 13.8183 32.3349 13.2494C32.3644 12.6806 32.6183 12.1466 33.0408 11.7646L35.0677 9.93817Z" fill="white"/>
<path d="M44.2347 6.51724C44.2347 6.81885 44.1712 7.11709 44.0483 7.39251C43.9253 7.66793 43.7457 7.91436 43.5212 8.11573L41.495 9.94077L38.2832 7.04725L40.6474 4.91945C40.857 4.73051 41.1018 4.58472 41.3678 4.49041C41.6338 4.3961 41.9157 4.35511 42.1975 4.36979C42.4793 4.38447 42.7555 4.45453 43.0102 4.57597C43.265 4.6974 43.4933 4.86784 43.6821 5.07753C44.038 5.47258 44.2349 5.98551 44.2347 6.51724Z" fill="white"/>
<path d="M41.4952 9.94076L38.2827 12.8343L35.0674 9.94076L38.2827 7.04724L41.4952 9.94076Z" fill="white"/>
<path d="M38.2832 7.05067L35.0679 9.94419L33.041 8.11633C32.8171 7.91464 32.6382 7.66807 32.5159 7.39267C32.3935 7.11726 32.3306 6.81919 32.3311 6.51784C32.3312 5.9866 32.5281 5.47423 32.8836 5.07955C33.0725 4.86985 33.3008 4.69942 33.5555 4.57798C33.8102 4.45655 34.0864 4.38649 34.3682 4.37181C34.65 4.35713 34.932 4.39811 35.1979 4.49242C35.4639 4.58674 35.7087 4.73253 35.9183 4.92146L38.2832 7.05067Z" fill="white"/>
<path d="M43.6811 14.8007C43.2999 15.2243 42.766 15.4792 42.1969 15.5092C41.6278 15.5393 41.0701 15.342 40.6464 14.9609L38.2822 12.8331L41.494 9.93958L43.5202 11.7618C43.7306 11.9506 43.9016 12.179 44.0235 12.434C44.1455 12.6891 44.216 12.9656 44.2309 13.2479C44.2459 13.5301 44.205 13.8126 44.1106 14.079C44.0163 14.3455 43.8703 14.5907 43.6811 14.8007Z" fill="white"/>
<path d="M117.626 14.1319H117.071V15.8158H116.577V14.1319H116.021V13.6569H117.624L117.626 14.1319Z" fill="white"/>
<path d="M120.001 15.8158H119.507V14.5603L118.949 15.4777H118.893L118.336 14.5603V15.8158H117.842V13.6569H118.336L118.922 14.6153L119.507 13.6569H120.001L120.001 15.8158Z" fill="white"/>
<path d="M22.3041 18.717C22.3033 18.7117 22.3037 18.7063 22.3054 18.7012C22.307 18.6961 22.3098 18.6915 22.3136 18.6877C22.3174 18.6839 22.322 18.6811 22.3271 18.6794C22.3322 18.6778 22.3377 18.6774 22.3429 18.6782H22.8031C22.8162 18.6768 22.8294 18.6799 22.8405 18.687C22.8517 18.694 22.8601 18.7046 22.8645 18.717L23.5293 20.2167H23.5448L24.1983 18.717C24.2029 18.7046 24.2115 18.6941 24.2228 18.6871C24.234 18.68 24.2473 18.6769 24.2604 18.6782H24.7128C24.7181 18.6774 24.7235 18.6778 24.7286 18.6794C24.7337 18.6811 24.7384 18.6839 24.7421 18.6877C24.7459 18.6915 24.7488 18.6961 24.7504 18.7012C24.7521 18.7063 24.7525 18.7117 24.7516 18.717V21.2683C24.7526 21.2736 24.7523 21.2791 24.7507 21.2843C24.7491 21.2895 24.7463 21.2942 24.7425 21.2981C24.7387 21.302 24.734 21.3049 24.7288 21.3066C24.7237 21.3083 24.7182 21.3087 24.7128 21.3078H24.276C24.2706 21.3087 24.2651 21.3083 24.2599 21.3066C24.2548 21.3049 24.2501 21.302 24.2463 21.2981C24.2425 21.2942 24.2397 21.2895 24.2381 21.2843C24.2365 21.2791 24.2362 21.2736 24.2372 21.2683V19.7862H24.2216L23.7347 20.8956C23.7293 20.9101 23.7197 20.9226 23.7071 20.9316C23.6945 20.9405 23.6795 20.9454 23.6641 20.9458H23.3973C23.3819 20.9454 23.367 20.9404 23.3544 20.9314C23.3418 20.9225 23.3322 20.9101 23.3268 20.8956L22.8405 19.7862H22.825V21.2683C22.8258 21.2737 22.8254 21.2792 22.8237 21.2843C22.822 21.2895 22.8191 21.2942 22.8153 21.2981C22.8114 21.3019 22.8067 21.3048 22.8015 21.3065C22.7963 21.3082 22.7908 21.3086 22.7855 21.3078H22.3493C22.344 21.3085 22.3386 21.308 22.3335 21.3062C22.3284 21.3045 22.3238 21.3016 22.32 21.2978C22.3162 21.2939 22.3134 21.2893 22.3118 21.2841C22.3101 21.279 22.3097 21.2736 22.3105 21.2683L22.3041 18.717Z" fill="white"/>
<path d="M28.2068 18.7167C28.2091 18.7052 28.2156 18.695 28.2249 18.6878C28.2343 18.6807 28.2459 18.6772 28.2576 18.6779H28.7438C28.7556 18.677 28.7673 18.6805 28.7766 18.6876C28.786 18.6948 28.7924 18.7052 28.7947 18.7167L29.6839 21.268C29.6909 21.2941 29.6839 21.3075 29.6564 21.3075H29.1546C29.1428 21.3081 29.1312 21.3044 29.1218 21.2972C29.1125 21.2899 29.1061 21.2796 29.1038 21.268L28.9527 20.8086H28.0353L27.8878 21.268C27.8857 21.2796 27.8795 21.29 27.8702 21.2973C27.861 21.3046 27.8494 21.3082 27.8377 21.3075H27.3317C27.3053 21.3075 27.2964 21.2943 27.3048 21.268L28.2068 18.7167ZM28.7989 20.3251L28.5011 19.4077H28.4898L28.192 20.3251H28.7989Z" fill="white"/>
<path d="M32.2348 18.717C32.234 18.7117 32.2344 18.7063 32.236 18.7012C32.2377 18.6961 32.2405 18.6915 32.2443 18.6877C32.2481 18.6839 32.2527 18.6811 32.2578 18.6794C32.2629 18.6778 32.2683 18.6774 32.2736 18.6782H32.7676C32.7729 18.6774 32.7783 18.6778 32.7834 18.6794C32.7885 18.6811 32.7932 18.6839 32.797 18.6877C32.8007 18.6915 32.8036 18.6961 32.8052 18.7012C32.8069 18.7063 32.8073 18.7117 32.8065 18.717V19.8526L33.6802 18.7128C33.6871 18.7018 33.6969 18.6929 33.7084 18.6868C33.7199 18.6807 33.7328 18.6778 33.7458 18.6782H34.3069C34.3117 18.6782 34.3165 18.6798 34.3202 18.6829C34.324 18.686 34.3265 18.6904 34.3273 18.6952C34.3294 18.7006 34.3299 18.7065 34.3289 18.7122C34.3279 18.7179 34.3254 18.7232 34.3217 18.7276L33.5256 19.7248L34.3951 21.2598C34.3987 21.2643 34.4011 21.2697 34.4018 21.2754C34.4026 21.2812 34.4017 21.287 34.3993 21.2923C34.3966 21.2969 34.3926 21.3006 34.3879 21.3031C34.3831 21.3056 34.3778 21.3067 34.3725 21.3064H33.8044C33.7924 21.3067 33.7805 21.3035 33.7702 21.2972C33.76 21.291 33.7518 21.2819 33.7465 21.2711L33.1509 20.1652L32.8072 20.5985V21.2669C32.808 21.2722 32.8075 21.2776 32.8059 21.2827C32.8042 21.2878 32.8014 21.2925 32.7976 21.2963C32.7939 21.3002 32.7893 21.3031 32.7842 21.3048C32.7791 21.3066 32.7737 21.3071 32.7683 21.3064H32.2743C32.269 21.3071 32.2636 21.3066 32.2585 21.3048C32.2534 21.3031 32.2488 21.3002 32.245 21.2963C32.2412 21.2925 32.2384 21.2878 32.2368 21.2827C32.2351 21.2776 32.2347 21.2722 32.2355 21.2669L32.2348 18.717Z" fill="white"/>
<path d="M36.9731 18.717C36.9722 18.7116 36.9726 18.7061 36.9743 18.701C36.976 18.6958 36.9789 18.6911 36.9828 18.6873C36.9867 18.6835 36.9914 18.6807 36.9966 18.6791C37.0018 18.6775 37.0073 18.6772 37.0126 18.6782H37.5067C37.512 18.6772 37.5175 18.6775 37.5227 18.6791C37.5279 18.6807 37.5326 18.6835 37.5365 18.6873C37.5404 18.6911 37.5433 18.6958 37.5449 18.701C37.5466 18.7061 37.5471 18.7116 37.5462 18.717V21.2682C37.547 21.2736 37.5466 21.2791 37.5449 21.2843C37.5432 21.2895 37.5403 21.2942 37.5365 21.298C37.5326 21.3019 37.5279 21.3048 37.5227 21.3065C37.5175 21.3081 37.512 21.3086 37.5067 21.3077H37.0126C37.0072 21.3086 37.0017 21.3081 36.9966 21.3065C36.9914 21.3048 36.9867 21.3019 36.9828 21.298C36.979 21.2942 36.9761 21.2895 36.9744 21.2843C36.9727 21.2791 36.9723 21.2736 36.9731 21.2682V18.717Z" fill="white"/>
<path d="M40.2885 18.717C40.2877 18.7117 40.2881 18.7063 40.2897 18.7012C40.2914 18.6961 40.2942 18.6915 40.298 18.6877C40.3018 18.6839 40.3064 18.6811 40.3115 18.6794C40.3166 18.6778 40.322 18.6774 40.3273 18.6782H40.7917C40.8052 18.6777 40.8186 18.6811 40.8302 18.688C40.8419 18.6949 40.8513 18.705 40.8573 18.717L41.7854 20.3713H41.8051V18.717C41.8043 18.7117 41.8047 18.7063 41.8064 18.7012C41.808 18.6961 41.8108 18.6915 41.8146 18.6877C41.8184 18.6839 41.8231 18.6811 41.8281 18.6794C41.8332 18.6778 41.8387 18.6774 41.844 18.6782H42.2815C42.2868 18.6774 42.2922 18.6778 42.2973 18.6794C42.3024 18.6811 42.307 18.6839 42.3108 18.6877C42.3146 18.6915 42.3174 18.6961 42.3191 18.7012C42.3207 18.7063 42.3212 18.7117 42.3203 18.717V21.2683C42.3211 21.2736 42.3207 21.279 42.319 21.2841C42.3174 21.2893 42.3146 21.2939 42.3108 21.2978C42.3071 21.3016 42.3024 21.3045 42.2973 21.3062C42.2922 21.308 42.2868 21.3085 42.2815 21.3078H41.8207C41.8071 21.3082 41.7937 21.3047 41.782 21.2977C41.7704 21.2907 41.761 21.2805 41.755 21.2683L40.8227 19.6176H40.8037V21.2683C40.8047 21.2736 40.8044 21.2791 40.8028 21.2843C40.8012 21.2895 40.7984 21.2942 40.7946 21.2981C40.7907 21.302 40.7861 21.3049 40.7809 21.3066C40.7757 21.3083 40.7702 21.3087 40.7649 21.3078H40.3273C40.322 21.3085 40.3166 21.308 40.3115 21.3062C40.3064 21.3045 40.3018 21.3016 40.298 21.2978C40.2942 21.2939 40.2914 21.2893 40.2898 21.2841C40.2881 21.279 40.2877 21.2736 40.2885 21.2683V18.717Z" fill="white"/>
<path d="M45.0172 20.4777C44.9995 20.3167 44.9924 20.1547 44.996 19.9928C44.996 19.8481 44.996 19.719 45.0059 19.6054C45.0127 19.4922 45.0343 19.3805 45.0701 19.273C45.1268 19.0774 45.2521 18.9088 45.423 18.798C45.6068 18.6861 45.8191 18.6297 46.0342 18.6357C46.2313 18.634 46.4256 18.6826 46.5988 18.7768C46.7693 18.8685 46.9007 19.019 46.9686 19.2003C46.9719 19.205 46.9741 19.2104 46.9751 19.216C46.976 19.2217 46.9757 19.2275 46.9742 19.2331C46.9726 19.2386 46.9699 19.2437 46.9661 19.2481C46.9623 19.2524 46.9576 19.2558 46.9523 19.2581L46.5395 19.4325C46.5106 19.4395 46.4929 19.4325 46.4844 19.4127C46.4419 19.3298 46.3769 19.2605 46.297 19.2126C46.217 19.1647 46.1253 19.1401 46.0321 19.1417C45.9381 19.1328 45.844 19.1575 45.7665 19.2114C45.689 19.2652 45.633 19.3448 45.6086 19.436C45.5717 19.6206 45.5578 19.809 45.567 19.9971C45.5577 20.1862 45.5717 20.3759 45.6086 20.5616C45.6349 20.6526 45.6922 20.7314 45.7706 20.7844C45.849 20.8374 45.9435 20.8612 46.0377 20.8517C46.1315 20.8538 46.224 20.8293 46.3045 20.7811C46.3789 20.7359 46.4339 20.6648 46.459 20.5814C46.4815 20.497 46.492 20.4098 46.4901 20.3224C46.4901 20.3069 46.4816 20.2998 46.4661 20.2998H46.1132C46.1079 20.3005 46.1025 20.3 46.0974 20.2983C46.0923 20.2965 46.0877 20.2936 46.0839 20.2898C46.0801 20.2859 46.0773 20.2813 46.0757 20.2762C46.074 20.271 46.0736 20.2656 46.0744 20.2603V19.8905C46.0736 19.8852 46.074 19.8797 46.0757 19.8746C46.0773 19.8695 46.0801 19.8648 46.0839 19.861C46.0877 19.8572 46.0923 19.8543 46.0974 19.8525C46.1025 19.8508 46.1079 19.8502 46.1132 19.851H47.018C47.0233 19.8502 47.0287 19.8508 47.0338 19.8525C47.0389 19.8543 47.0435 19.8572 47.0473 19.861C47.051 19.8648 47.0539 19.8695 47.0555 19.8746C47.0572 19.8797 47.0576 19.8852 47.0568 19.8905V20.1029C47.0641 20.3022 47.042 20.5015 46.9911 20.6943C46.9342 20.8924 46.8093 21.0641 46.6383 21.1792C46.4583 21.2972 46.2465 21.3573 46.0314 21.3514C45.8162 21.3578 45.6038 21.3014 45.4202 21.189C45.2491 21.0781 45.1239 20.9092 45.0673 20.7134C45.0453 20.636 45.0286 20.5573 45.0172 20.4777Z" fill="white"/>
<path d="M52.8959 18.717C52.8951 18.7117 52.8955 18.7063 52.8972 18.7012C52.8988 18.6961 52.9016 18.6915 52.9054 18.6877C52.9092 18.6839 52.9139 18.6811 52.919 18.6794C52.9241 18.6778 52.9295 18.6774 52.9348 18.6782H53.4288C53.4341 18.6774 53.4395 18.6778 53.4446 18.6794C53.4497 18.6811 53.4543 18.6839 53.4581 18.6877C53.4619 18.6915 53.4647 18.6961 53.4664 18.7012C53.468 18.7063 53.4684 18.7117 53.4676 18.717V20.7778C53.4676 20.7933 53.4761 20.8004 53.4916 20.8004H54.6511C54.6564 20.7997 54.6617 20.8002 54.6668 20.8019C54.6718 20.8036 54.6763 20.8065 54.6801 20.8102C54.6838 20.814 54.6867 20.8185 54.6884 20.8236C54.6901 20.8286 54.6906 20.8339 54.6899 20.8392V21.2683C54.6907 21.2736 54.6903 21.279 54.6887 21.2841C54.687 21.2893 54.6842 21.2939 54.6804 21.2978C54.6766 21.3016 54.672 21.3045 54.6669 21.3062C54.6619 21.308 54.6564 21.3085 54.6511 21.3078H52.9376C52.9323 21.3085 52.9268 21.308 52.9217 21.3062C52.9166 21.3045 52.912 21.3016 52.9083 21.2978C52.9045 21.2939 52.9017 21.2893 52.9 21.2841C52.8984 21.279 52.8979 21.2736 52.8988 21.2683L52.8959 18.717Z" fill="white"/>
<path d="M57.268 18.717C57.2672 18.7117 57.2676 18.7063 57.2692 18.7012C57.2709 18.6961 57.2737 18.6915 57.2775 18.6877C57.2813 18.6839 57.2859 18.6811 57.291 18.6794C57.2961 18.6778 57.3015 18.6774 57.3068 18.6782H57.8008C57.8061 18.6774 57.8115 18.6778 57.8166 18.6794C57.8217 18.6811 57.8264 18.6839 57.8301 18.6877C57.8339 18.6915 57.8368 18.6961 57.8384 18.7012C57.8401 18.7063 57.8405 18.7117 57.8396 18.717V21.2683C57.8405 21.2736 57.84 21.279 57.8384 21.2841C57.8367 21.2893 57.8339 21.2939 57.8301 21.2978C57.8264 21.3016 57.8218 21.3045 57.8167 21.3062C57.8116 21.308 57.8062 21.3085 57.8008 21.3078H57.3068C57.3015 21.3085 57.2961 21.308 57.291 21.3062C57.2859 21.3045 57.2813 21.3016 57.2775 21.2978C57.2737 21.2939 57.2709 21.2893 57.2693 21.2841C57.2676 21.279 57.2672 21.2736 57.268 21.2683V18.717Z" fill="white"/>
<path d="M60.5825 18.717C60.5816 18.7117 60.582 18.7063 60.5837 18.7012C60.5853 18.6961 60.5882 18.6915 60.592 18.6877C60.5957 18.6839 60.6004 18.6811 60.6055 18.6794C60.6106 18.6778 60.616 18.6774 60.6213 18.6782H62.3073C62.3126 18.6774 62.318 18.6778 62.3231 18.6794C62.3282 18.6811 62.3328 18.6839 62.3366 18.6877C62.3404 18.6915 62.3432 18.6961 62.3449 18.7012C62.3465 18.7063 62.3469 18.7117 62.3461 18.717V19.1306C62.3469 19.1359 62.3465 19.1413 62.3449 19.1464C62.3432 19.1515 62.3404 19.1561 62.3366 19.1599C62.3328 19.1637 62.3282 19.1665 62.3231 19.1682C62.318 19.1698 62.3126 19.1703 62.3073 19.1694H61.1781C61.1748 19.1689 61.1715 19.1692 61.1684 19.1703C61.1653 19.1713 61.1624 19.1731 61.1601 19.1754C61.1578 19.1777 61.156 19.1806 61.155 19.1837C61.1539 19.1868 61.1536 19.1902 61.1541 19.1934V19.746C61.1539 19.7492 61.1543 19.7523 61.1555 19.7553C61.1566 19.7582 61.1584 19.7609 61.1607 19.763C61.163 19.7652 61.1658 19.7668 61.1688 19.7678C61.1718 19.7687 61.175 19.769 61.1781 19.7686H62.1217C62.1269 19.7679 62.1323 19.7684 62.1373 19.7701C62.1423 19.7718 62.1469 19.7747 62.1507 19.7784C62.1544 19.7822 62.1573 19.7867 62.159 19.7918C62.1607 19.7968 62.1612 19.8021 62.1605 19.8074V20.2167C62.1613 20.222 62.1609 20.2274 62.1593 20.2325C62.1576 20.2376 62.1548 20.2423 62.151 20.2461C62.1472 20.2498 62.1426 20.2527 62.1375 20.2543C62.1324 20.256 62.127 20.2564 62.1217 20.2555H61.1781C61.1748 20.2551 61.1715 20.2554 61.1684 20.2564C61.1653 20.2574 61.1624 20.2592 61.1601 20.2615C61.1578 20.2639 61.156 20.2667 61.155 20.2698C61.1539 20.273 61.1536 20.2763 61.1541 20.2795V21.2676C61.1549 21.2729 61.1545 21.2783 61.1528 21.2834C61.1512 21.2886 61.1484 21.2932 61.1446 21.2971C61.1408 21.3009 61.1362 21.3038 61.1311 21.3055C61.126 21.3073 61.1206 21.3078 61.1153 21.3071H60.6213C60.6159 21.3078 60.6105 21.3073 60.6054 21.3055C60.6004 21.3038 60.5957 21.3009 60.592 21.2971C60.5882 21.2932 60.5854 21.2886 60.5837 21.2834C60.5821 21.2783 60.5816 21.2729 60.5825 21.2676V18.717Z" fill="white"/>
<path d="M64.9807 18.717C64.9798 18.7117 64.9802 18.7063 64.9819 18.7012C64.9835 18.6961 64.9864 18.6915 64.9902 18.6877C64.9939 18.6839 64.9986 18.6811 65.0037 18.6794C65.0088 18.6778 65.0142 18.6774 65.0195 18.6782H66.7055C66.7108 18.6774 66.7162 18.6778 66.7213 18.6794C66.7264 18.6811 66.731 18.6839 66.7348 18.6877C66.7386 18.6915 66.7414 18.6961 66.7431 18.7012C66.7447 18.7063 66.7451 18.7117 66.7443 18.717V19.1306C66.7451 19.1359 66.7447 19.1413 66.7431 19.1464C66.7414 19.1515 66.7386 19.1561 66.7348 19.1599C66.731 19.1637 66.7264 19.1665 66.7213 19.1682C66.7162 19.1698 66.7108 19.1703 66.7055 19.1694H65.5763C65.573 19.1689 65.5697 19.1692 65.5666 19.1703C65.5635 19.1713 65.5606 19.1731 65.5583 19.1754C65.556 19.1777 65.5542 19.1806 65.5532 19.1837C65.5521 19.1868 65.5518 19.1902 65.5523 19.1934V19.715C65.5521 19.7181 65.5525 19.7213 65.5537 19.7242C65.5548 19.7272 65.5566 19.7298 65.5589 19.732C65.5612 19.7341 65.564 19.7358 65.567 19.7367C65.57 19.7377 65.5732 19.738 65.5763 19.7375H66.5199C66.5251 19.7368 66.5305 19.7374 66.5355 19.7391C66.5405 19.7408 66.5451 19.7436 66.5489 19.7474C66.5526 19.7511 66.5554 19.7557 66.5571 19.7607C66.5589 19.7657 66.5594 19.7711 66.5587 19.7764V20.1857C66.5595 20.191 66.5591 20.1964 66.5574 20.2015C66.5558 20.2067 66.5529 20.2113 66.5492 20.2152C66.5454 20.219 66.5408 20.2219 66.5357 20.2236C66.5306 20.2254 66.5252 20.2259 66.5199 20.2252H65.5707C65.5551 20.2252 65.5467 20.2323 65.5467 20.2478V20.7933C65.5467 20.8088 65.5551 20.8159 65.5707 20.8159H66.6998C66.7051 20.8152 66.7104 20.8157 66.7155 20.8174C66.7205 20.8191 66.725 20.822 66.7288 20.8257C66.7326 20.8295 66.7354 20.8341 66.7371 20.8391C66.7388 20.8441 66.7393 20.8495 66.7386 20.8547V21.2683C66.7395 21.2736 66.739 21.279 66.7374 21.2841C66.7357 21.2893 66.7329 21.2939 66.7291 21.2978C66.7254 21.3016 66.7208 21.3045 66.7157 21.3062C66.7106 21.308 66.7052 21.3085 66.6998 21.3078H65.0138C65.0085 21.3085 65.0031 21.308 64.998 21.3062C64.9929 21.3045 64.9883 21.3016 64.9845 21.2978C64.9807 21.2939 64.9779 21.2893 64.9763 21.2841C64.9746 21.279 64.9742 21.2736 64.975 21.2683L64.9807 18.717Z" fill="white"/>
<path d="M72.5678 18.717C72.567 18.7117 72.5674 18.7063 72.569 18.7012C72.5707 18.6961 72.5735 18.6915 72.5773 18.6877C72.5811 18.6839 72.5857 18.6811 72.5908 18.6794C72.5959 18.6778 72.6013 18.6774 72.6066 18.6782H74.2926C74.2979 18.6774 74.3033 18.6778 74.3084 18.6794C74.3135 18.6811 74.3182 18.6839 74.3219 18.6877C74.3257 18.6915 74.3286 18.6961 74.3302 18.7012C74.3319 18.7063 74.3323 18.7117 74.3314 18.717V19.1306C74.3323 19.1359 74.3319 19.1413 74.3302 19.1464C74.3286 19.1515 74.3257 19.1561 74.3219 19.1599C74.3182 19.1637 74.3135 19.1665 74.3084 19.1682C74.3033 19.1698 74.2979 19.1703 74.2926 19.1694H73.1634C73.1472 19.1694 73.1394 19.1765 73.1394 19.1934V19.715C73.1391 19.7181 73.1394 19.7214 73.1405 19.7244C73.1416 19.7274 73.1434 19.7301 73.1457 19.7323C73.1481 19.7345 73.1509 19.7361 73.154 19.737C73.1571 19.7379 73.1603 19.7381 73.1634 19.7375H74.1063C74.1116 19.7368 74.1169 19.7374 74.122 19.7391C74.127 19.7408 74.1315 19.7436 74.1353 19.7474C74.139 19.7511 74.1419 19.7557 74.1436 19.7607C74.1453 19.7657 74.1458 19.7711 74.1451 19.7764V20.1857C74.1459 20.191 74.1455 20.1964 74.1439 20.2015C74.1422 20.2067 74.1394 20.2113 74.1356 20.2152C74.1318 20.219 74.1272 20.2219 74.1221 20.2236C74.1171 20.2254 74.1116 20.2259 74.1063 20.2252H73.1634C73.1472 20.2252 73.1394 20.2323 73.1394 20.2478V20.7933C73.1394 20.8088 73.1465 20.8159 73.1634 20.8159H74.2926C74.2979 20.8152 74.3032 20.8157 74.3083 20.8174C74.3133 20.8191 74.3179 20.822 74.3216 20.8257C74.3254 20.8295 74.3282 20.8341 74.3299 20.8391C74.3316 20.8441 74.3321 20.8495 74.3314 20.8547V21.2683C74.3323 21.2736 74.3318 21.279 74.3302 21.2841C74.3285 21.2893 74.3257 21.2939 74.3219 21.2978C74.3182 21.3016 74.3136 21.3045 74.3085 21.3062C74.3034 21.308 74.298 21.3085 74.2926 21.3078H72.6066C72.6013 21.3085 72.5959 21.308 72.5908 21.3062C72.5857 21.3045 72.5811 21.3016 72.5773 21.2978C72.5735 21.2939 72.5707 21.2893 72.5691 21.2841C72.5674 21.279 72.567 21.2736 72.5678 21.2683V18.717Z" fill="white"/>
<path d="M77.7045 18.7168C77.7067 18.7053 77.713 18.6951 77.7222 18.6879C77.7315 18.6808 77.743 18.6772 77.7546 18.6779H78.2416C78.2532 18.6772 78.2647 18.6808 78.2739 18.6879C78.2832 18.6951 78.2895 18.7053 78.2917 18.7168L79.1809 21.268C79.1884 21.2944 79.1795 21.3075 79.1541 21.3075H78.6516C78.6399 21.3082 78.6283 21.3046 78.619 21.2973C78.6098 21.29 78.6035 21.2796 78.6015 21.268L78.4505 20.8086H77.533L77.3862 21.268C77.384 21.2795 77.3777 21.2899 77.3685 21.2971C77.3593 21.3044 77.3478 21.3081 77.3361 21.3075H76.8294C76.8033 21.3075 76.7948 21.2941 76.8026 21.268L77.7045 18.7168ZM78.2959 20.3251L77.9988 19.4077H77.9868L77.6897 20.3251H78.2959Z" fill="white"/>
<path d="M82.0437 21.2448C81.8819 21.1899 81.7327 21.1033 81.6047 20.9901C81.6 20.9859 81.5963 20.9808 81.5937 20.9751C81.5912 20.9694 81.5898 20.9632 81.5898 20.9569C81.5898 20.9506 81.5912 20.9444 81.5937 20.9387C81.5963 20.933 81.6 20.9279 81.6047 20.9237L81.8976 20.5871C81.9131 20.5666 81.9329 20.5659 81.9555 20.5871C82.1469 20.7537 82.3899 20.8492 82.6435 20.8574C82.7554 20.864 82.8663 20.8335 82.959 20.7706C82.9949 20.745 83.024 20.7111 83.0438 20.6717C83.0636 20.6324 83.0735 20.5888 83.0726 20.5447C83.074 20.5076 83.0662 20.4708 83.0501 20.4373C83.034 20.4039 83.01 20.3749 82.9802 20.3528C82.8856 20.2936 82.7781 20.2585 82.6668 20.2505L82.5257 20.2314C81.9714 20.1538 81.6943 19.891 81.6943 19.4431C81.6901 19.3327 81.7108 19.2228 81.7549 19.1215C81.799 19.0202 81.8654 18.9301 81.9491 18.858C82.14 18.7045 82.3805 18.6264 82.6252 18.6386C82.7925 18.6367 82.9591 18.6605 83.1192 18.7091C83.2641 18.7518 83.4003 18.8199 83.5215 18.9103C83.5441 18.9258 83.5469 18.9448 83.5285 18.9681L83.2928 19.321C83.2903 19.3257 83.2869 19.3298 83.2826 19.333C83.2784 19.3362 83.2735 19.3384 83.2683 19.3394C83.2631 19.3405 83.2578 19.3404 83.2526 19.3392C83.2474 19.338 83.2426 19.3356 83.2385 19.3323C83.0587 19.2072 82.8462 19.1375 82.6273 19.1319C82.5342 19.1262 82.4421 19.1545 82.3683 19.2116C82.3383 19.2367 82.3144 19.2683 82.2984 19.304C82.2823 19.3397 82.2746 19.3786 82.2759 19.4177C82.2759 19.5725 82.4123 19.6692 82.6852 19.7077L82.8263 19.7275C83.3782 19.8018 83.6539 20.0674 83.6534 20.5243C83.6568 20.6377 83.6343 20.7503 83.5877 20.8538C83.5412 20.9572 83.4717 21.0487 83.3846 21.1213C83.1662 21.2871 82.8953 21.3686 82.6217 21.3507C82.4242 21.3507 82.2283 21.3148 82.0437 21.2448Z" fill="white"/>
<path d="M86.8072 21.3083C86.8018 21.309 86.7964 21.3085 86.7913 21.3067C86.7862 21.305 86.7816 21.3021 86.7779 21.2983C86.7741 21.2944 86.7713 21.2898 86.7696 21.2846C86.768 21.2795 86.7675 21.2741 86.7683 21.2688V20.2596L85.992 18.7175C85.9822 18.6914 85.992 18.6787 86.0189 18.6787H86.5213C86.5339 18.6777 86.5464 18.681 86.5568 18.688C86.5672 18.6951 86.5748 18.7055 86.5785 18.7175L87.0542 19.6766H87.0662L87.5411 18.7175C87.545 18.7055 87.5529 18.6952 87.5634 18.6881C87.5738 18.6811 87.5864 18.6778 87.599 18.6787H88.086C88.091 18.6781 88.0961 18.6789 88.1008 18.6808C88.1055 18.6828 88.1097 18.686 88.1128 18.69C88.1152 18.6941 88.1165 18.6987 88.1165 18.7034C88.1165 18.7081 88.1152 18.7128 88.1128 18.7168L87.3365 20.2589V21.2681C87.3373 21.2734 87.3368 21.2788 87.3352 21.2839C87.3335 21.2891 87.3307 21.2937 87.3269 21.2976C87.3232 21.3014 87.3186 21.3043 87.3135 21.306C87.3084 21.3078 87.303 21.3083 87.2976 21.3076L86.8072 21.3083Z" fill="white"/>
</svg>
