<svg width="120" height="43" viewBox="0 0 120 43" fill="none" xmlns="http://www.w3.org/2000/svg">
<path d="M18.6314 34.6246C16.4482 34.6259 14.2985 34.0878 12.3734 33.0582C10.4482 32.0286 8.80728 30.5393 7.59633 28.7228C6.38538 26.9062 5.64196 24.8186 5.43215 22.6456C5.22234 20.4725 5.55264 18.2812 6.39368 16.2665C7.23472 14.2519 8.56046 12.4762 10.2531 11.0973C11.9457 9.71836 13.9527 8.77897 16.0958 8.36258C18.2389 7.94619 20.4517 8.0657 22.5375 8.71049C24.6233 9.35528 26.5175 10.5054 28.0518 12.0585L31.9553 8.12822C29.3505 5.52127 26.034 3.74136 22.4217 3.01166C18.8093 2.28197 15.062 2.63497 11.6494 4.02641C8.23692 5.41784 5.31113 7.78578 3.23893 10.8333C1.16674 13.8808 0.0403726 17.4723 0.00106507 21.1574C-0.0382425 24.8425 1.01126 28.4571 3.01798 31.5482C5.02469 34.6392 7.8993 37.069 11.2814 38.5329C14.6634 39.9968 18.4024 40.4297 22.0295 39.7772C25.6566 39.1247 29.0103 37.416 31.6702 34.8652L27.6596 31.0774C25.2153 33.3394 22.0063 34.5937 18.676 34.5889" fill="white"/>
<path d="M18.6316 25.7032C17.9123 25.7045 17.2041 25.5266 16.5707 25.1857C15.9374 24.8447 15.399 24.3514 15.004 23.7503C14.6091 23.1492 14.37 22.4592 14.3084 21.7426C14.2469 21.026 14.3647 20.3053 14.6513 19.6457C14.938 18.986 15.3844 18.4081 15.9503 17.9641C16.5161 17.5201 17.1836 17.2241 17.8926 17.1026C18.6015 16.9812 19.3295 17.0382 20.0109 17.2685C20.6923 17.4988 21.3056 17.8952 21.7954 18.4218L25.4762 14.6876C24.1688 13.3497 22.498 12.4242 20.6703 12.0256C18.8427 11.6269 16.9382 11.7725 15.1924 12.4444C13.4466 13.1163 11.9359 14.285 10.8471 15.8061C9.7583 17.3272 9.13905 19.1341 9.06591 21.0033C8.99278 22.8725 9.46896 24.7222 10.4356 26.3237C11.4022 27.9252 12.817 29.2084 14.5049 30.0147C16.1929 30.8209 18.0801 31.1149 19.9334 30.8602C21.7866 30.6056 23.5246 29.8135 24.9326 28.5819L21.0824 24.9546C20.3645 25.4577 19.5082 25.7255 18.6316 25.721" fill="white"/>
<path d="M16.8843 0V6.46144L12.4014 9.22426V0H16.8843Z" fill="white"/>
<path d="M12.4014 33.653L16.8843 34.9185V42.7524H12.4014V33.653Z" fill="white"/>
<path d="M22.8736 0V7.44179L18.3818 6.71098V0H22.8736Z" fill="white"/>
<path d="M18.3818 35.3372L22.8736 36.6027V42.7522H18.3818V35.3372Z" fill="white"/>
<path d="M47.2132 18.9475C46.3785 19.6616 45.3814 20.1601 44.3093 20.3994C43.2372 20.6387 42.1228 20.6114 41.0637 20.32C39.3692 19.8437 37.9233 18.733 37.0264 17.2185C36.7305 16.713 36.5027 16.1706 36.3491 15.6054C36.1875 15.0251 36.1065 14.4253 36.1084 13.8229C36.109 12.3468 36.5941 10.9116 37.4893 9.7379C38.3845 8.56418 39.6403 7.71677 41.0637 7.32582C41.644 7.16426 42.2438 7.08329 42.8462 7.08519C43.6427 7.08219 44.4333 7.22102 45.1812 7.49516C45.9261 7.76926 46.6147 8.177 47.2132 8.69832L45.8318 10.9621C45.455 10.5516 44.9925 10.229 44.4771 10.0173C43.8458 9.74851 43.1578 9.64016 42.4744 9.70197C41.7911 9.76378 41.1337 9.99382 40.5609 10.3716C39.9881 10.7493 39.5177 11.263 39.1918 11.8668C38.8659 12.4706 38.6945 13.1457 38.693 13.8318C38.6922 14.3835 38.8044 14.9294 39.0228 15.436C39.2332 15.9258 39.5358 16.3705 39.914 16.7462C40.2914 17.1264 40.7394 17.4291 41.233 17.6374C41.7411 17.861 42.2911 17.9734 42.8462 17.9671C43.4063 17.9662 43.9606 17.8541 44.4771 17.6374C44.9912 17.4191 45.4529 17.0941 45.8318 16.6838L47.2132 18.9475Z" fill="white"/>
<path d="M51.2325 20.2846H48.7549V10.5523H49.3609L50.1719 11.7109C50.975 10.976 52.0244 10.5689 53.113 10.5701H55.3054V13.0478H53.113C52.6158 13.0478 52.1388 13.2447 51.7864 13.5954C51.434 13.9461 51.2349 14.4222 51.2325 14.9193V20.2846Z" fill="white"/>
<path d="M59.0308 23.992V21.4877H60.4122C60.6489 21.4898 60.8841 21.4506 61.1073 21.3718C61.33 21.2923 61.5401 21.1813 61.7312 21.042C62.1204 20.7636 62.4182 20.3759 62.5868 19.928L61.7579 20.2756C61.4758 20.393 61.1723 20.4507 60.8667 20.4449C60.2868 20.4492 59.7115 20.3402 59.1734 20.1241C58.6559 19.9263 58.1854 19.6227 57.7919 19.2328C57.4038 18.8294 57.1034 18.35 56.9096 17.8247C56.6708 17.227 56.5526 16.5878 56.562 15.9442V10.5968H59.0397V15.9442C59.0321 16.2483 59.0835 16.5509 59.1912 16.8354C59.2774 17.0756 59.4142 17.2944 59.5922 17.4771C59.7589 17.6515 59.9631 17.7856 60.1894 17.8693C60.424 17.9525 60.6712 17.9948 60.9202 17.994C61.1714 17.992 61.4187 17.9309 61.6421 17.8158C61.8654 17.6954 62.0672 17.5388 62.2392 17.3523C62.4051 17.1554 62.5376 16.9326 62.6313 16.6928C62.7294 16.4522 62.7808 16.1951 62.7828 15.9353V10.5879H65.2783V19.0902C65.2792 20.0592 64.9925 21.0065 64.4547 21.8125C63.9169 22.6184 63.1521 23.2467 62.257 23.6177C61.6458 23.8789 60.9877 24.0123 60.323 24.0099L59.0308 23.992Z" fill="white"/>
<path d="M69.9575 23.9921H67.4531V10.5523H68.0592L69.0484 11.7287C69.2762 11.511 69.5205 11.3114 69.7792 11.1316C70.0389 10.9416 70.3165 10.7774 70.6081 10.6414C70.8952 10.5086 71.1934 10.4012 71.4993 10.3205C71.8048 10.2397 72.1192 10.1978 72.4351 10.1958C73.0954 10.1906 73.75 10.3179 74.3602 10.5701C74.9548 10.7982 75.4973 11.1437 75.9555 11.5861C76.4118 12.0539 76.7748 12.6044 77.025 13.2081C77.2907 13.8832 77.4209 14.6039 77.4082 15.3293C77.4217 16.0663 77.2915 16.7988 77.025 17.4861C76.7792 18.0947 76.4158 18.649 75.9555 19.117C75.5011 19.562 74.9615 19.9106 74.3691 20.1419C73.7547 20.3768 73.1018 20.4947 72.444 20.4895C72.2251 20.4925 72.0066 20.4685 71.7934 20.4182C71.5774 20.3705 71.3658 20.3049 71.1606 20.2221C70.9472 20.143 70.7389 20.0507 70.5368 19.9459C70.3407 19.8478 70.1446 19.7409 69.9575 19.625V23.9921ZM74.9217 15.3293C74.927 14.9642 74.8635 14.6014 74.7345 14.2598C74.626 13.9261 74.4432 13.6213 74.1998 13.3686C73.9736 13.1415 73.7038 12.9626 73.4066 12.8427C72.7871 12.6037 72.1009 12.6037 71.4815 12.8427C71.1747 12.9719 70.8991 13.1652 70.6732 13.4096C70.4472 13.654 70.2761 13.9439 70.1714 14.2598C69.9099 14.9672 69.9099 15.7448 70.1714 16.4522C70.2876 16.7618 70.4666 17.044 70.6972 17.2811C71.0414 17.6224 71.4778 17.8558 71.9528 17.9524C72.4279 18.0489 72.9208 18.0046 73.3709 17.8247C73.6672 17.6951 73.9363 17.5106 74.1641 17.2811C74.3947 17.044 74.5737 16.7618 74.6899 16.4522C74.8249 16.1058 74.8915 15.7366 74.886 15.3649" fill="white"/>
<path d="M83.8878 20.2845C83.3062 20.2876 82.7301 20.1724 82.1945 19.9458C81.6775 19.7227 81.2085 19.4019 80.8131 19.0011C80.4282 18.6036 80.1254 18.1342 79.9218 17.6197C79.691 17.0854 79.5756 16.5083 79.5832 15.9263V13.0477H78.2998V10.57H79.5119V6.68427H81.9806V10.57H85.7416V13.0477H82.0073V15.9263C82.0037 16.1801 82.0523 16.4319 82.1499 16.6661C82.2457 16.8855 82.3817 17.085 82.551 17.2543C82.7239 17.4256 82.9261 17.5645 83.1481 17.6642C83.382 17.764 83.6336 17.8155 83.8878 17.8158H85.7683V20.2845H83.8878Z" fill="white"/>
<path d="M96.8554 15.3291C96.867 16.6928 96.3458 18.0071 95.4026 18.9921C94.9509 19.4495 94.4153 19.8156 93.8252 20.0705C93.2111 20.3326 92.5499 20.4661 91.8823 20.4626C91.2205 20.4652 90.5653 20.3317 89.9572 20.0705C89.3671 19.8156 88.8315 19.4495 88.3797 18.9921C87.9212 18.5226 87.5581 17.9688 87.3103 17.3612C87.0462 16.7165 86.9129 16.0258 86.9181 15.3291C86.9129 14.6267 87.0462 13.9302 87.3103 13.2793C87.5537 12.6694 87.9174 12.1147 88.3797 11.6484C88.8315 11.191 89.3671 10.8249 89.9572 10.57C90.5653 10.3088 91.2205 10.1753 91.8823 10.1778C92.5483 10.1726 93.2087 10.2999 93.8252 10.5521C94.4179 10.782 94.9554 11.1342 95.4026 11.586C95.8591 12.0519 96.2195 12.603 96.4632 13.208C96.7297 13.88 96.8629 14.5974 96.8554 15.3202V15.3291ZM94.3599 15.3202C94.3577 14.9579 94.2913 14.5988 94.1638 14.2597C94.0385 13.9526 93.8572 13.6716 93.6291 13.4308C93.4082 13.1994 93.141 13.0171 92.8448 12.8961C92.2304 12.6469 91.5431 12.6469 90.9287 12.8961C90.6325 13.0171 90.3653 13.1994 90.1444 13.4308C89.9215 13.6721 89.7461 13.9533 89.6275 14.2597C89.4925 14.606 89.4259 14.9753 89.4314 15.347C89.4267 15.707 89.4933 16.0645 89.6275 16.3986C89.7461 16.705 89.9215 16.9862 90.1444 17.2275C90.3641 17.467 90.6311 17.6582 90.9287 17.7889C91.2284 17.9242 91.5535 17.994 91.8823 17.9939C92.2124 17.9965 92.5397 17.9329 92.8448 17.8068C93.1397 17.6793 93.4063 17.4945 93.6291 17.2631C93.8594 17.0242 94.0411 16.7426 94.1638 16.4343C94.2906 16.08 94.351 15.7053 94.3421 15.3291" fill="white"/>
<path d="M49.7803 37.5387H47.1066V28.2342C47.1073 28.0592 47.0708 27.8861 46.9997 27.7262C46.9319 27.5747 46.8384 27.436 46.7234 27.3163C46.6043 27.1964 46.4617 27.1023 46.3045 27.04C46.1446 26.97 45.971 26.9365 45.7965 26.9419C45.6222 26.9382 45.449 26.9717 45.2885 27.04C44.9793 27.1709 44.7332 27.417 44.6023 27.7262C44.534 27.8867 44.5005 28.0599 44.5042 28.2342V37.5387H41.9286V28.2342C41.928 28.0603 41.8947 27.8879 41.8306 27.7262C41.7627 27.5747 41.6692 27.436 41.5543 27.3163C41.4351 27.1964 41.2925 27.1023 41.1354 27.04C40.9754 26.97 40.8019 26.9365 40.6274 26.9419C40.453 26.9382 40.2798 26.9717 40.1194 27.04C39.8102 27.1709 39.564 27.417 39.4331 27.7262C39.3648 27.8867 39.3314 28.0599 39.3351 28.2342V37.5387H36.7238V28.2342C36.7191 27.7137 36.8223 27.1978 37.0268 26.7191C37.4219 25.7855 38.1639 25.0417 39.0965 24.6444C40.0292 24.247 41.0796 24.2272 42.0266 24.5891C42.4744 24.7597 42.8857 25.0138 43.2387 25.3377C43.5872 25.0167 43.9921 24.7628 44.4329 24.5891C44.8767 24.4186 45.3479 24.331 45.8233 24.3306C46.3464 24.3295 46.8644 24.4325 47.3473 24.6337C47.8125 24.8314 48.2359 25.1157 48.595 25.4714C48.9499 25.8293 49.2315 26.2532 49.4238 26.7191C49.6312 27.1973 49.7374 27.7131 49.7358 28.2342L49.7803 37.5387Z" fill="white"/>
<path d="M61.4106 37.5386H60.8135L59.8509 36.2018C59.6115 36.4132 59.3617 36.6125 59.1023 36.7989C58.8385 36.9849 58.5581 37.146 58.2645 37.2802C57.9775 37.4133 57.6793 37.5206 57.3733 37.601C57.0822 37.6763 56.7828 37.7152 56.4821 37.7169C55.8253 37.7198 55.1733 37.6051 54.557 37.3782C53.9671 37.1553 53.43 36.8124 52.9795 36.3711C52.4976 35.9188 52.1178 35.3688 51.8655 34.758C51.5949 34.0654 51.4618 33.3268 51.4734 32.5834C51.4674 31.8722 51.6007 31.1668 51.8655 30.5068C52.1089 29.8969 52.4726 29.3422 52.935 28.8758C53.3829 28.4183 53.9197 28.0574 54.5125 27.8153C55.1229 27.564 55.7773 27.4367 56.4375 27.441C56.7561 27.4394 57.0735 27.4783 57.3822 27.5568C57.6898 27.6361 57.9884 27.7466 58.2735 27.8866C58.5672 28.0239 58.8476 28.188 59.1112 28.3768C59.3716 28.5613 59.6188 28.7638 59.8509 28.9828L60.8135 27.8242H61.4106V37.5386ZM58.9151 32.5834C58.912 32.2472 58.8455 31.9146 58.7191 31.603C58.5946 31.2768 58.4136 30.9751 58.1843 30.7118C57.9633 30.467 57.697 30.2672 57.4001 30.1236C57.1016 29.9736 56.7715 29.8972 56.4375 29.9008C56.1119 29.8975 55.7885 29.9549 55.4839 30.0701C55.1893 30.1816 54.9219 30.3548 54.6996 30.5781C54.4748 30.8179 54.2991 31.0995 54.1827 31.4069C53.9209 32.1419 53.9209 32.9447 54.1827 33.6796C54.297 33.9881 54.4729 34.2701 54.6996 34.5084C54.9219 34.7317 55.1893 34.9049 55.4839 35.0164C55.7885 35.1316 56.1119 35.1891 56.4375 35.1858C56.7715 35.1893 57.1016 35.1129 57.4001 34.963C57.697 34.8193 57.9633 34.6196 58.1843 34.3747C58.4093 34.1248 58.5901 33.8385 58.7191 33.5281C58.8466 33.2137 58.9131 32.878 58.9151 32.5388" fill="white"/>
<path d="M73.014 36.3088C73.0218 36.9711 72.8881 37.6274 72.6219 38.2338C72.3746 38.8338 72.011 39.379 71.5521 39.8378C71.0933 40.2967 70.5481 40.6603 69.9482 40.9075C69.3404 41.1697 68.685 41.3032 68.0231 41.2997H66.7754V38.7686H68.0053C68.3412 38.7746 68.6758 38.7234 68.9945 38.6171C69.2475 38.5257 69.4805 38.3866 69.6808 38.2071C69.8646 38.0349 70.0182 37.833 70.1353 37.61C70.2442 37.3833 70.3336 37.1477 70.4027 36.9059C70.2967 37.0662 70.1528 37.1978 69.9838 37.2891C69.7909 37.3907 69.5878 37.4713 69.3778 37.5298C69.155 37.6007 68.9247 37.6456 68.6915 37.6635C68.4689 37.6758 68.2457 37.6758 68.0231 37.6635C67.3625 37.6681 66.7068 37.5502 66.0891 37.3159C65.5016 37.0842 64.9656 36.7389 64.5116 36.2999C64.0636 35.8616 63.7089 35.3371 63.4689 34.758C63.1993 34.0714 63.0661 33.3388 63.0768 32.6013C63.0727 31.9019 63.206 31.2085 63.4689 30.5603C63.9686 29.3383 64.929 28.3619 66.1426 27.8421C66.7544 27.5837 67.4125 27.4533 68.0766 27.4588C68.3772 27.4614 68.6765 27.5004 68.9678 27.5747C69.2747 27.656 69.5731 27.7664 69.859 27.9045C70.1488 28.0439 70.4261 28.2079 70.6879 28.3946C70.95 28.5769 71.1973 28.7796 71.4276 29.0007L72.3901 27.8421H72.9873L73.014 36.3088ZM70.5185 32.5834C70.5197 32.2468 70.4531 31.9134 70.3225 31.6031C70.2043 31.2739 70.0226 30.9711 69.7877 30.7118C69.5667 30.467 69.3004 30.2673 69.0035 30.1236C68.7081 29.9737 68.381 29.8973 68.0498 29.9008C67.7213 29.8977 67.395 29.9551 67.0873 30.0702C66.7953 30.1818 66.5309 30.3551 66.3119 30.5782C66.0814 30.8152 65.9023 31.0974 65.7861 31.407C65.657 31.7702 65.5936 32.1535 65.599 32.5389C65.5982 32.93 65.6739 33.3175 65.8218 33.6797C65.9358 33.9903 66.1151 34.2729 66.3476 34.5085C66.5652 34.7398 66.8295 34.922 67.123 35.0432C67.4283 35.1684 67.7554 35.232 68.0855 35.2304C68.4167 35.2339 68.7438 35.1575 69.0391 35.0076C69.336 34.8639 69.6023 34.6642 69.8234 34.4194C70.0534 34.1733 70.2348 33.8861 70.3581 33.5727C70.4897 33.2596 70.5564 32.9231 70.5542 32.5834" fill="white"/>
<path d="M84.6274 37.5386H84.0213L83.0588 36.2018C82.8229 36.4174 82.5728 36.6169 82.3102 36.7989C82.0495 36.9848 81.772 37.1459 81.4813 37.2802C81.1938 37.412 80.8957 37.5193 80.5901 37.601C80.2989 37.6758 79.9996 37.7147 79.6989 37.7169C79.042 37.7206 78.3899 37.6059 77.7738 37.3782C77.1824 37.1532 76.6427 36.8106 76.1874 36.3711C75.7083 35.9164 75.329 35.367 75.0734 34.758C74.8213 34.0617 74.7063 33.3233 74.7347 32.5834C74.7257 31.8728 74.8559 31.1673 75.1179 30.5068C75.3647 29.8986 75.728 29.3446 76.1874 28.8758C76.6401 28.42 77.1795 28.0594 77.7738 27.8153C78.384 27.563 79.0386 27.4357 79.6989 27.4409C79.9996 27.4431 80.2989 27.482 80.5901 27.5568C80.8975 27.6367 81.196 27.7471 81.4813 27.8866C81.7722 28.0239 82.0497 28.188 82.3102 28.3767C82.5723 28.559 82.8196 28.7617 83.0499 28.9828L84.0124 27.8242H84.6185L84.6274 37.5386ZM82.123 32.5834C82.1242 32.2467 82.0575 31.9133 81.927 31.603C81.8094 31.2755 81.631 30.9731 81.4011 30.7118C81.1782 30.469 80.9123 30.2696 80.6168 30.1236C80.318 29.9746 79.9882 29.8982 79.6543 29.9007C79.3286 29.8966 79.0051 29.9541 78.7007 30.0701C78.406 30.1816 78.1386 30.3548 77.9164 30.5781C77.6889 30.8176 77.5103 31.0991 77.3906 31.4069C77.1426 32.1442 77.1426 32.9423 77.3906 33.6796C77.508 33.9886 77.6868 34.2706 77.9164 34.5084C78.1386 34.7317 78.406 34.9049 78.7007 35.0164C79.0051 35.1325 79.3286 35.1899 79.6543 35.1858C79.9882 35.1883 80.318 35.1119 80.6168 34.963C80.9123 34.8169 81.1782 34.6175 81.4011 34.3747C81.6263 34.1267 81.8045 33.8398 81.927 33.5281C82.0585 33.2149 82.1252 32.8784 82.123 32.5388" fill="white"/>
<path d="M94.4042 37.5387H86.2939L90.3936 30.3019H86.2939V27.8243H94.4042L90.3045 35.07H94.4042V37.5387Z" fill="white"/>
<path d="M99.0026 25.1683C99.0048 25.3893 98.9592 25.6082 98.8689 25.81C98.7825 26.0052 98.6618 26.1833 98.5124 26.3358C98.3561 26.4846 98.1751 26.6052 97.9777 26.6923C97.6724 26.8224 97.3351 26.8581 97.0094 26.7945C96.6837 26.731 96.3846 26.5712 96.1507 26.3358C95.9992 26.185 95.8782 26.0065 95.7942 25.81C95.7066 25.6076 95.6641 25.3887 95.6694 25.1683C95.666 24.948 95.7085 24.7295 95.7942 24.5266C95.8759 24.3288 95.9972 24.1499 96.1507 24.0008C96.3014 23.8493 96.48 23.7283 96.6765 23.6443C97.0854 23.4718 97.5461 23.4688 97.9572 23.6359C98.3684 23.803 98.6963 24.1266 98.8689 24.5355C98.9574 24.7378 99.0029 24.9563 99.0026 25.1772V25.1683ZM98.5748 37.5475H96.0704V27.8063H98.5748V37.5475Z" fill="white"/>
<path d="M103.254 37.5386H100.759V27.8063H101.356L102.176 28.751C102.574 28.3941 103.033 28.1105 103.531 27.9133C104.036 27.7174 104.574 27.6176 105.117 27.6192C105.696 27.617 106.269 27.7322 106.801 27.9578C107.849 28.406 108.678 29.2478 109.11 30.3018C109.339 30.8367 109.454 31.4133 109.448 31.9951V37.5564H106.971V31.9773C106.973 31.7295 106.924 31.4839 106.828 31.2554C106.73 31.0345 106.595 30.8324 106.427 30.6583C106.257 30.4917 106.058 30.3587 105.839 30.2661C105.382 30.0745 104.869 30.071 104.41 30.2562C103.951 30.4415 103.583 30.8006 103.388 31.2554C103.289 31.4833 103.238 31.7289 103.236 31.9773L103.254 37.5386Z" fill="white"/>
<path d="M115.384 35.1592C115.476 35.1894 115.572 35.2103 115.669 35.2216H115.963C116.198 35.2209 116.432 35.1879 116.658 35.1235C116.881 35.0564 117.093 34.9605 117.291 34.8383C117.488 34.714 117.665 34.5608 117.817 34.3838C117.974 34.2053 118.103 34.0039 118.2 33.7867L119.982 35.5691C119.76 35.9009 119.493 36.2007 119.189 36.4604C118.287 37.2434 117.131 37.6739 115.936 37.6725C114.953 37.6803 113.991 37.392 113.174 36.8452C112.356 36.2984 111.723 35.5184 111.355 34.6066C111.089 33.9502 110.956 33.2473 110.963 32.539C110.956 31.819 111.089 31.1045 111.355 30.4356C111.597 29.8273 111.961 29.2752 112.425 28.8136C112.876 28.3627 113.412 28.0053 114.002 27.7619C114.616 27.5134 115.274 27.3892 115.936 27.3965C116.336 27.3945 116.734 27.4424 117.122 27.5391C117.506 27.6319 117.877 27.7726 118.227 27.958C118.58 28.1391 118.909 28.3637 119.207 28.6264C119.511 28.8861 119.778 29.1859 120 29.5177L115.384 35.1592ZM116.623 30.0435C116.514 30 116.4 29.973 116.284 29.9633H115.936C115.606 29.9616 115.279 30.0253 114.974 30.1505C114.674 30.2753 114.404 30.461 114.18 30.6957C113.956 30.9304 113.783 31.2091 113.673 31.514C113.543 31.8618 113.48 32.2304 113.485 32.6013C113.485 32.6994 113.485 32.7974 113.485 32.9133V33.2609L113.566 33.6084C113.592 33.7081 113.631 33.804 113.681 33.8936L116.623 30.0435Z" fill="white"/>
</svg>
