<svg width="125" height="38" viewBox="0 0 125 38" fill="none" xmlns="http://www.w3.org/2000/svg">
<g clip-path="url(#clip0)">
<path d="M50.3418 26.0851V10.5726H53.7103C55.3876 10.5726 56.5709 10.9529 57.2602 11.7134C57.9496 12.4739 58.2943 13.6714 58.2943 15.3061V21.0127C58.3964 22.3639 58.0347 23.7095 57.269 24.8275C56.5859 25.6664 55.4521 26.086 53.8678 26.0865L50.3418 26.0851ZM52.5028 24.5314H53.719C54.014 24.536 54.3083 24.5028 54.5949 24.4327C54.8136 24.3803 55.0252 24.3021 55.2255 24.1998C55.4053 24.0972 55.5528 23.9464 55.6515 23.7644C55.897 23.3736 56.0343 22.9246 56.0491 22.4633C56.0801 22.1334 56.0989 21.8513 56.1057 21.6172C56.1125 21.383 56.1156 21.0444 56.1151 20.6013V15.5579C56.1151 15.1842 56.1093 14.8685 56.0956 14.6146C56.0818 14.3606 56.0585 14.1066 56.023 13.8475C55.9963 13.6319 55.9394 13.4211 55.8539 13.2213C55.7774 13.0552 55.6798 12.8996 55.5637 12.7583C55.4463 12.6121 55.2955 12.4964 55.1239 12.4209C54.926 12.3359 54.7187 12.2748 54.5064 12.2387C54.2312 12.1917 53.9524 12.1696 53.6733 12.1727H52.5028V24.5314Z" fill="white"/>
<path d="M62.2413 26.2439C61.9344 26.2459 61.6312 26.1762 61.356 26.0404C61.0807 25.9046 60.8409 25.7064 60.6557 25.4616C60.2355 24.9601 60.0082 24.325 60.015 23.6707C60.0085 23.1829 60.0957 22.6983 60.2719 22.2433C60.411 21.8777 60.5948 21.5306 60.819 21.21C61.0995 20.8758 61.4411 20.598 61.8255 20.3914C62.1846 20.1715 62.5547 19.97 62.9343 19.7877C63.1955 19.6692 63.6539 19.4757 64.3094 19.2072C64.3472 19.1883 64.374 19.1767 64.3936 19.1694V18.3712C64.4264 17.852 64.3523 17.3316 64.1759 16.8422C64.0894 16.686 63.9581 16.5593 63.7988 16.4785C63.6396 16.3976 63.4598 16.3664 63.2826 16.3887C62.5086 16.3887 62.1216 16.9126 62.1216 17.9605V18.512L60.0897 18.4394C60.0897 18.3277 60.0955 18.1905 60.1086 18.028C60.0867 17.1326 60.4195 16.2648 61.0345 15.6137C61.7058 15.0698 62.5577 14.7995 63.4198 14.8568C63.8459 14.8165 64.2756 14.8739 64.6761 15.0248C65.0767 15.1757 65.4375 15.4161 65.731 15.7276C66.2603 16.4994 66.5109 17.4285 66.4414 18.3618V23.4233C66.4451 24.3122 66.5079 25.2 66.6294 26.0806H64.7572C64.6389 25.5399 64.5484 24.9935 64.4858 24.4435C64.3372 24.9306 64.0617 25.3694 63.6875 25.7149C63.2929 26.0731 62.7739 26.2629 62.2413 26.2439ZM63.0555 24.466C63.3413 24.4567 63.6147 24.347 63.8276 24.1562C64.0481 23.9856 64.2392 23.7802 64.3936 23.5481V20.4125C63.8975 20.6753 63.4221 20.9754 62.9713 21.3101C62.6972 21.509 62.4733 21.769 62.3174 22.0696C62.1614 22.3702 62.0777 22.703 62.073 23.0416C62.0519 23.4082 62.1401 23.7728 62.3262 24.0894C62.4043 24.2104 62.5128 24.3088 62.6407 24.3748C62.7686 24.4409 62.9116 24.4723 63.0555 24.466Z" fill="white"/>
<path d="M69.0718 26.0841V16.5322H67.7344V15.0084H69.0718V14.438C69.0718 13.9881 69.0877 13.6086 69.1189 13.2965C69.1494 12.9877 69.2152 12.6833 69.3149 12.3895C69.3961 12.1276 69.5355 11.8874 69.7227 11.687C69.9186 11.4973 70.1555 11.3551 70.415 11.2712C70.7543 11.16 71.1102 11.1075 71.4672 11.1159C71.9117 11.1241 72.3554 11.1585 72.7959 11.219V12.7537C72.2966 12.6913 72.0441 12.6601 72.0383 12.6601C71.8936 12.6409 71.7465 12.6637 71.6144 12.7258C71.4824 12.788 71.3711 12.8869 71.2937 13.0106C71.1524 13.3494 71.0898 13.7159 71.1109 14.0824V15.0076H72.8046V16.5315H71.1109V26.0841H69.0718Z" fill="white"/>
<path d="M73.9639 26.085V15.0071H76.0124V16.589C76.2968 16.059 76.6987 15.6011 77.1872 15.2502C77.5669 15.0015 78.0106 14.8684 78.4644 14.8671C78.5767 14.8664 78.6889 14.8727 78.8004 14.8859V17.1485C78.4424 17.0086 78.0621 16.9348 77.6778 16.9308C77.3618 16.9235 77.0497 17.0022 76.7751 17.1587C76.4597 17.3713 76.1985 17.6549 76.0124 17.9867V26.085H73.9639Z" fill="white"/>
<path d="M80.2041 13.3703V11.218H82.2628V13.3703H80.2041ZM80.2041 26.0853V15.0074H82.2534V26.0853H80.2041Z" fill="white"/>
<path d="M84.6299 26.0851V10.5726H90.6362V12.1691H86.7902V17.2966H89.9149V18.8401H86.7902V24.5278H90.6819V26.0814L84.6299 26.0851Z" fill="white"/>
<path d="M94.3976 26.2443C93.9959 26.2616 93.5949 26.1953 93.2202 26.0495C92.8454 25.9038 92.5051 25.6817 92.2206 25.3975C91.6444 24.7781 91.3079 23.9735 91.2715 23.1283L92.9833 22.6138C93.0147 23.176 93.178 23.7229 93.4601 24.2103C93.5708 24.3774 93.7228 24.5131 93.9015 24.604C94.0802 24.6949 94.2794 24.738 94.4796 24.7291C94.6465 24.7351 94.8127 24.7058 94.9674 24.6433C95.1222 24.5808 95.2621 24.4864 95.378 24.3663C95.4928 24.2455 95.5805 24.1016 95.6352 23.9441C95.6899 23.7867 95.7103 23.6194 95.6951 23.4534C95.6607 23.1466 95.5632 22.8503 95.4087 22.5831C95.2543 22.3158 95.0461 22.0834 94.7975 21.9005L92.9108 20.2823C92.5008 19.948 92.1526 19.5444 91.8818 19.09C91.6328 18.6267 91.5163 18.1037 91.5451 17.5785C91.5344 17.2065 91.5996 16.8363 91.7369 16.4904C91.8741 16.1446 92.0805 15.8303 92.3433 15.5669C92.9135 15.0698 93.6553 14.8149 94.4107 14.8565C94.7805 14.8384 95.1498 14.9024 95.4919 15.044C95.834 15.1855 96.1406 15.401 96.3896 15.6751C96.8898 16.2616 97.1837 16.996 97.2263 17.7657L95.8424 18.2809C95.8001 17.7802 95.6533 17.294 95.4114 16.8535C95.3159 16.6956 95.1793 16.5665 95.0163 16.48C94.8532 16.3935 94.6698 16.3528 94.4854 16.3623C94.3359 16.3565 94.1869 16.3827 94.0483 16.439C93.9096 16.4953 93.7846 16.5804 93.6814 16.6888C93.5798 16.7959 93.5009 16.9223 93.4494 17.0606C93.3979 17.1989 93.3749 17.3462 93.3817 17.4936C93.3849 17.7098 93.4361 17.9227 93.5314 18.1168C93.6268 18.3109 93.764 18.4814 93.9332 18.6162L95.8983 20.4129C96.3504 20.7961 96.7402 21.2473 97.0536 21.7503C97.3415 22.2537 97.4854 22.8266 97.4694 23.4062C97.4958 23.7972 97.4353 24.1892 97.2921 24.5539C97.149 24.9187 96.9267 25.2472 96.6414 25.5157C96.0099 26.0288 95.2101 26.2885 94.3976 26.2443Z" fill="white"/>
<path d="M101.937 26.2441C101.604 26.2759 101.267 26.2327 100.952 26.1177C100.637 26.0027 100.352 25.8188 100.117 25.5794C99.7043 25.0033 99.5012 24.3031 99.5419 23.5954V16.3729H98.3809V15.0072H99.5419V11.7795H101.59V15.0072H103.368V16.3729H101.59V23.4553C101.561 23.7817 101.635 24.1091 101.801 24.3914C101.905 24.4938 102.031 24.5713 102.169 24.6183C102.307 24.6653 102.454 24.6805 102.599 24.6628C102.852 24.6653 103.106 24.6495 103.357 24.6157V26.1316C102.886 26.1968 102.412 26.2344 101.937 26.2441Z" fill="white"/>
<path d="M106.878 26.2439C106.571 26.2459 106.268 26.1763 105.993 26.0405C105.717 25.9046 105.478 25.7064 105.293 25.4616C104.872 24.9601 104.645 24.325 104.652 23.6707C104.645 23.1828 104.732 22.6982 104.909 22.2433C105.047 21.8775 105.231 21.5304 105.456 21.21C105.735 20.8754 106.077 20.5975 106.461 20.3914C106.82 20.1715 107.19 19.97 107.57 19.7877C107.831 19.6692 108.29 19.4757 108.945 19.2072C108.982 19.1883 109.011 19.1767 109.029 19.1694V18.3712C109.062 17.852 108.988 17.3315 108.811 16.8422C108.725 16.686 108.593 16.5593 108.434 16.4785C108.275 16.3976 108.095 16.3664 107.918 16.3887C107.144 16.3887 106.757 16.9126 106.757 17.9605V18.512L104.725 18.4394C104.725 18.3277 104.731 18.1905 104.744 18.028C104.721 17.1326 105.054 16.2647 105.669 15.6137C106.341 15.0696 107.193 14.7993 108.056 14.8568C108.482 14.8165 108.911 14.8739 109.312 15.0248C109.712 15.1757 110.073 15.4161 110.366 15.7276C110.896 16.4992 111.147 17.4283 111.078 18.3618V23.4233C111.082 24.3122 111.145 25.1999 111.265 26.0806H109.395C109.276 25.54 109.185 24.9935 109.123 24.4435C108.975 24.9306 108.699 25.3694 108.325 25.7149C107.93 26.0733 107.411 26.2632 106.878 26.2439ZM107.692 24.466C107.978 24.4565 108.251 24.3468 108.464 24.1562C108.684 23.9858 108.876 23.7804 109.03 23.5481V20.4125C108.534 20.6753 108.058 20.9754 107.607 21.3101C107.333 21.5091 107.11 21.7691 106.954 22.0697C106.798 22.3703 106.714 22.703 106.71 23.0416C106.688 23.4081 106.776 23.7728 106.962 24.0894C107.041 24.2103 107.149 24.3086 107.277 24.3746C107.405 24.4407 107.548 24.4722 107.692 24.466Z" fill="white"/>
<path d="M115.831 26.2441C115.497 26.2759 115.161 26.2327 114.846 26.1177C114.531 26.0027 114.246 25.8188 114.011 25.5794C113.598 25.0033 113.395 24.3031 113.435 23.5954V16.3729H112.274V15.0072H113.435V11.7795H115.484V15.0072H117.262V16.3729H115.484V23.4553C115.455 23.7817 115.528 24.109 115.694 24.3914C115.799 24.4938 115.924 24.5713 116.063 24.6183C116.201 24.6653 116.348 24.6805 116.493 24.6628C116.746 24.6653 116.999 24.6495 117.25 24.6157V26.1316C116.78 26.1968 116.306 26.2344 115.831 26.2441Z" fill="white"/>
<path d="M121.857 26.2441C121.304 26.261 120.754 26.167 120.238 25.9676C119.821 25.7944 119.469 25.4931 119.233 25.107C118.981 24.6869 118.809 24.2236 118.725 23.7406C118.62 23.1055 118.571 22.4621 118.58 21.8183V19.2828C118.57 18.6323 118.622 17.9824 118.736 17.3417C118.822 16.8581 118.998 16.3949 119.254 15.976C119.493 15.5956 119.845 15.2994 120.261 15.1292C120.766 14.9341 121.305 14.8419 121.846 14.8578C122.199 14.8535 122.551 14.891 122.895 14.9695C123.172 15.0334 123.438 15.1375 123.685 15.2787C123.909 15.4122 124.102 15.5924 124.251 15.8069C124.404 16.0252 124.532 16.261 124.629 16.5094C124.738 16.7996 124.815 17.1005 124.859 17.407C124.915 17.7556 124.952 18.1068 124.971 18.4592C124.99 18.8085 124.999 19.2173 124.999 19.6856L124.989 20.584H120.631V22.1804C120.631 22.4917 120.631 22.7225 120.635 22.8727C120.64 23.0229 120.651 23.2174 120.672 23.4568C120.683 23.6403 120.719 23.8214 120.78 23.9946C120.837 24.1255 120.906 24.2508 120.986 24.369C121.068 24.4947 121.187 24.5911 121.328 24.644C121.491 24.7004 121.663 24.7272 121.836 24.7231C122.014 24.7432 122.194 24.7111 122.354 24.6307C122.514 24.5504 122.648 24.4251 122.738 24.2703C122.922 23.8377 123.003 23.3687 122.976 22.8995V22.2268H124.978V22.6622C124.98 25.0497 123.94 26.2436 121.857 26.2441ZM120.631 19.4693H122.979V18.4679C122.979 18.1748 122.971 17.9285 122.955 17.7292C122.941 17.5334 122.909 17.3392 122.862 17.1487C122.828 16.9907 122.764 16.8411 122.671 16.7089C122.583 16.598 122.467 16.5116 122.336 16.4579C122.175 16.3913 122.002 16.3594 121.828 16.3642C121.633 16.34 121.435 16.3774 121.262 16.4712C121.089 16.565 120.95 16.7106 120.864 16.8874C120.668 17.5294 120.589 18.2015 120.631 18.8714V19.4693Z" fill="white"/>
<path d="M34.3665 23.5041V26.943C20.7125 29.432 8.85305 37.5551 8.85305 37.5551L7.20217 34.4848C13.792 30.6601 20.7865 27.5796 28.0569 25.3001C30.8021 24.4243 33.0023 23.8394 34.3665 23.5041ZM34.3665 20.3323C31.7953 20.6438 29.2586 21.1938 26.7892 21.9752C25.1637 22.4693 23.5665 23.0499 22.0151 23.6689C16.3836 25.9569 10.9883 28.7878 5.90542 32.1213L4.0129 29.8754C8.38333 26.8673 13.0452 24.3064 17.9282 22.2313C19.3882 21.6116 20.7989 21.0659 22.137 20.5884C24.2566 19.8265 26.2123 19.2351 27.9423 18.7743C30.0571 18.2072 32.2012 17.7557 34.3651 17.4217V20.3315L34.3665 20.3323ZM34.3665 11.2144C32.2413 11.4373 30.1307 11.7828 28.0453 12.2491C26.2609 12.6475 24.232 13.1751 22.0143 13.8862C20.7183 14.3013 19.3541 14.7788 17.9332 15.3245C16.5748 15.8477 15.1656 16.4384 13.7164 17.1038C12.5967 17.6118 11.448 18.1727 10.2884 18.7728C6.70316 20.6371 3.2639 22.7696 0 25.1521L2.12618 27.636C5.72009 24.8294 9.60767 22.4207 13.7208 20.452C14.8695 19.8838 16.0908 19.32 17.3817 18.783C18.8766 18.1466 20.4622 17.5327 22.1275 16.9645C23.6115 16.4645 25.1572 15.9986 26.7652 15.5857C29.2649 14.9351 31.8036 14.4453 34.3658 14.1192L34.5356 14.1025C34.4841 14.0858 34.4275 14.0742 34.3658 14.0568L34.3665 11.2144Z" fill="white"/>
<path d="M34.3665 10.6062V14.051C33.0023 13.7157 30.7963 13.1301 28.0453 12.2491C20.7792 9.97034 13.7886 6.8916 7.20217 3.06954L8.85305 0C8.85305 0 20.7125 8.11723 34.3665 10.6062ZM26.766 15.5806C25.1521 15.0807 23.5542 14.5059 22.0143 13.8862C16.3827 11.5975 10.9878 8.76492 5.90615 5.42866L4.0129 7.67385C8.38509 10.6838 13.0486 13.2469 17.9332 15.3245C19.3882 15.9442 20.7931 16.4899 22.1283 16.9616C24.2545 17.7235 26.2159 18.3149 27.9437 18.7757C30.0584 19.3434 32.2026 19.7951 34.3665 20.1291V17.2264C31.7876 16.914 29.2432 16.363 26.766 15.5806ZM34.3665 23.4388C31.8118 23.1167 29.2806 22.6287 26.7892 21.9781C25.1811 21.5688 23.6289 21.0971 22.1406 20.5913C20.4716 20.0282 18.8751 19.4143 17.3832 18.7837C16.0864 18.2322 14.8644 17.6698 13.7171 17.1074C9.6071 15.1357 5.7213 12.7271 2.12691 9.9234L0 12.3972C3.26234 14.7814 6.70178 16.9133 10.2884 18.7743C11.4538 19.3831 12.6025 19.9397 13.7215 20.4513C15.1656 21.1167 16.5755 21.7016 17.9303 22.2306C19.3507 22.7763 20.7128 23.2557 22.0165 23.6689C24.2385 24.3785 26.274 24.9076 28.0591 25.3001C30.1395 25.772 32.2465 26.1174 34.3687 26.3342V23.5041C34.4369 23.4867 34.4993 23.4693 34.5559 23.4584C34.4913 23.4526 34.4289 23.4388 34.3665 23.4388Z" fill="white"/>
<path d="M34.536 14.0964L34.3662 14.1131V14.0507C34.4293 14.0674 34.4852 14.079 34.536 14.0964Z" fill="white"/>
<path d="M34.3662 23.436C34.4286 23.4411 34.491 23.4527 34.5534 23.4585C34.4968 23.4694 34.4344 23.4861 34.3662 23.5042V23.436Z" fill="white"/>
<path d="M34.3662 20.332V20.1274" stroke="white"/>
</g>
<defs>
<clipPath id="clip0">
<rect width="125" height="37.5551" fill="white"/>
</clipPath>
</defs>
</svg>
