<svg width="100" height="53" viewBox="0 0 100 53" fill="none" xmlns="http://www.w3.org/2000/svg">
<g clip-path="url(#clip0)">
<path d="M34.871 8.40906C35.6164 8.246 36.3617 8.08295 37.1071 7.94318C40.6798 7.22996 44.3197 6.90971 47.962 6.98814C51.914 7.05361 55.8361 7.68507 59.6089 8.86329C60.4358 9.13116 60.4358 9.13116 60.6571 9.94644C62.0703 14.9624 63.4679 19.9666 64.85 24.9593C64.8919 25.0845 64.9231 25.2131 64.9432 25.3436H64.8733C64.8453 25.2815 64.8101 25.2228 64.7685 25.1689C62.4475 22.2177 59.672 19.6544 56.5458 17.5751C52.9072 15.1313 48.9991 13.1147 44.8989 11.5654C41.7471 10.3548 38.5223 9.34336 35.2436 8.53717L34.8477 8.43235L34.871 8.40906Z" fill="white"/>
<path d="M27.8239 16.5036C27.4842 15.8303 27.3314 15.0782 27.3813 14.3257C27.4407 13.7549 27.6842 13.219 28.075 12.7987C28.4658 12.3785 28.9827 12.0969 29.5476 11.9963C29.9064 11.8894 30.2847 11.8655 30.6541 11.9264L30.2348 12.3108C29.8505 12.6718 29.4428 13.0212 29.0701 13.4755C28.7627 13.788 28.5804 14.2023 28.5577 14.6401C28.5477 14.7992 28.5477 14.9586 28.5577 15.1177L28.8838 15.0245C29.4545 14.8032 30.0485 14.5819 30.5959 14.3373C32.601 13.5169 34.7542 13.1204 36.9201 13.1726C39.6205 13.2455 42.2928 13.7406 44.84 14.6401C48.8319 15.9889 52.6361 17.8401 56.1607 20.1491C58.3503 21.5584 60.4468 23.0841 62.5199 24.6565C62.8693 24.9243 63.2071 25.2271 63.6846 25.5766H63.2537C58.7347 25.5766 54.2041 25.5766 49.6734 25.5766C49.4502 25.5742 49.2302 25.523 49.029 25.4264C48.8277 25.3298 48.6502 25.1902 48.5087 25.0175L48.2758 24.7263C45.3352 20.4082 40.9756 17.2558 35.9534 15.8165C34.8615 15.4688 33.7438 15.2079 32.6108 15.0361C31.781 14.8723 30.9238 14.9117 30.1126 15.151C29.3013 15.3904 28.56 15.8225 27.952 16.4105L27.8239 16.5036Z" fill="white"/>
<path d="M74.7728 52.8185L73.1539 51.8751C73.1511 51.8169 73.1511 51.7586 73.1539 51.7004C73.9736 50.1361 74.5472 48.4547 74.8544 46.7156C75.2696 44.5246 75.4299 42.293 75.3319 40.0652C75.3169 39.1474 75.1838 38.2353 74.9359 37.3515C74.8215 36.987 74.6773 36.6325 74.505 36.2916C74.2507 35.875 73.8972 35.5277 73.4761 35.2808C73.0551 35.0339 72.5794 34.8951 72.0917 34.8766C71.6039 34.8582 71.1191 34.9607 70.6806 35.1751C70.2421 35.3895 69.8634 35.709 69.5784 36.1053C69.2117 36.7019 68.959 37.3614 68.8329 38.0503C68.6818 38.8173 68.6116 39.598 68.6233 40.3797C68.6233 41.358 68.6233 42.348 68.6233 43.3263C68.6233 43.4311 68.6233 43.536 68.6233 43.6874H73.3752V45.5392C71.8029 45.5392 70.2189 45.5392 68.6 45.5392V49.3943H64.2208C64.2208 49.2546 64.2208 49.1381 64.2208 49.0216V41.1251C64.2152 39.8491 64.4812 38.5866 65.0011 37.4214C65.611 36.0403 66.6283 34.8785 67.9168 34.0917C69.2052 33.3049 70.7034 32.9305 72.2105 33.0188C73.3421 33.0414 74.4521 33.3331 75.4485 33.8698C76.445 34.4065 77.2993 35.1728 77.9408 36.1053C79.027 37.6001 79.625 39.394 79.6529 41.2415C79.6888 43.7555 79.1048 46.2396 77.9524 48.4742C77.257 49.9663 76.3072 51.326 75.1455 52.4924C75.0291 52.5856 74.901 52.6904 74.7728 52.8185Z" fill="white"/>
<path d="M0 49.371V33.3798H0.384347C2.65549 33.3798 4.92662 33.3798 7.19776 33.3798C8.4057 33.3666 9.60245 33.6124 10.7074 34.1006C11.8124 34.5888 12.7999 35.3081 13.6035 36.21C14.3536 37.0629 14.9091 38.0687 15.2314 39.1578C15.5537 40.2469 15.6351 41.3931 15.47 42.5168C15.3049 43.6405 14.8972 44.7148 14.2752 45.6651C13.6532 46.6154 12.8319 47.4189 11.8682 48.02C10.5129 48.9149 8.92664 49.3964 7.30259 49.4059C4.97321 49.4059 2.64384 49.4059 0.314465 49.4059L0 49.371ZM4.42581 47.8336C5.11253 47.8687 5.80059 47.8687 6.48731 47.8336C7.19379 47.7473 7.87111 47.5003 8.46727 47.1115C9.51087 46.4301 10.2754 45.397 10.6219 44.1998C11.2158 42.3637 11.2158 40.3871 10.6219 38.551C10.4376 37.8977 10.1241 37.2879 9.69999 36.7577C9.27589 36.2276 8.74979 35.7879 8.15281 35.4646C7.43122 35.0931 6.63481 34.89 5.82343 34.8706C5.38085 34.8706 4.92662 34.8706 4.4724 34.8706L4.42581 47.8336Z" fill="white"/>
<path d="M27.7546 39.2965C27.871 39.0868 27.9642 38.9354 28.0574 38.7957L29.2221 36.7808C29.2609 36.6955 29.3258 36.6247 29.4074 36.5786C29.4891 36.5326 29.5832 36.5136 29.6763 36.5245C30.0373 36.5245 30.41 36.5245 30.7594 36.5245C30.8526 36.8623 30.8643 48.8469 30.7594 49.3361H27.114V47.9501C27.0186 48.0205 26.929 48.0984 26.8461 48.183C26.4602 48.6289 25.9851 48.9888 25.4515 49.2395C24.9178 49.4903 24.3375 49.6264 23.748 49.6389C22.7974 49.7073 21.844 49.5518 20.9644 49.1847C20.2587 48.8985 19.6183 48.4724 19.0818 47.9319C18.5454 47.3914 18.124 46.7478 17.8431 46.04C17.4253 45.0606 17.21 44.0068 17.21 42.942C17.21 41.8771 17.4253 40.8233 17.8431 39.8439C18.3346 38.626 19.2234 37.6101 20.3651 36.961C21.5068 36.3119 22.8344 36.0678 24.1324 36.2683C24.8839 36.3556 25.6002 36.6352 26.2122 37.0799C26.8242 37.5246 27.3113 38.1196 27.6264 38.8073C27.6264 38.8772 27.6847 38.9587 27.7196 39.0286L27.7546 39.2965ZM20.9644 43.1749C20.9644 43.5243 21.0343 44.1183 21.1275 44.7006C21.2248 45.4606 21.5002 46.1869 21.9311 46.8204C22.1517 47.1356 22.4436 47.3944 22.783 47.5756C23.1225 47.7569 23.4999 47.8555 23.8846 47.8634C24.2693 47.8714 24.6504 47.7884 24.997 47.6213C25.3437 47.4543 25.646 47.2078 25.8794 46.9019C26.247 46.4076 26.5232 45.8514 26.6947 45.2597C27.0857 43.9163 27.1535 42.4996 26.8927 41.125C26.7862 40.5028 26.5818 39.9013 26.2871 39.3431C26.0622 38.9378 25.7331 38.6001 25.3337 38.365C24.9343 38.1298 24.4794 38.0058 24.0159 38.0058C23.5525 38.0058 23.0975 38.1298 22.6981 38.365C22.2988 38.6001 21.9696 38.9378 21.7448 39.3431C21.5843 39.6327 21.4517 39.9369 21.3488 40.2515C21.0744 41.2011 20.9448 42.1867 20.9644 43.1749Z" fill="white"/>
<path d="M62.2055 1.05997L61.9259 1.37443C60.6448 2.66724 59.352 3.94839 58.0825 5.25284C58.0009 5.34084 57.8981 5.40635 57.7838 5.44307C57.6696 5.47979 57.5478 5.48647 57.4303 5.46248C55.823 5.24119 54.2274 5.00826 52.6317 4.8452C50.9017 4.67843 49.1631 4.6162 47.4256 4.65885C44.9767 4.71657 42.5373 4.98545 40.1347 5.46248C36.6788 6.14532 33.3531 7.37182 30.2814 9.09631C30.1955 9.15498 30.0943 9.18736 29.9902 9.18948L30.2348 8.93325C34.0239 5.3368 38.6274 2.71133 43.652 1.28126C47.0788 0.315212 50.634 -0.116913 54.1924 0.000104077C56.7617 0.092467 59.3182 0.408122 61.8328 0.9435L62.2055 1.05997Z" fill="white"/>
<path d="M38.8767 36.513H42.7319V38.0038H38.8534V49.3711H35.0799V38.0271H32.7505C32.6923 37.5146 32.7505 37.0487 32.7505 36.5595C33.1377 36.5196 33.528 36.5196 33.9152 36.5595C34.2995 36.5595 34.6722 36.5595 35.0799 36.5595C35.0799 36.0005 35.1497 35.488 35.208 34.9756C35.2681 34.3217 35.417 33.6791 35.6506 33.0655C35.8914 32.3471 36.3122 31.7023 36.8729 31.1926C37.4336 30.6829 38.1154 30.3253 38.8534 30.1538C40.5545 29.6994 42.3481 29.7236 44.0363 30.2236C44.7761 30.443 45.465 30.8072 46.0629 31.2952L43.9664 34.7892C43.8732 34.3583 43.8267 34.0322 43.7335 33.7061C43.6107 33.169 43.3405 32.6769 42.9531 32.2851C42.5837 31.9452 42.1199 31.7254 41.6229 31.6547C41.1259 31.584 40.6191 31.6658 40.1695 31.8891C39.7799 32.1043 39.485 32.4575 39.3426 32.8791C39.2056 33.2579 39.1004 33.6475 39.0281 34.0438C38.9662 34.488 38.9274 34.935 38.9117 35.3832C38.8651 35.7326 38.8767 36.1053 38.8767 36.513Z" fill="white"/>
<path d="M53.5751 41.16L53.2024 40.1351C52.9779 39.4489 52.5761 38.8342 52.0377 38.3531C51.7261 38.0996 51.3324 37.969 50.9311 37.9862C50.5297 38.0034 50.1486 38.167 49.8598 38.4463C49.6344 38.6646 49.4491 38.9209 49.3124 39.2033C49.1028 39.6476 48.9389 40.1119 48.8232 40.5893C48.6384 41.3753 48.5523 42.1813 48.567 42.9886V49.371H44.7002V36.5595H45.9813C46.1677 36.5595 46.2026 36.7109 46.2609 36.8274L47.4256 39.0869L47.6469 39.4945L47.8216 39.215C48.1086 38.7012 48.4236 38.2035 48.765 37.7242C49.1245 37.2746 49.5797 36.9106 50.0975 36.6588C50.6152 36.407 51.1825 36.2736 51.7582 36.2683C52.7063 36.2115 53.654 36.3874 54.5185 36.7808C54.9984 36.9553 55.4076 37.2827 55.6832 37.7125L53.5751 41.16Z" fill="white"/>
<path d="M100 37.6892C99.3247 38.8539 98.6492 39.9487 97.9271 41.1833L97.8339 40.8572C97.6126 40.3447 97.403 39.8206 97.17 39.3198C96.9778 38.9381 96.6986 38.607 96.3548 38.3531C96.0421 38.1019 95.6489 37.9729 95.2482 37.9901C94.8476 38.0072 94.4668 38.1693 94.1768 38.4463C93.8229 38.795 93.5556 39.2218 93.3965 39.6925C93.0924 40.5172 92.9309 41.3876 92.9189 42.2664C92.9189 43.6291 92.9189 44.9918 92.9189 46.3661V48.9168C92.9189 49.0449 92.9189 49.1847 92.9189 49.3361H89.1453C89.0638 49.0333 89.0405 37.1069 89.1453 36.5245C89.5646 36.5245 89.9956 36.5245 90.4265 36.5245C90.5197 36.5245 90.6361 36.6876 90.6827 36.7924C91.0787 37.5262 91.4514 38.2716 91.8474 39.017L92.092 39.4479C92.1735 39.2848 92.2318 39.1684 92.3016 39.0519C92.5369 38.6215 92.7975 38.2053 93.082 37.8057C93.4476 37.306 93.9263 36.8999 94.4789 36.6205C95.0315 36.3412 95.6424 36.1965 96.2616 36.1984C97.1958 36.1592 98.126 36.3428 98.9753 36.7342C99.4148 36.928 99.776 37.2645 100 37.6892Z" fill="white"/>
<path d="M57.2324 36.5712H60.9711V49.3828C59.726 49.4596 58.4775 49.4596 57.2324 49.3828V36.5712Z" fill="white"/>
<path d="M45.8656 23.6431L44.4564 23.8877C43.0427 24.1418 41.6054 24.2394 40.1703 24.1789C39.8093 24.1789 39.4366 24.109 39.0755 24.0508C38.35 23.9192 37.6576 23.6457 37.0381 23.246C36.4185 22.8463 35.8839 22.3282 35.465 21.7214C35.3485 21.57 35.2321 21.4186 35.1272 21.2555C34.6484 20.4939 33.9996 19.8535 33.2317 19.3847C32.4638 18.9159 31.5977 18.6313 30.7014 18.5534C29.8168 18.4499 28.9595 18.1813 28.1741 17.7615L27.9528 17.5984C27.9528 17.5984 27.9528 17.5984 27.8945 17.4936C28.3406 17.3783 28.7971 17.3081 29.2572 17.2839C32.3399 17.0962 35.4237 17.6347 38.2602 18.8563C40.9707 20.0052 43.4948 21.5518 45.7492 23.4451L45.8889 23.5383L45.8656 23.6431Z" fill="white"/>
<path d="M85.8841 49.3711H82.1455V36.6178C83.3902 36.5299 84.6395 36.5299 85.8841 36.6178V49.3711Z" fill="white"/>
<path d="M61.1698 33.4148C61.1306 33.9363 60.8958 34.4237 60.5124 34.7794C60.1291 35.135 59.6254 35.3327 59.1025 35.3327C58.5795 35.3327 58.0759 35.135 57.6925 34.7794C57.3091 34.4237 57.0743 33.9363 57.0352 33.4148C57.0743 32.8933 57.3091 32.4059 57.6925 32.0502C58.0759 31.6946 58.5795 31.4969 59.1025 31.4969C59.6254 31.4969 60.1291 31.6946 60.5124 32.0502C60.8958 32.4059 61.1306 32.8933 61.1698 33.4148Z" fill="white"/>
<path d="M84.0205 31.3766C84.4287 31.3766 84.8278 31.4978 85.167 31.7248C85.5063 31.9519 85.7705 32.2745 85.9262 32.6519C86.0819 33.0293 86.122 33.4444 86.0415 33.8446C85.961 34.2448 85.7635 34.6121 85.474 34.8999C85.1846 35.1878 84.8162 35.3832 84.4155 35.4614C84.0149 35.5396 83.6 35.4971 83.2235 35.3393C82.847 35.1815 82.5259 34.9155 82.3008 34.5749C82.0756 34.2344 81.9567 33.8347 81.959 33.4264C81.9575 33.1558 82.0098 32.8876 82.113 32.6375C82.2162 32.3873 82.3682 32.1602 82.56 31.9694C82.7519 31.7786 82.9799 31.6279 83.2307 31.5261C83.4814 31.4243 83.7499 31.3735 84.0205 31.3766Z" fill="white"/>
<path d="M32.2148 10.9598L38.1547 9.88824V9.95813C38.0265 10.0349 37.8943 10.1049 37.7587 10.1678C37.2139 10.4178 36.7141 10.7563 36.2796 11.1694C35.7418 11.6747 35.0317 11.9559 34.2938 11.9559C33.5559 11.9559 32.8458 11.6747 32.308 11.1694C32.2686 11.1035 32.2374 11.0331 32.2148 10.9598Z" fill="white"/>
</g>
<defs>
<clipPath id="clip0">
<rect width="100" height="52.8185" fill="white"/>
</clipPath>
</defs>
</svg>
