<svg width="110" height="28" viewBox="0 0 110 28" fill="none" xmlns="http://www.w3.org/2000/svg">
<g clip-path="url(#clip0)">
<path d="M0 27.2603C0.263203 25.6904 0.517006 24.2052 0.770808 22.7294C1.44762 18.7939 2.13069 14.8647 2.82003 10.9417C2.88583 10.5751 3.00803 10.4435 3.37464 10.4435H26.7339C26.8636 10.453 26.9923 10.4719 27.1193 10.4999C26.8091 12.2765 26.5177 14.0249 26.1793 15.7733C25.8409 17.5218 25.6059 19.4206 25.2393 21.2254C24.8751 22.9186 23.9466 24.4379 22.606 25.5343C21.2653 26.6308 19.592 27.2393 17.8602 27.2603H0Z" fill="white"/>
<path d="M3.28027 8.15937C3.49648 6.84335 3.70328 5.58374 3.91948 4.32412C4.13568 3.06451 4.37069 1.8425 4.54929 0.564081C4.62449 0.150477 4.78429 7.48679e-05 5.24489 7.48679e-05C11.0542 7.48679e-05 16.9198 7.48679e-05 22.6915 7.48679e-05C23.4387 -0.027465 24.1827 0.111025 24.87 0.405574C25.5572 0.700122 26.1706 1.1434 26.666 1.70349C27.1613 2.26357 27.5263 2.92654 27.7347 3.64463C27.943 4.36273 27.9896 5.1181 27.8709 5.85634C27.7863 6.60835 27.6453 7.36036 27.5231 8.14056L3.28027 8.15937Z" fill="white"/>
<path d="M31.5186 21.1596V7.86786C31.6645 7.83999 31.8121 7.82115 31.9604 7.81146C33.9156 7.81146 35.8896 7.72686 37.826 7.91486C39.3315 8.01943 40.7415 8.69035 41.7723 9.7926C42.803 10.8949 43.378 12.3466 43.3815 13.8557C43.428 14.9307 43.288 16.0057 42.9679 17.033C42.6507 18.0798 42.0389 19.0133 41.2054 19.7217C40.3719 20.4302 39.3521 20.8837 38.2678 21.028C37.8683 21.1062 37.4623 21.1471 37.0552 21.1502C35.1846 21.169 33.3892 21.1596 31.5186 21.1596ZM34.0284 18.7344C34.9684 18.7344 35.7956 18.7344 36.651 18.7344C37.2 18.7795 37.7524 18.7084 38.272 18.5257C38.7917 18.343 39.2671 18.0529 39.6671 17.6742C40.0671 17.2954 40.3828 16.8367 40.5936 16.3277C40.8044 15.8188 40.9055 15.2712 40.8905 14.7205C41.0252 13.705 40.756 12.6771 40.1407 11.8579C39.5255 11.0387 38.6133 10.4937 37.6004 10.3401C36.4081 10.2552 35.2113 10.2552 34.019 10.3401L34.0284 18.7344Z" fill="white"/>
<path d="M77.0811 7.85842C79.4593 7.85842 81.7811 7.70802 84.0935 7.90542C84.7049 7.94598 85.3013 8.11219 85.8455 8.39367C86.3898 8.67515 86.8701 9.06585 87.2565 9.54135C87.6429 10.0169 87.9271 10.5669 88.0913 11.1572C88.2555 11.7475 88.2961 12.3653 88.2108 12.9721C88.1265 14.1505 87.5907 15.251 86.7152 16.0443C85.8396 16.8375 84.6918 17.2624 83.5107 17.2303C82.2229 17.2303 80.9445 17.2303 79.6097 17.2303V21.1032H77.0811V7.85842ZM79.5909 14.8709C81.0479 14.8709 82.4109 14.9555 83.7927 14.8709C84.3471 14.8139 84.8562 14.5395 85.2086 14.1079C85.561 13.6762 85.7279 13.1224 85.6728 12.5679C85.7089 11.9973 85.5175 11.4356 85.1405 11.0057C84.7635 10.5759 84.2316 10.3129 83.6611 10.2742C82.2981 10.1802 80.9257 10.2742 79.5251 10.2742L79.5909 14.8709Z" fill="white"/>
<path d="M96.7368 11.7784H98.88V21.1127H96.7462L96.6428 20.1727C95.9489 20.619 95.2081 20.9878 94.4337 21.2725C91.5291 22.0246 89.0945 20.1351 88.7937 16.9955C88.4177 13.3671 91.4163 10.688 94.7627 11.7032C95.4178 11.9563 96.0473 12.2711 96.6428 12.6432L96.7368 11.7784ZM96.5676 16.4785C96.5707 16.1193 96.503 15.763 96.3683 15.4299C96.2337 15.0968 96.0348 14.7936 95.783 14.5374C95.5312 14.2812 95.2313 14.0771 94.9007 13.9368C94.57 13.7965 94.2149 13.7226 93.8556 13.7196C93.4964 13.7165 93.1401 13.7842 92.807 13.9188C92.474 14.0534 92.1707 14.2523 91.9145 14.5041C91.6583 14.756 91.4542 15.0558 91.3139 15.3865C91.1736 15.7172 91.0998 16.0723 91.0967 16.4315C91.0936 16.7907 91.1613 17.147 91.2959 17.4801C91.4306 17.8131 91.6295 18.1164 91.8813 18.3726C92.1331 18.6288 92.4329 18.8329 92.7636 18.9732C93.0943 19.1135 93.4494 19.1873 93.8086 19.1904C94.1679 19.1935 94.5242 19.1258 94.8572 18.9912C95.1903 18.8566 95.4936 18.6577 95.7498 18.4059C96.006 18.154 96.21 17.8542 96.3504 17.5235C96.4907 17.1928 96.5645 16.8377 96.5676 16.4785Z" fill="white"/>
<path d="M54.6333 21.122H52.5089L52.3679 20.0222C50.1871 21.9022 47.4517 21.8552 45.7409 20.0222C44.9278 19.0076 44.4902 17.7432 44.5022 16.4431C44.5142 15.143 44.975 13.8869 45.8067 12.8875C46.6871 12.0353 47.862 11.5549 49.0873 11.5461C50.3126 11.5374 51.4942 12.0009 52.3867 12.8405L52.5371 11.7877H54.6803L54.6333 21.122ZM46.8595 16.4219C46.8595 17.1474 47.1477 17.8432 47.6607 18.3562C48.1736 18.8692 48.8694 19.1574 49.5949 19.1574C50.3204 19.1574 51.0161 18.8692 51.5291 18.3562C52.0421 17.8432 52.3303 17.1474 52.3303 16.4219C52.3303 15.6965 52.0421 15.0007 51.5291 14.4877C51.0161 13.9747 50.3204 13.6865 49.5949 13.6865C48.8694 13.6865 48.1736 13.9747 47.6607 14.4877C47.1477 15.0007 46.8595 15.6965 46.8595 16.4219Z" fill="white"/>
<path d="M101.737 25.0795C102.282 23.7917 102.809 22.6543 103.26 21.4793C103.372 21.1567 103.372 20.8055 103.26 20.4829C102.198 17.8038 101.107 15.1436 100.026 12.474C99.9415 12.2672 99.8663 12.0604 99.7441 11.7408C100.618 11.7408 101.417 11.7408 102.207 11.7408C102.357 11.7408 102.555 12.051 102.63 12.2484C103.25 14.0062 103.861 15.7734 104.51 17.5312C104.585 17.7568 104.67 17.9918 104.801 18.3396L105.234 17.2586C105.92 15.5666 106.606 13.884 107.274 12.1826C107.305 12.0303 107.394 11.896 107.522 11.8069C107.649 11.7178 107.806 11.6807 107.96 11.7032C108.618 11.7032 109.266 11.7032 110.028 11.7032C109.934 11.9664 109.868 12.1732 109.783 12.3706C108.054 16.3938 106.315 20.4171 104.604 24.4591C104.553 24.6598 104.427 24.8335 104.253 24.9452C104.078 25.0568 103.868 25.0981 103.664 25.0607C103.044 25.0513 102.461 25.0795 101.737 25.0795Z" fill="white"/>
<path d="M55.7236 13.9309V11.8911H57.4251C57.3405 10.0675 57.7823 8.46007 59.6623 7.83966C60.2873 7.62577 60.9543 7.56365 61.6081 7.65846C62.2619 7.75326 62.8838 8.00225 63.4223 8.38487L62.6045 10.0675C61.8149 9.73848 61.0253 9.31548 60.2545 9.94528C59.6717 10.4153 59.6999 11.1203 59.7657 11.8723C60.5083 11.8723 61.2227 11.8723 61.9371 11.8723C62.3883 11.8723 62.5387 12.0227 62.5105 12.4551C62.4823 12.8875 62.5105 13.3481 62.5105 13.8933H59.7563V21.1314H57.4721V13.9309H55.7236Z" fill="white"/>
<path d="M66.5907 12.5679C68.1982 11.2519 70.2192 11.1861 71.5258 12.4739L70.5858 14.2694C69.9718 14.0855 69.3426 13.9565 68.7058 13.8839C68.4187 13.8533 68.1284 13.8857 67.8551 13.9788C67.5819 14.072 67.3323 14.2236 67.1237 14.4232C66.9151 14.6229 66.7526 14.8656 66.6476 15.1345C66.5426 15.4034 66.4975 15.692 66.5156 15.9802C66.4686 17.4372 66.5156 18.9036 66.5156 20.37V21.169C65.8011 21.169 65.1713 21.169 64.5509 21.169C64.4667 21.1453 64.3902 21.0998 64.3291 21.0371C64.2681 20.9744 64.2246 20.8967 64.2031 20.8118C64.2031 17.8414 64.2031 14.8804 64.2031 11.7689C64.8287 11.7154 65.4576 11.7154 66.0831 11.7689C66.2429 11.8159 66.3839 12.2671 66.5907 12.5679Z" fill="white"/>
<path d="M74.7118 21.122H72.4746V11.7783H74.7118V21.122Z" fill="white"/>
<path d="M73.5932 10.4998C73.413 10.5115 73.2324 10.4858 73.0627 10.4242C72.893 10.3626 72.7378 10.2665 72.6071 10.1419C72.4764 10.0174 72.3729 9.86714 72.3032 9.70061C72.2335 9.53407 72.199 9.3549 72.202 9.17438C72.1863 8.98523 72.21 8.79489 72.2716 8.61538C72.3332 8.43586 72.4314 8.27108 72.5599 8.13144C72.6884 7.99179 72.8446 7.88033 73.0184 7.80409C73.1922 7.72784 73.3799 7.68848 73.5697 7.68848C73.7595 7.68848 73.9472 7.72784 74.121 7.80409C74.2948 7.88033 74.4509 7.99179 74.5795 8.13144C74.708 8.27108 74.8062 8.43586 74.8678 8.61538C74.9294 8.79489 74.9531 8.98523 74.9374 9.17438C74.9427 9.35149 74.9115 9.52779 74.8456 9.69227C74.7797 9.85674 74.6805 10.0058 74.5544 10.1303C74.4282 10.2547 74.2777 10.3517 74.1123 10.4153C73.9469 10.4789 73.7702 10.5076 73.5932 10.4998Z" fill="white"/>
</g>
<defs>
<clipPath id="clip0">
<rect width="110" height="27.2509" fill="white"/>
</clipPath>
</defs>
</svg>
