<svg width="125" height="20" viewBox="0 0 125 20" fill="none" xmlns="http://www.w3.org/2000/svg">
<rect width="125" height="20" fill="#E5E5E5"/>
<g clip-path="url(#clip0)">
<rect width="1440" height="6086" transform="translate(-112 -1499)" fill="white"/>
<path d="M-112 -1354H1328V54.9895L1420 885C1420 885 904 613 522 875C140 1137 -112 649 -112 649V54.9895V-1354Z" fill="#121214"/>
<rect x="-21" y="-49" width="166" height="118" rx="16" fill="#1B1B1E"/>
<path d="M29.6751 16.2978C29.6744 16.2932 29.6749 16.2885 29.6764 16.284C29.6779 16.2796 29.6804 16.2756 29.6837 16.2723C29.687 16.269 29.6911 16.2666 29.6955 16.2651C29.7 16.2637 29.7047 16.2633 29.7093 16.264H30.5701C30.7505 16.2572 30.929 16.3033 31.0835 16.3967C31.2226 16.4875 31.3246 16.6251 31.371 16.7847C31.4531 17.2051 31.4531 17.6375 31.371 18.0579C31.3242 18.2067 31.2319 18.3371 31.107 18.4305C30.9497 18.538 30.7611 18.5901 30.571 18.5786H29.7102C29.7056 18.5793 29.7008 18.5789 29.6964 18.5775C29.6919 18.576 29.6879 18.5736 29.6846 18.5703C29.6812 18.567 29.6787 18.563 29.6772 18.5585C29.6757 18.5541 29.6753 18.5494 29.676 18.5448L29.6751 16.2978ZM30.1962 18.1328H30.4576C30.6917 18.1328 30.8344 18.0472 30.8854 17.8761C30.9356 17.5741 30.9356 17.2659 30.8854 16.964C30.8336 16.7928 30.6903 16.7073 30.4576 16.7073H30.1962C30.1934 16.7068 30.1905 16.707 30.1878 16.7079C30.1851 16.7088 30.1827 16.7103 30.1807 16.7123C30.1787 16.7143 30.1772 16.7168 30.1763 16.7194C30.1754 16.7221 30.1752 16.725 30.1757 16.7278V18.1097C30.1747 18.1126 30.1745 18.1158 30.1752 18.1189C30.1758 18.1219 30.1773 18.1247 30.1793 18.1271C30.1814 18.1294 30.1841 18.1311 30.187 18.1321C30.19 18.1331 30.1931 18.1334 30.1962 18.1328Z" fill="white"/>
<path d="M33.3196 16.2976C33.319 16.2929 33.3194 16.2882 33.3209 16.2838C33.3224 16.2794 33.3249 16.2754 33.3282 16.2721C33.3316 16.2688 33.3356 16.2663 33.3401 16.2649C33.3445 16.2634 33.3492 16.2631 33.3539 16.2638H33.786C33.7906 16.2631 33.7953 16.2634 33.7998 16.2649C33.8042 16.2663 33.8083 16.2688 33.8116 16.2721C33.8149 16.2754 33.8174 16.2794 33.8189 16.2838C33.8204 16.2882 33.8208 16.2929 33.8202 16.2976V18.5445C33.8208 18.5491 33.8204 18.5539 33.8189 18.5583C33.8174 18.5627 33.8149 18.5667 33.8116 18.57C33.8083 18.5733 33.8042 18.5758 33.7998 18.5772C33.7953 18.5786 33.7906 18.579 33.786 18.5783H33.3539C33.3492 18.579 33.3445 18.5786 33.3401 18.5772C33.3356 18.5758 33.3316 18.5733 33.3282 18.57C33.3249 18.5667 33.3224 18.5627 33.3209 18.5583C33.3194 18.5539 33.319 18.5491 33.3196 18.5445V16.2976Z" fill="white"/>
<path d="M35.7184 17.8486C35.703 17.7066 35.6969 17.5637 35.7 17.4208C35.7 17.2924 35.703 17.1804 35.7086 17.0807C35.7142 16.9811 35.733 16.8827 35.7646 16.788C35.8154 16.6154 35.9265 16.4667 36.0778 16.3692C36.2395 16.2708 36.4263 16.2212 36.6155 16.2263C36.7895 16.2245 36.961 16.2666 37.1144 16.3487C37.2638 16.4292 37.3791 16.5609 37.4391 16.7196C37.4421 16.7237 37.4442 16.7285 37.4451 16.7335C37.4461 16.7385 37.4459 16.7437 37.4447 16.7486C37.4434 16.7535 37.4411 16.7582 37.4378 16.7621C37.4345 16.766 37.4305 16.7692 37.4258 16.7714L37.0618 16.9241C37.0365 16.9309 37.019 16.9241 37.0138 16.907C36.9764 16.834 36.9192 16.773 36.8488 16.7309C36.7784 16.6888 36.6976 16.6672 36.6155 16.6687C36.5334 16.6609 36.4511 16.6824 36.3833 16.7294C36.3154 16.7764 36.2663 16.8458 36.2446 16.9254C36.2115 17.0876 36.199 17.2533 36.2074 17.4187C36.1989 17.5854 36.2114 17.7526 36.2446 17.9162C36.2673 17.9966 36.3177 18.0664 36.3868 18.1134C36.4559 18.1603 36.5393 18.1814 36.6224 18.1729C36.7051 18.1746 36.7866 18.1527 36.8573 18.1096C36.9231 18.0705 36.9717 18.008 36.9933 17.9346C37.0133 17.8602 37.0225 17.7832 37.0207 17.7062C37.021 17.7034 37.0207 17.7006 37.0198 17.6979C37.0189 17.6953 37.0174 17.6928 37.0154 17.6909C37.0135 17.6889 37.0111 17.6874 37.0084 17.6865C37.0058 17.6856 37.0029 17.6853 37.0002 17.6856H36.687C36.6824 17.6863 36.6777 17.6858 36.6733 17.6844C36.6689 17.6829 36.665 17.6804 36.6617 17.6771C36.6584 17.6739 36.6559 17.6699 36.6545 17.6655C36.653 17.6611 36.6526 17.6564 36.6532 17.6518V17.3271C36.6526 17.3225 36.653 17.3178 36.6545 17.3134C36.656 17.309 36.6584 17.305 36.6617 17.3017C36.6649 17.2984 36.6689 17.2959 36.6733 17.2943C36.6777 17.2928 36.6824 17.2923 36.687 17.2929H37.4836C37.4882 17.2922 37.493 17.2927 37.4974 17.2942C37.5019 17.2957 37.5059 17.2982 37.5092 17.3015C37.5125 17.3048 37.515 17.3088 37.5165 17.3133C37.518 17.3177 37.5185 17.3225 37.5178 17.3271V17.5175C37.5245 17.6931 37.5049 17.8688 37.4596 18.0386C37.4099 18.2131 37.3004 18.3645 37.1503 18.4664C36.9915 18.5699 36.805 18.6227 36.6155 18.6178C36.4262 18.6232 36.2394 18.5736 36.0778 18.475C35.9265 18.3774 35.8154 18.2288 35.7646 18.0561C35.7447 17.988 35.7292 17.9187 35.7184 17.8486Z" fill="white"/>
<path d="M39.3977 16.2976C39.3971 16.2929 39.3976 16.2882 39.3992 16.2838C39.4007 16.2793 39.4033 16.2753 39.4066 16.2721C39.41 16.2688 39.4141 16.2663 39.4185 16.2649C39.423 16.2635 39.4277 16.2631 39.4323 16.2638H39.864C39.8686 16.2631 39.8734 16.2634 39.8778 16.2649C39.8823 16.2663 39.8863 16.2688 39.8896 16.2721C39.893 16.2754 39.8955 16.2794 39.897 16.2838C39.8985 16.2882 39.8989 16.2929 39.8983 16.2976V18.5445C39.8989 18.5491 39.8985 18.5539 39.897 18.5583C39.8955 18.5627 39.893 18.5667 39.8896 18.57C39.8863 18.5733 39.8823 18.5758 39.8778 18.5772C39.8734 18.5786 39.8686 18.579 39.864 18.5783H39.4323C39.4277 18.579 39.423 18.5786 39.4185 18.5772C39.4141 18.5757 39.41 18.5733 39.4066 18.57C39.4033 18.5667 39.4007 18.5627 39.3992 18.5583C39.3976 18.5539 39.3971 18.5492 39.3977 18.5445V16.2976Z" fill="white"/>
<path d="M42.3499 18.5783C42.3453 18.5789 42.3406 18.5785 42.3362 18.577C42.3319 18.5756 42.3279 18.5731 42.3246 18.5698C42.3213 18.5665 42.3188 18.5626 42.3174 18.5582C42.3159 18.5538 42.3155 18.5491 42.3161 18.5445V16.7301C42.3165 16.7273 42.3163 16.7244 42.3154 16.7218C42.3146 16.7191 42.3131 16.7166 42.3111 16.7146C42.3091 16.7126 42.3066 16.7111 42.3039 16.7102C42.3012 16.7094 42.2984 16.7091 42.2956 16.7096H41.7103C41.7057 16.7103 41.701 16.7099 41.6965 16.7085C41.6921 16.707 41.688 16.7046 41.6847 16.7013C41.6814 16.698 41.6789 16.694 41.6774 16.6896C41.6759 16.6851 41.6754 16.6804 41.6761 16.6758V16.2976C41.6754 16.2929 41.6759 16.2882 41.6774 16.2838C41.6789 16.2794 41.6814 16.2754 41.6847 16.2721C41.688 16.2688 41.6921 16.2663 41.6965 16.2649C41.701 16.2634 41.7057 16.2631 41.7103 16.2638H43.4216C43.4262 16.2632 43.4309 16.2636 43.4353 16.2651C43.4397 16.2665 43.4437 16.269 43.447 16.2723C43.4503 16.2755 43.4528 16.2795 43.4544 16.2839C43.4559 16.2883 43.4564 16.293 43.4558 16.2976V16.6758C43.4564 16.6804 43.4559 16.6851 43.4544 16.6895C43.4528 16.6938 43.4503 16.6978 43.447 16.7011C43.4437 16.7043 43.4397 16.7068 43.4353 16.7083C43.4309 16.7098 43.4262 16.7102 43.4216 16.7096H42.8359C42.8331 16.7092 42.8303 16.7095 42.8277 16.7104C42.8251 16.7113 42.8227 16.7128 42.8207 16.7148C42.8188 16.7168 42.8173 16.7192 42.8165 16.7219C42.8156 16.7245 42.8154 16.7273 42.8158 16.7301V18.5445C42.8165 18.5491 42.816 18.5539 42.8145 18.5583C42.813 18.5627 42.8105 18.5667 42.8072 18.57C42.8039 18.5733 42.7998 18.5758 42.7954 18.5772C42.7909 18.5786 42.7862 18.579 42.7816 18.5783H42.3499Z" fill="white"/>
<path d="M45.6433 16.2983C45.6454 16.2886 45.6508 16.2799 45.6586 16.2737C45.6664 16.2676 45.6761 16.2643 45.6861 16.2645H46.1139C46.1239 16.2643 46.1336 16.2676 46.1414 16.2737C46.1492 16.2799 46.1546 16.2886 46.1567 16.2983L46.9396 18.5453C46.9465 18.5679 46.9396 18.5791 46.9161 18.5791H46.4729C46.4629 18.5793 46.4532 18.576 46.4454 18.5699C46.4376 18.5637 46.4322 18.555 46.4301 18.5453L46.2975 18.1401H45.4876L45.3592 18.5453C45.3572 18.555 45.3517 18.5637 45.3439 18.5699C45.3361 18.576 45.3264 18.5793 45.3165 18.5791H44.8707C44.848 18.5791 44.8403 18.5679 44.8471 18.5453L45.6433 16.2983ZM46.1635 17.7149L45.9022 16.902H45.8915L45.6292 17.7149H46.1635Z" fill="white"/>
<path d="M48.7112 16.2976C48.7106 16.2929 48.711 16.2882 48.7125 16.2838C48.714 16.2794 48.7165 16.2754 48.7198 16.2721C48.7232 16.2688 48.7272 16.2663 48.7317 16.2649C48.7361 16.2634 48.7408 16.2631 48.7455 16.2638H49.1776C49.1822 16.2631 49.1869 16.2634 49.1914 16.2649C49.1958 16.2663 49.1999 16.2688 49.2032 16.2721C49.2065 16.2754 49.209 16.2794 49.2105 16.2838C49.212 16.2882 49.2124 16.2929 49.2118 16.2976V18.112C49.2113 18.1148 49.2116 18.1176 49.2125 18.1203C49.2133 18.123 49.2148 18.1255 49.2168 18.1275C49.2188 18.1295 49.2213 18.131 49.224 18.1318C49.2267 18.1327 49.2295 18.133 49.2323 18.1325H50.2535C50.2581 18.1319 50.2628 18.1323 50.2672 18.1338C50.2716 18.1353 50.2756 18.1377 50.2789 18.141C50.2821 18.1443 50.2846 18.1483 50.2861 18.1527C50.2875 18.1571 50.288 18.1617 50.2873 18.1663V18.5445C50.288 18.5491 50.2875 18.5538 50.2861 18.5582C50.2846 18.5626 50.2821 18.5665 50.2789 18.5698C50.2756 18.5731 50.2716 18.5756 50.2672 18.577C50.2628 18.5785 50.2581 18.5789 50.2535 18.5783H48.7455C48.7408 18.579 48.7361 18.5786 48.7317 18.5772C48.7272 18.5758 48.7232 18.5733 48.7198 18.57C48.7165 18.5667 48.714 18.5627 48.7125 18.5583C48.711 18.5539 48.7106 18.5491 48.7112 18.5445V16.2976Z" fill="white"/>
<path d="M52.0833 16.2976C52.0826 16.2929 52.0831 16.2882 52.0846 16.2838C52.0861 16.2794 52.0886 16.2754 52.0919 16.2721C52.0952 16.2688 52.0993 16.2663 52.1037 16.2649C52.1082 16.2634 52.1129 16.2631 52.1175 16.2638H52.5492C52.5539 16.2631 52.5586 16.2635 52.563 16.2649C52.5675 16.2663 52.5716 16.2688 52.5749 16.2721C52.5783 16.2753 52.5808 16.2793 52.5824 16.2838C52.5839 16.2882 52.5844 16.2929 52.5839 16.2976V18.5445C52.5844 18.5492 52.5839 18.5539 52.5824 18.5583C52.5808 18.5627 52.5783 18.5667 52.5749 18.57C52.5716 18.5733 52.5675 18.5757 52.563 18.5772C52.5586 18.5786 52.5539 18.579 52.5492 18.5783H52.1175C52.1129 18.579 52.1082 18.5786 52.1037 18.5772C52.0993 18.5758 52.0952 18.5733 52.0919 18.57C52.0886 18.5667 52.0861 18.5627 52.0846 18.5583C52.0831 18.5539 52.0826 18.5491 52.0833 18.5445V16.2976Z" fill="white"/>
<path d="M54.7994 18.5245C54.6574 18.476 54.5265 18.3996 54.4143 18.2999C54.41 18.2965 54.4065 18.2922 54.4039 18.2874C54.4014 18.2825 54.3999 18.2772 54.3995 18.2717C54.3991 18.2662 54.3999 18.2607 54.4018 18.2556C54.4037 18.2504 54.4067 18.2457 54.4105 18.2418L54.6672 17.9457C54.6808 17.9273 54.6975 17.9264 54.7181 17.9423C54.8864 18.0894 55.1004 18.1737 55.3239 18.181C55.4223 18.1867 55.5199 18.1598 55.6015 18.1044C55.6332 18.0818 55.659 18.0518 55.6765 18.0169C55.694 17.9821 55.7028 17.9436 55.7021 17.9046C55.703 17.872 55.696 17.8396 55.6817 17.8103C55.6674 17.7809 55.6462 17.7554 55.6199 17.7361C55.5367 17.6843 55.4422 17.6535 55.3444 17.6462L55.222 17.6291C54.7338 17.5612 54.4898 17.3298 54.49 16.9347C54.4865 16.8378 54.5049 16.7413 54.5437 16.6524C54.5826 16.5635 54.641 16.4846 54.7146 16.4214C54.8827 16.2857 55.0949 16.2166 55.3106 16.2271C55.457 16.2267 55.6025 16.2486 55.7423 16.2922C55.8699 16.3297 55.9898 16.3895 56.0965 16.4688C56.1011 16.4711 56.1051 16.4744 56.108 16.4785C56.111 16.4826 56.1129 16.4874 56.1136 16.4925C56.1143 16.4975 56.1137 16.5026 56.1119 16.5074C56.1101 16.5122 56.1072 16.5164 56.1034 16.5198L55.8959 16.8299C55.8937 16.834 55.8906 16.8375 55.8869 16.8403C55.8832 16.8431 55.8789 16.845 55.8744 16.8459C55.8699 16.8469 55.8652 16.8468 55.8607 16.8457C55.8562 16.8447 55.852 16.8426 55.8484 16.8398C55.6902 16.7297 55.5033 16.6682 55.3106 16.6631C55.2286 16.6581 55.1475 16.6829 55.0821 16.7328C55.0557 16.755 55.0346 16.7829 55.0206 16.8144C55.0065 16.8459 54.9997 16.8802 55.0009 16.9146C55.0009 17.0513 55.1211 17.1368 55.3615 17.1713L55.4843 17.1884C55.9692 17.2538 56.2116 17.4875 56.2116 17.8896C56.2146 17.9895 56.1949 18.0887 56.1539 18.1798C56.1129 18.2709 56.0517 18.3515 55.975 18.4154C55.7826 18.5619 55.5438 18.6339 55.3025 18.6182C55.1305 18.617 54.9602 18.5853 54.7994 18.5245Z" fill="white"/>
<path d="M58.0511 16.2976C58.0504 16.2929 58.0509 16.2882 58.0524 16.2838C58.0538 16.2794 58.0564 16.2754 58.0597 16.2721C58.063 16.2688 58.0671 16.2663 58.0715 16.2649C58.076 16.2634 58.0807 16.2631 58.0853 16.2638H58.5174C58.522 16.2631 58.5267 16.2634 58.5312 16.2649C58.5356 16.2663 58.5397 16.2688 58.543 16.2721C58.5463 16.2754 58.5489 16.2794 58.5504 16.2838C58.5518 16.2882 58.5523 16.2929 58.5516 16.2976V18.5445C58.5523 18.5491 58.5518 18.5539 58.5504 18.5583C58.5489 18.5627 58.5463 18.5667 58.543 18.57C58.5397 18.5733 58.5356 18.5758 58.5312 18.5772C58.5267 18.5786 58.522 18.579 58.5174 18.5783H58.0853C58.0807 18.579 58.076 18.5786 58.0715 18.5772C58.0671 18.5758 58.063 18.5733 58.0597 18.57C58.0564 18.5667 58.0538 18.5627 58.0524 18.5583C58.0509 18.5539 58.0504 18.5491 58.0511 18.5445V16.2976Z" fill="white"/>
<path d="M60.4919 16.2976C60.4913 16.2929 60.4917 16.2882 60.4932 16.2838C60.4947 16.2794 60.4972 16.2754 60.5005 16.2721C60.5039 16.2688 60.5079 16.2663 60.5124 16.2649C60.5168 16.2634 60.5215 16.2631 60.5262 16.2638H60.9343C60.9462 16.2635 60.9579 16.2665 60.9682 16.2725C60.9784 16.2785 60.9868 16.2871 60.9925 16.2976L61.8096 17.7543H61.8263V16.2976C61.8257 16.2929 61.8261 16.2882 61.8276 16.2838C61.8291 16.2794 61.8316 16.2754 61.8349 16.2721C61.8383 16.2688 61.8423 16.2663 61.8468 16.2649C61.8512 16.2634 61.8559 16.2631 61.8605 16.2638H62.2456C62.2502 16.2631 62.2549 16.2636 62.2592 16.265C62.2636 16.2665 62.2676 16.269 62.2709 16.2723C62.2742 16.2755 62.2767 16.2795 62.2781 16.2839C62.2796 16.2883 62.28 16.293 62.2794 16.2976V18.5445C62.28 18.5491 62.2796 18.5538 62.2781 18.5582C62.2767 18.5626 62.2742 18.5665 62.2709 18.5698C62.2676 18.5731 62.2636 18.5756 62.2592 18.577C62.2549 18.5785 62.2502 18.5789 62.2456 18.5783H61.8404C61.8286 18.5786 61.8169 18.5755 61.8066 18.5696C61.7963 18.5636 61.7879 18.5549 61.7823 18.5445L60.9625 17.0899H60.945V18.5445C60.9457 18.5491 60.9452 18.5539 60.9437 18.5583C60.9422 18.5627 60.9397 18.5667 60.9364 18.57C60.9331 18.5733 60.929 18.5758 60.9246 18.5772C60.9201 18.5786 60.9154 18.579 60.9108 18.5783H60.5257C60.5211 18.579 60.5164 18.5786 60.5119 18.5772C60.5075 18.5758 60.5034 18.5733 60.5001 18.57C60.4968 18.5667 60.4943 18.5627 60.4928 18.5583C60.4913 18.5539 60.4909 18.5491 60.4915 18.5445L60.4919 16.2976Z" fill="white"/>
<path d="M64.178 17.8486C64.1628 17.7065 64.1568 17.5636 64.16 17.4208C64.16 17.2924 64.1626 17.1804 64.1681 17.0807C64.1738 16.9811 64.1926 16.8827 64.2242 16.788C64.2751 16.6155 64.3862 16.4669 64.5374 16.3692C64.6991 16.2708 64.8859 16.2212 65.0751 16.2263C65.2491 16.2245 65.4206 16.2666 65.574 16.3487C65.7236 16.4289 65.839 16.5607 65.8987 16.7196C65.9018 16.7237 65.9039 16.7284 65.9049 16.7335C65.9059 16.7385 65.9058 16.7437 65.9045 16.7487C65.9032 16.7536 65.9009 16.7583 65.8976 16.7622C65.8943 16.7661 65.8901 16.7692 65.8854 16.7714L65.5214 16.9241C65.4965 16.9309 65.4786 16.9241 65.4739 16.907C65.4362 16.834 65.3789 16.7731 65.3085 16.731C65.238 16.6889 65.1572 16.6673 65.0751 16.6687C64.993 16.6609 64.9107 16.6824 64.8429 16.7294C64.775 16.7764 64.7259 16.8458 64.7042 16.9254C64.6713 17.0876 64.6588 17.2533 64.667 17.4187C64.6587 17.5854 64.6713 17.7525 64.7042 17.9162C64.727 17.9966 64.7774 18.0665 64.8466 18.1134C64.9158 18.1603 64.9992 18.1814 65.0824 18.1729C65.165 18.1746 65.2463 18.1526 65.3169 18.1096C65.3828 18.0706 65.4315 18.0081 65.4533 17.9346C65.4729 17.8601 65.482 17.7832 65.4803 17.7062C65.4807 17.7034 65.4805 17.7005 65.4796 17.6978C65.4787 17.6951 65.4772 17.6927 65.4752 17.6907C65.4732 17.6887 65.4708 17.6872 65.4681 17.6863C65.4654 17.6854 65.4625 17.6852 65.4598 17.6856H65.1466C65.142 17.6863 65.1373 17.6858 65.1329 17.6844C65.1285 17.6829 65.1245 17.6804 65.1213 17.6771C65.118 17.6739 65.1155 17.6699 65.114 17.6655C65.1126 17.6611 65.1121 17.6564 65.1128 17.6518V17.3271C65.1122 17.3225 65.1126 17.3178 65.1141 17.3134C65.1155 17.309 65.118 17.305 65.1213 17.3017C65.1245 17.2984 65.1285 17.2959 65.1329 17.2943C65.1373 17.2928 65.142 17.2923 65.1466 17.2929H65.9432C65.9478 17.2922 65.9526 17.2927 65.957 17.2942C65.9615 17.2957 65.9655 17.2982 65.9688 17.3015C65.9721 17.3048 65.9746 17.3088 65.9761 17.3133C65.9776 17.3177 65.9781 17.3225 65.9774 17.3271V17.5175C65.9841 17.6931 65.9645 17.8687 65.9192 18.0386C65.8695 18.2131 65.76 18.3645 65.6099 18.4664C65.4511 18.5699 65.2646 18.6227 65.0751 18.6178C64.8858 18.6231 64.6991 18.5735 64.5374 18.475C64.3862 18.3773 64.2751 18.2287 64.2242 18.0561C64.2044 17.988 64.189 17.9187 64.178 17.8486Z" fill="white"/>
<path d="M70.7841 16.2983C70.7862 16.2886 70.7916 16.2799 70.7995 16.2737C70.8073 16.2676 70.817 16.2643 70.8269 16.2645H71.2547C71.2647 16.2643 71.2744 16.2676 71.2822 16.2737C71.29 16.2799 71.2954 16.2886 71.2975 16.2983L72.0809 18.5453C72.0877 18.5679 72.0809 18.5791 72.0569 18.5791H71.6141C71.6042 18.5793 71.5945 18.576 71.5867 18.5699C71.5788 18.5637 71.5734 18.555 71.5713 18.5453L71.4383 18.1401H70.6284L70.5001 18.5453C70.498 18.555 70.4926 18.5637 70.4847 18.5699C70.4769 18.576 70.4672 18.5793 70.4573 18.5791H70.0115C69.9888 18.5791 69.9811 18.5679 69.9875 18.5453L70.7841 16.2983ZM71.3048 17.7149L71.043 16.902H71.0327L70.7704 17.7149H71.3048Z" fill="white"/>
<path d="M73.8528 16.2976C73.8522 16.2929 73.8527 16.2882 73.8542 16.2838C73.8558 16.2793 73.8584 16.2753 73.8617 16.2721C73.8651 16.2688 73.8691 16.2663 73.8736 16.2649C73.8781 16.2635 73.8828 16.2631 73.8874 16.2638H75.3711C75.3757 16.2631 75.3805 16.2634 75.3849 16.2649C75.3894 16.2663 75.3934 16.2688 75.3967 16.2721C75.4001 16.2754 75.4026 16.2794 75.4041 16.2838C75.4056 16.2882 75.406 16.2929 75.4053 16.2976V16.6621C75.406 16.6667 75.4056 16.6714 75.4041 16.6759C75.4026 16.6803 75.4001 16.6843 75.3967 16.6876C75.3934 16.6909 75.3894 16.6933 75.3849 16.6948C75.3805 16.6962 75.3757 16.6966 75.3711 16.6959H74.3739C74.3711 16.6955 74.3683 16.6958 74.3657 16.6967C74.363 16.6976 74.3606 16.6991 74.3587 16.7011C74.3567 16.7031 74.3553 16.7055 74.3544 16.7082C74.3536 16.7108 74.3533 16.7137 74.3538 16.7164V17.2029C74.3538 17.217 74.3602 17.2234 74.3739 17.2234H75.2064C75.2111 17.2227 75.2158 17.2232 75.2202 17.2247C75.2247 17.2262 75.2287 17.2287 75.232 17.232C75.2353 17.2353 75.2378 17.2394 75.2393 17.2438C75.2408 17.2482 75.2413 17.253 75.2406 17.2576V17.6187C75.2413 17.6233 75.2409 17.628 75.2394 17.6325C75.2379 17.6369 75.2353 17.6409 75.232 17.6442C75.2287 17.6475 75.2246 17.65 75.2202 17.6514C75.2158 17.6528 75.211 17.6532 75.2064 17.6525H74.376C74.3732 17.6521 74.3704 17.6524 74.3678 17.6533C74.3652 17.6542 74.3628 17.6557 74.3608 17.6577C74.3589 17.6597 74.3574 17.6621 74.3565 17.6648C74.3557 17.6675 74.3555 17.6703 74.3559 17.673V18.5445C74.3565 18.5492 74.356 18.5539 74.3544 18.5583C74.3529 18.5627 74.3503 18.5667 74.347 18.57C74.3436 18.5733 74.3395 18.5757 74.3351 18.5772C74.3306 18.5786 74.3259 18.579 74.3212 18.5783H73.8896C73.8849 18.579 73.8802 18.5786 73.8757 18.5772C73.8713 18.5757 73.8672 18.5733 73.8638 18.57C73.8605 18.5667 73.8579 18.5627 73.8564 18.5583C73.8548 18.5539 73.8543 18.5492 73.8549 18.5445L73.8528 16.2976Z" fill="white"/>
<path d="M78.5284 18.5791C78.5173 18.5799 78.5063 18.577 78.497 18.5709C78.4877 18.5648 78.4807 18.5558 78.4771 18.5453L78.0788 17.6977H77.7694C77.7666 17.6973 77.7638 17.6975 77.7611 17.6984C77.7584 17.6993 77.756 17.7008 77.7539 17.7028C77.7519 17.7048 77.7504 17.7072 77.7496 17.7099C77.7487 17.7126 77.7485 17.7155 77.7489 17.7183V18.5453C77.7496 18.5499 77.7491 18.5546 77.7476 18.559C77.7461 18.5635 77.7436 18.5675 77.7403 18.5708C77.737 18.5741 77.7329 18.5765 77.7285 18.5779C77.724 18.5794 77.7193 18.5798 77.7147 18.5791H77.2826C77.2779 18.5798 77.2732 18.5794 77.2688 18.5779C77.2643 18.5765 77.2603 18.5741 77.2569 18.5708C77.2536 18.5675 77.2511 18.5635 77.2496 18.559C77.2481 18.5546 77.2477 18.5499 77.2483 18.5453V16.2983C77.2477 16.2937 77.2481 16.289 77.2496 16.2845C77.2511 16.2801 77.2536 16.2761 77.2569 16.2728C77.2603 16.2695 77.2643 16.2671 77.2688 16.2656C77.2732 16.2642 77.2779 16.2638 77.2826 16.2645H78.205C78.4132 16.2553 78.6169 16.3272 78.7731 16.4652C78.8447 16.5306 78.9012 16.6106 78.9388 16.6999C78.9765 16.7892 78.9944 16.8856 78.9913 16.9824C78.9937 17.1198 78.9553 17.2548 78.8809 17.3705C78.8079 17.4839 78.703 17.5732 78.5793 17.6271L79.0354 18.5393C79.0377 18.5435 79.0389 18.5482 79.0389 18.553C79.0389 18.5577 79.0377 18.5625 79.0354 18.5666C79.0332 18.5709 79.0298 18.5744 79.0256 18.5768C79.0214 18.5791 79.0166 18.5802 79.0119 18.5799L78.5284 18.5791ZM78.4039 17.192C78.4324 17.1653 78.4548 17.1327 78.4696 17.0966C78.4843 17.0604 78.4911 17.0215 78.4895 16.9824C78.4912 16.9437 78.4845 16.9052 78.4697 16.8694C78.4549 16.8336 78.4324 16.8015 78.4039 16.7753C78.3413 16.7214 78.2606 16.6933 78.178 16.6966H77.7694C77.7666 16.6962 77.7638 16.6964 77.7611 16.6973C77.7584 16.6982 77.756 16.6997 77.7539 16.7017C77.7519 16.7037 77.7504 16.7061 77.7496 16.7088C77.7487 16.7115 77.7485 16.7144 77.7489 16.7172V17.2515C77.7485 17.2543 77.7487 17.2572 77.7496 17.2599C77.7504 17.2626 77.7519 17.265 77.7539 17.267C77.756 17.269 77.7584 17.2705 77.7611 17.2714C77.7638 17.2723 77.7666 17.2725 77.7694 17.2721H78.178C78.2608 17.2754 78.3417 17.2467 78.4039 17.192Z" fill="white"/>
<path d="M80.8723 16.2976C80.8717 16.2929 80.8722 16.2882 80.8738 16.2838C80.8753 16.2793 80.8779 16.2753 80.8812 16.2721C80.8846 16.2688 80.8887 16.2663 80.8931 16.2649C80.8976 16.2635 80.9023 16.2631 80.907 16.2638H81.3386C81.3433 16.2631 81.348 16.2634 81.3524 16.2649C81.3569 16.2663 81.3609 16.2688 81.3643 16.2721C81.3676 16.2754 81.3701 16.2794 81.3716 16.2838C81.3731 16.2882 81.3735 16.2929 81.3729 16.2976V18.5445C81.3735 18.5491 81.3731 18.5539 81.3716 18.5583C81.3701 18.5627 81.3676 18.5667 81.3643 18.57C81.3609 18.5733 81.3569 18.5758 81.3524 18.5772C81.348 18.5786 81.3433 18.579 81.3386 18.5783H80.907C80.9023 18.579 80.8976 18.5786 80.8931 18.5772C80.8887 18.5757 80.8846 18.5733 80.8812 18.57C80.8779 18.5667 80.8753 18.5627 80.8738 18.5583C80.8722 18.5539 80.8717 18.5492 80.8723 18.5445V16.2976Z" fill="white"/>
<path d="M83.2722 17.8504C83.2567 17.7083 83.2505 17.5654 83.2538 17.4226C83.2538 17.3139 83.2555 17.2085 83.2589 17.1064C83.2631 17.0009 83.2831 16.8966 83.3184 16.7971C83.3693 16.6254 83.4766 16.4758 83.623 16.3727C83.7761 16.2798 83.9515 16.2299 84.1305 16.2281C84.3096 16.2264 84.4859 16.2729 84.6408 16.3628C84.7813 16.4532 84.8893 16.586 84.9493 16.7419C84.9604 16.7624 84.9548 16.7765 84.9322 16.7847L84.5612 16.9515C84.5571 16.9544 84.5524 16.9562 84.5475 16.9569C84.5426 16.9575 84.5375 16.957 84.5329 16.9553C84.5282 16.9536 84.5239 16.9509 84.5205 16.9472C84.5171 16.9436 84.5147 16.9392 84.5133 16.9344C84.488 16.8572 84.4386 16.7901 84.3724 16.7429C84.3062 16.6957 84.2266 16.6709 84.1454 16.6722C84.0666 16.6672 83.9885 16.6902 83.925 16.7372C83.8615 16.7841 83.8167 16.852 83.7984 16.9289C83.7487 17.2584 83.7487 17.5936 83.7984 17.9231C83.8167 17.9999 83.8615 18.0678 83.925 18.1148C83.9885 18.1618 84.0666 18.1848 84.1454 18.1798C84.2266 18.181 84.3062 18.1563 84.3724 18.1091C84.4386 18.0619 84.488 17.9948 84.5133 17.9176C84.5147 17.9128 84.5171 17.9084 84.5205 17.9047C84.5239 17.9011 84.5282 17.8983 84.5329 17.8966C84.5375 17.895 84.5426 17.8944 84.5475 17.8951C84.5524 17.8958 84.5571 17.8976 84.5612 17.9004L84.9322 18.0673C84.9548 18.0737 84.9604 18.0878 84.9493 18.1101C84.8893 18.266 84.7813 18.3988 84.6408 18.4891C84.4859 18.579 84.3096 18.6256 84.1305 18.6238C83.9515 18.6221 83.7761 18.5722 83.623 18.4793C83.4767 18.3762 83.3694 18.2268 83.3184 18.0553C83.2982 17.9882 83.2828 17.9197 83.2722 17.8504Z" fill="white"/>
<path d="M87.3943 16.2983C87.3964 16.2886 87.4018 16.2799 87.4096 16.2737C87.4174 16.2676 87.4271 16.2643 87.4371 16.2645H87.8649C87.8748 16.2643 87.8846 16.2676 87.8924 16.2737C87.9002 16.2799 87.9056 16.2886 87.9077 16.2983L88.691 18.5453C88.6979 18.5679 88.691 18.5791 88.6675 18.5791H88.2243C88.2143 18.5793 88.2046 18.576 88.1968 18.5699C88.189 18.5637 88.1836 18.555 88.1815 18.5453L88.0484 18.1401H87.2386L87.1102 18.5453C87.1081 18.555 87.1027 18.5637 87.0949 18.5699C87.0871 18.576 87.0774 18.5793 87.0674 18.5791H86.6216C86.599 18.5791 86.5913 18.5679 86.5981 18.5453L87.3943 16.2983ZM87.915 17.7149L87.6536 16.902H87.6429L87.3806 17.7149H87.915Z" fill="white"/>
<path d="M33.7093 1.19124C34.4312 1.17805 35.148 1.315 35.8142 1.59339C36.3988 1.84166 36.9272 2.20545 37.3676 2.66295C37.7867 3.10347 38.1152 3.62195 38.3345 4.189C38.5556 4.75319 38.6689 5.35382 38.6687 5.95977C38.6691 6.56524 38.5581 7.16562 38.3414 7.73096C38.126 8.29853 37.7995 8.81737 37.3809 9.25701C36.9391 9.71588 36.4083 10.0798 35.8211 10.3266C35.1523 10.6045 34.4334 10.7414 33.7093 10.7287H30.208V1.19124H33.7093ZM32.4152 3.09848V8.8202H33.6007C34.0105 8.82742 34.417 8.74614 34.7926 8.5819C35.1294 8.4323 35.4311 8.21368 35.6782 7.94017C35.918 7.67369 36.1051 7.36419 36.2296 7.02804C36.484 6.3399 36.484 5.58348 36.2296 4.89534C36.1062 4.55662 35.919 4.24468 35.6782 3.97638C35.4309 3.70312 35.1292 3.48454 34.7926 3.33464C34.4171 3.17025 34.0105 3.08883 33.6007 3.09591L32.4152 3.09848Z" fill="white"/>
<path d="M46.3256 4.16124V10.7279H44.2408V9.80168C44.1551 9.96064 44.0448 10.105 43.9139 10.2295C43.7736 10.3647 43.6152 10.4799 43.4433 10.5718C43.2593 10.6698 43.0653 10.7475 42.8645 10.8036C42.6606 10.862 42.4497 10.8918 42.2377 10.8922C41.7901 10.8973 41.3465 10.8067 40.9367 10.6265C40.5528 10.4574 40.2075 10.2117 39.9219 9.90436C39.6335 9.58793 39.4117 9.21679 39.2695 8.81298C38.961 7.92636 38.961 6.96152 39.2695 6.0749C39.4124 5.67142 39.6348 5.30073 39.9236 4.98481C40.2092 4.67765 40.5545 4.43205 40.9384 4.26307C41.3482 4.08272 41.7918 3.99199 42.2394 3.99696C42.4515 3.99754 42.6624 4.02749 42.8662 4.08595C43.0679 4.14215 43.2622 4.22214 43.445 4.32424C43.6173 4.42037 43.7756 4.53955 43.9156 4.67848C44.0432 4.80382 44.1531 4.94587 44.2425 5.10075V4.15953L46.3256 4.16124ZM42.6741 9.12015C42.8956 9.12368 43.115 9.07702 43.3158 8.98368C43.5015 8.8969 43.6683 8.77434 43.8065 8.62302C43.9457 8.46777 44.0543 8.28764 44.1266 8.09209C44.204 7.88496 44.2431 7.66549 44.2421 7.44437C44.2453 7.01373 44.0903 6.5969 43.8065 6.27298C43.6698 6.11818 43.5028 5.99298 43.3158 5.90505C43.1144 5.81509 42.8962 5.76859 42.6756 5.76859C42.455 5.76859 42.2368 5.81509 42.0354 5.90505C41.8484 5.99298 41.6814 6.11818 41.5446 6.27298C41.2612 6.59693 41.1063 7.0135 41.1091 7.44394C41.108 7.66511 41.1473 7.88462 41.2251 8.09166C41.2972 8.28729 41.4058 8.46745 41.5451 8.6226C41.6833 8.77391 41.8501 8.89647 42.0358 8.98325C42.2356 9.0763 42.4537 9.1231 42.6741 9.12015Z" fill="white"/>
<path d="M51.6794 2.71711C51.5783 2.69159 51.4759 2.67131 51.3726 2.65636C51.2621 2.64148 51.1505 2.63462 51.0389 2.63582C50.9245 2.63528 50.8102 2.64214 50.6967 2.65636C50.5936 2.6675 50.495 2.70492 50.4105 2.76503C50.3237 2.83032 50.2556 2.9172 50.2128 3.01702C50.1571 3.16012 50.1317 3.31324 50.1384 3.46666V4.16145H51.6785V5.71445H50.1533V10.7281H48.069V5.71445H46.8848V4.16145H48.0703V3.58902C48.0483 3.1097 48.1297 2.63127 48.309 2.18618C48.441 1.88345 48.6498 1.62048 48.9148 1.42337C49.1532 1.2537 49.4289 1.1438 49.7187 1.10293C49.9938 1.063 50.2715 1.04241 50.5495 1.04132C50.7688 1.03905 50.9878 1.05753 51.2037 1.09651C51.3655 1.12511 51.525 1.16601 51.6807 1.21887L51.6794 2.71711Z" fill="white"/>
<path d="M56.8954 6.05511C56.774 6.02389 56.651 5.9989 56.5271 5.98024C56.4051 5.96545 56.2824 5.95859 56.1595 5.9597C55.9082 5.94784 55.657 5.98634 55.4207 6.07297C55.1844 6.15959 54.9678 6.29257 54.7837 6.4641C54.438 6.80009 54.2654 7.36781 54.266 8.16727V10.7282H52.1816V4.16156H54.266V5.22427C54.4454 4.88818 54.7112 4.60608 55.0361 4.40713C55.4024 4.16873 55.8317 4.04536 56.2686 4.05289C56.4829 4.04713 56.6961 4.08407 56.8958 4.16156L56.8954 6.05511Z" fill="white"/>
<path d="M57.0189 1.98164C57.0148 1.807 57.0466 1.63338 57.1122 1.47149C57.1778 1.3096 57.276 1.1629 57.4005 1.04042C57.525 0.91525 57.6738 0.816863 57.8377 0.751309C58.0016 0.685755 58.1772 0.654421 58.3537 0.659233C58.5361 0.657554 58.7169 0.692468 58.8855 0.76191C59.0441 0.827488 59.1892 0.921924 59.3133 1.04042C59.4367 1.16017 59.5339 1.30406 59.5991 1.46311C59.6675 1.62708 59.7023 1.80312 59.7014 1.98078C59.7028 2.15628 59.668 2.33017 59.5991 2.4916C59.5317 2.64945 59.4347 2.79293 59.3133 2.91429C59.1908 3.03669 59.0455 3.13379 58.8855 3.20008C58.7169 3.26938 58.536 3.30414 58.3537 3.30233C58.1739 3.30458 57.9955 3.26977 57.8296 3.20008C57.511 3.06401 57.2572 2.81021 57.1212 2.4916C57.0524 2.33044 57.0176 2.15684 57.0189 1.98164ZM57.3184 4.16354H59.4032V10.7302H57.3184V4.16354Z" fill="white"/>
<path d="M65.9423 5.68791H70.888V7.33632H69.9074C69.816 7.85589 69.641 8.35722 69.3893 8.82087C69.1463 9.2631 68.8175 9.65234 68.422 9.96573C67.9995 10.2955 67.5213 10.5469 67.0102 10.708C66.4174 10.8928 65.7991 10.9823 65.1782 10.9732C64.4468 10.9868 63.7206 10.8478 63.0459 10.5651C62.4528 10.3129 61.919 9.9394 61.4788 9.46859C61.0545 9.00605 60.7259 8.46415 60.5119 7.87409C60.2877 7.261 60.1745 6.61283 60.1778 5.96001C60.1766 5.3157 60.2925 4.67653 60.5201 4.07373C60.742 3.47243 61.0834 2.92225 61.5235 2.45627C61.9636 1.99028 62.4934 1.61813 63.081 1.36218C63.743 1.07598 64.4584 0.934213 65.1795 0.946334C65.7646 0.940036 66.3468 1.02994 66.9028 1.21244C67.3931 1.37233 67.8518 1.61657 68.2581 1.93418C68.6285 2.22589 68.9385 2.58683 69.1711 2.9969C69.3954 3.39303 69.5346 3.83164 69.5797 4.28465H67.2232C67.1859 4.09084 67.1119 3.90597 67.005 3.74003C66.8921 3.56246 66.747 3.4075 66.5772 3.28311C66.389 3.14585 66.1798 3.04008 65.9577 2.96994C65.3037 2.7759 64.6013 2.82669 63.982 3.11283C63.6517 3.28075 63.3614 3.51769 63.1306 3.80762C62.8954 4.10521 62.7195 4.44522 62.6126 4.80916C62.3836 5.58314 62.3862 6.40718 62.6198 7.17973C62.7308 7.54378 62.9137 7.88187 63.1576 8.174C63.4065 8.46695 63.7181 8.70017 64.0693 8.85638C64.4753 9.03181 64.9144 9.11761 65.3566 9.10794C65.6621 9.11268 65.9662 9.06418 66.2551 8.96461C66.5039 8.87793 66.7347 8.74642 66.9362 8.57658C67.3091 8.25971 67.5558 7.81941 67.6314 7.33589H65.9415L65.9423 5.68791Z" fill="white"/>
<path d="M76.1742 6.0551C76.0527 6.02388 75.9298 5.99889 75.8058 5.98023C75.6839 5.96544 75.5611 5.95858 75.4383 5.9597C75.1869 5.94787 74.9356 5.98639 74.6993 6.07301C74.4629 6.15963 74.2462 6.29259 74.062 6.4641C73.7172 6.80008 73.5448 7.36781 73.5448 8.16727V10.7282H71.46V4.16155H73.5448V5.22427C73.7241 4.88817 73.99 4.60607 74.3148 4.40712C74.6812 4.16872 75.1104 4.04535 75.5474 4.05288C75.7616 4.04716 75.9748 4.0841 76.1746 4.16155L76.1742 6.0551Z" fill="white"/>
<path d="M79.4704 10.9052C78.9507 10.9131 78.4346 10.8183 77.9516 10.6262C77.5244 10.4548 77.1355 10.2001 76.8076 9.87711C76.4946 9.5646 76.2487 9.19147 76.085 8.78059C75.749 7.92214 75.749 6.96857 76.085 6.11012C76.2485 5.69899 76.4944 5.32568 76.8076 5.01317C77.1357 4.69029 77.5245 4.43567 77.9516 4.26405C78.9347 3.89156 80.0202 3.89156 81.0033 4.26405C81.4304 4.43567 81.8192 4.69029 82.1473 5.01317C82.4605 5.32568 82.7064 5.69899 82.8699 6.11012C83.2059 6.96857 83.2059 7.92214 82.8699 8.78059C82.7062 9.19148 82.4603 9.56461 82.1473 9.87711C81.8193 10.2001 81.4305 10.4548 81.0033 10.6262C80.5156 10.8192 79.9947 10.914 79.4704 10.9052ZM79.4704 9.12071C79.6929 9.12362 79.9135 9.0799 80.1181 8.99237C80.3083 8.90964 80.4779 8.78624 80.6152 8.63085C80.7528 8.47445 80.8612 8.29463 80.9353 8.09993C81.0893 7.67993 81.0893 7.21891 80.9353 6.79891C80.8631 6.60303 80.7546 6.42258 80.6152 6.26713C80.4752 6.11497 80.3062 5.99235 80.1181 5.90647C79.9148 5.81423 79.6937 5.76765 79.4704 5.77C79.249 5.76683 79.0296 5.81347 78.8287 5.90647C78.6412 5.99305 78.4733 6.11679 78.3351 6.2702C78.1969 6.42361 78.0914 6.60348 78.0248 6.79891C77.8799 7.22048 77.8799 7.67836 78.0248 8.09993C78.0949 8.295 78.2011 8.47512 78.3379 8.63085C78.4737 8.78513 78.6411 8.90842 78.8287 8.99237C79.0309 9.08063 79.2498 9.1244 79.4704 9.12071Z" fill="white"/>
<path d="M90.3968 4.16174V10.7284H88.3124V9.7872C88.1275 10.1363 87.8397 10.4201 87.488 10.6001C87.1089 10.7753 86.6989 10.8739 86.2816 10.8903C85.8643 10.9066 85.4479 10.8404 85.0562 10.6955C84.7666 10.5783 84.5125 10.3876 84.3191 10.1423C84.1101 9.88908 83.9694 9.58655 83.9105 9.26355C83.8413 8.86552 83.8094 8.4619 83.8151 8.05794V4.16174H85.8862V7.52701C85.8692 7.92592 85.9559 8.32242 86.1378 8.67786C86.2321 8.82912 86.367 8.95084 86.5271 9.02913C86.6873 9.10743 86.8662 9.13914 87.0435 9.12065C87.2288 9.13465 87.4146 9.10062 87.5829 9.02186C87.7512 8.94309 87.8964 8.82225 88.0044 8.67101C88.2261 8.30701 88.3328 7.88461 88.3107 7.45898V4.16174H90.3968Z" fill="white"/>
<path d="M93.707 5.10135C93.7963 4.94657 93.9061 4.80454 94.0334 4.67909C94.175 4.53902 94.3358 4.41975 94.5109 4.32485C94.6944 4.22421 94.8885 4.14429 95.0897 4.08655C95.2957 4.02718 95.509 3.99722 95.7233 3.99756C96.171 3.99265 96.6145 4.08338 97.0243 4.26367C97.4082 4.43265 97.7535 4.67825 98.0391 4.98541C98.3279 5.30127 98.5505 5.67179 98.6937 6.07508C99.0028 6.9616 99.0028 7.92663 98.6937 8.81316C98.5508 9.21641 98.3285 9.58692 98.04 9.90282C97.7544 10.2101 97.4091 10.4559 97.0252 10.625C96.6154 10.8052 96.1718 10.8957 95.7242 10.8907C95.5098 10.8912 95.2965 10.8614 95.0906 10.8021C94.8894 10.7444 94.6952 10.6645 94.5117 10.5638C94.3378 10.4697 94.1772 10.3527 94.0343 10.216C93.9035 10.0916 93.7933 9.94715 93.7078 9.78817V13.6985H91.623V4.16142H93.7078L93.707 5.10135ZM95.2869 5.76876C95.0639 5.76631 94.8431 5.8129 94.6401 5.90523C94.4519 5.99101 94.2829 6.11365 94.1429 6.26589C94.0033 6.42122 93.8946 6.60169 93.8225 6.79768C93.6685 7.21547 93.6685 7.67448 93.8225 8.09227C93.8946 8.288 94.0034 8.46819 94.1429 8.6232C94.2826 8.77571 94.4517 8.89839 94.6401 8.98386C94.843 9.07659 95.0639 9.1232 95.2869 9.12033C95.5036 9.12272 95.718 9.07607 95.9141 8.98386C96.0996 8.89696 96.2662 8.77442 96.4044 8.6232C96.5437 8.46806 96.6523 8.28789 96.7244 8.09227C96.879 7.67458 96.879 7.21536 96.7244 6.79768C96.6523 6.6018 96.5437 6.42135 96.4044 6.26589C96.2657 6.11434 96.0987 5.99138 95.9128 5.90395C95.7169 5.81277 95.503 5.76658 95.2869 5.76876Z" fill="white"/>
<path d="M102.549 1.19152H106.54C107.031 1.18454 107.519 1.27967 107.971 1.47089C108.382 1.64661 108.754 1.90111 109.068 2.22001C109.373 2.53485 109.611 2.90791 109.769 3.31695C110.096 4.16752 110.096 5.10905 109.769 5.95962C109.611 6.36872 109.373 6.7418 109.068 7.05656C108.755 7.37574 108.382 7.63027 107.971 7.80568C107.519 7.99691 107.031 8.09205 106.54 8.08505H104.756V10.7282H102.549V1.19152ZM106.266 6.28648C106.483 6.2888 106.697 6.2423 106.893 6.15043C107.077 6.0646 107.242 5.94168 107.376 5.78935C107.511 5.63526 107.615 5.45734 107.683 5.26484C107.828 4.8597 107.828 4.41687 107.683 4.01174C107.615 3.81928 107.511 3.64137 107.376 3.48722C107.241 3.33514 107.077 3.21227 106.893 3.12614C106.697 3.03428 106.483 2.98777 106.266 2.99009H104.754V6.28648H106.266Z" fill="white"/>
<path d="M115.573 8.82031V10.728H110.653V1.19135H112.86V8.82031H115.573Z" fill="white"/>
<path d="M125 7.3084C124.911 7.81263 124.733 8.29712 124.475 8.73947C124.215 9.1855 123.876 9.58019 123.474 9.90401C123.046 10.246 122.562 10.5111 122.043 10.6874C120.75 11.1068 119.351 11.0636 118.086 10.565C117.482 10.3111 116.935 9.9382 116.478 9.46848C116.037 9.0087 115.694 8.46403 115.47 7.86757C115.237 7.25409 115.12 6.60312 115.122 5.94706C115.12 5.30464 115.236 4.66734 115.464 4.06678C115.688 3.46727 116.03 2.91889 116.47 2.45429C116.91 1.9897 117.439 1.6184 118.025 1.3625C118.687 1.07653 119.401 0.934772 120.122 0.946654C120.791 0.935982 121.457 1.04225 122.09 1.26068C122.629 1.44743 123.128 1.73376 123.561 2.10477C123.962 2.45432 124.288 2.88054 124.522 3.3583C124.759 3.84311 124.915 4.36332 124.985 4.89847H122.682C122.631 4.62646 122.537 4.36442 122.403 4.12239C122.137 3.63723 121.7 3.26825 121.177 3.08706C120.881 2.98405 120.57 2.93338 120.258 2.93732C119.833 2.92902 119.412 3.01493 119.024 3.18888C118.68 3.34694 118.372 3.57411 118.119 3.85629C117.872 4.13719 117.683 4.46363 117.562 4.81718C117.435 5.18051 117.37 5.56289 117.371 5.94792C117.368 6.34928 117.435 6.74808 117.569 7.12657C117.695 7.48846 117.897 7.81971 118.16 8.09888C118.422 8.37805 118.741 8.59892 119.094 8.74717C119.498 8.91306 119.932 8.99417 120.369 8.98547C120.633 8.98731 120.895 8.9439 121.145 8.85712C121.386 8.77252 121.613 8.65318 121.82 8.50289C122.022 8.35458 122.199 8.17507 122.344 7.9711C122.487 7.77129 122.593 7.54741 122.657 7.31011L125 7.3084Z" fill="white"/>
<path d="M24.5227 9.8006C21.2858 12.9802 18.065 16.1441 14.8603 19.2923L10.15 14.6577L9.19078 13.7135C9.01537 13.5423 8.84011 13.3698 8.66498 13.1958L7.71094 12.2572L6.76202 11.3237C6.58405 11.1474 6.40536 10.9714 6.22596 10.7957C6.47153 10.5493 6.71667 10.3037 6.96139 10.059C7.15648 9.86434 7.10642 9.76381 6.95112 9.60893C6.69271 9.35224 6.43459 9.0944 6.17676 8.83543C6.4788 8.53082 6.77914 8.22692 7.07776 7.92373C7.58943 7.40664 8.09983 6.88997 8.60894 6.37372C8.61664 6.36602 8.62391 6.35875 8.63076 6.35105C8.93366 6.0453 9.23527 5.7394 9.53561 5.43337L14.9048 0C15.4824 0.563445 16.0385 1.10507 16.5947 1.6467C16.7821 1.83023 16.9549 2.03174 17.1582 2.19517C17.3789 2.37271 17.3229 2.50191 17.1552 2.67262C15.4316 4.42584 13.7095 6.18092 11.9888 7.93785L11.0852 8.85939C11.0783 8.86709 11.0711 8.87479 11.0634 8.88206L10.3716 9.58754C10.3202 9.63974 10.277 9.70091 10.203 9.78947C10.5225 10.1063 10.8409 10.4228 11.1583 10.7388L11.682 11.2595C12.0006 11.5758 12.3186 11.8919 12.636 12.208C12.7101 12.2811 12.7841 12.3551 12.8581 12.4287C13.4412 13.008 14.0303 13.5813 14.6045 14.1695C14.7919 14.3608 14.9309 14.3766 15.1307 14.1862C16.658 12.7316 18.1892 11.2819 19.7242 9.83696C19.7409 9.82199 19.7431 9.79161 19.7345 9.813C19.29 9.3424 18.8647 8.88463 18.4189 8.44397C18.3668 8.42307 18.3102 8.41557 18.2544 8.42214C18.1985 8.42872 18.1453 8.44916 18.0994 8.48162C17.7302 8.83543 17.387 9.21619 17.0217 9.57342C16.9296 9.66883 16.8073 9.72932 16.6756 9.74455L14.9472 8.07604L18.6431 3.97748L24.5227 9.8006Z" fill="white"/>
<path d="M10.2042 9.78934C10.6988 10.2811 11.1918 10.7711 11.6832 11.2593C10.8524 12.0779 10.0216 12.8959 9.19072 13.7133C8.69786 13.2285 8.20458 12.7436 7.71087 12.2587C6.24001 13.7347 4.77985 15.2219 3.30942 16.6978C3.00566 17.0029 2.69592 17.3028 2.38275 17.6035C2.07671 17.2861 1.76098 16.9591 1.43555 16.6225C2.07215 16.0073 2.70191 15.4199 3.30942 14.8094C4.46283 13.6509 5.61368 12.4895 6.76196 11.3252C7.06486 11.0195 7.36833 10.7137 7.67237 10.408C7.91395 10.1658 8.15538 9.9241 8.39667 9.68281C8.59133 9.48815 8.54171 9.38761 8.38598 9.23274C7.9496 8.79693 7.5135 8.36112 7.07769 7.92531C5.48619 6.33494 3.89468 4.74472 2.30317 3.15464C2.82213 2.62671 3.34407 2.09406 3.8827 1.54645C5.46622 3.16362 7.04161 4.77324 8.60888 6.3753C8.91862 6.06171 9.83245 5.14402 10.1413 4.83043C10.9582 5.66469 11.7758 6.49965 12.5941 7.33534C12.2852 7.65022 11.3726 8.56876 11.0646 8.88364L10.3728 9.58912C10.3215 9.6396 10.2782 9.70078 10.2042 9.78934Z" fill="white"/>
<path d="M12.6372 12.2078C11.8067 13.025 10.9775 13.8415 10.1498 14.6575L9.19066 13.7133C8.6978 13.2285 8.20452 12.7436 7.71081 12.2587C7.93899 12.0291 8.16716 11.8 8.39533 11.5712C8.58999 11.3766 8.54036 11.276 8.38463 11.1212L7.67102 10.408C7.15935 9.89743 6.64824 9.38661 6.1377 8.8755C4.69337 7.43202 3.24903 5.98883 1.8047 4.54592C1.36147 4.10313 1.35848 4.11083 1.78587 3.67787C1.957 3.50332 2.12813 3.32962 2.30183 3.15464C2.82078 2.62671 3.34273 2.09406 3.88136 1.54645C5.46488 3.16362 7.04027 4.77324 8.60753 6.3753C9.42639 7.21098 10.245 8.04709 11.0632 8.88363L10.3715 9.58911C10.3201 9.64131 10.2769 9.70249 10.2029 9.79105C10.6975 10.2828 11.1904 10.7728 11.6819 11.2611C12.0013 11.5762 12.3198 11.8918 12.6372 12.2078Z" fill="white"/>
<path d="M12.0595 9.85348C11.7595 10.1487 11.46 10.4437 11.1611 10.7387C10.3291 11.5592 9.49756 12.3782 8.66644 13.1956L2.34063 19.4231L0 16.9973C0.636603 16.3825 1.26679 15.7951 1.87387 15.1846C3.32847 13.7244 4.77238 12.2544 6.2257 10.7947C6.47127 10.5483 6.71641 10.3027 6.96113 10.058C7.15622 9.86332 7.10616 9.76279 6.95086 9.60791C6.69246 9.35122 6.43433 9.09338 6.1765 8.8344C4.24159 6.90149 2.3064 4.96759 0.370924 3.03268C-0.0723021 2.58988 -0.0757241 2.59758 0.3521 2.16462C1.04304 1.46513 1.73055 0.761788 2.44844 0.0332031C4.52039 2.15051 6.57438 4.2477 8.63178 6.35003L11.0875 8.85836L12.0595 9.85348Z" fill="white"/>
</g>
<defs>
<clipPath id="clip0">
<rect width="1440" height="6086" fill="white" transform="translate(-112 -1499)"/>
</clipPath>
</defs>
</svg>
