<svg width="110" height="30" viewBox="0 0 110 30" fill="none" xmlns="http://www.w3.org/2000/svg">
<g clip-path="url(#clip0)">
<path d="M38.7558 0C39.4891 1.14462 40.1866 2.29819 40.9467 3.42492C42.5653 5.83042 44.2107 8.21803 45.8561 10.5788C46.0081 10.8024 46.1959 11.008 46.4642 11.3568C47.0991 10.4626 47.6624 9.72035 48.199 8.94236C48.9412 7.86034 49.6566 6.76937 50.3988 5.69628C50.5329 5.5085 50.7654 5.26705 50.9532 5.26705C52.2588 5.26705 53.5644 5.26705 54.87 5.26705C54.87 5.26705 54.9505 5.33859 55.0935 5.45484C54.5212 6.34908 53.94 7.24331 53.3051 8.13755C51.9548 10.1049 50.6224 12.099 49.2363 14.0306C49.0364 14.2456 48.9253 14.5284 48.9253 14.822C48.9253 15.1156 49.0364 15.3983 49.2363 15.6134C50.989 18.0815 52.7059 20.5674 54.3871 23.0713C54.5862 23.3545 54.6665 23.7044 54.6106 24.046C54.557 24.2249 54.0562 24.3501 53.7164 24.359C50.6492 24.4305 50.6581 24.4216 48.9233 21.8283C48.19 20.6747 47.3942 19.548 46.4999 18.2961C46.2608 18.5384 46.0368 18.7952 45.8292 19.0651C43.5489 22.3648 41.2686 25.6556 39.0241 28.9822C38.8783 29.2383 38.6612 29.4464 38.3993 29.5814C38.1373 29.7163 37.8418 29.7722 37.5486 29.7423C36.4219 29.7423 35.2862 29.7423 33.9717 29.7423C34.5708 28.8481 35.0537 28.0432 35.5724 27.2831C38.2998 23.3306 41.0183 19.3692 43.7725 15.4345C43.9205 15.2449 43.9924 15.007 43.9742 14.7672C43.9561 14.5274 43.849 14.303 43.6741 14.1379C40.443 9.42823 37.2118 4.71561 33.9806 0H38.7558Z" fill="white"/>
<path d="M0 8.20024C2.03873 8.09413 4.08231 8.127 6.11658 8.29861C9.0765 8.70995 10.7577 11.3837 10.4804 14.7282C10.4005 16.1232 9.79008 17.4348 8.77419 18.3941C7.75831 19.3535 6.41394 19.8879 5.01667 19.8879C3.34444 19.9326 1.67222 19.9505 0 19.9773L0 8.20024ZM2.25348 17.7507C3.25502 17.7507 4.19397 17.8043 5.11503 17.7507C6.9035 17.6165 8.09284 16.3557 8.30746 14.3705C8.49524 12.582 7.51158 10.7935 5.96456 10.4716C4.7367 10.2766 3.49656 10.169 2.25348 10.1497V17.7507Z" fill="white"/>
<path d="M98.8574 10.8292L100.261 11.8575C100.187 12.0195 100.094 12.1725 99.9842 12.3136C99.7731 12.4926 99.6402 12.7469 99.6134 13.0223C99.5867 13.2978 99.6684 13.5728 99.8411 13.7891C100.263 14.5869 100.386 15.5095 100.188 16.3902C99.9896 17.2709 99.4828 18.0515 98.7591 18.5911C98.7591 18.6448 98.7591 18.7253 98.7591 18.7432C99.3644 19.0989 99.8284 19.6526 100.073 20.3108C100.317 20.969 100.327 21.6913 100.1 22.3559C99.9113 23.063 99.5098 23.6951 98.9501 24.1668C98.3905 24.6385 97.6995 24.9272 96.9706 24.9939C94.4846 25.4678 92.2043 24.0549 91.9182 21.873C91.9092 21.7181 91.9092 21.5628 91.9182 21.408H93.7961C94.4936 22.9192 95.3967 23.42 96.8007 23.0444C97.195 22.9649 97.5489 22.7494 97.8006 22.4357C98.0522 22.1219 98.1858 21.7297 98.1778 21.3275C98.1512 20.9403 97.9901 20.5746 97.7222 20.2937C97.4544 20.0128 97.0968 19.8344 96.7113 19.7894C96.2731 19.7089 95.817 19.7 95.361 19.6374C94.3989 19.5621 93.5024 19.1202 92.8567 18.403C92.2111 17.6857 91.8655 16.7479 91.8913 15.7832C91.7803 14.7799 92.0548 13.7718 92.6591 12.9632C93.2635 12.1546 94.1526 11.6059 95.1464 11.4283C95.8431 11.2963 96.5602 11.3177 97.2478 11.4909C97.9006 11.6966 98.2494 11.6071 98.5623 11.0527C98.607 10.9812 98.7233 10.9365 98.8574 10.8292ZM98.2046 15.5597C98.232 15.2613 98.1968 14.9605 98.1014 14.6765C98.006 14.3925 97.8524 14.1316 97.6504 13.9102C97.4485 13.6889 97.2026 13.5122 96.9285 13.3912C96.6544 13.2703 96.3581 13.2078 96.0585 13.2078C95.7588 13.2154 95.4639 13.2839 95.1916 13.4092C94.9193 13.5344 94.6753 13.7137 94.4746 13.9363C94.2738 14.1588 94.1204 14.4199 94.0237 14.7036C93.9271 14.9873 93.8892 15.2877 93.9123 15.5865C93.8989 15.8788 93.9453 16.1707 94.0489 16.4444C94.1524 16.718 94.3108 16.9676 94.5143 17.1779C94.7178 17.3881 94.9621 17.5545 95.2323 17.6668C95.5025 17.7791 95.7927 17.835 96.0853 17.831C96.3777 17.8345 96.6675 17.7769 96.9364 17.6619C97.2052 17.5469 97.4471 17.3771 97.6466 17.1634C97.846 16.9496 97.9987 16.6965 98.0948 16.4204C98.1909 16.1443 98.2283 15.8511 98.2046 15.5597Z" fill="white"/>
<path d="M18.6542 19.8342L18.52 18.8773C18.1209 19.331 17.6183 19.6817 17.0547 19.8997C16.4912 20.1176 15.8834 20.1964 15.2829 20.1293C14.6854 20.0994 14.103 19.9312 13.5816 19.6379C13.0602 19.3447 12.614 18.9343 12.2782 18.4392C11.7167 17.5267 11.4655 16.457 11.5623 15.39C11.659 14.323 12.0984 13.3159 12.8148 12.5193C14.2992 11.0975 16.5169 11.0617 18.4574 12.4746L18.6631 11.643H20.5052V19.8342H18.6542ZM18.4574 15.6938C18.4574 15.0535 18.203 14.4394 17.7502 13.9866C17.2975 13.5338 16.6833 13.2794 16.043 13.2794C15.4026 13.2794 14.7885 13.5338 14.3357 13.9866C13.8829 14.4394 13.6285 15.0535 13.6285 15.6938C13.6285 16.3342 13.8829 16.9483 14.3357 17.4011C14.7885 17.8539 15.4026 18.1083 16.043 18.1083C16.6833 18.1083 17.2975 17.8539 17.7502 17.4011C18.203 16.9483 18.4574 16.3342 18.4574 15.6938Z" fill="white"/>
<path d="M78.5763 12.5192L78.6925 11.625H80.5525V19.8162H78.7641L78.5852 18.8772C78.1495 19.3614 77.5965 19.7252 76.9794 19.9335C76.3623 20.1418 75.7019 20.1876 75.0619 20.0666C74.098 19.9663 73.2072 19.5065 72.567 18.7789C71.9246 17.8852 71.5933 16.8054 71.624 15.7053C71.6547 14.6052 72.0457 13.5455 72.7369 12.6891C74.2213 11.0884 76.5464 11.008 78.5763 12.5192ZM78.5763 15.7742C78.5964 15.443 78.5485 15.1112 78.4356 14.7991C78.3227 14.4871 78.1471 14.2015 77.9197 13.9598C77.6923 13.7182 77.4178 13.5256 77.1132 13.394C76.8086 13.2624 76.4803 13.1945 76.1484 13.1945C75.8166 13.1945 75.4883 13.2624 75.1837 13.394C74.879 13.5256 74.6046 13.7182 74.3772 13.9598C74.1497 14.2015 73.9742 14.4871 73.8612 14.7991C73.7483 15.1112 73.7005 15.443 73.7206 15.7742C73.7005 16.1055 73.7483 16.4373 73.8612 16.7493C73.9742 17.0614 74.1497 17.347 74.3772 17.5886C74.6046 17.8303 74.879 18.0228 75.1837 18.1545C75.4883 18.2861 75.8166 18.354 76.1484 18.354C76.4803 18.354 76.8086 18.2861 77.1132 18.1545C77.4178 18.0228 77.6923 17.8303 77.9197 17.5886C78.1471 17.347 78.3227 17.0614 78.4356 16.7493C78.5485 16.4373 78.5964 16.1055 78.5763 15.7742Z" fill="white"/>
<path d="M70.3315 19.8431H68.2927V16.6149C68.2927 16.2214 68.2927 15.819 68.2927 15.4255C68.2301 14.1647 67.5862 13.4403 66.5042 13.4224C66.2342 13.4054 65.9636 13.4436 65.7089 13.5344C65.4541 13.6253 65.2205 13.7671 65.0222 13.9511C64.824 14.1352 64.6652 14.3576 64.5556 14.6049C64.4461 14.8523 64.388 15.1193 64.3849 15.3898C64.3223 16.5523 64.3849 17.7237 64.3849 18.8862V19.7805H62.3281V8.1554H64.3491V12.3047C65.1034 11.9543 65.8914 11.6817 66.7009 11.4909C67.1142 11.4132 67.5391 11.4224 67.9487 11.5178C68.3582 11.6131 68.7434 11.7927 69.0798 12.045C69.4163 12.2973 69.6965 12.6169 69.9027 12.9833C70.109 13.3498 70.2367 13.7551 70.2779 14.1736C70.3404 14.4684 70.3823 14.7672 70.4031 15.0678C70.3405 16.6596 70.3315 18.1977 70.3315 19.8431Z" fill="white"/>
<path d="M109.991 16.4718H103.446C103.669 18.2603 105.815 18.77 108.087 17.5181L109.16 18.8416C108.015 20.1114 105.529 20.5227 103.615 19.7358C101.934 19.0025 101.058 17.3214 101.246 15.1484C101.316 14.3082 101.648 13.5113 102.195 12.8697C102.742 12.2281 103.477 11.7741 104.295 11.5714C106.486 11.0081 108.596 11.7234 109.348 13.4672C109.662 14.4448 109.878 15.4513 109.991 16.4718ZM107.765 14.737C107.724 14.4856 107.633 14.2449 107.497 14.0296C107.361 13.8143 107.183 13.6288 106.973 13.4842C106.763 13.3397 106.526 13.2391 106.277 13.1885C106.027 13.1379 105.77 13.1384 105.52 13.19C104.393 13.2436 103.66 13.816 103.571 14.737H107.765Z" fill="white"/>
<path d="M90.452 19.8432H88.4579C88.4579 18.3498 88.4579 16.8833 88.4579 15.4257C88.4788 15.0585 88.3964 14.6929 88.2201 14.3702C88.0437 14.0475 87.7805 13.7808 87.4602 13.6001C87.1399 13.4195 86.7753 13.3322 86.408 13.3483C86.0406 13.3643 85.6851 13.483 85.3817 13.6909C85.0573 13.8988 84.7932 14.1884 84.6159 14.5305C84.4385 14.8726 84.3542 15.2553 84.3712 15.6403C84.3712 17.0264 84.3712 18.4124 84.3712 19.8521H82.3682V11.6252H84.1566L84.3444 12.5194C84.9594 12.1565 85.6095 11.8569 86.2849 11.6252C86.7628 11.493 87.2643 11.4702 87.7522 11.5585C88.2401 11.6468 88.7018 11.8439 89.103 12.1351C89.5043 12.4264 89.8347 12.8043 90.0698 13.2409C90.3049 13.6774 90.4386 14.1613 90.461 14.6566C90.5509 16.3844 90.5479 18.1157 90.452 19.8432Z" fill="white"/>
<path d="M22.9553 13.5745L21.4619 13.4761V11.795L22.9285 11.6966C22.9285 10.1943 23.2146 8.79929 24.7795 8.18227C25.3426 7.9378 25.9604 7.84707 26.5699 7.91933C27.1795 7.9916 27.7589 8.22427 28.2492 8.59362L27.5695 10.0155C25.5307 9.4342 24.8868 9.84555 25.0925 11.7413H27.3996V13.4851H25.0389V19.8252H22.9553V13.5745Z" fill="white"/>
<path d="M60.0305 17.545L61.2735 18.7254C60.0753 20.4602 56.9991 20.6301 55.1212 19.1009C53.4311 17.7238 53.3327 14.3704 54.8797 12.6714C56.4268 10.9723 59.8875 10.8829 61.1394 12.6714C60.8801 12.9396 60.6029 13.2079 60.3525 13.512C60.3064 13.5835 60.2464 13.645 60.1761 13.6929C60.1058 13.7408 60.0266 13.774 59.9432 13.7907C59.8598 13.8074 59.7739 13.8072 59.6906 13.79C59.6073 13.7728 59.5283 13.7391 59.4582 13.6908C58.9595 13.369 58.3553 13.2535 57.7731 13.3686C57.1909 13.4837 56.6761 13.8205 56.3374 14.3078C56.0128 14.7778 55.8518 15.3414 55.8793 15.9119C55.9068 16.4823 56.1211 17.0279 56.4894 17.4645C56.9072 17.8736 57.4518 18.1284 58.0336 18.1869C58.6154 18.2454 59.1998 18.1042 59.6907 17.7864L60.0305 17.545Z" fill="white"/>
<path d="M30.9671 19.8521H28.9551V11.7503C30.2249 11.4105 30.7436 11.5357 31.0565 12.3137C31.5155 11.8534 32.1049 11.5456 32.7449 11.432C33.3848 11.3184 34.0442 11.4046 34.6335 11.6787C35.2773 11.9112 35.483 12.26 35.0448 12.877C34.8608 13.1621 34.6994 13.4611 34.5619 13.7713C34.0327 13.6212 33.491 13.5194 32.9434 13.4672C32.6711 13.4318 32.3944 13.4596 32.1346 13.5483C31.8749 13.637 31.639 13.7844 31.4453 13.9789C31.2517 14.1735 31.1054 14.41 31.0178 14.6702C30.9302 14.9303 30.9037 15.2072 30.9403 15.4792C30.9492 16.919 30.9671 18.3319 30.9671 19.8521Z" fill="white"/>
<path d="M36.252 19.8341V11.6251H38.1924V19.8341H36.252Z" fill="white"/>
<path d="M38.4524 9.23743C38.465 9.39385 38.4446 9.55117 38.3924 9.69916C38.3401 9.84714 38.2574 9.98248 38.1494 10.0964C38.0414 10.2102 37.9107 10.3001 37.7657 10.3601C37.6207 10.4201 37.4647 10.4489 37.3078 10.4446C37.1517 10.4594 36.9942 10.4419 36.8451 10.3933C36.696 10.3447 36.5585 10.2659 36.4411 10.162C36.3238 10.058 36.229 9.931 36.1627 9.78888C36.0964 9.64677 36.0601 9.49255 36.0559 9.33579C36.0462 9.17387 36.0691 9.01165 36.1231 8.85869C36.1771 8.70572 36.2611 8.56511 36.3703 8.44512C36.4794 8.32513 36.6115 8.22819 36.7587 8.16C36.9059 8.09182 37.0652 8.05377 37.2273 8.04809C37.3874 8.03941 37.5476 8.06395 37.6978 8.12017C37.848 8.1764 37.9849 8.26309 38.1 8.37479C38.2151 8.4865 38.3058 8.6208 38.3664 8.76925C38.4271 8.91771 38.4563 9.07711 38.4524 9.23743Z" fill="white"/>
</g>
<defs>
<clipPath id="clip0">
<rect width="110" height="29.7423" fill="white"/>
</clipPath>
</defs>
</svg>
