<svg width="140" height="16" viewBox="0 0 140 16" fill="none" xmlns="http://www.w3.org/2000/svg">
<g clip-path="url(#clip0)">
<path d="M19.1045 4.1317H22.586C23.8499 4.06981 25.0908 4.48608 26.0617 5.29768C26.4991 5.69525 26.8434 6.18442 27.0702 6.73033C27.2969 7.27624 27.4003 7.86544 27.3732 8.45592C27.3939 9.07722 27.2791 9.69558 27.0368 10.268C26.7944 10.8405 26.4304 11.3533 25.9699 11.7709C24.9931 12.6409 23.7181 13.1 22.4109 13.0523H19.1045V4.1317ZM22.586 11.2351C22.9143 11.2515 23.2424 11.2005 23.5502 11.0852C23.858 10.9699 24.1389 10.7929 24.3757 10.5649C24.6066 10.3129 24.7846 10.0171 24.8993 9.69507C25.014 9.37305 25.0629 9.0313 25.0432 8.69004C25.066 8.32282 25.0147 7.95477 24.8924 7.60778C24.77 7.26079 24.5791 6.94195 24.3311 6.67023C24.0777 6.42521 23.7767 6.23477 23.4468 6.1107C23.1168 5.98662 22.765 5.93155 22.4129 5.94887H21.3282V11.2358L22.586 11.2351Z" fill="white"/>
<path d="M34.9779 6.31414V13.0523H32.9168V12.2116C32.6719 12.548 32.3492 12.82 31.9761 13.0042C31.6031 13.1884 31.1909 13.2794 30.775 13.2694C30.3821 13.2752 29.9924 13.1979 29.6316 13.0425C29.2707 12.8871 28.9468 12.6571 28.6811 12.3677C28.3932 12.0608 28.1688 11.7001 28.0209 11.3061C27.873 10.9122 27.8045 10.4929 27.8194 10.0724C27.8074 9.57033 27.9014 9.07136 28.0953 8.60807C28.2892 8.14478 28.5786 7.72758 28.9447 7.38372C29.3022 7.03228 29.7261 6.75556 30.1916 6.56967C30.6572 6.38378 31.1551 6.29246 31.6563 6.30103C32.3087 6.31083 32.9549 6.42986 33.5679 6.65318L34.9779 6.31414ZM32.8361 10.9781V8.25328C32.4897 8.03968 32.0909 7.92619 31.6839 7.92539C31.4676 7.91871 31.2521 7.95594 31.0506 8.03484C30.8491 8.11374 30.6656 8.23266 30.5114 8.38444C30.3456 8.56705 30.2187 8.7814 30.1382 9.0145C30.0577 9.24761 30.0254 9.49463 30.0431 9.74059C30.0178 10.2144 30.1645 10.6813 30.4563 11.0554C30.5934 11.2166 30.7656 11.3443 30.9596 11.4288C31.1536 11.5134 31.3643 11.5525 31.5757 11.5433C31.815 11.5523 32.0531 11.506 32.2716 11.4079C32.4901 11.3099 32.683 11.1628 32.8354 10.9781H32.8361Z" fill="white"/>
<path d="M38.6369 5.31791C38.4363 5.57338 38.3396 5.8952 38.3661 6.21895V6.54684H40.6574V8.20072H38.3654V13.0535H36.2236V6.30092C36.2236 4.33926 37.2178 3.35843 39.2061 3.35843C39.892 3.35275 40.5744 3.45816 41.2266 3.67058V5.35135C40.6816 5.13982 40.1028 5.02873 39.5183 5.02346C39.359 5.00902 39.1985 5.02773 39.0468 5.07841C38.8951 5.12908 38.7555 5.21063 38.6369 5.31791Z" fill="white"/>
<path d="M46.106 6.42258V8.49682C45.7964 8.38939 45.471 8.33442 45.1433 8.33418C44.7617 8.31637 44.3829 8.40756 44.0513 8.59708C43.7196 8.7866 43.4487 9.06663 43.2704 9.40441V13.0519H41.1299V6.7485L43.1903 6.31372V7.82201C43.4222 7.38669 43.7517 7.01095 44.153 6.72424C44.4962 6.4738 44.9087 6.33629 45.3334 6.33077C45.5938 6.32821 45.8534 6.35906 46.106 6.42258Z" fill="white"/>
<path d="M46.8038 5.41234C46.6863 5.3054 46.5933 5.17433 46.5312 5.02809C46.469 4.88185 46.4392 4.7239 46.4438 4.56507C46.4409 4.40647 46.4714 4.24903 46.5335 4.10304C46.5955 3.95704 46.6876 3.82577 46.8038 3.7178C46.9212 3.60375 47.0603 3.51436 47.2128 3.45489C47.3653 3.39543 47.5281 3.36709 47.6918 3.37155C47.8562 3.36765 48.0198 3.39622 48.1732 3.45564C48.3266 3.51505 48.4667 3.60414 48.5856 3.7178C48.7036 3.82471 48.7972 3.95565 48.8604 4.10179C48.9235 4.24794 48.9546 4.40591 48.9515 4.56507C48.9561 4.72445 48.9257 4.88289 48.8625 5.02927C48.7993 5.17564 48.7048 5.3064 48.5856 5.41234C48.3415 5.63392 48.0214 5.75299 47.6918 5.74482C47.3637 5.75413 47.0451 5.63481 46.8038 5.41234ZM46.634 6.74882L48.7758 6.31404V13.0522H46.634V6.74882Z" fill="white"/>
<path d="M49.3311 5.94774V4.13123H57.5336V5.94774H54.5511V13.0518H52.3267V5.94774H49.3311Z" fill="white"/>
<path d="M64.744 12.1294C63.83 12.9189 62.657 13.3436 61.4494 13.3223C60.4434 13.3673 59.4563 13.0392 58.6774 12.4009C58.3278 12.0977 58.0508 11.7197 57.867 11.2949C57.6832 10.8701 57.5973 10.4095 57.6157 9.94699C57.6038 9.45646 57.6961 8.96898 57.8866 8.51679C58.077 8.06459 58.3614 7.65799 58.7207 7.32387C59.0865 6.97664 59.5174 6.70518 59.9885 6.52511C60.4596 6.34504 60.9617 6.25991 61.4658 6.27462C62.3167 6.2365 63.1495 6.52773 63.7912 7.08779C64.0843 7.35733 64.3154 7.68722 64.4687 8.0547C64.622 8.42219 64.6938 8.81855 64.6791 9.21646C64.6866 9.61135 64.6127 10.0036 64.4621 10.3687H59.7798C60.0421 11.236 60.7517 11.67 61.9085 11.6704C62.6497 11.6567 63.374 11.446 64.007 11.0599L64.744 12.1294ZM60.4257 8.05573C60.11 8.26559 59.8779 8.57958 59.77 8.94299H62.8069C62.7769 8.61232 62.6274 8.3039 62.3865 8.0754C62.1287 7.84919 61.7933 7.73167 61.4507 7.74751C61.086 7.74637 60.7291 7.8539 60.4257 8.05638V8.05573Z" fill="white"/>
<path d="M66.0558 12.3883C65.7282 12.0771 65.4706 11.6999 65.2998 11.2816C65.1291 10.8633 65.0493 10.4134 65.0655 9.96192C65.0499 9.46749 65.1397 8.97539 65.3289 8.51835C65.5182 8.06132 65.8027 7.64983 66.1633 7.31126C66.8855 6.62344 67.8511 6.25032 68.8481 6.27381C69.6393 6.27268 70.4196 6.45826 71.1256 6.81548V8.65823C70.5558 8.21571 69.8541 7.97696 69.1327 7.98015C68.635 7.95752 68.1483 8.13052 67.7765 8.46215C67.6052 8.62448 67.4706 8.82157 67.3817 9.0402C67.2928 9.25883 67.2517 9.49395 67.2611 9.72977C67.2482 9.97022 67.2849 10.2107 67.3689 10.4364C67.453 10.662 67.5826 10.868 67.7497 11.0413C67.9276 11.2065 68.1369 11.3341 68.3651 11.4167C68.5934 11.4993 68.8359 11.5351 69.0783 11.522C69.734 11.509 70.3711 11.3013 70.9086 10.9253L71.6955 12.1175C71.2916 12.4989 70.8174 12.7982 70.2993 12.9988C69.7743 13.2137 69.2127 13.325 68.6455 13.3267C67.6922 13.3681 66.7612 13.0308 66.0558 12.3883Z" fill="white"/>
<path d="M78.4194 7.05299C78.9135 7.62954 79.1619 8.37682 79.1113 9.13444V13.0527H76.9695V9.79874C76.9695 8.6778 76.5808 8.11754 75.8035 8.11798C75.5115 8.12584 75.2255 8.20236 74.9685 8.34136C74.7116 8.48036 74.4911 8.67792 74.3247 8.91804V13.0534H72.1836V3.91443L74.3247 3.48096V7.31793C74.6178 6.99624 74.9765 6.74133 75.3767 6.57047C75.7769 6.39962 76.2092 6.31682 76.6442 6.3277C76.9745 6.31668 77.3034 6.3756 77.6093 6.5006C77.9153 6.62559 78.1913 6.81384 78.4194 7.05299Z" fill="white"/>
<path d="M86.4587 7.05278C86.9523 7.62957 87.2005 8.37674 87.1499 9.13423V13.0525H85.0062V9.79788C85.0062 8.67693 84.6175 8.11668 83.8402 8.11712C83.5535 8.12658 83.2726 8.2011 83.019 8.33504C82.7653 8.46899 82.5453 8.65885 82.3758 8.89028V13.0519H80.2354V6.7485L82.2952 6.31372V7.39838C82.5858 7.05454 82.9527 6.78329 83.3667 6.6062C83.7808 6.42284 84.2286 6.32792 84.6815 6.32749C85.0121 6.3164 85.3414 6.37528 85.6476 6.50027C85.9539 6.62526 86.2303 6.81354 86.4587 7.05278Z" fill="white"/>
<path d="M88.8895 12.3472C88.5424 12.0437 88.266 11.6678 88.0797 11.246C87.8935 10.8242 87.8019 10.3667 87.8114 9.90569C87.8004 9.41843 87.8942 8.93448 88.0865 8.48665C88.2789 8.03882 88.5653 7.63758 88.9262 7.31011C89.681 6.61314 90.6793 6.24056 91.7061 6.27267C92.6956 6.24193 93.6588 6.59431 94.3948 7.25634C94.7415 7.56145 95.0176 7.93847 95.2038 8.36113C95.39 8.78379 95.4818 9.24195 95.4729 9.70371C95.4828 10.189 95.3884 10.6707 95.1961 11.1164C95.0038 11.562 94.718 11.9612 94.3581 12.2868C93.6031 12.9832 92.6048 13.3553 91.5782 13.323C90.5901 13.3538 89.6278 13.0046 88.8895 12.3472ZM92.8557 11.2284C93.1524 10.8487 93.3017 10.3744 93.276 9.89323C93.3052 9.36235 93.1441 8.83846 92.8216 8.41576C92.67 8.23635 92.4792 8.09415 92.264 8.00012C92.0488 7.90609 91.8148 7.86275 91.5802 7.87343C91.3632 7.86311 91.1466 7.90232 90.947 7.9881C90.7474 8.07389 90.5699 8.20399 90.428 8.36854C90.1299 8.75258 89.9806 9.23141 90.0076 9.71683C89.9791 10.2438 90.1403 10.7636 90.4621 11.1818C90.6135 11.3611 90.8041 11.5031 91.0191 11.597C91.2341 11.6909 91.4678 11.7342 91.7022 11.7235C91.9194 11.7338 92.1361 11.6946 92.336 11.6089C92.5358 11.5231 92.7135 11.393 92.8557 11.2284Z" fill="white"/>
<path d="M96.2285 3.91443L98.3703 3.48096V13.0554H96.2285V3.91443Z" fill="white"/>
<path d="M100.209 12.3472C99.8623 12.0435 99.5861 11.6676 99.3999 11.2458C99.2138 10.824 99.1222 10.3666 99.1317 9.9057C99.1207 9.41843 99.2145 8.93449 99.4068 8.48666C99.5992 8.03883 99.8856 7.63758 100.247 7.31012C101.001 6.61312 101.999 6.24053 103.026 6.27267C104.015 6.24214 104.978 6.5945 105.714 7.25634C106.061 7.56161 106.337 7.93866 106.523 8.3613C106.709 8.78393 106.801 9.24202 106.792 9.70372C106.802 10.189 106.707 10.6707 106.515 11.1164C106.323 11.562 106.037 11.9612 105.677 12.2868C104.922 12.9832 103.924 13.3553 102.897 13.323C101.909 13.3537 100.947 13.0044 100.209 12.3472ZM104.175 11.2284C104.472 10.8487 104.621 10.3744 104.596 9.89323C104.625 9.36235 104.464 8.83847 104.141 8.41576C103.99 8.23553 103.799 8.09262 103.583 7.99811C103.368 7.9036 103.133 7.86004 102.898 7.87081C102.681 7.86048 102.464 7.8997 102.265 7.98549C102.065 8.07127 101.888 8.20137 101.746 8.36592C101.448 8.74996 101.298 9.2288 101.325 9.71421C101.298 10.2422 101.46 10.7627 101.783 11.1812C101.934 11.3604 102.125 11.5025 102.34 11.5964C102.555 11.6903 102.789 11.7336 103.023 11.7229C103.24 11.7329 103.456 11.6936 103.655 11.6079C103.855 11.5223 104.032 11.3925 104.174 11.2284H104.175Z" fill="white"/>
<path d="M115.481 8.34801L113.895 8.23915C114.146 8.59603 114.279 9.02299 114.274 9.45956C114.275 9.84216 114.186 10.2196 114.014 10.5613C113.842 10.9031 113.592 11.1996 113.284 11.4269C112.568 11.9793 111.68 12.2625 110.776 12.227C110.666 12.2287 110.557 12.2241 110.448 12.2132L109.391 13.8946C110.298 13.2476 111.381 12.8927 112.495 12.8775C114.157 12.8775 115.056 13.7956 115.194 15.6318L112.956 15.9033C112.95 15.7216 112.907 15.543 112.832 15.3777C112.756 15.2125 112.648 15.0639 112.515 14.9406C112.242 14.7554 111.916 14.6649 111.586 14.6829C110.474 14.7077 109.39 15.0409 108.455 15.6455L107.153 14.8147L108.495 11.6282C108.08 11.4076 107.735 11.0772 107.495 10.673C107.256 10.2688 107.133 9.80656 107.139 9.33693C107.138 8.92789 107.23 8.52394 107.407 8.15531C107.584 7.78668 107.842 7.46293 108.163 7.20827C108.877 6.60909 109.788 6.29519 110.72 6.32689C111.181 6.32525 111.639 6.39879 112.076 6.54461H115.479L115.481 8.34801ZM111.793 10.3468C111.934 10.2202 112.044 10.0639 112.117 9.88921C112.19 9.71457 112.223 9.52593 112.214 9.33693C112.222 9.13664 112.186 8.93704 112.109 8.75207C112.031 8.56711 111.915 8.40123 111.767 8.26604C111.471 7.99574 111.083 7.84988 110.682 7.8588C110.297 7.8487 109.922 7.9843 109.633 8.2385C109.491 8.36615 109.379 8.52351 109.306 8.69933C109.232 8.87515 109.198 9.06511 109.206 9.25561C109.199 9.45481 109.237 9.65296 109.317 9.83577C109.396 10.0186 109.515 10.1815 109.665 10.3127C109.967 10.582 110.359 10.7275 110.764 10.72C111.141 10.7296 111.508 10.5963 111.791 10.3468H111.793Z" fill="white"/>
<path d="M116.066 5.41255C115.948 5.30559 115.856 5.17449 115.794 5.02824C115.731 4.882 115.702 4.72407 115.707 4.56529C115.703 4.40673 115.734 4.24931 115.796 4.10331C115.858 3.95731 115.95 3.82602 116.066 3.71802C116.183 3.60409 116.322 3.51477 116.475 3.45531C116.627 3.39586 116.79 3.36745 116.954 3.37177C117.119 3.36765 117.282 3.39613 117.436 3.45555C117.59 3.51497 117.73 3.60417 117.849 3.71802C117.967 3.82493 118.061 3.95586 118.124 4.10201C118.187 4.24815 118.218 4.40612 118.215 4.56529C118.219 4.72466 118.189 4.88311 118.126 5.02948C118.063 5.17586 117.968 5.30661 117.849 5.41255C117.605 5.63451 117.284 5.75361 116.954 5.74504C116.626 5.75407 116.307 5.63478 116.066 5.41255ZM115.897 6.74904L118.039 6.31425V13.0524H115.897V6.74904Z" fill="white"/>
<path d="M125.943 12.1295C125.028 12.919 123.855 13.3437 122.647 13.3223C121.641 13.3672 120.654 13.0391 119.875 12.4009C119.525 12.0979 119.248 11.72 119.063 11.2953C118.879 10.8705 118.793 10.4097 118.811 9.94702C118.799 9.45653 118.892 8.96915 119.082 8.51701C119.273 8.06486 119.557 7.65822 119.916 7.32389C120.282 6.97679 120.713 6.70542 121.184 6.52536C121.655 6.34529 122.157 6.26009 122.662 6.27464C123.513 6.23639 124.345 6.52764 124.987 7.08781C125.28 7.35735 125.511 7.68724 125.665 8.05473C125.818 8.42221 125.89 8.81857 125.875 9.21648C125.883 9.61145 125.809 10.0037 125.657 10.3687H120.98C121.243 11.2361 121.952 11.67 123.109 11.6704C123.85 11.6568 124.575 11.446 125.207 11.0599L125.943 12.1295ZM121.624 8.05575C121.308 8.26553 121.076 8.57956 120.968 8.94302H124.005C123.975 8.61234 123.825 8.30392 123.584 8.07542C123.327 7.84909 122.991 7.73155 122.649 7.74753C122.284 7.74672 121.928 7.85423 121.624 8.0564V8.05575Z" fill="white"/>
<path d="M127.764 13.0582C127.21 12.9136 126.678 12.6929 126.185 12.4025L126.74 11.1276C127.631 11.5899 128.622 11.8274 129.625 11.8195C130.44 11.8195 130.846 11.6341 130.846 11.2634C130.849 11.1885 130.826 11.1149 130.782 11.0545C130.738 10.9941 130.674 10.9506 130.602 10.9309C130.31 10.8462 130.01 10.7895 129.707 10.7617C129.553 10.7433 129.431 10.7296 129.341 10.7217C128.943 10.6712 128.548 10.5939 128.16 10.4902C127.843 10.4034 127.536 10.2808 127.246 10.1249C126.977 9.98642 126.754 9.77474 126.601 9.5144C126.451 9.24025 126.377 8.93148 126.385 8.61926C126.372 8.28395 126.444 7.95085 126.593 7.65014C126.741 7.34944 126.963 7.09064 127.237 6.89718C127.933 6.44598 128.755 6.2278 129.583 6.27419C130.518 6.26775 131.446 6.45206 132.308 6.81586V8.42974C131.921 8.20063 131.5 8.03356 131.062 7.93462C130.587 7.81577 130.1 7.75456 129.61 7.75232C128.77 7.75232 128.35 7.94206 128.35 8.32154C128.348 8.40271 128.375 8.48194 128.426 8.5452C128.477 8.60846 128.548 8.65166 128.628 8.66713C128.977 8.75768 129.333 8.82342 129.692 8.86386C130.053 8.91808 130.352 8.9677 130.587 9.01273C130.865 9.0692 131.139 9.1439 131.407 9.23635C131.673 9.31615 131.924 9.442 132.146 9.60818C132.34 9.76893 132.499 9.96724 132.615 10.1912C132.749 10.4507 132.817 10.7396 132.811 11.0319C132.822 11.3583 132.751 11.6822 132.605 11.9745C132.46 12.2668 132.244 12.5184 131.977 12.7067C131.298 13.1528 130.493 13.3689 129.682 13.3232C129.033 13.323 128.388 13.2339 127.764 13.0582Z" fill="white"/>
<path d="M0.0319093 1.22961C0.544074 1.74965 1.01886 2.23624 1.49889 2.71758C4.56882 5.78926 7.64093 8.85918 10.7152 11.9274C10.7486 11.9501 10.7767 11.9799 10.7975 12.0145C10.8183 12.0491 10.8314 12.0879 10.8359 12.128C10.8404 12.1682 10.8361 12.2088 10.8235 12.2472C10.8108 12.2856 10.79 12.3208 10.7624 12.3503C10.3111 13.0846 9.68735 13.6976 8.94528 14.136C8.91829 14.1588 8.88691 14.1757 8.8531 14.1858C8.81928 14.196 8.78375 14.199 8.74871 14.1948C8.71366 14.1907 8.67985 14.1793 8.64936 14.1615C8.61888 14.1437 8.59237 14.1199 8.57149 14.0914C5.75469 11.2659 2.93527 8.44254 0.113226 5.62138C0.0503429 5.55805 0.0121944 5.4743 0.00567807 5.38529C-0.000223953 4.04422 0.00174339 2.70381 0.00567807 1.36273C0.0116947 1.31787 0.0204549 1.27341 0.0319093 1.22961Z" fill="white"/>
<path d="M11.495 10.5111L2.20061 1.21149C2.18094 1.22985 2.19143 1.21149 2.20061 1.21149C3.61644 1.22395 5.03621 1.18919 6.45007 1.26461C7.22026 1.28072 7.97645 1.4736 8.66027 1.82835C9.34408 2.18311 9.93723 2.69025 10.3939 3.31064C11.0567 4.22901 11.4673 5.30503 11.5848 6.4315C11.6576 6.99678 11.6543 7.5719 11.6806 8.14309C11.7165 8.93706 11.6542 9.73243 11.495 10.5111Z" fill="white"/>
<path d="M0.000812365 7.68201L7.10029 14.8208C6.52714 14.8726 5.95989 14.9618 5.39199 14.9671C3.66072 14.9841 1.92881 14.9671 0.196891 14.9671C-0.0280418 14.9671 0.000156631 14.8313 0.000156631 14.6962C0.00321694 12.9956 0.00627721 11.2951 0.00933752 9.59492C0.00933752 9.04538 0.00343553 8.49714 0.000156631 7.9476L0.000812365 7.68201Z" fill="white"/>
<path d="M137.556 2.7026H137.215V3.27575H136.788V1.56285H137.618C137.798 1.55222 137.976 1.60565 138.121 1.71368C138.181 1.76263 138.228 1.82484 138.26 1.89541C138.292 1.96597 138.307 2.04295 138.304 2.12026C138.306 2.22587 138.275 2.32954 138.216 2.41734C138.156 2.50583 138.073 2.57615 137.976 2.62063L138.377 3.27641H137.876L137.556 2.7026ZM137.215 2.36422H137.58C137.653 2.36788 137.725 2.34456 137.783 2.29864C137.807 2.27718 137.826 2.25062 137.838 2.22089C137.851 2.19117 137.857 2.15903 137.855 2.12682C137.857 2.09511 137.851 2.06349 137.838 2.03447C137.825 2.00545 137.805 1.97982 137.781 1.9596C137.723 1.91596 137.652 1.89412 137.58 1.89796H137.215V2.36422Z" fill="white"/>
<path d="M137.581 4.8403C136.94 4.83961 136.325 4.5845 135.871 4.13097C135.418 3.67744 135.163 3.06252 135.162 2.42112C135.163 1.77973 135.418 1.16481 135.871 0.711278C136.325 0.257745 136.94 0.00264746 137.581 0.00195312C138.223 0.00264746 138.838 0.257745 139.291 0.711278C139.745 1.16481 140 1.77973 140 2.42112C140 3.06252 139.745 3.67744 139.291 4.13097C138.838 4.5845 138.223 4.83961 137.581 4.8403ZM137.581 0.34755C137.032 0.348244 136.505 0.566929 136.116 0.95565C135.727 1.34437 135.508 1.87139 135.508 2.42112C135.508 2.97086 135.727 3.49788 136.116 3.8866C136.505 4.27532 137.032 4.49401 137.581 4.49471C138.131 4.49401 138.658 4.27532 139.047 3.8866C139.435 3.49788 139.654 2.97086 139.655 2.42112C139.655 1.87105 139.436 1.34353 139.047 0.954379C138.659 0.565233 138.131 0.346274 137.581 0.345579V0.34755Z" fill="white"/>
</g>
<defs>
<clipPath id="clip0">
<rect width="140" height="15.9001" fill="white"/>
</clipPath>
</defs>
</svg>
