<svg width="125" height="28" viewBox="0 0 125 28" fill="none" xmlns="http://www.w3.org/2000/svg">
<g clip-path="url(#clip0)">
<path d="M123.979 18.3343H123.805C123.68 18.3954 123.569 18.4805 123.477 18.5848C123.385 18.6891 123.315 18.8104 123.27 18.9419C123.269 18.9613 123.269 18.9807 123.27 19.0001C123.193 19.1395 123.085 19.2586 122.952 19.3473C122.761 19.4914 122.589 19.6591 122.439 19.8464L122.309 19.9115C122.155 19.9499 122.013 20.0263 121.895 20.1336C121.778 20.2409 121.689 20.3758 121.637 20.5261C121.523 20.7952 121.493 21.0928 121.551 21.3794V21.4662C121.512 21.5396 121.46 21.6057 121.399 21.6615C121.203 21.826 121.066 22.0492 121.008 22.2978C120.936 22.5376 120.957 22.7957 121.066 23.0209V23.1225C121.037 23.2719 121.041 23.426 121.079 23.5736C121.116 23.7212 121.186 23.8585 121.283 23.9758C121.374 24.0769 121.486 24.1575 121.611 24.2123C121.735 24.2671 121.87 24.2947 122.006 24.2935C122.367 24.293 122.712 24.1501 122.968 23.8959C123.158 23.6812 123.312 23.437 123.424 23.1728C123.554 22.8422 123.74 22.5365 123.973 22.2692C124.132 22.0948 124.248 21.8858 124.312 21.6587C124.376 21.4316 124.387 21.1927 124.342 20.961C124.339 20.9226 124.339 20.884 124.342 20.8456C124.458 20.7546 124.551 20.638 124.613 20.505C124.676 20.3719 124.707 20.2261 124.703 20.0791C124.721 19.5346 124.607 18.9939 124.371 18.5027C124.322 18.4479 124.262 18.4045 124.194 18.3757C124.127 18.3469 124.054 18.3334 123.98 18.336L123.979 18.3343ZM123.82 20.0478C123.82 20.1346 123.82 20.1346 123.748 20.1997C123.688 20.2516 123.633 20.3073 123.581 20.3664C123.518 20.4651 123.475 20.5755 123.455 20.6911C123.435 20.8066 123.439 20.925 123.465 21.0392C123.492 21.241 123.462 21.4463 123.379 21.632C123.076 21.9754 122.832 22.366 122.656 22.7883C122.58 22.9711 122.485 23.1456 122.373 23.3091C122.276 23.3914 122.154 23.4375 122.026 23.4393C121.995 23.4447 121.964 23.4447 121.932 23.4393C121.917 23.3825 121.917 23.3225 121.932 23.2657C121.958 23.0757 121.928 22.8823 121.846 22.7093C121.833 22.6847 121.826 22.6575 121.826 22.6299C121.826 22.6022 121.833 22.575 121.846 22.5504C121.846 22.4636 121.896 22.4272 122.005 22.3265C122.176 22.1752 122.304 21.9802 122.373 21.7622C122.412 21.6155 122.412 21.4611 122.373 21.3143C122.339 21.1793 122.352 21.0366 122.41 20.9098C122.41 20.8161 122.41 20.8161 122.547 20.7865C122.764 20.7287 122.957 20.602 123.097 20.4254C123.195 20.2978 123.312 20.1857 123.444 20.093C123.583 19.9955 123.707 19.8786 123.813 19.7457C123.822 19.8461 123.825 19.947 123.822 20.0478H123.82Z" fill="white"/>
<path d="M121.233 18.1823V18.0478C121.162 17.6509 121.028 17.2679 120.836 16.9132C120.655 16.5443 120.626 16.487 120.836 16.1398C120.944 15.9879 121.841 14.6936 122.087 14.3976C122.352 14.0754 122.653 13.7842 122.983 13.5296C123.57 13.1087 124.028 12.5332 124.306 11.8672C124.393 11.6433 124.495 11.4332 124.58 11.2379C124.827 10.8091 124.97 10.3289 125 9.83512C124.981 9.60926 124.875 9.39979 124.703 9.25221C124.531 9.10462 124.307 9.03086 124.081 9.04692C123.769 9.06091 123.463 9.14235 123.185 9.28564C122.888 9.44835 122.569 9.56541 122.238 9.63286H122.172C122.145 9.55638 122.109 9.4835 122.064 9.41585C121.932 9.0576 121.713 8.73742 121.428 8.48356C121.296 8.37306 121.15 8.2808 120.994 8.20925C120.835 8.12245 120.574 7.98529 120.553 7.89154C120.476 7.43023 120.246 7.00795 119.902 6.69189C119.776 6.59916 119.691 6.46233 119.663 6.30908C119.632 5.88196 119.435 5.48389 119.114 5.20057C119.056 5.15041 119.003 5.09458 118.955 5.0339C118.75 4.83477 118.597 4.58792 118.51 4.31532C118.423 4.04272 118.404 3.75281 118.456 3.4714C118.51 3.24157 118.506 3.00221 118.445 2.7742C118.385 2.54618 118.269 2.33644 118.109 2.16325C117.661 1.66411 117.119 1.62071 116.23 2.0912C116.134 2.14932 116.024 2.18161 115.912 2.18495C115.732 2.17624 115.554 2.13964 115.384 2.07644C115.013 1.93012 114.619 1.84935 114.22 1.83772C113.703 1.83147 113.203 2.02591 112.825 2.38026L112.688 2.48877C112.258 2.12627 111.769 1.84029 111.242 1.64328C110.931 1.52783 110.909 1.41238 110.866 1.14415C110.834 0.827325 110.681 0.534941 110.44 0.327308C110.252 0.18093 110.02 0.104224 109.782 0.110294C109.673 0.102625 109.565 0.102625 109.456 0.110294C109.256 0.153326 109.049 0.153326 108.849 0.110294C108.333 -0.0357068 107.788 -0.0357068 107.272 0.110294C106.998 0.176095 106.716 0.210172 106.434 0.211857C106.248 0.223083 106.063 0.223083 105.877 0.211857H105.393C105.094 0.211825 104.797 0.271976 104.521 0.388737C104.246 0.505498 103.996 0.676487 103.788 0.891544C103.481 1.18343 103.263 1.55677 103.159 1.96793C103.137 2.13367 103.068 2.28965 102.961 2.41768C102.853 2.5457 102.711 2.6405 102.552 2.69102C102.158 2.82225 101.797 3.03678 101.493 3.32003C101.19 3.60329 100.951 3.94861 100.792 4.33252C100.709 4.48876 100.607 4.63447 100.488 4.76654C100.246 5.02496 100.07 5.33793 99.9742 5.67897C99.8785 6.02 99.8665 6.37906 99.939 6.72574C100.008 7.13511 99.9149 7.55538 99.6786 7.89675C99.5221 8.10023 99.425 8.34309 99.3982 8.59837C99.3714 8.85366 99.4159 9.11138 99.5267 9.34293C99.6239 9.56205 99.7584 9.76264 99.9242 9.93581L100.474 9.24918C100.411 9.17767 100.36 9.0972 100.322 9.01047C100.206 8.72835 100.257 8.64936 100.423 8.37418C100.756 7.86666 100.888 7.25312 100.792 6.6537C100.741 6.42274 100.747 6.1827 100.81 5.95463C100.873 5.72655 100.991 5.51741 101.153 5.34554C101.316 5.16092 101.454 4.9568 101.566 4.7379C101.68 4.4403 101.861 4.17253 102.094 3.95468C102.327 3.73683 102.606 3.57457 102.91 3.48009C103.193 3.37631 103.444 3.19996 103.638 2.96869C103.831 2.73742 103.961 2.45936 104.013 2.16238C104.067 1.88759 104.204 1.63562 104.403 1.43929C104.531 1.29512 104.688 1.17988 104.864 1.10129C105.039 1.02269 105.23 0.982553 105.422 0.983558H105.835C106.044 1.00802 106.254 1.0202 106.464 1.02002C106.812 1.01827 107.159 0.976917 107.498 0.896752C107.872 0.791769 108.267 0.791769 108.64 0.896752C108.953 0.971228 109.277 0.985954 109.595 0.940155H109.805C109.85 0.925812 109.898 0.925812 109.942 0.940155C109.993 0.983558 110.008 1.04172 110.044 1.22922C110.066 1.49197 110.166 1.74219 110.331 1.94807C110.496 2.15395 110.718 2.3062 110.969 2.38547C111.404 2.56442 111.808 2.80823 112.169 3.10856C112.322 3.24098 112.516 3.31535 112.719 3.31863C112.977 3.30083 113.219 3.18757 113.398 3.00092C113.624 2.79797 113.919 2.68923 114.222 2.6971C114.516 2.70713 114.806 2.76337 115.082 2.86377C115.338 2.95592 115.606 3.00718 115.877 3.01568C116.13 3.01381 116.379 2.94908 116.6 2.82731C116.793 2.70676 117.011 2.63029 117.237 2.60335C117.295 2.60335 117.345 2.60335 117.439 2.71186C117.533 2.82036 117.641 2.94276 117.591 3.3629C117.529 3.76698 117.562 4.17993 117.688 4.56898C117.813 4.95803 118.028 5.31248 118.314 5.60422L118.531 5.82123C118.622 5.89798 118.695 5.99308 118.746 6.10022C118.797 6.20736 118.824 6.32411 118.827 6.44276C118.881 6.77649 119.05 7.08086 119.304 7.303C119.529 7.5009 119.676 7.77288 119.717 8.0695C119.786 8.27901 119.902 8.46998 120.056 8.62781C120.21 8.78564 120.398 8.90614 120.606 8.98008C120.703 9.02283 120.795 9.0761 120.88 9.13894C121.063 9.31007 121.202 9.52343 121.284 9.76047C121.338 9.96165 121.455 10.1404 121.618 10.2705C121.78 10.4006 121.98 10.4752 122.188 10.4836H122.362C122.776 10.4035 123.175 10.2622 123.547 10.0643C124.047 9.83338 124.169 9.91238 124.14 9.92713C124.06 10.2581 123.941 10.5785 123.786 10.882C123.699 11.0843 123.598 11.3082 123.504 11.533C123.278 12.0673 122.907 12.5279 122.434 12.8629C122.071 13.1584 121.741 13.4929 121.45 13.8603C121.168 14.2075 120.243 15.5374 120.156 15.6528C119.964 15.8822 119.852 16.1676 119.837 16.466C119.821 16.7645 119.903 17.0601 120.069 17.3082C120.226 17.5837 120.334 17.8845 120.387 18.1971V18.3421C120.532 19.1589 120.64 19.7882 119.664 20.3447C119.23 20.5401 118.865 20.8607 118.615 21.2652C118.365 21.6696 118.242 22.1395 118.261 22.6146C118.261 22.9471 118.261 23.0704 118.124 23.1789L117.943 23.3525C117.436 23.8418 116.971 24.3738 116.554 24.9428C116.33 25.2523 116.089 25.5491 115.831 25.8316C115.325 26.3525 115.008 26.461 114.826 26.461C114.778 26.4719 114.729 26.4719 114.681 26.461C114.505 26.3978 114.319 26.366 114.132 26.3672C113.886 26.3753 113.642 26.4192 113.409 26.4974C113.295 26.5394 113.175 26.5662 113.054 26.5773C113.01 26.5896 112.962 26.5896 112.917 26.5773C112.737 26.454 112.679 26.2518 112.585 25.8542C112.456 25.2118 112.189 24.605 111.804 24.0756C111.745 23.9927 111.704 23.8984 111.684 23.7988C111.664 23.6992 111.666 23.5965 111.688 23.4974C111.399 23.557 111.107 23.6005 110.813 23.6277C110.799 23.9749 110.903 24.3166 111.109 24.5964C111.423 25.0268 111.64 25.5202 111.745 26.0426C111.774 26.2882 111.854 26.5253 111.978 26.7391C112.102 26.9529 112.269 27.139 112.468 27.2856C112.649 27.4104 112.864 27.4762 113.083 27.474C113.29 27.467 113.495 27.428 113.691 27.3586C113.919 27.2588 114.174 27.241 114.414 27.3082C115.035 27.5322 115.722 27.3082 116.488 26.4983C116.774 26.191 117.042 25.8675 117.291 25.5296C117.722 24.9373 118.206 24.3853 118.737 23.8803C118.891 23.7269 119.009 23.5407 119.082 23.3353C119.155 23.13 119.18 22.911 119.156 22.6945C119.156 22.1954 119.156 21.7188 120.14 21.1476C120.638 20.8576 121.02 20.4029 121.22 19.8617C121.419 19.3205 121.424 18.7267 121.233 18.1823Z" fill="white"/>
<path d="M15.8248 7.54863C14.3596 6.56092 12.6068 6.09019 10.8439 6.21096H10.3525C9.68761 6.21096 8.75532 6.21096 7.54785 6.27606H6.82476C5.54525 6.27606 4.56782 6.27606 3.93327 6.21096L3.86816 6.65193C4.28014 6.62003 4.69291 6.70265 5.06087 6.89064C5.17314 6.97263 5.26218 7.08238 5.31924 7.20915C5.37631 7.33591 5.39945 7.47533 5.38639 7.61373C5.36937 7.93818 5.30954 8.25896 5.20844 8.56773L2.27702 19.513C2.17516 19.9322 2.02271 20.3373 1.82303 20.7196C1.68561 20.9609 1.46447 21.1435 1.2015 21.2327C0.833089 21.3446 0.451039 21.4053 0.0660807 21.4132L0.000976562 21.8472C0.781648 21.8038 1.88784 21.7821 3.31955 21.7821C3.96278 21.7821 4.71452 21.7821 5.56782 21.8255H6.93327C8.92602 21.8422 10.8856 21.3149 12.6008 20.3004C14.171 19.3643 15.452 18.0124 16.3022 16.3941C17.11 14.8756 17.5366 13.1835 17.5452 11.4636C17.5901 10.7207 17.4574 9.97793 17.1583 9.29656C16.8591 8.61519 16.402 8.01483 15.8248 7.54516V7.54863ZM13.0921 15.8551C12.583 17.3805 11.7153 18.7615 10.5617 19.882C9.59079 20.832 8.30192 21.3882 6.94455 21.4427H6.51053C6.26102 21.4577 6.01189 21.4078 5.78744 21.2978C5.70169 21.239 5.63311 21.1586 5.58872 21.0646C5.54433 20.9706 5.52573 20.8666 5.53483 20.763C5.58549 20.3517 5.66998 19.9452 5.78744 19.5478L8.67546 8.50957C8.77252 8.0847 8.90553 7.66885 9.07302 7.26651C9.16445 7.04808 9.32439 6.86529 9.52875 6.74568C9.79594 6.63386 10.0851 6.58429 10.3742 6.60071C10.8778 6.55702 11.3847 6.62946 11.8559 6.81245C12.3271 6.99545 12.75 7.28413 13.0921 7.65627C13.7314 8.56719 14.0354 9.67148 13.9524 10.7813C13.9564 12.5092 13.6655 14.2251 13.0921 15.8551Z" fill="white"/>
<path d="M29.6402 10.1145C28.5864 10.3319 27.5139 10.4456 26.438 10.4539L26.1124 11.5598C26.1 11.1665 25.949 10.7902 25.6862 10.4973C25.5591 10.3731 25.4087 10.2753 25.2436 10.2096C25.0785 10.1439 24.9021 10.1116 24.7244 10.1145C23.522 10.1912 22.3932 10.7206 21.5656 11.5963C20.4489 12.64 19.544 13.8894 18.9006 15.276C18.2431 16.5687 17.8848 17.9927 17.852 19.4426C17.8085 20.1648 18.0325 20.8778 18.4814 21.4452C18.7163 21.6943 19.0034 21.8883 19.3222 22.0134C19.641 22.1384 19.9835 22.1913 20.3251 22.1683C21.0639 22.1725 21.7805 21.9165 22.3494 21.4452C23.0801 20.7959 23.6516 19.9871 24.0196 19.0815C23.8927 19.5042 23.8246 19.9423 23.8173 20.3836C23.7924 20.7768 23.902 21.1668 24.1281 21.4895C24.3221 21.7304 24.573 21.9193 24.8582 22.0392C25.1433 22.159 25.4539 22.2061 25.7617 22.1761C26.3742 22.1774 26.9723 21.9908 27.4753 21.6414C28.0645 21.2059 28.4937 20.5884 28.6966 19.8845L29.2531 18.2725H28.8338L28.4362 19.335C28.0387 20.4912 27.5829 21.0772 27.063 21.0772C26.7887 21.0772 26.6437 20.9183 26.6437 20.5928C26.6522 20.3817 26.6887 20.1727 26.7522 19.9713L29.6402 10.1145ZM25.8807 12.3914L24.8972 15.8975L25.0057 15.3697C24.7584 16.4045 24.4146 17.4139 23.9788 18.3845C23.885 18.5945 23.7834 18.7968 23.6897 18.9773C23.448 19.4601 23.1518 19.9136 22.8069 20.3289C22.6852 20.5094 22.5271 20.6625 22.3428 20.7784C22.1585 20.8942 21.952 20.9703 21.7366 21.0016C21.634 21.0042 21.5331 20.9751 21.4477 20.9182C21.3622 20.8614 21.2964 20.7796 21.2591 20.6839C21.1445 20.3444 21.0953 19.9862 21.1142 19.6284C21.131 18.2905 21.358 16.9635 21.7869 15.6961C22.1627 14.4841 22.7156 13.3342 23.4275 12.2838C24.0638 11.3871 24.635 10.9322 25.1411 10.9322C25.251 10.9275 25.3602 10.9518 25.4579 11.0025C25.5555 11.0532 25.6381 11.1287 25.6975 11.2213C25.7655 11.3303 25.8145 11.45 25.8425 11.5754C25.8758 11.7347 25.8927 11.8971 25.8928 12.0598C25.8943 12.1713 25.8847 12.2827 25.8642 12.3923L25.8807 12.3914Z" fill="white"/>
<path d="M37.593 5.13368C37.2487 4.87468 36.8234 4.74667 36.3933 4.77257C35.8171 4.75175 35.2525 4.9391 34.8031 5.30035C34.5904 5.47572 34.4202 5.69688 34.305 5.94731C34.1899 6.19774 34.1328 6.47095 34.1381 6.74653C34.1132 6.9386 34.1342 7.13385 34.1996 7.31618C34.2649 7.49851 34.3727 7.66268 34.514 7.79514C34.8544 8.07574 35.2892 8.2155 35.7293 8.18576C36.3268 8.20323 36.9094 7.99707 37.363 7.60764C37.5745 7.43097 37.7439 7.20928 37.8587 6.95878C37.9736 6.70828 38.0311 6.43528 38.027 6.15972C38.0396 5.96658 38.0069 5.77316 37.9316 5.59488C37.8562 5.4166 37.7403 5.25837 37.593 5.13281V5.13368Z" fill="white"/>
<path d="M36.1463 13.2086C36.3066 12.7931 36.3898 12.3519 36.3919 11.9065C36.4125 11.4313 36.2464 10.9668 35.9293 10.6122C35.7345 10.4357 35.5058 10.3007 35.2572 10.2153C35.0086 10.1299 34.7452 10.0961 34.4831 10.1157C33.7889 10.09 33.1066 10.3014 32.5486 10.715C31.9905 11.1287 31.5899 11.7201 31.4128 12.3918L30.7982 14.0688H31.2174L31.6584 12.9482C31.8278 12.4671 32.0718 12.0157 32.3815 11.6105C32.4619 11.4905 32.569 11.3907 32.6945 11.3192C32.82 11.2476 32.9604 11.2062 33.1046 11.1982C33.372 11.1982 33.5022 11.3501 33.5022 11.6392C33.4448 11.8622 33.3624 12.0779 33.2565 12.2824L31.0864 18.6444C30.8824 19.1808 30.77 19.7477 30.7539 20.3215C30.7539 21.5428 31.4188 22.1574 32.7635 22.1574C33.4468 22.1816 34.1173 21.9678 34.6606 21.5525C35.2038 21.1373 35.5859 20.5463 35.7418 19.8805L36.3199 18.2685H35.9006L35.503 19.331C35.3431 19.8249 35.0984 20.2873 34.78 20.6973C34.7014 20.8046 34.6007 20.8938 34.4846 20.9586C34.3685 21.0235 34.2398 21.0626 34.1072 21.0732C33.8112 21.0732 33.6662 20.9213 33.6662 20.6105C33.6776 20.3909 33.7215 20.1741 33.7964 19.9673L36.1463 13.2086Z" fill="white"/>
<path d="M42.4129 19.8774L42.9694 18.2654H42.5431L42.1456 19.3279C41.7194 20.492 41.2775 21.0701 40.8227 21.0701C40.5119 21.0701 40.36 20.8895 40.36 20.5206C40.3617 20.3319 40.3909 20.1445 40.4468 19.9642L45.0883 4.28711C44.3154 4.58019 43.5168 4.80048 42.7029 4.9451C41.7982 5.10415 40.8818 5.18633 39.9633 5.19076L39.8114 5.65343C40.2076 5.62382 40.605 5.69333 40.9676 5.85569C41.0788 5.91859 41.1697 6.01183 41.2298 6.12451C41.2899 6.23718 41.3167 6.36463 41.307 6.49197C41.2969 6.70285 41.2604 6.91164 41.1985 7.1135L37.7263 18.6803C37.5648 19.1806 37.477 19.7017 37.4659 20.2272C37.4492 20.4899 37.4853 20.7532 37.5723 21.0016C37.6592 21.25 37.7951 21.4785 37.972 21.6734C38.1739 21.858 38.4114 21.9994 38.67 22.089C38.9285 22.1785 39.2026 22.2143 39.4754 22.1942C40.0941 22.1865 40.696 21.9926 41.2029 21.6378C41.7916 21.2027 42.2177 20.5829 42.4129 19.8774Z" fill="white"/>
<path d="M52.8163 10.1149C52.6181 10.106 52.4201 10.138 52.2348 10.209C52.0494 10.2799 51.8807 10.3882 51.739 10.5272C51.6003 10.6721 51.4923 10.8435 51.4215 11.0311C51.3506 11.2188 51.3184 11.4188 51.3267 11.6192C51.3139 12.2045 51.5085 12.7755 51.8762 13.2312C52.2609 13.7451 52.7548 14.1673 53.3224 14.4673C53.0722 15.4268 52.7231 16.3577 52.2807 17.2451C51.796 18.2331 51.2356 19.1821 50.6045 20.0836L49.6357 12.5072C49.5931 11.828 49.3404 11.1788 48.9126 10.6496C48.7196 10.4683 48.4921 10.3276 48.2437 10.2357C47.9953 10.1439 47.731 10.1028 47.4665 10.1149C46.8891 10.1015 46.324 10.2821 45.8614 10.6279C45.3285 11.0966 44.9418 11.709 44.7477 12.3918L44.1913 14.0037H44.6149L45.0125 12.9265C45.1446 12.474 45.3214 12.0358 45.5403 11.6183C45.5843 11.5293 45.6495 11.4525 45.7302 11.3945C45.8109 11.3365 45.9045 11.2992 46.0029 11.2859C46.0754 11.2854 46.1465 11.3056 46.208 11.344C46.2695 11.3825 46.3188 11.4375 46.3502 11.5029C46.4645 11.7656 46.5422 12.0428 46.5811 12.3267L48.3015 22.8883C47.4553 23.7189 46.4785 24.4051 45.41 24.9195C45.1751 24.4893 44.8363 24.1246 44.4246 23.8586C44.0129 23.5925 43.5412 23.4336 43.0524 23.3961C42.6497 23.3817 42.2567 23.5214 41.9534 23.7867C41.8154 23.9083 41.7057 24.0587 41.632 24.2273C41.5584 24.3958 41.5226 24.5785 41.5272 24.7624C41.5205 24.935 41.5534 25.1069 41.6235 25.2648C41.6937 25.4227 41.7991 25.5623 41.9317 25.673C42.2573 25.9061 42.6525 26.0216 43.0524 26.0003C43.5883 25.9811 44.1168 25.8698 44.6149 25.6713C45.6224 25.319 46.5652 24.8038 47.4057 24.1461C48.3208 23.4459 49.1549 22.6458 49.8927 21.7607C51.1254 20.27 52.1582 18.6247 52.9647 16.8666C53.7253 15.3976 54.1636 13.7833 54.2503 12.1313C54.2764 10.7867 53.792 10.1149 52.8163 10.1149Z" fill="white"/>
<path d="M64.5929 6.10229H60.8707L55.1953 21.8254V21.9052H58.7014L59.6562 19.2091H66.0182L66.9575 21.8688H70.2899L64.6076 6.1457L64.5929 6.10229ZM60.7257 16.2013L62.8368 10.2447L64.9549 16.2013H60.7257Z" fill="white"/>
<path d="M75.4801 9.27517C75.4801 8.45833 75.863 8.05382 76.6581 8.05382C76.8171 8.04363 76.9765 8.04363 77.1355 8.05382H77.2076V5.27083L76.2171 5.22048C75.1546 5.16966 74.1151 5.54133 73.3256 6.25434C72.9464 6.67025 72.6559 7.15908 72.4719 7.691C72.2879 8.22291 72.2142 8.78675 72.2553 9.34809V10.2161H70.5713V12.8038H72.2267V21.9054H75.4801V12.8038H77.2727V10.2161H75.4801V9.27517Z" fill="white"/>
<path d="M82.0011 11.5599V10.2153H78.9863V21.9045H82.2398V16.1215C82.1726 15.3084 82.4154 14.5 82.9195 13.8585C83.1928 13.6043 83.5155 13.409 83.8674 13.2846C84.2194 13.1602 84.5931 13.1094 84.9655 13.1354C85.1697 13.1371 85.3732 13.1589 85.5731 13.2005H85.6452V10.1163H85.2112C84.5973 10.0669 83.9809 10.1736 83.4193 10.4265C82.8578 10.6793 82.3693 11.0701 81.9993 11.5625L82.0011 11.5599Z" fill="white"/>
<path d="M90.1341 4.93063C89.8667 4.91625 89.5994 4.95915 89.35 5.05645C89.1006 5.15376 88.8748 5.30324 88.6879 5.49487C88.5181 5.68351 88.3874 5.9039 88.3032 6.14332C88.219 6.38274 88.1831 6.63645 88.1974 6.88983C88.2105 7.27414 88.3339 7.64657 88.553 7.9626C88.772 8.27864 89.0774 8.52493 89.4327 8.67204C89.788 8.81915 90.1781 8.86086 90.5565 8.79219C90.9348 8.72352 91.2854 8.54738 91.5663 8.2848C91.7484 8.10216 91.8911 7.88415 91.9856 7.64423C92.0801 7.4043 92.1244 7.14756 92.1158 6.88983C92.1239 6.63036 92.0787 6.37199 91.9831 6.13064C91.8875 5.88929 91.7435 5.67008 91.5599 5.48652C91.3764 5.30295 91.1572 5.15893 90.9158 5.06333C90.6745 4.96773 90.4161 4.92257 90.1566 4.93063H90.1341Z" fill="white"/>
<path d="M87.1123 13.0278H88.5073V21.9045H91.7607V10.2153H87.1123V13.0278Z" fill="white"/>
<path d="M103.163 12.9342L103.987 11.9941L105.555 10.2154H101.463L101.376 10.3239L100.711 11.1477L97.326 15.3621V5.22064H94.0742V21.9055H97.3277V19.2814L99.0117 17.3717L101.99 21.9047H105.843L101.166 15.2033L103.163 12.9342Z" fill="white"/>
<path d="M113.599 20.7562V21.9055H116.491V14.3178C116.524 13.7178 116.424 13.1179 116.199 12.5607C115.974 12.0035 115.629 11.5027 115.189 11.0939C114.091 10.2592 112.726 9.85311 111.35 9.95152C109.971 9.84974 108.602 10.2646 107.512 11.1156C107.403 11.2095 107.302 11.311 107.208 11.4194C106.544 12.1266 106.144 13.04 106.073 14.0071V14.0652H109.29V14.0149C109.315 13.7705 109.402 13.5366 109.542 13.3352C109.752 13.0846 110.022 12.891 110.326 12.7722C110.631 12.6534 110.96 12.6132 111.284 12.6555C112.636 12.6555 113.302 13.1685 113.302 14.2319V14.6581H111.06C110.647 14.6472 110.234 14.6667 109.824 14.7163C109.535 14.7376 109.248 14.7762 108.964 14.8317C108.307 14.9452 107.679 15.1912 107.12 15.5548C106.672 15.884 106.317 16.3229 106.088 16.8293C105.859 17.3358 105.764 17.8926 105.812 18.4463C105.791 18.9413 105.869 19.4355 106.042 19.8998C106.214 20.3642 106.478 20.7893 106.817 21.1503C107.239 21.5266 107.732 21.8136 108.268 21.9938C108.803 22.174 109.37 22.2438 109.933 22.1989H110.395C110.712 22.1876 111.026 22.149 111.336 22.0835C112.234 21.9551 113.046 21.4803 113.599 20.7605L113.599 20.7562ZM109.985 19.5635C109.699 19.5443 109.433 19.4138 109.243 19.2002C109.052 18.9866 108.954 18.7069 108.967 18.4211C108.94 18.2068 108.984 17.9895 109.092 17.8026C109.201 17.6158 109.368 17.4698 109.567 17.3873C109.779 17.3035 110 17.2475 110.225 17.2206C110.522 17.1722 110.822 17.1455 111.122 17.1407H113.292V17.2128C113.338 17.8696 113.126 18.5184 112.699 19.0201C112.191 19.4464 111.539 19.6636 110.876 19.6277H110.652C110.428 19.6292 110.205 19.6076 109.985 19.5635Z" fill="white"/>
</g>
<defs>
<clipPath id="clip0">
<rect width="125" height="27.4722" fill="white"/>
</clipPath>
</defs>
</svg>
