<svg width="100" height="29" viewBox="0 0 100 29" fill="none" xmlns="http://www.w3.org/2000/svg">
<path d="M26.7894 0H3.37637C2.4809 0 1.62211 0.355723 0.988915 0.988914C0.355723 1.62211 0 2.4809 0 3.37637L0 25.6054C0 26.0488 0.0873323 26.4878 0.257011 26.8975C0.426689 27.3071 0.67539 27.6793 0.988915 27.9928C1.30244 28.3064 1.67465 28.5551 2.08429 28.7247C2.49393 28.8944 2.93298 28.9817 3.37637 28.9817H26.7894C27.2328 28.9817 27.6718 28.8944 28.0815 28.7247C28.4911 28.5551 28.8633 28.3064 29.1769 27.9928C29.4904 27.6793 29.7391 27.3071 29.9088 26.8975C30.0784 26.4878 30.1658 26.0488 30.1658 25.6054V3.37637C30.1658 2.4809 29.81 1.62211 29.1769 0.988914C28.5437 0.355723 27.6849 0 26.7894 0V0ZM23.0846 12.5582L22.0075 18.9061C21.8386 19.9678 21.2969 20.9347 20.4797 21.6332C19.6879 22.3652 18.6477 22.7693 17.5693 22.7637H6.59996L8.34925 12.5582H23.0846ZM23.5123 10.0756L23.3214 11.1833H8.58605L9.4416 6.21801H20.4262C20.8509 6.19819 21.2748 6.269 21.67 6.42574C22.0651 6.58247 22.4223 6.82154 22.7179 7.12703C23.0114 7.43033 23.241 7.78942 23.3932 8.18305C23.5454 8.57668 23.6171 8.99685 23.604 9.41868C23.6014 9.63864 23.5835 9.85814 23.5505 10.0756" fill="white"/>
<path d="M42.5404 14.338C42.5862 17.088 40.9133 19.8685 37.1092 19.8685H32.8467V8.99847H37.1168C40.8445 8.99847 42.5022 11.6568 42.548 14.3457L42.5404 14.338ZM34.9092 17.9054H37.1473C39.6147 17.9054 40.5925 16.1026 40.5466 14.3304C40.5686 13.8789 40.4957 13.4277 40.3324 13.0062C40.1692 12.5846 39.9193 12.202 39.5989 11.8831C39.2785 11.5641 38.8948 11.316 38.4725 11.1546C38.0502 10.9933 37.5988 10.9223 37.1473 10.9464H34.871L34.9092 17.9054Z" fill="white"/>
<path d="M49.2018 12.222H51.0199V19.8608H49.2324L49.1407 18.7379C48.8764 19.1562 48.5096 19.5 48.0751 19.7366C47.6406 19.9732 47.1528 20.0949 46.6581 20.09C44.3664 20.09 42.7088 18.7074 42.7088 16.0261C42.6665 15.4901 42.7407 14.9512 42.9263 14.4464C43.1119 13.9417 43.4045 13.4832 43.7841 13.1022C44.1636 12.7212 44.6211 12.4268 45.1251 12.2393C45.6291 12.0518 46.1677 11.9755 46.7039 12.0158C47.1826 11.9978 47.658 12.1028 48.0846 12.3208C48.5111 12.5388 48.8748 12.8624 49.1407 13.2609L49.2018 12.222ZM44.6185 16.0414C44.6 16.3489 44.6464 16.6569 44.7545 16.9454C44.8626 17.2339 45.0301 17.4964 45.2461 17.7161C45.4621 17.9357 45.7219 18.1075 46.0086 18.2204C46.2952 18.3333 46.6024 18.3847 46.9102 18.3713C49.8893 18.3713 49.8893 13.7269 46.9102 13.7269C46.6052 13.7115 46.3003 13.7603 46.0154 13.87C45.7304 13.9798 45.4716 14.1481 45.2556 14.364C45.0397 14.5799 44.8714 14.8387 44.7617 15.1237C44.652 15.4087 44.6032 15.7135 44.6185 16.0185" fill="white"/>
<path d="M52.4636 19.861V13.9791H51.0352V12.3215H52.4636V11.8097C52.4314 11.4148 52.4841 11.0176 52.6182 10.6449C52.7524 10.2721 52.9649 9.93237 53.2414 9.64863C53.5179 9.36489 53.852 9.14369 54.2212 8.99994C54.5904 8.85619 54.9861 8.79322 55.3817 8.81527C56.0895 8.82589 56.7791 9.04075 57.3677 9.43402L56.665 10.8472C56.3283 10.5969 55.9232 10.4556 55.5039 10.4423C54.8469 10.4423 54.3504 10.8778 54.3504 11.8097V12.3215H56.6039V13.9791H54.3504V19.861H52.4636Z" fill="white"/>
<path d="M58.9182 12.2221L59.0557 13.1006C59.2791 12.7362 59.5999 12.4415 59.9819 12.2498C60.3639 12.0581 60.7919 11.9771 61.2175 12.0159C61.9473 12.013 62.6512 12.2858 63.1883 12.7797L62.3328 14.3839C62.1498 14.2137 61.9345 14.082 61.6996 13.9967C61.4647 13.9114 61.215 13.8742 60.9654 13.8874C60.7063 13.8646 60.4453 13.8994 60.2011 13.9893C59.957 14.0792 59.7357 14.2219 59.5532 14.4074C59.3707 14.5928 59.2315 14.8163 59.1455 15.0618C59.0595 15.3073 59.0288 15.5689 59.0557 15.8276V19.8609H57.1689V12.2221H58.9182Z" fill="white"/>
<path d="M65.1895 10.0526C65.1895 10.3484 65.072 10.6321 64.8629 10.8413C64.6537 11.0504 64.37 11.1679 64.0743 11.1679C63.7785 11.1679 63.4948 11.0504 63.2856 10.8413C63.0765 10.6321 62.959 10.3484 62.959 10.0526C62.959 9.75686 63.0765 9.47319 63.2856 9.26403C63.4948 9.05488 63.7785 8.93738 64.0743 8.93738C64.37 8.93738 64.6537 9.05488 64.8629 9.26403C65.072 9.47319 65.1895 9.75686 65.1895 10.0526ZM63.127 19.8609H65.0215V12.2221H63.127V19.8609Z" fill="white"/>
<path d="M74.9219 12.1533C74.9293 12.604 74.7985 13.0461 74.5473 13.4202C74.296 13.7944 73.9362 14.0827 73.5163 14.2464C74.0141 14.4307 74.4453 14.7599 74.7543 15.1915C75.0633 15.623 75.2361 16.1372 75.2503 16.6679C75.2503 19.097 73.4323 19.8609 71.1865 19.8609H66.0303V8.99847H71.1865C73.3254 8.99847 74.9219 9.96097 74.9219 12.1533ZM68.0469 13.3602H71.1865C72.4698 13.3602 72.8899 12.8179 72.8899 12.1991C72.8899 11.7026 72.4851 10.8624 71.1865 10.8624H68.0469V13.3602ZM68.0469 17.9435H71.1865C72.0191 17.9435 73.2184 17.6609 73.2184 16.6373C73.2184 15.6137 72.0191 15.1477 71.1865 15.1477H68.0469V17.9435Z" fill="white"/>
<path d="M81.8502 12.2222H83.6682V19.861H81.8808L81.7891 18.7381C81.5243 19.1559 81.1574 19.4992 80.723 19.7358C80.2886 19.9724 79.8011 20.0943 79.3065 20.0902C77.0148 20.0902 75.3572 18.7075 75.3572 16.0263C75.3151 15.4909 75.3891 14.9527 75.5743 14.4486C75.7594 13.9445 76.0513 13.4863 76.43 13.1054C76.8087 12.7246 77.2652 12.4301 77.7682 12.242C78.2713 12.054 78.809 11.9768 79.3447 12.0159C79.8245 11.9974 80.3012 12.1021 80.7291 12.3201C81.157 12.538 81.5219 12.862 81.7891 13.2611L81.8502 12.2222ZM77.2669 16.0416C77.2472 16.3494 77.2927 16.6579 77.4004 16.9469C77.5081 17.236 77.6755 17.499 77.8918 17.7189C78.1081 17.9388 78.3683 18.1106 78.6555 18.223C78.9428 18.3355 79.2505 18.386 79.5586 18.3714C82.5377 18.3714 82.5377 13.727 79.5586 13.727C79.2536 13.7117 78.9487 13.7605 78.6638 13.8702C78.3788 13.9799 78.12 14.1482 77.904 14.3642C77.6881 14.5801 77.5198 14.8389 77.4101 15.1239C77.3003 15.4089 77.2516 15.7137 77.2669 16.0187" fill="white"/>
<path d="M90.1384 19.8609V15.8581C90.1702 15.5985 90.1458 15.3351 90.0669 15.0857C89.9881 14.8363 89.8565 14.6068 89.6812 14.4127C89.5059 14.2186 89.291 14.0644 89.0509 13.9606C88.8108 13.8567 88.5513 13.8057 88.2898 13.8109C88.0195 13.8186 87.7536 13.8806 87.5077 13.9931C87.2619 14.1056 87.0412 14.2665 86.8588 14.466C86.6763 14.6655 86.5359 14.8997 86.4458 15.1546C86.3557 15.4095 86.3177 15.6799 86.3342 15.9498V19.8609H84.4551V12.2221H86.1509L86.2731 13.2609C86.59 12.9065 86.977 12.6217 87.4096 12.4245C87.8421 12.2273 88.3109 12.1219 88.7863 12.1151C90.5891 12.1151 92.0328 13.4595 92.0328 15.8658V19.8609H90.1384Z" fill="white"/>
<path d="M94.7216 9.01385V15.2853L97.2959 12.2145H99.5646V12.3215L96.4403 15.8124L100 19.7235V19.8686H97.716L94.7216 16.4082V19.8686H92.8271V9.01385H94.7216Z" fill="white"/>
<path d="M50.4846 22.1985C50.4946 22.3165 50.477 22.4352 50.4333 22.5452C50.3895 22.6553 50.3208 22.7536 50.2325 22.8325C50.1442 22.9104 50.0414 22.9701 49.93 23.0081C49.8186 23.0461 49.7007 23.0617 49.5832 23.0541C49.4433 23.0628 49.303 23.0628 49.1631 23.0541V21.4575C49.3236 21.4199 49.4873 21.3969 49.652 21.3888C49.8732 21.3769 50.0917 21.4416 50.2707 21.5721C50.351 21.6483 50.4138 21.7411 50.4547 21.844C50.4955 21.9469 50.5136 22.0574 50.5075 22.1679L50.4846 22.1985ZM50.202 22.1679C50.2065 22.0971 50.1966 22.0261 50.173 21.9591C50.1494 21.8922 50.1124 21.8307 50.0645 21.7784C50.0142 21.7292 49.9543 21.691 49.8886 21.666C49.8229 21.6411 49.7527 21.6299 49.6825 21.6332C49.6141 21.6244 49.5447 21.6244 49.4763 21.6332V22.7332H49.6596C49.7353 22.7369 49.8109 22.7238 49.8809 22.6947C49.951 22.6657 50.0136 22.6214 50.0645 22.5652C50.1609 22.4411 50.2097 22.2867 50.202 22.1298" fill="white"/>
<path d="M52.1887 21.4421H51.8984V23.031H52.1887V21.4421Z" fill="white"/>
<path d="M54.9993 22.9165C54.8357 22.9982 54.6551 23.0401 54.4722 23.0388C54.3619 23.0445 54.2515 23.0279 54.1478 22.9898C54.0441 22.9517 53.9491 22.893 53.8687 22.8172C53.7884 22.741 53.7257 22.6482 53.6848 22.5454C53.6439 22.4425 53.6259 22.3319 53.6319 22.2214C53.6238 22.1102 53.6401 21.9985 53.6796 21.8943C53.7192 21.79 53.7812 21.6957 53.8611 21.6179C53.9433 21.5429 54.0398 21.4853 54.1448 21.4485C54.2498 21.4118 54.3612 21.3966 54.4722 21.404C54.6355 21.409 54.7962 21.4454 54.9458 21.511L54.8465 21.7478C54.7213 21.6917 54.5864 21.6605 54.4493 21.6561C54.3801 21.652 54.3109 21.6628 54.2463 21.6878C54.1817 21.7129 54.1233 21.7516 54.075 21.8013C53.9803 21.9083 53.931 22.0481 53.9375 22.1908C53.9313 22.344 53.9771 22.4947 54.0673 22.6186C54.1185 22.6745 54.1812 22.7184 54.2512 22.7474C54.3211 22.7765 54.3966 22.7899 54.4722 22.7867C54.5578 22.7882 54.643 22.7752 54.7243 22.7485C54.7209 22.7231 54.7209 22.6974 54.7243 22.6721V22.1832H54.9993V22.9165Z" fill="white"/>
<path d="M56.7336 21.4421H56.4434V23.031H56.7336V21.4421Z" fill="white"/>
<path d="M59.3078 21.6942H58.8113V23.031H58.5286V21.6942H58.0703V21.4421H59.3078V21.6942Z" fill="white"/>
<path d="M61.8744 23.031H61.546L61.3932 22.6262H60.7897L60.6293 23.031H60.3467L60.996 21.4421H61.271L61.8744 23.031ZM61.3015 22.3741L61.0953 21.8394L60.889 22.3741H61.3015Z" fill="white"/>
<path d="M64.174 23.031H63.2344V21.4421H63.5247V22.7789H64.174V23.031Z" fill="white"/>
<path d="M68.2913 22.5882C68.2913 22.9013 68.0698 23.0541 67.6267 23.0541C67.4935 23.0517 67.3607 23.0389 67.2295 23.0159V21.4882C67.3602 21.4593 67.493 21.4414 67.6267 21.4347C68.0316 21.4347 68.2378 21.5875 68.2378 21.8854C68.2384 21.9599 68.2142 22.0324 68.1691 22.0916C68.1261 22.1514 68.0681 22.1988 68.001 22.2291C68.0862 22.2486 68.1618 22.2972 68.2149 22.3666C68.2672 22.4372 68.2941 22.5233 68.2913 22.6111V22.5882ZM67.9399 21.9007C67.9431 21.8657 67.9361 21.8305 67.9199 21.7994C67.9036 21.7682 67.8787 21.7424 67.8482 21.725C67.7832 21.697 67.7127 21.6839 67.642 21.6868H67.5198V22.0916H67.6573C67.8482 22.0916 67.9399 22.0229 67.9399 21.8854V21.9007ZM67.9934 22.5805C67.9934 22.4201 67.8864 22.3437 67.6649 22.3437H67.5198V22.7944H67.6496C67.8788 22.7944 67.9934 22.718 67.9934 22.5652" fill="white"/>
<path d="M71.0949 23.031H70.7741L70.6137 22.6262H70.0102L69.8498 23.031H69.5137L70.163 21.4421H70.438L71.0949 23.031ZM70.522 22.3741L70.3158 21.8394L70.1095 22.3741H70.522Z" fill="white"/>
<path d="M73.8215 23.0081C73.7684 23.0315 73.7114 23.0445 73.6534 23.0463C73.5855 23.0474 73.5189 23.0285 73.4618 22.9917C73.4047 22.955 73.3597 22.9023 73.3326 22.84L72.7444 21.8241C72.7458 21.8063 72.7458 21.7884 72.7444 21.7706V23.031H72.4541V21.4421H72.8819L73.5312 22.6185V22.6873V21.4421H73.8138V23.0081H73.8215Z" fill="white"/>
<path d="M76.5488 23.031H76.1745L75.7009 22.4657C75.6713 22.4245 75.6352 22.3884 75.594 22.3588V23.031H75.3037V21.4421H75.6245V22.0609L76.1745 21.4421H76.5488L75.8461 22.206C75.8844 22.2162 75.9173 22.2408 75.9377 22.2748L76.5488 23.031Z" fill="white"/>
<path d="M81.0327 22.2365C81.0399 22.4466 80.9722 22.6523 80.8417 22.8171C80.773 22.8965 80.687 22.9592 80.5904 23.0002C80.4937 23.0413 80.3889 23.0596 80.284 23.0539C80.1823 23.0588 80.0807 23.0407 79.9868 23.0011C79.8929 22.9614 79.8091 22.9011 79.7417 22.8247C79.6158 22.6559 79.5479 22.4509 79.5479 22.2404C79.5479 22.0298 79.6158 21.8248 79.7417 21.656C79.8104 21.5765 79.8964 21.5139 79.993 21.4728C80.0897 21.4318 80.1945 21.4134 80.2993 21.4192C80.4031 21.4135 80.5067 21.4319 80.6022 21.473C80.6976 21.514 80.7822 21.5767 80.8493 21.656C80.9798 21.8207 81.0475 22.0265 81.0403 22.2365H81.0327ZM80.7271 22.2365C80.7345 22.0996 80.6999 21.9636 80.6278 21.847C80.5945 21.7886 80.5451 21.741 80.4855 21.7099C80.4259 21.6787 80.3587 21.6653 80.2917 21.6713C80.225 21.6671 80.1584 21.6813 80.0992 21.7123C80.0399 21.7432 79.9903 21.7898 79.9556 21.847C79.8909 21.9664 79.8593 22.1008 79.8639 22.2365C79.8565 22.3735 79.8911 22.5094 79.9632 22.6261C79.9991 22.6821 80.049 22.7278 80.1079 22.7586C80.1669 22.7894 80.2329 22.8043 80.2993 22.8018C80.3649 22.8054 80.4302 22.7909 80.4881 22.7599C80.5461 22.7289 80.5944 22.6826 80.6278 22.6261C80.6999 22.5094 80.7345 22.3735 80.7271 22.2365Z" fill="white"/>
<path d="M83.363 21.6942H82.7289V22.0838H83.256V22.3206H82.7289V23.031H82.4463V21.4421H83.363V21.6942Z" fill="white"/>
<path d="M87.8461 23.031H87.5253L87.3649 22.6262H86.7614L86.6086 23.031H86.3184L86.9677 21.4421H87.2427L87.8461 23.031ZM87.2732 22.3741L87.067 21.8394L86.8607 22.3741H87.2732Z" fill="white"/>
<path d="M90.1081 21.6942H89.4817V22.0838H90.0088V22.3206H89.4817V23.031H89.1914V21.4421H90.1081V21.6942Z" fill="white"/>
<path d="M92.6668 23.0312H92.3307L92.0099 22.4965L91.9335 22.3971H91.7807V23.0388H91.498V21.511C91.6311 21.482 91.7667 21.4666 91.9029 21.4652C92.3154 21.4652 92.5217 21.6256 92.5217 21.9465C92.5082 22.0216 92.4767 22.0923 92.43 22.1527C92.3726 22.2297 92.2878 22.2816 92.1932 22.2978C92.1932 22.2978 92.2696 22.3437 92.323 22.4201L92.6668 23.0312ZM92.2237 21.893C92.2237 21.7402 92.1168 21.6638 91.9182 21.6638H91.7807V22.1527H91.9105C91.99 22.1555 92.0681 22.1313 92.1321 22.084C92.1611 22.058 92.1842 22.0262 92.2 21.9907C92.2158 21.9551 92.2239 21.9166 92.2237 21.8777" fill="white"/>
<path d="M94.2864 21.4421H93.9961V23.031H94.2864V21.4421Z" fill="white"/>
<path d="M96.9289 22.9164C96.7993 22.9849 96.6553 23.0215 96.5087 23.0234C96.4013 23.0282 96.294 23.0103 96.194 22.9708C96.0939 22.9313 96.0034 22.8711 95.9282 22.7942C95.8539 22.7159 95.7961 22.6235 95.758 22.5225C95.72 22.4215 95.7025 22.3139 95.7067 22.206C95.6997 21.9911 95.7733 21.7814 95.9129 21.6178C95.9863 21.5429 96.0744 21.4838 96.1717 21.4444C96.2689 21.405 96.3733 21.386 96.4782 21.3887C96.634 21.3939 96.7873 21.4303 96.9289 21.4956L96.8296 21.7324C96.7179 21.6762 96.5954 21.645 96.4705 21.6408C96.4037 21.6376 96.3372 21.6513 96.2771 21.6807C96.217 21.71 96.1653 21.7541 96.1268 21.8088C96.047 21.9168 96.0065 22.0489 96.0122 22.1831C96.0047 22.3353 96.0537 22.4849 96.1497 22.6033C96.2001 22.6575 96.2618 22.7 96.3304 22.7277C96.3991 22.7555 96.473 22.7677 96.5469 22.7637C96.655 22.7632 96.7618 22.7397 96.8601 22.6949L96.9289 22.9164Z" fill="white"/>
<path d="M99.7323 23.031H99.4039L99.2511 22.6262H98.6476L98.4872 23.031H98.1816L98.8309 21.4421H99.1059L99.7323 23.031ZM99.1594 22.3741L98.9532 21.8394L98.7469 22.3741H99.1594Z" fill="white"/>
</svg>
