<svg width="125" height="14" viewBox="0 0 125 14" fill="none" xmlns="http://www.w3.org/2000/svg">
<path d="M95.7001 0.408398C95.5204 1.43896 95.3503 2.44115 95.1517 3.44334C95.1517 3.58516 94.9532 3.71753 94.8303 3.83098L89.0062 9.56996L88.7982 9.79687H94.1968C93.9699 11.0449 93.7619 12.2362 93.5539 13.4464H78.5966L78.2941 11.5554C78.2501 11.55 78.2056 11.55 78.1617 11.5554H74.3137C74.2469 11.5645 74.1828 11.5878 74.1257 11.6236C74.0686 11.6595 74.0199 11.7072 73.9827 11.7634C73.6896 12.274 73.4249 12.8035 73.1224 13.314C73.0887 13.3722 73.0423 13.422 72.9866 13.4597C72.9309 13.4973 72.8674 13.5219 72.8009 13.5315H68.2059L68.7354 12.6522L68.3478 12.8129C66.3036 13.8425 63.9729 14.1555 61.7295 13.7016C60.3952 13.5068 59.1846 12.8128 58.3422 11.7598C57.4998 10.7068 57.0885 9.37338 57.1913 8.02885C57.1599 6.87428 57.3843 5.72706 57.8486 4.66947C58.3128 3.61187 59.0053 2.6701 59.8764 1.91169C60.6296 1.2379 61.511 0.723119 62.4679 0.398194C63.4248 0.0732693 64.4375 -0.0551079 65.4452 0.0207572C66.5051 0.0527974 67.5487 0.290413 68.518 0.720402C69.1075 0.990965 69.6231 1.39959 70.0212 1.91169L67.1848 4.93718C66.8224 4.45543 66.299 4.1199 65.7099 3.99171C64.8787 3.79574 64.0037 3.93754 63.277 4.386C62.5502 4.83446 62.0311 5.55293 61.8335 6.38374C61.6982 6.98215 61.6662 7.5993 61.739 8.20849C61.7617 8.66077 61.9459 9.08989 62.2582 9.41782C62.5705 9.74575 62.9902 9.9507 63.4408 9.99542C63.9753 10.0475 64.5136 10.0475 65.0481 9.99542C65.1034 9.99988 65.1591 9.9921 65.2111 9.97263C65.2631 9.95317 65.3101 9.92249 65.3489 9.88278C65.3878 9.84307 65.4173 9.79531 65.4356 9.74288C65.4539 9.69045 65.4604 9.63464 65.4546 9.57941C65.4868 9.31221 65.5342 9.04705 65.5965 8.78522H63.4597L64.0554 5.41937H69.9645L68.7354 12.4158H68.7827L69.019 12.0565L76.0155 0.739311C76.0726 0.619877 76.1647 0.52064 76.2795 0.454779C76.3943 0.388919 76.5265 0.359552 76.6584 0.370579H80.7617L82.8796 12.4631H82.9552C83.0876 11.7067 83.2105 10.9598 83.3618 10.2129C83.4115 9.99032 83.5191 9.78485 83.6738 9.61723C85.5206 7.80194 87.3705 5.99295 89.2236 4.19026C89.2936 4.12126 89.3598 4.04868 89.4222 3.9728H84.6949L85.2905 0.408398H95.7001ZM75.7697 8.15176H77.9348L77.5282 4.91827L75.7697 8.15176Z" fill="white"/>
<path d="M39.3787 5.95848C39.0195 6.65812 38.6696 7.35777 38.3104 8.04796C37.4405 9.75925 36.5613 11.4705 35.7009 13.1913C35.6695 13.2816 35.6085 13.3588 35.5279 13.4102C35.4473 13.4617 35.3517 13.4845 35.2565 13.4749H32.5147L31.3612 5.97739H31.295L30.1794 13.4466H26.1611C26.3313 12.5011 26.492 11.5556 26.6528 10.6102L28.4113 0.692235C28.4113 0.465324 28.5153 0.370777 28.7517 0.380232H33.9329C34.311 2.75335 34.6892 5.10756 35.0863 7.60359C35.4078 6.92285 35.6914 6.34612 35.9656 5.75993C36.7787 4.05809 37.5855 2.35625 38.386 0.654417C38.4711 0.474778 38.5467 0.351868 38.7831 0.351868H44.5032L42.3097 12.8698H42.3853L42.6973 12.3782L49.8734 0.711145C49.9288 0.598408 50.0174 0.505346 50.1273 0.444491C50.2371 0.383636 50.363 0.35791 50.488 0.370777H54.6007C55.3571 4.72937 56.1229 9.06906 56.8888 13.4277H52.4262C52.3411 12.8604 52.256 12.3026 52.1803 11.7447C52.1803 11.5367 52.0953 11.4516 51.8683 11.4516H48.1621C48.0956 11.4577 48.0313 11.4787 47.974 11.5131C47.9167 11.5475 47.8679 11.5943 47.8312 11.6502C47.5287 12.1607 47.2639 12.6902 46.9614 13.2007C46.9238 13.2623 46.8728 13.3147 46.8123 13.354C46.7517 13.3932 46.6831 13.4184 46.6115 13.4277H38.0267L39.4544 5.97739L39.3787 5.95848ZM49.6087 8.15196H51.7738L51.424 5.04138H51.3483L49.6087 8.15196Z" fill="white"/>
<path d="M100.456 13.4461C101.231 9.07809 101.988 4.74786 102.763 0.379805H106.583C106.7 0.36243 106.819 0.389715 106.917 0.456254C107.015 0.522793 107.085 0.623734 107.112 0.739082C107.897 2.79074 108.691 4.82349 109.485 6.87515L109.599 7.16825C109.599 7.04534 109.684 6.97915 109.703 6.91297C110.024 4.8424 110.355 2.77183 110.648 0.710718C110.648 0.540534 110.648 0.38926 110.903 0.38926H114.874C114.099 4.77622 113.333 9.11591 112.567 13.4745H108.426C108.322 13.4745 108.181 13.3043 108.133 13.1814C107.358 11.2905 106.602 9.39955 105.836 7.46134C105.836 7.32898 105.722 7.19661 105.628 6.9697C105.278 9.201 104.947 11.3188 104.607 13.465L100.456 13.4461Z" fill="white"/>
<path d="M16.0729 9.54155L15.0328 10.8747C14.4183 11.6405 13.8132 12.4252 13.1419 13.1816C13.0441 13.3139 12.898 13.4023 12.7354 13.4274H8.00803C7.96085 13.4316 7.91339 13.4316 7.86621 13.4274L8.08367 13.1627C9.92417 11.1016 11.7773 9.0373 13.643 6.96988C13.7324 6.89281 13.7898 6.78506 13.8038 6.66783C13.8178 6.5506 13.7874 6.43238 13.7186 6.33642C12.7732 4.5684 11.9128 2.80038 11.0052 1.03236C10.9295 0.871627 10.8539 0.701443 10.7499 0.502895C10.8538 0.496364 10.958 0.496364 11.0619 0.502895H15.1747C15.2827 0.489979 15.3917 0.516284 15.482 0.577021C15.5722 0.637758 15.6376 0.728886 15.6663 0.833808C16.0161 1.77927 16.3943 2.63965 16.763 3.53784C16.8103 3.66075 16.867 3.78366 16.9427 3.94439C17.028 3.85884 17.107 3.7672 17.179 3.6702C17.9354 2.72474 18.6918 1.72255 19.4576 0.758171C19.4993 0.682054 19.556 0.615169 19.6242 0.561547C19.6925 0.507925 19.7709 0.468677 19.8547 0.446167H24.6766L24.4213 0.758171C22.7478 2.59237 21.0838 4.42658 19.4103 6.25133C19.3094 6.33465 19.2437 6.45296 19.2261 6.58264C19.2086 6.71233 19.2406 6.84385 19.3158 6.95097C20.3842 9.00263 21.4242 11.0732 22.4831 13.1343C22.5043 13.2317 22.5427 13.3246 22.5966 13.4085H18.2001C18.0581 13.429 17.9135 13.3958 17.7946 13.3154C17.6757 13.235 17.5911 13.1131 17.5572 12.9736C17.1507 11.9619 16.7158 10.9503 16.2809 9.93864C16.2183 9.80285 16.1488 9.67031 16.0729 9.54155Z" fill="white"/>
<path d="M118.788 9.89151H123.856C123.648 11.1017 123.45 12.2552 123.242 13.437H114.137C114.307 12.4915 114.468 11.5461 114.628 10.6479C115.215 7.31984 115.81 4.02962 116.387 0.673221C116.387 0.465219 116.481 0.380127 116.708 0.380127H125C124.792 1.57141 124.584 2.74379 124.376 3.94453H119.866L119.649 5.15473H123.96L123.327 8.53004H119.441C119.1 8.53004 118.959 8.62459 118.94 8.97441C118.912 9.28339 118.861 9.58991 118.788 9.89151Z" fill="white"/>
<path d="M0 13.38C0.208002 12.2076 0.40655 11.0447 0.605098 9.88179C1.14401 6.84684 1.68293 3.80244 2.21239 0.786407C2.25966 0.531131 2.35421 0.436584 2.61894 0.436584H10.627C10.5419 0.928227 10.4663 1.38205 10.3907 1.85478C10.315 2.32752 10.1827 3.02716 10.0881 3.60389C10.0881 3.85917 9.95575 3.95372 9.68157 3.94426H6.16443C5.87134 3.94426 5.74843 4.02935 5.71061 4.3319C5.67279 4.63445 5.5877 5.05046 5.50261 5.49482H9.51138C9.3412 6.44029 9.18993 7.38576 9.0292 8.25558C8.90629 8.91741 8.89683 8.90796 8.235 8.90796H5.2757C4.9826 8.90796 4.88806 9.02141 4.85024 9.27669C4.63278 10.5531 4.40587 11.82 4.17896 13.0585C4.17896 13.2382 4.17896 13.3895 3.88586 13.3895H0.104001C0.104001 13.3895 0.0661826 13.4178 0 13.38Z" fill="white"/>
<path d="M98.9425 13.4464H94.6123C95.3876 9.09722 96.1566 4.75122 96.9192 0.408386H101.249L98.9425 13.4464Z" fill="white"/>
</svg>
