<svg width="100" height="33" viewBox="0 0 100 33" fill="none" xmlns="http://www.w3.org/2000/svg">
<path d="M7.88785 11.6395V12.004C7.98068 15.1891 8.07103 18.3769 8.15888 21.5676L8.27477 25.9966C8.27477 26.4152 8.27477 26.4227 7.87103 26.4227H0.411215C0 26.4227 0 26.4227 0 25.9966V0.00590313H11.215C11.3131 -0.00312521 11.4111 0.0255706 11.4888 0.0861572C11.5666 0.146744 11.6184 0.234673 11.6336 0.332071L16.1682 13.8274C16.1991 13.8797 16.2383 13.9268 16.2841 13.9667C16.3211 14.0168 16.3627 14.0635 16.4084 14.1059C16.4467 14.0517 16.5093 14.0124 16.5243 13.9508C16.6402 13.5769 16.7495 13.1751 16.8579 12.8181C18.0604 8.65107 19.2667 4.48378 20.4766 0.316183C20.5383 0.0993611 20.6159 0.00590313 20.8561 0.00590313H32.4907V25.9732C32.4907 26.4078 32.4907 26.4078 32.0486 26.4078H24.2916C23.8804 26.4078 23.8804 26.4078 23.8804 26.0124C23.9371 22.9103 23.9888 19.8262 24.0355 16.7601L24.129 12.1068V11.6723H24.0187C23.9568 11.777 23.9024 11.886 23.8561 11.9984C23.1654 13.9685 22.4907 15.9078 21.8701 17.847C20.9654 20.6084 20.0555 23.367 19.1402 26.1227C19.0701 26.3554 18.9467 26.4096 18.7215 26.4096H13.2009C13.1433 26.4184 13.0845 26.4156 13.0279 26.4015C12.9713 26.3874 12.9181 26.3623 12.8713 26.3276C12.8244 26.2928 12.785 26.2491 12.7551 26.1991C12.7252 26.149 12.7055 26.0935 12.6972 26.0358C11.1769 21.3199 9.65047 16.6118 8.11776 11.9115C8.07944 11.8031 8.0243 11.7022 7.9785 11.6012L7.88785 11.6395Z" fill="white"/>
<path d="M77.8724 11.6392C77.8257 11.7402 77.7566 11.8327 77.7173 11.942C76.9883 14.1523 76.2509 16.3626 75.522 18.5776C74.6921 21.0906 73.8547 23.6112 73.0323 26.1318C73.0156 26.2192 72.9662 26.2969 72.894 26.349C72.8219 26.4011 72.7326 26.4237 72.6444 26.4121H67.022C66.973 26.4184 66.9233 26.4149 66.8758 26.4019C66.8282 26.3889 66.7836 26.3666 66.7447 26.3362C66.7058 26.3059 66.6732 26.2682 66.649 26.2252C66.6247 26.1823 66.6092 26.135 66.6033 26.086C65.0519 21.3651 63.5161 16.6389 61.9958 11.9075C61.9584 11.8066 61.9144 11.7082 61.864 11.6131H61.7706V11.8934C61.869 15.7196 61.9724 19.5433 62.0809 23.3645C62.0809 24.2411 62.0809 25.1252 62.151 26.0019C62.151 26.2888 62.0893 26.3897 61.7865 26.3897H54.2547C53.9678 26.3897 53.8809 26.2888 53.8809 26.0159V0.0130732H65.1528C65.2535 -0.000323489 65.3555 0.0263428 65.4368 0.0873377C65.518 0.148333 65.5721 0.238784 65.5874 0.339241L69.1556 10.9729L70.1332 13.8701C70.1801 13.9618 70.2375 14.0477 70.3042 14.1262C70.3594 14.0485 70.4061 13.9652 70.4435 13.8776C71.7407 9.37102 73.0407 4.86603 74.3435 0.362606C74.3502 0.307763 74.3679 0.254837 74.3955 0.206989C74.4232 0.15914 74.4601 0.11735 74.5043 0.0841148C74.5484 0.0508794 74.5988 0.0268802 74.6524 0.0135502C74.706 0.000220287 74.7618 -0.00216692 74.8164 0.00653118H86.3575V25.9878C86.3575 26.414 86.3575 26.414 85.9154 26.414H78.1584C77.7397 26.414 77.7323 26.414 77.7397 25.9878C77.812 21.9598 77.8843 17.9343 77.9566 13.9112V11.6888L77.8724 11.6392Z" fill="white"/>
<path d="M53.036 18.6205V25.9505C53.036 26.4234 53.036 26.4234 52.5687 26.4234H35.9033C35.4453 26.4234 35.4453 26.4234 35.4453 25.9738V0.036438H44.3491V18.6205H53.036Z" fill="white"/>
<path d="M83.1348 32.9495H67.161C66.517 32.9495 66.3311 32.7626 66.3311 32.1084V27.4542C66.3311 26.9345 66.5479 26.6785 67.1068 26.6785H99.2245C99.7442 26.6785 100 26.9037 100 27.4542V32.2205C100 32.7476 99.7834 32.9962 99.2245 32.9962L83.1348 32.9495ZM84.7946 31.243C84.5077 30.3196 84.2049 29.3345 83.8946 28.3579C83.7862 28.0168 83.7554 27.5822 83.5208 27.3962C83.2862 27.2102 82.8385 27.3579 82.4927 27.3345C82.26 27.3345 82.1825 27.4121 82.1189 27.6215C81.7451 28.8467 81.3432 30.0729 80.9787 31.2981C80.8853 31.5785 80.8002 31.8644 80.7077 32.1822H81.9955C82.0423 31.9887 82.0806 31.7869 82.1432 31.5925C82.2058 31.3981 82.2591 31.4056 82.3217 31.399H83.5628C83.6096 31.5859 83.6638 31.7401 83.6871 31.8953C83.6991 31.9898 83.7466 32.0762 83.8201 32.1368C83.8936 32.1974 83.9874 32.2277 84.0825 32.2215H88.6619V31.128H86.3974C86.4825 31.0037 86.5367 30.9261 86.5993 30.8476C87.16 30.142 87.6853 29.4046 88.2899 28.7458C88.6853 28.3037 88.5703 27.8383 88.5843 27.357H85.0862V28.3962H87.06L84.7946 31.243ZM72.2712 27.3644H70.7984C70.7283 27.3644 70.6198 27.4962 70.5965 27.5897C70.4413 28.2719 70.3021 28.9701 70.1544 29.6607C70.1339 29.8023 70.095 29.9405 70.0385 30.0719C69.8217 29.2495 69.6507 28.443 69.4722 27.6364C69.4722 27.5355 69.3638 27.3729 69.3012 27.3729H67.789V32.2327H68.5254C68.7656 32.2327 68.8124 32.1626 68.8124 31.9383V28.9972H68.874L69.5563 32.2084H69.704C70.4797 32.2084 70.4797 32.2084 70.6497 31.4794C70.8367 30.6028 71.0301 29.7261 71.2161 28.8579H71.2703V32.1775H72.2712V27.3644ZM94.6862 27.3644H93.4843V29.9392L93.275 29.5906L92.1189 27.5588C92.0722 27.4738 91.9797 27.357 91.9021 27.3495H90.8395V32.1897H92.0264V29.7345C92.4337 30.2615 92.7871 30.8278 93.0815 31.4252C93.1623 31.7075 93.3505 31.9469 93.6058 32.0919C93.8611 32.237 94.1631 32.2761 94.4469 32.2009C94.6638 32.2009 94.7339 32.1233 94.7339 31.8981V28.5336L94.6862 27.3644ZM80.6021 28.656C80.6072 28.5917 80.6072 28.527 80.6021 28.4626C80.5216 28.1141 80.3233 27.8042 80.0406 27.5852C79.7579 27.3662 79.4082 27.2515 79.0507 27.2607C78.796 27.2098 78.5338 27.2095 78.279 27.2599C78.0243 27.3103 77.7819 27.4104 77.5658 27.5544C77.3497 27.6985 77.1641 27.8837 77.0196 28.0995C76.8751 28.3153 76.7745 28.5574 76.7236 28.8121C76.5038 29.5389 76.5255 30.3173 76.7853 31.0308C76.8652 31.3052 77.013 31.555 77.2151 31.757C77.4172 31.9591 77.667 32.107 77.9413 32.1869C78.3898 32.3201 78.8649 32.3358 79.3212 32.2325C79.7775 32.1293 80.1996 31.9105 80.547 31.5972C80.576 31.5779 80.6007 31.5526 80.6194 31.5232C80.638 31.4937 80.6503 31.4607 80.6554 31.4261V29.4635H78.7488V30.4719H79.5787C79.5935 30.6169 79.5723 30.7633 79.517 30.8981C79.4203 31.0087 79.2985 31.0946 79.1619 31.1487C79.0252 31.2027 78.8776 31.2234 78.7314 31.209C78.5851 31.1945 78.4445 31.1454 78.321 31.0656C78.1976 30.9859 78.095 30.8778 78.0217 30.7504C77.8855 30.444 77.8151 30.1124 77.8151 29.7771C77.8151 29.4417 77.8855 29.1101 78.0217 28.8037C78.0594 28.7089 78.117 28.6233 78.1906 28.5526C78.2643 28.4819 78.3521 28.4279 78.4484 28.394C78.5447 28.3602 78.6471 28.3474 78.7487 28.3565C78.8504 28.3656 78.9489 28.3963 79.0376 28.4467C79.1977 28.5842 79.3433 28.7376 79.4722 28.9046L80.6021 28.656ZM98.3479 29.1373H96.4712V28.3616H98.503V27.3532H95.2142V32.1775H98.5554V31.0299H96.4769V30.1383H98.3535L98.3479 29.1373ZM72.3572 32.2018H73.4273C73.6058 32.2018 73.6675 32.1401 73.7142 31.9766C73.8694 31.3869 73.8769 31.3869 74.4899 31.3869H74.6142C75.2114 31.3869 75.204 31.3869 75.3899 31.9682C75.3899 32.0532 75.5058 32.185 75.5684 32.185H76.7554C76.7086 32.0224 76.6778 31.8981 76.6395 31.7738L75.5647 28.3701C75.4638 28.0289 75.4404 27.5944 75.2161 27.4009C74.9918 27.2074 74.5105 27.3467 74.1535 27.3233C74.1121 27.3157 74.0697 27.3166 74.0287 27.3259C73.9877 27.3351 73.949 27.3526 73.9149 27.3772C73.8809 27.4019 73.8522 27.4331 73.8305 27.4692C73.8089 27.5052 73.7947 27.5452 73.789 27.5869C73.5021 28.5644 73.1918 29.5336 72.889 30.5028L72.3572 32.2018ZM88.9862 32.2018H89.9208C90.2152 32.2018 90.2544 32.1401 90.247 31.8841V27.3607H89.0058L88.9862 32.2018Z" fill="white"/>
<path d="M83.2938 30.3243H82.4639L82.8517 28.7729H82.9059L83.2938 30.3243Z" fill="white"/>
<path d="M74.9549 30.3168H74.125L74.5129 28.7654H74.5745L74.9549 30.3168Z" fill="white"/>
</svg>
