<svg width="65" height="91" viewBox="0 0 65 91" fill="none" xmlns="http://www.w3.org/2000/svg">
<g clip-path="url(#clip0)">
<path d="M11.3814 72.7744C11.3814 76.2493 8.73129 79.0754 5.69627 79.0754C2.66125 79.0754 0.000110323 76.2493 0.000110323 72.7744C-0.0574609 71.1904 0.505724 69.6465 1.5697 68.4716C2.63367 67.2967 4.11433 66.5837 5.69627 66.4844C8.73129 66.4844 11.3814 69.2775 11.3814 72.7744ZM9.27012 72.6974C9.27012 69.3985 7.87357 66.7044 5.69627 66.7044C3.51897 66.7044 2.11143 69.3985 2.11143 72.6974C2.11143 75.9964 3.52997 78.8554 5.69627 78.8554C7.86257 78.8554 9.27012 75.9854 9.27012 72.6974Z" fill="white"/>
<path d="M26.3911 66.8035V67.0784C25.1155 67.0784 25.0495 67.8151 25.0495 68.31V78.0748C25.0214 78.4306 25.1102 78.7858 25.3024 79.0865L23.2681 77.8109V68.0901L19.0894 79.0865H18.8695L14.295 67.7712V76.3924C14.2616 76.6874 14.2884 76.9862 14.3736 77.2706C14.4588 77.5551 14.6007 77.8193 14.7908 78.0474C14.9809 78.2756 15.2152 78.4628 15.4796 78.5979C15.7441 78.733 16.0331 78.8132 16.3293 78.8336V79.0755H12.0957V78.8336C12.9094 78.8336 14.163 78.3387 14.163 76.4034V68.178C14.163 67.0784 12.9094 67.0784 12.6235 67.0784V66.7925H15.9994L19.9582 76.3044L23.565 66.7925L26.3911 66.8035Z" fill="white"/>
<path d="M39.7305 78.8557V79.0756H35.4859V78.8557C36.3766 78.8557 36.7944 78.2509 36.4865 77.3492L35.3869 74.5231H31.0653L30.4935 75.9966C29.5588 78.3389 31.1642 78.8557 31.956 78.8557V79.0756H27.7773V78.8557C29.0639 78.8557 29.5698 77.5141 29.9766 76.5904C30.0976 76.3045 33.1326 68.695 33.0556 68.552L32.4838 67.3204C32.3686 67.0937 32.1887 66.9062 31.967 66.7816L34.3312 67.1995L38.3559 77.3162C38.9277 78.6578 39.0707 78.8557 39.7305 78.8557ZM35.3319 74.2702L33.2646 68.9809L31.1862 74.2702H35.3319Z" fill="white"/>
<path d="M51.4199 68.2439V77.6349C51.3982 77.8062 51.4171 77.9803 51.4751 78.1429C51.5331 78.3056 51.6287 78.4523 51.754 78.5712C51.8793 78.69 52.0308 78.7777 52.1963 78.8271C52.3618 78.8765 52.5366 78.8862 52.7065 78.8555V79.0754H48.3849V78.8555C49.0447 78.8555 49.6605 78.7016 49.6605 77.6459V73.0604H44.0963V77.6459C44.0963 78.7455 44.7341 78.8555 45.3939 78.8555V79.0754H41.0723V78.8555C41.242 78.8787 41.4148 78.8639 41.5781 78.812C41.7414 78.7602 41.8911 78.6727 42.0163 78.5559C42.1416 78.439 42.2393 78.2957 42.3024 78.1364C42.3654 77.9772 42.3922 77.8058 42.3808 77.6349V68.2659C42.3853 68.0982 42.3535 67.9315 42.2876 67.7772C42.2217 67.6229 42.1232 67.4847 41.999 67.3719C41.8748 67.2592 41.7276 67.1746 41.5677 67.1239C41.4078 67.0732 41.2388 67.0577 41.0723 67.0783V66.8584H45.3939V67.0783C44.7341 67.0783 44.0963 67.2213 44.0963 68.2989V72.8844H49.7045V68.2329C49.7045 67.1333 49.0557 67.0233 48.3959 67.0233V66.8034H52.6735V67.0783C52.511 67.0549 52.3454 67.0682 52.1887 67.1172C52.032 67.1662 51.8883 67.2497 51.7681 67.3614C51.6478 67.4732 51.5542 67.6105 51.4939 67.7632C51.4337 67.9159 51.4084 68.0802 51.4199 68.2439Z" fill="white"/>
<path d="M65 78.8557V79.0756H60.7554V78.8557C61.6461 78.8557 62.064 78.2509 61.7671 77.3492L60.6674 74.5231H56.3348L55.774 75.9966C54.8283 78.3389 56.4448 78.8557 57.2255 78.8557V79.0756H53.0469V78.8557C54.3445 78.8557 54.8503 77.5141 55.2462 76.5904C55.3561 76.3045 58.4021 68.695 58.3142 68.552L57.7424 67.3204C57.6271 67.0937 57.4473 66.9062 57.2255 66.7816L59.5898 67.1995C59.5898 67.1995 63.5815 77.2392 63.6255 77.3162C64.1973 78.6578 64.3512 78.8557 65 78.8557ZM60.6014 74.2702L58.5011 68.9809L56.4228 74.2702H60.6014Z" fill="white"/>
<path d="M2.78223 89.929V86.2672H3.29906V87.7077H5.49835V86.2672H5.9492V89.929H5.41038V88.1366H3.29906V89.929H2.78223Z" fill="white"/>
<path d="M10.4793 90.0278C10.2265 90.0344 9.97506 89.989 9.74052 89.8944C9.50597 89.7998 9.29333 89.6581 9.11579 89.478C8.77654 89.1005 8.58887 88.6109 8.58887 88.1034C8.58887 87.5959 8.77654 87.1063 9.11579 86.7289C9.29388 86.5502 9.50686 86.4102 9.74146 86.3175C9.97606 86.2248 10.2272 86.1814 10.4793 86.19C10.7315 86.1814 10.9826 86.2248 11.2172 86.3175C11.4518 86.4102 11.6648 86.5502 11.8429 86.7289C12.1891 87.1029 12.3815 87.5938 12.3815 88.1034C12.3815 88.6131 12.1891 89.104 11.8429 89.478C11.6654 89.6581 11.4527 89.7998 11.2182 89.8944C10.9836 89.989 10.7322 90.0344 10.4793 90.0278ZM10.4793 89.599C10.6703 89.6031 10.8601 89.5671 11.0362 89.4932C11.2124 89.4193 11.3711 89.3092 11.502 89.1701C11.6395 89.0235 11.7456 88.8503 11.8136 88.6612C11.8817 88.4721 11.9104 88.271 11.8979 88.0704C11.9097 87.8699 11.8808 87.669 11.8127 87.48C11.7447 87.291 11.639 87.1178 11.502 86.9708C11.3706 86.8331 11.2115 86.7247 11.0353 86.6527C10.8591 86.5807 10.6696 86.5467 10.4793 86.5529C10.2888 86.5445 10.0987 86.5775 9.92218 86.6497C9.74563 86.7218 9.58682 86.8314 9.45668 86.9708C9.31721 87.1165 9.20914 87.2893 9.13916 87.4784C9.06917 87.6676 9.03876 87.8691 9.04981 88.0704C9.03604 88.2721 9.06518 88.4743 9.13532 88.6639C9.20545 88.8534 9.31498 89.026 9.45668 89.1701C9.58627 89.3109 9.74472 89.4221 9.9212 89.4961C10.0977 89.5701 10.2881 89.6052 10.4793 89.599Z" fill="white"/>
<path d="M15.7143 89.929V86.6301H14.1748V86.2122H17.7157V86.6301H16.1762V89.929H15.7143Z" fill="white"/>
<path d="M19.7939 89.929V86.2672H22.675V86.6851H20.2668V87.7847H21.7403V88.2026H20.2668V89.5112H22.84V89.929H19.7939Z" fill="white"/>
<path d="M25.4238 89.929V86.2672H25.8747V89.5661H28.2719V89.984L25.4238 89.929Z" fill="white"/>
<path d="M37.6954 88.9392V88.4004H36.6948V87.9715H38.1463V89.0712C37.9828 89.3609 37.7433 89.6005 37.4535 89.764C37.1595 89.9336 36.8252 90.0209 36.4858 90.0169C36.2345 90.0246 35.9844 89.9797 35.7514 89.885C35.5185 89.7903 35.3079 89.6479 35.1333 89.4671C34.8302 89.1363 34.6515 88.7105 34.6277 88.2625C34.6039 87.8145 34.7365 87.3722 35.0027 87.0111C35.269 86.65 35.6524 86.3927 36.0874 86.2831C36.5224 86.1734 36.982 86.2183 37.3875 86.41C37.6661 86.5552 37.9013 86.7715 38.0693 87.0368L37.6954 87.3117C37.5773 87.0964 37.4023 86.9176 37.1896 86.7949C36.9677 86.6725 36.7171 86.6117 36.4638 86.619C36.2736 86.6127 36.0841 86.6467 35.9079 86.7187C35.7317 86.7907 35.5726 86.8991 35.4412 87.0368C35.3053 87.1845 35.2002 87.3579 35.1323 87.5467C35.0643 87.7355 35.0347 87.9361 35.0453 88.1365C35.0328 88.3371 35.0615 88.5381 35.1296 88.7272C35.1976 88.9163 35.3037 89.0895 35.4412 89.2361C35.5721 89.3753 35.7308 89.4853 35.9069 89.5592C36.0831 89.6331 36.2728 89.6691 36.4638 89.665C36.705 89.6693 36.9433 89.6126 37.1566 89.5C37.3832 89.3647 37.5693 89.171 37.6954 88.9392Z" fill="white"/>
<path d="M40.9727 89.929V86.2672H43.073C43.3745 86.2497 43.6719 86.3437 43.9087 86.5311C44.0115 86.6257 44.0924 86.7417 44.1456 86.8709C44.1987 87.0001 44.223 87.1393 44.2166 87.2789C44.2319 87.531 44.1492 87.7792 43.9857 87.9717C43.8287 88.1658 43.6054 88.2951 43.3589 88.3345L44.2716 89.94H43.7658L42.886 88.3235H41.4235V89.929H40.9727ZM41.4235 87.8947H43.04C43.2258 87.9128 43.4113 87.8576 43.5568 87.7407C43.6184 87.6862 43.6664 87.618 43.6969 87.5416C43.7275 87.4653 43.7397 87.3828 43.7328 87.3009C43.739 87.2174 43.7264 87.1335 43.6959 87.0555C43.6655 86.9775 43.618 86.9073 43.5568 86.85C43.4197 86.7327 43.2421 86.6735 43.062 86.6851H41.4235V87.8947Z" fill="white"/>
<path d="M48.5496 90.028C48.2967 90.0345 48.0453 89.9891 47.8107 89.8945C47.5762 89.8 47.3635 89.6582 47.186 89.4782C46.8421 89.103 46.6514 88.6125 46.6514 88.1036C46.6514 87.5947 46.8421 87.1042 47.186 86.729C47.3612 86.5496 47.5721 86.4089 47.8051 86.3161C48.0381 86.2233 48.288 86.1804 48.5386 86.1902C48.7907 86.1816 49.0418 86.2249 49.2764 86.3176C49.511 86.4103 49.724 86.5504 49.9021 86.729C50.1762 86.9976 50.3638 87.3419 50.4407 87.7179C50.5177 88.0938 50.4804 88.4841 50.3339 88.8388C50.1873 89.1934 49.938 89.4961 49.6181 89.708C49.2982 89.9199 48.9223 90.0313 48.5386 90.028H48.5496ZM48.5496 89.5991C48.7406 89.6033 48.9303 89.5672 49.1065 89.4933C49.2826 89.4195 49.4413 89.3094 49.5722 89.1702C49.7117 89.0246 49.8198 88.8518 49.8897 88.6626C49.9597 88.4735 49.9901 88.272 49.9791 88.0706C49.9889 87.8694 49.9578 87.6682 49.8879 87.4793C49.818 87.2903 49.7106 87.1174 49.5722 86.971C49.4421 86.8315 49.2833 86.722 49.1067 86.6499C48.9302 86.5777 48.7401 86.5447 48.5496 86.5531C48.3593 86.5469 48.1698 86.5809 47.9936 86.6529C47.8174 86.7249 47.6583 86.8333 47.5269 86.971C47.3874 87.1167 47.2794 87.2894 47.2094 87.4786C47.1394 87.6677 47.109 87.8692 47.12 88.0706C47.1062 88.2722 47.1354 88.4745 47.2055 88.6641C47.2757 88.8536 47.3852 89.0261 47.5269 89.1702C47.6578 89.3094 47.8165 89.4195 47.9927 89.4933C48.1688 89.5672 48.3586 89.6033 48.5496 89.5991Z" fill="white"/>
<path d="M53.5083 86.2672V88.6424C53.4928 88.7772 53.5043 88.9137 53.5421 89.0439C53.5798 89.1742 53.6431 89.2956 53.7283 89.4012C53.9752 89.5627 54.2708 89.6327 54.564 89.5991C54.8572 89.6346 55.1535 89.5644 55.3997 89.4012C55.4849 89.2956 55.5481 89.1742 55.5859 89.0439C55.6237 88.9137 55.6351 88.7772 55.6196 88.6424V86.2672H56.0815V88.7634C56.1 88.9408 56.078 89.1201 56.017 89.2878C55.9561 89.4554 55.8578 89.607 55.7296 89.7311C55.3758 89.9255 54.9787 90.0275 54.575 90.0275C54.1713 90.0275 53.7741 89.9255 53.4204 89.7311C53.2941 89.6056 53.1971 89.4538 53.1363 89.2866C53.0755 89.1193 53.0523 88.9407 53.0685 88.7634V86.2672H53.5083Z" fill="white"/>
<path d="M58.9736 89.9289V86.2671H61.063C61.3678 86.2499 61.6686 86.3437 61.9097 86.531C62.0133 86.6202 62.0949 86.7321 62.1483 86.8579C62.2017 86.9838 62.2254 87.1203 62.2176 87.2568C62.2236 87.3986 62.2003 87.5401 62.1493 87.6725C62.0982 87.805 62.0204 87.9255 61.9207 88.0265C61.8148 88.1258 61.6904 88.2031 61.5545 88.2541C61.4186 88.3051 61.274 88.3286 61.1289 88.3234H59.3805V89.9289H58.9736ZM59.3805 87.8945H60.997C61.1828 87.9127 61.3682 87.8574 61.5138 87.7406C61.5754 87.6861 61.6234 87.6179 61.6539 87.5415C61.6845 87.4651 61.6967 87.3827 61.6898 87.3007C61.7015 87.2255 61.6978 87.1487 61.6789 87.075C61.66 87.0013 61.6263 86.9322 61.5798 86.8719C61.4426 86.7545 61.2651 86.6953 61.085 86.7069H59.3805V87.8945Z" fill="white"/>
<path d="M38.1907 45.2066C39.1267 45.2884 40.0694 45.2477 40.9948 45.0856C41.6238 44.9539 42.1986 44.6358 42.6443 44.1729C42.9568 43.8759 43.3329 43.654 43.7439 43.5241C43.667 43.755 43.634 43.931 43.568 44.0959C43.3601 44.5521 43.0405 44.9484 42.6388 45.2483C42.2371 45.5481 41.7662 45.7418 41.2697 45.8114C39.9062 46.0643 38.5096 46.1852 37.1241 46.3722C36.9701 46.3722 36.9261 46.3722 36.9371 46.2072C36.9669 45.6875 37.1238 45.1831 37.3942 44.7382C37.6645 44.2934 38.04 43.9218 38.4876 43.6561C39.8565 42.7653 41.335 42.0556 42.8862 41.5447C43.392 41.3688 43.8979 41.1819 44.3817 40.9619C44.8137 40.7655 45.1864 40.4588 45.4624 40.0728C45.7384 39.6868 45.9081 39.2349 45.9542 38.7626C45.9892 38.5882 46.0149 38.412 46.0312 38.2348C41.4154 40.0059 36.9936 42.2463 32.8355 44.9206L32.9894 45.0856C33.7177 45.3775 34.3181 45.9194 34.6829 46.6141C34.9879 47.082 35.1965 47.6059 35.2966 48.1554C35.3966 48.7048 35.3861 49.2687 35.2657 49.8141C35.0272 50.6074 34.4989 51.282 33.7858 51.7037C33.0727 52.1255 32.2271 52.2635 31.4169 52.0903C30.8526 51.9428 30.3375 51.6483 29.9242 51.2368C29.5108 50.8254 29.2139 50.3117 29.0637 49.7481C28.9023 49.1383 28.9487 48.4921 29.1956 47.9117C29.4376 47.3289 29.7235 46.812 30.0094 46.1962C30.025 46.1585 30.048 46.1242 30.0769 46.0954C30.1059 46.0666 30.1404 46.0439 30.1782 46.0285C30.2161 46.0131 30.2567 46.0055 30.2975 46.006C30.3384 46.0064 30.3787 46.015 30.4162 46.0313C30.917 46.2135 31.3768 46.4929 31.7694 46.8533C32.1619 47.2137 32.4793 47.6482 32.7035 48.1316C32.8842 48.5629 32.9227 49.0405 32.8135 49.4952C32.792 49.5685 32.7542 49.6361 32.7028 49.6927C32.6515 49.7494 32.588 49.7937 32.5171 49.8222C32.4462 49.8508 32.3697 49.8629 32.2934 49.8577C32.2171 49.8525 32.1431 49.83 32.0767 49.7921C32.0539 49.7318 32.0539 49.6654 32.0767 49.6051C32.1927 49.0884 32.1071 48.5468 31.8374 48.0911C31.5676 47.6353 31.134 47.2998 30.6252 47.1529C30.5964 47.1375 30.5643 47.1295 30.5317 47.1295C30.4991 47.1295 30.467 47.1375 30.4382 47.1529C30.1381 47.4946 29.9366 47.9115 29.8552 48.359C29.7738 48.8065 29.8157 49.2676 29.9764 49.6931C30.146 50.171 30.4648 50.5816 30.8856 50.8645C31.3064 51.1473 31.8071 51.2874 32.3136 51.264C32.8201 51.2405 33.3057 51.0549 33.6987 50.7344C34.0916 50.414 34.3711 49.9756 34.4959 49.4842C34.6253 48.6536 34.4453 47.8045 33.9901 47.0979C33.6333 46.4264 33.1013 45.864 32.4506 45.4705C29.7565 43.854 27.0513 42.2485 24.2142 40.8849C23.0596 40.3351 21.894 39.7853 20.7284 39.3234C20.576 39.2537 20.429 39.1728 20.2885 39.0815C20.1427 38.9933 20.0309 38.8585 19.971 38.6989C19.9112 38.5393 19.9068 38.3642 19.9586 38.2018C20.0816 38.2269 20.2028 38.2599 20.3215 38.3008C23.9431 39.7891 27.4655 41.508 30.8671 43.4471C31.076 43.5681 31.274 43.7 31.4829 43.81C31.6844 43.929 31.9142 43.9917 32.1482 43.9917C32.3822 43.9917 32.6119 43.929 32.8135 43.81C35.4698 42.2116 38.2285 40.7899 41.0718 39.5544L45.6023 37.586C46.3681 37.2956 47.0566 36.8328 47.6147 36.2334C47.9412 35.8714 48.1805 35.4393 48.3139 34.9703C48.4473 34.5014 48.4715 34.0081 48.3844 33.5283C48.1975 32.2197 47.9446 30.9222 47.7247 29.6136C47.5031 28.6304 47.5835 27.6032 47.9556 26.6665C48.2529 25.9826 48.7274 25.3904 49.3301 24.9511L49.4401 24.8961C49.4723 24.9235 49.4985 24.9572 49.5171 24.9951C50.0559 26.3147 50.6167 27.6342 51.1445 28.9648C51.3464 29.4494 51.4071 29.9812 51.3195 30.4988C51.232 31.0164 50.9997 31.4986 50.6497 31.8899C50.5807 31.9913 50.4952 32.0805 50.3968 32.1538C50.239 31.8733 50.1882 31.5451 50.2538 31.2301C50.4258 30.671 50.4764 30.0816 50.4025 29.5013C50.3285 28.9211 50.1316 28.3633 49.825 27.8652C49.6947 27.6448 49.5773 27.4172 49.4731 27.1834C49.4357 27.0713 49.3602 26.9758 49.2598 26.9135C49.1594 26.8513 49.0403 26.8261 48.9233 26.8425C48.6813 26.8425 48.5934 26.9195 48.5824 27.1394C48.4972 27.604 48.4494 28.0747 48.4394 28.5469C48.4944 29.3497 48.6264 30.1414 48.7473 30.9442C48.8683 31.7469 49.1102 32.7916 49.1762 33.7263C49.2342 34.4332 49.1065 35.143 48.8056 35.7854C48.5047 36.4277 48.0411 36.9802 47.4607 37.3881C47.2941 37.5018 47.1539 37.65 47.0495 37.8226C46.9452 37.9953 46.8791 38.1884 46.8559 38.3888C46.768 39.0377 46.5591 39.6643 46.2401 40.2362C46.2401 40.2362 46.2401 40.3241 46.1632 40.4121L46.79 40.3571C48.8239 40.0519 50.7653 39.3009 52.4751 38.1578C53.6763 37.3467 54.8258 36.4617 55.917 35.5077C56.06 35.3977 56.2029 35.2658 56.3569 35.1668C56.545 35.0452 56.6885 34.8658 56.7659 34.6556C56.8432 34.4454 56.8502 34.2157 56.7857 34.0012C56.55 32.6122 56.6866 31.1855 57.1816 29.8665C57.266 29.6506 57.3729 29.4442 57.5005 29.2507C57.6254 29.0129 57.8331 28.829 58.0843 28.7338C58.3355 28.6386 58.6129 28.6386 58.864 28.7339C59.1101 28.7919 59.3286 28.933 59.4828 29.1332C59.637 29.3335 59.7175 29.5808 59.7108 29.8335C59.7455 30.9954 59.4397 32.1421 58.8311 33.1325C58.5561 33.6053 58.2373 34.0672 57.9184 34.507C57.8157 34.6247 57.7512 34.7708 57.7336 34.926C57.7159 35.0811 57.7458 35.238 57.8194 35.3757C58.3802 36.4754 58.919 37.707 59.4689 38.8726C59.839 39.5761 59.9426 40.3895 59.7608 41.1633C59.579 41.9371 59.1239 42.6192 58.4792 43.0842C57.4706 43.8791 56.2589 44.3744 54.9823 44.5138C54.6194 44.5138 54.2565 44.5798 53.8827 44.6127H53.6627L54.8503 46.0533C55.1253 46.3832 55.1253 46.3832 55.5211 46.1852C56.167 45.8545 56.8552 45.614 57.5665 45.4705C58.0459 45.3476 58.5543 45.4152 58.9849 45.6592C59.4155 45.9032 59.7348 46.3046 59.8757 46.779C59.9542 47.008 59.9758 47.2526 59.9389 47.4918C59.902 47.731 59.8075 47.9577 59.6637 48.1524C59.5199 48.347 59.3309 48.5039 59.1131 48.6095C58.8953 48.715 58.6551 48.7661 58.4132 48.7584C58.2024 48.7611 57.9945 48.7091 57.8098 48.6076C57.625 48.5061 57.4697 48.3584 57.359 48.179C57.2483 47.9997 57.1859 47.7947 57.1779 47.584C57.1699 47.3733 57.2167 47.1642 57.3135 46.977C57.3135 46.856 57.4895 46.79 57.5775 46.9C57.7107 47.0568 57.8083 47.2406 57.8634 47.4388C57.9403 47.8127 58.0503 47.9996 58.3032 48.0436C58.4667 48.079 58.6372 48.0593 58.7884 47.9877C58.9395 47.9161 59.0628 47.7966 59.139 47.6478C59.2429 47.4205 59.2601 47.163 59.1872 46.9239C59.1142 46.6848 58.9562 46.4807 58.7431 46.3502C58.5854 46.2388 58.4053 46.1633 58.2152 46.1291C58.0252 46.0949 57.8301 46.1028 57.6434 46.1522C56.9067 46.3942 56.1809 46.6691 55.4442 46.944C56.2137 48.5215 56.7614 50.1978 57.0716 51.9254C56.7197 51.8484 56.4008 51.7934 56.1039 51.7164C54.8253 51.4144 53.5829 50.9757 52.3981 50.4079C52.2222 50.3199 52.1562 50.4079 52.0682 50.5288C51.6425 51.2193 51.3515 51.9842 51.2105 52.7831C51.1932 52.9967 51.2329 53.2111 51.3257 53.4043C51.4184 53.5975 51.5608 53.7626 51.7383 53.8827C51.8913 54.0074 52.0791 54.0818 52.276 54.0955C52.4728 54.1093 52.6691 54.0619 52.838 53.9597C52.9707 53.8825 53.0759 53.7657 53.139 53.6257C53.2021 53.4857 53.2199 53.3296 53.1899 53.179C53.1239 52.8931 52.893 52.8161 52.6511 52.7831C52.5202 52.7645 52.3944 52.7199 52.2811 52.6519C52.1678 52.5839 52.0692 52.4939 51.9913 52.3872C52.1025 52.2811 52.2349 52.1994 52.3796 52.1476C52.5244 52.0957 52.6785 52.0748 52.8319 52.0862C52.9852 52.0976 53.1345 52.1411 53.2701 52.2137C53.4056 52.2864 53.5244 52.3867 53.6187 52.5082C53.7521 52.682 53.8441 52.884 53.8876 53.0988C53.9311 53.3136 53.9251 53.5354 53.87 53.7475C53.8148 53.9596 53.712 54.1563 53.5694 54.3226C53.4268 54.489 53.2481 54.6206 53.0469 54.7075C52.8015 54.8104 52.5363 54.8577 52.2705 54.846C52.0046 54.8343 51.7446 54.7639 51.5092 54.6399C51.2737 54.5158 51.0686 54.3412 50.9086 54.1286C50.7486 53.9159 50.6377 53.6705 50.5837 53.4099C50.4628 52.7351 50.555 52.0395 50.8476 51.4195C50.975 51.119 51.1182 50.8253 51.2765 50.5398C51.4964 50.111 51.4524 49.924 51.0676 49.6491C50.6827 49.3742 50.3858 49.1103 50.0449 48.8464L49.737 48.5825C49.737 48.8574 49.671 49.0883 49.66 49.3192C49.5795 50.908 48.972 52.4247 47.9336 53.6298C47.4304 54.188 46.7517 54.5577 46.0099 54.6777C45.268 54.7977 44.5074 54.6608 43.8539 54.2896C42.716 53.672 41.545 53.1177 40.346 52.6292C40.2171 52.5866 40.0793 52.5785 39.9462 52.6055C39.8132 52.6325 39.6894 52.6937 39.5873 52.7831C38.9055 53.212 38.2237 53.6518 37.5089 54.0257C36.8731 54.35 36.1763 54.5373 35.4636 54.5755C35.233 54.592 35.0015 54.592 34.7708 54.5755C34.5257 54.5418 34.2976 54.4309 34.1197 54.2589C33.9418 54.0869 33.8232 53.8627 33.7812 53.6188C33.717 53.3677 33.7437 53.1021 33.8563 52.8687C33.969 52.6353 34.1605 52.4492 34.397 52.3432C35.5322 51.7745 36.8075 51.5454 38.0698 51.6835C38.6007 51.7165 39.1333 51.7165 39.6642 51.6835C39.7901 51.677 39.9084 51.6218 39.9941 51.5295C42.5446 49.1073 44.3784 46.0293 45.2944 42.6334C45.4044 42.1825 45.4484 41.7097 45.5254 41.2258H45.4154C44.5259 41.7965 43.5594 42.2371 42.5453 42.5344C41.5007 42.9193 40.489 43.3701 39.4663 43.821C38.8725 44.0849 38.5756 44.6567 38.1907 45.2066ZM45.5474 52.4642C45.5762 52.1963 45.692 51.9452 45.8772 51.7494C45.9555 51.6853 46.0173 51.6034 46.0577 51.5106C46.098 51.4178 46.1157 51.3167 46.1093 51.2157C46.1028 51.1147 46.0724 51.0167 46.0206 50.9298C45.9688 50.8428 45.897 50.7695 45.8113 50.7158C45.5658 50.5673 45.2844 50.4888 44.9975 50.4888C44.7107 50.4888 44.4293 50.5673 44.1838 50.7158C43.9579 50.9025 43.7788 51.1395 43.6608 51.4078C43.5427 51.6761 43.4891 51.9682 43.504 52.2609C43.519 52.5537 43.6022 52.8388 43.7469 53.0937C43.8917 53.3485 44.094 53.566 44.3377 53.7288C44.6264 53.8858 44.9444 53.9815 45.2717 54.0099C45.5991 54.0382 45.9288 53.9987 46.2401 53.8937C46.9601 53.6526 47.5666 53.1557 47.9446 52.4972C48.6887 51.3413 49.0716 49.9899 49.0442 48.6154C49.0442 47.7467 49.0442 46.878 49.0442 46.0093C49.067 45.5401 49.2395 45.0905 49.5363 44.7264C49.8331 44.3623 50.2387 44.1028 50.6937 43.9859C51.2235 43.8925 51.7635 43.8703 52.2992 43.92C53.0689 43.92 53.8497 43.92 54.6194 43.92C55.9898 43.8548 57.2903 43.2963 58.2812 42.3475C58.6056 42.072 58.8546 41.7186 59.0046 41.3203C59.1547 40.9221 59.2009 40.4922 59.139 40.0712C59.1251 39.8225 59.0592 39.5795 58.9456 39.3579C58.832 39.1362 58.6732 38.9409 58.4795 38.7844C58.2857 38.6279 58.0613 38.5138 57.8207 38.4495C57.5801 38.3851 57.3286 38.3719 57.0826 38.4107C56.8774 38.4205 56.6762 38.4712 56.4909 38.5599C56.3056 38.6486 56.1399 38.7734 56.0036 38.9272C55.8673 39.0809 55.7632 39.2603 55.6973 39.4549C55.6314 39.6495 55.6052 39.8553 55.6201 40.0602C55.608 40.253 55.6566 40.4448 55.7592 40.6085C55.8618 40.7723 56.0131 40.8997 56.1919 40.9729C56.5108 41.0939 56.6978 41.0279 56.9507 40.698C57.0716 40.555 57.4125 40.4451 57.4785 40.566C57.5378 40.7105 57.5378 40.8725 57.4785 41.0169C57.4322 41.1594 57.3535 41.2891 57.2486 41.396C57.1436 41.5028 57.0153 41.5839 56.8737 41.6327C56.5867 41.7402 56.2725 41.7511 55.9788 41.6638C55.6851 41.5765 55.4278 41.3957 55.2462 41.1489C55.0579 40.9016 54.9309 40.6133 54.8755 40.3074C54.82 40.0016 54.8378 39.687 54.9273 39.3894C55.056 38.9266 55.3291 38.5169 55.7069 38.2202C56.0848 37.9235 56.5475 37.7552 57.0276 37.74H57.9733L57.0056 35.5407L56.8737 35.6506C55.6842 36.7827 54.3837 37.7921 52.9919 38.6637C51.0885 39.9207 48.935 40.7499 46.68 41.0939C46.2071 41.1709 46.2071 41.1928 46.1302 41.6547C46.0532 42.1166 45.9762 42.6224 45.8553 43.0842C45.3941 44.7855 44.6825 46.4087 43.7439 47.9007C42.9329 49.2015 41.9975 50.4205 40.9508 51.5405C40.8299 51.6725 40.6869 51.7824 40.533 51.9254L42.7323 52.8931V52.1453C42.7093 51.8133 42.7619 51.4804 42.8862 51.1717C43.0106 50.863 43.2033 50.5865 43.45 50.3631C43.6967 50.1397 43.9909 49.9752 44.3104 49.882C44.6299 49.7888 44.9663 49.7694 45.2944 49.8251C45.6092 49.8518 45.9092 49.9703 46.1574 50.1657C46.4056 50.3611 46.5911 50.625 46.691 50.9247C46.7707 51.103 46.8015 51.2993 46.7802 51.4934C46.7589 51.6875 46.6863 51.8725 46.5698 52.0292C46.4534 52.186 46.2973 52.3089 46.1176 52.3854C45.9379 52.4618 45.7411 52.489 45.5474 52.4642ZM54.4545 46.7021C54.1466 46.3172 53.9047 45.9653 53.6187 45.6024C53.3294 45.2373 52.9567 44.947 52.5319 44.7556C52.1072 44.5643 51.6427 44.4776 51.1775 44.5028C50.9567 44.5165 50.741 44.5745 50.543 44.6734C50.3451 44.7722 50.1691 44.9099 50.0255 45.0781C49.8818 45.2464 49.7735 45.4418 49.707 45.6528C49.6404 45.8638 49.617 46.086 49.638 46.3062C49.6763 47.0943 50.0147 47.8379 50.5837 48.3845C50.9299 48.7405 51.3403 49.0278 51.7933 49.2313C51.8153 48.843 51.8153 48.4539 51.7933 48.0656C51.6889 47.4046 51.3859 46.791 50.9246 46.3062C50.7597 46.1193 50.8476 46.0203 50.9246 45.8993C51.0016 45.7784 51.1445 45.6684 51.3645 45.8223C51.7368 46.0945 52.1345 46.3302 52.5521 46.5261C53.1581 46.758 53.8162 46.8188 54.4545 46.7021ZM52.4751 47.3729C52.4751 47.3729 52.4751 47.4718 52.4751 47.5488C52.4751 48.1426 52.4751 48.7474 52.4751 49.3522C52.4658 49.4643 52.4959 49.5761 52.5601 49.6684C52.6243 49.7607 52.7187 49.8278 52.827 49.858C53.4758 50.122 54.1246 50.3859 54.7844 50.6278C55.2462 50.7927 55.7081 50.9357 56.2139 51.1006C56.2139 50.9687 56.2139 50.9137 56.2139 50.8587C56.049 50.3859 55.895 49.913 55.7301 49.4512C55.5651 48.9893 55.3342 48.3515 55.1253 47.8567C55.0483 47.6368 54.9163 47.4498 54.6524 47.4498L52.4751 47.3729ZM39.0265 52.3432H38.3887C37.2726 52.2426 36.1479 52.3813 35.0897 52.7501C34.925 52.8056 34.7721 52.8914 34.6389 53.003C34.5684 53.0625 34.5164 53.1409 34.489 53.229C34.4616 53.317 34.4599 53.4111 34.4842 53.5001C34.5084 53.5891 34.5576 53.6692 34.6259 53.7312C34.6943 53.7932 34.7789 53.8343 34.8698 53.8498C35.2339 53.9091 35.6053 53.9091 35.9694 53.8498C37.0843 53.5715 38.1267 53.0578 39.0265 52.3432ZM57.4125 33.7812H57.5115C57.5564 33.7037 57.6079 33.6301 57.6654 33.5613C58.4583 32.5586 58.9297 31.3397 59.018 30.0644C59.0457 29.9163 59.0171 29.7631 58.9377 29.635C58.8584 29.5069 58.7341 29.4129 58.5891 29.3717C58.4552 29.3409 58.3146 29.3625 58.196 29.432C58.0774 29.5015 57.9899 29.6136 57.9513 29.7455C57.7724 30.1117 57.643 30.4999 57.5665 30.9002C57.4785 31.8899 57.4675 32.8246 57.4125 33.7812ZM17.4844 36.8273C17.4844 36.4644 17.5834 36.1455 17.6274 35.8266C17.7483 34.7269 17.8803 33.7043 18.0013 32.6376C18.0892 31.7469 18.1772 30.8562 18.2542 29.9655C18.3421 28.8658 18.4411 27.7662 18.4741 26.6665C18.4741 25.292 18.4741 23.9174 18.4741 22.5429C18.4741 22.3449 18.3751 22.3559 18.2322 22.3889C17.6164 22.5209 17.0116 22.6858 16.3848 22.7628C15.736 22.8823 15.0682 22.8448 14.4369 22.6535C13.8056 22.4622 13.2292 22.1226 12.7559 21.6632C12.2774 21.1535 11.9932 20.4918 11.9532 19.7938C11.8936 19.3089 11.9424 18.8169 12.0962 18.3532C12.2617 17.9069 12.5302 17.506 12.8799 17.1831C13.2295 16.8602 13.6505 16.6244 14.1085 16.4948C14.7173 16.2519 15.3905 16.223 16.0178 16.4128C16.6451 16.6026 17.1894 16.9999 17.5614 17.5395C17.9243 18.0123 18.2432 18.5292 18.5841 19.024C18.727 19.2219 18.639 19.3649 18.4851 19.5079C18.0598 19.8718 17.549 20.1216 17.0006 20.2336C16.4173 20.4228 15.7927 20.4456 15.1972 20.2996C14.9147 20.2169 14.65 20.0827 14.4164 19.9037C14.3592 19.8584 14.3129 19.8008 14.2812 19.7351C14.2494 19.6694 14.2329 19.5973 14.2329 19.5243C14.2329 19.4514 14.2494 19.3793 14.2812 19.3136C14.3129 19.2479 14.3592 19.1903 14.4164 19.145C14.5044 19.024 14.5924 19.046 14.7133 19.145C15.0644 19.3364 15.4325 19.4947 15.813 19.6178C16.1225 19.6753 16.4417 19.6507 16.7388 19.5465C17.0359 19.4423 17.3005 19.2622 17.5064 19.024C17.5199 18.9986 17.5269 18.9703 17.5269 18.9415C17.5269 18.9128 17.5199 18.8845 17.5064 18.8591C17.329 18.3596 17.001 17.9275 16.5678 17.6222C16.1345 17.317 15.6172 17.1536 15.0872 17.1546C14.5142 17.1272 13.9516 17.3151 13.5101 17.6813C13.0685 18.0476 12.7799 18.5658 12.701 19.134C12.6326 19.6847 12.7531 20.2423 13.0427 20.7157C13.3324 21.1891 13.774 21.5502 14.2954 21.7401C14.8938 21.9795 15.5381 22.082 16.1812 22.0401C16.8244 21.9983 17.45 21.8131 18.0122 21.4982C21.0253 19.8048 24.0383 18.1003 26.8754 16.1099C27.6012 15.5931 28.3049 15.0103 29.0747 14.5265C29.2725 14.3751 29.4864 14.246 29.7125 14.1416C29.863 14.0674 30.0336 14.0445 30.1984 14.0762C30.3631 14.108 30.513 14.1927 30.6252 14.3175C30.5756 14.3744 30.5203 14.426 30.4602 14.4715C27.6398 16.6423 24.703 18.6576 21.6631 20.5085C21.1572 20.8164 20.6404 21.1023 20.1236 21.3882C19.8341 21.5284 19.5975 21.7582 19.449 22.0434C19.3004 22.3287 19.2478 22.6542 19.2988 22.9717C19.3538 23.8405 19.2988 24.6982 19.2988 25.5669C19.2988 26.0507 19.2988 26.5236 19.2438 27.0074C19.1559 28.283 19.0679 29.5696 18.9579 30.8562C18.848 32.1428 18.738 33.0555 18.6171 34.2101C18.5181 35.0898 18.3971 35.9695 18.2982 36.8492C18.1807 37.5814 18.2144 38.3299 18.3971 39.0485C18.5331 39.5198 18.7724 39.9549 19.0977 40.322C19.423 40.6892 19.826 40.9791 20.2775 41.1709C21.1462 41.5557 22.0479 41.8526 22.9497 42.1825C23.8592 42.4336 24.7317 42.8034 25.5448 43.2822C26.041 43.616 26.459 44.0532 26.7703 44.5638C27.0816 45.0744 27.2788 45.6463 27.3482 46.2402C27.3541 46.2522 27.3571 46.2654 27.3571 46.2787C27.3571 46.292 27.3541 46.3052 27.3482 46.3172C27.3547 46.3424 27.3547 46.3689 27.3482 46.3942H26.6555C25.4348 46.2292 24.2252 46.0973 23.0156 45.8993C22.5767 45.8418 22.1569 45.6839 21.7888 45.4379C21.4207 45.1919 21.1143 44.8644 20.8933 44.4808C20.7834 44.2828 20.6734 44.2389 20.4864 44.3598L20.2335 44.4918C20.4974 45.0526 20.7504 45.5914 21.0253 46.1522C21.9609 47.8916 23.1218 49.5 24.4782 50.9357L24.907 51.4525C24.9909 51.5604 25.1035 51.6423 25.2319 51.689C25.3603 51.7357 25.4992 51.7452 25.6328 51.7164C26.9097 51.4756 28.2241 51.5207 29.4815 51.8484C29.9582 52.0061 30.4128 52.2241 30.8341 52.4972C31.0214 52.6442 31.1558 52.8481 31.2173 53.0781C31.2788 53.3082 31.2639 53.5519 31.175 53.7728C31.1044 54.0065 30.958 54.2102 30.7589 54.3515C30.5598 54.4929 30.3193 54.564 30.0753 54.5535C28.852 54.5928 27.6451 54.2633 26.6115 53.6078C26.1826 53.3549 25.7757 53.058 25.3799 52.7721C25.2642 52.674 25.1221 52.6123 24.9715 52.5947C24.8208 52.5771 24.6683 52.6044 24.5331 52.6731C23.3785 53.223 22.2239 53.7728 21.0803 54.3006C20.3454 54.7142 19.4802 54.8307 18.6621 54.6262C17.8441 54.4217 17.1354 53.9117 16.6817 53.201C15.9445 52.1731 15.4998 50.9646 15.3951 49.7041C15.3951 49.3522 15.3291 49.0003 15.2851 48.6045C15.2524 48.5985 15.2189 48.5985 15.1862 48.6045C14.7243 48.9563 14.2735 49.3302 13.8006 49.7041C13.7111 49.7628 13.6467 49.853 13.6203 49.9568C13.5938 50.0605 13.6072 50.1705 13.6577 50.2649C13.8776 50.8257 14.0975 51.3646 14.3064 51.9364C14.4866 52.3514 14.5438 52.8094 14.4714 53.256C14.4205 53.532 14.3071 53.7927 14.1397 54.018C13.9724 54.2434 13.7556 54.4273 13.5061 54.5558C13.2565 54.6843 12.9808 54.7539 12.7002 54.7592C12.4196 54.7645 12.1415 54.7055 11.8872 54.5865C11.6554 54.4644 11.4637 54.2782 11.335 54.05C11.2063 53.8219 11.1461 53.5614 11.1615 53.2999C11.1399 53.0744 11.1886 52.8477 11.3008 52.6509C11.413 52.4541 11.5832 52.2967 11.7883 52.2003C11.9599 52.1183 12.1478 52.0757 12.3381 52.0757C12.5284 52.0757 12.7162 52.1183 12.8879 52.2003C13.0419 52.2663 13.0748 52.4202 12.9429 52.5082C12.7971 52.6168 12.6333 52.6987 12.459 52.7501C12.0192 52.8381 11.8212 53.014 11.8212 53.3659C11.8298 53.5505 11.9026 53.7264 12.0271 53.8629C12.1516 53.9995 12.32 54.0882 12.503 54.1137C12.6707 54.1371 12.8416 54.1215 13.0023 54.0681C13.1629 54.0146 13.3091 53.9248 13.4294 53.8056C13.5496 53.6864 13.6407 53.5411 13.6956 53.3809C13.7505 53.2207 13.7676 53.05 13.7456 52.8821C13.638 51.9786 13.3381 51.1087 12.8659 50.3309C11.3106 51.0813 9.66077 51.6176 7.9615 51.9254C8.04947 51.5515 8.09345 51.2436 8.19242 50.9467C8.58829 49.7811 9.00616 48.6154 9.41303 47.4608C9.56698 46.999 9.55598 46.977 9.10513 46.801L6.7079 45.8773L6.79587 46.0973L6.50997 46.2182C6.25949 46.3082 6.05014 46.4859 5.92072 46.7184C5.79131 46.951 5.75062 47.2226 5.80619 47.4828C5.82705 47.5789 5.86665 47.6699 5.92272 47.7507C5.97879 47.8314 6.05024 47.9003 6.13297 47.9534C6.2157 48.0065 6.30809 48.0428 6.40486 48.0602C6.50163 48.0775 6.60087 48.0757 6.69691 48.0546C6.80664 48.0261 6.90566 47.9661 6.98183 47.8821C7.05801 47.7982 7.10803 47.6938 7.12577 47.5818C7.20274 47.3179 7.31271 47.0649 7.41167 46.79C7.55236 46.9097 7.66061 47.063 7.72645 47.2356C7.79229 47.4082 7.8136 47.5945 7.78839 47.7775C7.76319 47.9605 7.69229 48.1342 7.58225 48.2826C7.47221 48.431 7.32656 48.5492 7.15876 48.6264C6.95257 48.7185 6.72811 48.7622 6.50246 48.7545C6.2768 48.7467 6.0559 48.6875 5.85656 48.5815C5.65722 48.4754 5.48469 48.3253 5.3521 48.1426C5.21951 47.9598 5.13036 47.7492 5.09142 47.5268C5.05288 47.2265 5.08699 46.9214 5.19088 46.637C5.29477 46.3526 5.46541 46.0973 5.68845 45.8926C5.91149 45.6879 6.18042 45.5397 6.47263 45.4605C6.76484 45.3813 7.07179 45.3734 7.36769 45.4375C7.92851 45.5914 8.46733 45.8114 9.01716 45.9983C9.14462 46.0466 9.26943 46.1017 9.39103 46.1632C9.92986 46.3942 9.91886 46.3832 10.2817 45.9213C10.6446 45.4595 10.8975 45.1516 11.2164 44.7557C10.9894 44.5923 10.7153 44.5074 10.4357 44.5138C8.93335 44.4219 7.49984 43.8516 6.34502 42.8863C5.70215 42.3274 5.30677 41.5366 5.24537 40.687C5.18271 39.9193 5.35942 39.1509 5.75121 38.4877C6.31203 37.3881 6.85086 36.2884 7.31271 35.1888C7.35579 35.0715 7.36523 34.9444 7.33997 34.822C7.31471 34.6996 7.25576 34.5867 7.16975 34.496C6.81787 33.9682 6.44399 33.3964 6.13609 32.8795C5.63213 32.0305 5.36269 31.0628 5.35534 30.0754C5.33852 29.8926 5.33852 29.7085 5.35534 29.5256C5.40218 29.2694 5.53841 29.0382 5.73979 28.8731C5.94116 28.708 6.1946 28.6197 6.45498 28.6239C6.67447 28.5829 6.90135 28.6157 7.10025 28.7172C7.29916 28.8186 7.45891 28.983 7.55463 29.1847C8.01026 30.0157 8.26273 30.9426 8.29139 31.8899C8.35187 32.712 8.31866 33.5384 8.19242 34.3531C8.17002 34.4674 8.17638 34.5856 8.21092 34.6969C8.24547 34.8083 8.30713 34.9092 8.39036 34.9909C10.5011 37.1653 13.0815 38.8279 15.9339 39.8513C16.4288 40.0162 16.9236 40.1592 17.4294 40.2801C17.6157 40.3022 17.804 40.3022 17.9903 40.2801C17.8583 39.8733 17.7263 39.4884 17.6164 39.1035C17.6164 38.9056 17.5504 38.7076 17.5064 38.5097C17.3702 38.0011 17.0636 37.5547 16.6377 37.2451C15.8745 36.664 15.3598 35.8153 15.1972 34.8699C15.0871 34.2701 15.0871 33.6553 15.1972 33.0555C15.4171 31.8019 15.67 30.5483 15.8679 29.2837C15.9861 28.5008 15.8673 27.7004 15.5271 26.9854L15.2411 26.3696L14.7243 27.3593C14.3583 27.9904 14.0773 28.667 13.8886 29.3717C13.751 29.8905 13.751 30.4363 13.8886 30.9552C14.008 31.3607 14.008 31.7922 13.8886 32.1978C13.8272 32.1615 13.7685 32.1211 13.7126 32.0768C13.3018 31.706 13.0531 31.1887 13.0199 30.6363C12.9592 29.8875 13.0721 29.1349 13.3498 28.437C13.8226 27.3373 14.2954 26.2377 14.7573 25.138C14.7896 25.0885 14.819 25.0371 14.8453 24.9841L15.1642 25.204C15.6092 25.5539 15.9698 25.9995 16.2192 26.5078C16.4686 27.0161 16.6003 27.5739 16.6047 28.1401C16.6063 29.116 16.503 30.0892 16.2968 31.0431C16.1429 31.9998 15.9449 32.9565 15.8569 33.9242C15.801 34.4197 15.8727 34.9212 16.0652 35.3812C16.2576 35.8412 16.5645 36.2443 16.9566 36.5523L17.4844 36.8273ZM22.1689 52.8931L24.3682 51.9364L24.1923 51.7384C23.4665 50.8587 22.7077 50.012 21.993 49.0993C20.3066 46.907 19.1919 44.3298 18.749 41.5997C18.7397 41.4723 18.6863 41.3522 18.598 41.2599C18.5097 41.1675 18.392 41.1089 18.2652 41.0939C17.4643 40.9435 16.6715 40.7527 15.8899 40.5221C13.2555 39.6227 10.8392 38.1804 8.79723 36.2884L7.90651 35.5077L6.96082 37.707C7.28684 37.6904 7.61349 37.6904 7.9395 37.707C8.46206 37.7145 8.96484 37.9079 9.35777 38.2525C9.7507 38.597 10.0081 39.0703 10.0838 39.5874C10.1426 39.8106 10.1557 40.0434 10.1224 40.2719C10.089 40.5003 10.0099 40.7197 9.88979 40.9168C9.76966 41.1139 9.61097 41.2848 9.42324 41.4191C9.2355 41.5535 9.02258 41.6486 8.79723 41.6987C8.61467 41.7542 8.42081 41.7612 8.2347 41.7191C8.0486 41.677 7.87665 41.5872 7.73576 41.4585C7.59488 41.3298 7.4899 41.1667 7.43115 40.9852C7.3724 40.8036 7.3619 40.6099 7.40068 40.4231C7.66683 40.4654 7.91507 40.5838 8.11545 40.764C8.17176 40.8479 8.24786 40.9167 8.33704 40.9642C8.42621 41.0118 8.52572 41.0366 8.62678 41.0366C8.72784 41.0366 8.82735 41.0118 8.91652 40.9642C9.0057 40.9167 9.0818 40.8479 9.13812 40.764C9.30697 40.4735 9.38176 40.1378 9.35222 39.8031C9.32269 39.4684 9.19028 39.151 8.97317 38.8946C8.76069 38.7023 8.50705 38.5611 8.23165 38.4818C7.95624 38.4024 7.66636 38.3871 7.38413 38.437C7.10191 38.4869 6.83482 38.6006 6.60326 38.7695C6.37171 38.9384 6.18183 39.1579 6.04811 39.4114C5.83726 39.9128 5.78856 40.4676 5.90885 40.9981C6.02914 41.5285 6.31239 42.0081 6.7189 42.3695C7.82843 43.3481 9.25321 43.8946 10.7326 43.909C11.5793 43.909 12.4261 43.909 13.2728 43.909C13.5651 43.8758 13.8602 43.8758 14.1525 43.909C14.753 44.0342 15.283 44.3838 15.6345 44.8865C15.986 45.3892 16.1324 46.0071 16.0439 46.6141C16.0439 47.6478 16.0439 48.6924 16.0439 49.7261C16.1223 50.9399 16.5888 52.0964 17.3745 53.025C17.7168 53.4805 18.1985 53.8117 18.7462 53.9685C19.294 54.1253 19.878 54.099 20.4095 53.8937C20.7698 53.7456 21.0721 53.4841 21.2706 53.1487C21.469 52.8134 21.5527 52.4225 21.5091 52.0353C21.4951 51.6658 21.3521 51.3129 21.1051 51.0377C20.858 50.7625 20.5224 50.5825 20.1566 50.5288C19.9556 50.4836 19.746 50.4956 19.5516 50.5637C19.3572 50.6317 19.1858 50.753 19.0569 50.9137C18.9936 50.9771 18.9465 51.0547 18.9193 51.1401C18.8922 51.2254 18.8859 51.316 18.901 51.4043C18.916 51.4926 18.952 51.576 19.006 51.6475C19.0599 51.7191 19.1301 51.7766 19.2109 51.8154C19.2878 51.8814 19.4088 51.9474 19.4198 52.0353C19.4467 52.1696 19.4467 52.3079 19.4198 52.4422C19.4198 52.4422 19.2878 52.5192 19.2219 52.5082C18.989 52.476 18.7725 52.37 18.6043 52.2057C18.4361 52.0414 18.3249 51.8276 18.2872 51.5955C18.2343 51.3186 18.2657 51.0322 18.3775 50.7734C18.4892 50.5146 18.6761 50.2953 18.914 50.144C19.1759 49.9772 19.4717 49.871 19.7798 49.8329C20.088 49.7949 20.4008 49.826 20.6954 49.924C21.219 50.1029 21.6637 50.4589 21.9528 50.9307C22.2419 51.4025 22.3572 51.9604 22.2789 52.5082C22.1909 52.5962 22.1799 52.7831 22.1689 52.8931ZM13.1958 49.2972C13.4487 49.1323 13.6796 48.9783 13.9106 48.8024C14.2802 48.5473 14.5959 48.2217 14.8393 47.8443C15.0827 47.4669 15.2492 47.0451 15.3291 46.6031C15.4212 46.1689 15.3391 45.7159 15.1006 45.3416C14.862 44.9673 14.486 44.7016 14.0535 44.6017C13.5804 44.5114 13.0912 44.5611 12.646 44.7447C11.9046 45.067 11.2792 45.6079 10.8536 46.2952L10.5677 46.7351C10.9814 46.7628 11.3965 46.7628 11.8103 46.7351C12.4651 46.6185 13.0745 46.3214 13.5697 45.8773C13.6357 45.8773 13.7566 45.7894 13.8116 45.8773C13.9576 45.9697 14.0939 46.0765 14.2185 46.1962C13.8086 46.5909 13.5012 47.0796 13.323 47.62C13.1448 48.1604 13.1011 48.7361 13.1958 49.2972ZM25.9517 44.8987C25.4407 44.2808 24.7774 43.8071 24.0273 43.5241C22.5538 42.9633 21.0913 42.3585 19.6287 41.7757H19.4858L20.0026 43.9749L20.5524 43.766C20.6053 43.7446 20.6645 43.7446 20.7174 43.766C21.0452 43.9224 21.3549 44.1141 21.6411 44.3378C22.0985 44.7668 22.6592 45.0698 23.2685 45.2175C23.8624 45.3165 24.4562 45.3715 25.05 45.4155C25.8307 45.4265 25.6108 45.4925 25.9737 44.8547L25.9517 44.8987ZM8.8742 51.1116H9.05014L10.7876 50.4739L12.0962 49.924C12.2149 49.8951 12.3183 49.8224 12.3856 49.7204C12.4529 49.6184 12.4792 49.4947 12.459 49.3742C12.4372 49.1218 12.4372 48.8679 12.459 48.6154C12.459 48.2086 12.547 47.8127 12.591 47.3838H12.3381C11.7773 47.3838 11.2384 47.3838 10.6446 47.3838C10.5064 47.3685 10.3671 47.4003 10.2493 47.4742C10.1315 47.548 10.0422 47.6596 9.99584 47.7907C9.51585 48.7997 9.14713 49.8579 8.89619 50.9467C8.88373 51.0009 8.87637 51.0561 8.8742 51.1116ZM26.0836 52.3872L26.4905 52.6621C27.3286 53.2695 28.2894 53.6862 29.3056 53.8827C29.4959 53.9295 29.6945 53.9309 29.8855 53.887C30.0765 53.8431 30.2545 53.755 30.4052 53.6298C30.4552 53.5942 30.4959 53.5472 30.524 53.4927C30.5521 53.4382 30.5667 53.3778 30.5667 53.3164C30.5667 53.2551 30.5521 53.1947 30.524 53.1402C30.4959 53.0856 30.4552 53.0386 30.4052 53.003C30.2697 52.892 30.1176 52.8029 29.9544 52.7391C29.0309 52.3667 28.032 52.2197 27.0403 52.3103C26.7324 52.3213 26.3915 52.3542 26.0836 52.3872ZM7.52164 33.8362C7.52164 33.2974 7.52164 32.8026 7.58762 32.3077C7.62436 31.4999 7.47382 30.6945 7.14776 29.9545C7.057 29.7392 6.88804 29.5663 6.67491 29.4706C6.33402 29.3167 6.0811 29.4706 6.03712 29.8115C5.99873 30.0704 5.99873 30.3334 6.03712 30.5923C6.25568 31.7798 6.76579 32.8945 7.52164 33.8362ZM9.55598 7.78564C8.79257 6.23941 8.25557 4.59138 7.9615 2.89222L9.22609 3.16713C10.4064 3.45563 11.5528 3.86847 12.646 4.39873C12.8219 4.48671 12.8879 4.39873 12.9649 4.27777C13.1738 3.78293 13.4157 3.31009 13.6137 2.81525C13.7252 2.56591 13.785 2.29659 13.7896 2.0235C13.777 1.68133 13.6446 1.35444 13.4157 1.0998C13.3014 0.981735 13.162 0.890813 13.0078 0.833722C12.8537 0.776632 12.6887 0.754825 12.525 0.769906C12.3276 0.778472 12.1414 0.863686 12.0059 1.00743C11.8703 1.15118 11.7962 1.34212 11.7993 1.53966C11.7961 1.66726 11.8425 1.79114 11.9285 1.8854C12.0146 1.97966 12.1337 2.03702 12.2611 2.04549C12.5608 2.09154 12.834 2.24374 13.0309 2.47436C12.8949 2.61007 12.7258 2.7078 12.5403 2.75782C12.3549 2.80785 12.1595 2.80842 11.9738 2.75948C11.788 2.71054 11.6184 2.6138 11.4816 2.47888C11.3449 2.34397 11.2459 2.17559 11.1945 1.99051C11.101 1.73931 11.0825 1.4664 11.141 1.20486C11.1996 0.943323 11.3327 0.70438 11.5243 0.516988C11.7165 0.297064 11.9689 0.138218 12.2503 0.0600528C12.5316 -0.0181125 12.8298 -0.012176 13.1078 0.0771297C13.5523 0.203537 13.9337 0.490969 14.1776 0.883359C14.4216 1.27575 14.5107 1.74495 14.4274 2.19944C14.3175 2.93586 14.0872 3.64917 13.7456 4.31076C13.6247 4.55268 13.5257 4.8056 13.4487 4.99254C13.6806 5.10987 13.9047 5.2421 14.1195 5.38841C14.5044 5.68532 14.8783 6.01521 15.2192 6.32311C15.2741 5.82827 15.3071 5.32244 15.3841 4.8276C15.5543 3.4303 16.167 2.12407 17.1325 1.0998C17.6334 0.594792 18.2841 0.265203 18.9876 0.160174C19.6911 0.0551462 20.4097 0.180304 21.0363 0.516988C22.1359 1.06681 23.3235 1.61663 24.4562 2.13347C24.6117 2.22408 24.7927 2.26131 24.9714 2.23947C25.15 2.21763 25.3167 2.13792 25.4458 2.0125C26.3706 1.26845 27.4424 0.728767 28.5908 0.429016C29.1326 0.289591 29.6943 0.244947 30.2513 0.297059C30.4917 0.323189 30.7168 0.427847 30.8918 0.594832C31.0667 0.761816 31.1817 0.981812 31.219 1.22076C31.2853 1.46265 31.2669 1.71993 31.1669 1.94995C31.0669 2.17996 30.8913 2.36887 30.6692 2.48535C29.5313 3.04787 28.2609 3.28748 26.9963 3.17813C26.4465 3.17813 25.8967 3.17813 25.3469 3.17813C25.2043 3.19494 25.072 3.26107 24.973 3.36507C22.4402 5.77624 20.6214 8.83925 19.7167 12.2172C19.5957 12.723 19.5627 13.2509 19.4858 13.7677C19.4858 13.8447 19.4858 13.9217 19.4858 13.9876C19.489 14.0419 19.4806 14.0962 19.4613 14.147C19.442 14.1979 19.4122 14.244 19.3737 14.2824C19.3353 14.3209 19.2891 14.3507 19.2383 14.3701C19.1875 14.3894 19.1332 14.3977 19.0789 14.3945C17.8594 14.4786 16.6589 14.7416 15.5161 15.1753C13.8937 15.7825 12.3705 16.6274 10.9965 17.6824C10.0948 18.3752 9.24808 19.134 8.39036 19.8817C8.26021 20.0185 8.18572 20.1988 8.18143 20.3876C8.18143 20.8054 8.2694 21.2233 8.29139 21.6412C8.40064 22.8268 8.22729 24.0214 7.78555 25.127C7.70827 25.3109 7.60854 25.4845 7.48865 25.6439C7.34528 25.8616 7.13482 26.0267 6.88916 26.1141C6.64351 26.2015 6.37606 26.2064 6.12738 26.128C5.8787 26.0497 5.66234 25.8924 5.51111 25.68C5.35988 25.4676 5.28203 25.2117 5.28936 24.9511C5.27598 23.814 5.57659 22.6953 6.15808 21.7181C6.43299 21.2343 6.76288 20.7724 7.08178 20.3216C7.18933 20.1974 7.25558 20.0428 7.27134 19.8793C7.2871 19.7157 7.2516 19.5513 7.16975 19.4089C6.60893 18.3092 6.07011 17.0996 5.53128 15.945C5.16886 15.2329 5.07723 14.4134 5.27341 13.6388C5.46958 12.8642 5.94023 12.1871 6.59794 11.7334C7.64812 10.9144 8.91152 10.4143 10.2378 10.2928C10.5787 10.2928 10.9305 10.2928 11.3374 10.2269L10.9965 9.776C10.6996 9.40212 10.4027 9.03924 10.1168 8.67635C10.0793 8.60592 10.0159 8.55281 9.94002 8.52819C9.86412 8.50358 9.78163 8.50938 9.70993 8.54439C9.20409 8.73133 8.70925 8.94027 8.20342 9.10521C7.84986 9.24488 7.48059 9.3409 7.10377 9.39112C6.77528 9.43566 6.44091 9.38468 6.14061 9.24429C5.84032 9.10389 5.58679 8.88 5.41032 8.59938C5.21517 8.34698 5.09687 8.0437 5.06957 7.72582C5.04227 7.40795 5.10712 7.08894 5.25637 6.80696C5.40452 6.53725 5.63454 6.32161 5.91324 6.19116C6.19193 6.06071 6.50487 6.0222 6.80687 6.08119C7.01692 6.1188 7.21313 6.2118 7.37522 6.35059C7.53732 6.48938 7.65942 6.66893 7.72891 6.8707C7.79841 7.07246 7.81278 7.28911 7.77054 7.49829C7.7283 7.70746 7.63099 7.90156 7.48865 8.06055C7.33987 7.84138 7.21803 7.60509 7.12577 7.35678C7.0268 6.94991 6.92783 6.79596 6.60893 6.77397C6.43301 6.75311 6.25534 6.79448 6.10671 6.89088C5.95809 6.98729 5.84788 7.13266 5.7952 7.3018C5.7524 7.46718 5.74873 7.64027 5.78447 7.80732C5.82021 7.97438 5.89438 8.13081 6.0011 8.26421C6.10782 8.39761 6.24415 8.50431 6.39929 8.57585C6.55442 8.64739 6.72409 8.6818 6.89484 8.67635C7.66091 8.63983 8.41051 8.44119 9.09413 8.09354C9.25398 8.00004 9.40819 7.89723 9.55598 7.78564ZM19.4528 2.38638C19.4233 2.64768 19.3072 2.89159 19.1229 3.07916C19.0455 3.13758 18.9826 3.21318 18.9394 3.3C18.8961 3.38683 18.8736 3.4825 18.8736 3.5795C18.8736 3.6765 18.8961 3.77217 18.9394 3.85899C18.9826 3.94581 19.0455 4.02141 19.1229 4.07984C19.4065 4.27162 19.7466 4.36186 20.088 4.33591C20.4294 4.30996 20.7519 4.16933 21.0033 3.93688C21.1912 3.73945 21.3334 3.50311 21.4197 3.24461C21.5061 2.98611 21.5345 2.71177 21.5031 2.44105C21.4716 2.17032 21.3809 1.90983 21.2376 1.67805C21.0942 1.44626 20.9016 1.24885 20.6734 1.0998C20.2297 0.86386 19.7256 0.766055 19.2259 0.818966C18.7262 0.871877 18.2537 1.07308 17.8693 1.3967C17.2695 1.91541 16.7989 2.56676 16.4947 3.29909C16.1862 4.13208 16.0442 5.01755 16.0769 5.90525C16.0219 6.70799 16.0769 7.52173 16.0769 8.32447C16.0975 8.92955 15.9366 9.52696 15.615 10.0399C15.3605 10.3757 15.0258 10.6423 14.6416 10.8152C14.2573 10.9881 13.8358 11.0618 13.4157 11.0296C12.3931 11.0296 11.3704 11.0296 10.3477 11.0296C9.13986 11.0622 7.97801 11.4998 7.04879 12.2722C6.6537 12.5443 6.34178 12.9206 6.14766 13.3593C5.95354 13.7981 5.88483 14.282 5.94915 14.7574C5.97053 15.0939 6.08417 15.4181 6.27762 15.6943C6.47106 15.9706 6.73683 16.1882 7.04579 16.3234C7.35475 16.4586 7.69496 16.506 8.02912 16.4606C8.36329 16.4152 8.67849 16.2787 8.94018 16.066C9.18318 15.8489 9.34738 15.5574 9.40707 15.237C9.46676 14.9167 9.41858 14.5856 9.27007 14.2955C9.21986 14.1812 9.14015 14.0823 9.03912 14.009C8.93809 13.9357 8.81936 13.8905 8.69513 13.8782C8.5709 13.8659 8.44563 13.8869 8.33216 13.939C8.2187 13.991 8.12113 14.0724 8.04947 14.1746C7.96629 14.2584 7.86671 14.3241 7.75696 14.3676C7.64722 14.4111 7.52967 14.4315 7.41167 14.4275C7.37358 14.1438 7.44762 13.8564 7.61805 13.6264C7.78848 13.3965 8.04187 13.242 8.32438 13.1959C8.51667 13.1602 8.71438 13.1662 8.90412 13.2137C9.09386 13.2611 9.27117 13.3488 9.42402 13.4708C9.71404 13.7171 9.92355 14.0447 10.0255 14.4112C10.1274 14.7778 10.1171 15.1665 9.99584 15.5271C9.87318 15.9924 9.60133 16.4046 9.22196 16.7005C8.84259 16.9965 8.37663 17.1599 7.89552 17.1656H7.00481L7.9395 19.3649L8.08246 19.2549C9.2441 18.2101 10.4829 17.2544 11.7883 16.3959C13.6773 15.1045 15.8293 14.2482 18.0892 13.8887C18.3061 13.8715 18.5167 13.8076 18.7065 13.7013C18.8964 13.595 19.0609 13.4488 19.1889 13.2729H18.892C18.892 13.1519 18.892 13.0639 18.892 12.965C19.0512 12.0109 19.3168 11.0778 19.6837 10.1829C20.677 7.63616 22.1434 5.30047 24.0053 3.29909C24.1153 3.17813 24.2142 3.02418 24.3462 2.85923L22.1469 1.92453C22.1469 2.32041 22.1469 2.66129 22.1469 3.02418C22.0992 3.60209 21.8251 4.13777 21.3844 4.51465C20.9437 4.89152 20.372 5.07909 19.7937 5.03653C19.5766 5.0404 19.3612 4.99865 19.1613 4.91397C18.9614 4.8293 18.7815 4.7036 18.6333 4.545C18.485 4.3864 18.3718 4.19844 18.3008 3.99329C18.2298 3.78814 18.2027 3.57037 18.2212 3.35407C18.2375 3.20925 18.2824 3.06911 18.3534 2.94182C18.4244 2.81452 18.5199 2.70259 18.6345 2.61255C18.7491 2.52251 18.8805 2.45615 19.0209 2.41732C19.1614 2.37849 19.3082 2.36798 19.4528 2.38638ZM13.1958 5.59735C13.0542 6.13733 13.0928 6.7088 13.3058 7.22482C13.534 7.68284 13.795 8.12383 14.0865 8.54439C14.1745 8.68735 14.2075 8.77532 14.0865 8.88528C14.0411 8.91596 14.0004 8.95299 13.9656 8.99525C13.8666 9.1382 13.7676 9.1382 13.6247 8.99525C13.4045 8.8107 13.1691 8.64516 12.9209 8.50041C12.577 8.28535 12.194 8.14061 11.7938 8.07455C11.3937 8.00848 10.9844 8.02242 10.5896 8.11553C10.7876 8.39044 10.9635 8.65436 11.1505 8.89628C11.6667 9.59878 12.4282 10.0816 13.2838 10.2488C13.5379 10.3114 13.8031 10.3146 14.0586 10.2581C14.3142 10.2017 14.5534 10.0871 14.7575 9.92337C14.9617 9.75961 15.1254 9.55103 15.236 9.3138C15.3465 9.07656 15.401 8.81706 15.3951 8.55539C15.3584 7.78327 15.0463 7.04984 14.5154 6.48806C14.1633 6.07821 13.7076 5.77057 13.1958 5.59735ZM8.8852 3.77194C8.8852 3.84891 8.8852 3.8709 8.8852 3.8929C9.14924 5.03413 9.54405 6.14109 10.0618 7.19183C10.0967 7.28129 10.1593 7.35726 10.2404 7.40869C10.3215 7.46012 10.4169 7.48431 10.5127 7.47774H12.3051C12.514 7.47774 12.547 7.40076 12.547 7.22482C12.547 6.64201 12.547 6.0592 12.547 5.46539C12.5577 5.36143 12.5301 5.25713 12.4694 5.17208C12.4087 5.08704 12.3189 5.0271 12.2171 5.00354L10.2268 4.26678L8.8852 3.77194ZM7.56562 20.8934C7.56562 20.8934 7.48865 20.9594 7.47765 20.9814C6.89994 21.7595 6.45754 22.6294 6.16908 23.5545C6.00869 24.0167 5.95603 24.5094 6.01513 24.9951C6.02259 25.0912 6.05924 25.1827 6.12016 25.2574C6.18109 25.3321 6.26338 25.3863 6.35602 25.4129C6.45397 25.4634 6.56622 25.4789 6.6742 25.4569C6.78218 25.4349 6.87941 25.3768 6.94982 25.292C7.04749 25.1554 7.1287 25.0078 7.19175 24.8521C7.47079 24.1714 7.61638 23.4435 7.62061 22.7078C7.6316 22.081 7.58762 21.5092 7.56562 20.8934ZM25.8747 2.50734H27.0733C27.7298 2.55562 28.3898 2.50371 29.0307 2.35339C29.4156 2.24343 29.8114 2.12247 30.1853 1.97952C30.2829 1.95468 30.3703 1.90002 30.4354 1.82315C30.5004 1.74627 30.5399 1.65101 30.5482 1.55065C30.5482 1.33072 30.4052 1.23176 30.2513 1.12179C30.0921 1.0134 29.9101 0.943126 29.7194 0.916427C29.5287 0.889729 29.3345 0.907322 29.1516 0.967842C27.9704 1.26517 26.8577 1.78792 25.8747 2.50734ZM53.6407 10.2049C54.3005 10.2818 54.9713 10.3368 55.6311 10.4578C56.8378 10.6709 57.9527 11.2417 58.8311 12.0962C59.3406 12.6272 59.6683 13.3063 59.7671 14.0355C59.866 14.7647 59.7307 15.5065 59.3809 16.1539C58.7761 17.2536 58.2812 18.4742 57.7204 19.6398C57.5995 19.8927 57.7204 20.0907 57.8744 20.2886C58.2263 20.8274 58.6111 21.3882 58.974 21.9161C59.505 22.8095 59.7719 23.8352 59.7438 24.8741C59.7438 25.5669 59.4469 25.9738 58.864 26.1167C58.6187 26.1962 58.3531 26.1868 58.1139 26.0904C57.8747 25.9939 57.6771 25.8164 57.5555 25.5889C57.0539 24.7629 56.7842 23.8171 56.7747 22.8508C56.7747 22.092 56.7747 21.3223 56.8737 20.5525C56.8854 20.4065 56.8627 20.2598 56.8073 20.1241C56.7519 19.9885 56.6654 19.8678 56.5548 19.7718C54.8671 18.0996 52.9122 16.7208 50.7707 15.6921C49.6734 15.1843 48.5172 14.8149 47.3288 14.5924C46.9219 14.5155 46.504 14.4935 46.0972 14.4275C45.6903 14.3615 45.6573 14.2516 45.6133 13.8887C45.4193 12.0993 44.8658 10.3675 43.9859 8.79731C43.0127 6.95019 41.7918 5.24463 40.357 3.72795C40.278 3.64883 40.2045 3.56432 40.1371 3.47503C40.0292 3.33979 39.8851 3.23801 39.7215 3.18155C39.558 3.12509 39.3818 3.11627 39.2134 3.15613C37.8877 3.39733 36.5238 3.32198 35.2327 2.93621C34.8748 2.82213 34.5344 2.65932 34.221 2.45236C34.0263 2.32989 33.8748 2.14943 33.788 1.93639C33.7013 1.72334 33.6835 1.48844 33.7372 1.26475C33.7681 1.03493 33.8709 0.820783 34.0309 0.65291C34.1909 0.485037 34.3998 0.372032 34.6279 0.330048C34.9933 0.289376 35.3621 0.289376 35.7275 0.330048C36.7307 0.489604 37.6874 0.86477 38.5316 1.42969C38.8835 1.62763 39.2354 1.83656 39.6313 2.05649C39.7797 2.14348 39.9486 2.18933 40.1206 2.18933C40.2926 2.18933 40.4615 2.14348 40.6099 2.05649C41.7096 1.50667 42.8752 0.956846 44.0079 0.429016C44.7648 0.031737 45.6465 -0.0561625 46.467 0.183841C47.2875 0.423844 47.9829 0.973006 48.4064 1.7156C49.0974 2.71283 49.518 3.8722 49.627 5.08051C49.627 5.4214 49.704 5.76229 49.748 6.18016L49.9019 6.11418L51.1995 5.09151C51.2557 5.06241 51.305 5.02152 51.344 4.97163C51.383 4.92174 51.4107 4.86402 51.4253 4.80243C51.4399 4.74083 51.4411 4.67681 51.4287 4.61473C51.4163 4.55265 51.3906 4.49398 51.3535 4.44272C51.1555 3.96987 50.9356 3.50802 50.7817 3.02418C50.5734 2.46553 50.5277 1.85932 50.6497 1.27574C50.7873 0.842293 51.0835 0.476818 51.4791 0.252514C51.8747 0.0282099 52.3404 -0.0383612 52.783 0.0661333C52.9761 0.120681 53.156 0.214387 53.3113 0.34142C53.4666 0.468452 53.5942 0.626094 53.686 0.804537C53.7778 0.982979 53.8319 1.1784 53.8449 1.37865C53.8579 1.5789 53.8296 1.77969 53.7617 1.96852C53.686 2.14148 53.5705 2.29412 53.4246 2.41399C53.2787 2.53385 53.1066 2.61756 52.9222 2.65829C52.7379 2.69903 52.5465 2.69563 52.3637 2.64838C52.1809 2.60112 52.0118 2.51136 51.8703 2.38638C52.0935 2.25054 52.3291 2.13639 52.5741 2.04549C52.9919 1.94653 53.1679 1.80357 53.1569 1.44069C53.1502 1.25953 53.0789 1.08675 52.9559 0.953622C52.8328 0.820495 52.6662 0.735819 52.4861 0.714924C52.3277 0.689231 52.1656 0.698529 52.0111 0.742163C51.8567 0.785798 51.7136 0.862712 51.5921 0.967505C51.4705 1.0723 51.3734 1.20243 51.3075 1.34876C51.2415 1.4951 51.2085 1.65409 51.2105 1.81457C51.178 1.9964 51.178 2.18256 51.2105 2.36439C51.4414 3.06816 51.6834 3.76094 51.9253 4.45372C51.9236 4.48668 51.9236 4.51972 51.9253 4.55268C53.4963 3.78844 55.1651 3.24449 56.8847 2.93621C56.8847 3.17813 56.8077 3.40905 56.7637 3.61799C56.464 4.97738 56.0102 6.29816 55.4112 7.55471C55.3122 7.75265 55.3562 7.84062 55.5321 7.92859C56.2026 8.348 56.9505 8.62846 57.7314 8.75333C57.9408 8.77327 58.1517 8.73928 58.3442 8.65458C58.5367 8.56988 58.7043 8.43731 58.8311 8.26948C58.9669 8.12458 59.0554 7.94178 59.0849 7.74536C59.1143 7.54895 59.0833 7.34822 58.996 7.16984C58.9243 7.02115 58.806 6.8999 58.6592 6.82449C58.5123 6.74908 58.3449 6.72362 58.1823 6.75197C57.9294 6.75197 57.8084 6.93891 57.7094 7.31279C57.6265 7.56096 57.5273 7.8034 57.4125 8.03856C57.2673 7.89932 57.1606 7.72486 57.1028 7.53217C57.045 7.33947 57.038 7.13509 57.0826 6.93891C57.1212 6.77121 57.1945 6.61346 57.2978 6.47582C57.401 6.33818 57.532 6.22371 57.6822 6.13979C57.8325 6.05587 57.9986 6.00436 58.17 5.98859C58.3413 5.97281 58.5141 5.99312 58.6771 6.0482C58.9049 6.11447 59.1143 6.23249 59.2889 6.39305C59.4636 6.5536 59.5988 6.75234 59.6839 6.97377C59.7691 7.19519 59.8019 7.4333 59.7799 7.6695C59.7578 7.90571 59.6815 8.13363 59.5568 8.33546C59.3419 8.74926 58.9816 9.06906 58.5452 9.23345C58.1089 9.39785 57.6272 9.39526 57.1926 9.22617C56.4888 9.00625 55.818 8.72034 55.1363 8.44543C54.9713 8.37945 54.8943 8.39044 54.7844 8.5334C54.3995 9.03924 53.9816 9.51208 53.5858 10.0069L53.6407 10.2049ZM42.8092 1.95752L40.6099 2.91421C40.6384 2.95803 40.6716 2.99859 40.7089 3.03517C41.3027 3.73895 41.9075 4.40973 42.4793 5.1245C43.8547 6.80807 44.9061 8.73194 45.5803 10.7987C45.8443 11.6674 45.9982 12.5691 46.1961 13.4598C46.1961 13.6138 46.2841 13.7127 46.4601 13.7347C47.4697 13.8493 48.4625 14.0818 49.4181 14.4275C51.815 15.3301 54.0281 16.6603 55.95 18.3532C56.3129 18.6501 56.6538 18.969 57.0496 19.2989L57.9953 17.0996H57.1816C56.6871 17.095 56.207 16.9324 55.8114 16.6357C55.4157 16.339 55.1253 15.9236 54.9823 15.4502C54.8477 15.0491 54.8515 14.6144 54.993 14.2157C55.1346 13.8171 55.4057 13.4773 55.7631 13.2509C55.9209 13.1469 56.1011 13.0818 56.2889 13.0608C56.4767 13.0398 56.6669 13.0635 56.8438 13.13C57.0207 13.1964 57.1794 13.3038 57.3069 13.4433C57.4344 13.5828 57.5271 13.7505 57.5775 13.9327C57.5775 14.0316 57.5775 14.1966 57.5775 14.2406C57.5109 14.3001 57.4248 14.333 57.3355 14.333C57.2463 14.333 57.1602 14.3001 57.0936 14.2406C57.0166 14.1636 56.9837 14.0536 56.9067 13.9876C56.8297 13.9217 56.6208 13.7677 56.4888 13.7787C56.3336 13.7722 56.1804 13.8157 56.0517 13.9028C55.923 13.9899 55.8257 14.116 55.774 14.2625C55.6834 14.5502 55.6571 14.8543 55.6971 15.1533C55.7523 15.5254 55.9391 15.8653 56.2236 16.1115C56.5081 16.3576 56.8714 16.4936 57.2476 16.4948C57.5038 16.5045 57.7591 16.4604 57.9973 16.3655C58.2354 16.2705 58.451 16.1267 58.6302 15.9433C58.8094 15.76 58.9482 15.5412 59.0378 15.3009C59.1273 15.0607 59.1655 14.8044 59.15 14.5485C59.156 14.1391 59.0679 13.7339 58.8925 13.364C58.7171 12.9941 58.4591 12.6695 58.1383 12.4151C57.0834 11.4902 55.7254 10.9854 54.3225 10.9966C53.2229 10.9966 52.1232 10.9966 51.1006 10.9416C50.7862 10.9282 50.4779 10.8508 50.1946 10.714C49.9112 10.5771 49.6589 10.3839 49.4529 10.146C49.247 9.90812 49.0918 9.63068 48.9969 9.33068C48.9021 9.03069 48.8695 8.71447 48.9013 8.40144C48.9013 7.42276 48.9013 6.43308 48.9013 5.45439C48.8662 4.2707 48.4838 3.12345 47.8016 2.15546C47.5493 1.7338 47.189 1.38715 46.7579 1.1513C46.3268 0.915461 45.8406 0.79898 45.3494 0.813892C45.0119 0.80688 44.679 0.893612 44.3878 1.06445C44.0966 1.23528 43.8585 1.48352 43.7 1.78158C43.5289 2.08327 43.4502 2.42856 43.4737 2.77458C43.4971 3.1206 43.6217 3.45211 43.8319 3.72795C44.0378 4.02755 44.3487 4.23899 44.703 4.32043C45.0573 4.40188 45.4292 4.34742 45.7453 4.16781C45.8384 4.10945 45.9152 4.02838 45.9685 3.93221C46.0217 3.83604 46.0497 3.72791 46.0497 3.61799C46.0497 3.50806 46.0217 3.39994 45.9685 3.30376C45.9152 3.20759 45.8384 3.12652 45.7453 3.06816C45.6553 3.02066 45.5852 2.9427 45.5474 2.84823C45.4594 2.6503 45.5474 2.38638 45.7783 2.39738C46.0088 2.43536 46.2233 2.53991 46.3952 2.69816C46.5671 2.85641 46.689 3.06146 46.746 3.28809C46.8131 3.65869 46.7368 4.04094 46.5326 4.35741C46.3285 4.67389 46.0116 4.90093 45.6463 4.99254C45.3108 5.10796 44.9524 5.14049 44.6016 5.08736C44.2508 5.03424 43.918 4.89703 43.6318 4.68745C43.3455 4.47787 43.1142 4.20214 42.9575 3.88379C42.8009 3.56544 42.7236 3.21392 42.7323 2.85923L42.8092 1.95752ZM54.3885 8.09354C54.0036 8.09354 53.6627 8.09354 53.2888 8.09354C52.5859 8.19535 51.9282 8.50123 51.3975 8.97326C51.3425 8.97326 51.2325 9.09422 51.2105 9.07222C51.0677 8.97155 50.9415 8.8491 50.8366 8.70934C50.8366 8.70934 50.9136 8.5334 50.9686 8.45642L51.3425 7.92859C51.5743 7.57337 51.7326 7.17534 51.8081 6.75796C51.8837 6.34059 51.8749 5.91231 51.7823 5.49838C51.5294 5.67432 51.2875 5.83927 51.0676 6.01521C50.6936 6.26564 50.3748 6.58995 50.1309 6.96817C49.8869 7.3464 49.7229 7.77054 49.649 8.2145C49.597 8.43049 49.5886 8.65467 49.6243 8.87395C49.6599 9.09323 49.7389 9.3032 49.8567 9.49159C49.9744 9.67997 50.1285 9.843 50.31 9.97114C50.4915 10.0993 50.6967 10.1899 50.9136 10.2378C51.2753 10.3223 51.6516 10.3223 52.0133 10.2378C52.5439 10.0799 53.0325 9.80539 53.4435 9.4344C53.8544 9.06341 54.1773 8.6053 54.3885 8.09354ZM56.1479 3.83791C56.0929 3.83791 56.0819 3.83791 56.06 3.83791C54.8885 4.10553 53.752 4.50774 52.673 5.03653C52.6022 5.07057 52.5438 5.12608 52.5063 5.19517C52.4688 5.26427 52.4541 5.34343 52.4641 5.4214C52.4641 6.02621 52.4641 6.63101 52.4641 7.22482C52.4641 7.43375 52.5301 7.46674 52.717 7.46674H54.5314C54.6282 7.47808 54.7257 7.45435 54.8064 7.39987C54.8872 7.34539 54.9457 7.26377 54.9713 7.16984L55.961 4.54169C56.0819 4.31076 56.082 4.06884 56.1479 3.83791ZM38.8615 2.50734V2.40838L38.1687 1.95752C37.4469 1.46714 36.6303 1.13372 35.7715 0.978838C35.4624 0.890818 35.1349 0.890818 34.8258 0.978838C34.7354 0.996522 34.6522 1.04021 34.5863 1.10453C34.5204 1.16886 34.4747 1.25103 34.4549 1.34095C34.435 1.43086 34.4419 1.52462 34.4746 1.61071C34.5072 1.6968 34.5644 1.77148 34.6389 1.82556C34.7357 1.93258 34.8562 2.01544 34.9908 2.06749C35.5427 2.25091 36.1092 2.38703 36.6842 2.47436C37.4089 2.52388 38.1357 2.53489 38.8615 2.50734ZM57.4785 21.1023V21.7401C57.3626 22.734 57.4716 23.7411 57.7974 24.6872C57.8773 24.905 57.9966 25.1063 58.1493 25.281C58.2043 25.3578 58.2817 25.416 58.3708 25.4475C58.4599 25.479 58.5566 25.4824 58.6477 25.4572C58.7389 25.432 58.8201 25.3795 58.8804 25.3067C58.9407 25.2339 58.9772 25.1443 58.985 25.0501C59.029 24.7658 59.029 24.4766 58.985 24.1923C58.7795 23.0424 58.2579 21.9725 57.4785 21.1023ZM22.4438 16.8027C23.5836 16.3461 24.6476 15.7195 25.5998 14.9443C26.2706 14.3945 26.8974 13.8447 27.5572 13.2399C28.0844 12.7889 28.7364 12.5089 29.4266 12.4371C30.4114 12.3655 31.3877 12.6634 32.1647 13.2729C33.5392 14.2625 34.8918 15.2962 36.2663 16.2859C38.8536 18.2191 41.5686 19.9752 44.3927 21.5422C44.5501 21.6241 44.6853 21.743 44.7868 21.8885C44.8883 22.034 44.953 22.2019 44.9755 22.3779C45.0305 22.7848 45.0525 23.2027 45.0745 23.6205C45.0745 24.4123 45.1405 25.204 45.1625 25.9958C45.1625 27.3483 45.2614 28.7119 45.3164 30.0644C45.3164 30.6473 45.3164 31.2301 45.4264 31.8129C45.5034 32.6266 45.6023 33.4404 45.7013 34.2431C45.7013 34.65 45.8003 35.0458 45.8553 35.4527C46.0776 35.4049 46.2729 35.2729 46.4 35.0842C46.5271 34.8956 46.5762 34.6651 46.537 34.441C46.537 33.9682 46.4381 33.4953 46.3941 33.0335C46.2841 32.0108 46.1412 30.9991 46.0862 29.9875C46.0092 28.5799 45.9872 27.1834 45.9872 25.7868C45.9872 24.1374 45.9872 22.4879 45.9872 20.8604C45.9878 20.2489 46.1265 19.6455 46.3931 19.0952C46.6597 18.5449 47.0472 18.0619 47.5267 17.6824C47.7932 17.4418 48.1106 17.2644 48.4553 17.1635C48.7999 17.0626 49.1628 17.0408 49.5171 17.0996C49.8358 17.12 50.1463 17.2096 50.4269 17.3622C50.7075 17.5147 50.9516 17.7265 51.142 17.9829C51.3325 18.2393 51.4648 18.5341 51.5298 18.8469C51.5948 19.1596 51.5909 19.4827 51.5184 19.7938C51.4256 20.4105 51.1128 20.9728 50.6379 21.377C50.163 21.7812 49.5579 22 48.9343 21.9931C48.8535 21.9946 48.7732 21.9797 48.6984 21.9491C48.6236 21.9186 48.5558 21.8731 48.4992 21.8154C48.4426 21.7578 48.3983 21.6892 48.3691 21.6138C48.34 21.5385 48.3264 21.458 48.3295 21.3773C48.3013 21.0855 48.3402 20.7912 48.4431 20.5168C48.546 20.2424 48.7102 19.9951 48.9233 19.7938C49.1862 19.5886 49.47 19.4117 49.77 19.2659C49.858 19.211 50.0009 19.2109 49.9569 19.046C49.9112 18.9221 49.8311 18.8138 49.7258 18.7339C49.6206 18.654 49.4948 18.6059 49.3631 18.5951C49.1879 18.6105 49.0176 18.6613 48.8626 18.7444C48.7075 18.8276 48.5711 18.9414 48.4614 19.079C48.0019 19.5954 47.6804 20.2195 47.5267 20.8934C47.4115 21.3704 47.4115 21.868 47.5267 22.3449C47.5308 22.3912 47.5441 22.4362 47.5657 22.4774C47.5874 22.5185 47.6169 22.5549 47.6527 22.5846C47.6885 22.6142 47.7298 22.6365 47.7742 22.6501C47.8187 22.6637 47.8653 22.6684 47.9116 22.6638C48.5494 22.6638 49.1872 22.5869 49.814 22.4879C50.386 22.4141 50.9236 22.1735 51.3597 21.796C51.7958 21.4186 52.1111 20.9211 52.2662 20.3656C52.471 19.8257 52.5146 19.2379 52.3916 18.6737C52.2686 18.1096 51.9844 17.5932 51.5734 17.1876C51.262 16.8719 50.8901 16.6221 50.48 16.4534C50.0699 16.2846 49.6299 16.2003 49.1865 16.2054C48.743 16.2106 48.3052 16.3051 47.8991 16.4833C47.493 16.6615 47.127 16.9197 46.8229 17.2426C46.1238 17.9528 45.62 18.8316 45.3604 19.7938C45.2505 20.1676 45.1185 20.5415 44.9865 20.9484C40.7502 18.5609 36.706 15.8476 32.8904 12.833C33.6366 12.4649 34.4854 12.3603 35.2987 12.5361C35.9551 12.77 36.552 13.1454 37.0471 13.6357C38.1467 14.4935 39.1694 15.3732 40.2691 16.1759C40.6879 16.5097 41.1692 16.7565 41.6847 16.9019C42.2002 17.0473 42.7395 17.0884 43.2711 17.0227C43.7106 16.9662 44.1358 16.8282 44.5247 16.6158C44.5247 16.5498 44.4587 16.4948 44.4147 16.4398L42.7323 14.1526C42.1227 13.2172 41.2339 12.4977 40.1921 12.0962C39.84 11.9689 39.4602 11.9386 39.0924 12.0083C38.9668 12.024 38.842 12.046 38.7186 12.0743V12.1622C39.1474 12.3712 39.5543 12.6021 39.9832 12.767C40.6403 12.993 41.2174 13.4057 41.6436 13.9546C42.0175 14.4715 42.3254 15.0543 42.6443 15.5821C42.7433 15.7361 42.8092 15.912 42.9192 16.1209C42.259 16.1367 41.6064 15.9774 41.0278 15.6591C39.7544 14.7972 38.5386 13.8531 37.388 12.833C36.784 12.2507 36.0232 11.8573 35.1989 11.701C34.3747 11.5448 33.5227 11.6324 32.7475 11.9533C32.2872 12.1293 31.7782 12.1293 31.3179 11.9533C30.476 11.6289 29.5546 11.5713 28.6788 11.7883C27.904 12.0537 27.1926 12.4768 26.5895 13.0309C25.4239 13.9437 24.2472 14.8454 23.0706 15.7471C22.6356 15.9923 22.1579 16.1527 21.6631 16.2199C21.5892 16.0861 21.5266 15.9463 21.4761 15.802C21.4601 15.7657 21.4518 15.7263 21.4518 15.6866C21.4518 15.6468 21.4601 15.6075 21.4761 15.5711C21.773 15.0983 22.0699 14.6144 22.3998 14.1636C22.9164 13.4123 23.7052 12.8917 24.5991 12.712C24.9327 12.6051 25.2298 12.407 25.4568 12.1402C25.3548 12.0922 25.2479 12.0554 25.1379 12.0303C24.6832 11.9229 24.2078 11.9409 23.7625 12.0822C23.3171 12.2236 22.9184 12.483 22.6088 12.833C21.85 13.6907 21.1572 14.6034 20.4095 15.4941C20.1236 15.846 19.8597 16.1979 19.5518 16.5938C19.9877 16.842 20.4737 16.9896 20.9741 17.0258C21.4745 17.0619 21.9767 16.9857 22.4438 16.8027ZM32.2197 22.8508C31.3157 22.8571 30.4222 23.0441 29.5915 23.4006C28.4324 23.8963 27.4352 24.7067 26.7129 25.7399C25.9906 26.7732 25.572 27.988 25.5045 29.2468C25.437 30.5057 25.7232 31.7583 26.3309 32.8629C26.9385 33.9674 27.8433 34.8798 28.9427 35.4967C30.3063 36.2005 33.6602 36.5963 34.0341 36.0355H33.9021C33.3126 36.0739 32.7212 36.0739 32.1317 36.0355C31.2773 35.9494 30.4558 35.6611 29.7349 35.1945C29.014 34.728 28.4145 34.0965 27.986 33.3524C27.4217 32.4097 27.0538 31.3627 26.9045 30.2742C26.7552 29.1857 26.8276 28.0782 27.1173 27.0184C27.3255 25.951 27.8803 24.9822 28.6955 24.2624C29.5108 23.5426 30.5409 23.1121 31.6258 23.0377L32.2307 22.9607L32.2197 22.8508ZM32.8465 22.9497C33.0444 22.9497 33.2423 22.9497 33.4403 23.0377C34.3721 23.2002 35.2463 23.6003 35.9783 24.1994C36.7103 24.7985 37.2754 25.5763 37.6189 26.4576C38.3585 28.2547 38.4822 30.246 37.9708 32.1208C37.7975 32.9611 37.4082 33.7418 36.8413 34.3858C36.2744 35.0299 35.5494 35.5151 34.7378 35.7936C34.6887 35.8204 34.641 35.8498 34.5949 35.8816V35.9475L34.9028 35.8706C36.3107 35.4203 37.5267 34.5103 38.3557 33.2864C39.3806 31.7599 39.7746 29.8958 39.4553 28.0851C39.2641 26.7689 38.6276 25.558 37.6519 24.6542C36.3781 23.5335 34.7514 22.8953 33.0554 22.8508C32.9751 22.8404 32.8938 22.8404 32.8135 22.8508L32.8465 22.9497ZM49.5391 42.9413C49.542 43.139 49.5054 43.3353 49.4314 43.5187C49.3574 43.7021 49.2476 43.8688 49.1083 44.0092C48.9689 44.1495 48.803 44.2606 48.6202 44.3359C48.4373 44.4112 48.2413 44.4493 48.0435 44.4478C47.6676 44.4156 47.3175 44.2435 47.0623 43.9656C46.8072 43.6876 46.6656 43.3241 46.6656 42.9468C46.6656 42.5695 46.8072 42.2059 47.0623 41.928C47.3175 41.6501 47.6676 41.478 48.0435 41.4458C48.2408 41.4428 48.4366 41.4795 48.6193 41.5536C48.8021 41.6277 48.9682 41.7377 49.1076 41.8772C49.2471 42.0167 49.3572 42.1827 49.4313 42.3655C49.5054 42.5483 49.542 42.7441 49.5391 42.9413ZM48.0326 42.1495C47.9262 42.1476 47.8206 42.168 47.7226 42.2095C47.6247 42.251 47.5366 42.3127 47.464 42.3905C47.3914 42.4682 47.336 42.5604 47.3013 42.661C47.2667 42.7616 47.2535 42.8683 47.2628 42.9743C47.2628 43.0777 47.2833 43.1802 47.3233 43.2756C47.3632 43.3711 47.4217 43.4576 47.4953 43.5303C47.569 43.6029 47.6564 43.6602 47.7524 43.6988C47.8484 43.7374 47.9511 43.7565 48.0545 43.755C48.1595 43.7536 48.2631 43.7313 48.3593 43.6895C48.4555 43.6477 48.5425 43.5872 48.6152 43.5115C48.6878 43.4358 48.7447 43.3464 48.7825 43.2485C48.8203 43.1506 48.8382 43.0462 48.8353 42.9413C48.8401 42.8351 48.8225 42.7291 48.7837 42.6301C48.745 42.5311 48.6858 42.4414 48.6101 42.3668C48.5344 42.2921 48.4439 42.2342 48.3444 42.1968C48.2449 42.1594 48.1387 42.1433 48.0326 42.1495ZM16.9676 41.4458C17.1755 41.428 17.3849 41.4535 17.5824 41.5209C17.7799 41.5882 17.9612 41.6959 18.115 41.837C18.2687 41.9781 18.3914 42.1496 18.4754 42.3407C18.5593 42.5317 18.6027 42.7381 18.6027 42.9468C18.6027 43.1555 18.5593 43.3619 18.4754 43.5529C18.3914 43.7439 18.2687 43.9155 18.115 44.0566C17.9612 44.1977 17.7799 44.3053 17.5824 44.3727C17.3849 44.44 17.1755 44.4656 16.9676 44.4478C16.7597 44.4656 16.5503 44.44 16.3528 44.3727C16.1553 44.3053 15.9739 44.1977 15.8202 44.0566C15.6665 43.9155 15.5437 43.7439 15.4598 43.5529C15.3758 43.3619 15.3325 43.1555 15.3325 42.9468C15.3325 42.7381 15.3758 42.5317 15.4598 42.3407C15.5437 42.1496 15.6665 41.9781 15.8202 41.837C15.9739 41.6959 16.1553 41.5882 16.3528 41.5209C16.5503 41.4535 16.7597 41.428 16.9676 41.4458ZM16.9676 42.1495C16.8618 42.1464 16.7566 42.1651 16.6584 42.2045C16.5602 42.2439 16.4711 42.3031 16.3968 42.3784C16.3225 42.4538 16.2646 42.5436 16.2265 42.6423C16.1885 42.7411 16.1713 42.8466 16.1758 42.9523C16.1758 43.0586 16.197 43.1639 16.238 43.262C16.279 43.3601 16.3391 43.4491 16.4148 43.5238C16.4905 43.5985 16.5803 43.6574 16.679 43.6971C16.7777 43.7368 16.8832 43.7565 16.9896 43.755C17.1988 43.7467 17.397 43.6591 17.544 43.5101C17.6911 43.361 17.7759 43.1616 17.7813 42.9523C17.7829 42.8446 17.7625 42.7376 17.7213 42.6381C17.6802 42.5385 17.6191 42.4484 17.5419 42.3732C17.4647 42.2981 17.373 42.2395 17.2723 42.201C17.1717 42.1626 17.0642 42.145 16.9566 42.1495H16.9676ZM15.4611 11.8873C15.4611 11.4907 15.6186 11.1103 15.8991 10.8298C16.1796 10.5494 16.56 10.3918 16.9566 10.3918C17.3536 10.3973 17.7331 10.556 18.0158 10.8346C18.2986 11.1133 18.4628 11.4905 18.4741 11.8873C18.463 12.2863 18.2996 12.6659 18.0174 12.9481C17.7351 13.2303 17.3556 13.3937 16.9566 13.4048C16.5597 13.3935 16.1826 13.2293 15.9039 12.9466C15.6252 12.6638 15.4666 12.2843 15.4611 11.8873ZM16.9786 11.0956C16.8729 11.0895 16.7672 11.1053 16.6679 11.142C16.5686 11.1786 16.4779 11.2354 16.4016 11.3086C16.3252 11.3819 16.2648 11.4701 16.224 11.5678C16.1833 11.6655 16.1632 11.7705 16.1648 11.8763C16.1619 11.9827 16.1802 12.0885 16.2185 12.1877C16.2568 12.287 16.3145 12.3776 16.3882 12.4543C16.4619 12.531 16.55 12.5924 16.6476 12.6347C16.7452 12.6771 16.8502 12.6996 16.9566 12.7011C17.1707 12.6955 17.3744 12.608 17.5258 12.4566C17.6772 12.3051 17.7648 12.1014 17.7703 11.8873C17.7703 11.6773 17.6869 11.4759 17.5384 11.3275C17.3899 11.179 17.1886 11.0956 16.9786 11.0956ZM49.5391 11.8983C49.5569 12.1062 49.5313 12.3156 49.464 12.5131C49.3966 12.7106 49.289 12.892 49.1478 13.0457C49.0067 13.1994 48.8352 13.3221 48.6442 13.4061C48.4531 13.4901 48.2467 13.5334 48.038 13.5334C47.8294 13.5334 47.623 13.4901 47.4319 13.4061C47.2409 13.3221 47.0694 13.1994 46.9282 13.0457C46.7871 12.892 46.6795 12.7106 46.6121 12.5131C46.5448 12.3156 46.5192 12.1062 46.537 11.8983C46.5692 11.5224 46.7413 11.1722 47.0193 10.9171C47.2972 10.662 47.6608 10.5204 48.038 10.5204C48.4153 10.5204 48.7789 10.662 49.0568 10.9171C49.3348 11.1722 49.5069 11.5224 49.5391 11.8983ZM47.2848 11.8763C47.2772 11.9819 47.2915 12.088 47.3268 12.1878C47.3621 12.2876 47.4176 12.3791 47.4898 12.4565C47.5621 12.5339 47.6495 12.5956 47.7467 12.6377C47.8439 12.6797 47.9487 12.7013 48.0545 12.7011C48.1604 12.7025 48.2654 12.6828 48.3635 12.643C48.4615 12.6031 48.5506 12.5441 48.6255 12.4692C48.7003 12.3944 48.7594 12.3053 48.7992 12.2072C48.839 12.1092 48.8588 12.0041 48.8573 11.8983C48.8633 11.7941 48.8478 11.6898 48.8117 11.5918C48.7756 11.4939 48.7197 11.4044 48.6475 11.3291C48.5752 11.2537 48.4882 11.1941 48.3919 11.1539C48.2955 11.1137 48.1919 11.0939 48.0875 11.0956C47.982 11.0877 47.8759 11.1023 47.7764 11.1384C47.6769 11.1746 47.5863 11.2314 47.5104 11.3052C47.4345 11.379 47.3751 11.4681 47.3363 11.5665C47.2974 11.665 47.2798 11.7706 47.2848 11.8763Z" fill="white"/>
</g>
<defs>
<clipPath id="clip0">
<rect width="65" height="90.0279" fill="white"/>
</clipPath>
</defs>
</svg>
