<svg width="65" height="90" viewBox="0 0 65 90" fill="none" xmlns="http://www.w3.org/2000/svg">
<g clip-path="url(#clip0)">
<path d="M26.0685 45.5149C26.0313 45.5077 25.9334 45.4858 25.8355 45.4704C24.8538 45.3246 23.9242 44.9352 23.1316 44.3378C22.3391 43.7404 21.7087 42.9541 21.2982 42.0504C21.246 41.9182 21.1576 41.8033 21.0431 41.719C20.9287 41.6347 20.7927 41.5844 20.6509 41.5739C20.1533 41.4561 19.712 41.1694 19.4022 40.7626C19.0924 40.3559 18.9332 39.8542 18.9518 39.3433C19.1629 39.4865 19.4049 39.5778 19.658 39.6097C19.9111 39.6416 20.1681 39.6133 20.4082 39.5269C20.4118 39.4601 20.4118 39.3931 20.4082 39.3263C20.2063 37.247 20.5304 35.1503 21.3508 33.229C21.5607 32.6695 21.7046 32.0873 21.7796 31.4944C21.8816 30.9657 21.8716 30.4215 21.7502 29.8969C21.6288 29.3723 21.3988 28.8791 21.0749 28.449C21.3192 28.3828 21.5749 28.3697 21.8248 28.4105C22.0746 28.4514 22.3128 28.5452 22.5234 28.6858C22.7339 28.8264 22.9119 29.0104 23.0454 29.2255C23.179 29.4406 23.2649 29.6818 23.2974 29.9328L25.5386 27.9465C25.4876 27.8721 25.4763 27.8405 25.4577 27.8252C23.3658 26.358 20.938 25.4417 18.3984 25.1609C16.4915 24.9282 14.5664 25.4158 13.0002 26.5282C12.0918 27.1417 11.4273 28.0543 11.1225 29.1072C10.8177 30.1601 10.8918 31.2866 11.3319 32.2905C11.5646 32.9186 11.9502 33.4787 12.4539 33.9203C12.9575 34.3619 13.5632 34.671 14.2163 34.8197C15.1771 35.0143 16.175 34.8955 17.0634 34.4809C17.9517 34.0663 18.6837 33.3777 19.1517 32.5162C19.2933 32.2735 19.4179 32.0259 19.5506 31.78C19.5705 32.0183 19.555 32.2582 19.5044 32.4919C19.3658 33.4662 18.8785 34.3571 18.133 34.9994C17.3874 35.6417 16.4342 35.9918 15.4501 35.9848C14.3594 35.9787 13.296 35.6433 12.3991 35.0225C11.5023 34.4017 10.8139 33.5244 10.4241 32.5057C10.2226 31.9604 10.0867 31.3908 9.91682 30.822C9.12554 31.8949 8.38604 32.1975 7.39572 31.8738C6.58664 31.6076 5.98064 30.9733 5.98145 30.3908C6.27963 30.4004 6.57799 30.3782 6.87144 30.3244C7.18916 30.268 7.48182 30.1152 7.70965 29.8867C8.26529 29.1417 8.99097 28.5403 9.8262 28.1326C10.811 27.4704 11.6454 26.6084 12.2753 25.6026C11.035 25.9958 10.2841 25.4408 9.56649 24.6576C9.76309 24.4958 9.92734 24.3469 10.1037 24.215C11.3889 23.2939 12.9141 22.7663 14.4938 22.6964C17.487 22.5156 20.4617 23.2773 22.9997 24.8745C23.3031 25.0541 23.5968 25.2499 23.8087 25.3858C23.8087 24.707 23.8201 24.0104 23.8047 23.3105C23.8004 22.8622 23.7672 22.4147 23.7052 21.9707C23.6939 21.6384 23.583 21.3172 23.3867 21.0488C23.1905 20.7804 22.9181 20.5773 22.6048 20.4658C22.2955 20.388 21.9684 20.4257 21.6849 20.5718C21.5633 20.6387 21.4617 20.7367 21.3903 20.8557C21.3189 20.9747 21.2803 21.1104 21.2784 21.2492C21.2765 21.388 21.3114 21.5248 21.3795 21.6457C21.4477 21.7666 21.5466 21.8672 21.6663 21.9375C21.7442 21.9653 21.8271 21.9763 21.9096 21.9696C21.992 21.9629 22.0721 21.9387 22.1445 21.8987C22.206 21.8622 22.1574 21.6195 22.1372 21.4731C22.1291 21.4148 22.0636 21.3647 22.0239 21.3113C22.13 21.1858 22.2798 21.1054 22.443 21.0863C22.6061 21.0673 22.7704 21.1109 22.9026 21.2085C23.0519 21.3121 23.163 21.4619 23.2187 21.6349C23.2744 21.8079 23.2717 21.9944 23.2108 22.1656C23.1367 22.3617 23.0168 22.5373 22.8611 22.6777C22.7055 22.8181 22.5186 22.9193 22.3159 22.973C22.1133 23.0266 21.9008 23.0311 21.696 22.9861C21.4913 22.9411 21.3002 22.8479 21.1388 22.7142C20.7928 22.4697 20.551 22.1045 20.4612 21.6905C20.3713 21.2765 20.4399 20.8438 20.6533 20.4779C20.8611 20.0911 21.207 19.7969 21.6221 19.6538C22.0372 19.5108 22.4909 19.5294 22.8929 19.706C23.0968 19.7926 23.2885 19.9099 23.5126 20.0297L23.7376 19.4916C23.8751 19.6607 23.9649 19.7805 24.0612 19.8921C24.3987 20.3137 24.6435 20.8018 24.7796 21.3245C24.9157 21.8472 24.9399 22.3927 24.8509 22.9254C24.7892 23.5802 24.7714 24.2383 24.7974 24.8955C24.8248 25.359 24.9738 25.8072 25.2295 26.1948C25.4852 26.5824 25.8384 26.8959 26.2538 27.1035C28.0524 25.4044 28.1414 19.1826 25.2255 16.8233C25.9259 16.7008 26.6438 16.7197 27.3369 16.8788C28.03 17.0379 28.6842 17.334 29.2611 17.7497C30.8429 19.0135 30.783 20.7433 30.4829 22.5233C31.0697 21.6584 31.5174 20.707 31.8098 19.7036C31.997 19.1218 32.0021 18.4967 31.8242 17.9119C31.6464 17.3272 31.2941 16.8107 30.8146 16.4317C30.491 16.1477 30.1536 15.8653 29.8218 15.5902C29.2753 15.2013 28.8556 14.6598 28.6152 14.0335C28.3749 13.4071 28.3246 12.7239 28.4707 12.0691C28.6554 11.2951 29.0274 10.5783 29.554 9.98169C29.9558 9.52875 30.1757 8.94309 30.1714 8.33763C30.16 8.08154 30.0621 7.83687 29.8937 7.64362C29.7253 7.45036 29.4963 7.31995 29.2442 7.27369C29.0062 7.22757 28.7597 7.2692 28.5501 7.39088C28.3405 7.51256 28.1821 7.70604 28.1042 7.93552C28.0447 8.24612 28.0841 8.56753 28.2166 8.85464C28.2894 9.02131 28.5856 9.0917 28.783 9.20497L28.8574 9.06096C28.8121 9.03911 28.7474 9.02859 28.7223 8.99218C28.6045 8.86587 28.5186 8.71333 28.4715 8.54719C28.465 8.45738 28.6924 8.26077 28.7895 8.27614C28.8795 8.2921 28.9655 8.32577 29.0425 8.37522C29.1194 8.42466 29.1858 8.48889 29.2377 8.56418C29.2723 8.64326 29.2902 8.7286 29.2905 8.8149C29.2907 8.90121 29.2732 8.98664 29.2391 9.06591C29.2049 9.14517 29.1549 9.21659 29.092 9.27572C29.0291 9.33485 28.9548 9.38044 28.8736 9.40967C28.7061 9.48806 28.5215 9.52292 28.3369 9.51104C28.1524 9.49917 27.9738 9.44093 27.8177 9.34171C27.6616 9.2425 27.5331 9.10552 27.444 8.94344C27.3549 8.78137 27.3081 8.59944 27.308 8.4145C27.2796 7.84805 27.4595 7.2908 27.8138 6.84794C28.1681 6.40508 28.6723 6.10726 29.2312 6.01071C29.656 5.90958 30.0929 5.86103 30.5452 5.78498L30.2353 5.21296L31.1682 5.14824C30.9824 4.7308 30.9217 4.26842 30.9935 3.81718C31.0653 3.36595 31.2665 2.94524 31.5727 2.6061C31.7969 2.34891 32.0386 2.1075 32.296 1.88359V1.53326C32.3583 1.59232 32.4222 1.65057 32.4862 1.70883C32.5565 1.64491 32.6269 1.58099 32.6949 1.51465V1.90139C32.9523 2.1253 33.194 2.36671 33.4182 2.6239C33.7245 2.96299 33.9258 3.3837 33.9976 3.83496C34.0694 4.28622 34.0086 4.74862 33.8227 5.16603L34.7556 5.23076L34.4457 5.80278C34.8972 5.87884 35.3357 5.92738 35.7597 6.02852C36.3184 6.12506 36.8223 6.42279 37.1765 6.8655C37.5307 7.30821 37.7105 7.86526 37.6821 8.43149C37.6821 8.6165 37.6354 8.79853 37.5464 8.96071C37.4573 9.12289 37.3288 9.25998 37.1727 9.35929C37.0166 9.4586 36.838 9.51691 36.6533 9.52883C36.4687 9.54075 36.2841 9.50588 36.1165 9.42746C36.0354 9.39814 35.9611 9.35249 35.8983 9.29334C35.8355 9.23419 35.7855 9.1628 35.7514 9.08356C35.7173 9.00432 35.6997 8.91893 35.6999 8.83266C35.7001 8.74639 35.718 8.66107 35.7524 8.58198C35.8044 8.50675 35.8708 8.44257 35.9477 8.39313C36.0247 8.3437 36.1106 8.30999 36.2006 8.29395C36.2977 8.27938 36.5243 8.47599 36.5186 8.56499C36.5081 8.71952 36.3657 8.86677 36.2678 9.01079C36.2427 9.0472 36.1796 9.05691 36.1327 9.07956L36.2071 9.22358C36.4029 9.11031 36.6982 9.03992 36.7735 8.87244C36.9062 8.58538 36.9458 8.26401 36.8867 7.95332C36.8087 7.72378 36.6501 7.53028 36.4404 7.40861C36.2307 7.28694 35.984 7.24533 35.7459 7.29149C35.4938 7.33775 35.2648 7.46816 35.0964 7.66142C34.928 7.85468 34.8301 8.09934 34.8187 8.35543C34.8145 8.96087 35.0344 9.54646 35.4361 9.99949C35.9627 10.5961 36.3347 11.3129 36.5194 12.0869C36.6654 12.7416 36.6151 13.4247 36.3749 14.051C36.1348 14.6773 35.7153 15.2188 35.1691 15.608C34.8357 15.8864 34.5032 16.1647 34.1763 16.4495C33.6966 16.8283 33.3441 17.3447 33.1661 17.9295C32.9881 18.5143 32.9931 19.1395 33.1803 19.7214C33.4731 20.7248 33.9211 21.6762 34.508 22.5411C34.2079 20.7611 34.148 19.0345 35.7298 17.7675C36.3067 17.3518 36.961 17.0557 37.654 16.8967C38.3471 16.7376 39.065 16.7187 39.7655 16.8411C36.8528 19.2004 36.9385 25.4173 38.7371 27.1205C39.1525 26.913 39.5058 26.5998 39.7614 26.2123C40.0171 25.8248 40.1661 25.3767 40.1935 24.9133C40.2195 24.2561 40.2017 23.598 40.1401 22.9432C40.051 22.4105 40.0753 21.865 40.2114 21.3423C40.3475 20.8197 40.5922 20.3316 40.9297 19.9099C41.0292 19.7991 41.1191 19.6793 41.2534 19.5102L41.4783 20.0483C41.7024 19.9302 41.8942 19.8128 42.098 19.7246C42.5 19.5478 42.9538 19.5291 43.3689 19.6721C43.784 19.8152 44.13 20.1096 44.3376 20.4965C44.551 20.8624 44.6196 21.2951 44.5297 21.7091C44.4399 22.1231 44.1981 22.4883 43.8521 22.7328C43.6907 22.8665 43.4996 22.9597 43.2949 23.0047C43.0902 23.0497 42.8776 23.0452 42.675 22.9916C42.4723 22.938 42.2854 22.8367 42.1298 22.6963C41.9741 22.5559 41.8542 22.3803 41.7801 22.1843C41.7192 22.013 41.7165 21.8265 41.7722 21.6535C41.8279 21.4805 41.939 21.3307 42.0883 21.2271C42.2205 21.1295 42.3848 21.0859 42.548 21.105C42.7111 21.124 42.8609 21.2044 42.967 21.3299C42.9282 21.3841 42.861 21.4342 42.8537 21.4917C42.8335 21.6381 42.7849 21.8808 42.8464 21.9164C42.9187 21.9567 42.9988 21.9811 43.0812 21.988C43.1637 21.9948 43.2467 21.9839 43.3246 21.9561C43.4441 21.8857 43.5428 21.785 43.6108 21.6641C43.6788 21.5432 43.7136 21.4065 43.7117 21.2678C43.7098 21.1292 43.6713 20.9935 43.6001 20.8745C43.5288 20.7555 43.4274 20.6575 43.306 20.5904C43.0222 20.4443 42.6949 20.4066 42.3853 20.4844C42.072 20.5959 41.7996 20.799 41.6034 21.0674C41.4071 21.3358 41.2962 21.657 41.2849 21.9893C41.2229 22.433 41.1899 22.8803 41.1862 23.3283C41.17 24.0265 41.1822 24.7248 41.1822 25.4044C41.3974 25.2685 41.6911 25.0735 41.9912 24.8931C44.5304 23.2971 47.5061 22.5374 50.4995 22.7207C52.0792 22.7905 53.6045 23.3182 54.8896 24.2393C55.066 24.3704 55.2302 24.5193 55.4277 24.6811C54.7092 25.461 53.9576 26.0193 52.718 25.6261C53.3518 26.632 54.1908 27.4927 55.1801 28.152C56.0152 28.5599 56.7408 29.1613 57.2966 29.9061C57.5248 30.1347 57.8177 30.2875 58.1357 30.3438C58.4291 30.3977 58.7275 30.4197 59.0257 30.4094C59.0257 30.9927 58.418 31.6279 57.6122 31.8924C56.6219 32.2161 55.8816 31.9135 55.0903 30.8406C54.9212 31.407 54.7844 31.979 54.583 32.5243C54.1931 33.543 53.5047 34.4202 52.6079 35.0409C51.7111 35.6617 50.6477 35.9972 49.557 36.0034C48.5729 36.0104 47.6197 35.6603 46.8741 35.018C46.1286 34.3757 45.6413 33.4848 45.5027 32.5106C45.4519 32.2769 45.4363 32.0369 45.4565 31.7986C45.5892 32.0413 45.713 32.2945 45.8554 32.5348C46.3233 33.3964 47.0552 34.0851 47.9436 34.4997C48.832 34.9143 49.83 35.033 50.7908 34.8383C51.444 34.6895 52.0498 34.3803 52.5534 33.9386C53.057 33.4968 53.4426 32.9365 53.6752 32.3083C54.1153 31.3045 54.1894 30.1782 53.8845 29.1254C53.5797 28.0726 52.9152 27.1601 52.0069 26.5468C50.4409 25.4345 48.5161 24.9469 46.6095 25.1795C44.0698 25.4598 41.6418 26.3762 39.5502 27.8438C39.5276 27.8583 39.5163 27.8899 39.4693 27.9651L41.7105 29.9506C41.743 29.6996 41.8289 29.4584 41.9625 29.2433C42.096 29.0282 42.274 28.8442 42.4845 28.7036C42.6951 28.563 42.9333 28.4692 43.1831 28.4283C43.433 28.3875 43.6887 28.4006 43.933 28.4668C43.6092 28.8969 43.3793 29.3902 43.258 29.9148C43.1368 30.4394 43.1269 30.9835 43.2291 31.5122C43.3038 32.1052 43.4477 32.6874 43.658 33.2468C44.4788 35.168 44.8029 37.2648 44.6005 39.3441C44.5969 39.4109 44.5969 39.4779 44.6005 39.5447C44.8406 39.6311 45.0976 39.6594 45.3507 39.6275C45.6038 39.5956 45.8458 39.5043 46.0569 39.3611C46.0755 39.872 45.9163 40.3737 45.6065 40.7804C45.2967 41.1872 44.8554 41.4739 44.3578 41.5917C44.216 41.6023 44.0801 41.6526 43.9657 41.7369C43.8512 41.8212 43.7628 41.936 43.7105 42.0682C43.2999 42.9718 42.6696 43.7582 41.877 44.3555C41.0845 44.9529 40.1549 45.3423 39.1732 45.4882C39.0753 45.5036 38.9774 45.5254 38.9402 45.5319C39.1413 46.0278 39.2915 46.5429 39.3884 47.0692C39.3978 47.9585 39.0841 48.8209 38.5055 49.4964C37.9269 50.1718 37.1229 50.6143 36.2427 50.7416C34.9275 50.9413 33.5857 50.6301 32.4926 49.8718C31.405 50.6176 30.0745 50.9219 28.7709 50.723C27.8908 50.5957 27.0869 50.1533 26.5083 49.4781C25.9298 48.8028 25.616 47.9405 25.6251 47.0514C25.7207 46.5256 25.8693 46.0108 26.0685 45.5149ZM9.71455 29.1286C9.58753 29.5731 9.34532 29.9762 9.01243 30.297C8.67954 30.6178 8.26778 30.845 7.81887 30.9555C8.75093 31.3285 9.79141 30.178 9.71455 29.1286ZM57.1842 30.9733C56.7354 30.8627 56.3238 30.6356 55.991 30.3147C55.6582 29.9939 55.4162 29.5909 55.2893 29.1464C55.2125 30.1958 56.2529 31.3471 57.1842 30.9733ZM21.9762 35.0292C21.5459 36.3804 21.4597 37.8176 21.7254 39.2106L25.1235 37.5115L25.0992 37.3683C24.7921 37.3865 24.487 37.3087 24.2261 37.1458C23.9651 36.9828 23.7613 36.7428 23.6429 36.4589C23.5532 36.2576 23.5195 36.0359 23.5451 35.8171C23.5707 35.5983 23.6548 35.3904 23.7885 35.2153C24.0458 35.8561 24.4981 35.9354 25.083 35.8124C25.3789 35.7554 25.6852 35.7939 25.9577 35.9225C26.2354 36.0523 26.5372 36.1226 26.8437 36.129C27.1502 36.1354 27.4547 36.0778 27.7377 35.9597C28.2958 35.7357 28.9014 35.6559 29.4985 35.7276C30.0957 35.7993 30.6651 36.0201 31.1544 36.3699C31.2353 36.4289 31.3292 36.4694 31.4894 36.5608C31.2345 35.0519 30.978 33.6239 29.8777 32.5413C29.7052 32.3521 29.4942 32.2021 29.2588 32.1014C29.0234 32.0008 28.7691 31.9518 28.5132 31.9579C28.2572 31.964 28.0055 32.0249 27.7752 32.1365C27.5448 32.2482 27.3411 32.408 27.1778 32.6052C27.086 32.694 27.0155 32.8024 26.9716 32.9223C26.9276 33.0422 26.9115 33.1705 26.9242 33.2976C26.937 33.4246 26.9784 33.5472 27.0453 33.6559C27.1122 33.7647 27.2028 33.8569 27.3105 33.9256C27.3794 33.6225 27.5001 33.3334 27.6673 33.0713C27.7972 32.9311 27.9755 32.8454 28.1661 32.8313C28.3567 32.8171 28.5456 32.8757 28.6948 32.9952C28.8622 33.1231 28.9854 33.3001 29.0473 33.5014C29.1093 33.7027 29.1068 33.9184 29.0403 34.1182C28.9467 34.3811 28.7787 34.6111 28.5568 34.7803C28.3348 34.9495 28.0685 35.0506 27.7902 35.0713C27.4916 35.1156 27.1865 35.0736 26.911 34.9502C26.6354 34.8267 26.4009 34.627 26.2352 34.3747C26.0812 34.1528 25.9757 33.901 25.9253 33.6357C25.8749 33.3704 25.8808 33.0975 25.9426 32.8346C26.0045 32.5717 26.1209 32.3248 26.2844 32.1098C26.4478 31.8948 26.6546 31.7165 26.8913 31.5866C27.2208 31.3921 27.5887 31.2717 27.9695 31.2337C28.3502 31.1957 28.7347 31.241 29.0961 31.3665L29.1867 31.2694L26.6656 28.6634C24.8363 30.6594 22.8743 32.4507 21.9762 35.0292ZM25.4658 36.598L24.1607 36.3691C24.3087 36.5648 24.5253 36.6972 24.767 36.7397C25.0087 36.7821 25.2574 36.7315 25.4633 36.598H25.4658ZM25.973 39.3554C25.8541 39.5194 25.7839 39.7136 25.7706 39.9157C25.7573 40.1179 25.8014 40.3197 25.8978 40.4978C26.01 40.7235 26.1821 40.9141 26.3953 41.0487C26.6085 41.1832 26.8545 41.2566 27.1066 41.2608C26.7287 41.1205 26.4102 40.8552 26.204 40.5089C25.9978 40.1625 25.9163 39.7561 25.973 39.357V39.3554ZM27.4189 17.8824C28.0664 18.6196 28.5323 19.4982 28.7791 20.4478C29.026 21.3975 29.047 22.3917 28.8404 23.351C29.144 22.9094 29.3491 22.4078 29.4419 21.88C29.5347 21.3523 29.5129 20.8107 29.3781 20.2921C29.2433 19.7735 28.9986 19.29 28.6605 18.8742C28.3225 18.4584 27.8991 18.1202 27.4189 17.8824ZM30.5743 7.04068C31.4918 7.78341 31.1787 8.64913 30.9238 9.50271C30.711 10.2171 30.4384 10.9146 30.2676 11.6387C29.944 13.0271 30.5808 13.8766 32.0865 14.0724C31.7383 13.7657 31.4821 13.3684 31.3462 12.9248C31.2104 12.4811 31.2003 12.0085 31.317 11.5594C31.436 10.6735 31.618 9.79641 31.762 8.91451C31.7956 8.69285 31.8102 8.46873 31.8057 8.24459C31.796 7.41124 31.491 7.09812 30.5703 7.03825L30.5743 7.04068ZM32.4967 2.41516C32.1789 2.75595 31.9519 3.17109 31.8364 3.62248C31.7209 4.07387 31.7207 4.54704 31.8357 4.99855C31.8559 5.12962 31.9012 5.25665 31.9255 5.38772C31.9363 5.56974 31.9986 5.74493 32.105 5.893C32.2114 6.04108 32.3576 6.15595 32.5266 6.22431C32.6843 6.15013 32.8193 6.03521 32.9177 5.89142C33.0162 5.74762 33.0744 5.58017 33.0865 5.40633C33.11 5.27526 33.1561 5.14824 33.1763 5.01636C33.2925 4.56014 33.2908 4.08185 33.1712 3.6265C33.0516 3.17115 32.8181 2.75374 32.4926 2.41354L32.4967 2.41516ZM34.7435 11.6565C34.576 10.9332 34.3009 10.2349 34.0873 9.52051C33.8325 8.66774 33.521 7.80122 34.4368 7.05848C33.5161 7.11754 33.2111 7.43147 33.2046 8.26239C33.2001 8.48627 33.2147 8.71011 33.2483 8.9315C33.3923 9.81421 33.5719 10.6913 33.6933 11.5772C33.81 12.0263 33.7999 12.4989 33.6641 12.9425C33.5282 13.3862 33.272 13.7835 32.9239 14.0902C34.4263 13.892 35.0598 13.0424 34.7394 11.6541L34.7435 11.6565ZM37.5882 17.9026C37.1081 18.1403 36.6846 18.4785 36.3466 18.8942C36.0086 19.3099 35.7639 19.7934 35.629 20.3119C35.4942 20.8305 35.4725 21.3719 35.5652 21.8996C35.658 22.4273 35.8631 22.9289 36.1667 23.3704C35.9595 22.4113 35.9799 21.417 36.2262 20.4672C36.4725 19.5174 36.9378 18.6385 37.585 17.901L37.5882 17.9026ZM35.1893 25.3688C34.1513 24.1732 33.2493 22.8661 32.4999 21.4715C31.7522 22.8593 30.8535 24.1604 29.8202 25.351C29.0484 26.241 28.2369 27.097 27.4003 28.0145C29.3663 29.8034 31.1415 31.7605 31.9481 34.4062L32.08 34.3731C32.1069 33.8182 31.9659 33.2681 31.6755 32.7946C30.7272 31.1489 31.0525 29.5331 31.813 27.9506C31.9478 27.6925 32.1135 27.4517 32.3065 27.2337V26.762C32.368 26.8429 32.4328 26.9239 32.4983 27.0048C32.5695 26.919 32.6399 26.8341 32.7054 26.7459V27.2532C32.8984 27.4717 33.0644 27.7126 33.1998 27.9708C33.9603 29.5534 34.2855 31.1683 33.3365 32.8148C33.046 33.288 32.905 33.8379 32.932 34.3925L33.0638 34.4265C33.8729 31.78 35.6456 29.822 37.6117 28.0347C36.7694 27.1132 35.9579 26.258 35.1861 25.3672L35.1893 25.3688ZM32.5104 31.5178C32.6777 31.1764 32.7639 30.801 32.7622 30.4208C32.7605 30.0406 32.671 29.6659 32.5007 29.326C32.3339 29.6659 32.2477 30.0396 32.2488 30.4182C32.2499 30.7968 32.3383 31.1701 32.5072 31.5089L32.5104 31.5178ZM43.0285 35.0535C42.1304 32.475 40.1692 30.6845 38.3358 28.6893L35.8147 31.2945L35.9053 31.3916C36.2667 31.2659 36.6512 31.2205 37.032 31.2585C37.4127 31.2965 37.7806 31.417 38.1101 31.6117C38.3467 31.7416 38.5534 31.9198 38.7167 32.1348C38.8801 32.3497 38.9965 32.5965 39.0583 32.8593C39.1202 33.1221 39.1262 33.3949 39.0759 33.6602C39.0255 33.9254 38.92 34.1771 38.7662 34.399C38.6006 34.6514 38.3661 34.8511 38.0905 34.9746C37.815 35.098 37.5098 35.14 37.2112 35.0956C36.9329 35.0748 36.6667 34.9737 36.4448 34.8045C36.2229 34.6353 36.0549 34.4053 35.9612 34.1425C35.8946 33.9426 35.8922 33.727 35.9541 33.5257C36.016 33.3243 36.1393 33.1474 36.3066 33.0195C36.4558 32.9 36.6447 32.8414 36.8353 32.8555C37.026 32.8696 37.2042 32.9554 37.3342 33.0955C37.5013 33.3577 37.622 33.6467 37.691 33.9499C37.7986 33.8812 37.8893 33.789 37.9562 33.6802C38.023 33.5714 38.0644 33.4489 38.0772 33.3219C38.09 33.1948 38.0738 33.0665 38.0299 32.9466C37.986 32.8267 37.9155 32.7183 37.8237 32.6295C37.6604 32.4322 37.4567 32.2723 37.2264 32.1605C36.996 32.0488 36.7443 31.9878 36.4883 31.9817C36.2323 31.9757 35.978 32.0247 35.7426 32.1254C35.5072 32.2261 35.2961 32.3762 35.1238 32.5656C34.0234 33.6473 33.7677 35.0737 33.5121 36.5851C33.6739 36.4945 33.7661 36.4524 33.847 36.3942C34.3365 36.0445 34.9061 35.8237 35.5034 35.7522C36.1007 35.6806 36.7064 35.7606 37.2646 35.9848C37.5475 36.1028 37.852 36.1605 38.1585 36.1541C38.465 36.1477 38.7668 36.0773 39.0446 35.9475C39.317 35.8189 39.6234 35.7804 39.9192 35.8375C40.5041 35.9605 40.9564 35.8812 41.2137 35.2396C41.3474 35.4149 41.4314 35.6229 41.4568 35.8419C41.4823 36.0609 41.4484 36.2827 41.3585 36.484C41.2401 36.7679 41.0363 37.0079 40.7753 37.1708C40.5144 37.3338 40.2093 37.4116 39.9022 37.3934L39.8787 37.5366L43.2769 39.2356C43.5439 37.8407 43.458 36.4011 43.0269 35.0478L43.0285 35.0535ZM37.8989 41.2834C38.151 41.2799 38.3972 41.2068 38.6105 41.0724C38.8237 40.9379 38.9958 40.7472 39.1077 40.5213C39.2041 40.3431 39.2482 40.1413 39.2349 39.9392C39.2216 39.7371 39.1514 39.5428 39.0324 39.3789C39.0881 39.7774 39.0059 40.1829 38.7994 40.5283C38.5929 40.8737 38.2747 41.1381 37.8973 41.2778L37.8989 41.2834ZM39.5389 36.6215C39.7449 36.7558 39.9942 36.807 40.2364 36.7646C40.4786 36.7223 40.6958 36.5896 40.844 36.3933L39.5389 36.6215ZM42.5479 41.4331C42.1009 41.3348 41.6805 41.1405 41.3159 40.8638C40.9513 40.5871 40.6511 40.2344 40.4362 39.8303C40.3785 40.398 40.142 40.9327 39.7607 41.3572C39.3794 41.7817 38.873 42.074 38.3148 42.192C37.8884 42.2485 37.455 42.1728 37.073 41.9754C36.6909 41.7779 36.3786 41.4681 36.178 41.0876C36.3487 41.035 36.5178 40.9897 36.6812 40.9307C37.2203 40.7541 37.6726 40.3801 37.9472 39.8837C38.2219 39.3874 38.2985 38.8056 38.1619 38.255C38.0363 37.7405 37.7245 37.2907 37.2866 36.9926C36.8488 36.6945 36.316 36.5692 35.7912 36.6409C35.2375 36.6459 34.7066 36.8624 34.3074 37.2461C33.9081 37.6299 33.6708 38.1518 33.6439 38.7049C33.6132 39.5224 33.7678 40.3362 34.0962 41.0854C34.4246 41.8346 34.9184 42.4998 35.5404 43.031C36.1743 43.6786 37.0099 44.0907 37.9094 44.1994C38.865 44.2214 39.8074 43.9729 40.6278 43.4825C41.4482 42.992 42.1133 42.2796 42.5463 41.4275L42.5479 41.4331ZM27.9448 49.0854C28.5051 49.3731 29.1251 49.5249 29.7549 49.5287C30.3847 49.5325 31.0066 49.3881 31.5703 49.1073C31.8206 49.0076 32.0655 48.8949 32.3041 48.7699V48.5902C32.3648 48.6194 32.4247 48.6493 32.4853 48.6801C32.5582 48.6437 32.6302 48.6072 32.703 48.5724V48.7885C32.9417 48.9133 33.1867 49.0259 33.4368 49.1259C34.0006 49.4066 34.6225 49.5508 35.2523 49.5469C35.8821 49.543 36.5021 49.391 37.0623 49.1032C37.3071 48.9599 37.5202 48.7683 37.6886 48.54C37.8569 48.3117 37.977 48.0514 38.0415 47.7752C38.106 47.4989 38.1136 47.2125 38.0637 46.9332C38.0139 46.6539 37.9077 46.3877 37.7517 46.1509C37.6239 45.9638 37.4445 45.8178 37.2354 45.7307C37.0263 45.6435 36.7965 45.6189 36.5736 45.6598C36.3932 45.6852 36.2261 45.769 36.0979 45.8984C35.9697 46.0278 35.8874 46.1956 35.8636 46.3762C35.8398 46.5569 35.8759 46.7403 35.9663 46.8985C36.0567 47.0566 36.1964 47.1808 36.3641 47.252C35.7071 47.7075 35.1327 47.7278 34.7969 47.2286C34.5979 46.9026 34.4834 46.5322 34.4635 46.1509C34.4158 45.472 34.877 45.0465 35.428 44.6759C34.4453 44.0443 33.6398 43.1727 33.0873 42.1435L32.703 42.4857V42.8231L32.5137 42.654L32.3041 42.8417V42.4671L31.9198 42.1249C31.3673 43.1541 30.5618 44.0257 29.5791 44.6573C30.1309 45.0287 30.5921 45.4543 30.5435 46.1323C30.5237 46.5136 30.4092 46.884 30.2102 47.21C29.8744 47.71 29.3 47.6897 28.643 47.2334C28.8107 47.1622 28.9504 47.038 29.0408 46.8799C29.1312 46.7217 29.1673 46.5382 29.1435 46.3576C29.1197 46.177 29.0374 46.0092 28.9092 45.8798C28.781 45.7504 28.6139 45.6666 28.4335 45.6412C28.2106 45.6004 27.9808 45.625 27.7717 45.7122C27.5626 45.7994 27.3833 45.9453 27.2554 46.1323C27.1 46.3689 26.9942 46.6347 26.9446 46.9135C26.895 47.1922 26.9026 47.4782 26.9669 47.7539C27.0313 48.0297 27.151 48.2895 27.3188 48.5175C27.4866 48.7456 27.699 48.9371 27.9432 49.0806L27.9448 49.0854ZM27.0969 44.1808C27.9964 44.0725 28.832 43.6606 29.4659 43.0133C30.0879 42.482 30.5817 41.8168 30.9101 41.0676C31.2385 40.3184 31.3931 39.5046 31.3623 38.6871C31.3357 38.1338 31.0984 37.6117 30.6992 37.2278C30.2999 36.8439 29.7689 36.6273 29.215 36.6223C28.6902 36.5504 28.1574 36.6756 27.7195 36.9738C27.2816 37.2719 26.9698 37.7218 26.8444 38.2364C26.7075 38.7869 26.784 39.3687 27.0585 39.8651C27.333 40.3614 27.7852 40.7355 28.3242 40.9121C28.4861 40.9711 28.6576 41.0164 28.8275 41.069C28.6268 41.4493 28.3144 41.759 27.9324 41.9563C27.5503 42.1536 27.117 42.2291 26.6907 42.1726C26.1324 42.0547 25.626 41.7624 25.2446 41.3379C24.8633 40.9134 24.6268 40.3786 24.5693 39.8109C24.3543 40.215 24.0542 40.5676 23.6896 40.8444C23.325 41.1211 22.9046 41.3154 22.4576 41.4137C22.8921 42.2642 23.558 42.9747 24.3786 43.4632C25.1993 43.9518 26.1413 44.1985 27.0961 44.1751L27.0969 44.1808Z" fill="white"/>
<path d="M19.9531 51.0703C20.0745 51.4991 20.1514 51.94 20.2484 52.3753C19.6885 50.6667 18.6148 49.1725 17.1739 48.0969C16.4652 47.5505 15.6388 47.177 14.7604 47.0062C13.8819 46.8354 12.9757 46.872 12.1139 47.1131C12.0943 46.2541 12.3968 45.4188 12.9618 44.7716C13.3241 44.4302 13.7737 44.1957 14.2609 44.0941C14.7481 43.9924 15.2539 44.0275 15.7224 44.1955C14.9943 43.2748 14.2459 42.6032 13.1188 42.6494C12.5565 42.667 12.0113 42.8466 11.5487 43.1667C11.0861 43.4867 10.7258 43.9336 10.5111 44.4536C9.73967 44.1559 9.0985 43.5947 8.70122 42.8694C8.22306 41.8273 8.66886 40.939 9.27486 40.0846C8.40323 39.9365 7.50709 40.0769 6.72251 40.4845C5.93793 40.892 5.30775 41.5445 4.92767 42.3427C4.29672 43.7169 4.20462 45.2778 4.66957 46.7166C4.75788 46.9492 4.86476 47.1743 4.98916 47.3898C4.96719 47.0414 5.0524 46.6946 5.23334 46.3961C5.41429 46.0975 5.68229 45.8615 6.00131 45.7198C6.31599 45.5738 6.66914 45.5323 7.00909 45.6015C7.34903 45.6706 7.65792 45.8468 7.89053 46.1041C8.12178 46.3423 8.27303 46.6467 8.3232 46.9749C8.37338 47.303 8.31998 47.6387 8.17046 47.9351C8.02409 48.2396 7.81636 48.5105 7.56032 48.7309C7.30427 48.9513 7.00544 49.1164 6.68257 49.2159C5.80926 49.5014 4.87022 49.5176 3.98757 49.2624C3.10493 49.0071 2.3195 48.4922 1.73341 47.7846C1.02328 46.9353 0.526589 45.9284 0.284786 44.848C0.0429836 43.7676 0.0630851 42.6451 0.343409 41.5741C1.12094 38.1112 3.52471 36.2301 6.85004 35.5569C9.67697 34.9849 12.19 35.9526 14.4125 37.7107C16.6331 39.5757 18.3844 41.9364 19.5251 44.6025C19.9208 45.4447 20.2727 46.3088 20.6506 47.1754C21.9596 45.3808 23.6442 45.0175 25.2478 46.1826C25.1393 46.2635 25.0374 46.3444 24.9338 46.4253C23.6848 47.3059 22.7802 48.5928 22.3747 50.0662C22.1182 51.0751 22.0074 52.1213 21.831 53.1504H21.5616C21.5462 52.8389 21.5357 52.5266 21.5138 52.2151C21.3852 50.3947 21.5389 48.6487 22.8262 47.1988C22.8582 47.1536 22.8854 47.105 22.9071 47.054C21.1174 47.6301 21.1845 49.1973 20.979 50.6949C20.9176 50.5743 20.8828 50.5153 20.8553 50.4521C20.0923 48.6989 19.3868 46.9181 18.5542 45.1996C17.5407 43.006 16.112 41.0294 14.347 39.379C13.4402 38.4675 12.325 37.7905 11.0979 37.4067C9.87072 37.0228 8.56855 36.9436 7.30394 37.1759C4.45921 37.701 2.35479 39.727 2.21644 42.6647C2.15557 43.747 2.40841 44.8238 2.9446 45.7659C2.95483 45.6785 2.9474 45.5899 2.92276 45.5054C2.57646 44.3225 2.63588 43.0577 3.09158 41.9124C3.54728 40.7672 4.37304 39.8073 5.43739 39.1857C6.93822 38.2799 8.71171 37.9358 10.4424 38.2148C11.7189 38.36 12.9022 38.9545 13.7806 39.892C13.9982 40.1509 14.2021 40.4209 14.3915 40.7011C14.2395 40.698 14.0899 40.6621 13.953 40.5959C13.4143 40.3609 12.8191 40.2866 12.2391 40.3821C11.6592 40.4775 11.1192 40.7386 10.6843 41.1339C10.4919 41.2896 10.3459 41.4949 10.262 41.7277C10.1782 41.9605 10.1597 42.2118 10.2085 42.4544C10.3841 42.3031 10.5144 42.1882 10.6479 42.0773C11.1868 41.5432 11.8991 41.2195 12.6559 41.1649C13.4128 41.1103 14.1642 41.3283 14.7742 41.7796C16.6315 43.1041 18.0473 44.9569 18.8374 47.0969C17.7104 45.8582 16.4102 45.1292 14.6779 45.5596C15.5292 45.6153 16.3476 45.9094 17.0396 46.4084C18.505 47.5926 19.5309 49.2341 19.9531 51.0703Z" fill="white"/>
<path d="M9.61054 47.8086C10.304 48.2876 11.1155 48.5675 11.9569 48.6177C12.9364 48.7256 13.9089 48.8896 14.8696 49.1088C15.5552 49.3398 16.1408 49.7989 16.5288 50.4095C16.9168 51.0201 17.0836 51.7453 17.0015 52.4641C16.3514 51.9603 15.6763 51.4896 14.9788 51.0538C14.4844 50.7473 13.9124 50.589 13.3307 50.5977C12.7491 50.6065 12.1821 50.7819 11.6972 51.1032C10.8981 51.6107 10.2435 52.3157 9.79663 53.1502H5.04004C6.73264 52.0733 8.20759 50.6145 10.2877 50.2067C9.78349 49.5136 9.54335 48.6631 9.61054 47.8086Z" fill="white"/>
<path d="M-2.82202 51.6688C-2.50957 51.5502 -2.17677 51.4943 -1.84269 51.5043C-1.50861 51.5144 -1.17979 51.5903 -0.875061 51.7276C-0.570329 51.8649 -0.295657 52.0609 -0.0667758 52.3045C0.162106 52.548 0.340704 52.8344 0.458807 53.147H-7.35449C-6.48014 52.8617 -5.60553 52.5764 -4.73064 52.291C-4.09471 52.0823 -3.46848 51.8363 -2.82202 51.6688Z" fill="white"/>
<path d="M13.3053 52.1575C13.8834 52.0776 14.4719 52.1247 15.0299 52.2956C15.5879 52.4665 16.1019 52.7571 16.536 53.1471H11.6855C11.87 52.8767 12.1098 52.6487 12.389 52.4781C12.6683 52.3075 12.9806 52.1982 13.3053 52.1575Z" fill="white"/>
<path d="M16.9023 50.0215C17.5406 50.2197 18.0801 50.6522 18.4121 51.2322C18.7442 51.8121 18.8442 52.4963 18.692 53.147H17.1653C17.743 52.062 17.3951 51.0434 16.9023 50.0215Z" fill="white"/>
<path d="M15.6563 31.0382C15.516 30.797 15.4549 30.5179 15.4818 30.2402C15.5086 29.9625 15.622 29.7002 15.806 29.4904C15.9752 29.278 16.2065 29.1239 16.4677 29.0496C16.7289 28.9753 17.0067 28.9846 17.2623 29.0761C17.7096 29.2148 18.0903 29.5129 18.3321 29.9139C18.5739 30.3149 18.6599 30.7907 18.5738 31.2509C18.4307 32.0065 18.0245 32.687 17.4273 33.1715C16.8301 33.656 16.0805 33.9132 15.3116 33.8975C14.475 33.8489 13.6861 33.4921 13.0972 32.8959C12.5083 32.2996 12.1613 31.5064 12.123 30.6692C12.1711 29.7318 12.4998 28.8304 13.0663 28.0819C13.6328 27.3335 14.4111 26.7725 15.3003 26.4717C17.2909 25.8572 19.4373 25.9902 21.3369 26.8455C21.6386 26.9935 21.9292 27.1631 22.2066 27.3528L22.1508 27.4588C21.5796 27.3552 21.0116 27.2347 20.438 27.1529C18.9304 26.8783 17.3797 26.9562 15.9071 27.3803C15.2903 27.5234 14.7282 27.8426 14.2893 28.299C13.8504 28.7555 13.5534 29.3296 13.4346 29.9516C13.3256 30.4921 13.4197 31.0538 13.6988 31.5293C13.9779 32.0049 14.4225 32.3609 14.9475 32.5293C15.3652 32.7008 15.8318 32.7103 16.2562 32.556C16.6805 32.4018 17.0321 32.0948 17.2421 31.6951L17.0601 31.7186C16.7844 31.7641 16.5015 31.7231 16.2501 31.6013C15.9988 31.4794 15.7913 31.2827 15.6563 31.0382Z" fill="white"/>
<path d="M-3.40621 50.8225C-3.47043 50.466 -3.41864 50.0983 -3.25845 49.7734C-3.09826 49.4485 -2.83812 49.1836 -2.51622 49.0175C-2.91415 48.9822 -3.29924 48.8588 -3.64362 48.6563C-3.98799 48.4538 -4.28303 48.1773 -4.50737 47.8467C-4.79921 47.5091 -5.11884 47.1965 -5.46289 46.9122C-4.14452 46.4261 -2.69818 46.4132 -1.37137 46.8758C0.856846 47.6849 2.04943 50.2198 2.18859 52.9359C0.55829 51.5232 -1.18689 50.5248 -3.40621 50.8225ZM-0.516975 50.0288C-0.56579 49.4058 -0.841976 48.8224 -1.29297 48.3898C-1.74397 47.9571 -2.33829 47.7054 -2.96283 47.6825C-2.45591 47.9544 -1.9761 48.2741 -1.52994 48.6372C-1.14818 49.0673 -0.80894 49.5334 -0.516975 50.0288Z" fill="white"/>
<path d="M19.1564 13.727C19.5444 13.0451 20.1417 12.5064 20.8599 12.1906C21.578 11.8748 22.3788 11.7988 23.1436 11.9737C25.3645 12.4163 26.8969 13.8767 28.3217 15.4884C28.2423 15.4638 28.1695 15.4214 28.1089 15.3646C26.8644 14.2554 25.337 13.5125 23.6962 13.2181C22.9765 13.0667 22.2262 13.1991 21.6018 13.5875C20.9774 13.976 20.5271 14.5906 20.3449 15.3031C20.2626 15.7286 20.2712 16.1666 20.37 16.5886C20.4689 17.0105 20.6558 17.4068 20.9186 17.7514C20.5023 17.656 20.1142 17.4644 19.7853 17.192C19.4564 16.9196 19.1959 16.5739 19.0246 16.1827C18.8533 15.7915 18.776 15.3657 18.7989 14.9392C18.8217 14.5128 18.9442 14.0976 19.1564 13.727Z" fill="white"/>
<path d="M5.60419 53.0517C4.65109 52.9262 3.81613 52.8623 3.003 52.6916C2.52513 52.5794 2.07058 52.3844 1.65992 52.1155C1.39991 51.9742 1.19788 51.7459 1.08916 51.4707C0.980452 51.1954 0.971982 50.8907 1.06524 50.6098C1.17067 50.2823 1.36239 49.9893 1.62022 49.7615C1.87806 49.5337 2.1925 49.3796 2.53049 49.3153C2.21091 50.2619 2.82743 50.6228 3.53133 50.9238C3.57259 50.9416 3.61224 50.9577 3.6535 50.9788C4.50999 51.4416 5.19415 52.1687 5.60419 53.0517Z" fill="white"/>
<path d="M24.3338 18.096C23.9057 18.2283 23.4501 18.2441 23.0138 18.1419C22.5775 18.0396 22.1763 17.823 21.8516 17.5143C21.6023 17.282 21.4151 16.9909 21.3072 16.6677C21.1993 16.3445 21.174 15.9994 21.2337 15.664C21.2934 15.3285 21.4361 15.0133 21.6489 14.7472C21.8617 14.481 22.1378 14.2724 22.4519 14.1404C22.7932 14 23.1744 13.9906 23.5222 14.1141C23.87 14.2376 24.1599 14.4853 24.3362 14.8095C24.4338 15.0373 24.4507 15.2915 24.384 15.5302C24.3174 15.7688 24.1712 15.9776 23.9697 16.1218C23.8776 16.1929 23.7723 16.2452 23.6599 16.2755C23.5475 16.3059 23.4302 16.3138 23.3148 16.2987C23.1994 16.2837 23.088 16.246 22.9872 16.1879C22.8863 16.1298 22.7979 16.0523 22.727 15.96C22.6372 15.8678 22.553 15.7691 22.4624 15.6695C21.7601 16.5935 22.6542 17.7165 24.3338 18.096Z" fill="white"/>
<path d="M4.18558 34.9094C4.16009 34.9265 4.133 34.9411 4.10468 34.9531C3.8948 35.0713 3.65321 35.121 3.4137 35.0952C3.17419 35.0694 2.94874 34.9693 2.76889 34.809C2.60785 34.6613 2.49869 34.4656 2.45759 34.2509C2.4165 34.0362 2.44565 33.8141 2.54073 33.6173C2.61749 33.3799 2.75962 33.1689 2.95081 33.0087C3.14201 32.8484 3.37452 32.7452 3.62166 32.7111C4.35594 32.5976 5.10648 32.6543 5.81534 32.877C6.5242 33.0996 7.17242 33.4822 7.70995 33.9951C7.09194 33.8608 6.45103 33.8736 5.83886 34.0324C5.22669 34.1912 4.66038 34.4916 4.18558 34.9094Z" fill="white"/>
<path d="M14.7195 19.1825C14.5089 19.1749 14.3049 19.1062 14.1325 18.9848C13.9602 18.8635 13.8268 18.6946 13.7487 18.4988C13.6703 18.311 13.6506 18.1039 13.6922 17.9048C13.7338 17.7056 13.8347 17.5238 13.9817 17.3831C14.1724 17.1689 14.4231 17.0169 14.7011 16.9466C14.9792 16.8764 15.272 16.8912 15.5416 16.989C16.5246 17.2798 17.3834 17.8884 17.9834 18.7197C18.2267 19.0492 18.4511 19.3923 18.6557 19.7472L18.5497 19.8613C18.0811 19.47 17.5224 19.2015 16.9241 19.0799C16.3258 18.9583 15.7067 18.9874 15.1225 19.1647C14.9899 19.1915 14.854 19.1976 14.7195 19.1825Z" fill="white"/>
<path d="M11.5327 21.4648C11.5247 21.6232 11.457 21.7727 11.3432 21.8832C11.2294 21.9937 11.078 22.057 10.9194 22.0603C10.7532 22.0571 10.5949 21.9892 10.4781 21.871C10.3613 21.7529 10.2952 21.5937 10.294 21.4276C10.2928 21.2689 10.3533 21.116 10.4628 21.0011C10.5722 20.8862 10.722 20.8184 10.8806 20.8119C10.9667 20.8104 11.0522 20.8264 11.132 20.8587C11.2118 20.891 11.2843 20.939 11.3451 21C11.406 21.0609 11.4539 21.1335 11.4862 21.2133C11.5184 21.2932 11.5342 21.3787 11.5327 21.4648Z" fill="white"/>
<path d="M13.0001 21.0007C13.0051 21.0761 12.9946 21.1517 12.9691 21.2228C12.9437 21.2939 12.9039 21.359 12.8522 21.4141C12.8005 21.4692 12.7381 21.5131 12.6688 21.543C12.5994 21.5729 12.5247 21.5883 12.4491 21.5881C12.3754 21.5905 12.3019 21.5784 12.2329 21.5524C12.1638 21.5264 12.1006 21.487 12.0468 21.4365C11.9929 21.3861 11.9496 21.3255 11.9191 21.2583C11.8887 21.1911 11.8718 21.1186 11.8694 21.0448C11.867 20.9711 11.8792 20.8976 11.9052 20.8286C11.9312 20.7595 11.9706 20.6963 12.021 20.6425C12.0715 20.5886 12.132 20.5453 12.1992 20.5148C12.2664 20.4844 12.339 20.4675 12.4127 20.4651C12.487 20.4594 12.5616 20.4689 12.6321 20.4931C12.7025 20.5173 12.7673 20.5557 12.8223 20.6059C12.8773 20.6561 12.9215 20.717 12.9521 20.7849C12.9827 20.8528 12.999 20.9263 13.0001 21.0007Z" fill="white"/>
<path d="M13.9729 21.3526C13.9057 21.3659 13.8364 21.3633 13.7705 21.3451C13.7045 21.3268 13.6437 21.2935 13.5929 21.2476C13.5422 21.2017 13.5028 21.1445 13.4781 21.0807C13.4533 21.017 13.4437 20.9482 13.4502 20.8801C13.4704 20.6714 13.684 20.4812 13.8119 20.2822L14.0311 20.2766C14.1687 20.4683 14.3847 20.6455 14.4252 20.8558C14.4802 21.1358 14.2658 21.334 13.9729 21.3526Z" fill="white"/>
<path d="M15.5494 20.3851C15.6579 20.5647 15.8626 20.7548 15.8456 20.9223C15.8136 21.0192 15.7583 21.1068 15.6845 21.1774C15.6107 21.2479 15.5207 21.2993 15.4224 21.3269C15.3629 21.3394 15.3012 21.3367 15.243 21.3191C15.1848 21.3016 15.132 21.2696 15.0894 21.2263C15.0467 21.1829 15.0157 21.1296 14.9991 21.0711C14.9825 21.0126 14.9809 20.9508 14.9944 20.8916C15.0252 20.7063 15.2161 20.5485 15.335 20.3778L15.5494 20.3851Z" fill="white"/>
<path d="M17.436 21.1381C17.165 21.3177 16.9942 21.516 16.864 21.4925C16.7783 21.4587 16.7024 21.404 16.6433 21.3333C16.5843 21.2626 16.5438 21.1783 16.5258 21.088C16.5145 20.9828 16.7539 20.7562 16.8818 20.7562C17.0282 20.7578 17.1755 20.948 17.436 21.1381Z" fill="white"/>
<path d="M18.5992 21.5653C18.6138 21.6656 18.4423 21.7934 18.2756 22.0119C18.1365 21.7691 17.99 21.6276 18.0005 21.4981C18.0102 21.3897 18.202 21.2966 18.3136 21.1979C18.4148 21.3193 18.5798 21.4318 18.5992 21.5653Z" fill="white"/>
<path d="M19.9334 22.1194C19.9334 22.2003 19.7627 22.3346 19.6737 22.3297C19.5847 22.3249 19.431 22.1744 19.4367 22.0943C19.4423 21.9843 19.5702 21.8815 19.7045 21.6898C19.821 21.8953 19.9375 22.0101 19.9334 22.1194Z" fill="white"/>
<path d="M-0.28684 37.5316C-0.352376 37.5389 -0.506098 37.3544 -0.49558 37.2719C-0.481016 37.1611 -0.347518 37.0648 -0.20431 36.8868C-0.0967022 37.085 0.0311326 37.2104 0.00928748 37.3107C-0.0182613 37.369 -0.0596616 37.4195 -0.111286 37.458C-0.16291 37.4965 -0.223189 37.5218 -0.28684 37.5316Z" fill="white"/>
<path d="M40.067 46.4436C39.9635 46.3627 39.8615 46.2818 39.7539 46.2009C41.3591 45.0366 43.042 45.3999 44.3511 47.1937C44.7289 46.3263 45.0793 45.463 45.4765 44.6208C46.6178 41.955 48.369 39.5944 50.5891 37.729C52.8084 35.9717 55.3247 35.004 58.1516 35.5761C61.4761 36.2484 63.8807 38.1311 64.6583 41.5932C64.9385 42.6642 64.9586 43.7867 64.7168 44.8671C64.475 45.9475 63.9783 46.9543 63.2683 47.8037C62.6821 48.5112 61.8967 49.0261 61.014 49.2813C60.1314 49.5366 59.1924 49.5204 58.3191 49.235C57.9963 49.1354 57.6975 48.9703 57.4414 48.7499C57.1854 48.5295 56.9776 48.2586 56.8312 47.9542C56.6817 47.6578 56.6283 47.3221 56.6785 46.994C56.7286 46.6658 56.8799 46.3614 57.1111 46.1232C57.3438 45.866 57.6527 45.6899 57.9926 45.6208C58.3325 45.5516 58.6856 45.593 59.0003 45.7389C59.3194 45.8806 59.5874 46.1166 59.7683 46.4152C59.9493 46.7137 60.0345 47.0605 60.0125 47.4089C60.138 47.1934 60.2463 46.9683 60.3361 46.7357C60.8005 45.2968 60.7084 43.7361 60.078 42.3618C59.6977 41.5638 59.0675 40.9115 58.283 40.504C57.4985 40.0964 56.6025 39.9559 55.7308 40.1037C56.3377 40.9581 56.7826 41.8473 56.3045 42.8885C55.9075 43.6142 55.2662 44.1757 54.4946 44.4735C54.2799 43.9536 53.9196 43.5067 53.457 43.1866C52.9944 42.8665 52.4492 42.6869 51.8869 42.6693C50.7598 42.624 50.0123 43.2947 49.2833 44.2154C49.7518 44.0476 50.2576 44.0126 50.7448 44.1143C51.232 44.2159 51.6816 44.4503 52.0439 44.7915C52.6098 45.4402 52.9123 46.2772 52.8918 47.1378C52.03 46.8968 51.1238 46.8602 50.2454 47.031C49.3669 47.2018 48.5405 47.5752 47.8318 48.1217C46.3907 49.1971 45.317 50.6913 44.7573 52.4001C44.8544 51.964 44.9312 51.5231 45.0526 51.095C45.4736 49.2575 46.4993 47.6144 47.9653 46.4291C48.6572 45.9299 49.4757 45.6358 50.327 45.5804C48.5964 45.1483 47.2945 45.8773 46.1675 47.1176C46.958 44.9778 48.3737 43.1252 50.2307 41.8003C50.8409 41.3495 51.5922 41.1318 52.3489 41.1864C53.1056 41.241 53.8178 41.5643 54.357 42.0981C54.4897 42.2089 54.6208 42.3246 54.7955 42.4751C54.8442 42.2325 54.8257 41.9813 54.7418 41.7485C54.6579 41.5158 54.512 41.3104 54.3198 41.1547C53.8846 40.7595 53.3445 40.4985 52.7645 40.403C52.1844 40.3075 51.5892 40.3817 51.0503 40.6166C50.9134 40.6829 50.7638 40.7187 50.6118 40.7218C50.8013 40.4418 51.0052 40.1717 51.2226 39.9127C52.1012 38.9755 53.2845 38.3813 54.5609 38.2363C56.2916 37.957 58.0652 38.3011 59.5659 39.2072C60.6303 39.8288 61.4561 40.7887 61.912 41.9339C62.3678 43.0791 62.4274 44.3439 62.0813 45.5269C62.056 45.6116 62.0483 45.7005 62.0587 45.7883C62.5948 44.8462 62.8477 43.7693 62.7868 42.6871C62.6477 39.7485 60.5441 37.7234 57.6993 37.1983C56.4347 36.966 55.1325 37.0452 53.9054 37.429C52.6783 37.8129 51.5631 38.4898 50.6563 39.4014C48.8912 41.0517 47.4625 43.0283 46.4491 45.2219C45.6165 46.9412 44.9118 48.7212 44.148 50.4745C44.1205 50.5376 44.0857 50.5975 44.0242 50.7172C43.8195 49.2204 43.8859 47.654 42.0962 47.0763C42.118 47.1271 42.1451 47.1754 42.1771 47.2204C43.4644 48.671 43.6181 50.4162 43.4902 52.2367C43.4684 52.5474 43.4579 52.8597 43.4425 53.1712H43.1731C42.9967 52.142 42.8859 51.0967 42.6294 50.0877C42.2238 48.6126 41.318 47.3244 40.067 46.4436Z" fill="white"/>
<path d="M50.1356 49.1234C51.0963 48.9039 52.0688 48.7399 53.0483 48.6323C53.8897 48.5821 54.7012 48.3023 55.3946 47.8232C55.461 48.6767 55.2209 49.5258 54.7174 50.2181C56.7984 50.6227 58.2726 52.0847 59.9652 53.1608H55.2053C54.7585 52.3265 54.1042 51.6216 53.3056 51.1138C52.8206 50.7926 52.2537 50.6172 51.672 50.6085C51.0904 50.5997 50.5184 50.7579 50.024 51.0644C49.3055 51.469 48.6607 52.0102 48.0013 52.4738C47.9205 51.7555 48.0882 51.0312 48.4766 50.4216C48.865 49.812 49.4505 49.3538 50.1356 49.1234Z" fill="white"/>
<path d="M67.8267 51.6874C68.474 51.8557 69.0994 52.1008 69.7354 52.3096C70.6097 52.5955 71.4843 52.8805 72.3592 53.1648H64.5459C64.6643 52.8523 64.843 52.5662 65.072 52.3229C65.3009 52.0795 65.5756 51.8836 65.8802 51.7464C66.1849 51.6092 66.5136 51.5334 66.8476 51.5233C67.1816 51.5131 67.5143 51.5689 67.8267 51.6874Z" fill="white"/>
<path d="M51.7001 52.1755C52.0244 52.2166 52.3363 52.3261 52.6153 52.4967C52.8942 52.6672 53.1338 52.895 53.3182 53.165H48.4678C48.9022 52.7749 49.4165 52.4843 49.9747 52.3134C50.5329 52.1425 51.1217 52.0954 51.7001 52.1755Z" fill="white"/>
<path d="M48.1023 50.0401C47.6095 51.062 47.2616 52.0806 47.8401 53.1648H46.3126C46.1604 52.5142 46.2604 51.8301 46.5925 51.2503C46.9246 50.6705 47.4641 50.238 48.1023 50.0401Z" fill="white"/>
<path d="M33.5855 44.7527C33.4837 45.3522 33.3349 45.9427 33.1405 46.5189C33.0271 46.7634 32.8792 46.9904 32.7012 47.1929V47.6686C32.6405 47.5877 32.575 47.5068 32.5094 47.4259C32.4382 47.5116 32.3678 47.5982 32.3023 47.6872V47.1751C32.1245 46.9725 31.9766 46.7455 31.863 46.5011C31.6685 45.9249 31.5197 45.3344 31.418 44.7349L32.5288 45.099L33.5855 44.7527Z" fill="white"/>
<path d="M32.7023 5.09964C32.6889 5.05603 32.6613 5.01812 32.624 4.99184C32.5866 4.96557 32.5416 4.95242 32.496 4.95445C32.4504 4.95649 32.4068 4.97359 32.3719 5.00309C32.3371 5.03258 32.313 5.0728 32.3035 5.11745V4.63685C32.1827 4.32448 32.1827 3.97832 32.3035 3.66595V3.14328C32.3743 3.19658 32.4384 3.25825 32.4944 3.32695C32.5548 3.25118 32.6247 3.18347 32.7023 3.12549V3.68537C32.8237 3.99763 32.8237 4.34402 32.7023 4.65627V5.09964Z" fill="white"/>
<path d="M49.0974 27.3965C47.6249 26.972 46.0741 26.8942 44.5665 27.1691C43.9929 27.2501 43.4241 27.3714 42.8537 27.475L42.7979 27.369C43.0752 27.1793 43.3659 27.0097 43.6676 26.8617C45.5671 26.006 47.7136 25.8731 49.7042 26.4879C50.5928 26.7895 51.3705 27.351 51.9363 28.0997C52.502 28.8484 52.8299 29.7498 52.8774 30.687C52.8393 31.5242 52.4923 32.3174 51.9034 32.9136C51.3144 33.5097 50.5254 33.8663 49.6888 33.9145C48.92 33.9304 48.1705 33.6733 47.5732 33.189C46.976 32.7046 46.5697 32.0243 46.4266 31.2688C46.3403 30.8085 46.4263 30.3326 46.6681 29.9316C46.91 29.5306 47.2908 29.2324 47.7381 29.094C47.9937 29.0024 48.2714 28.9931 48.5326 29.0672C48.7937 29.1413 49.0251 29.2952 49.1945 29.5074C49.3785 29.7171 49.4921 29.9793 49.5191 30.257C49.5461 30.5348 49.4852 30.8139 49.3449 31.0552C49.2103 31.2994 49.0034 31.4959 48.7527 31.6179C48.502 31.7398 48.2196 31.7813 47.9444 31.7364L47.7624 31.7129C47.9726 32.1112 48.3235 32.4169 48.7467 32.5706C49.17 32.7244 49.6353 32.7151 50.0521 32.5447C50.5772 32.3764 51.0219 32.0205 51.301 31.5449C51.5802 31.0693 51.6742 30.5075 51.5651 29.967C51.4465 29.3457 51.1503 28.7722 50.7123 28.3159C50.2742 27.8597 49.7133 27.5403 49.0974 27.3965Z" fill="white"/>
<path d="M66.3726 46.8944C67.6992 46.4322 69.1453 46.4453 70.4633 46.9317C70.1191 47.2157 69.7995 47.5283 69.5078 47.8661C69.2836 48.1967 68.9885 48.4733 68.6441 48.6756C68.2997 48.878 67.9145 49.0011 67.5166 49.0361C67.8386 49.2023 68.0988 49.4674 68.2589 49.7925C68.4191 50.1175 68.4709 50.4853 68.4066 50.8419C66.1881 50.5442 64.4421 51.5426 62.8037 52.9553C62.951 50.2384 64.1435 47.7035 66.3726 46.8944ZM66.5344 48.6542C66.9803 48.2911 67.4598 47.9714 67.9665 47.6995C67.342 47.7225 66.7478 47.9743 66.2968 48.4069C65.8458 48.8395 65.5696 49.4228 65.5206 50.0458C65.8127 49.5495 66.1525 49.0829 66.5352 48.6526L66.5344 48.6542Z" fill="white"/>
<path d="M36.6807 15.5075C38.1079 13.8958 39.6395 12.433 41.8588 11.9928C42.6235 11.8179 43.4243 11.8939 44.1425 12.2097C44.8607 12.5255 45.458 13.0642 45.8459 13.7461C46.0585 14.1169 46.1811 14.5323 46.2041 14.9591C46.2271 15.3858 46.1497 15.812 45.9782 16.2034C45.8067 16.5949 45.5459 16.9407 45.2166 17.2131C44.8873 17.4855 44.4988 17.677 44.0821 17.7721C44.3449 17.4275 44.5318 17.0312 44.6307 16.6093C44.7296 16.1874 44.7381 15.7493 44.6558 15.3238C44.4738 14.6113 44.0236 13.9965 43.3991 13.608C42.7746 13.2195 42.0242 13.0872 41.3046 13.2388C39.6637 13.5332 38.1364 14.2761 36.8918 15.3853C36.8314 15.4412 36.7592 15.4829 36.6807 15.5075Z" fill="white"/>
<path d="M63.3447 52.4398C62.9339 52.7085 62.4794 52.9034 62.0016 53.0158C61.1885 53.1865 60.3535 53.2505 59.4004 53.3759C59.8107 52.4941 60.4945 51.7683 61.3503 51.3062C61.3891 51.2852 61.4312 51.269 61.4733 51.2512C62.1764 50.9494 62.7929 50.5894 62.4733 49.6428C62.8114 49.707 63.126 49.8611 63.384 50.0889C63.6419 50.3167 63.8338 50.6097 63.9393 50.9373C64.0314 51.2178 64.0224 51.5216 63.9137 51.7961C63.8051 52.0705 63.6037 52.2983 63.3447 52.4398Z" fill="white"/>
<path d="M42.2763 15.9779C42.2054 16.0702 42.117 16.1477 42.0161 16.2058C41.9153 16.2639 41.8039 16.3016 41.6885 16.3166C41.5731 16.3316 41.4558 16.3237 41.3434 16.2934C41.231 16.263 41.1257 16.2108 41.0335 16.1397C40.832 15.9953 40.6858 15.7864 40.6192 15.5476C40.5525 15.3088 40.5694 15.0544 40.667 14.8266C40.8435 14.5025 41.1334 14.2549 41.4812 14.1314C41.8289 14.008 42.21 14.0172 42.5514 14.1574C42.8655 14.2896 43.1416 14.4983 43.3543 14.7645C43.5671 15.0307 43.7098 15.346 43.7695 15.6815C43.8292 16.017 43.804 16.3621 43.696 16.6854C43.5881 17.0086 43.401 17.2997 43.1517 17.5321C42.827 17.8409 42.4258 18.0575 41.9895 18.1598C41.5532 18.262 41.0976 18.2462 40.6695 18.1138C42.3491 17.7336 43.2432 16.6114 42.5401 15.6866C42.4503 15.7894 42.3669 15.8848 42.2763 15.9779Z" fill="white"/>
<path d="M60.8968 34.9719C60.8686 34.9596 60.8416 34.945 60.8158 34.9283C60.3407 34.5102 59.774 34.2098 59.1613 34.0511C58.5487 33.8924 57.9074 33.88 57.2891 34.0148C57.8265 33.5018 58.4747 33.1191 59.1836 32.8963C59.8925 32.6735 60.643 32.6166 61.3773 32.73C61.6245 32.7641 61.857 32.8673 62.0482 33.0275C62.2394 33.1878 62.3815 33.3988 62.4583 33.6362C62.5534 33.833 62.5825 34.0551 62.5414 34.2698C62.5003 34.4845 62.3912 34.6802 62.2301 34.8279C62.0505 34.9878 61.8255 35.0876 61.5865 35.1134C61.3475 35.1392 61.1063 35.0898 60.8968 34.9719Z" fill="white"/>
<path d="M47.0226 18.7367C47.6224 17.9053 48.4813 17.2966 49.4644 17.0061C49.734 16.9082 50.0268 16.8934 50.3048 16.9636C50.5829 17.0339 50.8335 17.1859 51.0243 17.4001C51.1713 17.5408 51.2722 17.7227 51.3138 17.9218C51.3554 18.121 51.3357 18.3281 51.2573 18.5158C51.1792 18.7115 51.0458 18.8803 50.8734 19.0015C50.701 19.1228 50.4971 19.1913 50.2864 19.1987C50.1514 19.2134 50.015 19.2071 49.8819 19.1801C49.2977 19.0028 48.6785 18.9737 48.0802 19.0953C47.4819 19.2169 46.9233 19.4854 46.4546 19.8767L46.3486 19.7626C46.5539 19.4083 46.7789 19.0658 47.0226 18.7367Z" fill="white"/>
<path d="M54.7095 21.4464C54.7083 21.6126 54.6422 21.7717 54.5254 21.8899C54.4086 22.0081 54.2502 22.076 54.0841 22.0791C53.9254 22.0756 53.774 22.0122 53.6602 21.9016C53.5464 21.7909 53.4787 21.6413 53.4708 21.4828C53.4694 21.3968 53.4853 21.3114 53.5175 21.2316C53.5498 21.1518 53.5978 21.0794 53.6586 21.0185C53.7195 20.9577 53.7919 20.9097 53.8717 20.8775C53.9515 20.8452 54.0369 20.8293 54.1229 20.8307C54.2815 20.8372 54.4313 20.9051 54.5407 21.0199C54.6502 21.1348 54.7107 21.2878 54.7095 21.4464Z" fill="white"/>
<path d="M53.133 21.0607C53.1368 21.136 53.1242 21.2113 53.0962 21.2813C53.0681 21.3513 53.0251 21.4143 52.9703 21.4661C52.9154 21.5179 52.85 21.5571 52.7785 21.5811C52.7069 21.6051 52.6311 21.6133 52.5561 21.6052C52.4806 21.6053 52.4058 21.59 52.3365 21.56C52.2671 21.5301 52.2047 21.4862 52.153 21.4311C52.1014 21.376 52.0616 21.3109 52.0361 21.2398C52.0107 21.1687 52.0001 21.0931 52.0051 21.0178C52.0062 20.9433 52.0226 20.8698 52.0531 20.8019C52.0837 20.734 52.1279 20.6731 52.1829 20.6229C52.238 20.5727 52.3027 20.5343 52.3731 20.5101C52.4436 20.4859 52.5182 20.4764 52.5925 20.4822C52.6677 20.4788 52.7427 20.4917 52.8124 20.5201C52.8821 20.5485 52.9448 20.5917 52.9962 20.6467C53.0476 20.7017 53.0864 20.7672 53.11 20.8387C53.1337 20.9101 53.1415 20.9859 53.133 21.0607Z" fill="white"/>
<path d="M51.1936 20.3006C51.3207 20.4996 51.5343 20.6897 51.5545 20.8985C51.5844 21.197 51.3514 21.3912 51.0318 21.371C50.7389 21.3524 50.5245 21.1525 50.5787 20.875C50.62 20.6647 50.8352 20.4875 50.9727 20.2957L51.1936 20.3006Z" fill="white"/>
<path d="M50.0104 20.9083C50.0238 20.9675 50.0222 21.0291 50.0056 21.0875C49.9891 21.146 49.9581 21.1993 49.9156 21.2426C49.8731 21.2859 49.8204 21.3179 49.7623 21.3355C49.7042 21.3532 49.6426 21.3559 49.5832 21.3436C49.4847 21.3162 49.3945 21.2649 49.3206 21.1944C49.2466 21.1238 49.1912 21.0361 49.1592 20.9391C49.1422 20.7724 49.3477 20.5823 49.4553 20.4026L49.6697 20.3937C49.7887 20.5645 49.9788 20.723 50.0104 20.9083Z" fill="white"/>
<path d="M48.4786 21.1074C48.4604 21.1977 48.42 21.282 48.3609 21.3527C48.3019 21.4233 48.226 21.4781 48.1404 21.5119C48.0101 21.5354 47.8394 21.3372 47.5684 21.1576C47.8289 20.9666 47.9729 20.7773 48.1226 20.7781C48.2504 20.7765 48.4899 21.003 48.4786 21.1074Z" fill="white"/>
<path d="M47.0051 21.5167C47.0156 21.6462 46.8691 21.7878 46.73 22.0305C46.5617 21.812 46.3902 21.6842 46.4063 21.5839C46.4258 21.4504 46.59 21.3412 46.6928 21.2166C46.8028 21.3161 46.9954 21.4083 47.0051 21.5167Z" fill="white"/>
<path d="M45.3321 22.3493C45.2742 22.34 45.2197 22.3158 45.1741 22.2788C45.1285 22.2419 45.0935 22.1937 45.0724 22.1389C45.0683 22.0289 45.1856 21.914 45.3013 21.7142C45.4356 21.9027 45.5635 22.0046 45.5691 22.1187C45.5748 22.194 45.4195 22.3453 45.3321 22.3493Z" fill="white"/>
<path d="M65.2916 37.5495C65.228 37.5395 65.1678 37.5142 65.1162 37.4757C65.0646 37.4372 65.0231 37.3867 64.9955 37.3286C64.9744 37.2315 65.1015 37.1028 65.2091 36.9038C65.3531 37.0818 65.4866 37.1781 65.5003 37.2897C65.5117 37.3731 65.3571 37.5567 65.2916 37.5495Z" fill="white"/>
<path d="M39.2421 34.576C39.2421 38.6424 36.1385 41.9386 32.5834 41.9386C29.0283 41.9386 25.9238 38.6392 25.9238 34.576C25.9238 30.5128 29.0275 27.2133 32.5834 27.2133C36.1393 27.2133 39.2421 30.5111 39.2421 34.576ZM36.7671 34.4773C36.7671 30.6276 35.1368 27.4649 32.5826 27.4649C30.0485 27.4649 28.398 30.6276 28.398 34.4773C28.398 38.3269 30.0485 41.687 32.5826 41.687C35.1368 41.6878 36.768 38.3285 36.768 34.4756L36.7671 34.4773Z" fill="white"/>
<path d="M11.5828 66.5778C11.5828 70.1134 8.88371 72.9841 5.7914 72.9841C2.69909 72.9841 0 70.1143 0 66.5778C0 63.0413 2.69909 60.1714 5.7914 60.1714C8.88371 60.1714 11.5828 63.0413 11.5828 66.5778ZM9.43065 66.4969C9.43065 63.1481 8.01233 60.398 5.78979 60.398C3.58585 60.398 2.14892 63.1489 2.14892 66.4969C2.14892 69.8448 3.58342 72.7656 5.78979 72.7656C8.01233 72.7616 9.43065 69.8432 9.43065 66.4928V66.4969Z" fill="white"/>
<path d="M25.1801 61.9823V71.4809C25.1801 72.7617 26.2392 72.7447 26.7862 72.7447V72.9875H21.8662V72.7447C22.4471 72.7447 23.3694 72.6938 23.3694 71.5157V61.8116L19.1161 72.9834H18.8944L14.2487 61.4872V70.2503C14.2487 72.1808 15.5642 72.7439 16.3159 72.7439V72.9866H11.9258V72.7439C12.7462 72.7439 14.0294 72.2318 14.0294 70.2665V61.8974C14.0294 60.7695 12.7486 60.7865 12.4573 60.7865V60.496H15.8911L19.9219 70.1824L23.5944 60.496H26.5499V60.7388C25.2489 60.7355 25.1801 61.4872 25.1801 61.9823Z" fill="white"/>
<path d="M39.9753 72.7615V72.9832H35.6523V72.7615C36.5585 72.7615 36.9857 72.1466 36.6774 71.2243L35.5504 68.3544H31.1603L30.5794 69.8577C29.6222 72.2324 31.2623 72.7615 32.0657 72.7615V72.9832H27.8115V72.7615C29.1271 72.7615 29.64 71.395 30.0324 70.4556C30.1514 70.1652 33.2437 62.4263 33.1587 62.2726C33.0865 62.1084 32.9759 61.9639 32.8362 61.8512C32.6966 61.7386 32.5319 61.6611 32.3561 61.6253C33.1246 61.4594 33.8228 61.0595 34.3546 60.4805C34.3546 60.4805 38.5221 71.1231 38.5569 71.1911C39.1548 72.5568 39.3094 72.7615 39.9753 72.7615ZM35.4654 68.098L33.3618 62.7168L31.2436 68.098H35.4654Z" fill="white"/>
<path d="M51.5232 61.9661V71.5133C51.511 71.6862 51.5373 71.8596 51.6001 72.0211C51.6629 72.1827 51.7607 72.3283 51.8865 72.4475C52.0123 72.5667 52.1629 72.6566 52.3276 72.7106C52.4922 72.7647 52.6668 72.7816 52.8388 72.7601V72.9818H48.4827V72.7601C49.1494 72.7601 49.7772 72.6064 49.7772 71.5303V66.8668H44.0716V71.5303C44.0716 72.6064 44.7188 72.7601 45.388 72.7601V72.9818H40.9971V72.7601C41.1702 72.7833 41.3462 72.7677 41.5125 72.7145C41.6789 72.6613 41.8313 72.5718 41.9588 72.4525C42.0863 72.3332 42.1857 72.187 42.2499 72.0246C42.314 71.8622 42.3412 71.6875 42.3296 71.5133V61.9823C42.3415 61.8073 42.3146 61.6318 42.2508 61.4683C42.187 61.3048 42.088 61.1575 41.9607 61.0367C41.8334 60.9159 41.6811 60.8247 41.5145 60.7696C41.348 60.7144 41.1713 60.6967 40.9971 60.7177V60.496H45.388V60.7177C44.7213 60.7177 44.0716 60.8723 44.0716 61.9653V66.6289H49.7772V61.9475C49.7772 60.8723 49.1113 60.7177 48.4447 60.7177V60.496H52.8008V60.7177C52.6307 60.698 52.4584 60.7164 52.2965 60.7717C52.1345 60.827 51.9869 60.9178 51.8645 61.0374C51.742 61.1571 51.6479 61.3025 51.5888 61.4632C51.5298 61.6239 51.5074 61.7957 51.5232 61.9661Z" fill="white"/>
<path d="M65.0008 72.7615V72.9832H60.6787V72.7615C61.5841 72.7615 62.0113 72.1466 61.703 71.2243L60.5759 68.3544H56.1867L55.6058 69.8577C54.6486 72.2324 56.2886 72.7615 57.092 72.7615V72.9832H52.8379V72.7615C54.1526 72.7615 54.6656 71.395 55.0588 70.4556C55.1778 70.1652 58.2701 62.4263 58.1851 62.2726C58.1129 62.1084 58.0023 61.9639 57.8626 61.8512C57.723 61.7386 57.5583 61.6611 57.3825 61.6253C58.151 61.4594 58.8492 61.0595 59.3809 60.4805C59.3809 60.4805 63.5493 71.1231 63.5833 71.1911C64.1804 72.5568 64.3349 72.7615 65.0008 72.7615ZM60.491 68.098L58.3874 62.7168L56.2692 68.098H60.491Z" fill="white"/>
<path d="M11.6456 79.3124C11.5955 79.3122 11.5459 79.3021 11.4998 79.2826C11.4536 79.2631 11.4117 79.2347 11.3766 79.199C11.3415 79.1633 11.3138 79.1209 11.2951 79.0744C11.2764 79.028 11.2671 78.9782 11.2678 78.9281C11.2678 78.8068 11.3244 78.7566 11.36 78.7566C11.381 78.7566 11.3948 78.7712 11.3988 78.7954C11.8062 78.5857 12.1565 78.2803 12.4199 77.9054C12.4199 77.8844 12.4053 77.8731 12.3778 77.8731C12.1408 77.8731 11.5404 78.187 10.4239 79.8537C9.97242 80.5285 9.6148 81.1029 9.27256 81.5528C10.1148 81.8106 10.9832 81.9734 11.8616 82.0382C12.0575 82.0559 12.2541 82.012 12.4239 81.9128C12.4284 81.9131 12.4327 81.9143 12.4367 81.9163C12.4406 81.9183 12.4442 81.9211 12.447 81.9245C12.4499 81.9279 12.452 81.9318 12.4534 81.9361C12.4547 81.9403 12.4551 81.9448 12.4547 81.9492C12.4541 81.9655 12.4494 81.9814 12.4409 81.9953C12.3414 82.1746 12.2205 82.3411 12.0809 82.4913C11.8629 82.5715 11.6308 82.6068 11.3988 82.5949C10.5198 82.5311 9.65349 82.3485 8.82353 82.052C8.61449 82.2497 8.3682 82.4039 8.09901 82.5056C7.82982 82.6073 7.5431 82.6544 7.25552 82.6442C6.37929 82.6442 6.33398 82.2397 6.33398 81.9549C6.33398 81.6701 6.56052 81.2631 7.62851 81.2631C7.9429 81.2727 8.25548 81.3145 8.56138 81.3877C9.03474 80.7748 9.47238 80.1351 9.8721 79.4718C10.7378 78.2016 11.6205 77.2735 12.5631 77.2735C12.6354 77.2633 12.709 77.2689 12.7789 77.29C12.8488 77.3112 12.9132 77.3473 12.9677 77.3959C13.0222 77.4446 13.0654 77.5045 13.0943 77.5715C13.1232 77.6386 13.1371 77.7111 13.1351 77.7841C13.1367 78.4281 11.9352 79.3124 11.6456 79.3124ZM7.53222 81.8384C7.19322 81.8384 7.06944 81.895 7.06944 81.9492C7.06944 82.0034 7.18918 82.056 7.33805 82.056C7.57047 82.0557 7.79852 81.9928 7.99826 81.874C7.84387 81.8519 7.68818 81.84 7.53222 81.8384Z" fill="white"/>
<path d="M15.3894 81.6968C15.3929 81.749 15.3858 81.8013 15.3683 81.8506C15.2466 82.0482 15.0857 82.2188 14.8954 82.3518C14.7052 82.4849 14.4898 82.5775 14.2623 82.624C14.1979 82.6292 14.1331 82.6213 14.0718 82.6007C14.0105 82.5801 13.954 82.5473 13.9058 82.5043C13.8575 82.4612 13.8185 82.4089 13.7911 82.3503C13.7636 82.2918 13.7483 82.2283 13.7461 82.1637C13.744 81.945 13.7963 81.7293 13.8983 81.5358C13.552 81.9752 12.9727 82.6459 12.5228 82.6459C12.4631 82.6443 12.4043 82.631 12.3497 82.6067C12.2951 82.5824 12.2459 82.5475 12.2048 82.5042C12.1637 82.4608 12.1315 82.4098 12.1102 82.354C12.0888 82.2982 12.0786 82.2388 12.0802 82.1791C12.1883 81.6051 12.4133 81.0595 12.7413 80.5763C13.0835 79.9695 13.2146 79.7089 13.4047 79.7089C13.464 79.7184 13.5189 79.7457 13.5623 79.7872C13.6057 79.8286 13.6354 79.8824 13.6474 79.9411C13.2993 80.5776 12.9868 81.2329 12.7113 81.904C12.7113 81.9387 12.7218 81.9565 12.7502 81.9565C13.001 81.9565 14.2656 80.4832 14.3853 80.2478C14.4698 80.0585 14.587 79.8857 14.7316 79.7372C14.8529 79.673 14.9869 79.6365 15.124 79.6304C15.1429 79.6286 15.1618 79.6286 15.1806 79.6304C15.2162 79.6377 15.2616 79.7453 15.2616 79.7801C15.2627 79.7838 15.2627 79.7878 15.2616 79.7915C14.9573 80.3829 14.7923 80.6264 14.7073 80.8012C14.5119 81.1555 14.3714 81.5374 14.2907 81.9339C14.2907 82.0269 14.3222 82.0844 14.4031 82.0844C14.7001 82.0415 15.1556 81.4638 15.2195 81.4064C15.2418 81.3865 15.2705 81.375 15.3004 81.374C15.3191 81.3738 15.3372 81.3806 15.3511 81.3933C15.3649 81.4059 15.3734 81.4233 15.3748 81.442C15.3854 81.5265 15.3902 81.6117 15.3894 81.6968Z" fill="white"/>
<path d="M16.6117 81.0157C16.5947 81.2293 16.5834 81.4364 16.5834 81.6079C16.5834 81.8927 16.6117 82.0934 16.6797 82.0934C16.9766 82.0505 17.4321 81.4728 17.496 81.4154C17.5158 81.3955 17.5424 81.3839 17.5705 81.383C17.6619 81.383 17.6651 81.5116 17.6651 81.7115C17.6678 81.7599 17.6618 81.8084 17.6473 81.8547C17.5255 82.0537 17.3636 82.2253 17.172 82.3584C16.9803 82.4916 16.7631 82.5834 16.534 82.6282C16.1036 82.6282 16.0227 82.2649 16.0227 81.9146C16.0227 81.79 16.0332 81.6646 16.0437 81.5618C15.7751 81.8466 15.3965 82.2609 15.0939 82.65C15.082 82.6634 15.0673 82.6739 15.0507 82.6807C15.0341 82.6874 15.0162 82.6902 14.9984 82.6889C14.8609 82.6889 14.6699 82.5497 14.6699 82.4073C14.6698 82.3782 14.6745 82.3492 14.6837 82.3215C15.0713 81.7485 15.5445 81.2383 16.0866 80.8086C16.0793 80.6548 16.0721 80.4412 16.0721 80.1945C16.0721 80.1767 16.0648 80.1694 16.0543 80.1694C16.0017 80.1694 15.8528 80.3765 15.7573 80.3765C15.6481 80.3765 15.5809 80.1483 15.5809 80.0731C15.5813 80.0575 15.5838 80.042 15.5882 80.027C15.6376 79.8943 16.0049 79.4412 16.3471 79.4412C16.4175 79.4412 16.6158 79.5375 16.6271 79.6516C16.6408 79.866 16.6514 80.0763 16.6514 80.2721C16.9765 79.9035 17.3427 79.5731 17.7428 79.2875C17.7711 79.2688 17.8044 79.2589 17.8383 79.2592C17.9127 79.264 17.9845 79.2886 18.0462 79.3304C18.0964 79.3692 18.1846 79.4372 18.1846 79.5156C18.1838 79.5353 18.1786 79.5546 18.1694 79.5719C18.1601 79.5893 18.1471 79.6044 18.1312 79.616C18.0244 79.709 17.0996 80.5691 16.6117 81.0157Z" fill="white"/>
<path d="M20.9423 81.6968C20.9459 81.7489 20.9387 81.8013 20.9213 81.8505C20.7999 82.0483 20.6391 82.219 20.449 82.3521C20.2589 82.4851 20.0434 82.5777 19.8161 82.624C19.7516 82.6292 19.6868 82.6212 19.6255 82.6007C19.5642 82.5801 19.5077 82.5473 19.4595 82.5042C19.4112 82.4612 19.3722 82.4088 19.3448 82.3503C19.3173 82.2918 19.3021 82.2283 19.2999 82.1636C19.2977 81.9451 19.3497 81.7294 19.4512 81.5358C19.1049 81.9751 18.5264 82.6459 18.0757 82.6459C17.9553 82.6425 17.841 82.5914 17.7582 82.5039C17.6754 82.4163 17.6307 82.2995 17.634 82.179C17.7423 81.6051 17.9673 81.0596 18.295 80.5762C18.6372 79.9694 18.7683 79.7089 18.9584 79.7089C19.0176 79.7185 19.0726 79.7458 19.1159 79.7873C19.1592 79.8287 19.189 79.8824 19.2011 79.9411C18.8527 80.5775 18.5399 81.2328 18.2642 81.9039C18.2642 81.9387 18.2747 81.9565 18.3031 81.9565C18.5539 81.9565 19.8185 80.4832 19.9382 80.2477C20.0222 80.0582 20.1395 79.8853 20.2845 79.7372C20.4057 79.6728 20.5398 79.6363 20.6769 79.6304C20.6958 79.6286 20.7147 79.6286 20.7335 79.6304C20.7683 79.6377 20.8145 79.7453 20.8145 79.7801C20.8156 79.7838 20.8156 79.7877 20.8145 79.7914C20.511 80.3829 20.3452 80.6264 20.2602 80.8012C20.0643 81.1553 19.9235 81.5373 19.8427 81.9339C19.8427 82.0269 19.8743 82.0844 19.956 82.0844C20.2521 82.0415 20.7085 81.4638 20.7716 81.4064C20.7939 81.3864 20.8226 81.375 20.8525 81.374C20.8712 81.3737 20.8893 81.3806 20.9032 81.3932C20.917 81.4059 20.9255 81.4233 20.9269 81.4419C20.938 81.5264 20.9432 81.6116 20.9423 81.6968Z" fill="white"/>
<path d="M23.0685 80.9289C23.0402 80.976 22.9963 81.0116 22.9444 81.0297C22.8925 81.0479 22.836 81.0473 22.7845 81.028C22.733 81.0088 22.6899 80.9722 22.6626 80.9246C22.6352 80.8769 22.6254 80.8212 22.6349 80.7671C22.6569 80.5574 22.749 80.3613 22.8962 80.2104L22.8889 80.2032C22.4039 80.5609 21.9616 80.9733 21.5709 81.4321C21.3069 81.7261 21.0582 82.0334 20.8257 82.3529C20.7796 82.4168 20.6906 82.5058 20.6105 82.5058C20.496 82.4842 20.3863 82.442 20.2869 82.3812C20.2777 82.3752 20.2706 82.3666 20.2662 82.3565C20.2619 82.3465 20.2607 82.3353 20.2626 82.3246C20.3028 82.1654 20.3746 82.016 20.4738 81.8852C20.778 81.3504 21.0887 80.8253 21.4002 80.301C21.4928 80.1257 21.5966 79.9566 21.7109 79.7946C21.7804 79.7238 21.8644 79.6689 21.9572 79.6337C22.0499 79.5985 22.1492 79.5839 22.2481 79.5907C22.3185 79.5907 22.329 79.6716 22.329 79.7298C22.2171 80.0249 22.0637 80.3025 21.8735 80.5543C22.2052 80.1756 22.757 79.598 23.2934 79.598C23.3371 79.5952 23.3808 79.6016 23.4218 79.6168C23.4628 79.632 23.5001 79.6556 23.5314 79.6861C23.5628 79.7166 23.5874 79.7533 23.6036 79.7938C23.6199 79.8344 23.6275 79.8779 23.626 79.9216C23.4981 80.2863 23.3097 80.6269 23.0685 80.9289Z" fill="white"/>
<path d="M23.4876 84.6766C23.4528 84.6766 23.4204 84.6839 23.388 84.6839C23.3437 84.6887 23.2988 84.6833 23.2567 84.6682C23.2147 84.6531 23.1767 84.6287 23.1455 84.5967C23.1143 84.5648 23.0908 84.5261 23.0768 84.4838C23.0627 84.4414 23.0585 84.3964 23.0644 84.3521C23.0733 84.1694 23.124 83.9912 23.2125 83.8311C23.4553 83.436 23.7524 83.077 24.0952 82.7647C24.155 82.6749 24.3039 82.3755 24.6243 81.7615C24.331 82.1702 23.9154 82.4751 23.4374 82.632H23.4066C23.3065 82.6277 23.2097 82.5943 23.1283 82.5357C23.0841 82.4969 23.0496 82.4483 23.0274 82.3938C23.0052 82.3394 22.996 82.2805 23.0005 82.2218C22.9985 82.2052 22.9985 82.1883 23.0005 82.1716C23.0434 81.6433 23.223 81.543 23.6898 80.6797C24.0215 80.1627 24.1526 79.7379 24.2869 79.7379C24.3533 79.7379 24.5555 79.8415 24.5555 80.009C24.5555 80.2339 23.6291 81.708 23.6291 81.9362C23.6291 81.9572 23.6397 81.9653 23.6575 81.9653C24.3669 81.504 24.975 80.903 25.4447 80.1991C25.5968 79.971 25.7417 79.7242 25.8727 79.7242C25.9035 79.7242 26.0985 79.7452 26.1413 79.8051C26.1842 79.865 26.2085 79.873 26.2085 79.9151C26.2021 79.9594 26.1864 80.0019 26.1624 80.0397C26.1025 80.157 25.0572 81.8885 24.6365 82.7663C25.134 82.3416 25.6883 81.8383 26.1478 81.4135C26.1697 81.3929 26.1986 81.3813 26.2287 81.3812C26.3096 81.3812 26.3387 81.5236 26.3387 81.7202C26.3444 81.7673 26.3317 81.8149 26.3032 81.8529C25.5857 82.4023 24.92 83.0163 24.3144 83.6871C24.2448 83.7623 23.8703 84.6264 23.4876 84.6766Z" fill="white"/>
<path d="M33.243 77.9461C33.2009 78.027 33.1621 78.0351 33.1127 78.0771C32.904 78.2592 32.0706 78.2236 31.9994 78.2673C31.9901 78.2748 31.9789 78.2796 31.967 78.281C31.946 78.281 31.9039 78.2487 31.9039 78.1742C31.9257 78.0799 31.973 77.9934 32.0407 77.9242C30.8117 77.9962 29.4306 78.9906 29.4306 79.2697C29.4306 79.3838 29.5471 79.5303 30.3068 79.7301C31.0665 79.9299 32.0868 80.2228 32.0868 80.9866C32.0868 81.6897 30.8926 82.6048 28.9605 82.6048C28.1304 82.6048 27.8545 82.2334 27.8545 81.9373C27.8602 81.8262 27.9032 81.7203 27.9767 81.6367C28.0501 81.5531 28.1496 81.4968 28.259 81.4769C28.2979 81.4769 28.3229 81.4947 28.3229 81.5198C28.3229 81.5449 28.2768 81.5845 28.2768 81.6161C28.2768 81.7552 28.7574 81.909 29.1563 81.909C30.234 81.909 31.378 81.2738 31.378 80.9526C31.378 80.7277 30.7559 80.557 29.9646 80.3677C29.128 80.1711 28.7008 79.8676 28.7008 79.3571C28.7008 78.2398 31.0002 77.319 32.2607 77.319C32.9388 77.319 33.2883 77.5156 33.2883 77.6613C33.2908 77.7582 33.2754 77.8547 33.243 77.9461Z" fill="white"/>
<path d="M33.0024 82.6241C32.9487 82.6272 32.8948 82.6186 32.8448 82.5988C32.7947 82.579 32.7495 82.5485 32.7125 82.5094C32.6754 82.4704 32.6473 82.4237 32.6302 82.3726C32.613 82.3216 32.6073 82.2674 32.6132 82.2139C31.9166 83.2891 31.1569 84.5521 31.0946 84.633C31.059 84.6791 31.0339 84.701 31.0088 84.701C30.9422 84.6794 30.8831 84.6395 30.8381 84.5858C30.7932 84.5322 30.7643 84.4669 30.7548 84.3976C30.7484 84.2781 30.7765 84.1593 30.8357 84.0553C30.9522 83.8595 33.9685 78.8594 34.1529 78.7405C34.19 78.7137 34.2343 78.6991 34.28 78.6984C34.305 78.6984 34.3261 78.6984 34.3471 78.6984C34.3681 78.6984 34.3892 78.6903 34.411 78.6903C34.4458 78.6903 34.4701 78.7089 34.4992 78.7979C34.5136 78.8269 34.5232 78.8581 34.5275 78.8902C34.5195 78.9428 34.4948 78.9916 34.4571 79.0293L33.4498 80.5779C33.4498 80.5779 34.3334 79.7033 34.8989 79.7033C34.9522 79.7006 35.0054 79.7093 35.055 79.7288C35.1046 79.7484 35.1495 79.7783 35.1866 79.8166C35.2237 79.8549 35.2521 79.9007 35.2701 79.951C35.288 80.0012 35.2949 80.0547 35.2905 80.1078C35.2913 80.73 34.1327 82.6241 33.0024 82.6241ZM34.5882 80.2696C34.3196 80.2696 33.25 81.3368 32.801 81.9436C32.8304 81.9805 32.868 82.0101 32.9109 82.0299C32.9537 82.0497 33.0006 82.0592 33.0477 82.0577C33.6206 82.0577 34.6586 80.8619 34.6586 80.3449C34.659 80.3356 34.6576 80.3263 34.6544 80.3175C34.6512 80.3087 34.6463 80.3007 34.64 80.2939C34.6337 80.287 34.6261 80.2815 34.6176 80.2776C34.6091 80.2737 34.6 80.2716 34.5906 80.2713L34.5882 80.2696Z" fill="white"/>
<path d="M38.4849 81.6963C38.4881 81.7484 38.481 81.8007 38.4638 81.85C38.3421 82.0481 38.1808 82.2191 37.9901 82.3521C37.7994 82.4852 37.5834 82.5776 37.3554 82.6235C37.2803 82.6231 37.2062 82.6069 37.1379 82.5759C37.0696 82.5449 37.0086 82.4998 36.9588 82.4436C36.9091 82.3874 36.8718 82.3213 36.8494 82.2497C36.827 82.1781 36.8199 82.1025 36.8287 82.028C36.8285 81.9114 36.8524 81.7959 36.8991 81.689C36.5937 82.1515 36.124 82.4806 35.5851 82.6097C35.4502 82.6088 35.3202 82.5592 35.2189 82.47C35.1177 82.3808 35.0521 82.258 35.0341 82.1243C35.024 82.0655 35.0191 82.0059 35.0196 81.9463C35.0987 81.4069 35.3452 80.9059 35.7242 80.514C36.1032 80.1221 36.5956 79.859 37.1321 79.7618C37.4039 79.7618 37.556 79.8694 37.5949 79.9867C37.7114 79.8047 37.768 79.7901 37.9128 79.7901C38.0577 79.7901 38.1815 79.8475 38.1815 79.9762C38.1834 80.0306 38.1659 80.0839 38.1321 80.1267C37.7922 80.6407 37.5361 81.2055 37.3732 81.7998C37.3653 81.8327 37.3618 81.8664 37.3627 81.9002C37.3627 81.9884 37.3869 82.096 37.4759 82.096C37.7575 82.096 38.2559 81.4649 38.3125 81.4147C38.3344 81.3941 38.3633 81.3825 38.3934 81.3824C38.4122 81.3821 38.4303 81.389 38.4441 81.4016C38.4579 81.4142 38.4664 81.4317 38.4679 81.4503C38.4791 81.5318 38.4848 81.614 38.4849 81.6963ZM36.1927 80.8613C35.8953 81.1609 35.6831 81.5343 35.5778 81.9431C35.5778 81.9997 35.5989 82.0321 35.6482 82.0321C36.1037 81.7498 36.5114 81.3969 36.8562 80.9867C37.018 80.7828 37.2559 80.4374 37.4428 80.1833C37.1991 80.2048 36.9625 80.2761 36.7475 80.3927C36.5324 80.5093 36.3436 80.6688 36.1927 80.8613Z" fill="white"/>
<path d="M42.9826 78.2599L43.053 78.264C43.2188 78.2777 43.3952 78.3918 43.3952 78.5455C43.3952 78.9994 42.8289 79.1734 42.5473 79.1734H42.5117L42.375 79.4525C42.3887 79.4525 42.3993 79.4485 42.4138 79.4485C42.4528 79.4499 42.4911 79.4584 42.5271 79.4736C42.6015 79.5027 42.6784 79.709 42.6784 79.7664C42.6784 79.8417 42.5724 79.8919 42.5271 79.9347C42.4061 80.0145 42.267 80.0624 42.1225 80.0739L42.0554 80.0949C41.9251 80.3514 41.7868 80.637 41.6355 80.9437C42.0756 80.7934 42.4813 80.5568 42.8289 80.2479C42.8564 80.2009 42.892 80.1297 42.9486 80.1297C43.0095 80.153 43.0615 80.1949 43.097 80.2496C43.1324 80.3043 43.1496 80.3689 43.146 80.4339C43.146 80.8975 42.231 81.54 41.324 81.6362C41.1719 81.9825 40.9882 82.4073 40.9494 82.472C40.9238 82.5053 40.8904 82.5318 40.8521 82.5491C40.8139 82.5665 40.772 82.5742 40.7301 82.5715C40.7128 82.5754 40.6952 82.5776 40.6775 82.578C40.5893 82.578 40.5003 82.5359 40.4939 82.4971C40.4793 82.4625 40.4685 82.4264 40.4615 82.3895C40.462 82.3737 40.4653 82.358 40.4712 82.3434C40.5424 82.1613 40.6516 81.9113 40.79 81.6265C40.6353 81.6071 40.4929 81.5324 40.3888 81.4163C40.2848 81.3003 40.2261 81.1505 40.2236 80.9946C40.2449 80.7728 40.3266 80.5611 40.4599 80.3825C40.5931 80.2039 40.7728 80.0653 40.9793 79.9817C40.8919 79.9364 40.8187 79.8677 40.7682 79.7833C40.7176 79.6988 40.6915 79.6019 40.6929 79.5035C40.6929 78.9185 41.6007 78.4218 42.4276 78.2899C42.6784 77.7939 42.8507 77.4517 42.8693 77.4225C42.9608 77.2518 43.3386 77.1798 43.3952 77.1798C43.4199 77.1814 43.443 77.1922 43.4601 77.21C43.4771 77.2279 43.4869 77.2514 43.4875 77.2761C43.4874 77.291 43.4838 77.3057 43.4769 77.319C43.46 77.3538 43.3151 77.6102 42.9826 78.2599ZM40.9089 80.883C40.9089 81.0084 40.972 81.0513 41.0497 81.0618C41.167 80.8336 41.2835 80.5836 41.4073 80.3336C41.0157 80.5335 40.9097 80.743 40.9097 80.883H40.9089ZM41.2754 79.5156C41.2754 79.5553 41.3256 79.5731 41.4065 79.5731C41.4316 79.5731 41.5683 79.5553 41.8022 79.5334C41.9049 79.3336 42.0004 79.1378 42.0918 78.9557C41.6832 79.1313 41.2762 79.4234 41.2762 79.5156H41.2754Z" fill="white"/>
<path d="M48.2126 80.0084C48.732 80.0651 49.3534 80.3442 49.3534 80.9502C49.3534 81.6784 48.198 82.5206 46.9973 82.5206C46.1138 82.5206 45.8735 82.1031 45.8735 81.981C45.8764 81.9046 45.8942 81.8295 45.9261 81.7601C45.8096 81.9745 45.6834 82.2059 45.5483 82.4705C45.5275 82.507 45.4963 82.5366 45.4588 82.5555C45.4212 82.5743 45.3788 82.5816 45.3371 82.5765C45.2943 82.582 45.2509 82.5783 45.2097 82.5656C45.1685 82.5529 45.1305 82.5315 45.0983 82.5027C45.0662 82.474 45.0406 82.4387 45.0233 82.3992C45.006 82.3597 44.9974 82.317 44.9981 82.2738C44.9985 82.2185 45.009 82.1637 45.0288 82.112C45.7136 80.8078 46.482 79.5493 47.3291 78.3441C47.41 78.2446 47.541 78.205 47.8412 78.205C47.9221 78.205 48.003 78.2123 48.003 78.2762C47.9984 78.316 47.9839 78.3541 47.9609 78.387C47.5936 78.993 47.2975 79.4542 47.0426 79.8644C47.9755 79.5934 49.3283 78.883 49.3283 78.3441C49.3283 78.0156 48.8518 77.9258 48.431 77.9258C48.0154 77.9115 47.6012 77.9826 47.2141 78.1349C46.8271 78.2871 46.4754 78.5172 46.181 78.811C46.181 78.8401 46.1947 78.8466 46.2158 78.8466C46.2368 78.8466 46.2967 78.8215 46.3185 78.8215C46.3404 78.8215 46.3395 78.8288 46.3395 78.8425C46.3037 78.9166 46.2474 78.9788 46.1773 79.0218C46.1071 79.0648 46.0262 79.0868 45.9439 79.0853C45.894 79.0917 45.8432 79.087 45.7953 79.0715C45.7474 79.056 45.7035 79.0302 45.6667 78.9958C45.6299 78.9614 45.6012 78.9193 45.5825 78.8726C45.5639 78.8258 45.5558 78.7755 45.5588 78.7252C45.5588 78.0189 47.1171 77.3158 48.3 77.3158C49.4828 77.3158 49.999 77.7543 49.999 78.3547C49.9926 79.116 48.9513 79.7439 48.2126 80.0084ZM47.5232 80.4542C47.2943 80.4392 47.0647 80.4723 46.8493 80.5513C46.8032 80.5513 46.7684 80.519 46.7077 80.4008C46.465 80.79 46.2522 81.1614 46.0046 81.608C46.059 81.5311 46.1322 81.4694 46.2171 81.4288C46.3021 81.3881 46.396 81.3699 46.49 81.3758C46.6567 81.3758 46.7028 81.4041 46.7028 81.4292C46.7028 81.4899 46.5151 81.468 46.5151 81.629C46.5151 81.7253 46.596 81.8855 47.0556 81.8855C47.9674 81.8855 48.6988 81.197 48.6988 80.8968C48.6964 80.7544 48.3857 80.4542 47.5232 80.4542Z" fill="white"/>
<path d="M52.5951 82.0103C52.3156 82.3341 51.9324 82.5509 51.5109 82.6236C51.3567 82.6222 51.2089 82.5614 51.0984 82.4537C50.988 82.3461 50.9233 82.2 50.9178 82.0459C51.0163 81.497 51.2508 80.9815 51.5999 80.5466C51.6751 80.4424 51.7378 80.3297 51.7868 80.2109L51.7795 80.2036C51.2949 80.5609 50.8529 80.9727 50.4623 81.431C50.197 81.7271 49.9567 82.0378 49.7236 82.3517C49.6743 82.4156 49.5853 82.5046 49.5012 82.5046C49.387 82.4816 49.2776 82.4395 49.1775 82.38C49.1684 82.374 49.1612 82.3654 49.1569 82.3553C49.1525 82.3453 49.1513 82.3342 49.1532 82.3234C49.194 82.1645 49.2658 82.0152 49.3644 81.8841C49.6686 81.3493 49.9793 80.8242 50.2908 80.2999C50.3834 80.1246 50.4872 79.9554 50.6015 79.7934C50.671 79.7228 50.7548 79.668 50.8474 79.6328C50.94 79.5976 51.0391 79.5829 51.1379 79.5895C51.2188 79.5895 51.2237 79.6704 51.2237 79.7287C51.1118 80.0237 50.9584 80.3013 50.7682 80.5531C51.108 80.1745 51.6517 79.5968 52.1954 79.5968C52.2388 79.5948 52.2821 79.6017 52.3227 79.6172C52.3632 79.6326 52.4002 79.6563 52.4312 79.6866C52.4623 79.717 52.4867 79.7534 52.5031 79.7936C52.5195 79.8338 52.5274 79.877 52.5263 79.9204C52.3924 80.285 52.2012 80.6258 51.96 80.9301C51.7315 81.2382 51.5584 81.5837 51.4486 81.9512C51.4486 82.0653 51.5578 82.1082 51.6598 82.1082C51.9955 82.1082 52.5684 81.38 52.6703 81.38C52.7723 81.38 52.7626 81.6373 52.7626 81.7036C52.7643 81.765 52.7496 81.8257 52.7202 81.8796C52.6908 81.9334 52.6476 81.9785 52.5951 82.0103Z" fill="white"/>
<path d="M56.2047 80.0083C56.7242 80.065 57.3455 80.3441 57.3455 80.9501C57.3455 81.6783 56.191 82.5205 54.9903 82.5205C54.1068 82.5205 53.8665 82.103 53.8665 81.9809C53.8694 81.9045 53.8872 81.8294 53.9191 81.76C53.8026 81.9744 53.6764 82.2058 53.5412 82.4704C53.5205 82.5069 53.4893 82.5365 53.4517 82.5554C53.4141 82.5742 53.3718 82.5815 53.3301 82.5763C53.2873 82.5819 53.2438 82.5782 53.2025 82.5655C53.1613 82.5528 53.1233 82.5314 53.0911 82.5027C53.0588 82.474 53.0331 82.4387 53.0158 82.3992C52.9984 82.3597 52.9897 82.3169 52.9903 82.2737C52.991 82.2183 53.0017 82.1635 53.0218 82.1119C53.7063 80.8075 54.4744 79.5486 55.3212 78.3432C55.4021 78.2437 55.5332 78.2041 55.8326 78.2041C55.9135 78.2041 55.9944 78.2114 55.9944 78.2753C55.9897 78.3151 55.9753 78.3532 55.9523 78.3861C55.585 78.9921 55.2889 79.4533 55.034 79.8635C55.9669 79.5925 57.3189 78.8821 57.3189 78.3432C57.3189 78.0147 56.8431 77.9249 56.4224 77.9249C56.0067 77.9105 55.5925 77.9817 55.2055 78.134C54.8184 78.2862 54.4668 78.5163 54.1723 78.8101C54.1723 78.8392 54.1861 78.8457 54.2071 78.8457C54.2282 78.8457 54.288 78.8206 54.3099 78.8206C54.3317 78.8206 54.3309 78.8279 54.3309 78.8416C54.295 78.9157 54.2387 78.9779 54.1686 79.0209C54.0985 79.0639 54.0175 79.0859 53.9353 79.0844C53.8853 79.0908 53.8346 79.0861 53.7867 79.0706C53.7387 79.0551 53.6948 79.0293 53.658 78.9949C53.6213 78.9605 53.5925 78.9184 53.5739 78.8716C53.5552 78.8249 53.5471 78.7746 53.5501 78.7243C53.5501 78.018 55.1084 77.3149 56.2913 77.3149C57.4742 77.3149 57.9904 77.7534 57.9904 78.3538C57.9847 79.1159 56.9434 79.7438 56.2047 80.0083ZM55.5162 80.4541C55.2873 80.4391 55.0577 80.4722 54.8423 80.5512C54.7961 80.5512 54.7613 80.5189 54.7007 80.4007C54.4579 80.7899 54.2452 81.1613 53.9976 81.6079C54.052 81.531 54.1252 81.4693 54.2101 81.4287C54.2951 81.388 54.389 81.3698 54.483 81.3757C54.6489 81.3757 54.6958 81.404 54.6958 81.4291C54.6958 81.4897 54.5081 81.4679 54.5081 81.6289C54.5081 81.7252 54.589 81.8854 55.0486 81.8854C55.9596 81.8854 56.6918 81.1969 56.6918 80.8967C56.6894 80.7543 56.3779 80.4541 55.5162 80.4541Z" fill="white"/>
<path d="M22.3996 88.8C22.4136 88.7918 22.4251 88.7799 22.4329 88.7657C22.4407 88.7514 22.4446 88.7353 22.4441 88.7191C22.444 88.7026 22.4396 88.6864 22.4312 88.6722C22.4228 88.658 22.4108 88.6462 22.3963 88.6382C22.3595 88.6147 22.3195 88.5967 22.2774 88.5848L22.1213 88.5395C22.0673 88.524 22.0148 88.504 21.9643 88.4796C21.9159 88.4552 21.8747 88.4187 21.8446 88.3736C21.8117 88.3229 21.7951 88.2633 21.7968 88.2029C21.7972 88.1545 21.8088 88.1067 21.8307 88.0635C21.8526 88.0203 21.8842 87.9827 21.923 87.9537C22.0147 87.8808 22.1296 87.8434 22.2467 87.8485C22.3343 87.8445 22.4216 87.8619 22.501 87.8993C22.5804 87.9366 22.6494 87.9928 22.7022 88.0629L22.529 88.2296C22.4933 88.1865 22.4486 88.1516 22.398 88.1274C22.3474 88.1032 22.2922 88.0904 22.2361 88.0896C22.1204 88.0896 22.0614 88.1261 22.0614 88.1964C22.0626 88.2112 22.0678 88.2254 22.0766 88.2373C22.0853 88.2493 22.0971 88.2587 22.1107 88.2644C22.1484 88.2849 22.1883 88.3009 22.2297 88.3121L22.3866 88.3566C22.4407 88.3716 22.4933 88.3916 22.5436 88.4165C22.5922 88.4414 22.6332 88.4788 22.6625 88.5249C22.6952 88.5767 22.7118 88.6369 22.7103 88.6981C22.7109 88.7488 22.6998 88.7989 22.678 88.8447C22.6561 88.8904 22.6239 88.9305 22.5841 88.9618C22.4955 89.0336 22.3841 89.0713 22.2701 89.0678C22.1527 89.0713 22.0366 89.0433 21.9336 88.9869C21.8476 88.9396 21.777 88.8686 21.7305 88.7822L21.919 88.6261C21.9555 88.6863 22.0064 88.7367 22.067 88.7725C22.1263 88.8077 22.194 88.8261 22.2628 88.8259C22.31 88.8306 22.3574 88.8216 22.3996 88.8Z" fill="white"/>
<path d="M23.5754 88.4635C23.5776 88.327 23.6268 88.1954 23.7149 88.0911C23.8029 87.9867 23.9243 87.916 24.0585 87.8909C24.1927 87.8657 24.3315 87.8877 24.4513 87.9531C24.5711 88.0186 24.6647 88.1234 24.7161 88.2498C24.7676 88.3763 24.7738 88.5166 24.7336 88.6471C24.6935 88.7776 24.6095 88.8903 24.4958 88.9659C24.3822 89.0416 24.2459 89.0757 24.11 89.0624C23.9741 89.0492 23.847 88.9894 23.7501 88.8931C23.6931 88.8374 23.6481 88.7704 23.618 88.6965C23.5879 88.6226 23.5734 88.5433 23.5754 88.4635ZM23.9403 88.2087C23.8777 88.2786 23.8431 88.3692 23.8431 88.4631C23.8431 88.557 23.8777 88.6476 23.9403 88.7176C24.0029 88.78 24.0877 88.815 24.1761 88.815C24.2645 88.815 24.3493 88.78 24.412 88.7176C24.4439 88.6835 24.4687 88.6434 24.485 88.5997C24.5012 88.5559 24.5086 88.5094 24.5066 88.4627C24.5084 88.4157 24.5004 88.3688 24.4833 88.3249C24.4662 88.2811 24.4402 88.2413 24.4071 88.2078C24.3769 88.1764 24.3407 88.1514 24.3005 88.1343C24.2604 88.1172 24.2173 88.1084 24.1737 88.1084C24.1301 88.1084 24.0869 88.1172 24.0468 88.1343C24.0067 88.1514 23.9705 88.1764 23.9403 88.2078V88.2087Z" fill="white"/>
<path d="M26.6963 87.8809V88.546C26.6971 88.6112 26.6878 88.6762 26.6688 88.7385C26.6523 88.7907 26.6271 88.8396 26.5944 88.8834C26.5633 88.9221 26.5258 88.9552 26.4835 88.9813C26.4424 89.0075 26.3973 89.0269 26.35 89.0387C26.3021 89.0504 26.2529 89.0561 26.2036 89.0557C26.0669 89.0599 25.9339 89.0112 25.8322 88.9198C25.781 88.8703 25.7411 88.8104 25.7153 88.744C25.6894 88.6777 25.6783 88.6065 25.6825 88.5355V87.8801H25.9398V88.5055C25.9356 88.5864 25.9597 88.6662 26.0078 88.7313C26.0321 88.7586 26.0622 88.78 26.096 88.794C26.1298 88.808 26.1663 88.8142 26.2028 88.8122C26.3603 88.8122 26.439 88.7113 26.439 88.5096V87.8777L26.6963 87.8809Z" fill="white"/>
<path d="M27.5527 88.1222V87.8795H28.5568V88.1222H28.183V89.0462H27.9257V88.1222H27.5527Z" fill="white"/>
<path d="M30.2067 89.0452V88.5792H29.6889V89.0452H29.4316V87.8809H29.6889V88.3381H30.2067V87.8809H30.464V89.0452H30.2067Z" fill="white"/>
<path d="M32.4883 89.0452L32.9948 87.8809H33.1906L33.6971 89.0452H33.4317L33.3378 88.8292H32.8475L32.7537 89.0452H32.4883ZM33.0927 88.2628L32.9414 88.6107H33.2432L33.0927 88.2628Z" fill="white"/>
<path d="M34.5674 89.0452V87.8809H35.4493V88.1236H34.8239V88.3785H35.4064V88.6212H34.8239V89.0492L34.5674 89.0452Z" fill="white"/>
<path d="M36.6216 89.0449H36.3643V87.8806H36.8351C36.9124 87.8791 36.9895 87.89 37.0633 87.913C37.1188 87.9286 37.1693 87.9585 37.2097 87.9996C37.2417 88.0341 37.2667 88.0745 37.2834 88.1185C37.2988 88.1641 37.3065 88.212 37.306 88.2601C37.3065 88.3335 37.2851 88.4053 37.2445 88.4664C37.2047 88.5276 37.1467 88.5748 37.0787 88.6015L37.4023 89.0457H37.0916L36.8076 88.6477H36.6224L36.6216 89.0449ZM36.8303 88.1209H36.6216V88.4057H36.8392C36.8912 88.4089 36.9428 88.3953 36.9864 88.3669C37.0032 88.3544 37.0166 88.338 37.0255 88.3191C37.0344 88.3002 37.0385 88.2793 37.0374 88.2585C37.0388 88.2388 37.0355 88.2192 37.0276 88.2011C37.0197 88.1831 37.0075 88.1672 36.9921 88.1549C36.9425 88.1275 36.8858 88.116 36.8295 88.1218L36.8303 88.1209Z" fill="white"/>
<path d="M38.2832 89.0452V87.8809H38.5413V89.0452H38.2832Z" fill="white"/>
<path d="M40.412 88.6611L40.5649 88.8229C40.5123 88.8995 40.4403 88.9607 40.3561 89.0001C40.2665 89.0418 40.1686 89.0628 40.0697 89.0615C39.9902 89.0657 39.9107 89.0535 39.8361 89.0256C39.7615 88.9978 39.6934 88.9549 39.6361 88.8997C39.5813 88.8414 39.5387 88.7727 39.5109 88.6977C39.4831 88.6226 39.4706 88.5428 39.4742 88.4628C39.4723 88.3839 39.4862 88.3053 39.5152 88.2318C39.5441 88.1583 39.5874 88.0913 39.6425 88.0348C39.6987 87.977 39.7665 87.9317 39.8413 87.9017C39.9161 87.8718 39.9964 87.8579 40.077 87.8609C40.1742 87.8594 40.2704 87.8799 40.3586 87.9208C40.4356 87.9559 40.5012 88.0119 40.5479 88.0826L40.3731 88.2444C40.3396 88.2022 40.2963 88.1689 40.2469 88.1473C40.1994 88.1255 40.1479 88.1139 40.0956 88.1133C40.0488 88.1112 40.002 88.1186 39.958 88.135C39.9141 88.1514 39.874 88.1765 39.8399 88.2088C39.7888 88.2582 39.7536 88.3219 39.7392 88.3916C39.7247 88.4612 39.7315 88.5336 39.7587 88.5993C39.786 88.6651 39.8324 88.7211 39.8919 88.7601C39.9514 88.7991 40.0212 88.8193 40.0924 88.818C40.1543 88.819 40.2155 88.8052 40.271 88.778C40.3266 88.7507 40.3749 88.7106 40.412 88.6611Z" fill="white"/>
<path d="M41.2988 89.0452L41.8053 87.8809H42.0011L42.5068 89.0452H42.2422L42.1484 88.8292H41.6581L41.5634 89.0452H41.2988ZM41.9032 88.2628L41.7519 88.6107H42.0537L41.9032 88.2628Z" fill="white"/>
</g>
<defs>
<clipPath id="clip0">
<rect width="65" height="89.0718" fill="white"/>
</clipPath>
</defs>
</svg>
