<svg width="90" height="73" viewBox="0 0 90 73" fill="none" xmlns="http://www.w3.org/2000/svg">
<path d="M10.3035 62.6359L12.1447 65.6206H7.56828L6.1315 63.1905H3.85984V65.6254H0V55.2272H8.15956C9.0247 55.2373 9.8636 55.5257 10.552 56.0498C11.2404 56.5739 11.7417 57.3058 11.9816 58.1371C12.2215 58.9684 12.1872 59.8548 11.8839 60.6651C11.5806 61.4754 11.0244 62.1665 10.2976 62.6359H10.3035ZM3.86103 59.916H7.42519C7.81189 59.916 8.28608 59.916 8.28608 59.2065C8.28608 58.497 7.81307 58.497 7.42519 58.497H3.86103V59.916Z" fill="white"/>
<path d="M16.7483 53.7432V56.1178H13.1865V53.7432H16.7483ZM16.7483 56.7114V65.6207H13.1865V56.7114H16.7483Z" fill="white"/>
<path d="M23.8441 56.5623C27.3634 56.5623 29.5759 57.6916 29.8751 60.4978H26.2376C25.9549 59.7398 25.1237 59.5341 23.8465 59.5341C22.2583 59.5341 21.3537 59.8604 21.3537 61.166C21.3537 62.4715 22.2583 62.7991 23.8465 62.7991C25.1237 62.7991 25.9549 62.5909 26.2376 61.8329H29.8751C29.5783 64.6391 27.3657 65.7684 23.8441 65.7684C20.06 65.7684 17.7871 64.4676 17.7871 61.166C17.7871 57.8643 20.06 56.5623 23.8441 56.5623Z" fill="white"/>
<path d="M43.0608 60.4081V65.6207H39.4919V61.8638C39.4919 60.3347 38.942 59.682 37.3385 59.682C36.2782 59.6951 35.2593 60.096 34.4744 60.8089V65.6195H30.9102V53.7432H34.4744V57.8999C35.7313 57.0094 37.2385 56.541 38.7788 56.5624C40.7927 56.5624 43.0608 57.1868 43.0608 60.4081Z" fill="white"/>
<path d="M52.4331 59.8451L58.7277 65.6206H55.0311L50.457 61.2984L47.2641 63.628V65.6183H44.5928V55.2272H47.2641V60.6173L54.6728 55.2272H58.7266L52.4331 59.8451Z" fill="white"/>
<path d="M62.6784 53.7432V55.9546H60.1406V53.7432H62.6784ZM62.6784 56.8758V65.6207H60.1406V56.8758H62.6784Z" fill="white"/>
<path d="M76.3535 53.7432V65.6195H73.8145V64.2549C73.226 64.7878 72.536 65.1966 71.7858 65.4566C71.0356 65.7167 70.2407 65.8228 69.4486 65.7685C66.6436 65.7685 64.2383 64.5966 64.2383 61.2559C64.2383 57.9152 66.6448 56.728 69.4486 56.728C70.2407 56.6737 71.0356 56.7798 71.7858 57.0399C72.536 57.2999 73.226 57.7087 73.8145 58.2416V53.748L76.3535 53.7432ZM73.8145 61.2548C73.8145 59.5176 72.5669 58.8495 70.2953 58.8495C68.0236 58.8495 66.7902 59.5176 66.7902 61.2548C66.7902 62.9919 68.0224 63.6447 70.2953 63.6447C72.5681 63.6447 73.8145 62.9777 73.8145 61.2548Z" fill="white"/>
<path d="M80.4549 62.5462C80.4549 63.4816 81.4187 63.8387 84.2556 63.8387C87.0027 63.8387 87.4485 63.6602 87.4485 62.9779C87.4485 62.2955 87.0322 62.2683 83.96 62.072C80.1143 61.8509 78.2282 61.5529 78.2282 59.4444C78.2282 57.1585 80.9007 56.7245 84.0227 56.7245C87.3196 56.7245 89.7095 57.1538 89.7095 59.5627H87.1564C87.1564 58.8366 86.2352 58.6568 83.876 58.6568C81.4695 58.6568 80.7872 58.8366 80.7872 59.3415C80.7872 59.889 81.2472 59.9789 84.2615 60.2024C87.6767 60.4543 90.0063 60.5442 90.0063 62.8738C90.0063 65.3382 87.7796 65.7698 84.4093 65.7698C81.0391 65.7698 77.9219 65.3382 77.9219 62.5474L80.4549 62.5462Z" fill="white"/>
<path d="M87.4761 39.2533C87.1218 38.4058 86.5155 37.6878 85.7394 37.1965C84.9632 36.7053 84.0548 36.4645 83.1372 36.507C82.2197 36.5495 81.3373 36.8731 80.6099 37.4339C79.8824 37.9948 79.345 38.7658 79.0706 39.6424C78.9805 40.0488 78.9185 40.4609 78.8849 40.8758C79.2045 40.7016 79.4738 40.4479 79.6666 40.1391C80.0818 39.5839 80.6797 39.1931 81.3549 39.0356C82.0301 38.8781 82.7392 38.964 83.3573 39.2782C83.9461 39.5307 84.4335 39.9728 84.7423 40.5342C85.051 41.0955 85.1633 41.744 85.0613 42.3764C84.9881 43.0729 84.6587 43.7174 84.1371 44.1848C83.6155 44.6522 82.9389 44.9092 82.2386 44.9059C80.7021 45.0944 79.1432 44.8711 77.7213 44.2591C76.053 43.4618 74.4403 42.5532 72.8941 41.5392C68.8108 38.7437 65.4204 35.1534 61.8964 31.7051C61.0899 30.9164 60.3166 30.0815 59.6342 29.3637L59.5006 29.2561L59.4829 29.2395L58.3287 27.8276L57.1402 26.3813L60.8416 22.0851L63.6194 18.8556L65.7941 16.3344L65.8036 16.325L66.2482 15.7573H68.1734C68.3121 15.7414 68.447 15.7014 68.5719 15.6391C68.6961 15.5776 68.7505 15.4262 68.838 15.2299H58.4812V15.781H58.5085L58.8017 15.8082H61.7214L61.0284 16.8453L61.0107 16.863L59.3244 18.8071L53.9072 25.0699L51.4487 27.908C51.4383 27.82 51.4324 27.7316 51.4309 27.6431C51.4214 24.7399 51.4037 21.838 51.4309 18.936V15.3884C49.363 15.3702 47.2983 15.3584 45.2368 15.3529H44.7755C42.032 15.3624 39.2814 15.3706 36.5391 15.4073H36.0424C35.2702 15.4073 34.5051 15.4168 33.7353 15.425C32.0333 15.4687 30.3649 15.9093 28.8632 16.7116C27.9787 17.1201 27.2042 17.7335 26.604 18.5011C26.0039 19.2686 25.5953 20.1681 25.4122 21.1251C25.2291 22.082 25.2767 23.0688 25.5511 24.0037C25.8255 24.9386 26.3188 25.7946 26.9901 26.5008C28.0473 27.5364 29.1776 28.4947 30.3722 29.3684C29.6875 30.0874 28.9153 30.9211 28.1088 31.7099C24.586 35.1535 21.1956 38.7484 17.1111 41.5439C15.5642 42.5567 13.9507 43.4638 12.2816 44.2591C10.8597 44.8711 9.30072 45.0944 7.76423 44.9059C7.06389 44.9092 6.3873 44.6522 5.86573 44.1848C5.34415 43.7174 5.01478 43.0729 4.9415 42.3764C4.83952 41.744 4.95181 41.0955 5.26056 40.5342C5.5693 39.9728 6.05679 39.5307 6.64556 39.2782C7.26379 38.9639 7.97308 38.878 8.64847 39.0355C9.32386 39.193 9.92198 39.5838 10.3374 40.1391C10.5292 40.4482 10.7982 40.7021 11.1179 40.8758C11.0843 40.4609 11.0223 40.0488 10.9323 39.6424C10.6581 38.7657 10.1209 37.9945 9.39355 37.4335C8.66619 36.8725 7.78387 36.5488 6.86628 36.5064C5.94869 36.4639 5.04024 36.7047 4.26416 37.1961C3.48808 37.6875 2.88194 38.4057 2.52794 39.2533C2.17864 40.0895 2.09257 41.0123 2.28124 41.8986C2.46992 42.785 2.92434 43.5927 3.58393 44.2141C4.95453 45.5636 6.78204 46.349 8.70437 46.4148C12.8146 46.6658 16.8851 45.4867 20.2247 43.0777C23.8244 40.6446 27.138 37.813 30.1025 34.6367C31.1053 33.6173 32.1613 32.6405 33.1014 31.5621C33.4665 31.1129 33.9282 30.7521 34.4522 30.5063C34.9762 30.2606 35.5489 30.1364 36.1276 30.143C36.2935 30.1433 36.4593 30.1524 36.6243 30.1702C37.1931 30.2246 37.7701 30.1797 38.4347 30.1797C38.5051 30.6326 38.5525 31.0889 38.5766 31.5467C38.5944 33.2945 38.6038 35.0517 38.5672 36.7913C38.5329 38.8856 38.0883 39.3929 36.0649 39.7902C35.7499 39.8097 35.4391 39.8726 35.1413 39.9771C34.9651 40.0657 34.9108 40.3661 34.7346 40.7209H55.2671C55.0909 40.3661 55.0306 40.0646 54.8603 39.9771C54.5625 39.8726 54.2517 39.8097 53.9367 39.7902C51.9134 39.3905 51.4711 38.8856 51.4345 36.7913C51.4073 35.5484 51.4073 34.2878 51.4167 33.0355L53.9001 30.143C54.8461 29.2324 56.0653 30.616 56.899 31.5621C57.8451 32.6358 58.8963 33.6114 59.8979 34.6367C62.8633 37.8126 66.1772 40.6442 69.7769 43.0777C73.116 45.487 77.1862 46.6662 81.2961 46.4148C83.2185 46.3494 85.0461 45.5639 86.4165 44.2141C87.0767 43.5931 87.5318 42.7856 87.7211 41.8992C87.9105 41.0129 87.825 40.0898 87.4761 39.2533ZM38.5731 27.6443C38.5493 28.0135 38.5047 28.3811 38.4395 28.7452H36.1323C35.6262 28.7452 35.1307 28.7452 34.634 28.7358C33.4126 28.7217 32.2306 28.3015 31.2744 27.5414C30.3181 26.7813 29.6421 25.7245 29.3528 24.5377C28.9595 23.2915 29.003 21.9485 29.476 20.7303C29.949 19.5122 30.8232 18.4917 31.9544 17.8374C33.2072 17.157 34.6201 16.8261 36.0448 16.8796C36.2139 16.8796 36.3724 16.8796 36.5415 16.889C38.281 16.96 38.5648 17.1989 38.5731 18.9384C38.6003 21.8392 38.5826 24.7411 38.5731 27.6443ZM47.6893 36.7499C47.6621 38.9873 47.1111 39.6247 45.0002 39.8245C42.887 39.6282 42.336 38.9908 42.3111 36.7499C42.2839 33.8396 42.3111 30.9282 42.3111 28.0085H42.3016C42.3016 25.1503 42.2922 22.2933 42.3016 19.4256C42.3111 17.2698 42.9142 16.5414 45.0002 16.3025C47.0862 16.539 47.6894 17.2698 47.6988 19.4256C47.7059 22.2933 47.6988 25.1503 47.6988 28.0085H47.6893C47.6893 30.9282 47.7142 33.8385 47.6893 36.7499Z" fill="white"/>
<path d="M17.3988 71.6052C17.5849 71.7373 17.8081 71.8069 18.0362 71.8039C18.1488 71.8103 18.261 71.7866 18.3614 71.7353C18.3966 71.7186 18.4263 71.6923 18.4473 71.6595C18.4682 71.6266 18.4794 71.5886 18.4797 71.5496C18.4808 71.5206 18.4759 71.4916 18.4653 71.4646C18.4547 71.4375 18.4387 71.4129 18.4182 71.3923C18.3734 71.3484 18.3204 71.3139 18.2621 71.2906C18.2006 71.2646 18.1107 71.2339 17.996 71.196C17.8627 71.1573 17.7322 71.1091 17.6058 71.0518C17.5022 71.0033 17.4121 70.9302 17.3432 70.8389C17.2678 70.7329 17.2299 70.6047 17.2356 70.4747C17.2334 70.3431 17.2705 70.2138 17.3421 70.1034C17.4155 69.9919 17.5199 69.9044 17.6424 69.8515C17.7842 69.7889 17.938 69.7582 18.093 69.7616C18.2439 69.761 18.3939 69.7841 18.5376 69.8302C18.6771 69.874 18.8085 69.9403 18.9267 70.0265L18.6902 70.4073C18.5215 70.2744 18.3136 70.2008 18.0989 70.198C18.0022 70.1929 17.9061 70.2159 17.8222 70.2642C17.7952 70.2791 17.7721 70.3001 17.7549 70.3256C17.7376 70.3511 17.7266 70.3804 17.7228 70.4109C17.719 70.4415 17.7225 70.4725 17.733 70.5015C17.7435 70.5305 17.7606 70.5565 17.7831 70.5776C17.8271 70.6182 17.878 70.6506 17.9333 70.6734C17.9936 70.6994 18.0788 70.7289 18.19 70.7644C18.3256 70.8038 18.4583 70.8524 18.5873 70.9099C18.6922 70.961 18.7834 71.0364 18.8534 71.1298C18.9311 71.2411 18.9702 71.3749 18.9645 71.5106C18.9664 71.6472 18.925 71.7809 18.8463 71.8926C18.7646 72.0077 18.6518 72.0971 18.5211 72.1504C18.3669 72.2148 18.2009 72.2466 18.0338 72.2438C17.8795 72.2449 17.7259 72.2242 17.5774 72.1823C17.4377 72.1452 17.3048 72.0861 17.1836 72.0073L17.3988 71.6052Z" fill="white"/>
<path d="M23.1694 72.2393C22.9472 72.2425 22.728 72.1879 22.5332 72.0808C22.3484 71.9774 22.1964 71.8242 22.0945 71.6386C21.9901 71.4423 21.9355 71.2234 21.9355 71.0012C21.9355 70.7789 21.9901 70.56 22.0945 70.3638C22.197 70.1792 22.3489 70.0269 22.5332 69.9239C22.7296 69.8207 22.9482 69.7668 23.17 69.7668C23.3919 69.7668 23.6104 69.8207 23.8068 69.9239C23.9921 70.0267 24.1452 70.179 24.2491 70.3638C24.3533 70.5601 24.4079 70.7789 24.4079 71.0012C24.4079 71.2234 24.3533 71.4423 24.2491 71.6386C24.1458 71.8244 23.9926 71.9776 23.8068 72.0808C23.6115 72.1877 23.392 72.2423 23.1694 72.2393ZM23.1694 71.7935C23.3074 71.7956 23.4435 71.7605 23.5632 71.6918C23.6792 71.626 23.7743 71.5289 23.8376 71.4115C23.9052 71.2855 23.9394 71.1442 23.9369 71.0012C23.9392 70.8593 23.905 70.7192 23.8376 70.5944C23.7736 70.4775 23.6787 70.3805 23.5632 70.3141C23.4423 70.2487 23.3069 70.2144 23.1694 70.2144C23.0319 70.2144 22.8966 70.2487 22.7756 70.3141C22.6609 70.3807 22.5668 70.4777 22.5037 70.5944C22.4375 70.7196 22.4042 70.8596 22.4067 71.0012C22.4041 71.1439 22.4374 71.285 22.5037 71.4115C22.5663 71.5285 22.6605 71.6256 22.7756 71.6918C22.8954 71.7603 23.0314 71.7954 23.1694 71.7935Z" fill="white"/>
<path d="M27.9807 72.1067C27.8256 72.019 27.6992 71.8884 27.6165 71.7306C27.5278 71.5543 27.4836 71.3591 27.4875 71.1618V69.8019H27.9606V71.1299C27.9492 71.3096 28.0025 71.4874 28.1108 71.6313C28.1611 71.6905 28.2244 71.7374 28.2958 71.7684C28.3671 71.7994 28.4446 71.8135 28.5223 71.8098C28.6001 71.813 28.6776 71.7986 28.749 71.7677C28.8205 71.7368 28.884 71.6902 28.935 71.6313C29.0437 71.4876 29.0974 71.3097 29.0864 71.1299V69.8019H29.5594V71.1618C29.5634 71.3591 29.5191 71.5543 29.4305 71.7306C29.349 71.8885 29.2233 72.0192 29.0686 72.1067C28.9013 72.1942 28.7153 72.2399 28.5264 72.2399C28.3376 72.2399 28.1516 72.1942 27.9842 72.1067H27.9807Z" fill="white"/>
<path d="M34.6664 70.2453H33.8232V72.2048H33.3502V70.2453H32.5059V69.8019H34.6675L34.6664 70.2453Z" fill="white"/>
<path d="M39.7243 69.8019V72.2084H39.2513V71.2138H38.1078V72.2084H37.6348V69.8019H38.1078V70.768H39.2513V69.8019H39.7243Z" fill="white"/>
<path d="M42.8223 71.4115V70.9633H43.9658V71.4115H42.8223Z" fill="white"/>
<path d="M48.5201 71.6018H47.5303L47.3044 72.2049H46.7959L47.7301 69.7984H48.3214L49.2603 72.2049H48.7519L48.5201 71.6018ZM48.3604 71.169L48.0269 70.2821L47.6911 71.169H48.3604Z" fill="white"/>
<path d="M52.7045 70.2382V70.7964H53.7688V71.2351H52.7045V72.2048H52.2314V69.8019H53.8953V70.2406L52.7045 70.2382Z" fill="white"/>
<path d="M58.2616 72.2061L57.6703 71.4067H57.3451V72.2061H56.8721V69.802H57.908C58.1365 69.79 58.3608 69.8672 58.5336 70.0172C58.613 70.0931 58.6752 70.1852 58.7161 70.2872C58.7569 70.3892 58.7753 70.4987 58.7701 70.6085C58.7754 70.7836 58.724 70.9558 58.6234 71.0992C58.5224 71.2347 58.378 71.3315 58.2143 71.3736L58.828 72.2108L58.2616 72.2061ZM57.351 70.9893H57.8749C57.9888 70.9949 58.101 70.9592 58.1906 70.8888C58.2625 70.8139 58.3027 70.7141 58.3027 70.6103C58.3027 70.5065 58.2625 70.4067 58.1906 70.3318C58.1003 70.263 57.9882 70.229 57.8749 70.236H57.351V70.9893Z" fill="white"/>
<path d="M61.876 72.206V69.8019H62.349V72.2084L61.876 72.206Z" fill="white"/>
<path d="M66.058 72.0844C65.8723 71.9811 65.7186 71.8289 65.6133 71.6444C65.5081 71.447 65.4531 71.2267 65.4531 71.0029C65.4531 70.7792 65.5081 70.5589 65.6133 70.3614C65.718 70.1758 65.8718 70.0228 66.058 69.9191C66.2562 69.8111 66.4791 69.7564 66.7048 69.7606C66.8711 69.7551 67.0367 69.7855 67.1901 69.8498C67.3436 69.9141 67.4814 70.0107 67.5941 70.1332L67.2665 70.4584C67.1962 70.3787 67.1092 70.3156 67.0117 70.2735C66.9142 70.2314 66.8086 70.2113 66.7024 70.2147C66.5628 70.2127 66.4249 70.2461 66.3016 70.3117C66.1847 70.3755 66.0886 70.4716 66.0248 70.5884C65.9597 70.7167 65.9258 70.8585 65.9258 71.0023C65.9258 71.1462 65.9597 71.288 66.0248 71.4162C66.0882 71.5334 66.1844 71.6295 66.3016 71.6929C66.4244 71.76 66.5625 71.7942 66.7024 71.7923C66.8085 71.7964 66.9143 71.7773 67.0123 71.7365C67.1103 71.6957 67.1983 71.634 67.2701 71.5557L67.5953 71.8762C67.4825 71.9986 67.3448 72.0953 67.1913 72.1596C67.0378 72.2238 66.8723 72.2543 66.706 72.2487C66.4794 72.2513 66.256 72.1947 66.058 72.0844Z" fill="white"/>
<path d="M72.0923 71.6018H71.1025L70.8755 72.2049H70.3682L71.3024 69.7984H71.8937L72.8326 72.2049H72.3229L72.0923 71.6018ZM71.9327 71.169L71.5968 70.2821L71.2633 71.169H71.9327Z" fill="white"/>
<path d="M32.042 5.06841L35.8533 -0.00115967V5.06841H32.042Z" fill="white"/>
<path d="M36.6055 5.06845V6.10352e-05H40.7763L36.6055 5.06845Z" fill="white"/>
<path d="M37.7207 5.06841L42.1068 -0.00115967L44.4435 5.06841H37.7207Z" fill="white"/>
<path d="M44.8382 4.20638L47.4268 6.10352e-05H42.8965L44.8382 4.20638Z" fill="white"/>
<path d="M45.3418 5.06959L47.9659 0.503784L52.3874 5.06959H45.3418Z" fill="white"/>
<path d="M53.2152 4.85314V0.00469971H48.6494L53.2152 4.85314Z" fill="white"/>
<path d="M53.9697 5.06845V6.10352e-05L57.9608 5.06963L53.9697 5.06845Z" fill="white"/>
<path d="M32.4346 5.86542H35.8498L34.4473 7.98691L32.4346 5.86542Z" fill="white"/>
<path d="M38.4395 5.86542H43.6521L41.3509 8.23051L38.4395 5.86542Z" fill="white"/>
<path d="M46.2412 5.86542H51.7779L48.9741 7.98691L46.2412 5.86542Z" fill="white"/>
<path d="M53.9697 5.86542H57.6013L55.319 8.14773L53.9697 5.86542Z" fill="white"/>
<path d="M53.0709 5.86542L54.4734 8.70353L45.7734 16.1819L49.405 8.81232L53.0709 5.86542Z" fill="white"/>
<path d="M44.8388 5.86542L48.1109 8.84898L44.8388 15.8958L42.1426 8.84898L44.8388 5.86542Z" fill="white"/>
<path d="M37.0014 5.86542L41.3875 9.46036L44.1192 15.8958L35.1318 8.63376L37.0014 5.86542Z" fill="white"/>
</svg>
