<svg width="100" height="59" viewBox="0 0 100 59" fill="none" xmlns="http://www.w3.org/2000/svg">
<g clip-path="url(#clip0)">
<path d="M12.6514 9.31306C12.9211 9.54546 13.1368 9.83398 13.2834 10.1585C13.43 10.4829 13.5039 10.8355 13.5001 11.1915C13.5119 11.7358 13.327 12.2662 12.9795 12.6852C12.8098 12.8869 12.5961 13.0469 12.3547 13.1529C12.1134 13.2588 11.851 13.3079 11.5876 13.2963C11.1249 13.309 10.675 13.1428 10.3316 12.8324C10.1583 12.6689 10.0222 12.4702 9.93237 12.2495C9.84256 12.0289 9.80118 11.7916 9.81102 11.5536C9.81984 11.1781 9.92955 10.8118 10.1287 10.4932C10.3278 10.1747 10.6089 9.91557 10.9426 9.74307C10.86 9.63106 10.75 9.54209 10.6233 9.48464C10.4965 9.4272 10.3571 9.40319 10.2184 9.4149C9.32295 9.42766 8.46881 9.79372 7.84203 10.4333C7.11025 11.1367 6.53898 11.9897 6.16725 12.9342C5.78148 13.8126 5.57378 14.7588 5.55618 15.7179V22.8131C5.51358 23.2177 5.57308 23.6264 5.72925 24.002C5.88542 24.3776 6.13328 24.7081 6.45015 24.9632C7.26041 25.4148 8.18376 25.623 9.10943 25.5629V26.2645H8.30599C6.04277 26.1966 4.583 26.1627 3.9493 26.1627C3.3156 26.1627 2.05952 26.1627 0 26.2985V25.5969C0.701217 25.6671 1.40426 25.4823 1.98031 25.0763C2.19669 24.8155 2.35831 24.5137 2.45552 24.189C2.55273 23.8643 2.58354 23.5234 2.54611 23.1865V12.6626C2.61582 11.8662 2.41661 11.0693 1.98031 10.3994C1.72627 10.1493 1.41994 9.95876 1.08337 9.84135C0.74681 9.72394 0.388394 9.68265 0.0339482 9.72044V9.05279C0.74686 9.12069 1.43714 9.15463 2.1161 9.15463C3.29135 9.18453 4.46392 9.02794 5.59013 8.69068V12.8776C5.99656 11.7329 6.6583 10.6958 7.52518 9.84491C7.90025 9.441 8.3534 9.11741 8.85717 8.89373C9.36095 8.67004 9.90488 8.55092 10.456 8.54357C11.2586 8.5147 12.0425 8.78947 12.6514 9.31306Z" fill="white"/>
<path d="M25.9816 10.8068C27.3697 12.3156 28.0675 14.5788 28.0751 17.5964C28.0826 20.614 27.3848 22.8773 25.9816 24.3861C25.2778 25.1349 24.4219 25.7243 23.4713 26.1147C22.5207 26.5051 21.4976 26.6873 20.4707 26.6493C19.4438 26.6873 18.4206 26.5051 17.47 26.1147C16.5195 25.7243 15.6635 25.1349 14.9597 24.3861C13.5716 22.8773 12.8738 20.614 12.8663 17.5964C12.8587 14.5788 13.5566 12.3156 14.9597 10.8068C15.6621 10.0562 16.5178 9.4656 17.4688 9.07509C18.4197 8.68457 19.4435 8.5033 20.4707 8.54359C21.4978 8.5033 22.5217 8.68457 23.4726 9.07509C24.4235 9.4656 25.2792 10.0562 25.9816 10.8068ZM17.2908 11.316C16.397 13.3188 16.0084 15.5103 16.1592 17.6983C16.0056 19.8827 16.3943 22.0713 17.2908 24.0692C17.5695 24.6785 18.0174 25.1949 18.5811 25.5569C19.1448 25.919 19.8007 26.1114 20.4707 26.1114C21.1406 26.1114 21.7965 25.919 22.3602 25.5569C22.924 25.1949 23.3718 24.6785 23.6505 24.0692C24.547 22.0713 24.9357 19.8827 24.7821 17.6983C24.9329 15.5103 24.5443 13.3188 23.6505 11.316C23.3753 10.7029 22.9288 10.1824 22.3646 9.8172C21.8004 9.45201 21.1427 9.25771 20.4707 9.25771C19.7986 9.25771 19.1409 9.45201 18.5767 9.8172C18.0126 10.1824 17.566 10.7029 17.2908 11.316Z" fill="white"/>
<path d="M43.8836 9.05286V9.73182C43.4478 9.79301 43.0473 10.0053 42.752 10.3316C42.3189 10.8466 41.9851 11.4375 41.7675 12.0742L36.2452 26.4343L35.1136 29.3425C34.8088 30.2282 34.3012 31.0304 33.6312 31.685C33.2891 31.9983 32.8783 32.227 32.4317 32.3526C31.9758 32.4859 31.5035 32.5545 31.0285 32.5563C30.4332 32.5843 29.8487 32.3908 29.3877 32.0131C29.1736 31.8347 29.0039 31.6089 28.8919 31.3536C28.78 31.0983 28.7289 30.8205 28.7427 30.542C28.7322 30.3062 28.7689 30.0707 28.8505 29.8492C28.9321 29.6277 29.057 29.4247 29.218 29.252C29.3883 29.0837 29.5923 28.9533 29.8166 28.8695C30.0409 28.7856 30.2803 28.7502 30.5193 28.7654C30.9587 28.7544 31.3865 28.9078 31.7188 29.1954C31.8787 29.3362 32.0053 29.5108 32.0895 29.7065C32.1736 29.9022 32.2132 30.1141 32.2054 30.327C32.2176 30.6403 32.1386 30.9504 31.9778 31.2196C31.8171 31.4888 31.5817 31.7055 31.3001 31.8434H31.5038C32.7373 31.8434 33.6765 30.9834 34.3554 29.2407L35.4871 26.1854L29.4556 11.5877C29.2097 10.9995 28.8207 10.4822 28.324 10.0826C27.9906 9.85337 27.597 9.72742 27.1924 9.7205V9.05286C28.2803 9.19644 29.3768 9.2645 30.474 9.25655C31.6056 9.25655 33.0428 9.18865 34.8307 9.05286V9.76577C34.2395 9.73547 33.6473 9.80042 33.0767 9.95814C32.8885 10.0346 32.7315 10.1722 32.6309 10.3487C32.5303 10.5252 32.4921 10.7304 32.5222 10.9313C32.546 11.4989 32.6806 12.0563 32.9183 12.5721L36.9468 22.5642L40.6585 12.8777C40.8723 12.382 41.0023 11.8543 41.0432 11.3161C41.054 11.091 41.0039 10.8672 40.8984 10.6681C40.7929 10.469 40.6358 10.3019 40.4435 10.1845C39.8464 9.86926 39.1835 9.69871 38.5084 9.68656V9.05286C39.64 9.12075 40.6245 9.1547 41.3148 9.1547C42.3106 9.12452 43.1669 9.09058 43.8836 9.05286Z" fill="white"/>
<path d="M44.3364 25.4498C43.6236 24.6454 43.2576 23.592 43.318 22.5189C43.2875 21.6133 43.5894 20.7278 44.1667 20.0294C44.7023 19.3922 45.3603 18.8688 46.1017 18.4904C47.0631 18.0271 48.0534 17.6264 49.0665 17.2909C50.0291 17.0052 50.9614 16.6262 51.8503 16.1593C52.1187 16.0261 52.3453 15.8216 52.505 15.568C52.6647 15.3145 52.7514 15.0218 52.7556 14.7222V12.5947C52.8116 12.1192 52.7682 11.6372 52.6279 11.1794C52.4876 10.7216 52.2536 10.298 51.9408 9.93547C51.2983 9.42929 50.4946 9.17212 49.6776 9.21124C49.0693 9.14815 48.4546 9.22439 47.8801 9.43418C47.3057 9.64397 46.7865 9.9818 46.362 10.4221C46.8049 10.5281 47.2017 10.7741 47.4936 11.1237C47.7995 11.5002 47.9601 11.974 47.9462 12.459C47.9599 12.7061 47.9183 12.9533 47.8243 13.1823C47.7303 13.4114 47.5864 13.6166 47.4031 13.7829C47.0272 14.1168 46.5361 14.2914 46.0338 14.2695C45.77 14.2901 45.5051 14.2475 45.261 14.1451C45.017 14.0428 44.8009 13.8837 44.6306 13.6811C44.3093 13.281 44.1408 12.7796 44.1554 12.2666C44.138 11.7883 44.2727 11.3169 44.5401 10.92C44.8557 10.4858 45.2376 10.104 45.6717 9.78836C46.302 9.37163 46.9929 9.05481 47.7199 8.84913C48.6037 8.60169 49.518 8.4798 50.4358 8.48701C51.8567 8.40936 53.2547 8.86997 54.3511 9.77705C54.9028 10.2754 55.2962 10.9246 55.4827 11.6442C55.7008 12.5823 55.7997 13.5443 55.7769 14.5072V23.8203C55.7441 24.2368 55.8222 24.6546 56.0033 25.0311C56.0953 25.1549 56.2173 25.2531 56.358 25.3165C56.4986 25.3799 56.653 25.4063 56.8067 25.3932C57.0705 25.3965 57.331 25.3343 57.5649 25.2121C57.8353 25.0659 58.0895 24.8915 58.3231 24.6916L58.6852 25.2574C58.2254 25.6337 57.7242 25.9564 57.1915 26.2193C56.6998 26.4198 56.1719 26.5162 55.6412 26.5022C55.2277 26.5482 54.8092 26.4998 54.4172 26.3606C54.0252 26.2214 53.6698 25.9951 53.3779 25.6987C52.9285 25.0621 52.7054 24.2931 52.7442 23.5147C52.2286 24.4925 51.4431 25.3016 50.481 25.8458C49.5626 26.2961 48.5502 26.5211 47.5275 26.5022C46.9519 26.5553 46.3714 26.4893 45.8224 26.3082C45.2734 26.1271 44.7676 25.8349 44.3364 25.4498ZM52.7329 22.6321V16.0688C52.5238 16.3924 52.2356 16.6572 51.8955 16.8383C51.5334 17.042 50.9903 17.3135 50.2547 17.6417C49.5429 17.9319 48.8544 18.2761 48.1952 18.6715C47.6553 19.0087 47.1926 19.456 46.8373 19.9841C46.4347 20.6267 46.2374 21.3767 46.2715 22.1342C46.2084 22.9561 46.4728 23.7696 47.007 24.3974C47.2575 24.6574 47.5609 24.8607 47.8966 24.9934C48.2324 25.1262 48.5928 25.1853 48.9534 25.1669C49.7511 25.1157 50.521 24.8542 51.1849 24.409C51.8487 23.9638 52.3829 23.3507 52.7329 22.6321Z" fill="white"/>
<path d="M62.9849 23.1527C62.9475 23.4895 62.9783 23.8304 63.0755 24.1551C63.1727 24.4798 63.3343 24.7816 63.5507 25.0424C64.1267 25.4484 64.8298 25.6332 65.531 25.563V26.2646C63.4715 26.174 62.1362 26.1288 61.4799 26.1288C60.8235 26.1288 59.4769 26.1288 57.4287 26.2646V25.563C58.1264 25.6335 58.826 25.4485 59.3977 25.0424C59.6244 24.7866 59.7957 24.4867 59.9008 24.1614C60.006 23.8362 60.0427 23.4928 60.0088 23.1527V4.0172C60.0796 3.2191 59.876 2.4207 59.4317 1.75399C59.1677 1.50392 58.8498 1.31777 58.5026 1.20987C58.1553 1.10196 57.7879 1.07519 57.4287 1.13161V0.37343C58.119 0.37343 58.8093 0.463958 59.4995 0.463958C60.6788 0.49939 61.856 0.34269 62.9849 0V23.1527Z" fill="white"/>
<path d="M5.59036 48.8402C5.55225 49.1796 5.58377 49.5233 5.683 49.8502C5.78223 50.1771 5.94708 50.4803 6.16748 50.7413C6.74134 51.1427 7.43919 51.3272 8.13648 51.2618V51.9634C6.08827 51.8729 4.74166 51.8276 4.08533 51.8276C3.429 51.8276 2.0937 51.8276 0.0341797 51.9634V51.2618C0.734992 51.327 1.43632 51.1426 2.01449 50.7413C2.23065 50.478 2.39204 50.1743 2.4892 49.8478C2.58637 49.5213 2.61733 49.1788 2.58029 48.8402V38.3615C2.64566 37.5654 2.4468 36.77 2.01449 36.0983C1.75631 35.8435 1.44465 35.6494 1.10213 35.53C0.759605 35.4106 0.394802 35.3689 0.0341797 35.408L0.0341797 34.7064C0.747091 34.7743 1.43737 34.8083 2.11633 34.8083C3.29254 34.8408 4.46612 34.6803 5.59036 34.333V48.8402ZM5.36404 26.9662C5.56489 27.1632 5.72443 27.3983 5.83334 27.6577C5.94226 27.9171 5.99836 28.1956 5.99836 28.4769C5.99836 28.7583 5.94226 29.0368 5.83334 29.2962C5.72443 29.5555 5.56489 29.7906 5.36404 29.9876C5.16638 30.1954 4.92853 30.3609 4.66494 30.474C4.40135 30.5871 4.11753 30.6454 3.83072 30.6454C3.5439 30.6454 3.26008 30.5871 2.99649 30.474C2.73291 30.3609 2.49506 30.1954 2.29739 29.9876C2.00275 29.6871 1.80278 29.3067 1.72227 28.8936C1.64177 28.4805 1.68428 28.0529 1.84452 27.6637C2.00477 27.2746 2.2757 26.941 2.62374 26.7044C2.97177 26.4677 3.38161 26.3384 3.80243 26.3325C4.09242 26.3242 4.38099 26.3762 4.64982 26.4853C4.91865 26.5944 5.16186 26.7582 5.36404 26.9662Z" fill="white"/>
<path d="M23.1523 34.7064V35.374C22.6938 35.4221 22.2699 35.6401 21.9641 35.9851C21.5204 36.4945 21.1819 37.0868 20.9683 37.7278L15.48 52.1331H14.9029L8.74697 37.343C8.53833 36.7753 8.20589 36.2612 7.77379 35.838C7.51613 35.5891 7.18026 35.4372 6.82324 35.408V34.7064C7.98502 34.7969 8.96952 34.8422 9.77673 34.8422C11.4968 34.8422 12.9452 34.7969 14.1221 34.7064V35.408C13.5162 35.3835 12.9099 35.4483 12.3228 35.6004C11.9381 35.7135 11.7457 36.0417 11.7457 36.5509C11.7912 37.058 11.9172 37.5546 12.1192 38.022L16.2382 48.2064L19.9272 38.5312C20.1301 38.0253 20.2523 37.4907 20.2894 36.947C20.3063 36.7223 20.2602 36.4973 20.1562 36.2974C20.0523 36.0975 19.8946 35.9305 19.7009 35.8154C19.1101 35.5324 18.466 35.3782 17.8111 35.3627V34.6951C18.9805 34.763 19.9197 34.7969 20.6288 34.7969C21.471 34.8094 22.3132 34.7792 23.1523 34.7064Z" fill="white"/>
<path d="M37.7955 34.7064V35.374C37.3345 35.4246 36.9079 35.6419 36.596 35.9851C36.1605 36.4984 35.8264 37.0898 35.6115 37.7277L30.1232 52.1331L28.9916 55.0413C28.7003 55.9228 28.2084 56.7247 27.5545 57.3837C27.2116 57.7045 26.7962 57.9374 26.3437 58.0627C25.8863 58.1877 25.4146 58.2523 24.9405 58.2551C24.3413 58.2859 23.7522 58.0923 23.2883 57.7119C23.0755 57.5323 22.9068 57.3063 22.7949 57.0513C22.6831 56.7963 22.6312 56.519 22.6433 56.2408C22.6309 56.0048 22.6666 55.7687 22.7484 55.547C22.8301 55.3252 22.956 55.1223 23.1186 54.9508C23.2889 54.7825 23.4929 54.6521 23.7172 54.5682C23.9415 54.4844 24.181 54.4489 24.4199 54.4642C24.8656 54.4443 25.3022 54.5939 25.6421 54.8829C25.802 55.0236 25.9286 55.1982 26.0127 55.3939C26.0969 55.5896 26.1365 55.8016 26.1286 56.0145C26.1401 56.3261 26.0606 56.6344 25.8998 56.9016C25.7391 57.1689 25.504 57.3836 25.2234 57.5195C25.2905 57.5342 25.36 57.5342 25.4271 57.5195C26.6643 57.5195 27.6148 56.6482 28.2787 54.9055L29.4103 51.8615L23.3902 37.343C23.1402 36.7572 22.7519 36.2408 22.2586 35.838C21.9261 35.6053 21.5326 35.4755 21.127 35.4645V34.7629C22.2148 34.9065 23.3113 34.9746 24.4086 34.9666C25.5402 34.9666 26.9774 34.8987 28.7653 34.7629V35.4645C28.1734 35.4367 27.581 35.5055 27.0113 35.6682C26.8231 35.7447 26.6661 35.8823 26.5655 36.0588C26.4649 36.2353 26.4266 36.4405 26.4568 36.6414C26.4809 37.2102 26.6194 37.7683 26.8642 38.2822L30.8814 48.263L34.5931 38.5878C34.8008 38.0947 34.9269 37.5711 34.9665 37.0375C34.9797 36.812 34.9307 36.5873 34.825 36.3877C34.7192 36.1882 34.5607 36.0215 34.3667 35.9059C33.7728 35.6064 33.1193 35.444 32.4543 35.4306V34.7629C33.6425 34.8308 34.5704 34.8648 35.272 34.8648C36.2301 34.8271 37.0713 34.7743 37.7955 34.7064Z" fill="white"/>
<path d="M54.0568 46.6335L53.2194 49.0778C52.416 51.341 51.0694 52.5292 49.1683 52.5292C48.7623 52.5718 48.3523 52.5039 47.9818 52.3326C47.6113 52.1613 47.294 51.8929 47.0635 51.556C46.8583 51.2159 46.7634 50.8206 46.7919 50.4244C46.8515 49.53 47.0422 48.6493 47.3577 47.8104L50.5488 38.2257C50.7276 37.6949 50.8378 37.1435 50.877 36.5848C50.877 35.804 50.5262 35.4532 49.7454 35.4532C49.1634 35.5583 48.6078 35.7774 48.1107 36.0978C47.6135 36.4182 47.1846 36.8337 46.8485 37.3204C45.5665 38.8749 44.4937 40.5907 43.6574 42.4239C42.5481 44.7448 41.6395 47.1564 40.9415 49.6322L40.3983 52.0539H37.4788L41.496 37.6825C41.6223 37.278 41.7021 36.8603 41.7336 36.4377C41.7336 35.8832 41.4847 35.6003 40.9981 35.6003C40.7367 35.6103 40.4814 35.6821 40.2532 35.81C40.025 35.9379 39.8304 36.1181 39.6854 36.3359C39.1445 37.1689 38.7182 38.071 38.418 39.0178L37.9767 40.2626H37.377L38.2143 37.8183C39.0178 35.5551 40.3531 34.3669 42.1976 34.3669C42.4738 34.3386 42.7528 34.3694 43.0162 34.4572C43.2796 34.5449 43.5213 34.6878 43.7253 34.8761C44.0498 35.2908 44.2109 35.8103 44.1779 36.3359C44.1264 37.2558 43.9708 38.1669 43.7139 39.0517L42.5823 43.6461C43.5505 41.0463 44.9381 38.6227 46.6901 36.4717C47.2128 35.841 47.8633 35.3283 48.5986 34.9674C49.334 34.6066 50.1375 34.4057 50.9562 34.3782C52.7668 34.3782 53.6721 35.2156 53.6721 36.8904C53.6449 37.7604 53.4768 38.6203 53.1742 39.4365L49.8246 49.2136C49.6766 49.625 49.5889 50.0557 49.5644 50.4923C49.5493 50.6013 49.5598 50.7123 49.5949 50.8166C49.6299 50.921 49.6887 51.0157 49.7665 51.0936C49.8443 51.1714 49.9391 51.2301 50.0434 51.2652C50.1477 51.3003 50.2588 51.3107 50.3678 51.2957C50.626 51.2747 50.8762 51.1955 51.0996 51.0642C51.323 50.933 51.5138 50.7529 51.6578 50.5375C52.2224 49.723 52.6576 48.8259 52.9478 47.8783L53.3779 46.6335H54.0568Z" fill="white"/>
<path d="M68.9713 46.5995H69.605L68.7676 49.0438C68.4536 50.0738 67.8625 50.9977 67.0589 51.7144C66.4618 52.2254 65.7059 52.5133 64.9201 52.5292C64.5307 52.5401 64.1438 52.4628 63.7885 52.3028C63.4901 52.1575 63.2361 51.9347 63.053 51.6578C62.8499 51.3155 62.7443 50.9242 62.7475 50.5262C62.7569 49.99 62.8368 49.4574 62.9851 48.942L63.2906 47.8104L63.8904 45.4C63.1294 47.3929 62.0223 49.2355 60.62 50.8431C60.1871 51.3439 59.657 51.7517 59.0617 52.0415C58.4665 52.3313 57.8186 52.4972 57.1573 52.5292C56.7032 52.5527 56.2505 52.4613 55.8411 52.2635C55.4317 52.0657 55.0787 51.7679 54.8149 51.3976C54.2339 50.5258 53.9482 49.4904 54.0001 48.4441C54.0845 46.3545 54.5887 44.3032 55.4826 42.4126C56.3691 40.3104 57.6392 38.3917 59.2282 36.7546C59.8134 36.0686 60.5309 35.5077 61.3378 35.1052C62.1446 34.7028 63.0243 34.4671 63.9243 34.4121C64.2045 34.4019 64.4832 34.4569 64.7385 34.5728C64.9937 34.6887 65.2186 34.8622 65.3954 35.0798C65.8115 35.6193 66.0453 36.2772 66.0631 36.9583L66.6062 34.8761C67.6482 34.8575 68.6831 34.7015 69.6842 34.4121L65.4973 49.2136L65.3615 49.7341C65.2967 49.9702 65.2625 50.2136 65.2596 50.4583C65.2596 51.0128 65.5086 51.2957 65.9952 51.2957C66.9759 51.2957 67.8359 50.1641 68.5752 47.9009L68.9713 46.5995ZM60.3937 49.9944C61.402 48.8266 62.261 47.538 62.9511 46.1582C63.8036 44.5275 64.4971 42.8184 65.022 41.0547L65.667 38.7009C65.6816 38.4522 65.6816 38.2028 65.667 37.9541C65.7018 37.203 65.5337 36.4564 65.1804 35.7927C65.0456 35.5521 64.8482 35.3525 64.6091 35.215C64.3701 35.0775 64.0982 35.0074 63.8225 35.0119C62.8606 35.0119 61.8422 35.7474 60.7785 37.2751C59.6034 38.9565 58.6914 40.8072 58.0739 42.7634C57.3692 44.7415 56.9871 46.82 56.9423 48.9193C56.9004 49.5901 57.0046 50.2619 57.2479 50.8883C57.3129 51.0673 57.4313 51.2219 57.5872 51.3312C57.7431 51.4405 57.9288 51.4992 58.1192 51.4994C59.037 51.3093 59.8492 50.7799 60.3937 50.017V49.9944Z" fill="white"/>
<path d="M74.7991 36.4489C74.7991 35.8945 74.5502 35.6116 74.0636 35.6116C73.7876 35.6256 73.5191 35.706 73.2807 35.8459C73.0424 35.9857 72.8412 36.1809 72.6943 36.415C72.1513 37.2242 71.7211 38.1036 71.4156 39.029L70.9517 40.2738H70.3066L71.178 37.8295C71.4797 36.7681 72.1095 35.8293 72.9772 35.1476C73.6616 34.6503 74.4851 34.3811 75.331 34.3781C76.8134 34.3781 77.5942 35.0797 77.5942 36.4829C77.5425 37.372 77.3357 38.2451 76.9831 39.063L73.4072 49.2474C73.2539 49.6461 73.1623 50.0658 73.1357 50.4922C73.1172 50.6033 73.1249 50.7173 73.1582 50.8249C73.1915 50.9325 73.2495 51.0309 73.3275 51.1122C73.4055 51.1935 73.5014 51.2555 73.6076 51.2932C73.7138 51.331 73.8273 51.3434 73.9391 51.3296C74.2009 51.3114 74.4549 51.2324 74.6808 51.0988C74.9068 50.9653 75.0984 50.7808 75.2404 50.5601C75.7963 49.7412 76.238 48.8503 76.5531 47.9121L77.0171 46.6673H77.6621L76.7907 49.1116C76.4737 50.1478 75.86 51.0684 75.0254 51.7596C74.3514 52.2806 73.5236 52.5632 72.6717 52.563C71.0988 52.563 70.318 51.884 70.318 50.5261C70.3732 49.6157 70.5798 48.7208 70.929 47.8782L74.5049 37.6937C74.6648 37.2959 74.764 36.8763 74.7991 36.4489ZM76.2928 27.3961C76.5087 27.1526 76.7735 26.9572 77.0698 26.8227C77.3661 26.6882 77.6875 26.6175 78.0129 26.6153C78.2452 26.6133 78.4753 26.6608 78.6879 26.7544C78.9006 26.848 79.0909 26.9858 79.2463 27.1585C79.5551 27.4984 79.7212 27.9441 79.7103 28.4032C79.6748 29.0539 79.3995 29.6683 78.9377 30.128C78.4759 30.5877 77.8602 30.8602 77.2094 30.8928C76.9867 30.8993 76.765 30.8594 76.5585 30.7756C76.352 30.6918 76.1652 30.566 76.0099 30.4062C75.8531 30.2445 75.7303 30.0531 75.6486 29.8432C75.567 29.6333 75.5282 29.4092 75.5347 29.184C75.5346 28.8487 75.6016 28.5168 75.7318 28.2077C75.862 27.8987 76.0528 27.6189 76.2928 27.3848V27.3961Z" fill="white"/>
<path d="M80.5586 50.3904C80.5586 50.9902 80.8188 51.2957 81.3281 51.2957C81.5932 51.2849 81.8516 51.2091 82.0805 51.0749C82.3094 50.9407 82.5018 50.7523 82.6407 50.5262C83.1827 49.7075 83.6056 48.8159 83.8968 47.8783L84.3381 46.6335H84.9039L84.0665 49.0778C83.2857 51.341 81.9504 52.5292 80.0493 52.5292C78.5405 52.5292 77.7861 51.8049 77.7861 50.3565C77.8322 49.5026 77.9881 48.6583 78.2501 47.8443L83.7157 29.7386C83.8047 29.4327 83.8579 29.1175 83.8742 28.7994C83.8873 28.6047 83.8455 28.4102 83.7535 28.2381C83.6614 28.0661 83.5229 27.9233 83.3536 27.8262C82.8003 27.5913 82.1993 27.4904 81.5996 27.532L81.8373 26.8304C82.915 26.82 83.9885 26.6948 85.0397 26.457C85.9961 26.2296 86.9227 25.8916 87.8008 25.4498L80.7962 49.2136C80.6638 49.5932 80.5838 49.9891 80.5586 50.3904Z" fill="white"/>
<path d="M87.2472 51.7936C87.5385 51.845 87.8342 51.8677 88.1299 51.8615C88.5773 51.873 89.0226 51.796 89.4402 51.6348C89.8577 51.4736 90.2392 51.2314 90.5628 50.9222C90.8895 50.5877 91.142 50.188 91.3039 49.7493C91.4657 49.3106 91.5332 48.8427 91.5021 48.3761C91.5055 47.6593 91.371 46.9486 91.106 46.2826C90.7538 45.4536 90.3016 44.6708 89.7594 43.9515C89.1448 43.154 88.5925 42.3103 88.1073 41.428C87.7437 40.706 87.5648 39.9051 87.5867 39.0969C87.5878 38.2346 87.8351 37.3905 88.2996 36.664C88.7663 35.9421 89.4192 35.3596 90.1894 34.9779C90.9967 34.5731 91.8891 34.3675 92.7921 34.3781C93.8004 34.3442 94.8009 34.5661 95.7003 35.0232C96.0839 35.2545 96.3939 35.59 96.5943 35.9907C96.7946 36.3914 96.877 36.8407 96.8319 37.2864C96.8191 37.6934 96.6851 38.0874 96.4472 38.418C96.3208 38.5992 96.151 38.746 95.9533 38.8448C95.7557 38.9436 95.5364 38.9914 95.3156 38.9838C95.1366 38.9875 94.9589 38.9542 94.7934 38.886C94.6279 38.8179 94.4782 38.7163 94.3537 38.5877C94.1007 38.314 93.9629 37.9533 93.969 37.5806C94.0177 36.7418 94.3487 35.9442 94.9082 35.3174C94.3974 35.0328 93.8176 34.8957 93.2334 34.9213C92.8446 34.9093 92.4576 34.9786 92.0971 35.1248C91.7367 35.2709 91.4107 35.4907 91.14 35.77C90.572 36.4095 90.2793 37.2471 90.3252 38.1011C90.3186 38.62 90.4268 39.134 90.6421 39.6062C90.986 40.2335 91.3637 40.8417 91.7737 41.428L92.3734 42.2994C92.9414 43.1406 93.4409 44.0261 93.8671 44.9473C94.1874 45.6589 94.3532 46.4302 94.3537 47.2106C94.3679 48.1748 94.092 49.121 93.5616 49.9264C93.0432 50.7317 92.3157 51.381 91.4568 51.8049C90.5703 52.2549 89.588 52.484 88.5939 52.4725C87.467 52.5114 86.3523 52.2288 85.3801 51.6578C84.9564 51.3977 84.6108 51.0281 84.3798 50.5879C84.1487 50.1477 84.0408 49.6533 84.0674 49.1569C84.0645 48.7857 84.1751 48.4225 84.3843 48.1158C84.4972 47.9603 84.6479 47.8361 84.8221 47.7549C84.9963 47.6737 85.1884 47.6383 85.3801 47.6519C85.6061 47.6347 85.8324 47.6819 86.0326 47.7881C86.2329 47.8942 86.399 48.055 86.5117 48.2516C86.7605 48.7244 86.8704 49.258 86.8285 49.7906C86.8024 50.3775 86.7229 50.9608 86.5909 51.5333C86.7974 51.6482 87.0181 51.7357 87.2472 51.7936Z" fill="white"/>
<path d="M98.1439 51.8502C99.1689 51.8502 99.9997 51.0193 99.9997 49.9944C99.9997 48.9694 99.1689 48.1385 98.1439 48.1385C97.119 48.1385 96.2881 48.9694 96.2881 49.9944C96.2881 51.0193 97.119 51.8502 98.1439 51.8502Z" fill="white"/>
</g>
<defs>
<clipPath id="clip0">
<rect width="100" height="58.2585" fill="white"/>
</clipPath>
</defs>
</svg>
