<svg width="100" height="54" viewBox="0 0 100 54" fill="none" xmlns="http://www.w3.org/2000/svg">
<rect width="100" height="54" fill="#E5E5E5"/>
<g clip-path="url(#clip0)">
<rect width="1440" height="6086" transform="translate(-852 -1482)" fill="white"/>
<path d="M-852 -1337H588V71.9895L680 902C680 902 164 630 -218 892C-600 1154 -852 666 -852 666V71.9895V-1337Z" fill="#121214"/>
<rect x="-33" y="-32" width="166" height="118" rx="16" fill="#1B1B1E"/>
<g clip-path="url(#clip1)">
<path d="M57.6195 18.1124C57.6217 17.5233 57.5474 16.9364 57.3984 16.3664H52.8455C53.2571 16.8514 53.4633 17.4778 53.4201 18.1124C53.4201 20.5658 51.453 20.5658 50.1932 20.5658H42.7228V16.3664H38.5234V28.4561H42.7228V24.091H49.497L52.1382 28.4561H57.078L54.0721 23.6048C55.1659 23.1787 56.0975 22.4185 56.7343 21.4325C57.3712 20.4464 57.6809 19.2847 57.6195 18.1124Z" fill="white"/>
<path d="M38.4906 14.6535V5.216L48.6243 14.5319C48.6243 14.5319 38.4243 14.5872 38.4906 14.6535Z" fill="white"/>
<path d="M49.729 14.5872L43.8057 8.97334L47.8061 4.9729L57.3652 14.532L49.729 14.5872Z" fill="white"/>
<path d="M57.3651 13.6368V5.39282L53.1768 9.33801L57.3651 13.6368Z" fill="white"/>
<path d="M49.8793 1.84415L48.0352 0L46.191 1.84415L48.0352 3.6883L49.8793 1.84415Z" fill="white"/>
<path d="M13.9794 53.9618C12.4359 53.9333 10.917 53.5697 9.52784 52.8961C8.13872 52.2225 6.91259 51.2551 5.93436 50.0608L5.52547 49.6298C4.87347 48.8562 4.42038 48.2595 3.76837 48.2595H3.60261V47.9611H4.42038C4.87642 47.9668 5.3285 47.8758 5.74679 47.694C6.16509 47.5122 6.5401 47.2439 6.8471 46.9066C7.1541 46.5693 7.38612 46.1708 7.52785 45.7373C7.66958 45.3038 7.71781 44.8451 7.66936 44.3916C7.69352 43.4988 7.36692 42.6321 6.75957 41.9772C6.15223 41.3224 5.31249 40.9315 4.42038 40.8885H2.59697C2.70525 41.0116 2.7875 41.1554 2.83877 41.3111C2.89005 41.4668 2.90929 41.6313 2.89535 41.7947V51.9394C2.89535 52.7793 2.99481 52.8677 3.83468 52.8677H4.84031V53.0445H0V52.8898H0.607802C1.44767 52.8898 1.53608 52.8014 1.53608 51.9615V41.6068C1.53608 40.7669 1.44767 40.6896 0.607802 40.6896H0V40.5238H4.54194C7.32678 40.5238 9.17229 42.0709 9.17229 44.3916C9.14614 45.3611 8.75677 46.2853 8.08134 46.9812C7.40591 47.6771 6.4937 48.0939 5.52547 48.149H5.18289V48.2484C5.9403 48.3949 6.61489 48.8209 7.07261 49.4419C9.75799 52.4257 12.5981 53.4203 14.8746 53.4203C16.8822 53.3878 18.8235 52.6967 20.4 51.4532L20.4995 51.5747C18.6712 53.1068 16.3647 53.9512 13.9794 53.9618Z" fill="white"/>
<path d="M11.3271 46.9555C11.3984 45.7494 11.9439 44.6205 12.8445 43.8151C13.7452 43.0097 14.9278 42.5933 16.1343 42.6567C18.9965 42.6567 20.9083 44.3696 20.9083 46.9555C20.8426 48.1586 20.3038 49.2869 19.4095 50.0942C18.5151 50.9016 17.3378 51.3226 16.1343 51.2654C13.2611 51.2654 11.3271 49.5414 11.3271 46.9555ZM19.3943 47.287C19.3943 44.9 17.9025 42.9661 16.0791 42.9661C14.2556 42.9661 12.8522 44.4359 12.8522 46.635C12.8522 49.022 14.3551 50.956 16.1675 50.956C17.9798 50.956 19.3943 49.4862 19.3943 47.287Z" fill="white"/>
<path d="M23.3397 52.8898H24.8427C25.6715 52.8898 25.7599 52.8014 25.7599 51.9615V47.1433L23.0303 41.883C22.6104 41.0874 22.3894 40.6674 21.9252 40.6674H21.5605V40.5238H24.8758V40.6674H23.7707C23.9918 40.7558 24.2017 41.1205 24.489 41.6399L26.6992 45.9277C26.7967 46.1014 26.871 46.2872 26.9203 46.4802H27.0418C27.1045 46.2902 27.1821 46.1054 27.2739 45.9277L29.3625 41.883C29.5029 41.6509 29.5897 41.3904 29.6167 41.1205C29.6167 40.8332 29.4178 40.6343 28.8763 40.6343H27.8264V40.4906H31.1417V40.6343H30.8433C30.346 40.6343 30.1471 40.9768 29.683 41.872L27.1081 46.8449V51.9394C27.1081 52.7793 27.1965 52.8677 28.0253 52.8677H29.3183V53.0445H23.3397V52.8898Z" fill="white"/>
<path d="M31.1748 52.8899H31.4511C31.8931 52.8899 32.1473 52.4036 32.4125 51.7848L37.297 40.5018H38.6784V40.7117C38.6753 41.0567 38.7275 41.4 38.8331 41.7284L42.9441 51.7848C43.2866 52.6247 43.3972 52.8899 43.9718 52.8899H44.1044V53.0446H40.7891V52.8899H42.1263C41.8942 52.8015 41.7064 52.3594 41.5848 52.0721L40.6123 49.6851H33.6834L32.744 51.8953C32.6855 52.0197 32.6553 52.1556 32.6556 52.2931C32.6556 52.702 32.9651 52.9783 33.4955 52.9783H34.3464V53.0446H31.1748V52.8899ZM40.4576 49.3425L37.4959 42.0821C37.3993 41.8628 37.3503 41.6255 37.3523 41.3858H37.1976C37.1644 41.6275 37.0936 41.8624 36.9876 42.0821L33.816 49.3425H40.4576Z" fill="white"/>
<path d="M46.6348 52.8898H47.2426C48.0824 52.8898 48.1598 52.6798 48.1598 51.7847V41.5847C48.1598 40.7559 48.0824 40.6896 47.2426 40.6896H46.6348V40.5238H51.0551V40.6896H50.4473C49.6185 40.6896 49.508 40.7559 49.508 41.5847V51.8068C49.5085 51.9752 49.4756 52.1421 49.4111 52.2976C49.3466 52.4532 49.2518 52.5944 49.1323 52.713H51.4751C53.1548 52.713 54.2599 52.3815 54.4036 50.7128L54.5472 48.9667H54.8898L54.5472 53.9065H54.3704L54.4367 52.8788C54.3152 53.0003 54.2378 53.0335 53.9615 53.0335H46.6348V52.8898Z" fill="white"/>
<path d="M64.4053 52.8898H65.0131C65.853 52.8898 65.9414 52.8235 65.9414 51.9836V41.5847C65.9414 40.7559 65.853 40.6896 65.0131 40.6896H64.4053V40.5238H68.8257V40.7227H68.2179C67.378 40.7227 67.2785 40.789 67.2785 41.6289V51.9394C67.2785 52.7793 67.378 52.8456 68.2179 52.8456H68.8257V53.0445H64.4053V52.8898Z" fill="white"/>
<path d="M74.8366 40.5238V40.6895H73.4884C73.7315 40.7779 73.9304 41.1868 74.0298 41.4852L78.0303 51.1879C78.1159 51.3836 78.1646 51.5934 78.174 51.8068H78.4613C78.4691 51.5659 78.5255 51.3291 78.627 51.1106L82.528 41.7283C82.6007 41.5799 82.6421 41.4182 82.6496 41.2531C82.6496 40.8884 82.3954 40.6564 81.7987 40.6564H80.2405V40.4906H84.042V40.6564H83.832C83.2795 40.6564 83.1358 40.9658 82.8264 41.7615L78.2292 53.1329L77.2899 53.1992L72.6706 41.7615C72.3501 40.9768 72.2175 40.6564 71.6428 40.6564H71.3887V40.4906L74.8366 40.5238Z" fill="white"/>
<path d="M88.2746 52.8898H89.7665C90.6064 52.8898 90.6837 52.8014 90.6837 51.9615V47.1433L87.9541 41.883C87.5342 41.0874 87.3132 40.6674 86.8491 40.6674H86.4844V40.5238H89.7997V40.6674H88.6946C88.9266 40.7558 89.1366 41.1205 89.4129 41.6399L91.6231 45.9277C91.7205 46.1014 91.7948 46.2872 91.8441 46.4802H91.9767C92.0298 46.2885 92.104 46.1032 92.1977 45.9277L94.2863 41.883C94.4267 41.6509 94.5136 41.3904 94.5405 41.1205C94.5405 40.8332 94.3526 40.6343 93.8001 40.6343H92.695V40.4906H96.0103V40.6343H95.8114C95.303 40.6343 95.1041 40.9768 94.64 41.872L92.0651 46.8449V51.9394C92.0651 52.7793 92.1535 52.8677 92.9823 52.8677H94.2753V53.0445H88.2746V52.8898Z" fill="white"/>
<path d="M98.3531 52.05L97.9885 51.2543H97.7011V52.0279H97.248V49.9282H98.099C98.1955 49.9215 98.2924 49.9348 98.3837 49.9671C98.4749 49.9994 98.5586 50.0501 98.6294 50.116C98.6986 50.1738 98.7536 50.2467 98.79 50.3291C98.8264 50.4115 98.8433 50.5012 98.8394 50.5912C98.8418 50.7214 98.8031 50.849 98.7289 50.9559C98.6609 51.0581 98.565 51.1387 98.4526 51.188L98.8725 52.0389H98.3531V52.05ZM98.2316 50.7681C98.259 50.7426 98.281 50.7119 98.2962 50.6777C98.3114 50.6435 98.3195 50.6066 98.32 50.5691C98.3209 50.5331 98.3133 50.4974 98.298 50.4648C98.2826 50.4322 98.2599 50.4036 98.2316 50.3813C98.2039 50.3544 98.1709 50.3337 98.1348 50.3204C98.0986 50.3071 98.0601 50.3015 98.0216 50.3039H97.6459V50.8344H98.0437C98.1193 50.8378 98.1937 50.8143 98.2537 50.7681H98.2316Z" fill="white"/>
<path d="M98.011 52.9561C97.6203 52.9539 97.2389 52.836 96.9151 52.6173C96.5912 52.3987 96.3394 52.089 96.1914 51.7273C96.0433 51.3657 96.0057 50.9683 96.0833 50.5853C96.1609 50.2023 96.3501 49.8509 96.6272 49.5754C96.9043 49.2998 97.2568 49.1125 97.6402 49.0371C98.0236 48.9617 98.4208 49.0015 98.7816 49.1515C99.1424 49.3015 99.4507 49.5551 99.6676 49.8801C99.8844 50.2052 100 50.5872 100 50.978C100 51.2387 99.9487 51.4968 99.8486 51.7375C99.7485 51.9782 99.6018 52.1968 99.4169 52.3806C99.232 52.5645 99.0127 52.7099 98.7714 52.8087C98.5301 52.9074 98.2717 52.9575 98.011 52.9561ZM98.011 49.2651C97.6696 49.2651 97.3358 49.3665 97.0521 49.5564C96.7684 49.7463 96.5474 50.0162 96.4173 50.3319C96.2871 50.6475 96.2536 50.9947 96.321 51.3294C96.3885 51.6641 96.5538 51.9713 96.796 52.2119C97.0382 52.4526 97.3464 52.6159 97.6815 52.6812C98.0167 52.7464 98.3636 52.7107 98.6784 52.5785C98.9932 52.4464 99.2617 52.2237 99.4498 51.9387C99.6379 51.6538 99.7372 51.3194 99.735 50.978C99.735 50.7521 99.6903 50.5284 99.6035 50.3199C99.5168 50.1114 99.3896 49.922 99.2294 49.7628C99.0691 49.6036 98.879 49.4777 98.6699 49.3923C98.4608 49.3068 98.2369 49.2636 98.011 49.2651Z" fill="white"/>
</g>
</g>
<defs>
<clipPath id="clip0">
<rect width="1440" height="6086" fill="white" transform="translate(-852 -1482)"/>
</clipPath>
<clipPath id="clip1">
<rect width="100" height="53.9618" fill="white"/>
</clipPath>
</defs>
</svg>
