<svg width="100" height="70" viewBox="0 0 100 70" fill="none" xmlns="http://www.w3.org/2000/svg">
<g clip-path="url(#clip0)">
<path d="M15.1153 11.167C15.4402 11.4423 15.7009 11.7854 15.879 12.1722C16.0572 12.5589 16.1485 12.98 16.1465 13.4058C16.1607 14.0585 15.9391 14.6944 15.5224 15.1969C15.1242 15.6404 14.5664 15.908 13.9713 15.9411C13.3762 15.9741 12.7922 15.77 12.3474 15.3733C12.137 15.1822 11.9718 14.9467 11.8639 14.6838C11.7559 14.421 11.7078 14.1374 11.7232 13.8536C11.7323 13.403 11.8633 12.9632 12.1022 12.581C12.3411 12.1987 12.679 11.8883 13.0801 11.6826C12.9825 11.5458 12.8514 11.4365 12.6992 11.3652C12.5471 11.2939 12.3792 11.263 12.2117 11.2756C11.136 11.2945 10.1116 11.7384 9.36228 12.5103C8.48936 13.3521 7.80491 14.3696 7.35414 15.4954C6.90322 16.5518 6.6591 17.6849 6.63501 18.8332V27.3407C6.5912 27.8179 6.66902 28.2984 6.86122 28.7374C7.05341 29.1763 7.3537 29.5594 7.73406 29.8509C8.70068 30.4061 9.81064 30.6611 10.9227 30.5836V31.4248H9.9593C7.24559 31.3434 5.48168 31.3027 4.73541 31.3027C3.98915 31.3027 2.4559 31.3027 0 31.4655V30.6243C0.840309 30.7024 1.68123 30.4814 2.37449 30.0001C2.63395 29.6874 2.82773 29.3255 2.94429 28.9362C3.06085 28.5469 3.0978 28.1381 3.05292 27.7342V15.1697C3.13232 14.2151 2.8938 13.261 2.37449 12.456C2.0637 12.153 1.68946 11.9227 1.27882 11.7819C0.868171 11.6411 0.431378 11.5933 0 11.6419L0 10.855C0.85934 10.9364 1.68702 10.9771 2.48304 10.9771C3.89786 11.0169 5.30963 10.8244 6.66214 10.4072V15.4275C7.1482 14.0616 7.93673 12.8231 8.96879 11.8048C9.41883 11.3198 9.96195 10.9305 10.5657 10.6601C11.1695 10.3897 11.8216 10.2437 12.483 10.2308C13.4484 10.1916 14.3915 10.5271 15.1153 11.167Z" fill="white"/>
<path d="M31.099 12.9444C32.7634 14.7535 33.6001 17.4898 33.6091 21.1533C33.6182 24.8168 32.7815 27.5305 31.099 29.2944C30.2546 30.1916 29.2282 30.8978 28.0885 31.3659C26.9488 31.8339 25.7223 32.0529 24.4911 32.0081C23.2597 32.0547 22.0326 31.8365 20.8927 31.3684C19.7528 30.9002 18.7265 30.193 17.8832 29.2944C16.2098 27.4853 15.373 24.7716 15.373 21.1533C15.373 17.535 16.2098 14.7987 17.8832 12.9444C18.7254 12.0444 19.7515 11.3362 20.8917 10.868C22.0318 10.3997 23.2594 10.1824 24.4911 10.2307C25.7225 10.1841 26.9496 10.4023 28.0895 10.8704C29.2294 11.3386 30.2557 12.0458 31.099 12.9444ZM20.6783 13.5685C19.605 15.9646 19.139 18.5884 19.3215 21.2076C19.1373 23.8269 19.6034 26.4511 20.6783 28.8467C21.0125 29.5772 21.5495 30.1964 22.2254 30.6305C22.9013 31.0646 23.6878 31.2954 24.4911 31.2954C25.2944 31.2954 26.0808 31.0646 26.7568 30.6305C27.4327 30.1964 27.9697 29.5772 28.3039 28.8467C29.3788 26.4511 29.8449 23.8269 29.6607 21.2076C29.8432 18.5884 29.3772 15.9646 28.3039 13.5685C27.9739 12.8333 27.4385 12.2092 26.762 11.7713C26.0855 11.3335 25.2969 11.1005 24.4911 11.1005C23.6853 11.1005 22.8966 11.3335 22.2202 11.7713C21.5437 12.2092 21.0083 12.8333 20.6783 13.5685Z" fill="white"/>
<path d="M52.5509 10.8548V11.6553C52.0301 11.7341 51.5516 11.9877 51.194 12.3745C50.6778 12.9941 50.2779 13.702 50.0136 14.464L43.4193 31.6825L42.0624 35.1696C41.701 36.2407 41.0867 37.2088 40.2714 37.9918C39.8595 38.3724 39.3612 38.6471 38.8195 38.7924C38.2731 38.9531 37.7066 39.0353 37.137 39.0366C36.4262 39.0653 35.7285 38.8391 35.1696 38.3989C34.9185 38.1809 34.7198 37.9091 34.5882 37.6037C34.4567 37.2983 34.3957 36.9672 34.4098 36.635C34.3962 36.3532 34.4383 36.0716 34.5338 35.8061C34.6292 35.5407 34.7762 35.2967 34.9661 35.0882C35.1729 34.886 35.4199 34.7296 35.691 34.6291C35.9622 34.5286 36.2514 34.4862 36.54 34.5047C37.0738 34.4849 37.596 34.6638 38.0054 35.0068C38.1964 35.1761 38.3477 35.3856 38.4486 35.6201C38.5494 35.8546 38.5973 36.1085 38.5889 36.3636C38.5992 36.7367 38.5024 37.1049 38.3101 37.4247C38.1177 37.7445 37.8378 38.0025 37.5034 38.1682C37.5792 38.1861 37.6582 38.1861 37.7341 38.1682C39.2175 38.1682 40.3573 37.1235 41.1533 35.0339L42.5102 31.384L35.2782 13.8941C34.9869 13.1869 34.5199 12.5657 33.9213 12.0895C33.5238 11.8084 33.0513 11.6524 32.5645 11.6418V10.8548C33.8688 11.0276 35.1836 11.1092 36.4993 11.099C37.829 11.099 39.5658 11.0176 41.7096 10.8548V11.696C41 11.6636 40.2898 11.7461 39.6065 11.9403C39.3808 12.032 39.1926 12.1969 39.072 12.4086C38.9514 12.6202 38.9055 12.8663 38.9417 13.1072C38.972 13.789 39.138 14.4578 39.4301 15.0746L44.2469 27.0285L48.6974 15.4274C48.9491 14.837 49.1004 14.2087 49.1452 13.5685C49.161 13.2982 49.1023 13.0287 48.9755 12.7894C48.8487 12.5502 48.6586 12.3503 48.426 12.2116C47.7173 11.8385 46.9335 11.6298 46.133 11.6011V10.8548C47.4898 10.9362 48.6703 10.9769 49.498 10.9769C50.6829 10.9407 51.7006 10.9 52.5509 10.8548Z" fill="white"/>
<path d="M53.0934 30.4884C52.6677 30.0124 52.3405 29.4568 52.1309 28.8536C51.9213 28.2504 51.8334 27.6116 51.8722 26.9742C51.8516 25.8902 52.2225 24.8352 52.917 24.0027C53.5672 23.2413 54.36 22.6144 55.2508 22.1573C56.4025 21.5994 57.5901 21.1189 58.8057 20.7191C59.958 20.3713 61.0755 19.9171 62.1436 19.3622C62.4522 19.1939 62.709 18.9444 62.8859 18.6406C63.0629 18.3369 63.1534 17.9905 63.1477 17.639V15.1017C63.2144 14.5294 63.162 13.9496 62.9939 13.3985C62.8258 12.8475 62.5455 12.3371 62.1707 11.8995C61.3984 11.2975 60.435 10.994 59.457 11.0447C58.7222 10.962 57.9782 11.0486 57.282 11.2979C56.5859 11.5472 55.956 11.9526 55.4408 12.483C55.9725 12.6083 56.4489 12.9036 56.7976 13.3242C57.1697 13.7781 57.3628 14.3524 57.3403 14.9389C57.3566 15.234 57.3079 15.5291 57.1977 15.8034C57.0875 16.0777 56.9185 16.3245 56.7026 16.5264C56.247 16.917 55.6605 17.1206 55.0608 17.0963C54.7439 17.1194 54.426 17.0689 54.1318 16.9489C53.8376 16.8289 53.5751 16.6425 53.3648 16.4043C52.9905 15.9142 52.7942 15.3112 52.8085 14.6946C52.7848 14.1251 52.9467 13.5632 53.2698 13.0936C53.6445 12.5698 54.1029 12.1114 54.6266 11.7367C55.3779 11.2291 56.2077 10.8486 57.0825 10.6105C58.1356 10.3026 59.2283 10.1517 60.3254 10.1628C62.0677 10.0454 63.7881 10.6043 65.1287 11.7231C65.7916 12.3139 66.2639 13.0885 66.4855 13.9484C66.734 15.0752 66.8479 16.2275 66.8247 17.3812V28.4938C66.7903 28.9886 66.8837 29.4839 67.0961 29.9321C67.203 30.085 67.3484 30.207 67.5175 30.2856C67.6867 30.3642 67.8737 30.3968 68.0595 30.3799C68.375 30.3771 68.6858 30.3028 68.9686 30.1628C69.2898 29.9826 69.5941 29.7737 69.8777 29.5386L70.3119 30.217C69.7607 30.6647 69.1597 31.0472 68.5208 31.3568C67.9332 31.6037 67.2988 31.7194 66.6619 31.696C66.167 31.757 65.6647 31.703 65.1941 31.5383C64.7234 31.3736 64.2971 31.1025 63.9482 30.7462C63.3966 29.9884 63.1234 29.0634 63.1748 28.1275C62.5523 29.2967 61.6114 30.2658 60.4611 30.9226C59.3609 31.4499 58.1532 31.7147 56.9333 31.696C56.2446 31.7697 55.5481 31.7005 54.8874 31.4927C54.2267 31.2849 53.6159 30.943 53.0934 30.4884ZM63.1477 27.137V19.2672C62.9029 19.6602 62.5558 19.9792 62.1436 20.1899C61.5052 20.5454 60.8484 20.8669 60.1762 21.1533C59.324 21.504 58.4986 21.9167 57.7067 22.388C57.0606 22.7892 56.5096 23.3263 56.092 23.9619C55.6046 24.731 55.3632 25.6303 55.4 26.54C55.3317 27.5246 55.6479 28.4974 56.282 29.2537C56.5839 29.5634 56.948 29.8057 57.3502 29.9647C57.7524 30.1237 58.1837 30.1958 58.6158 30.1763C59.5723 30.115 60.4955 29.8015 61.2915 29.2676C62.0875 28.7338 62.7279 27.9986 63.1477 27.137Z" fill="white"/>
<path d="M75.4414 27.7476C75.3966 28.1515 75.4335 28.5603 75.5501 28.9496C75.6666 29.3389 75.8604 29.7008 76.1199 30.0136C76.8131 30.4948 77.654 30.7159 78.4943 30.6377V31.479C76.0249 31.3704 74.4238 31.3161 73.6368 31.3161C72.8499 31.3161 71.2352 31.3161 68.7793 31.479V30.6377C69.6154 30.7162 70.4521 30.495 71.1402 30.0136C71.4048 29.7035 71.6028 29.3424 71.7218 28.9525C71.8409 28.5627 71.8784 28.1526 71.8322 27.7476V4.81682C71.9194 3.85968 71.6751 2.90164 71.1402 2.10312C70.8282 1.80913 70.4538 1.58935 70.0451 1.46014C69.6363 1.33092 69.2036 1.29562 68.7793 1.35685V0.434193C69.6025 0.515604 70.4301 0.556309 71.2623 0.556309C72.6763 0.598794 74.0878 0.410902 75.4414 0V27.7476Z" fill="white"/>
<path d="M6.66214 58.5347C6.61648 58.9386 6.65304 59.3476 6.76964 59.737C6.88623 60.1265 7.08044 60.4883 7.34057 60.8006C8.03129 61.2874 8.87427 61.509 9.71506 61.4248V62.266C7.25916 62.1575 5.64451 62.1032 4.85753 62.1032C4.07056 62.1032 2.4559 62.1032 0 62.266V61.4248C0.840795 61.509 1.68377 61.2874 2.37449 60.8006C2.63462 60.4883 2.82883 60.1265 2.94542 59.737C3.06202 59.3476 3.09858 58.9386 3.05292 58.5347V45.9702C3.1365 45.0153 2.89764 44.0598 2.37449 43.2565C2.06538 42.951 1.69136 42.7192 1.28025 42.5782C0.869136 42.4373 0.431531 42.3909 0 42.4424L0 41.5876C0.85934 41.669 1.68702 41.7097 2.48304 41.7097C3.89673 41.7466 5.30731 41.5588 6.66214 41.1534V58.5347ZM6.3772 32.3203C6.62102 32.5534 6.81507 32.8335 6.94765 33.1436C7.08023 33.4538 7.14858 33.7876 7.14858 34.1249C7.14858 34.4622 7.08023 34.796 6.94765 35.1062C6.81507 35.4164 6.62102 35.6964 6.3772 35.9295C6.14141 36.1654 5.85934 36.3498 5.54876 36.4712C5.23817 36.5927 4.9058 36.6485 4.57259 36.6351C4.23068 36.6536 3.88868 36.6004 3.56855 36.4788C3.24843 36.3573 2.95724 36.1702 2.7137 35.9295C2.47329 35.6945 2.28226 35.4138 2.15184 35.1039C2.02142 34.794 1.95423 34.4611 1.95423 34.1249C1.95423 33.7887 2.02142 33.4559 2.15184 33.146C2.28226 32.8361 2.47329 32.5554 2.7137 32.3203C2.94631 32.0767 3.22656 31.8835 3.53701 31.7528C3.84746 31.622 4.18149 31.5566 4.51832 31.5605C4.86454 31.5464 5.20973 31.6069 5.53048 31.738C5.85122 31.8691 6.14 32.0677 6.3772 32.3203Z" fill="white"/>
<path d="M27.7064 41.5876V42.4017C27.1563 42.4477 26.6455 42.7056 26.2817 43.1208C25.7525 43.7337 25.347 44.4433 25.0877 45.2104L18.507 62.4153H17.8285L10.4337 44.6812C10.1875 44.0018 9.79358 43.3854 9.28038 42.8766C8.96011 42.6078 8.55856 42.4548 8.14062 42.4424V41.5876C9.49748 41.6961 10.7051 41.7504 11.6684 41.7504C13.4114 41.7882 15.1551 41.7338 16.8923 41.5876V42.4424C16.162 42.4103 15.4309 42.4834 14.7214 42.6595C14.26 42.8087 14.0429 43.1887 14.0429 43.7992C14.0979 44.4057 14.2443 45.0004 14.4771 45.5632L19.4161 57.7748L23.8123 46.133C24.054 45.5307 24.2005 44.8944 24.2465 44.247C24.2668 43.9776 24.2115 43.7079 24.0868 43.4681C23.9622 43.2284 23.7731 43.0283 23.5409 42.8902C22.8327 42.552 22.0596 42.3715 21.275 42.361V41.5469C22.677 41.6283 23.8032 41.669 24.6535 41.669C25.6719 41.7007 26.6912 41.6735 27.7064 41.5876Z" fill="white"/>
<path d="M45.2511 41.5875V42.4016C44.7009 42.4477 44.1902 42.7055 43.8264 43.1207C43.2972 43.7336 42.8917 44.4432 42.6324 45.2103L36.0516 62.4152L34.6948 65.9023C34.343 66.9652 33.7483 67.9315 32.958 68.7245C32.5478 69.1002 32.0552 69.3744 31.5197 69.5251C30.9681 69.6816 30.3971 69.7592 29.8237 69.7557C29.1223 69.8125 28.424 69.615 27.8562 69.1994C27.6044 68.9821 27.4051 68.7104 27.2735 68.4049C27.1419 68.0993 27.0813 67.7679 27.0964 67.4355C27.0839 67.1528 27.1278 66.8704 27.2257 66.6048C27.3235 66.3392 27.4733 66.0958 27.6663 65.8887C27.8705 65.6869 28.1151 65.5306 28.384 65.43C28.653 65.3295 28.9401 65.287 29.2267 65.3053C29.7604 65.2854 30.2826 65.4643 30.6921 65.8073C30.8838 65.9761 31.0356 66.1854 31.1365 66.4201C31.2374 66.6547 31.2849 66.9089 31.2755 67.1642C31.2875 67.5375 31.1914 67.9064 30.9989 68.2265C30.8063 68.5467 30.5255 68.8044 30.19 68.9688C30.2705 68.9864 30.3538 68.9864 30.4343 68.9688C31.8997 68.9688 33.0394 67.924 33.84 65.848L35.1968 62.1845L27.9784 44.6811C27.6835 43.9759 27.2171 43.3556 26.6215 42.8765C26.2217 42.6016 25.7498 42.4506 25.2646 42.4423V41.5875C26.5691 41.7597 27.8838 41.8413 29.1995 41.8317C30.5564 41.8317 32.2796 41.7503 34.4234 41.5875V42.4423C33.7101 42.4073 32.9957 42.4852 32.3067 42.673C32.085 42.7689 31.9011 42.9351 31.7833 43.1461C31.6656 43.357 31.6207 43.6008 31.6554 43.8399C31.6785 44.5211 31.8401 45.1905 32.1303 45.8073L36.9471 57.7747L41.3976 46.133C41.6357 45.5436 41.7821 44.9213 41.8318 44.2876C41.8447 44.0178 41.7847 43.7494 41.6582 43.5107C41.5316 43.272 41.3432 43.0717 41.1127 42.9308C40.4014 42.5711 39.6166 42.3807 38.8196 42.3745V41.5604C40.2488 41.6418 41.375 41.6825 42.1982 41.6825C43.2168 41.7061 44.2359 41.6744 45.2511 41.5875Z" fill="white"/>
<path d="M46.6209 62.0624C46.9702 62.1241 47.3247 62.1513 47.6793 62.1438C48.2287 62.181 48.7796 62.0987 49.2942 61.9028C49.8088 61.7068 50.2749 61.4017 50.6603 61.0085C51.0458 60.6152 51.3416 60.1432 51.5273 59.6248C51.7131 59.1064 51.7843 58.554 51.7363 58.0054C51.7336 57.1466 51.5726 56.2957 51.2614 55.4952C50.8337 54.5039 50.2918 53.5659 49.6467 52.7001C48.9128 51.7416 48.2507 50.7303 47.6657 49.6743C47.2297 48.8086 47.0153 47.8482 47.0415 46.8792C47.0281 45.8366 47.3205 44.813 47.8828 43.9349C48.4551 43.06 49.2581 42.3603 50.203 41.9131C51.1681 41.4333 52.2324 41.187 53.3102 41.194C54.5255 41.1491 55.7317 41.4202 56.8109 41.981C57.272 42.2572 57.6446 42.6593 57.885 43.14C58.1254 43.6207 58.2234 44.1601 58.1677 44.6947C58.1523 45.1828 57.9917 45.6552 57.7064 46.0515C57.5035 46.3427 57.2117 46.5603 56.8747 46.6715C56.5378 46.7828 56.1738 46.7818 55.8374 46.6686C55.5011 46.5555 55.2105 46.3363 55.0092 46.044C54.808 45.7517 54.707 45.4021 54.7213 45.0475C54.7744 44.0405 55.172 43.0824 55.8475 42.3338C55.238 41.9837 54.5415 41.8143 53.8394 41.8453C53.3718 41.8292 52.9061 41.9129 52.4733 42.0907C52.0405 42.2685 51.6505 42.5364 51.3292 42.8765C50.9894 43.2523 50.7269 43.6914 50.557 44.1686C50.387 44.6459 50.3128 45.1521 50.3387 45.6581C50.3129 46.2877 50.4337 46.9148 50.6915 47.4898C51.0986 48.2451 51.5517 48.9747 52.0483 49.6743L52.7675 50.7191C53.4434 51.731 54.0421 52.7923 54.5585 53.8941C54.9379 54.7488 55.1366 55.6727 55.142 56.6079C55.1524 57.7631 54.822 58.8958 54.1922 59.8643C53.5697 60.8258 52.6973 61.5997 51.6684 62.1031C50.606 62.6459 49.4286 62.9252 48.2356 62.9172C46.8832 62.959 45.5467 62.6155 44.3821 61.9267C43.8752 61.6171 43.4614 61.1762 43.1843 60.6508C42.9073 60.1254 42.7773 59.5348 42.8082 58.9416C42.8089 58.4972 42.9411 58.0628 43.1881 57.6933C43.3498 57.5057 43.5527 57.3581 43.7811 57.2622C44.0094 57.1662 44.2569 57.1245 44.504 57.1403C44.7512 57.156 44.9913 57.2289 45.2056 57.3531C45.4199 57.4773 45.6024 57.6495 45.739 57.8562C46.0441 58.4209 46.1807 59.0614 46.1325 59.7015C46.1011 60.4052 46.0057 61.1046 45.8475 61.791C46.0901 61.9201 46.3509 62.0116 46.6209 62.0624Z" fill="white"/>
<path d="M75.8476 42.6188C76.6665 43.872 77.0525 45.3589 76.9466 46.8522C76.9003 49.2675 76.4129 51.6541 75.5083 53.8942C74.6357 56.3087 73.2465 58.5037 71.4378 60.3257C70.6219 61.1724 69.641 61.8428 68.5558 62.2955C67.4706 62.7483 66.3042 62.9737 65.1284 62.958C64.424 62.9576 63.7368 62.7396 63.161 62.3338C62.5696 61.9092 62.1241 61.312 61.8856 60.6242L60.3523 65.9295C60.2445 66.2393 60.1895 66.5649 60.1895 66.8929C60.1715 67.1994 60.246 67.5042 60.4032 67.7679C60.5605 68.0315 60.7933 68.242 61.0714 68.3718C61.8727 68.7101 62.7401 68.8631 63.6088 68.8196L63.3645 69.6608H62.5233C60.1895 69.5794 58.6834 69.5387 57.9914 69.5387C57.2994 69.5387 55.7797 69.5387 53.5273 69.7015L53.7716 68.8603C54.5077 68.923 55.2436 68.7366 55.8611 68.3311C56.431 67.7911 56.8237 67.0909 56.9873 66.323L64.4907 39.5523C63.7508 41.2392 62.8076 42.8295 61.682 44.2877C60.46 45.8092 59.1314 47.242 57.7064 48.5754L57.2587 48.0598C58.5206 46.825 59.5789 45.726 60.4201 44.7626C61.3599 43.6651 62.2042 42.4895 62.9439 41.2484C63.9122 39.6252 64.7516 37.9284 65.4541 36.1737L65.6169 35.6174C66.8312 35.59 68.0361 35.3983 69.199 35.0475L65.1284 49.6608C66.0134 47.3139 67.2836 45.1311 68.8869 43.2022C69.3683 42.607 69.9702 42.1204 70.6531 41.7743C71.3359 41.4282 72.0842 41.2305 72.8489 41.1941C73.4256 41.1787 73.9978 41.2997 74.5189 41.5473C75.04 41.7948 75.4952 42.162 75.8476 42.6188ZM69.199 59.3623C70.5768 57.3964 71.6262 55.2197 72.3062 52.9173C73.0522 50.6891 73.4548 48.3603 73.5002 46.0109C73.5487 45.1189 73.3762 44.2287 72.9982 43.4193C72.8768 43.1604 72.6854 42.9406 72.4456 42.7848C72.2058 42.6289 71.9272 42.5432 71.6413 42.5374C70.8815 42.5374 70.0131 43.1344 69.009 44.3556C67.8145 45.8756 66.7992 47.5283 65.9832 49.2809C64.9129 51.4724 64.0058 53.74 63.2695 56.0652L62.2248 59.7151C62.4536 60.4278 62.8708 61.0654 63.4324 61.5604C63.9243 61.9425 64.5328 62.1438 65.1556 62.1303C65.9934 61.9999 66.7914 61.6836 67.491 61.2047C68.1907 60.7257 68.7743 60.0962 69.199 59.3623Z" fill="white"/>
<path d="M94.3288 55.8482H95.1022L94.0981 58.779C93.7169 60.0079 93.0087 61.1101 92.0493 61.9676C91.3316 62.5881 90.4198 62.9384 89.4713 62.9581C89.0024 62.9762 88.5363 62.8784 88.1144 62.6731C87.7578 62.5031 87.4533 62.2408 87.2324 61.9133C86.9933 61.501 86.8669 61.033 86.8661 60.5564C86.8775 59.9179 86.9734 59.2838 87.151 58.6704C87.341 57.9784 87.4495 57.5307 87.5038 57.3136L88.2365 54.4235C87.3275 56.8146 85.9996 59.0246 84.3152 60.9499C83.7994 61.5554 83.1647 62.0485 82.4505 62.3986C81.7363 62.7487 80.9578 62.9484 80.1632 62.9852C79.6189 63.0121 79.0766 62.902 78.5859 62.6649C78.0952 62.4279 77.6718 62.0715 77.3546 61.6283C76.6619 60.5868 76.324 59.3495 76.3912 58.1005C76.4673 55.5846 77.0535 53.1104 78.1144 50.8278C79.1774 48.3072 80.7004 46.0066 82.6056 44.0435C83.3073 43.2211 84.1676 42.5485 85.1351 42.0659C86.1026 41.5833 87.1574 41.3007 88.2365 41.2349C88.5717 41.2277 88.9042 41.2959 89.2095 41.4345C89.5148 41.573 89.7851 41.7784 90.0004 42.0354C90.5232 42.6619 90.8406 43.434 90.9095 44.2471L91.5472 41.7505C92.8016 41.7358 94.0481 41.5486 95.2514 41.1942L90.2311 58.9418L90.0683 59.5659C89.9906 59.8444 89.9495 60.1317 89.9461 60.4207C89.9461 61.0992 90.2447 61.4248 90.8281 61.4248C92.0086 61.4248 93.0398 60.068 93.9217 57.3543L94.3288 55.8482ZM84.0574 59.9187C85.2663 58.5185 86.2964 56.9734 87.1239 55.319C88.1294 53.3719 88.9428 51.3315 89.5527 49.2267L90.2854 46.3773V45.4818C90.3273 44.5855 90.1257 43.6946 89.7019 42.9038C89.5432 42.6118 89.3076 42.3689 89.0205 42.2014C88.7334 42.034 88.406 41.9484 88.0737 41.954C86.9204 41.954 85.6992 42.8495 84.4238 44.6677C83.0147 46.6838 81.9212 48.9028 81.1809 51.2484C80.3348 53.6152 79.8766 56.1032 79.824 58.6161C79.7743 59.4248 79.8993 60.2346 80.1904 60.9906C80.2737 61.2005 80.4175 61.3809 80.6035 61.5089C80.7895 61.637 81.0094 61.7069 81.2352 61.7098C81.8133 61.6336 82.3691 61.4374 82.8668 61.1336C83.3646 60.8298 83.7932 60.4252 84.1253 59.9459L84.0574 59.9187Z" fill="white"/>
<path d="M97.775 62.1437C99.004 62.1437 100 61.1474 100 59.9184C100 58.6894 99.004 57.6932 97.775 57.6932C96.5461 57.6932 95.5498 58.6894 95.5498 59.9184C95.5498 61.1474 96.5461 62.1437 97.775 62.1437Z" fill="white"/>
</g>
<defs>
<clipPath id="clip0">
<rect width="100" height="69.7653" fill="white"/>
</clipPath>
</defs>
</svg>
