<svg width="125" height="55" viewBox="0 0 125 55" fill="none" xmlns="http://www.w3.org/2000/svg">
<g clip-path="url(#clip0)">
<path d="M3.03688 38.7266C3.11334 39.4723 3.48243 40.1572 4.06319 40.6312C4.74504 41.1295 5.57699 41.3792 6.42054 41.3387C7.13845 41.3879 7.85252 41.1989 8.45214 40.8011C8.67187 40.646 8.85093 40.4402 8.97411 40.2012C9.09729 39.9621 9.16096 39.6969 9.15969 39.428C9.15697 39.0202 9.00063 38.6284 8.72185 38.3307C8.33601 37.9433 7.84216 37.6814 7.30498 37.5794L4.40296 36.8718C1.57157 36.2256 0.167548 34.7252 0.1909 32.3708C0.166858 31.7065 0.295057 31.0454 0.565694 30.4382C0.844333 29.8618 1.24966 29.3559 1.75137 28.9583C2.2834 28.5274 2.89054 28.1988 3.54216 27.9889C4.25515 27.7571 5.00096 27.6424 5.75064 27.6491C6.54009 27.6417 7.32507 27.7684 8.07209 28.0239C8.742 28.2554 9.36488 28.6054 9.91103 29.0572C10.4437 29.4995 10.8892 30.0373 11.2246 30.6431C11.5646 31.2826 11.7876 31.9777 11.8831 32.6957H8.80591C8.67631 31.9975 8.31764 31.3624 7.78661 30.8909C7.1928 30.4322 6.45447 30.2011 5.7051 30.2394C5.08344 30.214 4.46989 30.3876 3.95373 30.735C3.72406 30.8906 3.53795 31.1022 3.41304 31.3499C3.28814 31.5975 3.22859 31.873 3.24004 32.1501C3.23297 32.3725 3.27497 32.5937 3.36305 32.7981C3.45113 33.0024 3.58314 33.1848 3.74969 33.3323C4.15361 33.6769 4.64263 33.9067 5.16568 33.9978L8.04669 34.7054C9.26455 34.9004 10.3944 35.4608 11.2867 36.3123C11.9741 37.1074 12.329 38.1365 12.278 39.1863C12.2721 39.8348 12.1198 40.4736 11.8323 41.055C11.5508 41.6365 11.1477 42.1508 10.6501 42.5629C10.1024 43.0105 9.47569 43.3515 8.80241 43.5682C8.01323 43.8055 7.19078 43.9131 6.36712 43.887C5.53504 43.8939 4.70723 43.7673 3.9152 43.5122C3.20757 43.2837 2.5461 42.9315 1.96154 42.4719C1.4107 42.0187 0.952762 41.4632 0.612981 40.8361C0.258914 40.1803 0.0498699 39.4561 0 38.7125L3.03688 38.7266Z" fill="white"/>
<path d="M28.7028 43.6609H25.3262L24.0021 39.8526H17.6315L16.3004 43.6609H13.1016L18.9555 27.8986H22.8769L28.7028 43.6609ZM23.0397 37.1274L20.8102 30.8067L18.6158 37.1274H23.0397Z" fill="white"/>
<path d="M30.374 27.8966H41.1546V30.6217H33.5029V34.4301H40.9348V37.1062H33.5029V40.9356H41.1546V43.6607H30.374V27.8966Z" fill="white"/>
<path d="M54.3273 33.771C54.2624 33.0402 53.984 32.3446 53.5268 31.7709C53.0695 31.1971 52.4536 30.7705 51.7557 30.5442C51.0578 30.3178 50.3088 30.3017 49.6018 30.4979C48.8949 30.6941 48.2612 31.0939 47.7798 31.6475C47.0167 32.6038 46.638 33.8103 46.7176 35.0311V36.4962C46.7058 37.1607 46.8013 37.8227 47.0004 38.4568C47.1645 38.9888 47.4341 39.4822 47.7929 39.9078C48.1313 40.2989 48.5553 40.6067 49.032 40.8072C49.5392 41.0159 50.0835 41.1195 50.6319 41.1119C51.5271 41.1322 52.3989 40.8252 53.0838 40.2485C53.7835 39.6052 54.2262 38.73 54.3299 37.7852H57.3309C57.2537 38.6753 57.0139 39.5438 56.6233 40.3474C56.264 41.082 55.7666 41.7405 55.1583 42.2871C54.5524 42.8253 53.8483 43.2416 53.0847 43.513C52.2851 43.8082 51.4387 43.9566 50.5864 43.9509C49.6007 43.9628 48.6221 43.7825 47.7053 43.4202C46.8629 43.0853 46.1008 42.5763 45.4688 41.9263C44.8429 41.267 44.3544 40.4898 44.0318 39.6399C43.6792 38.6815 43.5041 37.667 43.5152 36.6459V34.9252C43.5036 33.9063 43.6787 32.894 44.0318 31.9382C44.3584 31.0791 44.8542 30.2945 45.4899 29.6308C46.1205 28.9793 46.883 28.47 47.7264 28.1368C48.6442 27.774 49.624 27.5938 50.6109 27.6062C51.48 27.5944 52.3438 27.7429 53.1591 28.044C53.9161 28.3255 54.6127 28.7484 55.2117 29.2901C55.8009 29.8478 56.2811 30.5103 56.6277 31.2438C57.0087 32.0387 57.2481 32.8939 57.3353 33.771H54.3273Z" fill="white"/>
<path d="M59.9551 27.8966H70.7427V30.6217H63.0839V34.4301H70.5159V37.1062H63.0839V40.9356H70.7427V43.6607H59.9551V27.8966Z" fill="white"/>
<path d="M73.1068 34.9251C73.0914 33.9041 73.274 32.8897 73.6444 31.9381C73.9835 31.0754 74.4941 30.2904 75.1454 29.6307C75.7971 28.978 76.5784 28.4691 77.4388 28.1368C79.3476 27.4274 81.4478 27.4274 83.3567 28.1368C84.2176 28.4682 84.999 28.9772 85.6501 29.6307C86.2993 30.2907 86.8076 31.0757 87.144 31.9381C87.5169 32.8893 87.7018 33.9036 87.6887 34.9251V36.6099C87.7005 37.6335 87.515 38.6497 87.1423 39.603C86.8077 40.4705 86.2993 41.2605 85.6484 41.9245C84.9952 42.5788 84.2113 43.0879 83.3479 43.4184C81.4391 44.1278 79.3389 44.1278 77.43 43.4184C76.5696 43.086 75.7884 42.5771 75.1366 41.9245C74.48 41.273 73.9623 40.4952 73.6147 39.6381C73.2449 38.6838 73.0623 37.6673 73.077 36.6441L73.1068 34.9251ZM76.2776 36.497C76.2656 37.1632 76.3687 37.8265 76.5824 38.4576C76.7664 38.9914 77.0525 39.4842 77.4248 39.9086C77.7812 40.3044 78.2245 40.6123 78.7199 40.808C79.2539 41.0181 79.8239 41.1216 80.3977 41.1127C80.9646 41.1203 81.5275 41.0168 82.0545 40.808C82.552 40.6123 82.9976 40.3046 83.3567 39.9086C83.7477 39.4922 84.0461 38.9977 84.2324 38.4576C84.446 37.8265 84.5491 37.1632 84.5371 36.497V35.0381C84.6164 33.8034 84.2101 32.5867 83.4048 31.6474C82.603 30.8763 81.5338 30.4456 80.4214 30.4456C79.3089 30.4456 78.2397 30.8763 77.4379 31.6474C76.6305 32.5857 76.2219 33.8026 76.2995 35.0381L76.2776 36.497Z" fill="white"/>
<path d="M1.09069 48.2398C1.09695 48.3123 1.1177 48.3829 1.15169 48.4472C1.18568 48.5116 1.23223 48.5685 1.28859 48.6146C1.42241 48.7092 1.5849 48.7544 1.74833 48.7425C1.88003 48.745 2.00984 48.7107 2.12312 48.6435C2.16415 48.6115 2.19755 48.5708 2.22087 48.5243C2.2442 48.4778 2.25687 48.4267 2.25798 48.3747C2.25812 48.3348 2.25002 48.2953 2.2342 48.2587C2.21838 48.2221 2.19517 48.1891 2.16603 48.1619C2.08991 48.0873 1.99431 48.0357 1.89019 48.013L1.32362 47.8782C0.77106 47.7582 0.502224 47.4604 0.502224 47.0077C0.50087 46.875 0.530874 46.7439 0.589792 46.625C0.640414 46.5112 0.718315 46.4117 0.816595 46.3352C0.921075 46.2529 1.03981 46.1906 1.16687 46.1513C1.3038 46.1053 1.44715 46.0814 1.59158 46.0804C1.74593 46.0792 1.89925 46.1056 2.04431 46.1583C2.17591 46.2011 2.29829 46.2682 2.40509 46.3562C2.51061 46.4415 2.59736 46.5476 2.65992 46.6679C2.73079 46.7893 2.77442 46.9247 2.78777 47.0646H2.20894C2.18624 46.9282 2.11616 46.8042 2.01103 46.7144C1.89641 46.6242 1.75295 46.5788 1.60734 46.5865C1.48708 46.5792 1.36775 46.6115 1.26757 46.6785C1.22286 46.709 1.18647 46.7502 1.1617 46.7984C1.13694 46.8466 1.12456 46.9002 1.12571 46.9543C1.12488 46.998 1.13326 47.0415 1.15031 47.0817C1.16736 47.122 1.19269 47.1583 1.22467 47.1881C1.30421 47.2493 1.39585 47.2929 1.4935 47.316L2.06007 47.4508C2.29696 47.4877 2.51678 47.5965 2.68969 47.7626C2.82249 47.9178 2.89079 48.1181 2.88059 48.3221C2.88081 48.4488 2.85425 48.5742 2.80265 48.6899C2.74528 48.8015 2.66572 48.9001 2.56885 48.9798C2.46205 49.0678 2.33966 49.1349 2.20806 49.1777C2.05652 49.2242 1.89896 49.2481 1.74045 49.2486C1.57895 49.2499 1.41843 49.2235 1.26582 49.1707C1.12327 49.1298 0.990639 49.06 0.876142 48.9658C0.766555 48.8797 0.676926 48.771 0.613436 48.647C0.545428 48.5213 0.505399 48.3824 0.496094 48.2398H1.09069Z" fill="white"/>
<path d="M5.52186 48.1343C5.52666 48.2912 5.50017 48.4475 5.44392 48.594C5.3967 48.7252 5.32173 48.8447 5.22413 48.9443C5.12337 49.0404 5.00423 49.1152 4.87385 49.1641C4.7338 49.2162 4.58546 49.2427 4.43601 49.242C4.28662 49.2419 4.13841 49.2155 3.99816 49.1641C3.86944 49.1145 3.75256 49.0385 3.65511 48.9409C3.55765 48.8433 3.4818 48.7263 3.43247 48.5975C3.38033 48.4499 3.35397 48.2943 3.35453 48.1378V47.897C3.35333 47.7426 3.37972 47.5893 3.43247 47.4442C3.48048 47.3134 3.55536 47.1941 3.65227 47.0939C3.75302 46.9978 3.87217 46.9231 4.00254 46.8742C4.14242 46.8213 4.29088 46.7949 4.44038 46.7962C4.58984 46.7956 4.73818 46.822 4.87823 46.8742C5.00877 46.9207 5.12734 46.9956 5.22533 47.0936C5.32332 47.1916 5.39829 47.3102 5.4448 47.4407C5.50104 47.5873 5.52754 47.7436 5.52273 47.9005L5.52186 48.1343ZM4.95529 47.9276C4.96014 47.7707 4.9127 47.6167 4.82043 47.4898C4.77592 47.4342 4.71851 47.3903 4.6532 47.3619C4.58789 47.3335 4.51665 47.3215 4.44564 47.3269C4.37463 47.3215 4.30338 47.3335 4.23807 47.3619C4.17276 47.3903 4.11536 47.4342 4.07084 47.4898C3.98106 47.6176 3.93611 47.7715 3.94299 47.9276V48.1325C3.93611 48.2886 3.98106 48.4425 4.07084 48.5704C4.11536 48.6259 4.17276 48.6698 4.23807 48.6982C4.30338 48.7266 4.37463 48.7386 4.44564 48.7332C4.51665 48.7386 4.58789 48.7266 4.6532 48.6982C4.71851 48.6698 4.77592 48.6259 4.82043 48.5704C4.9127 48.4434 4.96014 48.2894 4.95529 48.1325V47.9276Z" fill="white"/>
<path d="M6.12988 46.8671H6.71747V48.2831C6.7136 48.4119 6.75937 48.5373 6.84532 48.6334C6.88858 48.6798 6.94127 48.7166 6.99987 48.741C7.05847 48.7655 7.12162 48.7771 7.18509 48.7752C7.24837 48.7758 7.31112 48.7635 7.36952 48.7391C7.42792 48.7148 7.48077 48.6788 7.52485 48.6334C7.56871 48.5866 7.60264 48.5315 7.62462 48.4713C7.64659 48.4111 7.65614 48.3471 7.6527 48.2831V46.8671H8.24029V49.2034H7.65358V48.8427C7.59093 48.9751 7.49308 49.0878 7.37073 49.1684C7.24883 49.2418 7.10933 49.2809 6.96704 49.2814C6.84643 49.2845 6.72668 49.2602 6.61676 49.2104C6.52056 49.1605 6.43609 49.0906 6.36895 49.0055C6.29621 48.9245 6.23866 48.8311 6.19906 48.7297C6.16185 48.6203 6.14263 48.5055 6.14214 48.3899L6.12988 46.8671Z" fill="white"/>
<path d="M9.35797 49.0404C9.30627 48.9856 9.2659 48.921 9.23915 48.8506C9.21241 48.7801 9.19981 48.7051 9.20209 48.6297V47.3766H8.73535V46.867H9.20297V46.1944H9.79056V46.867H10.4035V47.3766H9.79056V48.515C9.78886 48.5404 9.79313 48.5658 9.80301 48.5892C9.8129 48.6126 9.82812 48.6334 9.84747 48.6499C9.8935 48.6804 9.94821 48.6951 10.0033 48.6919H10.407V49.2068H9.83346C9.74748 49.2128 9.66117 49.2014 9.57965 49.1734C9.49813 49.1455 9.42304 49.1014 9.35884 49.0439" fill="white"/>
<path d="M13.0099 49.2022H12.4223V47.7871C12.4255 47.6584 12.3798 47.5332 12.2945 47.4368C12.2483 47.3898 12.1933 47.3524 12.1325 47.3269C12.0718 47.3014 12.0066 47.2883 11.9407 47.2883C11.8748 47.2883 11.8096 47.3014 11.7489 47.3269C11.6881 47.3524 11.6331 47.3898 11.5869 47.4368C11.4997 47.5321 11.4537 47.658 11.4591 47.7871V49.2031H10.9004V45.963H11.488V47.2476C11.5528 47.1186 11.6504 47.0087 11.7708 46.9289C11.8932 46.8499 12.0359 46.8082 12.1815 46.8089C12.2986 46.8072 12.4147 46.8314 12.5213 46.8799C12.6188 46.9248 12.7066 46.9885 12.7795 47.0674C12.8523 47.1463 12.9089 47.2388 12.946 47.3396C12.9889 47.4477 13.0106 47.5631 13.0099 47.6794V49.2022Z" fill="white"/>
<path d="M17.4773 49.2023H16.8188L16.5561 48.4589H15.3249L15.0622 49.2023H14.4404L15.5727 46.1304H16.3302L17.4773 49.2023ZM16.3731 47.9282L15.9414 46.718L15.5096 47.9501L16.3731 47.9282Z" fill="white"/>
<path d="M17.5547 46.8671H18.0223V46.4424C18.0206 46.2907 18.0763 46.144 18.1782 46.0317C18.2424 45.9742 18.3175 45.9301 18.399 45.9021C18.4805 45.8742 18.5668 45.8628 18.6528 45.8688H19.2054V46.3784H18.7675C18.7467 46.3773 18.7259 46.3805 18.7065 46.3879C18.687 46.3953 18.6693 46.4067 18.6546 46.4214C18.6384 46.4396 18.6263 46.461 18.6189 46.4843C18.6115 46.5075 18.609 46.532 18.6116 46.5562V46.868H19.2062V47.3776H18.6055V49.2043H18.0179V47.3767H17.5547V46.8671Z" fill="white"/>
<path d="M20.8245 47.4263C20.7539 47.4263 20.6842 47.4409 20.6196 47.4692C20.5567 47.4934 20.4991 47.5294 20.4497 47.5752C20.4004 47.6266 20.3599 47.6858 20.3297 47.7503C20.3005 47.8272 20.2859 47.9089 20.2868 47.9911V49.2013H19.6992V46.8632H20.2859V47.323C20.3246 47.1861 20.4036 47.064 20.5127 46.9727C20.6203 46.8791 20.76 46.8307 20.9024 46.8378H21.0776V47.4184L20.8245 47.4263Z" fill="white"/>
<path d="M21.8867 46.5558C21.8424 46.5573 21.7983 46.5499 21.757 46.5341C21.7156 46.5183 21.6778 46.4944 21.6458 46.4639C21.6142 46.4337 21.5891 46.3974 21.5721 46.3572C21.5551 46.317 21.5465 46.2737 21.5469 46.23C21.5477 46.14 21.5831 46.0538 21.6458 45.9892C21.6778 45.9587 21.7156 45.9348 21.757 45.919C21.7983 45.9032 21.8424 45.8958 21.8867 45.8973C21.9299 45.8956 21.973 45.9028 22.0132 45.9187C22.0535 45.9345 22.09 45.9585 22.1205 45.9892C22.1816 46.0543 22.2146 46.1408 22.2124 46.23C22.2144 46.2734 22.2073 46.3166 22.1917 46.357C22.176 46.3975 22.1521 46.4342 22.1214 46.4648C22.0908 46.4955 22.0541 46.5194 22.0136 46.5351C21.9732 46.5507 21.93 46.5578 21.8867 46.5558ZM22.1765 49.203H21.5889V46.8667H22.1765V49.203Z" fill="white"/>
<path d="M23.855 49.2594C23.7056 49.26 23.5572 49.2336 23.4172 49.1815C23.2923 49.1318 23.1791 49.057 23.0844 48.9617C22.9883 48.8609 22.9135 48.7418 22.8646 48.6114C22.8091 48.4646 22.7826 48.3085 22.7867 48.1517V47.9108C22.7819 47.7562 22.8084 47.6022 22.8646 47.4581C22.9126 47.3273 22.9875 47.208 23.0844 47.1078C23.1791 47.0125 23.2923 46.9376 23.4172 46.888C23.5572 46.8358 23.7056 46.8094 23.855 46.8101C24.1142 46.7969 24.3683 46.8859 24.5626 47.0579C24.7518 47.2282 24.8706 47.4631 24.8953 47.7164H24.3288C24.3051 47.6076 24.2482 47.5087 24.1659 47.4336C24.0685 47.3568 23.9455 47.32 23.8219 47.3306C23.6983 47.3411 23.5834 47.3983 23.5004 47.4905C23.4106 47.6183 23.3656 47.7723 23.3725 47.9283V48.1333C23.3656 48.2893 23.4106 48.4433 23.5004 48.5711C23.5833 48.6629 23.6976 48.7204 23.8207 48.7322C23.9439 48.744 24.067 48.7094 24.1659 48.635C24.2498 48.5583 24.3069 48.4567 24.3288 48.3452H24.8971C24.8798 48.4754 24.8416 48.6019 24.7841 48.72C24.7264 48.8273 24.6496 48.9232 24.5573 49.0028C24.4657 49.0829 24.36 49.1452 24.2456 49.1867C24.1253 49.2297 23.9985 49.2513 23.8708 49.2506" fill="white"/>
<path d="M25.2285 48.5375C25.2228 48.4475 25.2376 48.3573 25.2719 48.2739C25.3062 48.1904 25.359 48.1159 25.4264 48.0559C25.5901 47.9268 25.7915 47.8549 26 47.851L26.6375 47.8011V47.7135C26.6402 47.6643 26.6328 47.6151 26.6158 47.5688C26.5988 47.5226 26.5725 47.4803 26.5385 47.4447C26.4552 47.3755 26.3489 47.3402 26.2408 47.3457C26.1393 47.3475 26.0389 47.3668 25.9439 47.4026C25.8392 47.4434 25.7393 47.4957 25.6462 47.5585L25.3984 47.1207C25.6651 46.9249 25.9879 46.8205 26.3187 46.8229C26.4438 46.8188 26.5685 46.8381 26.6865 46.8798C26.7917 46.9125 26.8883 46.9681 26.9693 47.0427C27.0443 47.118 27.1038 47.2073 27.1445 47.3054C27.1884 47.4169 27.2101 47.5359 27.2084 47.6557V48.5585C27.206 48.5768 27.2078 48.5954 27.2137 48.6129C27.2196 48.6304 27.2294 48.6463 27.2425 48.6593C27.2555 48.6724 27.2714 48.6822 27.2889 48.6881C27.3064 48.694 27.325 48.6958 27.3433 48.6934H27.4632V49.203H27.1804C27.0692 49.2072 26.9597 49.1749 26.8686 49.1111C26.7756 49.0479 26.7099 48.9519 26.6847 48.8423C26.6169 48.9586 26.5197 49.0551 26.403 49.1223C26.2862 49.1894 26.1539 49.2248 26.0192 49.2249C25.9105 49.2245 25.8026 49.2052 25.7005 49.168C25.6066 49.1356 25.52 49.085 25.4456 49.0191C25.3765 48.956 25.3205 48.8799 25.281 48.795C25.2398 48.7066 25.2203 48.6096 25.2241 48.5121L25.2285 48.5375ZM25.7907 48.5121C25.7901 48.5496 25.7988 48.5867 25.8161 48.62C25.8334 48.6534 25.8586 48.6819 25.8896 48.703C25.9662 48.7573 26.0586 48.7847 26.1523 48.781C26.2152 48.7803 26.2775 48.7684 26.3362 48.7459C26.3933 48.725 26.4461 48.6938 26.4921 48.654C26.5333 48.614 26.569 48.5686 26.5981 48.5191C26.6213 48.4655 26.6332 48.4077 26.6331 48.3492V48.2144L26.0805 48.2573C25.8896 48.2573 25.7907 48.3633 25.7907 48.5121Z" fill="white"/>
<path d="M30.1125 49.2021H29.5266V47.7861C29.5298 47.6574 29.4841 47.5323 29.3988 47.4358C29.3552 47.3902 29.3023 47.3545 29.2436 47.3312C29.185 47.308 29.122 47.2976 29.059 47.301C28.9962 47.299 28.9336 47.31 28.8751 47.3332C28.8167 47.3564 28.7636 47.3913 28.7192 47.4358C28.632 47.5311 28.586 47.657 28.5914 47.7861V49.2021H28.0029V46.8666H28.5905V47.2493C28.6579 47.1197 28.7578 47.0099 28.8804 46.9306C28.9996 46.8505 29.1404 46.8087 29.2841 46.8106C29.4013 46.8074 29.5177 46.8317 29.6238 46.8815C29.7234 46.9236 29.8129 46.9862 29.8865 47.0654C29.9593 47.1464 30.0168 47.2399 30.0564 47.3413C30.0936 47.4507 30.1129 47.5654 30.1133 47.681L30.1125 49.2021Z" fill="white"/>
<path d="M31.8955 46.1304H33.991V46.6611H32.5024V47.4046H33.9446V47.93H32.5041V48.6734H33.9928V49.2041H31.8955V46.1304Z" fill="white"/>
<path d="M36.7306 49.2021H36.143V47.7861C36.1462 47.6574 36.1005 47.5323 36.0152 47.4358C35.9726 47.3908 35.9209 47.3554 35.8635 47.3322C35.8061 47.3089 35.7443 47.2983 35.6824 47.301C35.6194 47.2976 35.5564 47.308 35.4978 47.3312C35.4392 47.3545 35.3862 47.3902 35.3427 47.4358C35.2972 47.4817 35.2618 47.5366 35.2385 47.5968C35.2153 47.6571 35.2049 47.7216 35.2078 47.7861V49.2021H34.6211V46.8666H35.2087V47.2493C35.276 47.1197 35.3759 47.0099 35.4985 46.9306C35.6178 46.8505 35.7586 46.8087 35.9022 46.8106C36.0195 46.8074 36.1358 46.8317 36.242 46.8815C36.3425 46.9219 36.4324 46.9848 36.5047 47.0654C36.6571 47.2325 36.7384 47.4524 36.7315 47.6784L36.7306 49.2021Z" fill="white"/>
<path d="M37.8562 49.0404C37.8045 48.9856 37.7641 48.921 37.7374 48.8506C37.7106 48.7801 37.698 48.7051 37.7003 48.6297V47.3766H37.2266V46.867H37.7012V46.1944H38.2861V46.867H38.9306V47.3766H38.3177V48.515C38.314 48.5405 38.3174 48.5666 38.3274 48.5903C38.3374 48.6141 38.3537 48.6347 38.3746 48.6499C38.42 48.6817 38.4751 48.6969 38.5305 48.6928H38.9342V49.2068H38.3536C38.2687 49.2122 38.1836 49.2006 38.1033 49.1726C38.023 49.1446 37.9491 49.1009 37.886 49.0439" fill="white"/>
<path d="M40.5169 47.4263C40.4463 47.4263 40.3765 47.4409 40.3119 47.4692C40.2491 47.4934 40.1915 47.5294 40.1421 47.5752C40.0906 47.6248 40.0498 47.6844 40.0221 47.7503C39.9929 47.8272 39.9783 47.9089 39.9792 47.9911V49.2013H39.3916V46.8633H39.9792V47.323C40.0179 47.1861 40.0969 47.064 40.206 46.9727C40.3136 46.8792 40.4532 46.8308 40.5957 46.8379H40.7708V47.4184L40.5169 47.4263Z" fill="white"/>
<path d="M41.0905 47.9222C41.0857 47.7676 41.1122 47.6136 41.1685 47.4694C41.2157 47.3399 41.288 47.2208 41.3813 47.1192C41.478 47.0214 41.5936 46.9443 41.721 46.8924C41.8589 46.8402 42.0053 46.8137 42.1527 46.8144C42.2922 46.8131 42.4301 46.8431 42.5564 46.902C42.6769 46.9518 42.7837 47.0295 42.8682 47.1288C42.959 47.2297 43.0265 47.3492 43.0661 47.4791C43.1183 47.6218 43.1447 47.7728 43.144 47.9248V48.2365H41.6597C41.6626 48.3811 41.718 48.5196 41.8156 48.6262C41.8658 48.6727 41.9249 48.7086 41.9893 48.7318C42.0537 48.755 42.1221 48.7649 42.1904 48.7611C42.2922 48.7603 42.3928 48.7393 42.4863 48.6991C42.5799 48.659 42.6644 48.6005 42.7351 48.5273L43.0854 48.8775C42.9748 48.9977 42.8426 49.0961 42.6957 49.1674C42.5273 49.2361 42.3468 49.2698 42.165 49.2663C42.0152 49.2711 41.8661 49.2446 41.7272 49.1884C41.595 49.1398 41.4753 49.0623 41.3769 48.9616C41.2793 48.862 41.2043 48.7425 41.1571 48.6113C41.1043 48.4663 41.0779 48.313 41.0791 48.1586L41.0905 47.9222ZM42.5792 47.7803C42.5865 47.6547 42.549 47.5305 42.4732 47.43C42.4321 47.39 42.3832 47.3587 42.3297 47.3381C42.2761 47.3175 42.2189 47.308 42.1615 47.3101C42.103 47.3074 42.0446 47.3167 41.9898 47.3373C41.935 47.3579 41.885 47.3895 41.8427 47.43C41.7569 47.5231 41.7067 47.6434 41.7009 47.7698L42.5792 47.7803Z" fill="white"/>
<path d="M44.319 46.8668V47.1646C44.3895 47.0544 44.4869 46.964 44.6019 46.9019C44.7227 46.8409 44.8562 46.8093 44.9916 46.8099C45.1231 46.8097 45.2533 46.8362 45.3742 46.8879C45.4897 46.9396 45.5935 47.0144 45.679 47.1077C45.7668 47.2067 45.8341 47.3222 45.8769 47.4474C45.9267 47.5906 45.9507 47.7415 45.9478 47.8931V48.1847C45.9512 48.3338 45.9271 48.4822 45.8769 48.6226C45.8341 48.7478 45.7668 48.8633 45.679 48.9624C45.5954 49.0578 45.4912 49.133 45.3742 49.1822C45.2533 49.2338 45.1231 49.2603 44.9916 49.2601C44.8582 49.2634 44.7262 49.2317 44.6089 49.1681C44.494 49.1096 44.3947 49.0247 44.319 48.9203V50.1726H43.7314V46.8668H44.319ZM44.319 48.2329C44.3248 48.3724 44.3801 48.5053 44.4749 48.6077C44.5236 48.6543 44.5814 48.6904 44.6447 48.7136C44.708 48.7368 44.7754 48.7467 44.8427 48.7426C44.9159 48.748 44.9893 48.736 45.057 48.7077C45.1247 48.6794 45.1848 48.6356 45.2324 48.5797C45.3289 48.4549 45.3768 48.2993 45.3672 48.1418V47.929C45.3768 47.7716 45.3289 47.616 45.2324 47.4912C45.1848 47.4353 45.1247 47.3915 45.057 47.3632C44.9893 47.3349 44.9159 47.3229 44.8427 47.3283C44.7754 47.3242 44.708 47.3341 44.6447 47.3573C44.5814 47.3805 44.5236 47.4165 44.4749 47.4632C44.3801 47.5656 44.3248 47.6985 44.319 47.838V48.2329Z" fill="white"/>
<path d="M47.6739 47.4266C47.5352 47.4298 47.4023 47.4826 47.2991 47.5754C47.2498 47.6254 47.2113 47.685 47.1862 47.7506C47.1572 47.8275 47.143 47.9092 47.1441 47.9914V49.2016H46.5557V46.8635H47.1362V47.3232C47.1779 47.1877 47.2564 47.0664 47.3631 46.973C47.4714 46.8807 47.6105 46.8325 47.7527 46.8381H47.9366V47.4187L47.6739 47.4266Z" fill="white"/>
<path d="M48.2471 47.9222C48.2459 47.7678 48.2723 47.6145 48.325 47.4694C48.3748 47.3395 48.4495 47.2205 48.5448 47.1192C48.6391 47.0216 48.7523 46.9444 48.8776 46.8924C49.0177 46.8402 49.166 46.8138 49.3154 46.8144C49.4525 46.8139 49.588 46.8439 49.7121 46.902C49.8336 46.95 49.9408 47.028 50.0239 47.1288C50.1168 47.2293 50.1868 47.3488 50.2288 47.4791C50.2786 47.6223 50.3026 47.7732 50.2997 47.9248V48.2365H48.8417C48.8446 48.3811 48.9 48.5196 48.9976 48.6262C49.0478 48.6727 49.1069 48.7086 49.1712 48.7318C49.2356 48.755 49.304 48.7649 49.3724 48.7611C49.4743 48.7611 49.5751 48.7404 49.6688 48.7002C49.7624 48.66 49.8469 48.6012 49.917 48.5273L50.2568 48.853C50.1477 48.9748 50.0152 49.0734 49.8671 49.1429C49.7005 49.2111 49.5217 49.2447 49.3417 49.2418C49.1894 49.2459 49.0379 49.2194 48.896 49.1639C48.7663 49.1163 48.6499 49.0386 48.5562 48.9371C48.4565 48.8379 48.3791 48.7184 48.3294 48.5868C48.2767 48.4418 48.2503 48.2884 48.2515 48.1341L48.2471 47.9222ZM49.741 47.7803C49.7352 47.6539 49.685 47.5336 49.5992 47.4405C49.5583 47.4002 49.5094 47.3687 49.4558 47.348C49.4022 47.3274 49.3448 47.318 49.2874 47.3206C49.1695 47.3168 49.0549 47.3599 48.9687 47.4405C48.8858 47.5354 48.836 47.6547 48.8268 47.7803H49.741Z" fill="white"/>
<path d="M52.9975 49.2021H52.3845V47.7861C52.3877 47.6574 52.342 47.5323 52.2567 47.4358C52.2105 47.3888 52.1555 47.3515 52.0947 47.326C52.034 47.3005 51.9688 47.2873 51.9029 47.2873C51.837 47.2873 51.7718 47.3005 51.7111 47.326C51.6503 47.3515 51.5953 47.3888 51.5491 47.4358C51.4622 47.5312 51.4166 47.6572 51.4221 47.7861V49.2021H50.8311V46.8666H51.4186V47.2493C51.4838 47.1182 51.5841 47.0078 51.7085 46.9306C51.8278 46.8505 51.9686 46.8087 52.1122 46.8106C52.2294 46.8074 52.3458 46.8317 52.452 46.8815C52.5506 46.9253 52.6398 46.9877 52.7147 47.0654C52.7874 47.1464 52.8449 47.2399 52.8845 47.3413C52.9218 47.4507 52.941 47.5654 52.9415 47.681L52.9975 49.2021Z" fill="white"/>
<path d="M53.5987 47.9222C53.5975 47.7678 53.6239 47.6145 53.6766 47.4694C53.729 47.3408 53.8034 47.2223 53.8964 47.1192C53.9906 47.0216 54.1039 46.9444 54.2292 46.8924C54.3692 46.8402 54.5176 46.8138 54.667 46.8144C54.8064 46.8138 54.9441 46.8437 55.0707 46.902C55.19 46.9538 55.2965 47.0312 55.3825 47.1288C55.4707 47.2315 55.538 47.3505 55.5804 47.4791C55.6302 47.6223 55.6542 47.7732 55.6513 47.9248V48.2365H54.1793C54.1787 48.3817 54.2346 48.5215 54.3351 48.6262C54.3849 48.6734 54.4439 48.7097 54.5084 48.733C54.5729 48.7562 54.6415 48.7657 54.7099 48.7611C54.8106 48.7602 54.9102 48.739 55.0025 48.6989C55.0949 48.6587 55.1782 48.6003 55.2476 48.5273L55.5979 48.8775C55.4888 48.9994 55.3562 49.0979 55.2082 49.1674C55.0418 49.2364 54.8629 49.2701 54.6828 49.2663C54.5305 49.2705 54.3789 49.244 54.237 49.1884C54.1074 49.1408 53.9909 49.0631 53.8973 48.9616C53.7974 48.8639 53.722 48.7438 53.6775 48.6113C53.6179 48.4679 53.5881 48.3139 53.5899 48.1586L53.5987 47.9222ZM55.0926 47.7803C55.0859 47.6554 55.0385 47.5361 54.9577 47.4405C54.9155 47.4 54.8655 47.3684 54.8107 47.3478C54.7559 47.3272 54.6975 47.3179 54.639 47.3206C54.5816 47.3185 54.5244 47.328 54.4708 47.3486C54.4172 47.3692 54.3684 47.4005 54.3272 47.4405C54.2418 47.5345 54.1895 47.6538 54.1784 47.7803H55.0926Z" fill="white"/>
<path d="M56.2393 46.8671H56.8268V48.2831C56.823 48.4119 56.8687 48.5373 56.9547 48.6334C56.9998 48.6822 57.0545 48.7211 57.1154 48.7478C57.1763 48.7744 57.242 48.7882 57.3085 48.7882C57.3749 48.7882 57.4407 48.7744 57.5016 48.7478C57.5624 48.7211 57.6172 48.6822 57.6622 48.6334C57.7061 48.5866 57.74 48.5315 57.762 48.4713C57.784 48.4111 57.7935 48.3471 57.7901 48.2831V46.8671H58.3777V49.2034H57.7647V48.8427C57.7021 48.9751 57.6042 49.0878 57.4819 49.1684C57.36 49.2418 57.2205 49.2809 57.0782 49.2814C56.9609 49.2846 56.8446 49.2603 56.7384 49.2104C56.637 49.1684 56.5455 49.1058 56.4696 49.0265C56.3966 48.947 56.3411 48.853 56.3067 48.7507C56.2638 48.6426 56.2421 48.5272 56.2428 48.4109L56.2393 46.8671Z" fill="white"/>
<path d="M60.1716 47.4266C60.0329 47.4298 59.9 47.4826 59.7968 47.5754C59.7475 47.6254 59.7091 47.685 59.6839 47.7506C59.6524 47.8271 59.6355 47.9087 59.634 47.9914V49.2016H59.042V46.8635H59.6296V47.3232C59.6712 47.1877 59.7498 47.0664 59.8564 46.973C59.9647 46.8807 60.1038 46.8325 60.2461 46.8381H60.43V47.4187L60.1716 47.4266Z" fill="white"/>
<path d="M61.8583 49.2524C61.7238 49.2559 61.5897 49.2366 61.4616 49.1955C61.3465 49.1639 61.2384 49.111 61.1428 49.0396C61.0493 48.9732 60.9699 48.889 60.909 48.7918C60.8492 48.6916 60.8085 48.5811 60.7891 48.466H61.3408C61.365 48.5649 61.4257 48.6509 61.5106 48.7069C61.6148 48.7736 61.7374 48.8058 61.8609 48.7988C61.9437 48.8035 62.0258 48.781 62.0947 48.7349C62.1228 48.7153 62.1455 48.689 62.1608 48.6585C62.1761 48.6279 62.1835 48.5939 62.1823 48.5597C62.1834 48.5355 62.1789 48.5113 62.169 48.4891C62.1591 48.4669 62.1442 48.4473 62.1254 48.4319C62.0788 48.3864 62.0196 48.3559 61.9555 48.3443L61.4739 48.2314C61.0421 48.1324 60.8293 47.9056 60.8293 47.5238C60.8288 47.4211 60.8506 47.3195 60.8933 47.2261C60.9328 47.1356 60.9927 47.0556 61.0684 46.9923C61.1505 46.9262 61.244 46.8758 61.3443 46.8434C61.4569 46.8047 61.5754 46.7855 61.6945 46.7865C61.8216 46.7864 61.948 46.8056 62.0693 46.8434C62.1814 46.8803 62.2867 46.9354 62.3811 47.0063C62.467 47.0794 62.5411 47.1654 62.6009 47.2611C62.6573 47.3623 62.6955 47.4725 62.7138 47.5869H62.1473C62.1251 47.4871 62.0672 47.3989 61.9844 47.339C61.9015 47.2754 61.7989 47.2428 61.6945 47.2471C61.6182 47.2422 61.5427 47.2649 61.4817 47.311C61.4568 47.33 61.4367 47.3547 61.4231 47.383C61.4096 47.4114 61.4029 47.4425 61.4038 47.4739C61.4038 47.5872 61.4957 47.6651 61.6796 47.7077L62.1254 47.8137C62.3012 47.8295 62.4646 47.9112 62.5828 48.0424C62.7011 48.1736 62.7654 48.3446 62.7629 48.5212C62.7656 48.6272 62.7411 48.7321 62.6919 48.826C62.5917 49.0093 62.424 49.1462 62.2243 49.2078C62.1073 49.2426 61.9856 49.2594 61.8635 49.2577" fill="white"/>
<path d="M65.4266 49.2022H64.839V47.7871C64.8422 47.6584 64.7965 47.5332 64.7112 47.4368C64.665 47.3898 64.61 47.3524 64.5492 47.3269C64.4885 47.3014 64.4233 47.2883 64.3574 47.2883C64.2915 47.2883 64.2263 47.3014 64.1656 47.3269C64.1048 47.3524 64.0498 47.3898 64.0036 47.4368C63.9167 47.5322 63.8711 47.6581 63.8766 47.7871V49.2031H63.2891V45.963H63.8766V47.2476C63.9415 47.1186 64.039 47.0087 64.1595 46.9289C64.2823 46.851 64.4247 46.8094 64.5702 46.8089C64.6873 46.8072 64.8033 46.8314 64.91 46.8799C65.0086 46.9236 65.0978 46.9861 65.1727 47.0638C65.2457 47.1433 65.3011 47.2373 65.3355 47.3396C65.3785 47.4477 65.4002 47.5631 65.3995 47.6794L65.4266 49.2022Z" fill="white"/>
<path d="M66.4258 46.5561C66.3826 46.5578 66.3394 46.5506 66.2992 46.5347C66.2589 46.5189 66.2224 46.4949 66.192 46.4642C66.1593 46.4349 66.1334 46.3987 66.1163 46.3583C66.0992 46.3179 66.0913 46.2742 66.093 46.2303C66.0916 46.1855 66.0997 46.1409 66.1168 46.0994C66.1338 46.0579 66.1595 46.0204 66.192 45.9895C66.2224 45.9588 66.2589 45.9348 66.2992 45.919C66.3394 45.9031 66.3826 45.8958 66.4258 45.8976C66.4701 45.8953 66.5144 45.9023 66.5559 45.9181C66.5974 45.934 66.6351 45.9583 66.6666 45.9895C66.7277 46.0546 66.7607 46.1411 66.7585 46.2303C66.7603 46.2736 66.753 46.3167 66.7372 46.3569C66.7213 46.3972 66.6973 46.4337 66.6666 46.4642C66.6351 46.4954 66.5974 46.5197 66.5559 46.5356C66.5144 46.5514 66.4701 46.5584 66.4258 46.5561ZM66.7235 49.2033H66.1359V46.867H66.7235V49.2033Z" fill="white"/>
<path d="M68.0186 46.8669V47.1646C68.0956 47.0495 68.2015 46.9565 68.3256 46.8951C68.4498 46.8336 68.5878 46.8058 68.7261 46.8143C68.8576 46.8148 68.9876 46.8413 69.1088 46.8922C69.2222 46.9441 69.3236 47.0189 69.4065 47.112C69.4966 47.2107 69.5662 47.3261 69.6114 47.4518C69.6578 47.5959 69.6818 47.7462 69.6824 47.8975V48.1856C69.6819 48.3344 69.6579 48.4822 69.6114 48.6235C69.5662 48.7491 69.4966 48.8646 69.4065 48.9632C69.3257 49.0583 69.2242 49.1335 69.1097 49.183C68.9885 49.234 68.8584 49.2605 68.727 49.261C68.5939 49.2641 68.4623 49.2324 68.3452 49.169C68.2279 49.1109 68.1259 49.026 68.0474 48.9212V50.1743H67.459V46.8669H68.0186ZM68.0186 48.2329C68.0269 48.3732 68.0846 48.506 68.1814 48.6077C68.2299 48.6547 68.2876 48.691 68.351 48.7142C68.4143 48.7375 68.4819 48.7471 68.5492 48.7426C68.6224 48.748 68.6958 48.736 68.7635 48.7077C68.8312 48.6794 68.8913 48.6356 68.9389 48.5797C69.0354 48.4549 69.0833 48.2993 69.0738 48.1419V47.9291C69.0833 47.7716 69.0354 47.616 68.9389 47.4912C68.8913 47.4354 68.8312 47.3916 68.7635 47.3633C68.6958 47.335 68.6224 47.323 68.5492 47.3283C68.4819 47.3238 68.4143 47.3335 68.351 47.3567C68.2876 47.3799 68.2299 47.4162 68.1814 47.4632C68.0846 47.565 68.0269 47.6977 68.0186 47.838V48.2329Z" fill="white"/>
<path d="M2.6762 52.5368C2.65451 52.3516 2.56648 52.1805 2.42838 52.0552C2.29538 51.9448 2.12655 51.8868 1.95375 51.8923C1.85015 51.8884 1.74695 51.9074 1.65147 51.9478C1.55598 51.9882 1.47054 52.0491 1.4012 52.1261C1.24923 52.3107 1.17315 52.5461 1.1884 52.7847V53.0894C1.18426 53.2193 1.20354 53.349 1.24532 53.4721C1.27478 53.5771 1.32813 53.6739 1.4012 53.7549C1.46585 53.8322 1.54856 53.8924 1.64201 53.9301C1.74157 53.9679 1.84723 53.9872 1.95375 53.987C2.13023 53.9848 2.29952 53.9167 2.42838 53.7961C2.56752 53.6716 2.65578 53.5 2.6762 53.3144H3.26378C3.25112 53.4899 3.20285 53.6609 3.12192 53.8171C3.05224 53.9588 2.95626 54.086 2.83907 54.1919C2.72245 54.299 2.58504 54.381 2.43538 54.4327C2.28151 54.491 2.11829 54.5206 1.95375 54.5203C1.75974 54.5228 1.56716 54.4868 1.38718 54.4143C1.22274 54.3525 1.07494 54.2533 0.95547 54.1245C0.831148 53.9979 0.734786 53.8466 0.672623 53.6805C0.602582 53.4927 0.568998 53.2933 0.573671 53.0929V52.7671C0.579733 52.5666 0.625572 52.3693 0.708527 52.1866C0.770348 52.0176 0.866676 51.8635 0.991374 51.7338C1.11086 51.6083 1.25561 51.5095 1.41608 51.444C1.59606 51.3715 1.78864 51.3355 1.98265 51.338C2.15203 51.3388 2.31991 51.3699 2.47829 51.43C2.60911 51.4906 2.7278 51.5746 2.82857 51.6778C2.94811 51.7846 3.04439 51.9148 3.11141 52.0605C3.18693 52.2133 3.23269 52.3791 3.24627 52.5491L2.6762 52.5368Z" fill="white"/>
<path d="M3.7307 53.1804C3.72785 53.0266 3.75185 52.8733 3.80163 52.7277C3.85156 52.5978 3.9262 52.4789 4.02142 52.3774C4.11377 52.2776 4.22755 52.2001 4.35419 52.1506C4.49265 52.0919 4.64164 52.0621 4.79203 52.0631C4.93144 52.0618 5.06938 52.0917 5.19572 52.1506C5.3147 52.203 5.42102 52.2803 5.50747 52.3774C5.59575 52.4801 5.66299 52.5991 5.70537 52.7277C5.75521 52.8709 5.77922 53.0218 5.7763 53.1734V53.4852H4.30427C4.3037 53.6304 4.3596 53.7701 4.46014 53.8749C4.50989 53.922 4.56889 53.9584 4.6334 53.9816C4.69791 54.0048 4.76654 54.0144 4.83494 54.0097C4.93449 54.0141 5.03385 53.9974 5.1265 53.9607C5.21916 53.9241 5.30303 53.8682 5.37261 53.7969L5.73339 54.1472C5.62469 54.2694 5.49206 54.3681 5.34371 54.437C5.17405 54.4989 4.99298 54.5231 4.81305 54.508C4.6614 54.5106 4.51075 54.4829 4.36995 54.4265C4.23998 54.3784 4.12234 54.302 4.02556 54.2028C3.92878 54.1036 3.85528 53.9841 3.81038 53.853C3.75412 53.7089 3.72761 53.5549 3.73245 53.4002L3.7307 53.1804ZM5.21936 53.0386C5.21607 52.9129 5.16828 52.7925 5.08451 52.6988C5.04229 52.6582 4.99226 52.6267 4.93746 52.6061C4.88267 52.5854 4.82425 52.5762 4.76576 52.5788C4.70838 52.5767 4.65118 52.5863 4.5976 52.6069C4.54401 52.6275 4.49517 52.6588 4.45401 52.6988C4.36857 52.7927 4.31628 52.9121 4.30515 53.0386H5.21936Z" fill="white"/>
<path d="M8.49464 54.4618H7.90705V53.0888C7.91038 52.9632 7.8645 52.8412 7.7792 52.749C7.73791 52.7019 7.68657 52.6647 7.62897 52.6402C7.57137 52.6156 7.50899 52.6043 7.44644 52.6071C7.38343 52.6038 7.32045 52.6141 7.26181 52.6374C7.20316 52.6607 7.15024 52.6964 7.10667 52.742C7.06122 52.7879 7.02577 52.8427 7.00256 52.903C6.97935 52.9633 6.96888 53.0277 6.97182 53.0923V54.5082H6.37109V52.1334H6.95868V52.5082C7.02592 52.3798 7.12515 52.2709 7.24678 52.192C7.36605 52.112 7.50685 52.0702 7.65047 52.0721C7.76738 52.0723 7.88301 52.0964 7.99024 52.143C8.08844 52.1875 8.17752 52.2499 8.25295 52.3269C8.32568 52.4079 8.38323 52.5013 8.42283 52.6027C8.46093 52.7156 8.48016 52.8339 8.47975 52.953L8.49464 54.4618Z" fill="white"/>
<path d="M9.59837 54.2999C9.49207 54.1898 9.43354 54.0422 9.43549 53.8892V52.6361H8.96875V52.1264H9.43286V51.4189H10.0205V52.1264H10.615V52.6361H9.99243V53.7973C9.99074 53.8226 9.995 53.848 10.0049 53.8714C10.0148 53.8948 10.03 53.9156 10.0493 53.9321C10.0978 53.963 10.1548 53.978 10.2122 53.975H10.6159V54.4847H10.0353C9.95047 54.4901 9.86538 54.4785 9.78507 54.4505C9.70476 54.4225 9.63086 54.3788 9.56772 54.3218" fill="white"/>
<path d="M12.259 52.6858C12.1886 52.6855 12.1188 52.6998 12.0541 52.7278C11.9895 52.7518 11.9314 52.7905 11.8843 52.8408C11.8311 52.889 11.7901 52.949 11.7643 53.0159C11.7349 53.0927 11.7206 53.1745 11.7223 53.2567V54.459H11.1338V52.1332H11.7205V52.5859C11.7611 52.4499 11.8398 52.3284 11.9473 52.2357C12.0576 52.1476 12.196 52.1022 12.337 52.1078H12.5121V52.6814L12.259 52.6858Z" fill="white"/>
<path d="M12.8337 53.1804C12.8296 53.0259 12.8561 52.872 12.9116 52.7277C12.9564 52.5969 13.029 52.4774 13.1244 52.3774C13.2194 52.2775 13.3355 52.2 13.4642 52.1506C13.6005 52.0918 13.7475 52.062 13.8959 52.0631C14.0353 52.0618 14.1732 52.0917 14.2996 52.1506C14.4186 52.203 14.5249 52.2803 14.6113 52.3774C14.7021 52.4783 14.7697 52.5979 14.8092 52.7277C14.8615 52.8705 14.8879 53.0214 14.8872 53.1734V53.4852H13.4073C13.4101 53.6297 13.4655 53.7682 13.5631 53.8749C13.6134 53.9213 13.6724 53.9572 13.7368 53.9804C13.8012 54.0036 13.8696 54.0135 13.9379 54.0097C14.0397 54.009 14.1403 53.9879 14.2339 53.9477C14.3274 53.9076 14.412 53.8492 14.4826 53.7759L14.8329 54.1262C14.7242 54.2484 14.5916 54.3471 14.4432 54.416C14.2759 54.488 14.0946 54.5218 13.9125 54.515C13.7528 54.5241 13.5931 54.4975 13.4449 54.437C13.3145 54.3881 13.1954 54.3134 13.0946 54.2172C12.9977 54.1171 12.9229 53.9978 12.8749 53.867C12.8221 53.7219 12.7957 53.5686 12.7969 53.4142L12.8337 53.1804ZM14.3224 53.0386C14.3191 52.9129 14.2713 52.7925 14.1875 52.6988C14.1464 52.6588 14.0975 52.6275 14.0439 52.6069C13.9903 52.5863 13.9331 52.5767 13.8758 52.5788C13.8173 52.5762 13.7589 52.5854 13.7041 52.6061C13.6493 52.6267 13.5992 52.6582 13.557 52.6988C13.4712 52.7918 13.421 52.9122 13.4151 53.0386H14.3224Z" fill="white"/>
<path d="M16.543 54.4619V51.39H18.6446V51.9206H17.1516V52.6641H18.5956V53.1895H17.1516V54.4636L16.543 54.4619Z" fill="white"/>
<path d="M21.2366 53.4179C21.2378 53.5723 21.2114 53.7256 21.1586 53.8707C21.1106 54.0031 21.0331 54.1229 20.9318 54.2209C20.8366 54.3189 20.7204 54.394 20.5921 54.4407C20.4502 54.4963 20.2986 54.5228 20.1463 54.5187C19.9986 54.5228 19.8516 54.4963 19.7146 54.4407C19.5829 54.3945 19.4632 54.3194 19.3643 54.2209C19.2661 54.1205 19.189 54.0014 19.1375 53.8707C19.0854 53.7254 19.059 53.5722 19.0596 53.4179V53.1701C19.0584 53.0158 19.0848 52.8624 19.1375 52.7174C19.1872 52.5858 19.2646 52.4663 19.3643 52.3671C19.4599 52.2679 19.5758 52.1905 19.7041 52.1403C19.9898 52.0365 20.3029 52.0365 20.5886 52.1403C20.7142 52.1924 20.8293 52.2669 20.9283 52.3601C21.0266 52.4605 21.1037 52.5796 21.1551 52.7104C21.208 52.8578 21.2343 53.0135 21.2331 53.1701L21.2366 53.4179ZM20.656 53.1841C20.6629 53.0281 20.6179 52.8741 20.5281 52.7463C20.4806 52.6923 20.4215 52.6496 20.3553 52.6214C20.2891 52.5932 20.2174 52.5802 20.1455 52.5834C20.0747 52.5804 20.0043 52.5935 19.9393 52.6217C19.8744 52.65 19.8167 52.6925 19.7707 52.7463C19.6809 52.8741 19.6359 53.0281 19.6428 53.1841V53.3969C19.6342 53.5556 19.6792 53.7126 19.7707 53.8426C19.8167 53.8964 19.8744 53.939 19.9393 53.9672C20.0043 53.9954 20.0747 54.0085 20.1455 54.0055C20.2174 54.0087 20.2891 53.9957 20.3553 53.9675C20.4215 53.9393 20.4806 53.8967 20.5281 53.8426C20.6196 53.7126 20.6646 53.5556 20.656 53.3969V53.1841Z" fill="white"/>
<path d="M22.9768 52.6858C22.9063 52.6857 22.8365 52.7004 22.7719 52.7287C22.7072 52.7547 22.6487 52.794 22.6 52.8439C22.5513 52.8938 22.5135 52.9532 22.4891 53.0185C22.4536 53.0937 22.4365 53.1763 22.4391 53.2593V54.459H21.8516V52.1332H22.4391V52.5859C22.4784 52.4527 22.5518 52.332 22.6519 52.2357C22.7623 52.1476 22.9006 52.1022 23.0416 52.1078H23.2168V52.6814L22.9768 52.6858Z" fill="white"/>
<path d="M24.8096 51.39H26.9112V51.9206H25.4182V52.6641H26.8674V53.1895H25.4182V53.9294H26.9121V54.4601H24.8104L24.8096 51.39Z" fill="white"/>
<path d="M28.0666 53.2873L27.2171 52.1261H27.8897L28.3923 52.8555L28.902 52.1261H29.5535L28.697 53.2803L29.5727 54.4624H28.902L28.3713 53.712L27.8546 54.4624H27.2031L28.0666 53.2873Z" fill="white"/>
<path d="M31.3727 52.8905H29.8438V53.4072H31.3727V52.8905Z" fill="white"/>
<path d="M31.9884 52.7636C31.9865 52.5657 32.0201 52.3691 32.0873 52.183C32.1543 52.0132 32.2556 51.859 32.385 51.7303C32.5104 51.602 32.6626 51.503 32.8308 51.4404C33.0132 51.3679 33.2081 51.3319 33.4043 51.3344C33.6029 51.3321 33.8 51.3681 33.9849 51.4404C34.1512 51.5066 34.3027 51.6051 34.4306 51.7303C34.5553 51.8613 34.6537 52.0149 34.7205 52.183C34.7935 52.3677 34.8295 52.565 34.8265 52.7636V53.0893C34.8295 53.2879 34.7935 53.4852 34.7205 53.6699C34.6553 53.8388 34.5567 53.9928 34.4306 54.1226C34.3047 54.2502 34.1526 54.3491 33.9849 54.4125C33.8 54.4848 33.6029 54.5208 33.4043 54.5184C33.2081 54.521 33.0132 54.485 32.8308 54.4125C32.6613 54.3526 32.5085 54.2533 32.385 54.1226C32.2541 53.9951 32.1525 53.8406 32.0873 53.6699C32.0201 53.4838 31.9865 53.2872 31.9884 53.0893V52.7636ZM32.6013 53.0683C32.6007 53.198 32.6199 53.3271 32.6583 53.451C32.6962 53.5553 32.7539 53.6513 32.8281 53.7338C32.8954 53.8113 32.9804 53.8714 33.076 53.909C33.2865 53.9846 33.5169 53.9846 33.7275 53.909C33.8243 53.8701 33.9113 53.8103 33.9823 53.7338C34.0569 53.6528 34.1125 53.5562 34.1452 53.451C34.1892 53.3286 34.2109 53.1992 34.2091 53.0692V52.7863C34.2227 52.5456 34.1412 52.3091 33.9823 52.1278C33.8265 51.9773 33.6184 51.8931 33.4017 51.8931C33.1851 51.8931 32.9769 51.9773 32.8211 52.1278C32.664 52.3098 32.5851 52.5465 32.6013 52.7863V53.0683Z" fill="white"/>
<path d="M35.2363 52.1331H35.7039V51.6734C35.701 51.599 35.7133 51.5248 35.7401 51.4554C35.7669 51.386 35.8076 51.3228 35.8598 51.2697C35.9216 51.2103 35.9951 51.1645 36.0756 51.1352C36.1562 51.1059 36.2419 51.0939 36.3274 51.0998H36.887V51.6734H36.4492C36.4284 51.6723 36.4076 51.6755 36.3881 51.6829C36.3687 51.6903 36.351 51.7017 36.3362 51.7163C36.3051 51.7541 36.2898 51.8024 36.2933 51.8512V52.1699H36.8879V52.6726H36.2933V54.4975H35.7057V52.6358H35.2363V52.1331Z" fill="white"/>
<path d="M37.1621 52.1334H37.6297V51.6737C37.6281 51.5989 37.6417 51.5245 37.6697 51.4551C37.6977 51.3857 37.7395 51.3227 37.7926 51.27C37.8539 51.2099 37.9274 51.1637 38.008 51.1344C38.0887 51.1051 38.1747 51.0934 38.2602 51.1001H38.8198V51.6737H38.3819C38.3379 51.6719 38.2949 51.6872 38.262 51.7166C38.2309 51.7544 38.2156 51.8026 38.2191 51.8514V52.1702H38.8207V52.6728H38.2261V54.4977H37.6385V52.636H37.1621V52.1334Z" fill="white"/>
<path d="M39.0744 53.1804C39.0738 53.0261 39.1002 52.8729 39.1523 52.7277C39.1969 52.5952 39.2722 52.4752 39.3721 52.3774C39.4645 52.2777 39.5783 52.2001 39.7049 52.1506C39.8431 52.0911 39.9923 52.0613 40.1427 52.0631C40.2798 52.0626 40.4153 52.0925 40.5394 52.1506C40.6584 52.203 40.7647 52.2804 40.8512 52.3774C40.9416 52.4798 41.0112 52.5987 41.0561 52.7277C41.1025 52.8718 41.1264 53.0221 41.127 53.1734V53.4852H39.6383C39.6412 53.6297 39.6966 53.7682 39.7942 53.8749C39.8444 53.9214 39.9035 53.9573 39.9679 53.9804C40.0323 54.0036 40.1007 54.0136 40.169 54.0097C40.2709 54.0098 40.3718 53.9891 40.4654 53.9489C40.5591 53.9087 40.6435 53.8498 40.7137 53.7759L41.064 54.1262C40.9553 54.2484 40.8226 54.3471 40.6743 54.416C40.5086 54.4876 40.3292 54.5213 40.1489 54.515C39.9966 54.5191 39.845 54.4926 39.7031 54.4371C39.5753 54.3893 39.4594 54.3143 39.3634 54.2173C39.2643 54.1175 39.187 53.9982 39.1366 53.867C39.0838 53.7219 39.0574 53.5686 39.0586 53.4142L39.0744 53.1804ZM40.5683 53.0386C40.5625 52.9122 40.5123 52.7918 40.4265 52.6988C40.3853 52.6588 40.3365 52.6275 40.2829 52.6069C40.2293 52.5863 40.1721 52.5767 40.1147 52.5788C40.0562 52.5762 39.9978 52.5854 39.943 52.6061C39.8882 52.6267 39.8382 52.6582 39.796 52.6988C39.7102 52.7918 39.6599 52.9122 39.6541 53.0386H40.5683Z" fill="white"/>
<path d="M43.8224 54.4618H43.2348V53.0888C43.2382 52.9632 43.1923 52.8412 43.107 52.749C43.065 52.701 43.0125 52.6632 42.9536 52.6386C42.8947 52.614 42.8309 52.6033 42.7672 52.6071C42.7042 52.6038 42.6412 52.6141 42.5826 52.6374C42.5239 52.6607 42.471 52.6964 42.4274 52.742C42.3402 52.8373 42.2942 52.9632 42.2996 53.0923V54.5083H41.7129V52.1334H42.2996V52.5082C42.3645 52.3791 42.462 52.2692 42.5824 52.1894C42.7053 52.1115 42.8477 52.0699 42.9931 52.0695C43.1099 52.0712 43.2252 52.0952 43.3329 52.1404C43.4301 52.1867 43.5189 52.2488 43.5956 52.3243C43.6686 52.4038 43.7241 52.4978 43.7585 52.6001C43.8024 52.7116 43.8241 52.8306 43.8224 52.9504V54.4618Z" fill="white"/>
<path d="M46.0604 54.4617V54.157C45.9881 54.2672 45.8913 54.3592 45.7775 54.4258C45.6555 54.4902 45.5188 54.5219 45.3809 54.5178C45.2489 54.5239 45.1172 54.5012 44.995 54.4511C44.8728 54.4011 44.763 54.3249 44.6733 54.2279C44.5862 54.1271 44.5169 54.0122 44.4684 53.8882C44.422 53.7441 44.3981 53.5938 44.3975 53.4424V53.1526C44.3981 53.0012 44.422 52.8509 44.4684 52.7069C44.5553 52.4611 44.736 52.2599 44.971 52.1473C45.0922 52.0964 45.2223 52.0699 45.3537 52.0694C45.489 52.0695 45.6223 52.101 45.7434 52.1613C45.8602 52.2201 45.96 52.3078 46.0332 52.4161V51.2199H46.6208V54.46L46.0604 54.4617ZM46.0604 53.1876C46.0687 53.0303 46.0209 52.8752 45.9255 52.7498C45.8755 52.695 45.814 52.6521 45.7454 52.6239C45.6768 52.5957 45.6029 52.5831 45.5288 52.5869C45.4558 52.5832 45.3829 52.5959 45.3155 52.6241C45.2481 52.6522 45.1878 52.6952 45.1392 52.7498C45.0438 52.8752 44.996 53.0303 45.0043 53.1876V53.4004C44.9977 53.5599 45.0452 53.717 45.1392 53.8461C45.1878 53.9007 45.2481 53.9437 45.3155 53.9718C45.3829 54 45.4558 54.0127 45.5288 54.009C45.6029 54.0128 45.6768 54.0002 45.7454 53.972C45.814 53.9438 45.8755 53.9009 45.9255 53.8461C46.0195 53.717 46.067 53.5599 46.0604 53.4004V53.1876Z" fill="white"/>
<path d="M47.2569 53.1804C47.2528 53.0259 47.2793 52.872 47.3348 52.7277C47.3796 52.5969 47.4522 52.4774 47.5476 52.3774C47.6413 52.2759 47.7577 52.1982 47.8874 52.1506C48.0235 52.0913 48.1706 52.0614 48.3191 52.0631C48.4585 52.0618 48.5964 52.0917 48.7228 52.1506C48.8418 52.203 48.9481 52.2803 49.0345 52.3774C49.1228 52.4801 49.1901 52.5991 49.2324 52.7277C49.2847 52.8705 49.311 53.0214 49.3104 53.1734V53.4852H47.8305C47.8299 53.6304 47.8858 53.7701 47.9863 53.8749C48.0361 53.922 48.0951 53.9584 48.1596 53.9816C48.2241 54.0048 48.2927 54.0144 48.3611 54.0097C48.4629 54.009 48.5635 53.9879 48.6571 53.9477C48.7506 53.9076 48.8352 53.8492 48.9058 53.7759L49.2561 54.1262C49.1474 54.2484 49.0147 54.3471 48.8664 54.416C48.6991 54.488 48.5178 54.5218 48.3357 54.515C48.1834 54.5191 48.0319 54.4926 47.89 54.437C47.76 54.3889 47.6424 54.3125 47.5456 54.2133C47.4488 54.1141 47.3753 53.9946 47.3304 53.8635C47.2742 53.7194 47.2477 53.5654 47.2525 53.4107L47.2569 53.1804ZM48.7456 53.0386C48.7423 52.9129 48.6945 52.7925 48.6107 52.6988C48.5685 52.6582 48.5185 52.6267 48.4637 52.6061C48.4089 52.5854 48.3504 52.5762 48.292 52.5788C48.2346 52.5767 48.1774 52.5863 48.1238 52.6069C48.0702 52.6275 48.0214 52.6588 47.9802 52.6988C47.8948 52.7927 47.8425 52.9121 47.8313 53.0386H48.7456Z" fill="white"/>
<path d="M51.0149 52.6858C50.9444 52.6863 50.8748 52.7009 50.81 52.7287C50.7453 52.7547 50.6868 52.794 50.6381 52.8439C50.5894 52.8938 50.5516 52.9533 50.5271 53.0185C50.4948 53.0948 50.4779 53.1766 50.4772 53.2594V54.4591H49.8896V52.1332H50.4772V52.586C50.5205 52.4512 50.5988 52.3303 50.704 52.2357C50.8149 52.1487 50.9529 52.1035 51.0937 52.1078H51.2776V52.6814L51.0149 52.6858Z" fill="white"/>
<path d="M52.6932 54.5045C52.5593 54.5067 52.4258 54.4899 52.2966 54.4546C52.1811 54.4206 52.073 54.3653 51.9778 54.2917C51.8843 54.2253 51.8048 54.1411 51.744 54.0439C51.6842 53.9437 51.6435 53.8333 51.624 53.7182H52.1766C52.2022 53.8182 52.2624 53.906 52.3465 53.966C52.4525 54.028 52.574 54.0583 52.6967 54.0536C52.7795 54.0582 52.8616 54.0357 52.9305 53.9896C52.9579 53.9706 52.9801 53.9451 52.9954 53.9155C53.0106 53.8859 53.0184 53.8531 53.0181 53.8198C53.0193 53.7945 53.0148 53.7692 53.0049 53.7459C52.9951 53.7225 52.9801 53.7017 52.9612 53.6849C52.9111 53.6445 52.8533 53.6147 52.7913 53.5973L52.3097 53.4844C51.878 53.3854 51.6652 53.1586 51.6652 52.7768C51.6636 52.6717 51.6854 52.5676 51.7291 52.4721C51.7686 52.3816 51.8286 52.3016 51.9042 52.2383C51.9863 52.1722 52.0798 52.1218 52.1801 52.0894C52.2928 52.0507 52.4112 52.0315 52.5304 52.0325C52.7831 52.0319 53.03 52.1086 53.2379 52.2523C53.3239 52.3254 53.398 52.4114 53.4577 52.5071C53.5141 52.6083 53.5523 52.7185 53.5707 52.8329H53.0111C52.9838 52.7335 52.924 52.6463 52.8412 52.585C52.7584 52.5214 52.6558 52.4888 52.5514 52.4931C52.4751 52.4882 52.3996 52.5109 52.3386 52.557C52.3144 52.5768 52.295 52.6016 52.2815 52.6298C52.268 52.6579 52.2609 52.6887 52.2606 52.7199C52.2606 52.8329 52.3526 52.9108 52.5365 52.9607L52.9822 53.0597C53.4069 53.1656 53.6197 53.3854 53.6197 53.7672C53.6224 53.8732 53.598 53.9781 53.5488 54.0719C53.5024 54.1605 53.44 54.2398 53.3649 54.3058C53.2812 54.3733 53.1851 54.4238 53.082 54.4546C52.965 54.4895 52.8434 54.5063 52.7213 54.5045" fill="white"/>
<path d="M108.853 42.1829C101.775 31.2114 103.19 19.2556 105.221 7.20092C105.441 7.73158 105.639 8.27714 105.887 8.79379C108.208 13.6635 111.033 14.7257 115.797 12.0995C118.848 10.4217 121.637 8.26312 124.999 6.01874C116.264 16.8633 107.246 27.1228 108.846 42.1846" fill="white"/>
<path d="M115.204 7.48897C114.704 8.11805 113.988 8.53883 113.195 8.66958C112.402 8.80033 111.589 8.63174 110.913 8.19653C110.754 8.09001 110.611 7.96113 110.488 7.81385C108.953 5.99505 110.078 2.0168 112.272 0.621831C113.737 -0.305522 115.103 -0.298516 116.138 1.32939C117.172 2.95729 116.845 5.46351 115.203 7.48022" fill="white"/>
<path d="M107.869 39.8598C107.728 26.812 99.9768 17.6121 91.6595 8.65027C91.7655 9.21684 91.9004 9.77553 91.9783 10.3491C92.7217 15.6864 90.945 18.1357 85.5157 18.5604C82.0471 18.8363 78.5295 18.5604 74.4873 18.5604C87.7452 22.8075 100.925 26.425 107.869 39.8738" fill="white"/>
<path d="M83.4843 14.3832C84.248 14.6295 85.0757 14.585 85.8087 14.2584C86.5416 13.9317 87.1281 13.346 87.4556 12.6135C87.5281 12.4363 87.5782 12.2506 87.6044 12.0609C87.8803 9.69657 84.7734 6.99245 82.1612 7.03536C80.4194 7.03536 79.3301 7.82347 79.3301 9.76049C79.3301 11.6975 80.9939 13.6135 83.4922 14.3824" fill="white"/>
<path d="M116.492 38.9315C114.246 40.8657 111.684 42.3981 108.918 43.4614C106.994 44.12 104.952 44.364 102.927 44.1773C100.902 43.9906 98.9392 43.3775 97.168 42.3782C94.8178 41.1359 92.6042 39.6508 90.5635 37.9472C90.417 37.8277 90.299 37.6771 90.2179 37.5064C90.1368 37.3356 90.0947 37.1489 90.0947 36.9599C90.0947 36.7708 90.1368 36.5842 90.2179 36.4134C90.299 36.2426 90.417 36.092 90.5635 35.9725C90.7086 35.8895 90.8704 35.84 91.0371 35.8277C91.2038 35.8154 91.3711 35.8407 91.5268 35.9016C93.4305 36.7939 95.2782 37.8053 97.1898 38.6408C99.726 39.8467 102.534 40.3667 105.334 40.1487C108.221 39.862 110.876 38.4413 112.717 36.1985C114.133 34.5566 115.286 32.7579 116.574 31.038C117.47 29.6686 118.724 28.5698 120.199 27.8602C120.618 27.6164 121.1 27.4994 121.585 27.5233C122.069 27.5473 122.537 27.7111 122.931 27.995C123.313 28.3322 123.584 28.7765 123.711 29.2701C123.837 29.7638 123.812 30.2839 123.638 30.7631C123.198 32.2669 122.33 33.6108 121.142 34.6319C119.627 36.1039 118.034 37.4778 116.491 38.9359" fill="white"/>
</g>
<defs>
<clipPath id="clip0">
<rect width="125" height="54.5203" fill="white"/>
</clipPath>
</defs>
</svg>
