<svg width="135" height="23" viewBox="0 0 135 23" fill="none" xmlns="http://www.w3.org/2000/svg">
<g clip-path="url(#clip0)">
<path d="M4.58339 12.4298C4.5189 12.7747 4.58222 13.1312 4.76149 13.4328C4.85445 13.5541 4.97564 13.6507 5.11451 13.7145C5.25338 13.7782 5.40571 13.807 5.55826 13.7984C5.79645 13.8126 6.03111 13.7355 6.21442 13.5828C6.2907 13.5203 6.35214 13.4416 6.39429 13.3524C6.43644 13.2633 6.45825 13.1658 6.45813 13.0672C6.45898 12.9671 6.42958 12.8691 6.37377 12.786C6.30436 12.6814 6.21122 12.5947 6.10193 12.5329C5.93302 12.42 5.75418 12.3228 5.56763 12.2423C5.35204 12.1299 5.07083 12.008 4.74275 11.8674L3.24295 11.2487C2.78984 11.0501 2.36191 10.7984 1.96813 10.4988C1.59261 10.1935 1.28863 9.80955 1.07763 9.37399C0.844571 8.9191 0.728589 8.4133 0.740177 7.90232C0.715043 7.23924 0.895081 6.58456 1.25573 6.02758C1.5976 5.51425 2.05717 5.09003 2.59617 4.79025C3.18235 4.46952 3.81481 4.24183 4.47091 4.11534C5.16944 3.98425 5.87864 3.91835 6.58936 3.91849C7.47483 3.88804 8.3583 4.02151 9.19525 4.31219C9.76961 4.52431 10.2864 4.86778 10.7044 5.31518C11.0418 5.69105 11.2717 6.15084 11.37 6.64624C11.4639 7.09919 11.4892 7.5637 11.4449 8.02417H6.91744C6.97132 7.70822 6.9356 7.38349 6.81433 7.0868C6.74455 6.98444 6.64863 6.90263 6.53654 6.84989C6.42445 6.79714 6.30027 6.77537 6.17692 6.78685C5.9569 6.77799 5.7399 6.84046 5.55826 6.96495C5.47074 7.02302 5.39971 7.10273 5.35208 7.19635C5.30445 7.28997 5.28183 7.39431 5.28642 7.49925C5.28353 7.62984 5.31708 7.75865 5.38331 7.87124C5.44954 7.98382 5.54583 8.07573 5.66137 8.13666C6.03248 8.35467 6.42514 8.53373 6.83308 8.67096L8.31413 9.24275C8.79061 9.42763 9.24116 9.67339 9.65456 9.9739C10.0338 10.2655 10.3522 10.6285 10.5919 11.0425C10.8613 11.5426 10.9908 12.106 10.9669 12.6735C10.9719 13.2823 10.8406 13.8844 10.5826 14.4358C10.3164 14.9794 9.92827 15.4542 9.44834 15.8231C8.89185 16.2569 8.25454 16.5755 7.5736 16.7605C6.75481 16.9814 5.90949 17.0887 5.06145 17.0792C4.30877 17.0632 3.56162 16.9466 2.83989 16.7323C2.23296 16.5753 1.66913 16.2838 1.19011 15.8793C0.755797 15.493 0.432244 14.998 0.252745 14.4452C0.0297746 13.7982 -0.0470571 13.11 0.0277764 12.4298H4.58339Z" fill="white"/>
<path d="M18.4842 16.6667C18.1749 16.7229 17.828 16.7698 17.4531 16.8166C16.9578 16.8636 16.4601 16.8824 15.9627 16.8729C15.4927 16.8739 15.0231 16.8458 14.5566 16.7885C14.1467 16.7434 13.7524 16.6055 13.4037 16.3855C13.0653 16.1577 12.8064 15.83 12.6631 15.4481C12.4892 14.8775 12.4476 14.2749 12.5413 13.6858L12.8787 10.4425H11.6133L11.9132 7.63042H13.1506L13.413 5.02454H17.6687L17.3969 7.63042H19.4403L19.131 10.4425H17.0969L16.9 12.7203C16.8545 12.9146 16.8545 13.1167 16.9 13.3109C16.9373 13.4474 17.012 13.5708 17.1156 13.6671C17.2257 13.7537 17.3539 13.8146 17.4906 13.8452C17.6465 13.8598 17.8034 13.8598 17.9593 13.8452C18.2381 13.8496 18.5169 13.8339 18.7935 13.7983L18.4842 16.6667Z" fill="white"/>
<path d="M30.7176 7.58384L29.7802 16.667H25.5058L25.6652 15.2703C25.5764 15.4638 25.456 15.6412 25.309 15.7952C25.116 15.9964 24.8988 16.1727 24.6622 16.3201C24.3669 16.4913 24.0522 16.6267 23.7248 16.7232C23.3645 16.839 22.9878 16.8959 22.6094 16.8919C22.1293 16.8967 21.6535 16.8009 21.2127 16.6107C20.7896 16.4221 20.4171 16.1362 20.1253 15.7765C19.8092 15.3796 19.5678 14.9286 19.4129 14.4454C19.2371 13.8684 19.1517 13.2676 19.1598 12.6644C19.1489 11.9203 19.2728 11.1803 19.5254 10.4803C19.7301 9.8673 20.0481 9.29815 20.4628 8.80242C20.8554 8.35032 21.3415 7.98891 21.8876 7.7432C22.4185 7.49431 22.9979 7.36625 23.5842 7.36825C23.9764 7.34222 24.3701 7.38666 24.7466 7.49948C25.0341 7.59655 25.3057 7.73552 25.5527 7.91192C25.7529 8.06331 25.9298 8.24334 26.0776 8.44622C26.1932 8.59962 26.2762 8.77508 26.3213 8.96178L26.462 7.54635L30.7176 7.58384ZM24.6247 13.4237C24.8013 13.42 24.9753 13.3808 25.1364 13.3083C25.2975 13.2359 25.4423 13.1316 25.5621 13.0018C25.6918 12.8712 25.7943 12.7161 25.8635 12.5455C25.9327 12.375 25.9672 12.1923 25.9651 12.0082C25.9707 11.7022 25.8563 11.4061 25.6464 11.1833C25.5418 11.0698 25.414 10.9801 25.2717 10.9203C25.1294 10.8605 24.9759 10.8319 24.8216 10.8365C24.6439 10.8391 24.4687 10.8788 24.3073 10.953C24.1459 11.0273 24.0018 11.1345 23.8842 11.2677C23.7518 11.3953 23.6462 11.5481 23.5738 11.7172C23.5013 11.8862 23.4634 12.068 23.4624 12.2519C23.4587 12.5576 23.5729 12.853 23.7811 13.0768C23.8874 13.1933 24.0182 13.2848 24.164 13.3448C24.3099 13.4047 24.4672 13.4317 24.6247 13.4237Z" fill="white"/>
<path d="M39.6225 11.3703C39.401 11.3059 39.1755 11.2558 38.9476 11.2204C38.749 11.1897 38.5485 11.174 38.3476 11.1735C38.0315 11.168 37.7161 11.2058 37.4103 11.286C37.1218 11.3521 36.8524 11.4835 36.6229 11.6703C36.3624 11.8866 36.1541 12.159 36.0136 12.4671C35.8337 12.8909 35.7198 13.3398 35.6761 13.7981L35.3762 16.6665H31.1768L32.1141 7.58336H36.3604L36.2011 9.03628C36.3389 8.82262 36.4958 8.62184 36.6697 8.43637C36.864 8.23392 37.081 8.05462 37.3165 7.90207C37.5749 7.7302 37.8556 7.59458 38.1508 7.499C38.4856 7.40123 38.8331 7.35384 39.1819 7.35839C39.469 7.35778 39.7541 7.40531 40.0255 7.499L39.6225 11.3703Z" fill="white"/>
<path d="M59.2417 16.6668H54.9017L55.7172 8.96163L53.0832 16.6668H49.7649L48.5276 8.96163L47.7121 16.6668H43.3721L44.6844 4.27478H50.7398L51.9303 11.6706L54.6768 4.27478H60.5541L59.2417 16.6668Z" fill="white"/>
<path d="M72.3267 7.58351L71.3893 16.6666H67.1243L67.2836 15.2699C67.1876 15.4616 67.0645 15.6384 66.9181 15.7949C66.7292 16.0004 66.5113 16.1772 66.2713 16.3198C65.9754 16.4898 65.6609 16.6251 65.3339 16.7229C64.9732 16.8372 64.5968 16.8942 64.2184 16.8916C63.7352 16.8971 63.2563 16.8013 62.8124 16.6104C62.3893 16.4217 62.0168 16.1359 61.725 15.7761C61.4084 15.381 61.1698 14.9293 61.022 14.4451C60.8383 13.8696 60.7497 13.268 60.7595 12.664C60.7486 11.9199 60.8725 11.18 61.1251 10.48C61.3298 9.86696 61.6478 9.29781 62.0625 8.80209C62.4551 8.34999 62.9412 7.98858 63.4873 7.74286C64.0181 7.49397 64.5976 7.36591 65.1839 7.36791C65.5792 7.34075 65.9762 7.3852 66.3556 7.49914C66.6432 7.59621 66.9148 7.73519 67.1618 7.91158C67.3643 8.06039 67.5415 8.24079 67.6867 8.44589C67.8023 8.59929 67.8852 8.77474 67.9304 8.96144L68.0804 7.54601L72.3267 7.58351ZM66.2338 13.4233C66.4104 13.4197 66.5844 13.3805 66.7455 13.308C66.9065 13.2355 67.0513 13.1313 67.1711 13.0015C67.3009 12.8709 67.4034 12.7158 67.4726 12.5452C67.5418 12.3746 67.5763 12.192 67.5742 12.0079C67.5798 11.7019 67.4654 11.4058 67.2555 11.183C67.1509 11.0695 67.0231 10.9798 66.8808 10.92C66.7384 10.8601 66.5849 10.8315 66.4306 10.8362C66.253 10.8388 66.0778 10.8784 65.9164 10.9527C65.7549 11.027 65.6108 11.1341 65.4932 11.2674C65.3625 11.3958 65.2587 11.5489 65.1879 11.7179C65.1171 11.8869 65.0807 12.0684 65.0808 12.2516C65.0772 12.5573 65.1913 12.8527 65.3995 13.0765C65.5056 13.1907 65.635 13.2808 65.7789 13.3407C65.9229 13.4005 66.078 13.4287 66.2338 13.4233Z" fill="white"/>
<path d="M83.5566 15.7108C83.5045 16.1576 83.4167 16.5996 83.2941 17.0325C83.1966 17.3803 83.0548 17.7143 82.8723 18.0261C82.7087 18.3003 82.5067 18.5497 82.2724 18.7666C82.0395 18.9718 81.7849 19.151 81.5131 19.3009C80.2828 19.989 78.8919 20.3383 77.4824 20.3133C76.6467 20.3195 75.8151 20.1962 75.0171 19.9477C74.7355 19.8671 74.4599 19.7669 74.1923 19.6477C74.0263 19.5765 73.8664 19.4918 73.7142 19.3947C73.5446 19.2732 73.3904 19.1315 73.2549 18.9728C73.0857 18.7779 72.9351 18.5677 72.805 18.3448C72.6715 18.1051 72.5677 17.8502 72.4956 17.5855C72.4257 17.3197 72.4066 17.043 72.4394 16.77H76.695C76.6876 16.8837 76.7076 16.9975 76.7533 17.1019C76.7989 17.2063 76.869 17.2982 76.9575 17.3699C77.074 17.4777 77.2117 17.56 77.3618 17.6117C77.5119 17.6633 77.6711 17.6831 77.8293 17.6699C78.1672 17.6726 78.4967 17.5639 78.7666 17.3606C78.914 17.2339 79.0347 17.0792 79.1216 16.9053C79.2086 16.7315 79.2599 16.5421 79.2728 16.3482L79.4134 15.0734C79.2919 15.2401 79.1537 15.394 79.001 15.5327C78.8168 15.6989 78.6121 15.8407 78.3917 15.9545C78.1239 16.0933 77.8407 16.2003 77.548 16.2732C76.7138 16.4629 75.8444 16.4306 75.0265 16.1795C74.6062 16.0373 74.2244 15.7999 73.911 15.4858C73.5712 15.1497 73.3088 14.7434 73.1424 14.2954C72.9501 13.7314 72.8581 13.1382 72.8706 12.5425C72.8661 11.8425 72.9737 11.1463 73.1893 10.4803C73.3954 9.87921 73.7135 9.3226 74.1266 8.83987C74.4961 8.38615 74.9599 8.01831 75.4858 7.76189C76.0723 7.48862 76.7137 7.35392 77.3606 7.3682C77.968 7.34882 78.5697 7.49116 79.1041 7.78064C79.5613 8.05156 79.8969 8.48783 80.0415 8.99922L80.2008 7.58379H84.3909L83.5566 15.7108ZM78.5417 10.8365C78.3536 10.8356 78.1677 10.8772 77.998 10.9583C77.8317 11.0306 77.6818 11.1358 77.5574 11.2677C77.4332 11.4 77.3319 11.5521 77.2575 11.7176C77.1827 11.8858 77.1443 12.0678 77.145 12.2519C77.1412 12.4036 77.1674 12.5546 77.2221 12.6961C77.2768 12.8377 77.3589 12.967 77.4637 13.0768C77.5671 13.1918 77.6947 13.2825 77.8373 13.3425C77.9799 13.4024 78.134 13.4301 78.2886 13.4236C78.4653 13.4205 78.6395 13.3816 78.8006 13.309C78.9618 13.2365 79.1065 13.132 79.2259 13.0018C79.3689 12.8773 79.485 12.725 79.5672 12.5542C79.6494 12.3833 79.6959 12.1976 79.704 12.0082C79.7092 11.7039 79.5986 11.4091 79.3947 11.1833C79.2869 11.0661 79.1545 10.9742 79.0071 10.9142C78.8596 10.8543 78.7006 10.8277 78.5417 10.8365Z" fill="white"/>
<path d="M96.3892 7.58351L95.4518 16.6666H91.1868L91.3461 15.2699C91.2501 15.4616 91.127 15.6384 90.9806 15.7949C90.7917 16.0004 90.5738 16.1772 90.3338 16.3198C90.0379 16.4898 89.7234 16.6251 89.3964 16.7229C89.0357 16.8372 88.6593 16.8942 88.2809 16.8916C87.7978 16.8963 87.319 16.8005 86.8749 16.6104C86.4518 16.4217 86.0793 16.1359 85.7875 15.7761C85.4709 15.381 85.2323 14.9293 85.0845 14.4451C84.9008 13.8696 84.8122 13.268 84.822 12.664C84.8111 11.9199 84.935 11.18 85.1876 10.48C85.3923 9.86696 85.7103 9.29781 86.125 8.80209C86.5176 8.34999 87.0037 7.98858 87.5498 7.74286C88.0807 7.49397 88.6601 7.36591 89.2464 7.36791C89.6417 7.34075 90.0387 7.3852 90.4181 7.49914C90.7057 7.59621 90.9773 7.73519 91.2243 7.91158C91.4268 8.06039 91.604 8.24079 91.7492 8.44589C91.8636 8.60131 91.9493 8.7759 92.0023 8.96144L92.1429 7.54601L96.3892 7.58351ZM90.2963 13.4233C90.473 13.4202 90.6472 13.3813 90.8083 13.3088C90.9695 13.2362 91.1142 13.1317 91.2337 13.0015C91.3647 12.8714 91.4686 12.7166 91.5394 12.546C91.6102 12.3754 91.6464 12.1926 91.6461 12.0079C91.6478 11.7026 91.534 11.4079 91.3274 11.183C91.2202 11.0702 91.0906 10.9811 90.9469 10.9213C90.8033 10.8616 90.6487 10.8326 90.4931 10.8362C90.3155 10.8388 90.1403 10.8784 89.9789 10.9527C89.8174 11.027 89.6733 11.1341 89.5558 11.2674C89.425 11.3958 89.3212 11.5489 89.2504 11.7179C89.1796 11.8869 89.1432 12.0684 89.1433 12.2516C89.1397 12.5573 89.2538 12.8527 89.462 13.0765C89.5681 13.1907 89.6975 13.2808 89.8414 13.3407C89.9854 13.4005 90.1405 13.4287 90.2963 13.4233Z" fill="white"/>
<path d="M106.691 7.58337L102.66 13.2076H105.735L105.388 16.6665H96.1455L100.195 11.0423H97.186L97.5609 7.59275L106.691 7.58337Z" fill="white"/>
<path d="M107.46 7.58371H111.706L110.769 16.6668H106.522L107.46 7.58371ZM107.46 5.11842C107.456 4.79534 107.523 4.47538 107.657 4.18105C107.791 3.90343 107.979 3.655 108.21 3.4499C108.449 3.23383 108.73 3.06808 109.035 2.96247C109.363 2.84984 109.709 2.79899 110.056 2.81249C110.627 2.79119 111.187 2.97769 111.631 3.33742C111.837 3.52499 111.999 3.75608 112.104 4.01389C112.209 4.2717 112.256 4.54975 112.24 4.82784C112.246 5.14623 112.18 5.46182 112.049 5.75194C111.918 6.04205 111.724 6.29948 111.481 6.50573C111.243 6.70458 110.969 6.85718 110.675 6.95567C110.358 7.06231 110.025 7.11615 109.691 7.11502C109.099 7.14676 108.518 6.94861 108.069 6.56197C107.873 6.37784 107.719 6.15361 107.617 5.90452C107.515 5.65544 107.468 5.38733 107.479 5.11842H107.46Z" fill="white"/>
<path d="M113.121 7.58369H117.367L117.199 8.96162C117.474 8.46019 117.896 8.05471 118.408 7.79928C119.413 7.31933 120.556 7.21299 121.632 7.49933C121.984 7.59315 122.306 7.77364 122.57 8.02425C122.758 8.20077 122.903 8.4191 122.992 8.66166C123.088 8.91873 123.154 9.18611 123.189 9.45843C123.213 9.75164 123.213 10.0463 123.189 10.3396C123.199 10.6534 123.177 10.9676 123.123 11.2769L122.56 16.6481H118.324L118.802 12.0737C118.889 11.2488 118.627 10.8364 118.014 10.8364C117.869 10.8279 117.725 10.8531 117.591 10.91C117.458 10.9669 117.34 11.054 117.246 11.1644C117.015 11.5089 116.888 11.9123 116.88 12.3268L116.411 16.6481H112.165L113.121 7.58369Z" fill="white"/>
<path d="M128.053 12.9267C128.025 13.0848 128.025 13.2466 128.053 13.4047C128.066 13.5619 128.117 13.7134 128.203 13.8453C128.285 13.9858 128.406 14.0997 128.55 14.1734C128.744 14.2744 128.96 14.3229 129.178 14.314C129.48 14.321 129.778 14.2465 130.041 14.0984C130.154 14.0398 130.253 13.9589 130.334 13.8606C130.414 13.7624 130.474 13.6487 130.509 13.5266H134.587C134.461 14.0308 134.231 14.5032 133.912 14.9139C133.578 15.3382 133.172 15.7 132.712 15.9825C132.2 16.2966 131.644 16.5334 131.062 16.6855C130.385 16.8521 129.689 16.934 128.991 16.9292C127.647 17.0036 126.319 16.602 125.241 15.795C124.789 15.4055 124.432 14.9173 124.198 14.368C123.964 13.8186 123.859 13.2229 123.892 12.6267C123.888 11.9403 124.015 11.2596 124.266 10.6207C124.525 9.98096 124.911 9.40049 125.401 8.91473C125.941 8.40533 126.579 8.01002 127.275 7.75239C128.112 7.44505 128.999 7.29567 129.891 7.31183C130.663 7.29662 131.433 7.41068 132.169 7.64928C132.756 7.85441 133.297 8.17289 133.762 8.58665C134.175 8.93481 134.497 9.37895 134.699 9.88022C135.01 10.6571 135.082 11.5089 134.906 12.3268C134.84 12.5986 134.784 12.8142 134.737 12.9642L128.053 12.9267ZM129.647 9.83335C129.303 9.8222 128.968 9.94291 128.71 10.1708C128.452 10.4191 128.292 10.7518 128.26 11.1082H130.781C130.809 10.9442 130.802 10.7764 130.762 10.6151C130.721 10.4538 130.648 10.3025 130.547 10.1708C130.432 10.051 130.291 9.95858 130.135 9.9002C129.979 9.84181 129.813 9.81897 129.647 9.83335Z" fill="white"/>
<path d="M66.1034 5.8496L65.9721 5.15595H63.938L63.6381 5.8496H62.2227L64.9598 0.150391H66.1784L67.5188 5.8496H66.1034ZM65.3722 1.78141L64.4349 4.12484H65.8128L65.3722 1.78141Z" fill="white"/>
<path d="M70.0023 1.25649L69.8148 2.81252H71.9708L71.8395 3.89987H69.6836L69.4399 5.86835H68.1182L68.8118 0.150391H72.2988L72.2051 1.25649H70.0023Z" fill="white"/>
<path d="M73.2923 0.150258H75.692C75.978 0.14599 76.2619 0.200217 76.5262 0.309611C76.7569 0.41351 76.9618 0.56716 77.1261 0.759548C77.2843 0.95297 77.4022 1.17606 77.473 1.41571C77.525 1.67875 77.525 1.94943 77.473 2.21247C77.4238 2.6085 77.2755 2.98572 77.0418 3.30919C76.8018 3.636 76.4779 3.89186 76.1044 4.04972L77.0418 5.84947H75.5514L74.7358 4.27469H74.0797L73.8828 5.84947H72.5986L73.2923 0.150258ZM75.167 3.19671C75.2997 3.1961 75.4307 3.16734 75.5514 3.11235C75.6699 3.06054 75.7779 2.98747 75.8701 2.89675C75.9575 2.80545 76.0303 2.70109 76.0857 2.58742C76.1491 2.47175 76.1875 2.34398 76.1981 2.21247C76.2219 2.08862 76.2219 1.96137 76.1981 1.83752C76.1716 1.72344 76.1239 1.61533 76.0575 1.51882C75.9854 1.43009 75.8961 1.35677 75.7951 1.30322C75.6815 1.24674 75.5563 1.21784 75.4295 1.21886H74.4921L74.2578 3.19671H75.167Z" fill="white"/>
<path d="M78.6263 0.150391H79.9667L79.2637 5.8496H77.9326L78.6263 0.150391Z" fill="white"/>
<path d="M86.266 3.806C86.1806 4.11271 86.0409 4.40162 85.8535 4.65901C85.6624 4.92669 85.4317 5.16375 85.1692 5.36203C84.8818 5.56398 84.5659 5.72195 84.2319 5.83072C83.8778 5.94578 83.5074 6.00276 83.1351 5.99945C82.704 6.00747 82.276 5.92442 81.8791 5.75573C81.5407 5.60443 81.2399 5.38039 80.9979 5.09957C80.7673 4.82756 80.6007 4.50722 80.5105 4.1622C80.413 3.78595 80.3907 3.39413 80.4449 3.00924C80.4842 2.61547 80.592 2.23162 80.7636 1.87502C80.944 1.52302 81.1851 1.20568 81.476 0.93765C81.7762 0.645581 82.1294 0.413352 82.5165 0.25337C82.9165 0.0830837 83.3472 -0.00306645 83.7819 0.00028017C84.1743 -0.00629621 84.5648 0.0571898 84.9349 0.187754C85.2402 0.295312 85.5185 0.468036 85.7504 0.693934C85.9644 0.906362 86.1306 1.16202 86.2378 1.44383C86.346 1.7444 86.4 2.06178 86.3972 2.3812H85.0193C85.0158 2.20762 84.9809 2.03611 84.9161 1.87502C84.8539 1.73412 84.7648 1.60675 84.6537 1.50007C84.5389 1.39011 84.4013 1.30689 84.2506 1.25636C84.0806 1.18953 83.8989 1.15765 83.7163 1.16262C83.4553 1.15696 83.1963 1.20813 82.957 1.3126C82.7375 1.41033 82.5375 1.54687 82.3665 1.71567C82.1975 1.87929 82.0607 2.07326 81.9634 2.28746C81.8612 2.50008 81.7947 2.72811 81.7666 2.96237C81.7236 3.19474 81.7236 3.43303 81.7666 3.6654C81.8105 3.8777 81.9036 4.07674 82.0384 4.24657C82.1777 4.41569 82.3541 4.55041 82.554 4.64026C82.7912 4.73963 83.0468 4.78755 83.3039 4.78087C83.463 4.77955 83.621 4.75427 83.7726 4.70588C83.9259 4.65502 84.0711 4.58241 84.2038 4.49028C84.3374 4.40201 84.4574 4.29463 84.5599 4.17158C84.6589 4.05394 84.7381 3.92097 84.7943 3.77788L86.266 3.806Z" fill="white"/>
<path d="M89.9305 5.8496L89.7899 5.15595H87.7652L87.4559 5.8496H86.0498L88.7775 0.150391H90.0149L91.3834 5.8496H89.9305ZM89.19 1.78141L88.2058 4.12484H89.5931L89.19 1.78141Z" fill="white"/>
<path d="M134.268 18.6727H85.1689C85.1689 18.6727 84.7189 21.1005 80.0227 22.5534C75.9545 23.8188 134.268 18.6727 134.268 18.6727Z" fill="white"/>
</g>
<defs>
<clipPath id="clip0">
<rect width="135" height="22.7537" fill="white"/>
</clipPath>
</defs>
</svg>
