<svg width="120" height="51" viewBox="0 0 120 51" fill="none" xmlns="http://www.w3.org/2000/svg">
<g clip-path="url(#clip0)">
<path d="M17.403 19.2904L17.9542 17.5405C16.8909 16.5842 16.0692 15.3895 15.5566 14.0545C19.0706 11.2886 23.0845 9.22551 27.3789 7.97799C32.437 6.70863 37.674 6.30793 42.8663 6.79301C42.8663 6.79301 50.8718 2.01175 55.9838 0.702762C61.0957 -0.606229 68.8946 4.02415e-05 75.4258 1.63972C81.3405 3.32302 87.1514 5.352 92.8284 7.7162C92.8284 7.7162 92.8284 9.64523 90.2242 9.64523C86.6969 9.64523 85.5257 11.216 85.5257 11.216C85.5257 11.216 84.7954 7.97799 77.589 5.01554C73.534 3.4725 69.2792 2.51669 64.9538 2.1771C58.0644 1.68106 53.5036 3.85812 47.6614 7.37172C47.6614 7.37172 58.1057 7.55085 64.196 7.27527C67.1126 7.26008 70.0138 6.85223 72.8215 6.06273C69.8852 7.41777 66.7215 8.2122 63.4933 8.40514C57.4857 9.02519 44.878 8.55671 44.878 8.55671C44.878 8.55671 28.6603 7.67486 21.702 11.6845H24.5956L22.2118 13.4206L16.7003 14.7985C17.2028 15.7252 17.8982 16.5334 18.7396 17.1685L17.403 19.2904Z" fill="white"/>
<path d="M0.385808 27.4061L0 22.3217L117.837 4.72607" fill="white"/>
<path d="M119.6 27.8195L120 32.9039L2.16309 50.4995" fill="white"/>
<path d="M3.54082 39.9587C3.4834 39.571 3.45576 39.1795 3.45815 38.7875L3.59594 32.5457L6.66862 31.9946L6.54461 38.195C6.51513 38.4836 6.51513 38.7745 6.54461 39.0631C6.56307 39.3044 6.63658 39.5384 6.75949 39.7469C6.8824 39.9554 7.05145 40.133 7.25366 40.266C7.45587 40.3991 7.68588 40.484 7.92602 40.5143C8.16616 40.5447 8.41006 40.5196 8.639 40.441C9.93421 40.2067 10.5405 39.3387 10.5818 37.4372L10.7058 31.2505L13.7372 30.6993L13.6132 37.0927C13.6132 40.4548 11.9321 42.4803 8.72167 43.0452C5.95212 43.5412 3.98175 42.3425 3.54082 39.9587Z" fill="white"/>
<path d="M27.2819 28.288L27.0752 39.5453L24.2368 40.0552L24.3194 34.1165L21.5637 39.4213L20.1858 39.6694L17.43 35.3566L17.2509 41.3366L14.4951 41.8464L14.7294 30.5753L17.2233 30.1344L20.9023 35.9766L24.719 28.7978L27.2819 28.288Z" fill="white"/>
<path d="M31.2086 30.0379V31.9256L36.045 31.0713V33.4413L31.1949 34.3094V36.3762L36.8855 35.3565L36.8166 37.823L28.1084 39.38L28.3289 28.1089L36.8442 26.5932V29.0596L31.2086 30.0379Z" fill="white"/>
<path d="M47.7715 24.6227L47.5373 35.8249L44.4646 36.3761L44.5473 32.0082L40.4136 32.7523L40.2758 37.2028L37.2031 37.7264L37.4374 26.4691L40.51 25.918L40.4274 30.1343L44.561 29.3902V25.1739L47.7715 24.6227Z" fill="white"/>
<path d="M64.6092 21.6051L64.4025 32.8762L61.564 33.3722L61.6605 27.4473L58.9047 32.7522L57.5268 33.0002L54.7711 28.6874L54.647 34.6261L51.8086 35.1359L52.0428 23.8648L54.4955 23.4239L58.1606 29.2524L62.005 22.046L64.6092 21.6051Z" fill="white"/>
<path d="M64.9808 28.0539C64.8076 27.1717 64.8183 26.2633 65.0124 25.3854C65.2065 24.5076 65.5798 23.6792 66.1088 22.9523C66.6378 22.2254 67.3112 21.6155 68.0869 21.1609C68.8625 20.7063 69.7236 20.4166 70.6163 20.3102C73.9508 19.7177 76.3759 21.3161 76.8719 24.127C77.0473 25.0083 77.0385 25.9164 76.8462 26.7943C76.6538 27.6721 76.2819 28.5006 75.754 29.2278C75.226 29.955 74.5534 30.5652 73.7783 31.02C73.0033 31.4748 72.1425 31.7645 71.2502 31.8707C67.9157 32.4632 65.4906 30.8648 64.9808 28.0539ZM73.7993 24.871C73.7577 24.532 73.6424 24.2062 73.4617 23.9165C73.2809 23.6267 73.0389 23.38 72.7528 23.1936C72.4666 23.0072 72.1431 22.8856 71.805 22.8374C71.4669 22.7891 71.1223 22.8154 70.7955 22.9144C70.3163 23.0039 69.8608 23.1917 69.4579 23.466C69.0549 23.7403 68.7132 24.0952 68.4542 24.5082C68.1953 24.9212 68.0248 25.3834 67.9534 25.8656C67.8821 26.3478 67.9115 26.8396 68.0397 27.3099C68.0799 27.6485 68.1935 27.9743 68.3726 28.2644C68.5518 28.5546 68.7921 28.8022 69.0769 28.9898C69.3616 29.1774 69.6839 29.3006 70.0212 29.3508C70.3585 29.401 70.7027 29.3769 71.0297 29.2802C71.5097 29.1888 71.9657 28.9995 72.3692 28.7239C72.7727 28.4484 73.1151 28.0927 73.375 27.6789C73.6349 27.2652 73.8067 26.8023 73.8797 26.3192C73.9527 25.8361 73.9253 25.3431 73.7993 24.871Z" fill="white"/>
<path d="M79.5729 21.4538L76.2246 22.0463V19.5248L85.9663 17.7748V20.3102L82.6731 20.9026L82.4802 29.6384L79.4075 30.1896L79.5729 21.4538Z" fill="white"/>
<path d="M85.195 24.4438C85.0217 23.5626 85.032 22.6551 85.2253 21.7781C85.4186 20.9011 85.7906 20.0734 86.3182 19.3467C86.8458 18.62 87.5176 18.0098 88.2916 17.5545C89.0656 17.0991 89.9252 16.8082 90.8167 16.7C94.165 16.1076 96.5763 17.7059 97.0861 20.5168C97.2615 21.3982 97.2527 22.3063 97.0603 23.1841C96.8679 24.0619 96.4961 24.8904 95.9681 25.6177C95.4402 26.3449 94.7676 26.9551 93.9925 27.4099C93.2174 27.8647 92.3567 28.1543 91.4643 28.2605C88.185 28.853 85.7048 27.2546 85.195 24.4438ZM94.0134 21.2608C93.9714 20.9217 93.8561 20.5957 93.6754 20.3056C93.4948 20.0154 93.2533 19.768 92.9675 19.5806C92.6817 19.3931 92.3586 19.2701 92.0205 19.22C91.6824 19.1699 91.3375 19.1939 91.0097 19.2905C90.5319 19.3854 90.0786 19.5771 89.6777 19.8538C89.2768 20.1305 88.9368 20.4863 88.6786 20.8994C88.4205 21.3125 88.2496 21.774 88.1766 22.2556C88.1035 22.7372 88.1298 23.2287 88.2539 23.6997C88.2977 24.0377 88.4144 24.3621 88.5957 24.6506C88.7771 24.9391 89.0189 25.1848 89.3045 25.3708C89.59 25.5568 89.9125 25.6787 90.2497 25.728C90.5869 25.7772 90.9308 25.7528 91.2577 25.6563C91.7349 25.5631 92.1879 25.3729 92.5888 25.0976C92.9896 24.8223 93.3296 24.4677 93.5879 24.0557C93.8462 23.6437 94.0173 23.1831 94.0905 22.7024C94.1636 22.2217 94.1374 21.731 94.0134 21.2608Z" fill="white"/>
<path d="M105.05 22.2391L107.475 25.174L104.251 25.7389L102.142 23.1485L100.585 23.4241V26.4141L97.499 26.9653L97.7333 15.6942L102.377 14.8674C105.133 14.3714 106.993 15.3772 107.378 17.6232C107.548 18.5414 107.412 19.4898 106.992 20.3235C106.571 21.1571 105.889 21.83 105.05 22.2391ZM102.294 17.3752L100.682 17.6508L100.585 20.9577L102.459 20.6683C103.837 20.4341 104.485 19.6349 104.278 18.4361C104.113 17.4854 103.341 17.1823 102.322 17.3752H102.294Z" fill="white"/>
<path d="M107.048 24.2646L107.847 21.7569C109.054 22.2535 110.378 22.3969 111.664 22.1702C112.849 21.9635 113.469 21.4675 113.359 20.875C113.097 19.4145 107.957 21.1781 107.351 17.7472C106.924 15.4048 108.729 13.5171 111.87 12.9384C113.243 12.6327 114.674 12.7138 116.004 13.1726L115.301 15.6528C114.306 15.2663 113.223 15.1661 112.174 15.3635C110.892 15.5839 110.3 16.1764 110.396 16.7414C110.658 18.2295 115.797 16.4382 116.39 19.7865C116.817 22.1151 115.012 24.0304 111.857 24.5953C110.255 24.9428 108.587 24.8281 107.048 24.2646Z" fill="white"/>
</g>
<defs>
<clipPath id="clip0">
<rect width="120" height="50.4995" fill="white"/>
</clipPath>
</defs>
</svg>
