<svg width="100" height="47" viewBox="0 0 100 47" fill="none" xmlns="http://www.w3.org/2000/svg">
<path d="M23.9592 28.3866L18.4021 35.8659V28.7601V11.2326L27.6032 22.8751L32.3404 23.0026L14.749 0V28.8603V46.8252L28.915 27.8947L29.2339 27.4756H24.6333L23.9592 28.3866Z" fill="white"/>
<path d="M7.85278 27.4938V35.3193L3.78974 29.3705V25.6263V10.1484L0 15.2956V23.4763V31.8028L11.9067 46.6885V28.6781V0.136597L7.85278 4.46383V27.4938Z" fill="white"/>
<path d="M48.7288 27.594C47.1986 28.6246 45.367 29.1122 43.527 28.9787C38.802 28.9787 36.4395 26.9411 36.4395 22.866V13.3552H38.6258V22.866C38.5789 23.4399 38.66 24.0171 38.8632 24.5559C39.0664 25.0947 39.3867 25.5816 39.801 25.9816C40.8948 26.7485 42.2233 27.1064 43.5543 26.9928C44.8892 27.1028 46.2204 26.7418 47.3167 25.9725C47.7287 25.5885 48.0478 25.1158 48.2499 24.5902C48.4519 24.0646 48.5316 23.4998 48.4828 22.9388V13.3552H50.6692V22.9115C50.7377 23.7871 50.6003 24.6667 50.2681 25.4797C49.936 26.2928 49.4181 27.0168 48.7561 27.594" fill="white"/>
<path d="M67.5868 28.8239V17.9193L61.6836 28.8239H60.1075L54.2043 17.9193V28.8239H52.0088V13.3552H54.1587L60.8819 25.7903L67.6415 13.3552H69.7823V28.8239H67.5868Z" fill="white"/>
<path d="M71.1484 28.8239V13.3552H83.9388V15.3411H73.3166V19.7868H82.7363V21.7728H73.3166V26.8379H84.0573V28.8239H71.1484Z" fill="white"/>
<path d="M97.814 28.8239V21.7728H87.5744V28.8239H85.3789V13.3552H87.5744V19.7868H97.814V13.3552H100V28.8239H97.814Z" fill="white"/>
<path d="M42.8899 35.5289H40.1569V34.709H43.728C43.7633 34.9352 43.7846 35.1634 43.7918 35.3922C43.8172 35.7899 43.741 36.1875 43.5705 36.5476C43.4 36.9078 43.1407 37.2187 42.817 37.4511C42.1431 37.9054 41.3427 38.135 40.5304 38.107C39.5774 38.158 38.6373 37.8673 37.8795 37.2871C37.5333 36.9969 37.2592 36.6303 37.079 36.216C36.8988 35.8018 36.8173 35.3514 36.8409 34.9003C36.8198 34.4552 36.898 34.0109 37.0698 33.5997C37.2415 33.1884 37.5025 32.8205 37.8339 32.5226C38.5649 31.8973 39.5055 31.5718 40.4667 31.6116C41.1756 31.5873 41.8788 31.7474 42.5073 32.0762C42.8464 32.314 43.1307 32.6215 43.3413 32.9782C43.5518 33.3349 43.6837 33.7324 43.728 34.1442H42.817C42.7215 33.6347 42.4428 33.1778 42.0336 32.8597C41.5419 32.567 40.9742 32.4274 40.4029 32.4588C39.6746 32.4157 38.9565 32.6464 38.3896 33.1056C38.1433 33.3375 37.9517 33.6213 37.8288 33.9365C37.7059 34.2516 37.6547 34.5902 37.679 34.9276C37.6518 35.2661 37.7026 35.6063 37.8273 35.9222C37.9521 36.238 38.1476 36.5211 38.3987 36.7496C38.9866 37.2008 39.7179 37.424 40.4576 37.3782C41.0601 37.3952 41.6538 37.2301 42.1611 36.9045C42.3973 36.7643 42.5903 36.5618 42.7188 36.3191C42.8474 36.0764 42.9066 35.803 42.8899 35.5289Z" fill="white"/>
<path d="M45.9323 34.7729C45.6649 35.1873 45.5313 35.6739 45.5497 36.1667V38.0434H44.6387V33.4884H45.5497V33.9074C46.1377 33.524 46.8356 33.3447 47.5356 33.3973V34.1898C47.2381 34.1495 46.9353 34.1832 46.6539 34.2881C46.3726 34.393 46.1216 34.5658 45.9232 34.7911" fill="white"/>
<path d="M52.4556 37.4785C51.9092 37.9092 51.2337 38.1435 50.5379 38.1435C49.8422 38.1435 49.1667 37.9092 48.6203 37.4785C48.3856 37.261 48.2005 36.9953 48.0779 36.6998C47.9553 36.4042 47.8979 36.0856 47.9097 35.7658C47.9007 35.4442 47.9602 35.1243 48.0843 34.8275C48.2084 34.5306 48.3942 34.2635 48.6294 34.044C49.1607 33.5833 49.8492 33.3451 50.5516 33.379C51.2518 33.3417 51.9386 33.5805 52.4647 34.044C52.6987 34.264 52.8832 34.5314 53.0057 34.8283C53.1282 35.1252 53.186 35.4448 53.1753 35.7658C53.1872 36.0864 53.1289 36.4058 53.0046 36.7016C52.8803 36.9974 52.693 37.2626 52.4556 37.4785ZM51.827 34.6179C51.4697 34.3155 51.0098 34.1622 50.5425 34.1898C50.313 34.1754 50.0829 34.2066 49.8656 34.2817C49.6482 34.3567 49.4479 34.4741 49.2762 34.627C48.9835 34.9394 48.8206 35.3514 48.8206 35.7795C48.8206 36.2075 48.9835 36.6195 49.2762 36.9319C49.4482 37.0844 49.6486 37.2015 49.8658 37.2765C50.0831 37.3516 50.3131 37.383 50.5425 37.3691C51.0079 37.3918 51.4643 37.2353 51.8179 36.9319C51.9724 36.7845 52.0938 36.6059 52.1739 36.408C52.254 36.2101 52.291 35.9974 52.2825 35.784C52.2914 35.5687 52.2554 35.3539 52.177 35.1532C52.0986 34.9525 51.9794 34.7702 51.827 34.6179Z" fill="white"/>
<path d="M57.4379 38.0615V37.7426C57.0035 38.0199 56.4955 38.1596 55.9803 38.1435C55.44 38.1713 54.9055 38.0209 54.459 37.7153C54.2538 37.5621 54.0898 37.3604 53.9817 37.1283C53.8736 36.8962 53.8247 36.6409 53.8395 36.3852V33.4883H54.7505V36.3761C54.7505 37.0321 55.1695 37.3509 55.9986 37.3509C56.1931 37.3823 56.3923 37.3678 56.5802 37.3087C56.7682 37.2496 56.9398 37.1474 57.0813 37.0103C57.2229 36.8732 57.3304 36.7049 57.3955 36.5189C57.4606 36.3329 57.4813 36.1343 57.4561 35.9389V33.4883H58.3671V38.0433L57.4379 38.0615Z" fill="white"/>
<path d="M63.7699 37.5787C63.523 37.8259 63.2264 38.0179 62.8997 38.1419C62.5731 38.266 62.2238 38.3193 61.875 38.2983C61.2832 38.3208 60.7025 38.1337 60.2352 37.77V39.592H59.3242V33.4792H60.2352V33.8982C60.7601 33.5309 61.3923 33.3486 62.0322 33.3799C62.6721 33.4113 63.2834 33.6545 63.7699 34.0713C64.2084 34.5458 64.441 35.1748 64.4167 35.8204C64.4429 36.4675 64.2139 37.0989 63.779 37.5787H63.7699ZM63.0684 34.6179C62.9158 34.4607 62.7308 34.3386 62.5263 34.26C62.3219 34.1813 62.1027 34.148 61.8841 34.1624C61.6582 34.1499 61.4321 34.1829 61.2192 34.2596C61.0064 34.3363 60.8111 34.4551 60.6452 34.6088C60.4945 34.7639 60.3773 34.9482 60.3005 35.1503C60.2237 35.3524 60.1891 35.568 60.1988 35.784C60.1666 36.0112 60.1878 36.2429 60.2608 36.4604C60.3338 36.678 60.4565 36.8756 60.6193 37.0375C60.782 37.1993 60.9802 37.321 61.1982 37.3928C61.4162 37.4646 61.6479 37.4846 61.875 37.4511C62.0971 37.4646 62.3194 37.4301 62.5269 37.3499C62.7344 37.2697 62.9222 37.1458 63.0775 36.9865C63.3614 36.6597 63.5054 36.2343 63.4784 35.8022C63.4972 35.3697 63.3506 34.9463 63.0684 34.6179Z" fill="white"/>
<path d="M68.9805 38.0432V31.7118H69.8732V37.2324H73.8634V38.0432H68.9805Z" fill="white"/>
<path d="M74.7019 32.9871C74.6034 32.9871 74.5075 32.9552 74.4286 32.896C74.3498 32.8369 74.2922 32.7538 74.2646 32.6592V31.9668C74.2955 31.8733 74.3536 31.7913 74.4315 31.7312C74.5095 31.6711 74.6037 31.6358 74.7019 31.6298C74.7948 31.6451 74.8837 31.6788 74.9635 31.7289C75.0432 31.7789 75.1123 31.8443 75.1665 31.9213V32.7138C75.1125 32.7893 75.0432 32.8526 74.9632 32.8997C74.8831 32.9467 74.7942 32.9765 74.7019 32.9871ZM74.2646 33.2969H75.1756V38.0432H74.2646V33.2969Z" fill="white"/>
<path d="M82.4265 38.043V35.1187C82.4377 34.9876 82.4226 34.8555 82.3819 34.7303C82.3412 34.6052 82.2758 34.4894 82.1896 34.3899C81.9675 34.2237 81.6915 34.1458 81.4153 34.1713C81.0878 34.1554 80.7653 34.2554 80.5043 34.4537C80.3968 34.5513 80.3118 34.6711 80.2551 34.8048C80.1985 34.9385 80.1716 35.0829 80.1763 35.2281V38.043H79.2562V35.1187C79.2708 34.9867 79.2564 34.853 79.2139 34.7271C79.1714 34.6012 79.1019 34.4861 79.0102 34.3899C78.7803 34.2255 78.4994 34.148 78.2177 34.1713C78.0451 34.1627 77.8729 34.1945 77.7148 34.2641C77.5567 34.3336 77.4169 34.4391 77.3067 34.5721C77.0964 34.8282 76.9863 35.152 76.9969 35.4831V38.0248H76.0859V33.4698H76.9969V33.7067C77.3932 33.4534 77.857 33.3263 78.327 33.3423C78.601 33.3219 78.8761 33.3638 79.1317 33.4647C79.3873 33.5657 79.6167 33.7232 79.8028 33.9253C80.0135 33.7202 80.2654 33.5621 80.5419 33.4616C80.8183 33.3611 81.1129 33.3204 81.4062 33.3423C81.9175 33.3078 82.4245 33.4563 82.8364 33.7614C83.005 33.9186 83.1365 34.1113 83.2216 34.3256C83.3067 34.5398 83.3431 34.7703 83.3284 35.0003V38.0066L82.4265 38.043Z" fill="white"/>
<path d="M84.7231 32.9871C84.6253 32.9882 84.53 32.9565 84.4524 32.897C84.3748 32.8376 84.3194 32.7538 84.2949 32.6592V31.9668C84.3229 31.8734 84.3791 31.7909 84.4557 31.7306C84.5323 31.6702 84.6257 31.635 84.7231 31.6298C84.8166 31.6431 84.9063 31.6759 84.9864 31.7261C85.0664 31.7764 85.135 31.8428 85.1877 31.9213V32.7138C85.1336 32.7893 85.0643 32.8526 84.9843 32.8997C84.9043 32.9467 84.8153 32.9765 84.7231 32.9871ZM84.2949 33.2969H85.2059V38.0432H84.2949V33.2969Z" fill="white"/>
<path d="M87.583 34.3901V38.0431H86.6994L86.6812 34.3901H85.752V33.5793H86.6812V32.313H87.583V33.5793H88.5214V34.3901H87.583Z" fill="white"/>
<path d="M89.7242 36.1209C89.8335 36.9408 90.3801 37.3508 91.364 37.3508C91.7111 37.382 92.0589 37.2993 92.3548 37.1152C92.6506 36.9311 92.8785 36.6556 93.0038 36.3305H93.9148C93.7562 36.9558 93.3567 37.4929 92.8034 37.8245C92.3481 38.0498 91.8444 38.1593 91.3367 38.1434C90.9909 38.1661 90.6441 38.119 90.317 38.0047C89.9898 37.8905 89.6891 37.7114 89.4327 37.4783C89.0156 37.0011 88.7918 36.3852 88.8053 35.7515C88.8187 35.1178 89.0685 34.512 89.5056 34.053C89.7574 33.8208 90.0532 33.6415 90.3756 33.5257C90.6979 33.4099 91.0402 33.3599 91.3822 33.3788C92.057 33.3463 92.7207 33.56 93.2498 33.9801C93.4829 34.1792 93.6679 34.4286 93.791 34.7094C93.9141 34.9902 93.972 35.2953 93.9604 35.6017V36.1118L89.7242 36.1209ZM92.5939 34.5722C92.242 34.3186 91.8174 34.1859 91.3838 34.1941C90.9501 34.2023 90.5308 34.351 90.1888 34.6178C89.9701 34.8199 89.8177 35.0835 89.7516 35.3739H93.0038C92.9553 35.0832 92.811 34.817 92.5939 34.6178" fill="white"/>
<path d="M98.4971 38.0523V37.6059C98.0163 37.9783 97.4194 38.1686 96.8118 38.1434C96.4743 38.1535 96.1384 38.094 95.825 37.9686C95.5115 37.8432 95.2272 37.6546 94.9898 37.4146C94.5701 36.9321 94.3389 36.3142 94.3389 35.6746C94.3389 35.0351 94.5701 34.4171 94.9898 33.9346C95.2366 33.6867 95.533 33.4936 95.8595 33.3681C96.186 33.2425 96.5353 33.1872 96.8847 33.2058C97.4776 33.1847 98.0597 33.3681 98.5336 33.7251V31.7118H99.4446V38.0888L98.4971 38.0523ZM98.069 34.463C97.8983 34.308 97.6983 34.1887 97.4809 34.112C97.2634 34.0354 97.0329 34.0029 96.8027 34.0166C96.5828 34.0052 96.363 34.0416 96.1585 34.1234C95.954 34.2051 95.7698 34.3304 95.6184 34.4903C95.331 34.8234 95.1811 35.2533 95.1993 35.6928C95.1762 36.1189 95.32 36.5372 95.6002 36.8589C95.7536 37.0213 95.9408 37.1479 96.1486 37.2298C96.3565 37.3117 96.5798 37.3468 96.8027 37.3326C97.0286 37.3437 97.2544 37.3081 97.4659 37.2282C97.6775 37.1483 97.8704 37.0257 98.0325 36.868C98.186 36.7142 98.3064 36.5305 98.3863 36.3284C98.4661 36.1263 98.5039 35.9101 98.4971 35.6928C98.52 35.2428 98.3664 34.8016 98.069 34.463Z" fill="white"/>
</svg>
