<svg width="110" height="49" viewBox="0 0 110 49" fill="none" xmlns="http://www.w3.org/2000/svg">
<g clip-path="url(#clip0)">
<path d="M26.3011 29.607C25.8776 29.6327 25.4543 29.5534 25.0687 29.3762C24.9175 29.2668 24.7992 29.1181 24.7266 28.9462C24.6539 28.7743 24.6298 28.5858 24.6568 28.4012V19.4618C24.6447 19.1812 24.5571 18.909 24.4034 18.6738C24.2497 18.4387 24.0355 18.2493 23.7833 18.1256C22.8348 17.6921 21.7917 17.5071 20.752 17.5879H19.313C18.7149 17.5772 18.1171 17.624 17.5279 17.7275C17.1281 17.7975 16.7423 17.9319 16.3856 18.1256C16.1419 18.2525 15.9384 18.4447 15.7978 18.6807C15.6572 18.9167 15.585 19.1872 15.5894 19.4618V28.4C15.6163 28.5847 15.5922 28.7732 15.5196 28.9451C15.447 29.117 15.3286 29.2657 15.1774 29.3751C14.7923 29.5521 14.3693 29.6314 13.9462 29.6058C13.5149 29.6406 13.0826 29.5517 12.7 29.3497C12.5643 29.2345 12.4593 29.0874 12.3945 28.9217C12.3296 28.7559 12.3069 28.5767 12.3284 28.4V19.4618C12.3285 19.207 12.2667 18.9559 12.1484 18.7302C12.0037 18.4745 11.7897 18.2649 11.5311 18.1256C11.1734 17.9313 10.7863 17.7969 10.3852 17.7275C9.79604 17.6239 9.19826 17.5771 8.60013 17.5879H7.16581C6.12613 17.5074 5.08305 17.6924 4.13449 18.1256C3.88228 18.2493 3.66806 18.4387 3.51435 18.6738C3.36064 18.909 3.27311 19.1812 3.26098 19.4618V28.4C3.2882 28.5843 3.26454 28.7726 3.19255 28.9444C3.12056 29.1163 3.00297 29.2652 2.8525 29.3751C2.46608 29.5521 2.04207 29.6313 1.61781 29.6058C1.19832 29.6325 0.778875 29.5531 0.398128 29.3751C0.250867 29.2628 0.136304 29.1132 0.0663075 28.9417C-0.00368869 28.7703 -0.0265717 28.5833 2.9033e-05 28.4V19.4618C-0.0391547 18.7972 0.100788 18.1343 0.405248 17.5422C0.709708 16.9501 1.16752 16.4506 1.7309 16.0959C3.2183 15.2793 4.90508 14.8967 6.59924 14.9916H9.13785C10.8386 14.8603 12.5332 15.3134 13.9416 16.2759C15.3598 15.316 17.0607 14.8634 18.7684 14.9916H21.307C23.0008 14.8964 24.6873 15.2791 26.1742 16.0959C26.7377 16.4504 27.1957 16.9499 27.5002 17.542C27.8046 18.1341 27.9445 18.7972 27.9051 19.4618V28.4C27.9317 28.5833 27.9088 28.7703 27.8388 28.9417C27.7688 29.1132 27.6542 29.2628 27.507 29.3751C27.1305 29.5514 26.7161 29.6311 26.3011 29.607Z" fill="white"/>
<path d="M48.7456 14.89C49.1647 14.8626 49.584 14.942 49.9641 15.1208C50.1116 15.2329 50.2264 15.3825 50.2966 15.5539C50.3668 15.7254 50.3898 15.9125 50.3634 16.0958V25.0352C50.3634 28.0153 47.9402 29.505 43.0937 29.5043H36.9561C32.1097 29.5043 29.6864 28.0146 29.6864 25.0352V16.0958C29.6596 15.9113 29.6837 15.723 29.7561 15.5511C29.8285 15.3793 29.9464 15.2305 30.0972 15.1208C30.4827 14.9432 30.9061 14.8639 31.3296 14.89C31.7491 14.8626 32.1688 14.942 32.5493 15.1208C32.6966 15.2331 32.8111 15.3827 32.8811 15.5541C32.9511 15.7255 32.974 15.9126 32.9474 16.0958V25.0352C32.9686 25.3268 33.0714 25.6067 33.244 25.8427C33.4166 26.0788 33.6521 26.2616 33.9236 26.3703C34.9107 26.7946 35.9843 26.9792 37.0565 26.9091H42.9922C44.0647 26.9791 45.1386 26.7944 46.1262 26.3703C46.3974 26.2615 46.6326 26.0786 46.8048 25.8425C46.977 25.6064 47.0793 25.3267 47.1001 25.0352V16.0958C47.0731 15.9112 47.0973 15.7227 47.1699 15.5508C47.2425 15.3789 47.3608 15.2302 47.5121 15.1208C47.8977 14.9428 48.3216 14.8635 48.7456 14.89Z" fill="white"/>
<path d="M51.9052 18.8445C51.8917 18.2796 52.0269 17.7211 52.2973 17.2249C52.5677 16.7287 52.9637 16.3123 53.4457 16.0174C54.8392 15.2427 56.4265 14.8862 58.0175 14.9904H61.5369C61.6822 14.9688 61.8307 14.9873 61.9663 15.0438C62.102 15.1003 62.2196 15.1928 62.3066 15.3112C62.4463 15.6212 62.5081 15.9607 62.4866 16.3001C62.5068 16.6312 62.445 16.9622 62.3066 17.2636C62.2197 17.3822 62.1021 17.4749 61.9665 17.5316C61.8309 17.5884 61.6823 17.607 61.5369 17.5856H57.9921C57.2562 17.5423 56.5197 17.6605 55.8343 17.9317C55.6389 18.0016 55.4688 18.128 55.3455 18.2948C55.2222 18.4617 55.1513 18.6615 55.1419 18.8687V19.5357C55.1546 19.7471 55.2295 19.95 55.3572 20.119C55.4849 20.288 55.6597 20.4154 55.8597 20.4853C56.5782 20.7678 57.3495 20.8906 58.1202 20.8454H63.7974C65.5892 20.7112 67.3838 21.0657 68.99 21.8712C69.488 22.1653 69.8982 22.5872 70.1782 23.0932C70.4582 23.5992 70.5977 24.1709 70.5824 24.749V25.5695C70.6026 26.1623 70.4541 26.7488 70.1542 27.2606C69.8544 27.7725 69.4155 28.1888 68.8885 28.4612C68.1815 28.8382 67.4181 29.0981 66.628 29.2308C65.5347 29.4254 64.4254 29.5158 63.3151 29.5008H52.9068C52.7612 29.5225 52.6124 29.504 52.4766 29.4472C52.3407 29.3905 52.2229 29.2977 52.136 29.1789C51.9962 28.8689 51.9344 28.5294 51.956 28.19C51.936 27.8589 51.9978 27.528 52.136 27.2265C52.2231 27.1079 52.3409 27.0153 52.4767 26.9588C52.6126 26.9022 52.7613 26.8839 52.9068 26.9057H63.7963C64.3665 26.9126 64.9366 26.8825 65.5029 26.8157C65.8723 26.7766 66.2353 26.6905 66.583 26.5595C66.8012 26.4824 66.9926 26.3442 67.1345 26.1614C67.2385 26.0012 67.2919 25.8135 67.288 25.6225V24.6994C67.2921 24.5085 67.2387 24.3207 67.1345 24.1605C66.9949 23.9775 66.8089 23.8353 66.5957 23.7486C66.264 23.61 65.9143 23.5194 65.5571 23.4797C65.0073 23.4139 64.4538 23.3842 63.9001 23.3909H58.1467C56.5242 23.4965 54.9047 23.1447 53.4722 22.3754C52.9877 22.0927 52.5872 21.6861 52.3119 21.1973C52.0365 20.7086 51.8961 20.1554 51.9052 19.5945V18.8445Z" fill="white"/>
<path d="M96.1544 29.5042C91.308 29.5042 88.8848 28.0145 88.8848 25.0351V19.4617C88.8848 16.4816 91.308 14.9919 96.1544 14.9927H108.999C109.144 14.9711 109.292 14.9895 109.428 15.0461C109.564 15.1026 109.681 15.195 109.768 15.3134C109.908 15.6235 109.97 15.963 109.948 16.3023C109.968 16.6334 109.907 16.9644 109.768 17.2659C109.681 17.3845 109.564 17.4772 109.428 17.5339C109.293 17.5906 109.144 17.6093 108.999 17.5878H96.2594C95.187 17.5176 94.1131 17.7019 93.1254 18.1255C92.8538 18.2344 92.6183 18.4174 92.4457 18.6537C92.2731 18.8899 92.1703 19.1699 92.1492 19.4617V25.0351C92.1744 25.3241 92.2789 25.6004 92.4511 25.8338C92.6234 26.0671 92.8567 26.2483 93.1254 26.3575C94.1104 26.7911 95.1856 26.9803 96.2594 26.9091H109.078C109.473 26.9091 109.724 27.0164 109.836 27.2299C109.964 27.5342 110.021 27.8638 110.002 28.1934C110.02 28.5271 109.963 28.8605 109.836 29.1696C109.721 29.3923 109.473 29.5042 109.078 29.5042H96.1544Z" fill="white"/>
<path d="M80.4069 28.6297L68.6486 13.5135C73.9081 5.7165 85.8592 6.16191 89.734 12.3792C83.8767 9.01091 78.4337 9.0813 73.0023 13.3565C74.957 15.9263 76.9256 18.3057 78.6565 20.8408C81.5228 25.026 84.3441 29.247 86.9888 33.5731C88.163 35.4417 88.6676 37.6538 88.4198 39.8468C88.172 42.0397 87.1865 44.0835 85.6249 45.643C84.1508 47.1555 82.2314 48.1565 80.1474 48.4998C78.0635 48.843 75.9244 48.5103 74.0431 47.5504C72.1234 46.5627 70.5735 44.9821 69.6237 43.0434C68.6739 41.1047 68.3748 38.9112 68.7709 36.789C69.1947 34.6262 70.33 32.6673 71.996 31.2244C73.662 29.7816 75.7629 28.9376 77.9641 28.827C78.6518 28.7682 79.3396 28.7174 80.4069 28.6297Z" fill="white"/>
<path d="M12.2634 2.63442C12.5325 2.61797 12.8015 2.66914 13.0458 2.78327C13.1401 2.85565 13.2135 2.95184 13.2583 3.06197C13.3031 3.17209 13.3178 3.29217 13.3008 3.40985V9.13786C13.3008 11.0472 11.7476 12.0022 8.6413 12.003H4.70647C1.60014 12.003 0.0469742 11.048 0.0469742 9.13786V3.40869C0.0296295 3.2902 0.0449662 3.16921 0.09133 3.05879C0.137694 2.94838 0.213325 2.85271 0.310066 2.78212C0.557646 2.66945 0.828935 2.61876 1.10049 2.63442C1.36959 2.61841 1.63843 2.66956 1.88285 2.78327C1.97736 2.85548 2.05085 2.95166 2.09569 3.06183C2.14053 3.172 2.15509 3.29215 2.13786 3.40985V9.13786C2.15109 9.32479 2.2168 9.50419 2.32744 9.65545C2.43807 9.8067 2.58914 9.92367 2.76328 9.99291C3.39605 10.2658 4.08462 10.3845 4.77224 10.3391H8.58014C9.26776 10.3843 9.95629 10.2657 10.5891 9.99291C10.7632 9.92367 10.9143 9.8067 11.0249 9.65545C11.1356 9.50419 11.2013 9.32479 11.2145 9.13786V3.40869C11.1976 3.29022 11.2131 3.16937 11.2594 3.05902C11.3057 2.94867 11.3812 2.85297 11.4776 2.78212C11.7238 2.67019 11.9934 2.61951 12.2634 2.63442Z" fill="white"/>
<path d="M32.3322 12.0687C32.0605 12.0845 31.7891 12.0334 31.5418 11.9198C31.4451 11.8494 31.3696 11.754 31.3232 11.6437C31.2768 11.5335 31.2614 11.4127 31.2787 11.2944V5.56525C31.2708 5.38545 31.2148 5.21107 31.1166 5.06028C31.0183 4.90948 30.8815 4.78779 30.7202 4.70789C30.1116 4.4304 29.4428 4.31131 28.7759 4.36172H27.8527C27.4688 4.35509 27.0852 4.38484 26.7069 4.45057C26.4509 4.49579 26.2039 4.58189 25.9753 4.70558C25.8191 4.78701 25.6886 4.91036 25.5985 5.06179C25.5084 5.21323 25.4623 5.38676 25.4653 5.56294V11.3002C25.4825 11.4185 25.4672 11.5393 25.4208 11.6495C25.3744 11.7597 25.2988 11.8552 25.2022 11.9256C24.9549 12.0393 24.6835 12.0905 24.4118 12.0745C24.1353 12.0964 23.8584 12.0392 23.6133 11.9094C23.5263 11.8355 23.459 11.7411 23.4173 11.6348C23.3756 11.5285 23.3609 11.4136 23.3744 11.3002V5.56525C23.3774 5.38907 23.3313 5.21553 23.2412 5.0641C23.1511 4.91267 23.0206 4.78932 22.8644 4.70789C22.6358 4.5842 22.3888 4.49809 22.1328 4.45288C21.7545 4.38715 21.3709 4.3574 20.987 4.36402H20.0638C19.3973 4.31341 18.7287 4.43251 18.1207 4.7102C17.9589 4.78955 17.8215 4.91107 17.723 5.06196C17.6245 5.21285 17.5685 5.38752 17.561 5.56755V11.3002C17.5783 11.4185 17.5629 11.5393 17.5165 11.6495C17.4701 11.7597 17.3946 11.8552 17.2979 11.9256C17.0506 12.0393 16.7792 12.0905 16.5075 12.0745C16.2383 12.0914 15.9692 12.0403 15.7251 11.9256C15.6304 11.8538 15.5568 11.7579 15.5119 11.6478C15.467 11.5378 15.4526 11.4177 15.4701 11.3002V5.56525C15.4451 5.13918 15.535 4.71422 15.7305 4.33482C15.926 3.95542 16.2199 3.63552 16.5813 3.40859C17.5329 2.88513 18.6125 2.63963 19.6969 2.70009H21.3274C22.4175 2.61554 23.5038 2.90625 24.406 3.52398C25.3152 2.90827 26.4058 2.61793 27.5008 2.70009H29.137C30.2215 2.63925 31.3011 2.88478 32.2526 3.40859C32.6141 3.63552 32.9079 3.95542 33.1034 4.33482C33.2989 4.71422 33.3888 5.13918 33.3638 5.56525V11.3002C33.3813 11.4177 33.3669 11.5378 33.322 11.6478C33.2771 11.7579 33.2035 11.8538 33.1088 11.9256C32.8658 12.0368 32.5989 12.086 32.3322 12.0687Z" fill="white"/>
<path d="M37.551 8.30006V9.14011C37.5671 9.32519 37.6341 9.50223 37.7444 9.65169C37.8548 9.80114 38.0043 9.91721 38.1764 9.98708C38.8079 10.2647 39.4971 10.3859 40.1854 10.3402H42.0801C42.3328 10.3402 42.4932 10.4094 42.5659 10.5467C42.6486 10.742 42.6853 10.9536 42.6732 11.1652C42.6846 11.3791 42.648 11.5928 42.5659 11.7906C42.4944 11.9326 42.3351 12.0041 42.0801 12.0041H40.1185C37.0121 12.0041 35.459 11.0491 35.459 9.13896V5.56529C35.459 3.65596 37.0121 2.7009 40.1185 2.70013H43.9264C45.1572 2.60776 46.39 2.85271 47.492 3.40863C47.8498 3.6382 48.14 3.95908 48.3325 4.33819C48.525 4.7173 48.6129 5.1409 48.587 5.56529V7.45886C48.6131 7.69358 48.5483 7.92938 48.4059 8.11774C48.1659 8.27032 47.8801 8.33401 47.5981 8.29775L37.551 8.30006ZM37.551 6.67074H46.4927V5.56529C46.4893 5.37271 46.4288 5.18547 46.3189 5.02729C46.209 4.86911 46.0546 4.74712 45.8753 4.67678C45.2335 4.4282 44.5453 4.32191 43.8583 4.36523H40.1854C39.4979 4.32167 38.8097 4.44024 38.1764 4.7114C38.0025 4.78161 37.8517 4.89915 37.7412 5.05068C37.6306 5.20222 37.5648 5.38169 37.551 5.56876V6.67074Z" fill="white"/>
<path d="M51.6501 12.0676C51.3809 12.0846 51.1118 12.0334 50.8677 11.9187C50.773 11.847 50.6994 11.751 50.6545 11.641C50.6096 11.5309 50.5952 11.4109 50.6127 11.2933V0.774276C50.5953 0.656745 50.6098 0.536704 50.6547 0.426689C50.6995 0.316674 50.7731 0.220723 50.8677 0.148856C51.1116 0.033532 51.3809 -0.0177 51.6501 1.57626e-06C51.9218 -0.0165304 52.1934 0.0346157 52.4405 0.148856C52.5368 0.219489 52.6121 0.315026 52.6583 0.425211C52.7044 0.535396 52.7197 0.656069 52.7024 0.774276V2.70015H59.0259C62.1322 2.70015 63.6854 3.65521 63.6854 5.56531V11.2945C63.7029 11.4128 63.6876 11.5337 63.6412 11.644C63.5948 11.7542 63.5191 11.8497 63.4223 11.9199C63.175 12.0338 62.9035 12.0849 62.6318 12.0688C62.3631 12.0857 62.0944 12.0345 61.8506 11.9199C61.6787 11.8218 61.5956 11.613 61.5956 11.2945V5.56416C61.5819 5.37693 61.5159 5.1973 61.4051 5.04573C61.2944 4.89416 61.1433 4.77673 60.969 4.7068C60.3359 4.43519 59.6476 4.31659 58.9601 4.36063H52.6978V11.2945C52.7152 11.4127 52.7 11.5334 52.6538 11.6436C52.6077 11.7538 52.5323 11.8494 52.4359 11.9199C52.1899 12.0324 51.9201 12.0831 51.6501 12.0676Z" fill="white"/>
</g>
<defs>
<clipPath id="clip0">
<rect width="110" height="48.6339" fill="white"/>
</clipPath>
</defs>
</svg>
