<svg width="125" height="38" viewBox="0 0 125 38" fill="none" xmlns="http://www.w3.org/2000/svg">
<g clip-path="url(#clip0)">
<path d="M47.8095 22.6614C47.811 22.6832 47.8075 22.7049 47.7993 22.725C47.7911 22.7452 47.7783 22.7632 47.7621 22.7776C47.7242 22.8053 47.681 22.8251 47.6353 22.8357C47.5809 22.8412 47.526 22.8412 47.4716 22.8357H46.6298C46.5746 22.8398 46.5193 22.8308 46.4684 22.8093C46.4175 22.7878 46.3724 22.7545 46.3369 22.7122C46.2725 22.6266 46.2291 22.5271 46.21 22.4217L46.1282 21.804C46.0232 21.9614 45.899 22.1052 45.7584 22.2319C45.5996 22.3779 45.4221 22.5022 45.2307 22.6017C45.0059 22.7158 44.7683 22.8025 44.523 22.8603C44.2277 22.9268 43.9257 22.9587 43.623 22.9552C43.1323 22.9777 42.6425 22.894 42.1871 22.7097C41.7817 22.526 41.4214 22.2557 41.1317 21.9177C40.8461 21.5684 40.631 21.1669 40.4985 20.7355C40.3477 20.263 40.2728 19.7695 40.2767 19.2735V14.7057C40.2672 14.5721 40.3087 14.4399 40.3929 14.3359C40.437 14.292 40.49 14.2579 40.5482 14.2361C40.6065 14.2142 40.6687 14.205 40.7308 14.209H41.7863C41.8506 14.2009 41.9159 14.2057 41.9784 14.2229C42.0408 14.2402 42.0993 14.2697 42.1503 14.3097C42.2199 14.4159 42.2516 14.5424 42.2403 14.6689V19.2145C42.24 19.4548 42.2773 19.6936 42.3508 19.9223C42.4273 20.1459 42.5416 20.3549 42.6887 20.54C42.8431 20.7236 43.0358 20.8713 43.2532 20.9728C43.499 21.0876 43.7682 21.1436 44.0395 21.1364C44.2616 21.1332 44.4821 21.0977 44.694 21.0309C44.9195 20.9586 45.1292 20.8439 45.3117 20.693C45.5046 20.5415 45.663 20.3508 45.7764 20.1333C45.903 19.8909 45.9666 19.6205 45.9613 19.3471V14.6754C45.9718 14.596 45.9913 14.518 46.0194 14.443C46.048 14.3778 46.0914 14.3201 46.1462 14.2745C46.2072 14.2297 46.2818 14.2075 46.3573 14.2115H47.5134C47.5731 14.2062 47.6333 14.2129 47.6904 14.231C47.7476 14.2491 47.8006 14.2783 47.8464 14.317C47.9198 14.4016 47.9576 14.5112 47.9519 14.623V22.4626C47.954 22.503 47.9448 22.5432 47.9253 22.5786C47.9058 22.614 47.8767 22.6433 47.8414 22.6631" fill="white"/>
<path d="M49.2967 14.3618C49.4307 14.2932 49.579 14.2571 49.7295 14.2563H50.416C50.4718 14.2522 50.5277 14.2615 50.5791 14.2836C50.6305 14.3057 50.6759 14.3398 50.7113 14.3831C50.7738 14.4698 50.8171 14.5688 50.8381 14.6736L50.9118 15.3281C51.0221 15.17 51.1438 15.0202 51.2758 14.8797C51.4193 14.7309 51.5829 14.6028 51.7618 14.4993C51.9702 14.3889 52.1922 14.3063 52.4221 14.2538C52.7104 14.182 53.0069 14.1481 53.3041 14.1532C53.595 14.1511 53.8854 14.1813 54.1697 14.2432C54.4158 14.3002 54.6523 14.3928 54.8717 14.5181C55.0798 14.6386 55.2698 14.7879 55.4362 14.9615C55.6115 15.146 55.7655 15.3497 55.8952 15.5686C56.0046 15.3471 56.1551 15.1483 56.3386 14.9828C56.5299 14.7994 56.7468 14.6448 56.9825 14.5238C57.236 14.3964 57.5034 14.2989 57.7794 14.2334C58.0772 14.1649 58.382 14.1311 58.6876 14.1328C59.1749 14.122 59.6585 14.2212 60.1022 14.4232C60.4987 14.6114 60.847 14.8876 61.1208 15.2307C61.3987 15.5858 61.6064 15.9907 61.7327 16.4236C61.8774 16.8956 61.9486 17.3871 61.9438 17.8807V22.4232C61.9516 22.558 61.9103 22.6911 61.8277 22.7979C61.7844 22.8413 61.7325 22.8751 61.6752 22.897C61.6179 22.9188 61.5567 22.9283 61.4955 22.9247H60.4401C60.3754 22.9321 60.3099 22.9266 60.2474 22.9085C60.1849 22.8904 60.1266 22.86 60.076 22.8191C60.0057 22.7133 59.9739 22.5865 59.986 22.46V17.8938C59.9873 17.6561 59.9534 17.4196 59.8853 17.1918C59.8206 16.9722 59.713 16.7675 59.5687 16.5897C59.4229 16.415 59.2435 16.2714 59.041 16.1675C58.8108 16.0643 58.562 16.0088 58.3098 16.0043C58.0575 15.9998 57.807 16.0464 57.5732 16.1413C57.3707 16.2264 57.1902 16.3565 57.0455 16.5218C56.8869 16.6953 56.7633 16.8978 56.6814 17.1182C56.5903 17.3685 56.5456 17.6333 56.5497 17.8996V22.4395C56.5497 22.7668 56.4019 22.9304 56.1063 22.9304H55.0549C54.991 22.9384 54.9262 22.9331 54.8644 22.915C54.8026 22.8968 54.7452 22.8662 54.6958 22.8249C54.6255 22.719 54.5937 22.5922 54.6058 22.4657V17.8987C54.606 17.665 54.5741 17.4324 54.5109 17.2074C54.4457 16.9889 54.3399 16.7846 54.1991 16.6052C54.059 16.4234 53.8783 16.2769 53.6714 16.1773C53.4293 16.0617 53.1631 16.0056 52.895 16.0137C52.6802 16.0138 52.4673 16.0532 52.2666 16.1299C52.0585 16.2101 51.8671 16.3283 51.7021 16.4784C51.5164 16.6376 51.3674 16.8352 51.2652 17.0575C51.1631 17.2798 51.1104 17.5216 51.1106 17.7662V22.5172C51.1128 22.5703 51.1035 22.6231 51.0835 22.6723C51.0634 22.7214 51.0331 22.7656 50.9944 22.802C50.9558 22.8407 50.9097 22.8709 50.8589 22.8909C50.808 22.9109 50.7536 22.9202 50.699 22.9181H49.561C49.5014 22.9233 49.4414 22.9166 49.3844 22.8985C49.3274 22.8804 49.2745 22.8512 49.2288 22.8126C49.1547 22.7278 49.1165 22.6174 49.1225 22.505V14.6785C49.1165 14.6143 49.13 14.5499 49.161 14.4934C49.1921 14.437 49.2394 14.3912 49.2967 14.3618Z" fill="white"/>
<path d="M70.0695 21.974C69.6796 22.3107 69.2375 22.5818 68.7605 22.7766C68.2574 22.9793 67.7189 23.0797 67.1765 23.0719C66.5849 23.0641 66.0008 22.9384 65.4584 22.7021C64.9212 22.4787 64.4318 22.1543 64.0168 21.7465C63.5986 21.3416 63.2632 20.8592 63.0293 20.3262C62.7841 19.7747 62.66 19.1772 62.6652 18.5737C62.6664 18.185 62.7178 17.7981 62.8182 17.4225C63.0052 16.6839 63.382 16.007 63.9113 15.4589C64.1725 15.1829 64.471 14.9447 64.7981 14.7512C65.1276 14.5525 65.4827 14.3997 65.8536 14.2972C66.2439 14.1895 66.6472 14.1361 67.0522 14.1384C67.7413 14.1415 68.4199 14.308 69.0321 14.6244C69.3359 14.7779 69.6211 14.9657 69.8822 15.184C70.1438 15.4031 70.3778 15.6531 70.5793 15.9286C70.8458 16.3041 71.0474 16.7217 71.1757 17.164C71.307 17.6401 71.3709 18.1322 71.3655 18.626C71.3718 18.737 71.3718 18.8481 71.3655 18.959C71.3601 19.0378 71.3317 19.1132 71.2837 19.1758C71.2286 19.235 71.1566 19.2756 71.0775 19.292C70.9529 19.3213 70.825 19.3336 70.6971 19.3288H64.6239C64.677 19.639 64.7919 19.9353 64.9618 20.2002C65.1206 20.4457 65.3208 20.6619 65.5533 20.8392C65.7754 21.0105 66.0242 21.1443 66.2896 21.2352C66.5499 21.3225 66.8226 21.367 67.0972 21.3669C67.2939 21.3666 67.4901 21.3472 67.683 21.3088C67.8636 21.2685 68.0402 21.2121 68.2107 21.1402C68.3697 21.0788 68.5219 21.001 68.6648 20.9079C68.793 20.8257 68.9147 20.7338 69.0288 20.633C69.0785 20.5899 69.1315 20.5511 69.1876 20.5168C69.2351 20.4867 69.29 20.4703 69.3463 20.4694C69.3948 20.4726 69.4419 20.4872 69.4837 20.5119C69.5445 20.5456 69.5968 20.5926 69.6367 20.6494C69.7635 20.8024 69.8634 20.9243 69.9534 21.0241L70.1644 21.2777C70.2092 21.3315 70.2482 21.3899 70.2806 21.452C70.3052 21.4992 70.3178 21.5517 70.3174 21.605C70.3059 21.6838 70.2766 21.7589 70.2318 21.8248C70.187 21.8907 70.1279 21.9456 70.0589 21.9854L70.0695 21.974ZM67.0391 15.8402C66.7716 15.8396 66.5065 15.8899 66.2577 15.9883C66.0059 16.0825 65.7706 16.2162 65.5607 16.3843C65.3577 16.5556 65.1801 16.7547 65.0329 16.9758C64.8789 17.2007 64.7631 17.4495 64.6901 17.7122H69.5173C69.4477 17.4426 69.3353 17.186 69.1843 16.9521C69.031 16.7275 68.842 16.5296 68.6247 16.3663C68.4101 16.196 68.1668 16.0655 67.9063 15.9809C67.6275 15.8866 67.3351 15.8385 67.0407 15.8386" fill="white"/>
<path d="M74.23 15.1721C74.3433 15.0246 74.4725 14.8902 74.6154 14.7712C74.7672 14.6416 74.9359 14.5331 75.1169 14.4488C75.3219 14.3518 75.5382 14.2809 75.7608 14.2377C76.0301 14.1841 76.3044 14.1595 76.579 14.1641C77.05 14.1532 77.5169 14.2544 77.9412 14.4595C78.3286 14.6482 78.668 14.9227 78.9336 15.2621C79.2116 15.6153 79.4194 16.0186 79.5456 16.45C79.6849 16.9195 79.7544 17.4069 79.7518 17.8965V22.4422C79.7575 22.5076 79.7501 22.5734 79.7302 22.6359C79.7102 22.6984 79.6781 22.7563 79.6356 22.8063C79.593 22.8506 79.5411 22.885 79.4837 22.9069C79.4263 22.9288 79.3647 22.9378 79.3034 22.9331H78.2505C78.1858 22.9406 78.1203 22.935 78.0578 22.9169C77.9953 22.8988 77.937 22.8684 77.8864 22.8276C77.8123 22.7233 77.7785 22.5957 77.7915 22.4684V17.8941C77.7938 17.6547 77.7528 17.4169 77.6704 17.1921C77.5889 16.9698 77.4653 16.7653 77.3063 16.5899C77.0758 16.3232 76.7677 16.135 76.4251 16.0517C76.0825 15.9684 75.7224 15.9941 75.3951 16.1252C74.9615 16.2855 74.6073 16.6083 74.4076 17.0252C74.296 17.2546 74.2384 17.5065 74.239 17.7615V22.2115C74.2444 22.2976 74.2444 22.384 74.239 22.4701C74.2322 22.5501 74.2126 22.6286 74.1809 22.7024C74.1559 22.7684 74.1118 22.8254 74.0541 22.866C73.9932 22.9108 73.9186 22.9331 73.843 22.929H72.6976C72.6388 22.9339 72.5796 22.927 72.5235 22.9089C72.4673 22.8908 72.4153 22.8618 72.3704 22.8235C72.3329 22.7824 72.3042 22.734 72.286 22.6814C72.2679 22.6288 72.2607 22.573 72.2648 22.5175V12.1081C72.261 12.0517 72.2696 11.9952 72.29 11.9426C72.3104 11.8899 72.3421 11.8424 72.383 11.8033C72.4238 11.7643 72.4727 11.7347 72.5262 11.7167C72.5797 11.6987 72.6366 11.6926 72.6927 11.699H73.8169C73.8696 11.6987 73.9219 11.7088 73.9708 11.7287C74.0197 11.7486 74.0641 11.778 74.1016 11.8152C74.1425 11.8505 74.1754 11.8942 74.1981 11.9433C74.2209 11.9924 74.2328 12.0458 74.2333 12.0999L74.23 15.1721Z" fill="white"/>
<path d="M84.2577 14.9854C83.6404 14.9843 83.0437 15.2076 82.5789 15.6137C82.3473 15.8144 82.1571 16.0584 82.0192 16.3321C81.8714 16.6206 81.7877 16.9376 81.7738 17.2615V20.7796C81.7717 20.7901 81.7717 20.801 81.7738 20.8115V22.7064C81.7738 22.8545 81.7051 22.9281 81.5627 22.9281H81.2093C81.1788 22.9334 81.1474 22.9313 81.1179 22.9221C81.0883 22.9129 81.0614 22.8968 81.0393 22.8752C81.0171 22.8535 81.0005 22.8269 80.9906 22.7976C80.9808 22.7682 80.978 22.737 80.9826 22.7064V14.5371C80.9801 14.5034 80.9863 14.4697 81.0006 14.4392C81.0149 14.4086 81.0369 14.3823 81.0644 14.3628C81.1189 14.3217 81.1861 14.3012 81.2543 14.3047H81.5341C81.568 14.3022 81.6021 14.3071 81.634 14.3189C81.6659 14.3308 81.6949 14.3494 81.719 14.3734C81.7624 14.425 81.7849 14.491 81.782 14.5583V15.6137C81.938 15.4015 82.1148 15.2052 82.3097 15.0279C82.4812 14.8567 82.6736 14.7077 82.8824 14.5845C83.0903 14.4612 83.3141 14.3671 83.5476 14.3047C84.4108 14.0953 85.3218 14.2337 86.0839 14.69C86.5701 15.0245 86.9568 15.4841 87.2031 16.0204C87.3224 15.7299 87.4882 15.4607 87.694 15.2235C87.8854 15.0004 88.1117 14.8097 88.3641 14.659C88.6175 14.5079 88.8914 14.3941 89.1773 14.3211C89.4714 14.2462 89.7738 14.2089 90.0773 14.2098C90.6633 14.1986 91.2405 14.3542 91.7415 14.6584C92.2425 14.9626 92.6468 15.4028 92.9073 15.9279C93.0821 16.2793 93.1963 16.6577 93.2452 17.0472C93.2701 17.2026 93.2843 17.3595 93.2877 17.5168V22.6426C93.2919 22.6834 93.2875 22.7246 93.2748 22.7636C93.2621 22.8026 93.2414 22.8386 93.2141 22.8692C93.1897 22.8966 93.1595 22.9181 93.1256 22.9323C93.0918 22.9464 93.0552 22.9528 93.0186 22.951H92.7649C92.7276 22.9555 92.6898 22.9517 92.6541 22.9398C92.6185 22.928 92.5859 22.9083 92.5588 22.8823C92.5171 22.8144 92.4985 22.7349 92.5056 22.6556V17.5192C92.4889 17.1983 92.4249 16.8815 92.3158 16.5792C92.2053 16.2804 92.0406 16.0047 91.8298 15.7659C91.6159 15.5252 91.3554 15.3304 91.064 15.1932C90.7422 15.0425 90.39 14.9683 90.0347 14.9764C89.7361 14.9726 89.4393 15.0228 89.1585 15.1245C88.8949 15.2202 88.6501 15.3614 88.4352 15.5418C88.2237 15.7185 88.045 15.9312 87.9075 16.1701C87.7661 16.4145 87.6713 16.6831 87.6277 16.9621C87.573 17.29 87.5456 17.622 87.5459 17.9545V22.6286C87.5489 22.6693 87.5432 22.7101 87.5291 22.7484C87.515 22.7867 87.4928 22.8214 87.4641 22.8504C87.4393 22.8773 87.409 22.8986 87.3753 22.9127C87.3415 22.9268 87.3051 22.9335 87.2685 22.9322H87.01C86.972 22.9364 86.9334 22.9324 86.897 22.9206C86.8606 22.9087 86.8272 22.8893 86.7989 22.8635C86.7573 22.7956 86.7386 22.7161 86.7457 22.6368V17.5037C86.7535 17.3508 86.7375 17.1976 86.6983 17.0496C86.6571 16.7714 86.5697 16.5021 86.4398 16.2527C86.3057 16.0039 86.1268 15.782 85.912 15.5982C85.4641 15.1894 84.8763 14.9683 84.27 14.9805" fill="white"/>
<path d="M94.8972 18.9182C94.9159 19.0192 94.9266 19.1215 94.9291 19.2242C94.9339 19.3474 94.9534 19.4696 94.9872 19.5882C95.0944 19.9836 95.2637 20.3595 95.4888 20.7018C95.7038 21.0298 95.9691 21.3219 96.275 21.5674C96.5826 21.8082 96.9264 21.9987 97.2936 22.1319C97.6747 22.2684 98.0769 22.3362 98.4816 22.3324C98.708 22.3343 98.9341 22.3165 99.1574 22.2792C99.3554 22.2464 99.5498 22.1951 99.7383 22.1262C99.9204 22.0636 100.097 21.9859 100.266 21.8938C100.424 21.7989 100.577 21.6986 100.725 21.5927C100.773 21.5627 100.819 21.5291 100.862 21.4921L101.005 21.3808C101.045 21.35 101.087 21.3226 101.132 21.299C101.162 21.2747 101.199 21.2599 101.237 21.2565C101.274 21.2565 101.311 21.2884 101.358 21.3465C101.406 21.4046 101.49 21.542 101.527 21.6001C101.553 21.6417 101.569 21.6887 101.574 21.7376C101.578 21.7459 101.58 21.755 101.58 21.7641C101.58 21.7733 101.578 21.7824 101.574 21.7907C101.593 21.8092 101.606 21.8333 101.611 21.8595C101.554 21.9303 101.492 21.9972 101.426 22.0599C101.344 22.1314 101.257 22.1983 101.168 22.2604C100.8 22.519 100.399 22.725 99.9747 22.8723C99.525 23.0283 99.0516 23.105 98.5757 23.099C97.9809 23.1022 97.3917 22.9836 96.8445 22.7504C95.7693 22.2931 94.9125 21.4381 94.453 20.3639C94.2131 19.8201 94.0907 19.2318 94.0938 18.6375C94.0922 18.2346 94.1456 17.8332 94.2525 17.4447C94.3565 17.0757 94.5054 16.721 94.696 16.3884C94.8836 16.0578 95.1163 15.755 95.3873 15.4885C95.6428 15.2184 95.9321 14.9824 96.248 14.7865C96.5795 14.5917 96.9341 14.4392 97.3035 14.3324C97.6976 14.2254 98.1043 14.172 98.5127 14.1737C98.901 14.1699 99.2881 14.2178 99.6638 14.316C100.032 14.4073 100.387 14.5447 100.72 14.7251C101.047 14.9093 101.35 15.1345 101.62 15.3952C101.891 15.6602 102.125 15.9601 102.317 16.287C102.518 16.632 102.674 17.0009 102.782 17.3849C102.896 17.8016 102.959 18.2303 102.972 18.6621C102.972 18.8151 102.898 18.8944 102.755 18.8944L94.8972 18.9182ZM97.5685 15.0646C97.2261 15.1584 96.9002 15.3044 96.6023 15.4975C96.3062 15.6903 96.0381 15.9229 95.8054 16.1888C95.5718 16.4591 95.3749 16.7589 95.2196 17.0806C95.0649 17.407 94.9564 17.7535 94.8972 18.1098H102.188C102.137 17.6662 101.998 17.2373 101.779 16.8482C101.569 16.467 101.294 16.1257 100.966 15.8403C100.636 15.5542 100.259 15.3275 99.852 15.1702C99.4355 15.0119 98.9934 14.9315 98.5479 14.9329C98.3985 14.9248 98.2489 14.9248 98.0995 14.9329C97.921 14.9562 97.7445 14.9934 97.5718 15.0442" fill="white"/>
<path d="M112.714 22.7031C112.719 22.7328 112.716 22.763 112.707 22.7915C112.697 22.82 112.682 22.8459 112.661 22.8674C112.64 22.8888 112.614 22.9051 112.586 22.9151C112.558 22.925 112.527 22.9284 112.498 22.9248H112.144C112.114 22.9301 112.082 22.928 112.053 22.9188C112.023 22.9096 111.996 22.8935 111.974 22.8719C111.952 22.8502 111.935 22.8237 111.926 22.7943C111.916 22.765 111.913 22.7337 111.918 22.7031V21.0398C111.828 21.1879 111.728 21.3408 111.627 21.4988C111.531 21.6424 111.418 21.7735 111.289 21.889C110.492 22.6609 109.422 23.0876 108.312 23.077C107.914 23.0783 107.518 23.0249 107.135 22.9183C106.765 22.8119 106.41 22.6594 106.079 22.4642C105.748 22.27 105.442 22.0341 105.171 21.7622C104.901 21.4925 104.665 21.1901 104.469 20.8622C104.272 20.532 104.119 20.1771 104.015 19.8068C103.847 19.2348 103.799 18.6342 103.875 18.0428C103.95 17.4514 104.147 16.882 104.454 16.3705C104.647 16.0408 104.883 15.7382 105.156 15.4706C105.994 14.6484 107.118 14.183 108.292 14.1721C108.574 14.1722 108.855 14.2024 109.131 14.2621C109.402 14.3192 109.667 14.4013 109.923 14.5076C110.174 14.6159 110.416 14.7448 110.646 14.8929C110.873 15.041 111.087 15.2088 111.285 15.3945C111.4 15.5146 111.508 15.6417 111.608 15.7749L111.924 16.2233V11.8387C111.923 11.8231 111.926 11.8075 111.932 11.7932C111.939 11.7789 111.949 11.7665 111.961 11.7569C111.972 11.7444 111.986 11.7345 112.002 11.7282C112.017 11.7218 112.034 11.719 112.051 11.7201H112.531C112.556 11.7166 112.582 11.7189 112.606 11.7269C112.63 11.735 112.652 11.7485 112.67 11.7664C112.688 11.7844 112.701 11.8062 112.709 11.8303C112.717 11.8543 112.72 11.8799 112.716 11.905L112.714 22.7031ZM104.664 18.6221C104.659 19.1097 104.754 19.5931 104.944 20.0424C105.126 20.4811 105.389 20.882 105.718 21.2247C106.046 21.5634 106.435 21.8373 106.864 22.0322C107.307 22.2294 107.788 22.3301 108.274 22.3275C108.765 22.3295 109.251 22.2327 109.704 22.0428C110.143 21.8542 110.542 21.5856 110.882 21.2509C111.225 20.9119 111.498 20.5081 111.684 20.0629C111.881 19.6099 111.982 19.1209 111.98 18.627C111.983 18.1381 111.885 17.6539 111.691 17.2051C111.325 16.3101 110.627 15.5913 109.743 15.1989C109.294 15.0022 108.81 14.9007 108.32 14.9007C107.83 14.9007 107.346 15.0022 106.897 15.1989C106.46 15.3884 106.065 15.6629 105.736 16.0064C105.403 16.3485 105.136 16.7494 104.949 17.1887C104.759 17.6418 104.663 18.1284 104.665 18.6197" fill="white"/>
<path d="M113.887 11.8021C113.883 11.7298 113.896 11.6578 113.923 11.591C113.938 11.5631 113.96 11.5396 113.987 11.5229C114.014 11.5062 114.045 11.497 114.076 11.4961H114.557C114.591 11.4927 114.626 11.5006 114.655 11.5188C114.685 11.537 114.708 11.5644 114.72 11.5967C114.747 11.662 114.76 11.7323 114.757 11.8029V12.0614C114.757 12.1931 114.757 12.2782 114.688 12.315C114.615 12.3593 114.528 12.378 114.443 12.3682H114.197C114.11 12.3751 114.023 12.3587 113.944 12.3208C113.918 12.3015 113.898 12.2759 113.885 12.2463C113.872 12.2167 113.867 12.1843 113.87 12.1522L113.887 11.8021ZM113.929 14.5364C113.929 14.3883 113.998 14.3146 114.146 14.3146H114.505C114.535 14.3102 114.566 14.3129 114.595 14.3225C114.624 14.3321 114.65 14.3483 114.672 14.3699C114.693 14.3914 114.709 14.4177 114.719 14.4466C114.729 14.4755 114.731 14.5062 114.727 14.5364V22.7032C114.731 22.7324 114.728 22.762 114.719 22.7901C114.71 22.8181 114.695 22.8437 114.675 22.865C114.655 22.8863 114.63 22.9028 114.602 22.9131C114.575 22.9235 114.545 22.9276 114.516 22.9249H114.162C114.004 22.9249 113.93 22.8513 113.93 22.7032L113.929 14.5364Z" fill="white"/>
<path d="M124.202 21.5685V21.04C124.021 21.3503 123.799 21.6344 123.542 21.8843C123.29 22.1371 123.005 22.354 122.695 22.529C122.383 22.7106 122.047 22.8483 121.697 22.9381C121.338 23.0383 120.967 23.0881 120.594 23.0862C120.194 23.0879 119.796 23.0328 119.411 22.9226C119.041 22.8175 118.687 22.6649 118.356 22.4685C118.026 22.2706 117.721 22.0329 117.448 21.7608C117.174 21.4922 116.937 21.1898 116.74 20.8608C116.547 20.5286 116.394 20.1742 116.286 19.8054C116.037 18.8584 116.101 17.856 116.47 16.9488C116.839 16.0417 117.492 15.2787 118.331 14.7745C118.661 14.5744 119.016 14.42 119.387 14.3155C119.771 14.2075 120.168 14.1522 120.567 14.1511C120.936 14.1506 121.304 14.1984 121.661 14.2934C122.012 14.3847 122.349 14.5223 122.664 14.7025C122.98 14.8782 123.272 15.0929 123.535 15.3415C123.796 15.5952 124.021 15.8828 124.205 16.1965V14.5209C124.201 14.4919 124.203 14.4623 124.212 14.4344C124.221 14.4065 124.236 14.381 124.257 14.36C124.277 14.339 124.302 14.323 124.33 14.3133C124.357 14.3036 124.387 14.3004 124.416 14.3041H124.77C124.923 14.3041 125.002 14.3777 125.002 14.5209V22.7025C125.005 22.7345 125 22.7668 124.987 22.7963C124.974 22.8257 124.954 22.8515 124.928 22.871C124.875 22.905 124.813 22.9234 124.749 22.9242H124.469C124.295 22.9242 124.205 22.8424 124.205 22.6787L124.202 21.5685ZM124.244 18.6174C124.245 18.1314 124.143 17.6508 123.943 17.2077C123.749 16.7689 123.475 16.3697 123.136 16.0304C122.795 15.6882 122.391 15.4142 121.948 15.2229C121.508 15.0237 121.031 14.9195 120.549 14.9169C120.069 14.915 119.594 15.0178 119.158 15.2179C118.725 15.4121 118.333 15.6861 118.002 16.0255C117.664 16.3643 117.391 16.7612 117.194 17.1971C116.998 17.641 116.897 18.1213 116.899 18.6068C116.898 19.0945 116.995 19.5774 117.184 20.0271C117.364 20.4678 117.625 20.8708 117.954 21.2151C118.282 21.5592 118.673 21.837 119.105 22.0332C119.546 22.2343 120.025 22.337 120.509 22.3343C121.004 22.3383 121.493 22.2376 121.945 22.0389C122.386 21.8483 122.788 21.576 123.128 21.2363C123.469 20.8996 123.745 20.5023 123.941 20.0647C124.142 19.6109 124.245 19.1195 124.242 18.6231" fill="white"/>
<path d="M10.9912 11.5223C10.8786 11.4758 10.7578 11.4524 10.6361 11.4535C10.5738 11.4284 10.5077 11.414 10.4405 11.411C10.1177 11.4102 9.7987 11.4806 9.50619 11.6172C9.18488 11.7622 8.89731 11.9725 8.66185 12.2349C8.25643 12.6899 7.9606 13.2318 7.79706 13.8188C7.61297 14.4759 7.54922 15.1608 7.60888 15.8405C7.70524 16.5292 7.90263 17.2 8.19468 17.8311C8.51158 18.5347 8.8863 19.3073 9.31883 20.1489L8.85985 21.1201C8.58889 21.6845 8.28849 22.2342 7.95987 22.7671C7.57071 23.4237 7.1477 24.0598 6.69254 24.6725C6.23776 25.2995 5.70803 25.8686 5.11513 26.367C4.5601 26.8663 3.91007 27.2487 3.20391 27.4911C2.72348 27.6495 2.20631 27.6587 1.72059 27.5173C1.28915 27.3749 0.917675 27.0924 0.665164 26.7147C0.391985 26.3145 0.211688 25.8583 0.137451 25.3794C0.103 25.1613 0.0844067 24.9409 0.0818159 24.72C0.0850096 24.3965 0.123973 24.0744 0.197995 23.7595C0.314053 23.1813 0.549048 22.6335 0.888063 22.151C1.22708 21.6685 1.66271 21.2617 2.1673 20.9565C2.79514 20.5911 3.49685 20.3711 4.22088 20.3126C4.30821 20.3074 4.39024 20.2689 4.45017 20.2052C4.5101 20.1415 4.54339 20.0573 4.54324 19.9698C4.54507 19.881 4.51617 19.7943 4.46142 19.7243C4.39687 19.6539 4.31034 19.6075 4.21597 19.5926C2.87438 19.2928 1.4739 19.3993 0.193086 19.8986L0 19.9951V6.0267C0 6.0267 1.05543 1.58737 4.70932 0.341309L4.82059 0.462396L4.88359 0.531122H4.90896L5.26813 0.921384L5.46858 1.14801C5.64775 1.35419 5.85884 1.607 6.08056 1.89254C6.17547 2.00381 6.26546 2.1249 6.36528 2.24598C6.4651 2.36707 6.65573 2.63625 6.80872 2.84815C6.88236 2.94878 6.96172 3.05432 7.03535 3.16478C7.10899 3.27523 7.23089 3.43968 7.3258 3.58204L7.55243 3.92485L7.77415 4.27829C7.83224 4.36011 7.88542 4.44683 7.94269 4.54256C7.99996 4.63828 8.12187 4.84364 8.21759 4.99663L8.51867 5.52435C8.61931 5.70925 8.71912 5.88843 8.81403 6.05206L9.10939 6.61168C9.1912 6.7704 9.27302 6.93894 9.35483 7.09767C9.43665 7.25639 9.51356 7.43066 9.5921 7.62538C9.67064 7.8201 9.79827 8.08437 9.89809 8.32736C9.99791 8.57035 10.0985 8.81335 10.1934 9.0637C10.236 9.15861 10.2671 9.25924 10.3039 9.35906C10.3169 9.38533 10.3276 9.41271 10.3358 9.44088C10.3988 9.62005 10.4675 9.80005 10.5313 9.96859C10.5952 10.1371 10.6524 10.3384 10.7162 10.5282C10.714 10.5491 10.714 10.5703 10.7162 10.5912C10.7792 10.8129 10.848 11.0346 10.9118 11.2564V11.3145C10.9079 11.3483 10.9173 11.3823 10.938 11.4094V11.4781" fill="white"/>
<path d="M10.6852 22.9299C10.8332 23.2465 10.9699 23.5582 11.0942 23.8699C10.6787 25.4995 10.1205 27.0893 9.42601 28.621C9.33111 28.8165 9.24111 29.0219 9.13557 29.2281C9.03002 29.4342 8.94003 29.6371 8.83448 29.8458C8.72894 30.0544 8.6234 30.2548 8.50722 30.4684L8.16932 31.091C7.55772 32.1841 6.88438 33.2415 6.15256 34.2581L5.68784 34.902C5.21277 35.5674 4.70414 36.2274 4.16198 36.8819C2.54448 36.1701 0.992427 34.6025 0 31.4346V28.711C0.485994 28.823 0.98701 28.8551 1.48332 28.8059C2.00845 28.7446 2.52431 28.6204 3.01983 28.4361C3.63688 28.233 4.22033 27.9393 4.75105 27.5647C5.35208 27.1449 5.90617 26.6616 6.40373 26.1231C7.42361 24.9925 8.29792 23.7386 9.0063 22.3907L9.38101 21.683C9.49719 21.4506 9.61828 21.2134 9.73446 20.9753C10.0617 21.6192 10.3734 22.2737 10.6901 22.9282" fill="white"/>
<path d="M11.8515 17.8571V18.8389C11.8551 19.0152 11.8464 19.1915 11.8253 19.3666C11.7991 19.5621 11.8253 19.6996 11.7885 19.8681C11.7304 19.7471 11.6674 19.6227 11.5987 19.4934L10.9229 18.1312C11.1339 17.5086 11.3131 16.9326 11.4506 16.3942C11.5618 15.9721 11.651 15.6023 11.7197 15.2701C11.7516 15.5548 11.7778 15.8346 11.8016 16.1201V16.3574C11.7989 16.4048 11.7989 16.4524 11.8016 16.4998V17.8718" fill="white"/>
<path d="M17.9487 17.5135C18.5214 16.8802 19.0941 16.2731 19.6668 15.7029C19.3153 16.2881 19.0244 16.9076 18.7987 17.5519C18.4808 18.4026 18.2147 19.2717 18.0019 20.1545C17.7646 21.1101 17.5584 22.1181 17.3997 23.1899C17.2363 24.2378 17.1498 25.2964 17.1411 26.357C17.1235 27.3485 17.1942 28.3397 17.3522 29.3187C17.4737 30.1217 17.7307 30.8983 18.1123 31.6153C13.5617 34.4976 9.94053 36.7623 9.94053 36.7623C8.10817 37.5524 6.03971 37.5959 4.17578 36.8834C4.71086 36.2289 5.21403 35.5724 5.68529 34.9141C5.84401 34.6973 5.997 34.4862 6.15 34.2645C6.87434 33.2429 7.5466 32.1872 8.16676 31.0974L8.50466 30.4747C8.62084 30.2637 8.72638 30.0575 8.83192 29.8521C8.93747 29.6468 9.0381 29.4349 9.13301 29.2344C9.22791 29.034 9.32855 28.8253 9.42345 28.6273C10.1179 27.0957 10.6761 25.5059 11.0917 23.8763C11.2234 24.2036 11.3371 24.5259 11.4402 24.8368C11.1332 25.3554 10.8633 25.8951 10.6327 26.4519C10.0207 27.9196 9.86199 28.9751 10.1467 29.619C10.1508 29.6553 10.1623 29.6905 10.1804 29.7223C10.1986 29.7541 10.223 29.7818 10.2522 29.8039C10.326 29.8755 10.4085 29.9377 10.4977 29.9888L10.7669 30.1311C10.8197 30.1601 10.8765 30.1813 10.9354 30.1941C11.0853 30.2432 11.2424 30.2664 11.4001 30.2628C11.8667 30.2531 12.3158 30.0836 12.6724 29.7826C13.1483 29.3658 13.5113 28.8356 13.7278 28.2412C13.9931 27.5184 14.0951 26.7458 14.0264 25.979C13.9417 25.021 13.707 24.0823 13.331 23.1972C14.1442 22.036 15.1121 20.7867 16.2346 19.4492C16.7943 18.8018 17.367 18.156 17.9528 17.5118" fill="white"/>
<path d="M21.9508 12.5775C21.581 12.9105 21.185 13.2688 20.7734 13.6599C20.2422 14.1562 19.6897 14.6929 19.1159 15.27C18.542 15.8471 17.965 16.4471 17.3846 17.07C16.8037 17.7032 16.2392 18.3373 15.6845 18.9861C15.1298 19.6349 14.6921 20.179 14.2535 20.7492C13.815 21.3195 13.3879 21.8685 13.0075 22.4068C12.8013 21.9053 12.5796 21.4144 12.3374 20.9341C12.1525 20.5701 11.9676 20.206 11.7778 19.8411C11.7778 19.6725 11.804 19.5081 11.8146 19.3395C11.8252 19.171 11.8146 19.0016 11.8408 18.8118V16.458C11.8382 16.4106 11.8382 16.363 11.8408 16.3156V16.0759C11.8292 15.7913 11.8019 15.5075 11.759 15.2258C11.7685 15.1347 11.7863 15.0446 11.8121 14.9567C11.9362 14.3437 11.9769 13.7168 11.9332 13.0929C11.9176 12.6523 11.7683 12.2269 11.5053 11.873C11.3859 11.7133 11.2253 11.5892 11.0406 11.5139C11.0436 11.491 11.0436 11.4679 11.0406 11.4451C11.0445 11.4113 11.0351 11.3773 11.0144 11.3502V11.2921C10.9514 11.0704 10.8827 10.8487 10.8189 10.627C10.8167 10.606 10.8167 10.5849 10.8189 10.564C10.7559 10.3742 10.6921 10.1893 10.634 10.0043C10.5759 9.81945 10.5023 9.63454 10.4385 9.47664C10.4303 9.44847 10.4196 9.42109 10.4065 9.39482C10.3697 9.29419 10.3378 9.19437 10.2961 9.09947C10.2012 8.84584 10.1006 8.60284 10.0007 8.36312C9.90093 8.1234 9.79457 7.88777 9.69475 7.66114C9.59493 7.43451 9.53603 7.31833 9.45748 7.13343C9.37894 6.94852 9.29876 6.80616 9.21204 6.64744L8.91914 6.08946C8.82423 5.90455 8.7236 5.72538 8.62378 5.56175L8.32597 5.03076C8.23106 4.87776 8.14107 4.71904 8.05107 4.57668C7.96107 4.43432 7.93734 4.40078 7.88253 4.31569L7.66081 3.96224L7.43418 3.61943C7.33927 3.47708 7.23864 3.33962 7.14373 3.20217C7.04882 3.06472 6.99073 2.98536 6.9171 2.88555C6.7641 2.67446 6.61602 2.46828 6.47366 2.28338C6.3313 2.09848 6.28385 2.03793 6.18894 1.92994C5.96722 1.64522 5.75613 1.40222 5.57696 1.18541L5.2816 0.939963L4.91016 0.530884C6.71583 1.0586 15.9962 4.18969 21.9508 12.5619" fill="white"/>
<path d="M26.923 25.9765C24.7484 27.3862 22.4093 28.885 20.1871 30.2947C19.9943 29.4186 19.8989 28.5238 19.9024 27.6267C19.8923 26.5679 19.9557 25.5096 20.0922 24.4596C20.2459 23.3275 20.4627 22.2049 20.7418 21.097C21.0157 19.991 21.3684 18.9061 21.7973 17.8505C22.1919 16.8612 22.6706 15.9076 23.2282 15.0001C23.2708 14.9264 23.3182 14.8626 23.36 14.7939C25.333 18.2255 26.548 22.04 26.923 25.9806" fill="white"/>
<path d="M29.2889 24.4188L26.9236 25.9733C26.5525 22.0318 25.3412 18.2156 23.3712 14.7817C23.8412 14.059 24.4136 13.4083 25.0705 12.85C25.2603 12.697 25.3454 12.5546 25.316 12.4327C25.2894 12.366 25.2495 12.3054 25.1987 12.2546C25.148 12.2038 25.0873 12.1639 25.0206 12.1374C24.8139 12.0493 24.5947 11.9941 24.371 11.9737C24.1026 11.9489 23.8329 11.9401 23.5635 11.9476C23.308 11.9627 23.054 11.9964 22.8034 12.0482C22.6104 12.0865 22.4294 12.1707 22.2757 12.2936L21.9533 12.5784C15.9832 4.22659 6.71511 1.09059 4.90943 0.530968L4.88325 0.504787L4.82025 0.462243L4.70898 0.341155C6.26145 -0.152322 7.93472 -0.109676 9.46004 0.462243C13.0918 2.39473 29.3094 12.805 29.3094 12.805C29.3094 12.805 37.0484 18.3685 29.3094 24.4229" fill="white"/>
</g>
<defs>
<clipPath id="clip0">
<rect width="125" height="37.4095" fill="white"/>
</clipPath>
</defs>
</svg>
