<svg width="40" height="40" viewBox="0 0 40 40" fill="none" xmlns="http://www.w3.org/2000/svg">
<circle cx="20" cy="20" r="20" fill="#3F408C"/>
<path d="M18.9374 32.3214H20.6746V30.1228C24.6374 29.8514 26.8089 27.2728 26.8089 24.5043C26.8089 20.4871 23.4974 19.7543 20.6746 19.0214V13.8914C21.7331 14.2171 22.3846 15.0314 22.4931 16.09H26.5917C26.3474 12.86 24.0674 11.0414 20.6746 10.77V8.57141H18.9374V10.77C15.4088 11.0414 12.8574 13.1314 12.8574 16.3343C12.8574 20.3514 16.1417 21.1386 18.9374 21.8443V27.0286C17.6888 26.7571 17.0374 25.9157 16.9289 24.6671H12.8574C12.9389 27.9243 15.436 29.7971 18.9374 30.0957V32.3214ZM22.8731 24.6671C22.8731 25.8886 22.0589 26.8386 20.6746 27.0828V22.3328C21.9503 22.7671 22.8731 23.3914 22.8731 24.6671ZM16.8203 16.1443C16.8203 14.76 17.6888 14 18.9374 13.81V18.5057C17.6888 18.0714 16.8203 17.42 16.8203 16.1443Z" fill="white"/>
</svg>
