<svg width="100" height="44" viewBox="0 0 100 44" fill="none" xmlns="http://www.w3.org/2000/svg">
<g clip-path="url(#clip0)">
<path d="M25.4987 35.4104H20.1463C19.2122 34.461 18.2732 33.5141 17.3294 32.5696C16.787 32.0116 16.2528 31.4287 15.6856 30.8863C15.638 30.8397 15.5846 30.7995 15.5265 30.7668L14.689 29.9293C14.6825 29.8991 14.6797 29.8682 14.6807 29.8373C14.6696 29.8548 14.6563 29.8709 14.6412 29.8851L12.0082 27.2439L11.9163 27.3082C12.044 27.1244 11.9963 26.9809 11.805 26.7897C11.4883 26.5072 11.1947 26.1997 10.927 25.8704C10.6797 25.5587 10.5281 25.5946 10.2568 25.8538C7.32873 28.7038 4.37305 31.5427 1.43115 34.3826C1.08823 34.7099 0.736991 35.0454 0.346269 35.4123L-0.00488281 35.7395V5.38275L3.73686 6.35633C3.72123 10.976 3.72856 23.572 3.72856 26.3806V26.8752C5.99474 24.6734 8.19656 22.5193 10.4306 20.3405C10.5584 20.4609 10.6862 20.5639 10.8057 20.6843L10.8976 20.7763C13.1877 23.082 15.4695 25.3877 17.767 27.6852C20.3424 30.2636 22.9196 32.8387 25.4987 35.4104Z" fill="white"/>
<path d="M28.993 12.9371C28.9608 19.6869 28.9286 31.1815 28.901 35.4105V35.4822C28.8919 35.571 28.8759 35.6589 28.8532 35.7451C28.7088 35.61 28.5894 35.5144 28.4855 35.4105C28.4781 35.4105 28.4698 35.3939 28.4616 35.3939C26.2276 33.1875 23.9939 30.9777 21.7605 28.7645C18.6089 25.6449 15.4574 22.5225 12.3059 19.3973C12.0503 19.15 12.0503 18.9993 12.3142 18.7593C12.9844 18.1158 13.6463 17.4593 14.2843 16.7809C14.5877 16.4619 14.7716 16.4701 15.074 16.7891C18.1214 19.8929 21.1773 22.9935 24.2417 26.0911C24.5176 26.3788 24.8237 26.6427 25.2071 27.0169C25.2227 26.6344 25.2466 26.3945 25.2466 26.1472V11.9635L28.993 12.9371Z" fill="white"/>
<path d="M43.9902 7.02289H46.2886L47.9434 13.7341L49.7932 7.02289H51.573L53.4218 13.7341L55.0766 7.02289H57.375L54.7319 16.6098H52.2386L50.6757 10.954L49.1128 16.6098H46.6205L43.9902 7.02289Z" fill="white"/>
<path d="M56.9777 11.8126C56.9719 11.1564 57.0968 10.5055 57.3452 9.89801C57.5936 9.29053 57.9605 8.73863 58.4245 8.27451C58.8886 7.81039 59.4404 7.44334 60.0479 7.19482C60.6553 6.9463 61.3061 6.82127 61.9624 6.82703C62.6187 6.82139 63.2696 6.94649 63.877 7.19505C64.4844 7.4436 65.0363 7.81065 65.5004 8.27473C65.9645 8.73882 66.3315 9.29067 66.58 9.89809C66.8286 10.5055 66.9536 11.1564 66.948 11.8126C66.9536 12.4689 66.8286 13.1198 66.58 13.7272C66.3315 14.3346 65.9645 14.8865 65.5004 15.3506C65.0363 15.8147 64.4844 16.1817 63.877 16.4303C63.2696 16.6788 62.6187 16.8039 61.9624 16.7983C61.3061 16.804 60.6553 16.679 60.0479 16.4305C59.4404 16.182 58.8886 15.8149 58.4245 15.3508C57.9605 14.8867 57.5936 14.3348 57.3452 13.7273C57.0968 13.1198 56.9719 12.4689 56.9777 11.8126ZM64.7572 11.8126C64.7741 11.4386 64.7138 11.065 64.5801 10.7153C64.4463 10.3655 64.242 10.047 63.9798 9.77964C63.7176 9.51228 63.4033 9.30178 63.0562 9.16123C62.7091 9.02067 62.3368 8.95308 61.9624 8.96267C61.5882 8.95321 61.2159 9.0209 60.869 9.16151C60.522 9.30212 60.2077 9.51266 59.9456 9.78001C59.6835 10.0474 59.4793 10.3658 59.3456 10.7155C59.2119 11.0652 59.1516 11.4386 59.1685 11.8126C59.1516 12.1867 59.2119 12.5601 59.3456 12.9098C59.4793 13.2595 59.6835 13.578 59.9456 13.8453C60.2077 14.1127 60.522 14.3232 60.869 14.4638C61.2159 14.6044 61.5882 14.6721 61.9624 14.6626C62.3368 14.6722 62.7091 14.6046 63.0562 14.4641C63.4033 14.3235 63.7176 14.113 63.9798 13.8457C64.242 13.5783 64.4463 13.2598 64.5801 12.91C64.7138 12.5603 64.7741 12.1867 64.7572 11.8126Z" fill="white"/>
<path d="M77.2231 16.6061H75.0314V11.0321L72.5492 15.1002H72.3019L69.8197 11.0321V16.6061H67.6279V7.02289H69.8197L72.4214 11.2822L75.0231 7.02289H77.2158L77.2231 16.6061Z" fill="white"/>
<path d="M84.3466 14.4972V16.6061H78.3203V7.02289H84.2777V9.13187H80.5084V10.7205H83.932V12.8019H80.5084V14.5008L84.3466 14.4972Z" fill="white"/>
<path d="M92.5663 7.02289V16.6098H90.9225L87.2249 11.4063V16.6098H85.0332V7.02289H86.677L90.3755 12.2273V7.02289H92.5663Z" fill="white"/>
<path d="M46.8665 18.1185V27.7082H44.6748V18.1185H46.8665Z" fill="white"/>
<path d="M55.496 18.1185V27.7082H53.8522L50.1546 22.5037V27.7082H47.9629V18.1185H49.6067L53.3043 23.3229V18.1185H55.496Z" fill="white"/>
<path d="M61.6624 20.2275V22.0753H65.224V24.1898H61.6624V27.7082H59.4707V18.1185H65.2911V20.2275H61.6624Z" fill="white"/>
<path d="M65.6359 22.911C65.6302 22.2548 65.7552 21.604 66.0036 20.9966C66.2521 20.3892 66.619 19.8374 67.0831 19.3734C67.5471 18.9094 68.0989 18.5424 68.7063 18.294C69.3137 18.0455 69.9644 17.9205 70.6206 17.9263C71.2768 17.9206 71.9276 18.0457 72.535 18.2942C73.1423 18.5427 73.6942 18.9097 74.1582 19.3736C74.6223 19.8376 74.9893 20.3894 75.2379 20.9967C75.4866 21.604 75.6117 22.2548 75.6062 22.911C75.6114 23.5671 75.4858 24.2176 75.2369 24.8247C74.988 25.4318 74.6208 25.9832 74.1565 26.4469C73.6923 26.9105 73.1404 27.2771 72.533 27.5252C71.9256 27.7733 71.2749 27.898 70.6188 27.892C69.963 27.8975 69.3128 27.7725 68.7058 27.5241C68.0989 27.2758 67.5475 26.9091 67.0837 26.4455C66.62 25.9819 66.2531 25.4306 66.0045 24.8238C65.756 24.217 65.6307 23.5667 65.6359 22.911ZM73.4154 22.911C73.4323 22.5369 73.3721 22.1633 73.2383 21.8136C73.1046 21.4638 72.9002 21.1453 72.638 20.878C72.3758 20.6106 72.0614 20.4001 71.7144 20.2595C71.3673 20.119 70.995 20.0514 70.6206 20.061C70.2463 20.0514 69.874 20.119 69.527 20.2595C69.18 20.4001 68.8656 20.6106 68.6035 20.878C68.3414 21.1454 68.1371 21.4639 68.0035 21.8136C67.8698 22.1634 67.8097 22.5369 67.8267 22.911C67.8098 23.285 67.8701 23.6585 68.0038 24.0082C68.1375 24.3579 68.3417 24.6763 68.6038 24.9436C68.8659 25.211 69.1802 25.4215 69.5272 25.5621C69.8741 25.7027 70.2464 25.7704 70.6206 25.7609C70.9949 25.7704 71.3672 25.7027 71.7142 25.5621C72.0612 25.4215 72.3756 25.211 72.6378 24.9437C72.8999 24.6763 73.1042 24.3579 73.238 24.0082C73.3718 23.6585 73.4322 23.285 73.4154 22.911Z" fill="white"/>
<path d="M79.5264 24.5548H78.4856V27.7082H76.2939V18.1185H80.1285C80.5605 18.1173 80.9885 18.2014 81.3878 18.3662C81.7872 18.5309 82.1501 18.7729 82.4556 19.0784C82.7611 19.3838 83.0032 19.7466 83.1681 20.1459C83.3329 20.5452 83.4172 20.9731 83.4161 21.4051C83.4057 21.9862 83.2353 22.5532 82.9236 23.0437C82.6118 23.5341 82.1708 23.9292 81.6491 24.1852L83.6892 27.7054H81.3338L79.5264 24.5548ZM78.4856 22.6371H80.1285C80.2816 22.6289 80.4316 22.5904 80.5697 22.5239C80.7079 22.4574 80.8315 22.3642 80.9334 22.2496C81.0353 22.1351 81.1134 22.0015 81.1634 21.8565C81.2133 21.7116 81.2341 21.5581 81.2244 21.4051C81.2342 21.252 81.2136 21.0985 81.1637 20.9535C81.1138 20.8084 81.0356 20.6747 80.9337 20.56C80.8318 20.4454 80.7081 20.3521 80.5699 20.2855C80.4317 20.219 80.2817 20.1805 80.1285 20.1723H78.4856V22.6371Z" fill="white"/>
<path d="M90.2001 25.5937V27.7082H84.1738V18.1185H90.1312V20.2275H86.3619V21.8161H89.7855V23.8975H86.3619V25.5937H90.2001Z" fill="white"/>
<path d="M95.9232 27.7082L94.3069 24.9409L92.6907 27.7082H90.2002L93.063 22.7915L90.3372 18.1212H92.8296L94.3087 20.6549L95.788 18.1212H98.2803L95.5554 22.7915L98.4174 27.7082H95.9232Z" fill="white"/>
<path d="M37.1637 0H36.5459V43.9263H37.1637V0Z" fill="white"/>
<path d="M45.3279 35.1475H44.8683L45.1441 32.7499H44.2578L44.3571 32.4226H46.5562L46.4569 32.7499H45.6046L45.3279 35.1475Z" fill="white"/>
<path d="M47.2742 33.6094C47.3294 33.546 47.3863 33.4862 47.4433 33.4255C47.4999 33.3704 47.5615 33.3205 47.6272 33.2766C47.6886 33.2342 47.755 33.1996 47.8249 33.1736C47.8973 33.1483 47.9734 33.1355 48.0501 33.1359C48.1361 33.1337 48.2213 33.1527 48.2983 33.1911C48.3651 33.226 48.4224 33.2765 48.4656 33.3382C48.5106 33.4019 48.542 33.4742 48.5576 33.5506C48.5738 33.6342 48.5765 33.7198 48.5659 33.8043L48.4142 35.1447H47.9637L48.1108 33.8466C48.1177 33.8 48.1177 33.7526 48.1108 33.7059C48.1046 33.665 48.0905 33.6257 48.0694 33.5901C48.0491 33.5568 48.0206 33.5293 47.9867 33.5101C47.9497 33.4891 47.9078 33.4786 47.8654 33.4798C47.8115 33.4803 47.7582 33.4919 47.709 33.5138C47.6522 33.538 47.5985 33.5688 47.549 33.6057C47.4928 33.6485 47.4409 33.6965 47.3937 33.7491C47.342 33.8059 47.2938 33.8658 47.2493 33.9284L47.1096 35.141H46.6582L46.9984 32.1614H47.4507L47.2742 33.6094Z" fill="white"/>
<path d="M49.761 35.1843C49.6535 35.1859 49.5467 35.1666 49.4466 35.1273C49.3532 35.0901 49.2686 35.0337 49.1984 34.9618C49.1272 34.8869 49.0725 34.798 49.0375 34.7007C48.9974 34.5893 48.9778 34.4716 48.9796 34.3532C48.9787 34.2409 48.9942 34.1291 49.0256 34.0213C49.0559 33.9187 49.0994 33.8204 49.1552 33.729C49.2096 33.6399 49.2754 33.5583 49.351 33.4863C49.4244 33.4153 49.5062 33.3535 49.5947 33.3024C49.6814 33.2516 49.774 33.2114 49.8705 33.1829C49.9642 33.1555 50.0615 33.1416 50.1592 33.1415C50.2505 33.1396 50.3415 33.1542 50.4276 33.1847C50.4993 33.2105 50.5653 33.2501 50.6216 33.3015C50.6724 33.3476 50.7128 33.404 50.7401 33.467C50.7668 33.5279 50.7806 33.5936 50.7806 33.66C50.7808 33.7517 50.7543 33.8415 50.7043 33.9184C50.6467 34.0028 50.5706 34.0729 50.4818 34.1234C50.3691 34.1873 50.2473 34.2335 50.1205 34.2604C49.9596 34.2954 49.7952 34.312 49.6305 34.31H49.4466C49.4458 34.3816 49.4573 34.4528 49.4806 34.5205C49.5021 34.5841 49.5373 34.6421 49.5836 34.6906C49.6323 34.7406 49.6913 34.7795 49.7564 34.8046C49.8348 34.8329 49.9177 34.8466 50.001 34.8451C50.092 34.8446 50.1824 34.831 50.2695 34.8046C50.3636 34.7749 50.4539 34.7345 50.5388 34.6842V34.8956C50.4801 34.9464 50.4167 34.9913 50.3494 35.0299C50.2853 35.066 50.2182 35.0967 50.149 35.1218C50.0838 35.1445 50.0168 35.1614 49.9486 35.1723C49.8866 35.1817 49.8238 35.1857 49.761 35.1843ZM50.058 33.4605C49.9856 33.4606 49.9143 33.4782 49.8503 33.512C49.7831 33.5463 49.7227 33.5924 49.6719 33.6481C49.6183 33.7077 49.5734 33.7745 49.5385 33.8467C49.5016 33.9218 49.475 34.0016 49.4595 34.0839H49.6434C49.7443 34.0852 49.8451 34.0756 49.944 34.0553C50.0212 34.0405 50.0958 34.0145 50.1655 33.9781C50.2196 33.9503 50.2667 33.9107 50.3035 33.8623C50.3339 33.82 50.3503 33.7692 50.3504 33.717C50.35 33.6855 50.3438 33.6543 50.332 33.6251C50.3197 33.5939 50.3009 33.5657 50.2768 33.5424C50.2508 33.5164 50.2194 33.4963 50.1848 33.4835C50.1444 33.4679 50.1013 33.4601 50.058 33.4605Z" fill="white"/>
<path d="M51.9824 35.1475L52.2932 32.4226H52.7528L52.6232 33.5663H53.9774L54.108 32.4226H54.5676L54.2569 35.1475H53.7972L53.9388 33.8945H52.5855L52.443 35.1475H51.9824Z" fill="white"/>
<path d="M55.719 35.1842C55.5963 35.1867 55.4745 35.1636 55.3614 35.1162C55.2645 35.0739 55.178 35.0112 55.1076 34.9324C55.0397 34.8535 54.9881 34.7619 54.9559 34.663C54.9225 34.5581 54.9058 34.4486 54.9063 34.3385C54.9051 34.1806 54.9364 34.0241 54.9982 33.8788C55.059 33.7369 55.1457 33.6075 55.2538 33.4973C55.362 33.3876 55.4898 33.2994 55.6307 33.2371C55.7752 33.1723 55.932 33.1394 56.0904 33.1405C56.2134 33.1377 56.3357 33.1612 56.4489 33.2095C56.5462 33.251 56.6329 33.3138 56.7027 33.3934C56.7719 33.4739 56.8238 33.5678 56.8553 33.6692C56.8887 33.7741 56.9054 33.8836 56.9049 33.9937C56.9065 34.1517 56.8752 34.3082 56.813 34.4534C56.7516 34.5946 56.6643 34.7231 56.5556 34.8321C56.4469 34.9408 56.3187 35.0281 56.1777 35.0896C56.0334 35.1538 55.8769 35.1861 55.719 35.1842ZM55.8274 34.8634C55.9062 34.8627 55.9834 34.8418 56.0518 34.8027C56.1247 34.7603 56.1887 34.7041 56.2402 34.6372C56.2969 34.5621 56.3409 34.4783 56.3708 34.389C56.4046 34.2886 56.4214 34.1833 56.4204 34.0774C56.4202 33.9984 56.411 33.9198 56.3929 33.8429C56.3756 33.7735 56.347 33.7073 56.3083 33.6471C56.2731 33.5919 56.2255 33.5457 56.1694 33.512C56.1125 33.4771 56.0468 33.4592 55.98 33.4605C55.9005 33.4602 55.8224 33.4815 55.7539 33.5221C55.6798 33.5645 55.6153 33.6217 55.5645 33.6903C55.5081 33.7672 55.464 33.8525 55.434 33.9431C55.4019 34.0426 55.3857 34.1466 55.3862 34.2511C55.3861 34.3298 55.3956 34.4083 55.4147 34.4846C55.432 34.5544 55.4605 34.6208 55.4992 34.6814C55.5349 34.7351 55.582 34.7803 55.6371 34.8138C55.6947 34.8477 55.7606 34.8649 55.8274 34.8634Z" fill="white"/>
<path d="M57.4767 33.1755H57.8445L57.8555 33.6352C57.9125 33.569 57.9704 33.5074 58.0283 33.4513C58.0853 33.3937 58.1468 33.3408 58.2122 33.2932C58.2719 33.2483 58.3375 33.2118 58.4071 33.1847C58.4761 33.1571 58.5498 33.1433 58.6241 33.1442C58.6924 33.1432 58.7603 33.156 58.8236 33.1819C58.8807 33.2062 58.932 33.2423 58.9743 33.2877C59.0171 33.3333 59.0508 33.3866 59.0736 33.4449C59.0996 33.5059 59.1155 33.5708 59.1205 33.637C59.1775 33.5699 59.2354 33.5064 59.2942 33.4476C59.3508 33.3897 59.4124 33.3368 59.4781 33.2895C59.5387 33.2455 59.6049 33.2096 59.6748 33.1828C59.7439 33.1569 59.8172 33.1438 59.8909 33.1442C59.9719 33.1423 60.052 33.1613 60.1235 33.1994C60.1876 33.2349 60.2422 33.2853 60.2825 33.3465C60.3261 33.4102 60.3553 33.4827 60.3681 33.5589C60.3849 33.6424 60.3883 33.728 60.3782 33.8126L60.2255 35.153H59.7751L59.9222 33.8549C59.9291 33.8083 59.9291 33.7609 59.9222 33.7142C59.9172 33.6732 59.9034 33.6337 59.8817 33.5984C59.8638 33.5657 59.8379 33.5382 59.8063 33.5184C59.7733 33.4977 59.735 33.4871 59.696 33.4881C59.6466 33.4891 59.5981 33.5007 59.5535 33.5221C59.4996 33.5468 59.4487 33.5777 59.4018 33.614C59.3475 33.6574 59.2971 33.7054 59.251 33.7574C59.1993 33.8142 59.1511 33.8741 59.1067 33.9367V33.9294L58.967 35.1493H58.5174L58.6654 33.8512C58.672 33.8046 58.672 33.7572 58.6654 33.7106C58.6593 33.6696 58.6452 33.6303 58.6241 33.5947C58.6046 33.562 58.5775 33.5346 58.545 33.5147C58.5121 33.4938 58.4736 33.4833 58.4346 33.4844C58.3858 33.4852 58.3378 33.4968 58.294 33.5184C58.2406 33.543 58.1903 33.5738 58.1442 33.6103C58.09 33.6535 58.0398 33.7015 57.9943 33.7538C57.9429 33.8105 57.895 33.8704 57.8509 33.933L57.7111 35.1457H57.2598L57.4767 33.1755Z" fill="white"/>
<path d="M61.5774 35.1843C61.4699 35.1859 61.3631 35.1666 61.263 35.1273C61.1699 35.0901 61.0856 35.0337 61.0157 34.9618C60.9446 34.8867 60.8896 34.7978 60.8539 34.7007C60.8138 34.5893 60.7942 34.4716 60.796 34.3532C60.7954 34.2409 60.8112 34.1291 60.8429 34.0213C60.8733 33.9188 60.9165 33.8206 60.9716 33.729C61.0265 33.6403 61.0923 33.5588 61.1674 33.4863C61.241 33.4155 61.3228 33.3538 61.411 33.3024C61.4977 33.2514 61.5904 33.2113 61.6869 33.1829C61.7807 33.1556 61.8778 33.1417 61.9755 33.1415C62.0672 33.1396 62.1584 33.1542 62.2449 33.1847C62.3165 33.2107 62.3824 33.2503 62.4389 33.3015C62.4897 33.3476 62.5301 33.404 62.5574 33.467C62.5834 33.5281 62.5968 33.5937 62.597 33.66C62.5972 33.7517 62.5707 33.8415 62.5207 33.9184C62.4634 34.003 62.3872 34.0732 62.2982 34.1234C62.1858 34.1873 62.0642 34.2335 61.9378 34.2604C61.7765 34.2953 61.6119 34.312 61.4469 34.31H61.263C61.2622 34.3816 61.2737 34.4528 61.297 34.5205C61.3193 34.5839 61.3547 34.6419 61.4009 34.6906C61.4495 34.7408 61.5085 34.7798 61.5737 34.8046C61.6518 34.8328 61.7344 34.8466 61.8174 34.8451C61.9086 34.8446 61.9994 34.831 62.0868 34.8046C62.1806 34.7749 62.2707 34.7345 62.3552 34.6842V34.8956C62.2983 34.9461 62.2367 34.9911 62.1713 35.0299C62.1068 35.0658 62.0394 35.0965 61.97 35.1218C61.9051 35.1444 61.8384 35.1614 61.7705 35.1723C61.7066 35.1819 61.642 35.1859 61.5774 35.1843ZM61.8753 33.4605C61.8026 33.4606 61.731 33.4782 61.6666 33.512C61.5998 33.5464 61.5397 33.5925 61.4892 33.6481C61.435 33.7072 61.3901 33.7742 61.3558 33.8467C61.3189 33.9218 61.2923 34.0016 61.2768 34.0839H61.4607C61.5616 34.0852 61.6624 34.0757 61.7613 34.0553C61.8389 34.0406 61.9138 34.0146 61.9838 33.9781C62.0376 33.9503 62.0844 33.9107 62.1208 33.8623C62.1513 33.82 62.1676 33.7692 62.1676 33.717C62.1676 33.6856 62.1617 33.6544 62.1502 33.6251C62.1373 33.594 62.1182 33.5659 62.0941 33.5424C62.0683 33.5161 62.0368 33.4959 62.0021 33.4835C61.9617 33.4678 61.9186 33.4601 61.8753 33.4605Z" fill="white"/>
<path d="M64.4925 35.1842C64.3698 35.1867 64.248 35.1636 64.1348 35.1162C64.038 35.0739 63.9515 35.0112 63.8811 34.9324C63.8125 34.854 63.7609 34.7623 63.7294 34.663C63.6955 34.5582 63.6788 34.4486 63.6797 34.3385C63.6781 34.1805 63.7095 34.024 63.7717 33.8788C63.8322 33.7367 63.9189 33.6073 64.0273 33.4973C64.1355 33.3877 64.2634 33.2994 64.4042 33.2371C64.5487 33.1721 64.7055 33.1392 64.8639 33.1405C64.9873 33.1377 65.1098 33.1612 65.2233 33.2095C65.3205 33.2512 65.4072 33.314 65.4771 33.3934C65.5464 33.4737 65.598 33.5677 65.6288 33.6692C65.6626 33.774 65.6794 33.8836 65.6784 33.9937C65.6804 34.1517 65.6491 34.3083 65.5865 34.4534C65.5257 34.5947 65.4386 34.7232 65.33 34.8321C65.2212 34.9408 65.0931 35.0281 64.9522 35.0896C64.8075 35.1537 64.6507 35.186 64.4925 35.1842ZM64.6001 34.8634C64.6788 34.8627 64.756 34.8418 64.8243 34.8027C64.8976 34.7608 64.9617 34.7045 65.0128 34.6372C65.0701 34.5623 65.1145 34.4785 65.1443 34.389C65.1782 34.2886 65.1949 34.1833 65.1939 34.0774C65.1938 33.9984 65.1845 33.9198 65.1663 33.8429C65.1491 33.7735 65.1205 33.7073 65.0818 33.6471C65.0466 33.5919 64.999 33.5457 64.943 33.512C64.8857 33.4771 64.8197 33.4592 64.7526 33.4605C64.6731 33.4604 64.595 33.4817 64.5265 33.5221C64.4529 33.5648 64.3887 33.622 64.338 33.6903C64.2815 33.7672 64.2375 33.8525 64.2075 33.9431C64.175 34.0425 64.1588 34.1465 64.1597 34.2511C64.1591 34.3299 64.1687 34.4083 64.1882 34.4846C64.2051 34.5545 64.2336 34.621 64.2727 34.6814C64.3084 34.7348 64.3551 34.78 64.4097 34.8138C64.4675 34.8473 64.5333 34.8644 64.6001 34.8634Z" fill="white"/>
<path d="M66.6905 34.7586C66.6786 34.8699 66.6611 34.9875 66.639 35.1144C66.6169 35.2413 66.5912 35.3663 66.5627 35.4914C66.5342 35.6164 66.503 35.7368 66.4708 35.8499C66.4407 35.95 66.4054 36.0485 66.3651 36.145H66.0828L66.3825 33.4973H65.9854L66.0451 33.2702L66.4193 33.1783L66.4303 33.0928C66.4444 32.9637 66.4782 32.8375 66.5305 32.7186C66.5791 32.6058 66.6476 32.5028 66.7328 32.4143C66.8165 32.3267 66.9169 32.2567 67.0279 32.2084C67.1465 32.1568 67.2747 32.1311 67.4039 32.133C67.4602 32.1332 67.5165 32.1375 67.5721 32.1458C67.6287 32.1547 67.6844 32.1686 67.7386 32.1872L67.6264 32.5072L67.5869 32.5255C67.5507 32.5042 67.5121 32.4873 67.4719 32.475C67.4291 32.4614 67.3845 32.4546 67.3396 32.4547C67.2756 32.4532 67.2123 32.4681 67.1557 32.498C67.1034 32.5281 67.058 32.5688 67.0224 32.6175C66.9819 32.6717 66.9509 32.7323 66.9305 32.7968C66.9067 32.8687 66.891 32.943 66.8835 33.0183L66.8652 33.1783H67.5197L67.4048 33.5H66.8302L66.6905 34.7586Z" fill="white"/>
<path d="M68.4795 35.1475L68.9998 32.4226H69.6737C69.7188 32.6341 69.7657 32.8455 69.8098 33.0551C69.8539 33.2647 69.9017 33.4753 69.9449 33.6876L70.0635 34.2328L70.1178 34.5693H70.1555L70.2851 34.2328C70.3209 34.1528 70.3568 34.0737 70.3917 33.9947C70.4267 33.9156 70.4625 33.8357 70.4984 33.7557L71.0905 32.4226H71.7864L71.6853 35.1475H71.2099L71.3157 33.1103L71.3525 32.6865H71.3138L71.1576 33.0928C71.1401 33.1305 71.1236 33.1682 71.1052 33.2059C71.0868 33.2436 71.0711 33.2813 71.0528 33.319L70.2649 35.0915H69.8438L69.4558 33.3208L69.3942 33.0331C69.3841 32.9742 69.374 32.9172 69.3639 32.8602L69.3345 32.6865H69.2959C69.2867 32.7462 69.2784 32.8051 69.2711 32.8639C69.2637 32.9227 69.2554 32.9825 69.2472 33.0423L69.1966 33.3374L68.8822 35.1475H68.4795Z" fill="white"/>
<path d="M74.0037 35.1475H73.636L73.625 34.6878C73.5661 34.754 73.5082 34.8165 73.4503 34.8717C73.3952 34.9294 73.3355 34.9826 73.2719 35.0307C73.2114 35.075 73.1457 35.1114 73.0761 35.1392C73.0069 35.1659 72.9333 35.1793 72.8591 35.1788C72.7768 35.1811 72.6951 35.1624 72.622 35.1245C72.5565 35.0892 72.5004 35.0388 72.4583 34.9774C72.4135 34.9133 72.3822 34.8407 72.3664 34.7641C72.3496 34.6809 72.3462 34.5956 72.3563 34.5113L72.5089 33.17H72.9612L72.8122 34.469C72.8048 34.5156 72.8048 34.5631 72.8122 34.6097C72.8192 34.651 72.8333 34.6908 72.8536 34.7273C72.8729 34.7602 72.9001 34.7877 72.9327 34.8073C72.9667 34.828 73.006 34.8382 73.0458 34.8368C73.0952 34.836 73.1438 34.8244 73.1882 34.8027C73.2427 34.7776 73.2934 34.7451 73.339 34.7062C73.3923 34.6623 73.4421 34.6144 73.488 34.5628C73.5393 34.5043 73.5872 34.4429 73.6314 34.3789L73.7711 33.1654H74.2225L74.0037 35.1475Z" fill="white"/>
<path d="M74.9603 32.1679H75.4126L75.0724 35.1475H74.6201L74.9603 32.1679Z" fill="white"/>
<path d="M76.0427 33.5001H75.6455L75.7034 33.2887C75.7877 33.2687 75.87 33.2407 75.9489 33.205C76.0081 33.1756 76.0621 33.1368 76.1088 33.0901C76.156 33.0404 76.1966 32.9848 76.2293 32.9246C76.2661 32.8593 76.3083 32.7802 76.3571 32.6874H76.5722L76.517 33.1783H77.225L77.11 33.5001H76.495L76.381 34.4902C76.361 34.5828 76.3782 34.6795 76.4288 34.7596C76.4573 34.7904 76.4925 34.8142 76.5317 34.829C76.571 34.8439 76.6132 34.8494 76.655 34.8451C76.7134 34.8458 76.7714 34.8368 76.8268 34.8184C76.8903 34.7967 76.9518 34.7696 77.0107 34.7375V34.9536C76.9178 35.0285 76.8131 35.0875 76.7009 35.1282C76.5993 35.1659 76.492 35.1858 76.3837 35.1871C76.3037 35.19 76.2241 35.1733 76.152 35.1384C76.0905 35.1072 76.0387 35.0598 76.0022 35.0014C75.9634 34.9383 75.9384 34.8679 75.9287 34.7945C75.9162 34.7095 75.9162 34.6231 75.9287 34.538L76.0427 33.5001Z" fill="white"/>
<path d="M77.7174 33.1756H78.1679L77.9427 35.1476H77.4922L77.7174 33.1756ZM77.985 32.7867C77.9526 32.7885 77.9203 32.7837 77.8899 32.7725C77.8595 32.7612 77.8318 32.7439 77.8084 32.7214C77.787 32.7002 77.7702 32.6748 77.7589 32.6468C77.7477 32.6188 77.7424 32.5888 77.7432 32.5587C77.7428 32.5195 77.7517 32.4808 77.7689 32.4456C77.7844 32.4105 77.8073 32.3791 77.836 32.3537C77.8654 32.3273 77.8994 32.3064 77.9363 32.2921C77.9743 32.2772 78.0149 32.2697 78.0558 32.27C78.089 32.2701 78.122 32.276 78.1532 32.2875C78.1812 32.2982 78.2067 32.3148 78.2277 32.3362C78.2487 32.3579 78.2652 32.3835 78.2764 32.4116C78.288 32.4409 78.2939 32.4721 78.2939 32.5035C78.2943 32.5426 78.2858 32.5813 78.2691 32.6166C78.2525 32.6511 78.2297 32.6822 78.202 32.7085C78.1728 32.7337 78.1396 32.7537 78.1036 32.7674C78.0655 32.7807 78.0253 32.7873 77.985 32.7867Z" fill="white"/>
<path d="M79.1685 33.5975C79.2301 33.5285 79.2899 33.4651 79.3524 33.409C79.4095 33.3555 79.471 33.3069 79.5363 33.2637C79.5938 33.2261 79.6555 33.1952 79.7201 33.1718C79.7857 33.1504 79.8543 33.1395 79.9233 33.1396C80.0177 33.1378 80.111 33.1609 80.1936 33.2067C80.2728 33.2523 80.3407 33.3152 80.3922 33.3906C80.4483 33.4696 80.4897 33.558 80.5145 33.6517C80.5439 33.752 80.5585 33.8561 80.5577 33.9606C80.5584 34.0759 80.5414 34.1907 80.5071 34.3008C80.4757 34.4057 80.4302 34.5059 80.3719 34.5986C80.3149 34.6901 80.246 34.7736 80.1669 34.8468C80.0891 34.9187 80.0027 34.9805 79.9095 35.0307C79.8172 35.0817 79.719 35.1212 79.6172 35.1484C79.5156 35.174 79.4111 35.1861 79.3064 35.1843C79.2531 35.1828 79.2 35.1779 79.1474 35.1696C79.0977 35.1604 79.0555 35.1512 79.0205 35.141L78.9047 36.1468H78.4551L78.7934 33.1764H79.1611L79.1685 33.5975ZM79.0554 34.7816C79.1114 34.8119 79.1715 34.8339 79.2338 34.8468C79.2857 34.8565 79.3382 34.862 79.391 34.8634C79.4834 34.8639 79.5747 34.8428 79.6576 34.8018C79.741 34.7605 79.8146 34.7018 79.8737 34.6299C79.9374 34.552 79.9867 34.4632 80.0189 34.3679C80.0552 34.2601 80.0732 34.147 80.0722 34.0332C80.0728 33.9615 80.065 33.8899 80.0492 33.8199C80.0368 33.7581 80.0148 33.6985 79.984 33.6434C79.9575 33.5962 79.9204 33.5559 79.8755 33.5258C79.8302 33.4969 79.7775 33.4819 79.7238 33.4826C79.6744 33.4829 79.6256 33.4933 79.5804 33.5129C79.5287 33.5343 79.4799 33.5621 79.4351 33.5956C79.3838 33.6351 79.3361 33.6791 79.2926 33.7271C79.2444 33.78 79.1996 33.8359 79.1584 33.8944L79.0554 34.7816Z" fill="white"/>
<path d="M81.2386 32.1679H81.6909L81.3508 35.1475H80.8984L81.2386 32.1679Z" fill="white"/>
<path d="M82.7034 35.1843C82.5956 35.1858 82.4885 35.1665 82.388 35.1273C82.2949 35.0902 82.2106 35.0337 82.1407 34.9618C82.0695 34.8869 82.0148 34.798 81.9798 34.7007C81.9394 34.5894 81.9194 34.4717 81.921 34.3532C81.9204 34.2409 81.9362 34.1291 81.9679 34.0213C81.9982 33.9187 82.0418 33.8204 82.0975 33.729C82.1519 33.6401 82.2173 33.5585 82.2924 33.4863C82.3663 33.4155 82.4484 33.3538 82.5369 33.3024C82.6236 33.2514 82.7163 33.2113 82.8128 33.1829C82.9066 33.1555 83.0037 33.1416 83.1014 33.1415C83.1928 33.1396 83.2837 33.1542 83.3699 33.1847C83.4416 33.2105 83.5075 33.2502 83.5638 33.3015C83.6147 33.3476 83.6551 33.404 83.6825 33.467C83.7088 33.5279 83.7223 33.5936 83.722 33.66C83.7225 33.7517 83.6963 33.8414 83.6466 33.9184C83.5889 34.003 83.5125 34.0732 83.4232 34.1234C83.3109 34.1875 83.1893 34.2337 83.0628 34.2604C82.9019 34.2954 82.7375 34.312 82.5728 34.31H82.389C82.3882 34.3816 82.3996 34.4528 82.423 34.5205C82.4446 34.584 82.4797 34.642 82.5259 34.6906C82.5747 34.7406 82.6336 34.7795 82.6988 34.8046C82.7771 34.8329 82.86 34.8466 82.9433 34.8451C83.0343 34.8446 83.1247 34.831 83.2117 34.8046C83.3058 34.7749 83.3963 34.7345 83.4811 34.6842V34.8956C83.4225 34.9464 83.3591 34.9913 83.2917 35.0299C83.2274 35.0661 83.16 35.0969 83.0904 35.1218C83.0256 35.1445 82.9588 35.1615 82.8909 35.1723C82.8288 35.1816 82.7661 35.1856 82.7034 35.1843ZM83.0003 33.4605C82.9279 33.4605 82.8565 33.4781 82.7925 33.512C82.7254 33.5463 82.665 33.5924 82.6142 33.6481C82.5604 33.7075 82.5155 33.7744 82.4809 33.8467C82.4438 33.9218 82.4172 34.0016 82.4018 34.0839H82.5857C82.6866 34.0852 82.7874 34.0756 82.8863 34.0553C82.9635 34.0405 83.0381 34.0145 83.1079 33.9781C83.1619 33.9504 83.209 33.9108 83.2457 33.8623C83.2762 33.82 83.2926 33.7692 83.2926 33.717C83.2923 33.6855 83.286 33.6543 83.2742 33.6251C83.2617 33.5941 83.2429 33.5659 83.2191 33.5424C83.1931 33.5163 83.1617 33.4962 83.1272 33.4835C83.0867 33.4679 83.0437 33.4601 83.0003 33.4605Z" fill="white"/>
<path d="M85.6679 34.857C85.7443 34.8579 85.8205 34.848 85.8941 34.8276C85.9598 34.8102 86.022 34.7816 86.078 34.743C86.1282 34.7085 86.1704 34.6636 86.2021 34.6116C86.2327 34.5605 86.2487 34.5019 86.2481 34.4424C86.2488 34.3807 86.2312 34.3202 86.1975 34.2686C86.1613 34.2159 86.1169 34.1694 86.066 34.1307C86.0084 34.0866 85.9468 34.0478 85.8822 34.0149L85.6689 33.9027C85.5962 33.8651 85.5245 33.8237 85.4556 33.7796C85.3885 33.7368 85.3268 33.6862 85.2717 33.6288C85.2177 33.572 85.1733 33.5067 85.1402 33.4357C85.1056 33.357 85.0887 33.2716 85.0906 33.1857C85.0896 33.0735 85.1158 32.9628 85.1669 32.863C85.2198 32.7641 85.2935 32.6778 85.3829 32.6101C85.4815 32.5363 85.5923 32.4803 85.7102 32.4447C85.8438 32.4043 85.9826 32.3845 86.1221 32.3858C86.1635 32.3858 86.214 32.3858 86.2628 32.3904C86.3115 32.395 86.3721 32.4005 86.4337 32.4079C86.4953 32.4152 86.5569 32.4272 86.6176 32.4401C86.6783 32.4529 86.7472 32.4695 86.8125 32.4888L86.6976 32.8501L86.6599 32.8685C86.6003 32.8399 86.5388 32.815 86.4761 32.794C86.4154 32.7747 86.3584 32.7581 86.3041 32.7462C86.2538 32.7347 86.2028 32.7261 86.1515 32.7205C86.1103 32.7156 86.0689 32.7131 86.0274 32.7131C85.959 32.7121 85.8909 32.7211 85.8251 32.7398C85.7692 32.7558 85.7166 32.7816 85.6698 32.8161C85.6278 32.8473 85.5932 32.8875 85.5687 32.9337C85.5436 32.9813 85.5309 33.0344 85.5318 33.0882C85.5295 33.1532 85.5472 33.2174 85.5825 33.2721C85.6182 33.3275 85.6629 33.3766 85.7148 33.4173C85.7724 33.4634 85.834 33.5043 85.8987 33.5396L86.1138 33.6545C86.1865 33.694 86.2582 33.7345 86.328 33.7777C86.3949 33.8186 86.4566 33.8674 86.5119 33.9229C86.5663 33.9761 86.6111 34.0384 86.6443 34.1068C86.6793 34.1806 86.6966 34.2615 86.6948 34.3431C86.6948 34.4559 86.6663 34.5669 86.6121 34.6658C86.555 34.7705 86.4767 34.8622 86.3823 34.9352C86.2772 35.0165 86.1586 35.0787 86.032 35.119C85.8892 35.1655 85.7399 35.1885 85.5898 35.187C85.4559 35.1866 85.3223 35.1716 85.1917 35.142C85.0581 35.1128 84.9282 35.0683 84.8047 35.0096L84.9205 34.6557L84.9591 34.6373C85.073 34.7044 85.1935 34.7599 85.3186 34.8028C85.4313 34.8398 85.5493 34.8581 85.6679 34.857Z" fill="white"/>
<path d="M87.5036 33.5001H87.1074L87.1653 33.2887C87.2494 33.2689 87.3313 33.2409 87.4099 33.205C87.4692 33.1759 87.5233 33.137 87.5698 33.0901C87.6171 33.0404 87.6575 32.9848 87.6903 32.9246C87.727 32.8593 87.7702 32.7802 87.818 32.6874H88.0341L87.978 33.1783H88.6878L88.571 33.5001H87.956L87.8429 34.4902C87.8227 34.5827 87.8395 34.6794 87.8897 34.7596C87.9185 34.7901 87.9538 34.8136 87.993 34.8284C88.0322 34.8432 88.0742 34.849 88.1159 34.8451C88.1746 34.8458 88.233 34.8368 88.2888 34.8184C88.3522 34.7967 88.4137 34.7697 88.4726 34.7375V34.9536C88.3802 35.0287 88.2758 35.0877 88.1637 35.1282C88.0619 35.166 87.9543 35.1859 87.8456 35.1871C87.7659 35.1899 87.6867 35.1732 87.6149 35.1384C87.5536 35.107 87.5018 35.0596 87.465 35.0014C87.426 34.9384 87.4006 34.868 87.3906 34.7945C87.379 34.7094 87.379 34.6231 87.3906 34.538L87.5036 33.5001Z" fill="white"/>
<path d="M89.1824 33.1755H89.5501C89.5501 33.2803 89.5501 33.3833 89.5455 33.4863C89.5409 33.5892 89.5455 33.6904 89.5455 33.7933C89.5841 33.7228 89.6264 33.6493 89.6724 33.5727C89.716 33.4972 89.7672 33.4264 89.825 33.3612C89.8777 33.299 89.9398 33.2454 90.0089 33.2022C90.0795 33.1592 90.1607 33.1372 90.2433 33.1387C90.2785 33.139 90.3137 33.143 90.3481 33.1507C90.3787 33.1569 90.4077 33.1697 90.4327 33.1884L90.3408 33.6186C90.3147 33.6128 90.2883 33.6088 90.2617 33.6067C90.2378 33.6053 90.2139 33.6053 90.19 33.6067C90.1208 33.6063 90.0522 33.6191 89.9878 33.6444C89.9267 33.6702 89.8699 33.7052 89.8195 33.7483C89.7642 33.7972 89.7146 33.852 89.6715 33.9119C89.6237 33.9754 89.5795 34.0462 89.5271 34.1243L89.4113 35.1512H88.959L89.1824 33.1755Z" fill="white"/>
<path d="M91.2962 35.1843C91.1884 35.1859 91.0813 35.1665 90.9808 35.1273C90.8875 35.0904 90.8033 35.0339 90.7335 34.9618C90.6621 34.8869 90.607 34.798 90.5718 34.7007C90.5316 34.5893 90.5119 34.4716 90.5138 34.3532C90.5132 34.2409 90.529 34.1291 90.5607 34.0213C90.5902 33.9184 90.6339 33.82 90.6903 33.729C90.7441 33.6397 90.8096 33.5581 90.8852 33.4863C90.9588 33.4155 91.0406 33.3538 91.1288 33.3024C91.2156 33.2515 91.3082 33.2113 91.4046 33.1829C91.4981 33.1556 91.595 33.1417 91.6924 33.1415C91.7838 33.1396 91.8747 33.1542 91.9609 33.1847C92.033 33.2103 92.0992 33.25 92.1558 33.3015C92.206 33.3479 92.2461 33.4043 92.2734 33.467C92.3005 33.5277 92.3143 33.5935 92.3139 33.66C92.3141 33.7517 92.2876 33.8415 92.2376 33.9184C92.18 34.0028 92.1039 34.0729 92.0151 34.1234C91.9025 34.1875 91.7806 34.2337 91.6538 34.2604C91.4932 34.2953 91.3291 34.312 91.1647 34.31H90.9808C90.9803 34.3817 90.9921 34.4529 91.0158 34.5205C91.037 34.584 91.0719 34.642 91.1178 34.6906C91.1668 34.7408 91.226 34.7797 91.2916 34.8046C91.3696 34.833 91.4522 34.8467 91.5352 34.8451C91.6262 34.8447 91.7166 34.8311 91.8036 34.8046C91.8978 34.7751 91.9883 34.7347 92.073 34.6842V34.8956C92.0144 34.9464 91.951 34.9913 91.8837 35.0299C91.8196 35.0661 91.7525 35.0969 91.6832 35.1218C91.618 35.1445 91.5509 35.1614 91.4828 35.1724C91.421 35.1816 91.3586 35.1856 91.2962 35.1843ZM91.5931 33.4605C91.5204 33.4605 91.4488 33.4781 91.3844 33.512C91.3175 33.5461 91.2573 33.5923 91.207 33.6481C91.1529 33.7074 91.1077 33.7743 91.0728 33.8467C91.0362 33.9219 91.0096 34.0017 90.9937 34.0839H91.1776C91.2782 34.0852 91.3787 34.0756 91.4773 34.0554C91.5545 34.0405 91.6291 34.0145 91.6988 33.9781C91.7531 33.9506 91.8003 33.911 91.8368 33.8623C91.8679 33.8203 91.8847 33.7693 91.8846 33.717C91.8843 33.6854 91.8778 33.6542 91.8653 33.6251C91.853 33.5941 91.8345 33.566 91.811 33.5424C91.7847 33.5166 91.7535 33.4966 91.7191 33.4835C91.6789 33.4679 91.6362 33.4601 91.5931 33.4605Z" fill="white"/>
<path d="M94.3197 35.1475H93.952L93.9373 34.7274C93.8757 34.7972 93.8169 34.8598 93.7589 34.9112C93.7045 34.9644 93.6458 35.013 93.5834 35.0565C93.5264 35.0951 93.4646 35.126 93.3995 35.1484C93.3353 35.1705 93.2678 35.1814 93.2 35.1806C93.1065 35.1826 93.0142 35.1598 92.9325 35.1144C92.8555 35.0703 92.7894 35.0094 92.7394 34.9361C92.6862 34.8576 92.647 34.7705 92.6236 34.6787C92.5972 34.58 92.5839 34.4783 92.584 34.3762C92.5832 34.2597 92.6002 34.1437 92.6346 34.0324C92.6671 33.9265 92.7135 33.8254 92.7725 33.7317C92.8303 33.6406 92.8995 33.5571 92.9784 33.4835C93.0563 33.4126 93.1421 33.351 93.234 33.2996C93.3246 33.2487 93.4208 33.2086 93.5208 33.1801C93.6181 33.1529 93.7186 33.1389 93.8196 33.1387C93.9731 33.1404 94.1248 33.1716 94.2664 33.2307L94.5487 33.1387L94.3197 35.1475ZM94.0522 33.5423C94.0005 33.512 93.9444 33.49 93.8858 33.4771C93.8396 33.4669 93.7925 33.4614 93.7451 33.4605C93.6564 33.4607 93.5689 33.4815 93.4896 33.5212C93.406 33.5627 93.3321 33.6212 93.2726 33.6931C93.2064 33.7724 93.155 33.8631 93.1209 33.9606C93.0821 34.0726 93.0631 34.1905 93.0648 34.3091C93.0647 34.3769 93.0709 34.4446 93.0832 34.5113C93.0949 34.5706 93.115 34.6279 93.143 34.6814C93.1674 34.7281 93.2027 34.7681 93.246 34.7982C93.2897 34.8283 93.3418 34.8438 93.3949 34.8423C93.4436 34.8424 93.4918 34.8324 93.5365 34.8129C93.5871 34.7909 93.6347 34.7624 93.678 34.7283C93.728 34.6892 93.7742 34.6455 93.816 34.5977C93.8643 34.5449 93.9088 34.4887 93.9492 34.4295L94.0522 33.5423Z" fill="white"/>
<path d="M95.1652 33.1755H95.533L95.5449 33.6352C95.6019 33.569 95.6589 33.5074 95.7178 33.4513C95.7747 33.3937 95.8362 33.3408 95.9016 33.2932C95.9614 33.2483 96.0269 33.2118 96.0965 33.1847C96.1652 33.1571 96.2386 33.1434 96.3126 33.1443C96.3809 33.1432 96.4488 33.156 96.5121 33.1819C96.5693 33.2065 96.6209 33.2425 96.6638 33.2877C96.7062 33.3335 96.7399 33.3868 96.763 33.4449C96.7882 33.5062 96.804 33.571 96.8099 33.637C96.8669 33.5699 96.9249 33.5065 96.9837 33.4476C97.0405 33.3899 97.1019 33.337 97.1675 33.2895C97.2285 33.2455 97.295 33.2096 97.3652 33.1829C97.4339 33.1568 97.5069 33.1437 97.5804 33.1443C97.6614 33.1422 97.7415 33.1612 97.8129 33.1994C97.8775 33.2346 97.9325 33.2851 97.9729 33.3465C98.0153 33.4109 98.0443 33.4831 98.0584 33.5589C98.0749 33.6424 98.078 33.7281 98.0676 33.8126L97.915 35.153H97.4654L97.6125 33.8549C97.6185 33.8082 97.6185 33.7609 97.6125 33.7142C97.6066 33.6734 97.5929 33.634 97.5721 33.5984C97.5536 33.5659 97.5274 33.5384 97.4957 33.5184C97.4631 33.4977 97.425 33.4872 97.3864 33.4881C97.337 33.4889 97.2883 33.5005 97.2439 33.5221C97.1897 33.5464 97.1388 33.5773 97.0922 33.614C97.0378 33.6576 96.9871 33.7056 96.9405 33.7575C96.8891 33.8145 96.8409 33.8743 96.7961 33.9367V33.9294L96.6573 35.1493H96.2068L96.3549 33.8512C96.3613 33.8046 96.3613 33.7572 96.3549 33.7106C96.3488 33.6695 96.3344 33.6301 96.3126 33.5947C96.2934 33.5621 96.2666 33.5346 96.2344 33.5147C96.2012 33.4939 96.1624 33.4834 96.1232 33.4844C96.0744 33.4855 96.0264 33.4971 95.9825 33.5184C95.9291 33.543 95.8788 33.5739 95.8327 33.6104C95.7787 33.6538 95.7285 33.7018 95.6828 33.7538C95.6317 33.8106 95.5841 33.8704 95.5403 33.9331L95.4006 35.1457H94.9482L95.1652 33.1755Z" fill="white"/>
<path d="M98.542 34.7026L98.5788 34.6814C98.665 34.737 98.7576 34.7817 98.8546 34.8147C98.9434 34.8454 99.0365 34.8619 99.1304 34.8634C99.1805 34.8638 99.2303 34.857 99.2785 34.8432C99.3186 34.8323 99.3565 34.8146 99.3906 34.7908C99.4202 34.7714 99.445 34.7457 99.4632 34.7154C99.4787 34.6872 99.4869 34.6557 99.4871 34.6235C99.4875 34.5853 99.4745 34.5483 99.4504 34.5187C99.4222 34.4858 99.389 34.4575 99.352 34.435C99.307 34.4079 99.2603 34.3836 99.2122 34.3624C99.1598 34.3394 99.1066 34.3155 99.0523 34.2898C98.9976 34.2649 98.9442 34.2373 98.8923 34.207C98.8418 34.1777 98.7949 34.1425 98.7526 34.1022C98.7121 34.0633 98.6788 34.0176 98.6542 33.9671C98.6286 33.9112 98.6161 33.8502 98.6174 33.7887C98.6179 33.7045 98.6384 33.6216 98.6772 33.5469C98.7201 33.4661 98.7792 33.3951 98.8509 33.3382C98.9333 33.2738 99.0268 33.2248 99.1268 33.1939C99.2419 33.1565 99.3624 33.1382 99.4835 33.1397C99.5697 33.14 99.6557 33.1471 99.7409 33.1608C99.8287 33.1734 99.9148 33.1963 99.9974 33.2289L99.8778 33.5653L99.8356 33.5892C99.7661 33.5477 99.6908 33.5167 99.6121 33.4973C99.5383 33.4762 99.462 33.465 99.3851 33.4642C99.336 33.4635 99.2871 33.47 99.2398 33.4835C99.2008 33.495 99.1638 33.5127 99.1304 33.5359C99.1024 33.5556 99.0792 33.5814 99.0624 33.6113C99.0469 33.6394 99.0389 33.6711 99.0394 33.7032C99.0393 33.7299 99.045 33.7564 99.0561 33.7807C99.0672 33.805 99.0835 33.8265 99.1038 33.8439C99.154 33.8856 99.2093 33.9209 99.2683 33.9487C99.3336 33.9809 99.4044 34.0131 99.4807 34.0406C99.5547 34.0713 99.6255 34.1092 99.6922 34.1537C99.7561 34.195 99.8116 34.2481 99.8558 34.31C99.9006 34.3768 99.9234 34.4558 99.921 34.5362C99.921 34.6208 99.9002 34.7042 99.8604 34.7788C99.8164 34.8592 99.7567 34.9299 99.6848 34.9866C99.6023 35.0512 99.5089 35.1004 99.409 35.1319C99.2944 35.1689 99.1745 35.1869 99.0541 35.1852C98.9452 35.185 98.8367 35.1726 98.7305 35.1484C98.6228 35.1246 98.518 35.0892 98.418 35.0427L98.542 34.7026Z" fill="white"/>
</g>
<defs>
<clipPath id="clip0">
<rect width="100" height="43.9263" fill="white"/>
</clipPath>
</defs>
</svg>
