<svg width="175" height="54" viewBox="0 0 175 54" fill="none" xmlns="http://www.w3.org/2000/svg">
<g clip-path="url(#clip0)">
<path d="M47.5 0L65.5 27L47 53.5H56L70 33.5L77.5 43.8125H86.5L74.6875 27L86.5 9.5H77L70 20L56.5 0H47.5Z" fill="white"/>
<path d="M7.512 18.248C9.272 18.248 10.816 18.592 12.144 19.28C13.488 19.968 14.52 20.952 15.24 22.232C15.976 23.496 16.344 24.968 16.344 26.648C16.344 28.328 15.976 29.8 15.24 31.064C14.52 32.312 13.488 33.28 12.144 33.968C10.816 34.656 9.272 35 7.512 35H1.656V18.248H7.512ZM7.392 32.144C9.152 32.144 10.512 31.664 11.472 30.704C12.432 29.744 12.912 28.392 12.912 26.648C12.912 24.904 12.432 23.544 11.472 22.568C10.512 21.576 9.152 21.08 7.392 21.08H5.016V32.144H7.392ZM17.9951 28.304C17.9951 26.96 18.2591 25.768 18.7871 24.728C19.3311 23.688 20.0591 22.888 20.9711 22.328C21.8991 21.768 22.9311 21.488 24.0671 21.488C25.0591 21.488 25.9231 21.688 26.6591 22.088C27.4111 22.488 28.0111 22.992 28.4591 23.6V21.704H31.8431V35H28.4591V33.056C28.0271 33.68 27.4271 34.2 26.6591 34.616C25.9071 35.016 25.0351 35.216 24.0431 35.216C22.9231 35.216 21.8991 34.928 20.9711 34.352C20.0591 33.776 19.3311 32.968 18.7871 31.928C18.2591 30.872 17.9951 29.664 17.9951 28.304ZM28.4591 28.352C28.4591 27.536 28.2991 26.84 27.9791 26.264C27.6591 25.672 27.2271 25.224 26.6831 24.92C26.1391 24.6 25.5551 24.44 24.9311 24.44C24.3071 24.44 23.7311 24.592 23.2031 24.896C22.6751 25.2 22.2431 25.648 21.9071 26.24C21.5871 26.816 21.4271 27.504 21.4271 28.304C21.4271 29.104 21.5871 29.808 21.9071 30.416C22.2431 31.008 22.6751 31.464 23.2031 31.784C23.7471 32.104 24.3231 32.264 24.9311 32.264C25.5551 32.264 26.1391 32.112 26.6831 31.808C27.2271 31.488 27.6591 31.04 27.9791 30.464C28.2991 29.872 28.4591 29.168 28.4591 28.352ZM41.2208 24.464H38.8928V35H35.4848V24.464H33.9728V21.704H35.4848V21.032C35.4848 19.4 35.9488 18.2 36.8768 17.432C37.8048 16.664 39.2048 16.304 41.0768 16.352V19.184C40.2608 19.168 39.6928 19.304 39.3728 19.592C39.0528 19.88 38.8928 20.4 38.8928 21.152V21.704H41.2208V24.464ZM46.7582 23.768C47.1902 23.064 47.7502 22.512 48.4382 22.112C49.1422 21.712 49.9422 21.512 50.8382 21.512V25.04H49.9502C48.8942 25.04 48.0942 25.288 47.5502 25.784C47.0222 26.28 46.7582 27.144 46.7582 28.376V35H43.3982V21.704H46.7582V23.768ZM54.8053 20.12C54.2133 20.12 53.7173 19.936 53.3173 19.568C52.9333 19.184 52.7413 18.712 52.7413 18.152C52.7413 17.592 52.9333 17.128 53.3173 16.76C53.7173 16.376 54.2133 16.184 54.8053 16.184C55.3973 16.184 55.8853 16.376 56.2693 16.76C56.6693 17.128 56.8693 17.592 56.8693 18.152C56.8693 18.712 56.6693 19.184 56.2693 19.568C55.8853 19.936 55.3973 20.12 54.8053 20.12ZM56.4613 21.704V35H53.1013V21.704H56.4613Z" fill="white"/>
<path d="M81.792 28.352C81.792 26.976 82.072 25.776 82.632 24.752C83.192 23.712 83.968 22.912 84.96 22.352C85.952 21.776 87.088 21.488 88.368 21.488C90.016 21.488 91.376 21.904 92.448 22.736C93.536 23.552 94.264 24.704 94.632 26.192H91.008C90.816 25.616 90.488 25.168 90.024 24.848C89.576 24.512 89.016 24.344 88.344 24.344C87.384 24.344 86.624 24.696 86.064 25.4C85.504 26.088 85.224 27.072 85.224 28.352C85.224 29.616 85.504 30.6 86.064 31.304C86.624 31.992 87.384 32.336 88.344 32.336C89.704 32.336 90.592 31.728 91.008 30.512H94.632C94.264 31.952 93.536 33.096 92.448 33.944C91.36 34.792 90 35.216 88.368 35.216C87.088 35.216 85.952 34.936 84.96 34.376C83.968 33.8 83.192 33 82.632 31.976C82.072 30.936 81.792 29.728 81.792 28.352ZM104.582 21.512C105.59 21.512 106.486 21.736 107.27 22.184C108.054 22.616 108.662 23.264 109.094 24.128C109.542 24.976 109.766 26 109.766 27.2V35H106.406V27.656C106.406 26.6 106.142 25.792 105.614 25.232C105.086 24.656 104.366 24.368 103.454 24.368C102.526 24.368 101.79 24.656 101.246 25.232C100.718 25.792 100.454 26.6 100.454 27.656V35H97.0935V17.24H100.454V23.36C100.886 22.784 101.462 22.336 102.182 22.016C102.902 21.68 103.702 21.512 104.582 21.512ZM112.097 28.304C112.097 26.96 112.361 25.768 112.889 24.728C113.433 23.688 114.161 22.888 115.073 22.328C116.001 21.768 117.033 21.488 118.169 21.488C119.161 21.488 120.025 21.688 120.761 22.088C121.513 22.488 122.113 22.992 122.561 23.6V21.704H125.945V35H122.561V33.056C122.129 33.68 121.529 34.2 120.761 34.616C120.009 35.016 119.137 35.216 118.145 35.216C117.025 35.216 116.001 34.928 115.073 34.352C114.161 33.776 113.433 32.968 112.889 31.928C112.361 30.872 112.097 29.664 112.097 28.304ZM122.561 28.352C122.561 27.536 122.401 26.84 122.081 26.264C121.761 25.672 121.329 25.224 120.785 24.92C120.241 24.6 119.657 24.44 119.033 24.44C118.409 24.44 117.833 24.592 117.305 24.896C116.777 25.2 116.345 25.648 116.009 26.24C115.689 26.816 115.529 27.504 115.529 28.304C115.529 29.104 115.689 29.808 116.009 30.416C116.345 31.008 116.777 31.464 117.305 31.784C117.849 32.104 118.425 32.264 119.033 32.264C119.657 32.264 120.241 32.112 120.785 31.808C121.329 31.488 121.761 31.04 122.081 30.464C122.401 29.872 122.561 29.168 122.561 28.352ZM136.594 21.512C138.178 21.512 139.458 22.016 140.434 23.024C141.41 24.016 141.898 25.408 141.898 27.2V35H138.538V27.656C138.538 26.6 138.274 25.792 137.746 25.232C137.218 24.656 136.498 24.368 135.586 24.368C134.658 24.368 133.922 24.656 133.378 25.232C132.85 25.792 132.586 26.6 132.586 27.656V35H129.226V21.704H132.586V23.36C133.034 22.784 133.602 22.336 134.29 22.016C134.994 21.68 135.762 21.512 136.594 21.512ZM150.302 21.488C151.294 21.488 152.166 21.688 152.918 22.088C153.67 22.472 154.262 22.976 154.694 23.6V21.704H158.078V35.096C158.078 36.328 157.83 37.424 157.334 38.384C156.838 39.36 156.094 40.128 155.102 40.688C154.11 41.264 152.91 41.552 151.502 41.552C149.614 41.552 148.062 41.112 146.846 40.232C145.646 39.352 144.966 38.152 144.806 36.632H148.142C148.318 37.24 148.694 37.72 149.27 38.072C149.862 38.44 150.574 38.624 151.406 38.624C152.382 38.624 153.174 38.328 153.782 37.736C154.39 37.16 154.694 36.28 154.694 35.096V33.032C154.262 33.656 153.662 34.176 152.894 34.592C152.142 35.008 151.278 35.216 150.302 35.216C149.182 35.216 148.158 34.928 147.23 34.352C146.302 33.776 145.566 32.968 145.021 31.928C144.493 30.872 144.229 29.664 144.229 28.304C144.229 26.96 144.493 25.768 145.021 24.728C145.566 23.688 146.294 22.888 147.206 22.328C148.134 21.768 149.166 21.488 150.302 21.488ZM154.694 28.352C154.694 27.536 154.534 26.84 154.214 26.264C153.894 25.672 153.462 25.224 152.918 24.92C152.374 24.6 151.79 24.44 151.166 24.44C150.542 24.44 149.966 24.592 149.438 24.896C148.91 25.2 148.478 25.648 148.142 26.24C147.822 26.816 147.662 27.504 147.662 28.304C147.662 29.104 147.822 29.808 148.142 30.416C148.478 31.008 148.91 31.464 149.438 31.784C149.982 32.104 150.558 32.264 151.166 32.264C151.79 32.264 152.374 32.112 152.918 31.808C153.462 31.488 153.894 31.04 154.214 30.464C154.534 29.872 154.694 29.168 154.694 28.352ZM173.719 28.064C173.719 28.544 173.687 28.976 173.623 29.36H163.903C163.983 30.32 164.319 31.072 164.911 31.616C165.503 32.16 166.231 32.432 167.095 32.432C168.343 32.432 169.231 31.896 169.759 30.824H173.383C172.999 32.104 172.263 33.16 171.175 33.992C170.087 34.808 168.751 35.216 167.167 35.216C165.887 35.216 164.735 34.936 163.711 34.376C162.703 33.8 161.911 32.992 161.335 31.952C160.775 30.912 160.495 29.712 160.495 28.352C160.495 26.976 160.775 25.768 161.335 24.728C161.895 23.688 162.679 22.888 163.687 22.328C164.695 21.768 165.855 21.488 167.167 21.488C168.431 21.488 169.559 21.76 170.551 22.304C171.559 22.848 172.335 23.624 172.879 24.632C173.439 25.624 173.719 26.768 173.719 28.064ZM170.239 27.104C170.223 26.24 169.911 25.552 169.303 25.04C168.695 24.512 167.951 24.248 167.071 24.248C166.239 24.248 165.535 24.504 164.959 25.016C164.399 25.512 164.055 26.208 163.927 27.104H170.239Z" fill="white"/>
<path d="M89.4329 41.8644H89L89.7667 38H92.0461L91.9626 38.4287H90.1162L89.8658 39.6744H91.6758L91.5923 40.1031H89.7772L89.4329 41.8644Z" fill="white"/>
<path d="M92.8953 41.8644H92.5041L93.0622 39.066H93.4534L93.3647 39.4948C93.4968 39.3287 93.6342 39.207 93.7768 39.1298C93.9193 39.0487 94.0949 39.0081 94.3036 39.0081L94.2149 39.4542C94.1732 39.4388 94.1071 39.4311 94.0167 39.4311C93.8776 39.4311 93.742 39.4755 93.6099 39.5643C93.4812 39.6531 93.3734 39.7613 93.2865 39.8888L92.8953 41.8644Z" fill="white"/>
<path d="M95.7384 38.6663C95.6688 38.6663 95.6114 38.6431 95.5662 38.5968C95.521 38.5465 95.4984 38.4847 95.4984 38.4114C95.4984 38.3148 95.5297 38.2356 95.5923 38.1738C95.6549 38.112 95.7227 38.0811 95.7957 38.0811C95.8618 38.0811 95.9174 38.1062 95.9626 38.1564C96.0113 38.2066 96.0357 38.2665 96.0357 38.336C96.0357 38.4326 96.0044 38.5118 95.9418 38.5736C95.8792 38.6354 95.8114 38.6663 95.7384 38.6663ZM95.2689 41.8644H94.8777L95.4358 39.066H95.827L95.2689 41.8644Z" fill="white"/>
<path d="M97.9583 41.934C97.6141 41.934 97.3341 41.8219 97.1185 41.5979C96.9064 41.3739 96.8004 41.0688 96.8004 40.6825C96.8004 40.219 96.9377 39.8231 97.2124 39.4948C97.4871 39.1626 97.8227 38.9965 98.2191 38.9965C98.6607 38.9965 98.9754 39.1703 99.1632 39.518L98.8659 39.7671C98.7372 39.5122 98.5251 39.3847 98.2295 39.3847C97.9235 39.3847 97.6766 39.5122 97.4889 39.7671C97.3011 40.022 97.2072 40.3252 97.2072 40.6767C97.2072 40.9548 97.2802 41.1692 97.4263 41.3198C97.5758 41.4705 97.7653 41.5458 97.9948 41.5458C98.2452 41.5458 98.4573 41.4357 98.6312 41.2155L98.8554 41.5052C98.6051 41.791 98.306 41.934 97.9583 41.934Z" fill="white"/>
<path d="M100.692 41.934C100.511 41.934 100.37 41.8915 100.27 41.8065C100.169 41.7215 100.118 41.5941 100.118 41.4241C100.118 41.3739 100.124 41.3198 100.134 41.2619L100.499 39.4426H100.082L100.16 39.066H100.577L100.729 38.3013H101.12L100.969 39.066H101.48L101.401 39.4426H100.89L100.546 41.1692C100.539 41.2155 100.536 41.2542 100.536 41.2851C100.536 41.4589 100.619 41.5458 100.786 41.5458C100.883 41.5458 100.963 41.5149 101.026 41.4531L101.073 41.8007C100.969 41.8895 100.842 41.934 100.692 41.934Z" fill="white"/>
<path d="M102.982 38.6663C102.912 38.6663 102.855 38.6431 102.809 38.5968C102.764 38.5465 102.742 38.4847 102.742 38.4114C102.742 38.3148 102.773 38.2356 102.836 38.1738C102.898 38.112 102.966 38.0811 103.039 38.0811C103.105 38.0811 103.161 38.1062 103.206 38.1564C103.255 38.2066 103.279 38.2665 103.279 38.336C103.279 38.4326 103.248 38.5118 103.185 38.5736C103.122 38.6354 103.055 38.6663 102.982 38.6663ZM102.512 41.8644H102.121L102.679 39.066H103.07L102.512 41.8644Z" fill="white"/>
<path d="M105.196 41.934C104.842 41.934 104.56 41.8219 104.351 41.5979C104.146 41.37 104.044 41.0688 104.044 40.6941C104.044 40.2422 104.177 39.8463 104.445 39.5064C104.716 39.1665 105.05 38.9965 105.447 38.9965C105.801 38.9965 106.081 39.1105 106.286 39.3384C106.495 39.5662 106.599 39.8675 106.599 40.2422C106.599 40.6941 106.464 41.09 106.193 41.4299C105.925 41.7659 105.593 41.934 105.196 41.934ZM105.207 41.5458C105.485 41.5458 105.718 41.4164 105.906 41.1576C106.093 40.8949 106.187 40.5937 106.187 40.2538C106.187 39.9873 106.121 39.7767 105.989 39.6222C105.857 39.4639 105.673 39.3847 105.436 39.3847C105.158 39.3847 104.925 39.516 104.737 39.7787C104.55 40.0375 104.456 40.3368 104.456 40.6767C104.456 40.9432 104.522 41.1557 104.654 41.314C104.786 41.4685 104.97 41.5458 105.207 41.5458Z" fill="white"/>
<path d="M109.673 41.8644H109.282L109.647 40.0278C109.668 39.9235 109.678 39.8598 109.678 39.8366C109.678 39.6821 109.631 39.5682 109.537 39.4948C109.447 39.4214 109.329 39.3847 109.183 39.3847C108.898 39.3847 108.63 39.5315 108.379 39.825L107.973 41.8644H107.581L108.139 39.066H108.531L108.447 39.4716C108.746 39.1549 109.044 38.9965 109.339 38.9965C109.565 38.9965 109.746 39.0583 109.882 39.1819C110.021 39.3017 110.09 39.4716 110.09 39.6918C110.09 39.769 110.08 39.8463 110.059 39.9235L109.673 41.8644Z" fill="white"/>
<path d="M111.497 41.8644H111.106L111.873 38H112.264L111.497 41.8644Z" fill="white"/>
<path d="M114.26 41.934C113.881 41.934 113.58 41.8219 113.357 41.5979C113.138 41.3739 113.029 41.0726 113.029 40.6941C113.029 40.2267 113.166 39.827 113.441 39.4948C113.716 39.1626 114.051 38.9965 114.448 38.9965C114.774 38.9965 115.037 39.1105 115.235 39.3384C115.433 39.5662 115.532 39.8598 115.532 40.219C115.532 40.3349 115.519 40.4643 115.491 40.6072H113.436C113.436 40.6149 113.434 40.6362 113.43 40.6709C113.43 40.7018 113.43 40.725 113.43 40.7404C113.43 40.9722 113.505 41.1692 113.655 41.3314C113.804 41.4936 114.015 41.5747 114.286 41.5747C114.564 41.5747 114.806 41.484 115.011 41.3024L115.141 41.6037C114.891 41.8239 114.597 41.934 114.26 41.934ZM113.477 40.2885H115.167C115.174 40.2576 115.178 40.2209 115.178 40.1784C115.178 39.939 115.11 39.742 114.974 39.5875C114.842 39.433 114.654 39.3557 114.411 39.3557C114.185 39.3557 113.983 39.4484 113.806 39.6338C113.629 39.8154 113.519 40.0336 113.477 40.2885Z" fill="white"/>
<path d="M117.491 41.934C117.018 41.934 116.663 41.7698 116.427 41.4415L116.677 41.1402C116.75 41.2599 116.863 41.3642 117.016 41.4531C117.169 41.538 117.334 41.5805 117.512 41.5805C117.686 41.5805 117.825 41.5323 117.929 41.4357C118.037 41.3391 118.091 41.2233 118.091 41.0881C118.091 40.9915 118.046 40.9065 117.955 40.8331C117.865 40.7598 117.753 40.698 117.621 40.6477C117.493 40.5937 117.362 40.5377 117.23 40.4797C117.101 40.4218 116.992 40.3407 116.902 40.2364C116.811 40.1282 116.766 40.0027 116.766 39.8598C116.766 39.6165 116.851 39.4117 117.021 39.2457C117.192 39.0796 117.425 38.9965 117.72 38.9965C117.929 38.9965 118.119 39.0409 118.289 39.1298C118.463 39.2148 118.593 39.3229 118.68 39.4542L118.456 39.7381C118.397 39.6338 118.294 39.5431 118.148 39.4658C118.006 39.3886 117.856 39.3499 117.7 39.3499C117.536 39.3499 117.404 39.3905 117.303 39.4716C117.206 39.5527 117.157 39.6551 117.157 39.7787C117.157 39.8714 117.202 39.9525 117.293 40.022C117.383 40.0877 117.493 40.1475 117.621 40.2016C117.753 40.2518 117.884 40.3078 118.013 40.3696C118.145 40.4276 118.256 40.5126 118.346 40.6246C118.437 40.7327 118.482 40.8621 118.482 41.0127C118.482 41.2677 118.392 41.4859 118.211 41.6674C118.033 41.8451 117.793 41.934 117.491 41.934Z" fill="white"/>
<path d="M120.567 41.934C120.095 41.934 119.74 41.7698 119.503 41.4415L119.754 41.1402C119.827 41.2599 119.94 41.3642 120.093 41.4531C120.246 41.538 120.411 41.5805 120.588 41.5805C120.762 41.5805 120.901 41.5323 121.006 41.4357C121.113 41.3391 121.167 41.2233 121.167 41.0881C121.167 40.9915 121.122 40.9065 121.032 40.8331C120.941 40.7598 120.83 40.698 120.698 40.6477C120.569 40.5937 120.439 40.5377 120.307 40.4797C120.178 40.4218 120.069 40.3407 119.978 40.2364C119.888 40.1282 119.842 40.0027 119.842 39.8598C119.842 39.6165 119.928 39.4117 120.098 39.2457C120.268 39.0796 120.501 38.9965 120.797 38.9965C121.006 38.9965 121.195 39.0409 121.366 39.1298C121.539 39.2148 121.67 39.3229 121.757 39.4542L121.532 39.7381C121.473 39.6338 121.371 39.5431 121.225 39.4658C121.082 39.3886 120.933 39.3499 120.776 39.3499C120.613 39.3499 120.481 39.3905 120.38 39.4716C120.282 39.5527 120.234 39.6551 120.234 39.7787C120.234 39.8714 120.279 39.9525 120.369 40.022C120.46 40.0877 120.569 40.1475 120.698 40.2016C120.83 40.2518 120.96 40.3078 121.089 40.3696C121.221 40.4276 121.333 40.5126 121.423 40.6246C121.513 40.7327 121.559 40.8621 121.559 41.0127C121.559 41.2677 121.468 41.4859 121.287 41.6674C121.11 41.8451 120.87 41.934 120.567 41.934Z" fill="white"/>
<path d="M128.092 41.8644H127.659L128.306 38.6141L126.475 41.8644H126.298L125.761 38.6141L125.119 41.8644H124.686L125.453 38H126.053L126.543 40.978L128.217 38H128.859L128.092 41.8644Z" fill="white"/>
<path d="M130.792 41.934C130.437 41.934 130.156 41.8219 129.947 41.5979C129.742 41.37 129.639 41.0688 129.639 40.6941C129.639 40.2422 129.773 39.8463 130.041 39.5064C130.312 39.1665 130.646 38.9965 131.042 38.9965C131.397 38.9965 131.677 39.1105 131.882 39.3384C132.091 39.5662 132.195 39.8675 132.195 40.2422C132.195 40.6941 132.059 41.09 131.788 41.4299C131.521 41.7659 131.188 41.934 130.792 41.934ZM130.802 41.5458C131.081 41.5458 131.314 41.4164 131.501 41.1576C131.689 40.8949 131.783 40.5937 131.783 40.2538C131.783 39.9873 131.717 39.7767 131.585 39.6222C131.453 39.4639 131.268 39.3847 131.032 39.3847C130.754 39.3847 130.521 39.516 130.333 39.7787C130.145 40.0375 130.051 40.3368 130.051 40.6767C130.051 40.9432 130.117 41.1557 130.25 41.314C130.382 41.4685 130.566 41.5458 130.802 41.5458Z" fill="white"/>
<path d="M135.269 41.8644H134.877L135.243 40.0278C135.263 39.9235 135.274 39.8598 135.274 39.8366C135.274 39.6821 135.227 39.5682 135.133 39.4948C135.043 39.4214 134.924 39.3847 134.778 39.3847C134.493 39.3847 134.225 39.5315 133.975 39.825L133.568 41.8644H133.177L133.735 39.066H134.126L134.043 39.4716C134.342 39.1549 134.639 38.9965 134.935 38.9965C135.161 38.9965 135.342 39.0583 135.477 39.1819C135.616 39.3017 135.686 39.4716 135.686 39.6918C135.686 39.769 135.676 39.8463 135.655 39.9235L135.269 41.8644Z" fill="white"/>
<path d="M138.032 41.934C137.653 41.934 137.352 41.8219 137.13 41.5979C136.911 41.3739 136.801 41.0726 136.801 40.6941C136.801 40.2267 136.938 39.827 137.213 39.4948C137.488 39.1626 137.823 38.9965 138.22 38.9965C138.547 38.9965 138.809 39.1105 139.007 39.3384C139.206 39.5662 139.305 39.8598 139.305 40.219C139.305 40.3349 139.291 40.4643 139.263 40.6072H137.208C137.208 40.6149 137.206 40.6362 137.203 40.6709C137.203 40.7018 137.203 40.725 137.203 40.7404C137.203 40.9722 137.277 41.1692 137.427 41.3314C137.576 41.4936 137.787 41.5747 138.058 41.5747C138.336 41.5747 138.578 41.484 138.783 41.3024L138.913 41.6037C138.663 41.8239 138.369 41.934 138.032 41.934ZM137.25 40.2885H138.94C138.946 40.2576 138.95 40.2209 138.95 40.1784C138.95 39.939 138.882 39.742 138.747 39.5875C138.614 39.433 138.427 39.3557 138.183 39.3557C137.957 39.3557 137.756 39.4484 137.578 39.6338C137.401 39.8154 137.291 40.0336 137.25 40.2885Z" fill="white"/>
<path d="M139.943 42.9363L140.079 42.5481C140.142 42.579 140.223 42.5944 140.324 42.5944C140.463 42.5944 140.589 42.5017 140.7 42.3163L140.955 41.8818L140.475 39.066H140.888L141.263 41.3604L142.562 39.066H143L141.06 42.4322C140.841 42.8107 140.578 43 140.272 43C140.147 43 140.037 42.9788 139.943 42.9363Z" fill="white"/>
</g>
<defs>
<clipPath id="clip0">
<rect width="175" height="53.5" fill="white"/>
</clipPath>
</defs>
</svg>
